<?xml version="1.0" encoding="UTF-8" standalone="no"?>
<!-- Created with Inkscape (http://www.inkscape.org/) -->

<svg
   xmlns:dc="http://purl.org/dc/elements/1.1/"
   xmlns:cc="http://creativecommons.org/ns#"
   xmlns:rdf="http://www.w3.org/1999/02/22-rdf-syntax-ns#"
   xmlns:svg="http://www.w3.org/2000/svg"
   xmlns="http://www.w3.org/2000/svg"
   xmlns:sodipodi="http://sodipodi.sourceforge.net/DTD/sodipodi-0.dtd"
   xmlns:inkscape="http://www.inkscape.org/namespaces/inkscape"
   width="14.111111mm"
   height="14.111111mm"
   viewBox="0 0 49.999998 49.999998"
   id="svg2"
   version="1.1"
   inkscape:version="0.91 r13725"
   sodipodi:docname="textOutline.svg"
   inkscape:export-filename="/home/matthias/Programme/GD_MyFork/GDevelop/Binaries/Output/Release_Windows/res/actions/textOutline.png"
   inkscape:export-xdpi="28.799999"
   inkscape:export-ydpi="28.799999">
  <defs
     id="defs4" />
  <sodipodi:namedview
     id="base"
     pagecolor="#ffffff"
     bordercolor="#666666"
     borderopacity="1.0"
     inkscape:pageopacity="0.0"
     inkscape:pageshadow="2"
     inkscape:zoom="7.9195959"
     inkscape:cx="2.2294479"
     inkscape:cy="21.435539"
     inkscape:document-units="px"
     inkscape:current-layer="layer1"
     showgrid="false"
     fit-margin-top="0"
     fit-margin-left="0"
     fit-margin-right="0"
     fit-margin-bottom="0"
     inkscape:window-width="1920"
     inkscape:window-height="1026"
     inkscape:window-x="0"
     inkscape:window-y="0"
     inkscape:window-maximized="1" />
  <metadata
     id="metadata7">
    <rdf:RDF>
      <cc:Work
         rdf:about="">
        <dc:format>image/svg+xml</dc:format>
        <dc:type
           rdf:resource="http://purl.org/dc/dcmitype/StillImage" />
        <dc:title></dc:title>
      </cc:Work>
    </rdf:RDF>
  </metadata>
  <g
     inkscape:label="Ebene 1"
     inkscape:groupmode="layer"
     id="layer1"
     transform="translate(-240.17857,-248.6122)">
    <g
       id="g4170"
       transform="matrix(1.237589,0,0,1.237589,-195.27257,-62.678437)">
      <g
         id="text4151"
         style="font-style:normal;font-weight:normal;font-size:40px;line-height:125%;font-family:Sans;letter-spacing:0px;word-spacing:0px;fill:#000000;fill-opacity:1;stroke:none;stroke-width:1px;stroke-linecap:butt;stroke-linejoin:miter;stroke-opacity:1">
        <path
           d="m 267.18945,255.19531 c -4.41577,0 -8.17239,1.55302 -10.89257,4.58985 -2.71003,3.02715 -4.03125,7.09658 -4.03126,11.95507 0,4.85851 1.32124,8.92792 4.03126,11.95508 a 1.40742,1.40742 0 0 0 0.002,0.002 c 2.721,3.02332 6.47633,4.56836 10.89062,4.56835 4.40227,0 8.1459,-1.54585 10.85352,-4.57031 a 1.40742,1.40742 0 0 0 0.002,-0.004 c 2.70722,-3.03843 4.0293,-7.10498 4.0293,-11.95118 0,-4.85677 -1.32123,-8.92435 -4.0293,-11.95117 -2.7068,-3.03795 -6.45171,-4.59375 -10.85547,-4.59375 z m 0,6.01953 c 2.51491,0 4.26144,0.83301 5.6875,2.66016 a 1.40742,1.40742 0 0 0 0.004,0.004 c 1.4365,1.82625 2.2168,4.39026 2.2168,7.86132 0,3.4573 -0.77944,6.01445 -2.2168,7.8418 a 1.40742,1.40742 0 0 0 -0.004,0.004 c -1.42606,1.82714 -3.17259,2.66015 -5.6875,2.66015 -2.51489,0 -4.27977,-0.83734 -5.73242,-2.66992 -1.43509,-1.82704 -2.21484,-4.3815 -2.21484,-7.83594 0,-3.46819 0.7806,-6.0295 2.21484,-7.85546 1.45265,-1.83258 3.21753,-2.66993 5.73242,-2.66993 z"
           id="path4166"
           style="fill:#ff4e4e;fill-opacity:1"
           inkscape:original="M 267.18945 256.60352 C 263.08789 256.60352 259.80664 257.97721 257.3457 260.72461 C 254.89779 263.45898 253.67383 267.13086 253.67383 271.74023 C 253.67383 276.34961 254.89779 280.02148 257.3457 282.75586 C 259.80664 285.49023 263.08789 286.85742 267.18945 286.85742 C 271.27799 286.85742 274.54622 285.49023 276.99414 282.75586 C 279.44205 280.00846 280.66602 276.33659 280.66602 271.74023 C 280.66602 267.13086 279.44205 263.45898 276.99414 260.72461 C 274.54622 257.97721 271.27799 256.60352 267.18945 256.60352 z M 267.18945 259.80664 C 270.05404 259.80664 272.31966 260.87435 273.98633 263.00977 C 275.66601 265.14519 276.50586 268.05534 276.50586 271.74023 C 276.50586 275.41211 275.66601 278.31575 273.98633 280.45117 C 272.31966 282.58659 270.05404 283.6543 267.18945 283.6543 C 264.32487 283.6543 262.04623 282.58659 260.35352 280.45117 C 258.67383 278.31575 257.83398 275.41211 257.83398 271.74023 C 257.83398 268.05534 258.67383 265.14519 260.35352 263.00977 C 262.04623 260.87435 264.32487 259.80664 267.18945 259.80664 z "
           inkscape:radius="1.4072793"
           sodipodi:type="inkscape:offset" />
        <path
           d="m 267.18945,256.60352 c -4.10156,0 -7.38281,1.37369 -9.84375,4.12109 -2.44791,2.73437 -3.67187,6.40625 -3.67187,11.01562 0,4.60938 1.22396,8.28125 3.67187,11.01563 2.46094,2.73437 5.74219,4.10156 9.84375,4.10156 4.08854,0 7.35677,-1.36719 9.80469,-4.10156 2.44791,-2.7474 3.67188,-6.41927 3.67188,-11.01563 0,-4.60937 -1.22397,-8.28125 -3.67188,-11.01562 -2.44792,-2.7474 -5.71615,-4.12109 -9.80469,-4.12109 z m 0,3.20312 c 2.86459,0 5.13021,1.06771 6.79688,3.20313 1.67968,2.13542 2.51953,5.04557 2.51953,8.73046 0,3.67188 -0.83985,6.57552 -2.51953,8.71094 -1.66667,2.13542 -3.93229,3.20313 -6.79688,3.20313 -2.86458,0 -5.14322,-1.06771 -6.83593,-3.20313 -1.67969,-2.13542 -2.51954,-5.03906 -2.51954,-8.71094 0,-3.68489 0.83985,-6.59504 2.51954,-8.73046 1.69271,-2.13542 3.97135,-3.20313 6.83593,-3.20313 z"
           id="path4162"
           inkscape:original="M 267.18945 256.60352 C 263.08789 256.60352 259.80664 257.97721 257.3457 260.72461 C 254.89779 263.45898 253.67383 267.13086 253.67383 271.74023 C 253.67383 276.34961 254.89779 280.02148 257.3457 282.75586 C 259.80664 285.49023 263.08789 286.85742 267.18945 286.85742 C 271.27799 286.85742 274.54622 285.49023 276.99414 282.75586 C 279.44205 280.00846 280.66602 276.33659 280.66602 271.74023 C 280.66602 267.13086 279.44205 263.45898 276.99414 260.72461 C 274.54622 257.97721 271.27799 256.60352 267.18945 256.60352 z M 267.18945 259.80664 C 270.05404 259.80664 272.31966 260.87435 273.98633 263.00977 C 275.66601 265.14519 276.50586 268.05534 276.50586 271.74023 C 276.50586 275.41211 275.66601 278.31575 273.98633 280.45117 C 272.31966 282.58659 270.05404 283.6543 267.18945 283.6543 C 264.32487 283.6543 262.04623 282.58659 260.35352 280.45117 C 258.67383 278.31575 257.83398 275.41211 257.83398 271.74023 C 257.83398 268.05534 258.67383 265.14519 260.35352 263.00977 C 262.04623 260.87435 264.32487 259.80664 267.18945 259.80664 z "
           inkscape:radius="0"
           sodipodi:type="inkscape:offset" />
      </g>
    </g>
    <g
       id="g4207"
       transform="matrix(1.3875621,0,0,1.3875621,-102.77149,-106.04052)">
      <g
         style="font-style:normal;font-weight:normal;font-size:40px;line-height:125%;font-family:Sans;letter-spacing:0px;word-spacing:0px;fill:#a146ff;fill-opacity:1;stroke:none;stroke-width:1px;stroke-linecap:butt;stroke-linejoin:miter;stroke-opacity:1"
         id="g4201">
        <path
           d="m 262.95117,256.34375 a 2.6884939,2.6884939 0 0 0 -2.51172,1.72852 l -11.13281,29.16015 a 2.6884939,2.6884939 0 0 0 2.51172,3.64649 l 4.16016,0 a 2.6884939,2.6884939 0 0 0 2.5332,-1.78711 l 2.02148,-5.69336 9.34766,0 2.02148,5.69336 a 2.6884939,2.6884939 0 0 0 2.53321,1.78711 l 4.10156,0 a 2.6884939,2.6884939 0 0 0 2.51172,-3.64453 l -11.11328,-29.16016 a 2.6884939,2.6884939 0 0 0 -2.51172,-1.73047 l -4.47266,0 z m 2.23047,14.33008 1.50586,4.06836 -3.00586,0 1.5,-4.06836 z"
           id="path4205"
           style="fill:#a146ff;fill-opacity:1"
           inkscape:original="M 262.95117 259.03125 L 251.81836 288.19141 L 255.97852 288.19141 L 258.63477 280.71094 L 271.7793 280.71094 L 274.43555 288.19141 L 278.53711 288.19141 L 267.42383 259.03125 L 262.95117 259.03125 z M 265.17773 262.91797 L 270.54883 277.42969 L 259.82617 277.42969 L 265.17773 262.91797 z "
           inkscape:radius="2.688225"
           sodipodi:type="inkscape:offset" />
      </g>
      <g
         id="text4194"
         style="font-style:normal;font-weight:normal;font-size:40px;line-height:125%;font-family:Sans;letter-spacing:0px;word-spacing:0px;fill:#000000;fill-opacity:1;stroke:none;stroke-width:1px;stroke-linecap:butt;stroke-linejoin:miter;stroke-opacity:1">
        <path
           id="path4199"
           d="m 265.17857,262.91882 -5.35156,14.51172 10.72266,0 -5.3711,-14.51172 z m -2.22656,-3.88672 4.47266,0 11.11328,29.16016 -4.10156,0 -2.65625,-7.48047 -13.14454,0 -2.65625,7.48047 -4.16015,0 11.13281,-29.16016 z"
           inkscape:connector-curvature="0" />
      </g>
    </g>
  </g>
</svg>
