<svg width="207" height="158" viewBox="0 0 207 158" fill="none" xmlns="http://www.w3.org/2000/svg">
<g opacity="0.65">
<path d="M78.0688 74.6908C78.2894 74.6908 78.4682 74.4219 78.4682 74.0903C78.4682 73.7586 78.2894 73.4898 78.0688 73.4898C77.8483 73.4898 77.6694 73.7586 77.6694 74.0903C77.6694 74.4219 77.8483 74.6908 78.0688 74.6908Z" fill="#D1FEF9"/>
<path d="M77.7182 61.9879C78.1324 61.9879 78.4682 61.483 78.4682 60.8602C78.4682 60.2374 78.1324 59.7325 77.7182 59.7325C77.3039 59.7325 76.9681 60.2374 76.9681 60.8602C76.9681 61.483 77.3039 61.9879 77.7182 61.9879Z" fill="#D1FEF9"/>
<path d="M79.3058 66.6089C79.6124 66.6089 79.861 66.2352 79.861 65.7741C79.861 65.3131 79.6124 64.9393 79.3058 64.9393C78.9992 64.9393 78.7506 65.3131 78.7506 65.7741C78.7506 66.2352 78.9992 66.6089 79.3058 66.6089Z" fill="#D1FEF9"/>
<path d="M73.4192 60.0424C73.5779 60.0424 73.7065 59.8489 73.7065 59.6103C73.7065 59.3717 73.5779 59.1783 73.4192 59.1783C73.2605 59.1783 73.1318 59.3717 73.1318 59.6103C73.1318 59.8489 73.2605 60.0424 73.4192 60.0424Z" fill="#D1FEF9"/>
<path d="M74.3802 51.3279C74.512 51.3279 74.6188 51.1673 74.6188 50.9691C74.6188 50.7709 74.512 50.6103 74.3802 50.6103C74.2484 50.6103 74.1416 50.7709 74.1416 50.9691C74.1416 51.1673 74.2484 51.3279 74.3802 51.3279Z" fill="#D1FEF9"/>
<path d="M88.3693 54.9485C88.8221 54.9485 89.1891 54.3966 89.1891 53.7158C89.1891 53.035 88.8221 52.4831 88.3693 52.4831C87.9165 52.4831 87.5494 53.035 87.5494 53.7158C87.5494 54.3966 87.9165 54.9485 88.3693 54.9485Z" fill="#D1FEF9"/>
<path d="M86.6044 58.8177C86.8232 58.8177 87.0005 58.5511 87.0005 58.2221C87.0005 57.8932 86.8232 57.6265 86.6044 57.6265C86.3856 57.6265 86.2083 57.8932 86.2083 58.2221C86.2083 58.5511 86.3856 58.8177 86.6044 58.8177Z" fill="#D1FEF9"/>
<path d="M89.4622 51.428C89.6128 51.428 89.7349 51.2444 89.7349 51.0179C89.7349 50.7914 89.6128 50.6078 89.4622 50.6078C89.3116 50.6078 89.1895 50.7914 89.1895 51.0179C89.1895 51.2444 89.3116 51.428 89.4622 51.428Z" fill="#D1FEF9"/>
<path d="M86.6763 73.8778C87.2788 73.8778 87.7673 73.1434 87.7673 72.2375C87.7673 71.3316 87.2788 70.5972 86.6763 70.5972C86.0738 70.5972 85.5853 71.3316 85.5853 72.2375C85.5853 73.1434 86.0738 73.8778 86.6763 73.8778Z" fill="#D1FEF9"/>
<path d="M115.108 115.533C115.352 115.533 115.551 115.235 115.551 114.867C115.551 114.499 115.352 114.2 115.108 114.2C114.863 114.2 114.664 114.499 114.664 114.867C114.664 115.235 114.863 115.533 115.108 115.533Z" fill="#D1FEF9"/>
<path d="M120.02 95.8006C120.289 95.8006 120.506 95.4738 120.506 95.0707C120.506 94.6676 120.289 94.3409 120.02 94.3409C119.752 94.3409 119.535 94.6676 119.535 95.0707C119.535 95.4738 119.752 95.8006 120.02 95.8006Z" fill="#D1FEF9"/>
<path d="M118.641 91.212C119.002 91.212 119.295 90.7716 119.295 90.2283C119.295 89.685 119.002 89.2446 118.641 89.2446C118.28 89.2446 117.987 89.685 117.987 90.2283C117.987 90.7716 118.28 91.212 118.641 91.212Z" fill="#D1FEF9"/>
<path d="M122.056 80.6494C122.219 80.6494 122.352 80.4505 122.352 80.2051C122.352 79.9598 122.219 79.7609 122.056 79.7609C121.893 79.7609 121.761 79.9598 121.761 80.2051C121.761 80.4505 121.893 80.6494 122.056 80.6494Z" fill="#D1FEF9"/>
<path d="M127.386 70.2851C127.908 70.2851 128.331 69.649 128.331 68.8644C128.331 68.0798 127.908 67.4438 127.386 67.4438C126.865 67.4438 126.442 68.0798 126.442 68.8644C126.442 69.649 126.865 70.2851 127.386 70.2851Z" fill="#D1FEF9"/>
<path d="M126.09 65.9574C126.265 65.9574 126.407 65.7443 126.407 65.4814C126.407 65.2186 126.265 65.0055 126.09 65.0055C125.915 65.0055 125.774 65.2186 125.774 65.4814C125.774 65.7443 125.915 65.9574 126.09 65.9574Z" fill="#D1FEF9"/>
<path d="M115.16 81.1667C115.433 81.1667 115.655 80.8334 115.655 80.4222C115.655 80.0111 115.433 79.6777 115.16 79.6777C114.886 79.6777 114.664 80.0111 114.664 80.4222C114.664 80.8334 114.886 81.1667 115.16 81.1667Z" fill="#D1FEF9"/>
<path d="M112.696 106.609C112.768 106.609 112.826 106.521 112.826 106.412C112.826 106.304 112.768 106.216 112.696 106.216C112.624 106.216 112.565 106.304 112.565 106.412C112.565 106.521 112.624 106.609 112.696 106.609Z" fill="#D1FEF9"/>
<path d="M112.166 116.458C112.458 116.458 112.695 116.102 112.695 115.662C112.695 115.223 112.458 114.866 112.166 114.866C111.874 114.866 111.637 115.223 111.637 115.662C111.637 116.102 111.874 116.458 112.166 116.458Z" fill="#D1FEF9"/>
<path d="M116.285 106.219C116.69 106.219 117.019 105.725 117.019 105.115C117.019 104.506 116.69 104.012 116.285 104.012C115.88 104.012 115.551 104.506 115.551 105.115C115.551 105.725 115.88 106.219 116.285 106.219Z" fill="#D1FEF9"/>
<path d="M115.331 98.5198C115.453 98.5198 115.551 98.3711 115.551 98.1878C115.551 98.0044 115.453 97.8558 115.331 97.8558C115.209 97.8558 115.11 98.0044 115.11 98.1878C115.11 98.3711 115.209 98.5198 115.331 98.5198Z" fill="#D1FEF9"/>
<path d="M89.67 108.252C90.0439 108.252 90.347 107.796 90.347 107.234C90.347 106.672 90.0439 106.216 89.67 106.216C89.2961 106.216 88.993 106.672 88.993 107.234C88.993 107.796 89.2961 108.252 89.67 108.252Z" fill="#D1FEF9"/>
<path d="M91.9348 99.0838C92.0988 99.0838 92.2319 98.8838 92.2319 98.6371C92.2319 98.3904 92.0988 98.1904 91.9348 98.1904C91.7707 98.1904 91.6377 98.3904 91.6377 98.6371C91.6377 98.8838 91.7707 99.0838 91.9348 99.0838Z" fill="#D1FEF9"/>
<path d="M82.4307 98.0704C82.8476 98.0704 83.1856 97.5622 83.1856 96.9354C83.1856 96.3085 82.8476 95.8003 82.4307 95.8003C82.0138 95.8003 81.6758 96.3085 81.6758 96.9354C81.6758 97.5622 82.0138 98.0704 82.4307 98.0704Z" fill="#D1FEF9"/>
<path d="M86.926 116.202C87.3905 116.202 87.767 115.635 87.767 114.937C87.767 114.239 87.3905 113.673 86.926 113.673C86.4616 113.673 86.0851 114.239 86.0851 114.937C86.0851 115.635 86.4616 116.202 86.926 116.202Z" fill="#D1FEF9"/>
<path d="M80.5412 93.7402C80.7071 93.7402 80.8415 93.538 80.8415 93.2886C80.8415 93.0393 80.7071 92.8371 80.5412 92.8371C80.3753 92.8371 80.2408 93.0393 80.2408 93.2886C80.2408 93.538 80.3753 93.7402 80.5412 93.7402Z" fill="#D1FEF9"/>
<path d="M128.873 99.2302C129.295 99.2302 129.637 98.7165 129.637 98.0829C129.637 97.4493 129.295 96.9357 128.873 96.9357C128.452 96.9357 128.11 97.4493 128.11 98.0829C128.11 98.7165 128.452 99.2302 128.873 99.2302Z" fill="#D1FEF9"/>
<path d="M111.636 11.2551C112.23 11.2551 112.712 10.5305 112.712 9.6367C112.712 8.7429 112.23 8.01834 111.636 8.01834C111.041 8.01834 110.559 8.7429 110.559 9.6367C110.559 10.5305 111.041 11.2551 111.636 11.2551Z" fill="#D1FEF9"/>
<path d="M128.516 85.6435C128.713 85.6435 128.873 85.4031 128.873 85.1065C128.873 84.8099 128.713 84.5695 128.516 84.5695C128.319 84.5695 128.159 84.8099 128.159 85.1065C128.159 85.4031 128.319 85.6435 128.516 85.6435Z" fill="#D1FEF9"/>
<path d="M127.213 100.24C127.398 100.24 127.549 100.014 127.549 99.735C127.549 99.456 127.398 99.2297 127.213 99.2297C127.027 99.2297 126.877 99.456 126.877 99.735C126.877 100.014 127.027 100.24 127.213 100.24Z" fill="#D1FEF9"/>
<path d="M126.89 90.1623C127.067 90.1623 127.211 89.9459 127.211 89.679C127.211 89.4121 127.067 89.1957 126.89 89.1957C126.712 89.1957 126.568 89.4121 126.568 89.679C126.568 89.9459 126.712 90.1623 126.89 90.1623Z" fill="#D1FEF9"/>
<path d="M124.399 106.607C124.674 106.607 124.896 106.273 124.896 105.86C124.896 105.448 124.674 105.113 124.399 105.113C124.125 105.113 123.903 105.448 123.903 105.86C123.903 106.273 124.125 106.607 124.399 106.607Z" fill="#D1FEF9"/>
<path d="M127.505 40.9983C127.84 40.9983 128.112 40.5896 128.112 40.0854C128.112 39.5812 127.84 39.1725 127.505 39.1725C127.169 39.1725 126.898 39.5812 126.898 40.0854C126.898 40.5896 127.169 40.9983 127.505 40.9983Z" fill="#D1FEF9"/>
<path d="M127.19 32.2102C127.363 32.2102 127.503 31.9993 127.503 31.7391C127.503 31.479 127.363 31.268 127.19 31.268C127.017 31.268 126.877 31.479 126.877 31.7391C126.877 31.9993 127.017 32.2102 127.19 32.2102Z" fill="#D1FEF9"/>
<path d="M122.719 22.3808C122.921 22.3808 123.086 22.1338 123.086 21.8291C123.086 21.5244 122.921 21.2775 122.719 21.2775C122.516 21.2775 122.352 21.5244 122.352 21.8291C122.352 22.1338 122.516 22.3808 122.719 22.3808Z" fill="#D1FEF9"/>
<path d="M122.785 36.9511C123.026 36.9511 123.22 36.6582 123.22 36.2969C123.22 35.9356 123.026 35.6427 122.785 35.6427C122.545 35.6427 122.35 35.9356 122.35 36.2969C122.35 36.6582 122.545 36.9511 122.785 36.9511Z" fill="#D1FEF9"/>
<path d="M120.91 48.8488C121.133 48.8488 121.314 48.5767 121.314 48.241C121.314 47.9053 121.133 47.6332 120.91 47.6332C120.687 47.6332 120.506 47.9053 120.506 48.241C120.506 48.5767 120.687 48.8488 120.91 48.8488Z" fill="#D1FEF9"/>
<path d="M85.3566 18.4508C85.483 18.4508 85.5855 18.2967 85.5855 18.1066C85.5855 17.9165 85.483 17.7625 85.3566 17.7625C85.2302 17.7625 85.1277 17.9165 85.1277 18.1066C85.1277 18.2967 85.2302 18.4508 85.3566 18.4508Z" fill="#D1FEF9"/>
<path d="M87.9931 34.2027C88.3589 34.2027 88.6555 33.7568 88.6555 33.2068C88.6555 32.6568 88.3589 32.2109 87.9931 32.2109C87.6273 32.2109 87.3307 32.6568 87.3307 33.2068C87.3307 33.7568 87.6273 34.2027 87.9931 34.2027Z" fill="#D1FEF9"/>
<path d="M83.6516 40.9983C83.9869 40.9983 84.2588 40.5896 84.2588 40.0854C84.2588 39.5812 83.9869 39.1725 83.6516 39.1725C83.3163 39.1725 83.0444 39.5812 83.0444 40.0854C83.0444 40.5896 83.3163 40.9983 83.6516 40.9983Z" fill="#D1FEF9"/>
<path d="M81.5884 34.639C81.7184 34.639 81.8238 34.4805 81.8238 34.2851C81.8238 34.0896 81.7184 33.9311 81.5884 33.9311C81.4584 33.9311 81.353 34.0896 81.353 34.2851C81.353 34.4805 81.4584 34.639 81.5884 34.639Z" fill="#D1FEF9"/>
<path d="M76.5768 38.3769C76.8387 38.3769 77.0509 38.0577 77.0509 37.6641C77.0509 37.2704 76.8387 36.9513 76.5768 36.9513C76.315 36.9513 76.1028 37.2704 76.1028 37.6641C76.1028 38.0577 76.315 38.3769 76.5768 38.3769Z" fill="#D1FEF9"/>
<path d="M80.1809 48.6022C80.6642 48.6022 81.056 48.0132 81.056 47.2866C81.056 46.5599 80.6642 45.9709 80.1809 45.9709C79.6977 45.9709 79.3059 46.5599 79.3059 47.2866C79.3059 48.0132 79.6977 48.6022 80.1809 48.6022Z" fill="#D1FEF9"/>
<path d="M108.81 17.2593C109.034 17.2593 109.216 16.9861 109.216 16.6491C109.216 16.3121 109.034 16.0388 108.81 16.0388C108.586 16.0388 108.404 16.3121 108.404 16.6491C108.404 16.9861 108.586 17.2593 108.81 17.2593Z" fill="#D1FEF9"/>
<path d="M92.5257 9.01466C92.8924 9.01466 93.1897 8.56768 93.1897 8.0163C93.1897 7.46492 92.8924 7.01794 92.5257 7.01794C92.159 7.01794 91.8617 7.46492 91.8617 8.0163C91.8617 8.56768 92.159 9.01466 92.5257 9.01466Z" fill="#D1FEF9"/>
<path d="M111.144 1.47926C111.415 1.47926 111.635 1.14812 111.635 0.739644C111.635 0.331167 111.415 3.05176e-05 111.144 3.05176e-05C110.872 3.05176e-05 110.652 0.331167 110.652 0.739644C110.652 1.14812 110.872 1.47926 111.144 1.47926Z" fill="#D1FEF9"/>
<path d="M100.566 20.9507C101.026 20.9507 101.398 20.3912 101.398 19.7009C101.398 19.0107 101.026 18.4512 100.566 18.4512C100.107 18.4512 99.7352 19.0107 99.7352 19.7009C99.7352 20.3912 100.107 20.9507 100.566 20.9507Z" fill="#D1FEF9"/>
<path d="M108.082 38.3764C108.464 38.3764 108.774 37.9108 108.774 37.3365C108.774 36.7622 108.464 36.2967 108.082 36.2967C107.7 36.2967 107.391 36.7622 107.391 37.3365C107.391 37.9108 107.7 38.3764 108.082 38.3764Z" fill="#D1FEF9"/>
<path d="M111.889 39.9341C112.029 39.9341 112.142 39.7636 112.142 39.5533C112.142 39.343 112.029 39.1725 111.889 39.1725C111.749 39.1725 111.635 39.343 111.635 39.5533C111.635 39.7636 111.749 39.9341 111.889 39.9341Z" fill="#D1FEF9"/>
<path d="M97.2843 39.553C97.5004 39.553 97.6756 39.2897 97.6756 38.9648C97.6756 38.6399 97.5004 38.3765 97.2843 38.3765C97.0682 38.3765 96.8931 38.6399 96.8931 38.9648C96.8931 39.2897 97.0682 39.553 97.2843 39.553Z" fill="#D1FEF9"/>
<path d="M95.6538 31.1318C95.8968 31.1318 96.0938 30.8356 96.0938 30.4702C96.0938 30.1049 95.8968 29.8087 95.6538 29.8087C95.4108 29.8087 95.2139 30.1049 95.2139 30.4702C95.2139 30.8356 95.4108 31.1318 95.6538 31.1318Z" fill="#D1FEF9"/>
<path d="M109.51 21.8292C109.672 21.8292 109.803 21.6324 109.803 21.3898C109.803 21.1471 109.672 20.9504 109.51 20.9504C109.349 20.9504 109.218 21.1471 109.218 21.3898C109.218 21.6324 109.349 21.8292 109.51 21.8292Z" fill="#D1FEF9"/>
<path d="M107.322 13.735C107.518 13.735 107.677 13.4956 107.677 13.2004C107.677 12.9052 107.518 12.6658 107.322 12.6658C107.126 12.6658 106.966 12.9052 106.966 13.2004C106.966 13.4956 107.126 13.735 107.322 13.735Z" fill="#D1FEF9"/>
<path d="M70.3198 69.582C70.4964 69.582 70.6396 69.3668 70.6396 69.1012C70.6396 68.8356 70.4964 68.6203 70.3198 68.6203C70.1432 68.6203 70 68.8356 70 69.1012C70 69.3668 70.1432 69.582 70.3198 69.582Z" fill="#D1FEF9"/>
<path d="M92.6133 18.798C92.8958 18.798 93.1247 18.4537 93.1247 18.0291C93.1247 17.6044 92.8958 17.2602 92.6133 17.2602C92.3309 17.2602 92.1019 17.6044 92.1019 18.0291C92.1019 18.4537 92.3309 18.798 92.6133 18.798Z" fill="#D1FEF9"/>
<path d="M72.3184 71.6868C72.7048 71.6868 73.0181 71.2158 73.0181 70.6347C73.0181 70.0537 72.7048 69.5827 72.3184 69.5827C71.9319 69.5827 71.6187 70.0537 71.6187 70.6347C71.6187 71.2158 71.9319 71.6868 72.3184 71.6868Z" fill="#D1FEF9"/>
</g>
<g opacity="0.2" filter="url(#filter0_f_2214_156)">
<path d="M98.1638 87.1355L90.2254 81.2306C88.1961 79.7211 87.0002 77.3409 87.0001 74.8118L87 57.3723C87 54.8971 88.1457 52.5613 90.103 51.0462L98.2802 44.7161C101.118 42.5192 105.072 42.4811 107.952 44.623L115.784 50.4486C117.814 51.9581 119.01 54.3384 119.01 56.8677V74.3516C119.01 76.8014 117.887 79.1162 115.964 80.6333L107.892 86.9983C105.053 89.2374 101.065 89.2936 98.1638 87.1355Z" fill="#5CF9BE"/>
</g>
<g filter="url(#filter1_f_2214_156)">
<ellipse cx="11.1792" cy="0.610387" rx="11.1792" ry="0.610387" transform="matrix(0.904419 0.426646 -0.444506 0.895776 91.4253 83.5497)" fill="black" fill-opacity="0.9"/>
</g>
<path d="M103.014 48.7421L116.027 65.4139L103.014 73.1561V48.7421Z" fill="#B5FFE3"/>
<path d="M103.014 83.1173L90.0002 65.4142L103.014 73.1567L103.014 83.1173Z" fill="#1AD28D"/>
<path d="M103.013 48.7441V73.1578L90 65.4155L103.013 48.7441Z" fill="#5CF9BE"/>
<path d="M103.014 83.1166L103.014 73.1562L116.027 65.4136L103.014 83.1166Z" fill="#5CF9BE"/>
<path d="M12.6533 128.378C12.6533 128.378 15.6889 130.737 18.0705 132.17C20.7977 133.812 26.1962 134.337 26.1962 134.337C26.1962 134.337 26.4524 140.774 26.1962 143.244C25.9401 145.713 25.6545 148.422 25.6545 148.422C25.6545 148.422 27.0714 150.49 27.8214 151.672C28.869 153.324 29.4465 156.006 29.4465 156.006H11.0282C11.0282 156.006 11.0404 152.826 11.5699 150.896C11.8848 149.749 12.6533 148.058 12.6533 148.058C13.1951 144.651 13.7368 143.066 13.7368 140.296C13.7368 137.564 13.1951 131.629 12.6533 128.378Z" fill="url(#paint0_linear_2214_156)"/>
<path d="M12.6533 128.92C12.6533 128.92 16.7723 134.529 19.1539 135.962C21.8811 137.604 26.1962 134.337 26.1962 134.337C26.1962 134.337 26.3295 137.686 26.3076 140.48C26.3036 140.999 26.3034 141.477 26.2919 141.921C26.2919 141.921 19.6956 140.838 13.3641 134.456C13.3466 134.282 13.3287 134.107 13.3104 133.932C13.1203 132.12 12.8868 130.321 12.6533 128.92Z" fill="#007156"/>
<path d="M34.8636 135.421C34.8636 135.421 39.7391 134.63 41.906 133.254C44.0728 131.878 46.2397 130.004 46.2397 130.004C46.2397 130.004 48.72 135.448 49.49 140.838C50.0317 144.63 49.49 148.422 49.49 148.422C49.49 148.422 50.9069 150.49 51.6568 151.672C52.7044 153.324 53.282 156.006 53.282 156.006H34.8636C34.8636 156.006 34.8758 152.826 35.4054 150.896C35.7203 149.749 36.4888 148.058 36.4888 148.058C37.5722 145.172 36.4888 140.838 36.4888 140.838C36.4888 140.838 35.4054 136.504 34.8636 135.421Z" fill="url(#paint1_linear_2214_156)"/>
<path d="M34.8636 135.421C34.8636 135.421 39.7391 134.63 41.906 133.254C44.0728 131.878 46.2397 130.004 46.2397 130.004C46.2397 130.004 47.0124 131.7 47.8292 134.136C47.8292 134.136 47.8648 134.879 44.6145 137.588C41.3642 140.296 36.7054 141.921 36.7054 141.921C36.5936 141.257 36.4888 140.838 36.4888 140.838C36.4888 140.838 35.4054 136.504 34.8636 135.421Z" fill="#007156"/>
<path d="M68.2192 94.3534C69.4182 90.706 67.3321 87.4889 65.6115 86.6376C63.8909 85.7862 61.3118 84.9384 58.316 87.0972C55.3202 89.256 52.6363 94.408 48.9297 100.873C45.1005 109.044 43.3942 111.627 42.1225 115.496L55.4382 117.587C57.5684 113.714 67.3714 96.9324 68.2192 94.3534Z" fill="url(#paint2_linear_2214_156)"/>
<circle cx="30.5299" cy="115.919" r="24.9189" fill="url(#paint3_linear_2214_156)"/>
<rect x="29.4465" y="114.348" width="15.7175" height="16.2181" rx="2" transform="rotate(-46.6569 29.4465 114.348)" fill="black"/>
<path fill-rule="evenodd" clip-rule="evenodd" d="M32.0931 111.544L35.2888 108.158C35.6478 108.086 36.0252 108.047 36.4146 108.047C38.808 108.047 40.7483 109.502 40.7483 111.298C40.7483 113.093 38.808 114.548 36.4146 114.548C34.1317 114.548 32.2611 113.224 32.0931 111.544Z" fill="white"/>
<circle cx="30.5299" cy="115.919" r="24.9189" fill="url(#paint4_linear_2214_156)"/>
<rect x="31.6134" y="114.348" width="15.7175" height="16.2181" rx="2" transform="rotate(-46.6569 31.6134 114.348)" fill="black"/>
<path fill-rule="evenodd" clip-rule="evenodd" d="M34.26 111.544L37.4557 108.158C37.8147 108.086 38.1921 108.047 38.5815 108.047C40.9749 108.047 42.9152 109.502 42.9152 111.298C42.9152 113.093 40.9749 114.548 38.5815 114.548C36.2986 114.548 34.428 113.224 34.26 111.544Z" fill="white"/>
<path d="M32.2192 91.3534C33.4182 87.7061 31.3321 84.4889 29.6115 83.6376C27.8909 82.7862 25.3118 81.9384 22.316 84.0972C19.3202 86.256 16.6363 91.408 12.9297 97.8726C9.10045 106.044 7.39417 108.627 6.12251 112.496L19.4382 114.587C21.5684 110.714 31.3714 93.9325 32.2192 91.3534Z" fill="url(#paint5_linear_2214_156)"/>
<path d="M161.255 157.142C154.659 157.934 153.911 140.546 154.24 138.287C158.009 135.131 162.279 136.804 164.044 138.833C162.559 147.447 167.851 156.35 161.255 157.142Z" fill="#DE493C"/>
<path d="M137.886 103.805C133.306 108.403 148.879 119.326 150.946 120.274C156.274 118.174 151.19 110.969 150.441 108.444C142.435 105.019 141.141 100.536 137.886 103.805Z" fill="url(#paint6_linear_2214_156)"/>
<path d="M151.453 85.6076C160.483 71.4667 173.409 71.4663 181.727 78.5568C189.608 86.7946 183.942 96.2737 183.942 104.289C183.942 111.992 184.794 115.353 185.945 124.332C187.136 133.626 183.278 147.318 167.456 146.095C151.635 144.871 148.39 125.413 147.62 119.342C146.85 113.271 143.991 97.2935 151.453 85.6076Z" fill="url(#paint7_linear_2214_156)"/>
<path d="M159.056 100.608C154.981 99.5787 152.363 96.7915 151.477 94.9583C152.586 92.6446 155.576 87.5483 158.669 85.6726C162.535 83.3279 167.671 85.9566 169.859 89.9911C171.61 93.2187 172.046 96.7563 172.615 99.2727C170.1 100.579 164.586 102.006 159.056 100.608Z" fill="#FEF9F5"/>
<mask id="mask0_2214_156" style="mask-type:alpha" maskUnits="userSpaceOnUse" x="154" y="83" width="15" height="16">
<path d="M154.596 90.5782C154.2 94.5348 156.679 98.015 160.135 98.3515C163.591 98.6879 167.706 95.9858 168.103 92.0292C168.5 88.0726 165.028 84.3599 161.572 84.0234C158.117 83.6869 154.993 86.6216 154.596 90.5782Z" fill="black"/>
</mask>
<g mask="url(#mask0_2214_156)">
<path d="M158.867 102.244C154.931 100.78 152.174 96.7472 151.288 94.9141C152.397 92.6004 155.387 87.5041 158.48 85.6283C162.346 83.2836 167.482 85.9124 169.67 89.9469C171.421 93.1745 172.551 97.9564 173.279 100.068C170.763 101.375 163.787 104.074 158.867 102.244Z" fill="black"/>
</g>
<path d="M153.602 104.017C149.394 108.947 161.954 117.875 164.02 118.823C170.938 119.101 171.169 114.121 170.42 111.596C162.414 108.171 157.811 99.0871 153.602 104.017Z" fill="url(#paint8_linear_2214_156)"/>
<path d="M174.469 157.142C167.874 157.934 167.125 140.546 167.454 138.287C171.223 135.131 175.493 136.804 177.259 138.833C175.773 147.447 181.065 156.35 174.469 157.142Z" fill="url(#paint9_linear_2214_156)"/>
<path d="M153.716 109.565C160.963 118.174 164.373 119.084 165.439 119.644C164.657 119.714 162.154 119.236 159.897 117.754C157.979 116.494 154.143 112.294 153.716 109.565Z" fill="#DB422A"/>
<defs>
<filter id="filter0_f_2214_156" x="71" y="27.0421" width="64.0098" height="77.6745" filterUnits="userSpaceOnUse" color-interpolation-filters="sRGB">
<feFlood flood-opacity="0" result="BackgroundImageFix"/>
<feBlend mode="normal" in="SourceGraphic" in2="BackgroundImageFix" result="shape"/>
<feGaussianBlur stdDeviation="8" result="effect1_foregroundBlur_2214_156"/>
</filter>
<filter id="filter1_f_2214_156" x="81.1503" y="74.0648" width="40.2288" height="29.6025" filterUnits="userSpaceOnUse" color-interpolation-filters="sRGB">
<feFlood flood-opacity="0" result="BackgroundImageFix"/>
<feBlend mode="normal" in="SourceGraphic" in2="BackgroundImageFix" result="shape"/>
<feGaussianBlur stdDeviation="5" result="effect1_foregroundBlur_2214_156"/>
</filter>
<linearGradient id="paint0_linear_2214_156" x1="19.6956" y1="139.754" x2="19.6956" y2="156.006" gradientUnits="userSpaceOnUse">
<stop stop-color="#14B678"/>
<stop offset="0.8125" stop-color="#1FF073"/>
</linearGradient>
<linearGradient id="paint1_linear_2214_156" x1="44.0728" y1="137.046" x2="44.0728" y2="156.006" gradientUnits="userSpaceOnUse">
<stop stop-color="#00AB6A"/>
<stop offset="1" stop-color="#1FF073"/>
</linearGradient>
<linearGradient id="paint2_linear_2214_156" x1="56.6992" y1="111.142" x2="64.3184" y2="85.3552" gradientUnits="userSpaceOnUse">
<stop stop-color="#0FA866"/>
<stop offset="0.994297" stop-color="#1FF073"/>
<stop offset="0.994397" stop-color="#1EB57C"/>
</linearGradient>
<linearGradient id="paint3_linear_2214_156" x1="44.0728" y1="93.1669" x2="15.9036" y2="133.254" gradientUnits="userSpaceOnUse">
<stop offset="0.234375" stop-color="#16CF89"/>
<stop offset="1" stop-color="#14B578"/>
</linearGradient>
<linearGradient id="paint4_linear_2214_156" x1="47.8648" y1="97.5006" x2="26.1962" y2="140.296" gradientUnits="userSpaceOnUse">
<stop stop-color="#1FF073"/>
<stop offset="1" stop-color="#04795D"/>
</linearGradient>
<linearGradient id="paint5_linear_2214_156" x1="20.6992" y1="108.142" x2="28.3184" y2="82.3552" gradientUnits="userSpaceOnUse">
<stop stop-color="#0FA866"/>
<stop offset="0.994297" stop-color="#1FF073"/>
<stop offset="0.994397" stop-color="#1EB57C"/>
</linearGradient>
<linearGradient id="paint6_linear_2214_156" x1="136.753" y1="106.067" x2="153.865" y2="117.402" gradientUnits="userSpaceOnUse">
<stop stop-color="#E04D40"/>
<stop offset="1" stop-color="#F15F56"/>
</linearGradient>
<linearGradient id="paint7_linear_2214_156" x1="170.839" y1="72.4184" x2="171.132" y2="149.758" gradientUnits="userSpaceOnUse">
<stop stop-color="#F46A6A"/>
<stop offset="1" stop-color="#EA5749"/>
</linearGradient>
<linearGradient id="paint8_linear_2214_156" x1="152.47" y1="106.28" x2="169.582" y2="117.615" gradientUnits="userSpaceOnUse">
<stop stop-color="#FF6F66"/>
<stop offset="1" stop-color="#EF6058"/>
</linearGradient>
<linearGradient id="paint9_linear_2214_156" x1="171.886" y1="156.836" x2="171.882" y2="136.194" gradientUnits="userSpaceOnUse">
<stop stop-color="#DA4639"/>
<stop offset="1" stop-color="#EC5B4F"/>
</linearGradient>
</defs>
</svg>
