<svg width="177" height="128" viewBox="0 0 177 128" fill="none" xmlns="http://www.w3.org/2000/svg">
<g filter="url(#filter0_f_1723_288)">
<rect x="55.0928" y="32.298" width="88.8537" height="62.9028" rx="7.05188" fill="#DBFF00" fill-opacity="0.2"/>
</g>
<g filter="url(#filter1_f_1723_288)">
<ellipse cx="39.2962" cy="120.164" rx="34.4132" ry="1.83349" fill="#270B31" fill-opacity="0.2"/>
</g>
<path d="M46.5355 118.458C52.6632 119.205 53.3584 102.808 53.0531 100.678C49.5513 97.7015 45.5841 99.279 43.9441 101.193C45.3245 109.316 40.4078 117.711 46.5355 118.458Z" fill="#DE493C"/>
<path d="M68.2468 68.1605C72.5017 72.4965 58.0334 82.7974 56.1136 83.6909C51.1634 81.7107 55.887 74.9163 56.5828 72.5355C64.0207 69.3056 65.2221 65.078 68.2468 68.1605Z" fill="url(#paint0_linear_1723_288)"/>
<path d="M55.642 51.0007C47.2525 37.6657 35.2439 37.6653 27.5168 44.3518C20.1951 52.12 25.4588 61.0589 25.4588 68.6174C25.4588 75.8816 24.6668 79.0509 23.5979 87.5186C22.4917 96.2826 26.0754 109.194 40.7743 108.04C55.4732 106.887 58.4879 88.5377 59.2032 82.8125C59.9185 77.0873 62.575 62.0206 55.642 51.0007Z" fill="url(#paint1_linear_1723_288)"/>
<path d="M48.5788 65.1463C52.365 64.1754 54.7966 61.547 55.62 59.8183C54.59 57.6365 51.8117 52.8306 48.9385 51.0617C45.3469 48.8507 40.5749 51.3296 38.5422 55.1342C36.9161 58.1779 36.5105 61.5138 35.982 63.8868C38.3189 65.1191 43.4409 66.464 48.5788 65.1463Z" fill="#FEF9F5"/>
<mask id="mask0_1723_288" style="mask-type:alpha" maskUnits="userSpaceOnUse" x="40" y="49" width="13" height="15">
<path d="M52.7216 55.6879C53.0903 59.419 50.7867 62.7009 47.5762 63.0182C44.3657 63.3355 40.5426 60.7873 40.1739 57.0562C39.8051 53.3251 43.0303 49.824 46.2408 49.5067C49.4513 49.1894 52.3528 51.9568 52.7216 55.6879Z" fill="black"/>
</mask>
<g mask="url(#mask0_1723_288)">
<path d="M48.7543 66.6887C52.411 65.3079 54.9721 61.5053 55.7956 59.7766C54.7656 57.5948 51.9872 52.7889 49.114 51.0201C45.5224 48.809 40.7504 51.2879 38.7177 55.0925C37.0916 58.1362 36.0412 62.6456 35.3655 64.6371C37.7023 65.8694 44.1835 68.4148 48.7543 66.6887Z" fill="black"/>
</g>
<path d="M53.6452 68.3612C57.5554 73.0105 45.8867 81.4295 43.9669 82.3231C37.5402 82.5853 37.3251 77.8892 38.0209 75.5084C45.4588 72.2785 49.7349 63.712 53.6452 68.3612Z" fill="url(#paint2_linear_1723_288)"/>
<path d="M34.2591 118.458C40.3868 119.205 41.0821 102.808 40.7768 100.678C37.2749 97.7015 33.3077 99.279 31.6677 101.193C33.0481 109.316 28.1314 117.711 34.2591 118.458Z" fill="url(#paint3_linear_1723_288)"/>
<path d="M53.5395 73.5923C46.8071 81.7108 43.639 82.5688 42.6489 83.0968C43.375 83.1628 45.7002 82.7127 47.7972 81.3147C49.5793 80.1267 53.1434 76.1665 53.5395 73.5923Z" fill="#DB422A"/>
<rect x="61.4391" y="36.6702" width="76.1603" height="54.1584" rx="6.91084" fill="#58FFD7" fill-opacity="0.2" stroke="#7FFF00" stroke-width="0.282075"/>
<rect x="125.611" y="30.0414" width="20.8736" height="22.8481" rx="3.10283" stroke="#67EEAD" stroke-opacity="0.4" stroke-width="0.56415"/>
<circle cx="99.5716" cy="58.708" r="11.319" stroke="#76FF9C" stroke-width="0.282075" stroke-dasharray="1.41 1.41"/>
<path d="M95.2211 69.1069L93.205 80.6731H88.6422" stroke="#76FF9C" stroke-width="0.282075" stroke-dasharray="1.41 1.41"/>
<path d="M104.028 69.1069L106.044 80.6731H110.607" stroke="#76FF9C" stroke-width="0.282075" stroke-dasharray="1.41 1.41"/>
<path d="M88.3237 57.0102L81.6387 61.7852L89.3848 64.0136C89.4909 64.8625 89.4273 66.6664 88.3237 67.0908" stroke="#76FF9C" stroke-width="0.282075" stroke-dasharray="1.41 1.41"/>
<path d="M110.856 57.0102L117.541 61.7852L109.795 64.0136C109.689 64.8625 109.752 66.6664 110.856 67.0908" stroke="#76FF9C" stroke-width="0.282075" stroke-dasharray="1.41 1.41"/>
<path d="M92.0376 56.6919C92.6743 57.3286 104.983 57.753 107.318 56.6919" stroke="#76FF9C" stroke-width="0.282075" stroke-dasharray="1.41 1.41"/>
<circle cx="95.7515" cy="52.7658" r="0.424447" fill="#76FF9C"/>
<circle cx="102.118" cy="52.7658" r="0.424447" fill="#76FF9C"/>
<rect x="30.129" y="14.1042" width="57.8254" height="29.6179" rx="6.91084" fill="#ACFF58" fill-opacity="0.2" stroke="#7FFF00" stroke-width="0.282075"/>
<path d="M47.1825 25.2591H51.1044V25.8445H49.4964V30.4H48.7974V25.8445H47.1825V25.2591ZM54.0255 26.9877C53.7041 26.9877 53.4608 27.1128 53.2955 27.363C53.1302 27.6132 53.0476 27.9839 53.0476 28.4752C53.0476 28.9641 53.1302 29.3348 53.2955 29.5873C53.4608 29.8376 53.7041 29.9627 54.0255 29.9627C54.3491 29.9627 54.5936 29.8376 54.7589 29.5873C54.9242 29.3348 55.0068 28.9641 55.0068 28.4752C55.0068 27.9839 54.9242 27.6132 54.7589 27.363C54.5936 27.1128 54.3491 26.9877 54.0255 26.9877ZM54.0255 26.4505C54.5603 26.4505 54.9689 26.6238 55.2513 26.9704C55.5359 27.3171 55.6782 27.8186 55.6782 28.4752C55.6782 29.134 55.5371 29.6367 55.2547 29.9833C54.9724 30.3277 54.5626 30.4998 54.0255 30.4998C53.4906 30.4998 53.082 30.3277 52.7996 29.9833C52.5173 29.6367 52.3761 29.134 52.3761 28.4752C52.3761 27.8186 52.5173 27.3171 52.7996 26.9704C53.082 26.6238 53.4906 26.4505 54.0255 26.4505ZM58.9092 26.9877C58.5878 26.9877 58.3445 27.1128 58.1792 27.363C58.0139 27.6132 57.9313 27.9839 57.9313 28.4752C57.9313 28.9641 58.0139 29.3348 58.1792 29.5873C58.3445 29.8376 58.5878 29.9627 58.9092 29.9627C59.2328 29.9627 59.4773 29.8376 59.6426 29.5873C59.8079 29.3348 59.8905 28.9641 59.8905 28.4752C59.8905 27.9839 59.8079 27.6132 59.6426 27.363C59.4773 27.1128 59.2328 26.9877 58.9092 26.9877ZM58.9092 26.4505C59.444 26.4505 59.8526 26.6238 60.135 26.9704C60.4196 27.3171 60.5619 27.8186 60.5619 28.4752C60.5619 29.134 60.4208 29.6367 60.1384 29.9833C59.8561 30.3277 59.4463 30.4998 58.9092 30.4998C58.3743 30.4998 57.9657 30.3277 57.6833 29.9833C57.401 29.6367 57.2598 29.134 57.2598 28.4752C57.2598 27.8186 57.401 27.3171 57.6833 26.9704C57.9657 26.6238 58.3743 26.4505 58.9092 26.4505ZM64.1475 29.0054C64.1475 29.2901 64.1992 29.5047 64.3025 29.6493C64.4081 29.7939 64.563 29.8663 64.7673 29.8663H65.5076V30.4H64.7053C64.3266 30.4 64.0327 30.2794 63.8238 30.0384C63.6172 29.7951 63.5139 29.4508 63.5139 29.0054V25.5174H62.4982V25.0215H64.1475V29.0054ZM69.9058 26.6778V27.2975C69.7245 27.192 69.542 27.1128 69.3583 27.06C69.1747 27.0072 68.9876 26.9808 68.7971 26.9808C68.5101 26.9808 68.2955 27.0278 68.1532 27.1219C68.0131 27.2138 67.9431 27.3549 67.9431 27.5455C67.9431 27.7176 67.9959 27.8462 68.1015 27.9311C68.2071 28.0161 68.47 28.0987 68.89 28.179L69.1448 28.2272C69.4593 28.2869 69.6969 28.4063 69.8576 28.5853C70.0206 28.7644 70.1021 28.9974 70.1021 29.2843C70.1021 29.6654 69.9666 29.9638 69.6958 30.1796C69.4249 30.3931 69.0484 30.4998 68.5664 30.4998C68.3758 30.4998 68.1761 30.4792 67.9672 30.4378C67.7583 30.3988 67.5322 30.3391 67.2889 30.2588V29.6046C67.5253 29.7262 67.7515 29.818 67.9672 29.88C68.183 29.9397 68.3873 29.9696 68.5801 29.9696C68.8602 29.9696 69.0771 29.9133 69.2309 29.8008C69.3847 29.6861 69.4616 29.5265 69.4616 29.3222C69.4616 29.0284 69.1804 28.8252 68.618 28.7127L68.5905 28.7059L68.3529 28.6577C67.9879 28.5865 67.7216 28.4671 67.554 28.2995C67.3865 28.1297 67.3027 27.899 67.3027 27.6074C67.3027 27.2379 67.4278 26.9532 67.678 26.7535C67.9282 26.5515 68.2852 26.4505 68.7489 26.4505C68.9555 26.4505 69.154 26.47 69.3446 26.509C69.5351 26.5458 69.7222 26.602 69.9058 26.6778Z" fill="#76FF9C"/>
<rect x="88.0953" y="87.0206" width="37.3231" height="12.6236" rx="6.31181" fill="#16CF89"/>
<path d="M100.661 92.9817C100.787 93.0687 100.787 93.2553 100.661 93.3424L96.1736 96.4345C96.0283 96.5346 95.8303 96.4306 95.8303 96.2541L95.8303 90.0699C95.8303 89.8935 96.0283 89.7894 96.1736 89.8896L100.661 92.9817Z" fill="black"/>
<path d="M118.94 91.0184C118.944 91.041 118.944 91.0636 118.94 91.0863C118.94 91.1089 118.933 91.1338 118.919 91.1609C118.901 91.2243 118.881 91.2809 118.858 91.3307C118.831 91.3941 118.797 91.4484 118.756 91.4936C118.738 91.5208 118.72 91.548 118.702 91.5751C118.688 91.5977 118.675 91.6204 118.661 91.643L118.573 91.7584L117.704 93.0145L117.548 93.2114V95.0174C117.539 95.0401 117.534 95.0627 117.534 95.0853C117.534 95.108 117.532 95.1329 117.527 95.16C117.518 95.1826 117.511 95.2053 117.507 95.2279C117.502 95.246 117.496 95.2664 117.487 95.289C117.477 95.3071 117.473 95.3207 117.473 95.3297C117.468 95.3388 117.464 95.3456 117.459 95.3501C117.459 95.3546 117.457 95.3614 117.453 95.3705C117.425 95.4157 117.387 95.4565 117.337 95.4927C117.238 95.5425 117.124 95.5538 116.998 95.5266C116.925 95.5176 116.871 95.495 116.835 95.4588C116.812 95.4452 116.794 95.4293 116.78 95.4112C116.767 95.3931 116.753 95.3727 116.74 95.3501C116.731 95.323 116.722 95.2981 116.713 95.2754C116.703 95.2528 116.697 95.2302 116.692 95.2075C116.683 95.1849 116.679 95.1645 116.679 95.1464C116.679 95.1238 116.679 95.1034 116.679 95.0853V93.2318L116.529 93.0009L115.647 91.7516L115.572 91.6294C115.545 91.5887 115.511 91.5412 115.47 91.4868C115.434 91.4371 115.402 91.3827 115.375 91.3239C115.357 91.2967 115.341 91.2696 115.327 91.2424C115.318 91.2107 115.309 91.1791 115.3 91.1474C115.287 91.1021 115.284 91.0568 115.294 91.0116C115.307 90.9527 115.334 90.9029 115.375 90.8622C115.42 90.8215 115.468 90.7898 115.518 90.7672C115.581 90.7219 115.653 90.7038 115.735 90.7128C115.785 90.7128 115.828 90.7219 115.864 90.74C115.9 90.7581 115.936 90.7785 115.972 90.8011C116.013 90.8328 116.052 90.8667 116.088 90.9029C116.129 90.9392 116.165 90.9776 116.197 91.0184C116.233 91.0636 116.267 91.1066 116.298 91.1474C116.33 91.1836 116.362 91.2266 116.393 91.2764L116.414 91.3035C116.522 91.4484 116.624 91.5887 116.719 91.7245C116.814 91.8557 116.914 91.9983 117.018 92.1522C117.027 92.1613 117.041 92.1794 117.059 92.2065C117.077 92.2337 117.097 92.2654 117.12 92.3016C117.138 92.2699 117.154 92.2428 117.167 92.2201C117.186 92.193 117.199 92.1749 117.208 92.1658C117.312 92.0119 117.412 91.8671 117.507 91.7313C117.602 91.5955 117.704 91.4552 117.812 91.3103L117.826 91.2832C117.862 91.2424 117.894 91.2017 117.921 91.1609C117.953 91.1157 117.987 91.0704 118.023 91.0252C118.082 90.9437 118.161 90.8735 118.261 90.8147C118.333 90.7649 118.408 90.7332 118.485 90.7196C118.571 90.7106 118.645 90.7287 118.709 90.7739C118.736 90.792 118.761 90.8079 118.783 90.8215C118.811 90.835 118.833 90.8509 118.851 90.869C118.887 90.9097 118.917 90.9595 118.94 91.0184Z" fill="black"/>
<path d="M115.405 95.0718C115.409 95.0989 115.412 95.1261 115.412 95.1532C115.416 95.1759 115.418 95.203 115.418 95.2347C115.418 95.289 115.402 95.3388 115.371 95.3841C115.357 95.4067 115.339 95.4294 115.316 95.452C115.294 95.4701 115.267 95.4859 115.235 95.4995C115.122 95.5629 115.002 95.5855 114.875 95.5674C114.812 95.5493 114.755 95.5199 114.705 95.4791C114.696 95.4701 114.69 95.4656 114.685 95.4656C114.681 95.461 114.676 95.4543 114.671 95.4452C114.667 95.4407 114.662 95.4361 114.658 95.4316C114.653 95.4226 114.647 95.4158 114.638 95.4113C114.615 95.3886 114.597 95.3682 114.583 95.3501C114.57 95.3275 114.556 95.3049 114.542 95.2822C114.533 95.2596 114.522 95.2392 114.509 95.2211C114.499 95.1985 114.488 95.1759 114.475 95.1532C114.466 95.1351 114.456 95.1193 114.447 95.1057C114.438 95.0876 114.432 95.0695 114.427 95.0514C114.409 95.0107 114.398 94.9745 114.393 94.9428L114.251 94.6101C113.938 94.6101 113.626 94.6123 113.314 94.6169C113.006 94.6169 112.696 94.6146 112.383 94.6101L112.241 94.9428C112.232 94.9609 112.225 94.979 112.22 94.9971C112.22 95.0152 112.216 95.0333 112.207 95.0514C112.198 95.0695 112.189 95.0876 112.18 95.1057C112.175 95.1193 112.168 95.1351 112.159 95.1532C112.146 95.1759 112.132 95.1985 112.119 95.2211C112.11 95.2392 112.098 95.2596 112.085 95.2822C112.076 95.3049 112.064 95.3275 112.051 95.3501C112.037 95.3682 112.019 95.3886 111.996 95.4113C111.987 95.4158 111.981 95.4226 111.976 95.4316C111.971 95.4361 111.967 95.4407 111.962 95.4452C111.958 95.4543 111.953 95.461 111.949 95.4656C111.944 95.4656 111.938 95.4701 111.928 95.4791C111.879 95.5199 111.822 95.5493 111.759 95.5674C111.632 95.5855 111.512 95.5629 111.399 95.4995C111.367 95.4859 111.34 95.4701 111.317 95.452C111.295 95.4294 111.277 95.4067 111.263 95.3841C111.231 95.3388 111.216 95.289 111.216 95.2347C111.216 95.203 111.216 95.1759 111.216 95.1532C111.22 95.1261 111.225 95.0989 111.229 95.0718C111.238 95.031 111.25 94.9903 111.263 94.9496C111.277 94.9088 111.283 94.8885 111.283 94.8885L112.696 91.4122L112.736 91.3036C112.745 91.2764 112.757 91.2515 112.77 91.2289C112.784 91.2062 112.795 91.1791 112.804 91.1474C112.827 91.0886 112.852 91.0365 112.879 90.9912C112.893 90.9641 112.908 90.9392 112.927 90.9165C112.945 90.8939 112.963 90.8713 112.981 90.8487C113.008 90.8124 113.046 90.783 113.096 90.7604C113.16 90.7378 113.232 90.7264 113.314 90.7264C113.4 90.7264 113.474 90.7378 113.538 90.7604C113.587 90.783 113.626 90.8124 113.653 90.8487C113.685 90.8894 113.719 90.9369 113.755 90.9912C113.782 91.0365 113.807 91.0886 113.83 91.1474C113.839 91.1791 113.85 91.2062 113.864 91.2289C113.877 91.2515 113.888 91.2764 113.897 91.3036L113.938 91.4122L115.35 94.8885C115.35 94.8885 115.357 94.9088 115.371 94.9496C115.384 94.9903 115.396 95.031 115.405 95.0718ZM113.796 93.4083C113.737 93.2771 113.676 93.1413 113.612 93.0009C113.553 92.8606 113.49 92.7181 113.422 92.5732C113.404 92.5325 113.386 92.4917 113.368 92.451C113.35 92.4057 113.332 92.3627 113.314 92.322C113.3 92.3627 113.284 92.4057 113.266 92.451C113.248 92.4917 113.23 92.5325 113.212 92.5732C113.144 92.7181 113.078 92.8606 113.015 93.0009C112.956 93.1413 112.897 93.2771 112.838 93.4083L112.716 93.7071H113.918L113.796 93.4083Z" fill="black"/>
<path d="M110.659 95.0174C110.668 95.04 110.673 95.074 110.673 95.1193C110.673 95.16 110.673 95.1939 110.673 95.2211C110.673 95.2573 110.666 95.2913 110.652 95.3229C110.639 95.3546 110.621 95.384 110.598 95.4112C110.557 95.4655 110.499 95.5063 110.422 95.5334C110.313 95.5696 110.211 95.5877 110.116 95.5877C110.066 95.5923 110.014 95.5945 109.96 95.5945C109.906 95.5945 109.851 95.5991 109.797 95.6081H109.77C109.421 95.6126 109.061 95.6126 108.69 95.6081C108.6 95.6036 108.498 95.6036 108.385 95.6081C108.272 95.6172 108.161 95.6149 108.052 95.6013C107.943 95.5923 107.844 95.5674 107.753 95.5266C107.667 95.4814 107.606 95.4112 107.57 95.3162C107.561 95.2935 107.554 95.2732 107.55 95.255C107.545 95.2324 107.543 95.2098 107.543 95.1872C107.525 95.0333 107.518 94.8816 107.522 94.7322C107.527 94.5829 107.529 94.4358 107.529 94.2909L107.543 93.3064V92.3966C107.543 92.2337 107.543 92.0888 107.543 91.9621C107.547 91.8354 107.552 91.695 107.556 91.5411V91.5072C107.561 91.4619 107.563 91.4167 107.563 91.3714C107.568 91.3261 107.57 91.2809 107.57 91.2356C107.579 91.1315 107.604 91.0432 107.645 90.9708C107.672 90.9029 107.719 90.8486 107.787 90.8079C107.846 90.7671 107.916 90.7468 107.998 90.7468C108.029 90.7468 108.059 90.749 108.086 90.7536C108.118 90.7536 108.147 90.7558 108.174 90.7603C108.201 90.7649 108.226 90.7739 108.249 90.7875C108.276 90.8011 108.303 90.8192 108.33 90.8418C108.358 90.8735 108.382 90.912 108.405 90.9572C108.423 91.007 108.435 91.0568 108.439 91.1066C108.444 91.1383 108.448 91.1677 108.453 91.1949C108.457 91.222 108.459 91.2492 108.459 91.2764C108.45 91.3035 108.446 91.3307 108.446 91.3578C108.446 91.385 108.446 91.4099 108.446 91.4325V91.5547L108.419 94.7526L109.763 94.7662H110.082C110.109 94.7662 110.139 94.7685 110.17 94.773C110.202 94.773 110.234 94.7752 110.265 94.7798C110.302 94.7843 110.333 94.7888 110.361 94.7934C110.388 94.7979 110.415 94.8047 110.442 94.8137C110.492 94.8273 110.533 94.8499 110.564 94.8816C110.614 94.9269 110.646 94.9721 110.659 95.0174Z" fill="black"/>
<path d="M106.491 91.1542C106.663 91.3126 106.789 91.5027 106.871 91.7245C106.952 91.9418 106.984 92.159 106.966 92.3763C106.948 92.5845 106.882 92.7769 106.769 92.9534C106.656 93.1254 106.484 93.2567 106.253 93.3472C106.072 93.4242 105.893 93.4785 105.717 93.5102C105.54 93.5418 105.345 93.5667 105.133 93.5848C105.038 93.5939 104.956 93.6007 104.888 93.6052C104.825 93.6052 104.75 93.6075 104.664 93.612C104.646 93.612 104.614 93.612 104.569 93.612C104.528 93.612 104.499 93.6143 104.481 93.6188V95.0242C104.467 95.1102 104.449 95.1985 104.427 95.289C104.409 95.3796 104.356 95.4497 104.27 95.4995C104.221 95.5267 104.16 95.5425 104.087 95.547C104.015 95.5516 103.949 95.5493 103.89 95.5402C103.827 95.5312 103.773 95.5153 103.727 95.4927C103.687 95.4656 103.653 95.4203 103.625 95.3569C103.607 95.3162 103.589 95.2709 103.571 95.2211C103.558 95.1668 103.551 95.1012 103.551 95.0242V91.2696C103.551 91.2379 103.553 91.2085 103.558 91.1813C103.562 91.1542 103.567 91.127 103.571 91.0999C103.58 91.0772 103.587 91.0523 103.592 91.0252C103.596 90.998 103.603 90.9731 103.612 90.9505C103.621 90.9278 103.63 90.9075 103.639 90.8894C103.653 90.8713 103.668 90.8554 103.687 90.8418C103.709 90.8192 103.743 90.7988 103.788 90.7807C103.838 90.7626 103.911 90.7536 104.006 90.7536H104.019C104.16 90.7445 104.316 90.7377 104.488 90.7332C104.66 90.7242 104.802 90.7264 104.915 90.74C104.979 90.7491 105.038 90.7558 105.092 90.7604C105.146 90.7604 105.198 90.7626 105.248 90.7672C105.302 90.7717 105.357 90.7762 105.411 90.7807C105.465 90.7853 105.52 90.7921 105.574 90.8011C105.619 90.8102 105.66 90.817 105.696 90.8215C105.737 90.826 105.778 90.8328 105.819 90.8418C105.855 90.8509 105.893 90.86 105.934 90.869C105.979 90.8781 106.02 90.8939 106.056 90.9165C106.151 90.9437 106.23 90.9776 106.294 91.0184C106.357 91.0591 106.423 91.1044 106.491 91.1542ZM106.083 92.2744C106.088 92.1658 106.065 92.0708 106.015 91.9893C105.97 91.9078 105.905 91.8399 105.819 91.7856C105.732 91.7313 105.635 91.6883 105.527 91.6566C105.418 91.6249 105.309 91.6023 105.201 91.5887C105.173 91.5887 105.135 91.5887 105.085 91.5887C105.04 91.5842 104.99 91.5819 104.936 91.5819C104.882 91.5774 104.829 91.5751 104.78 91.5751C104.734 91.5706 104.698 91.5683 104.671 91.5683C104.648 91.5638 104.621 91.5615 104.59 91.5615C104.558 91.5615 104.522 91.5615 104.481 91.5615C104.485 91.7019 104.488 91.8377 104.488 91.9689C104.488 92.0957 104.488 92.2337 104.488 92.3831C104.483 92.4646 104.481 92.546 104.481 92.6275C104.481 92.709 104.481 92.7882 104.481 92.8651L104.902 92.8584C105.011 92.8584 105.13 92.8516 105.262 92.838C105.393 92.8244 105.517 92.7972 105.635 92.7565C105.753 92.7158 105.852 92.6569 105.934 92.58C106.02 92.503 106.07 92.4012 106.083 92.2744Z" fill="black"/>
<rect x="98.6731" y="23.4126" width="53.3122" height="3.3849" rx="1.69245" fill="#F2A632" fill-opacity="0.2" stroke="#FFAB49" stroke-width="0.282075"/>
<rect x="98.5321" y="23.2716" width="36.0356" height="3.66698" rx="1.83349" fill="#F2A632" fill-opacity="0.7"/>
<rect x="48.4638" y="105.214" width="53.3122" height="3.3849" rx="1.69245" fill="#32F28B" fill-opacity="0.2" stroke="#49FF92" stroke-width="0.282075"/>
<rect x="48.3228" y="105.073" width="19.7453" height="3.66698" rx="1.83349" fill="#32F296" fill-opacity="0.7"/>
<line x1="145.498" y1="58.3898" x2="145.498" y2="74.1861" stroke="#E27526" stroke-opacity="0.3" stroke-width="0.846226" stroke-linecap="round"/>
<circle cx="145.498" cy="65.4417" r="1.55141" fill="#F57600"/>
<line x1="149.729" y1="58.3898" x2="149.729" y2="74.1861" stroke="#E27526" stroke-opacity="0.3" stroke-width="0.846226" stroke-linecap="round"/>
<circle cx="149.729" cy="69.3908" r="1.55141" fill="#F57600"/>
<line x1="153.96" y1="58.3898" x2="153.96" y2="74.1861" stroke="#E27526" stroke-opacity="0.3" stroke-width="0.846226" stroke-linecap="round"/>
<circle cx="153.96" cy="61.7747" r="1.55141" fill="#F57600"/>
<defs>
<filter id="filter0_f_1723_288" x="22.9362" y="0.14146" width="153.167" height="127.216" filterUnits="userSpaceOnUse" color-interpolation-filters="sRGB">
<feFlood flood-opacity="0" result="BackgroundImageFix"/>
<feBlend mode="normal" in="SourceGraphic" in2="BackgroundImageFix" result="shape"/>
<feGaussianBlur stdDeviation="16.0783" result="effect1_foregroundBlur_1723_288"/>
</filter>
<filter id="filter1_f_1723_288" x="0.0877781" y="113.536" width="78.4169" height="13.2575" filterUnits="userSpaceOnUse" color-interpolation-filters="sRGB">
<feFlood flood-opacity="0" result="BackgroundImageFix"/>
<feBlend mode="normal" in="SourceGraphic" in2="BackgroundImageFix" result="shape"/>
<feGaussianBlur stdDeviation="2.39764" result="effect1_foregroundBlur_1723_288"/>
</filter>
<linearGradient id="paint0_linear_1723_288" x1="69.2988" y1="70.2936" x2="53.2572" y2="80.7628" gradientUnits="userSpaceOnUse">
<stop stop-color="#E04D40"/>
<stop offset="1" stop-color="#F15F56"/>
</linearGradient>
<linearGradient id="paint1_linear_1723_288" x1="68.491" y1="55.4282" x2="27.026" y2="105.638" gradientUnits="userSpaceOnUse">
<stop stop-color="#FB9782"/>
<stop offset="0.302083" stop-color="#F46639"/>
<stop offset="0.760417" stop-color="#F44C3C"/>
</linearGradient>
<linearGradient id="paint2_linear_1723_288" x1="54.6971" y1="70.4947" x2="38.6555" y2="80.9639" gradientUnits="userSpaceOnUse">
<stop stop-color="#FF6F66"/>
<stop offset="1" stop-color="#EF6058"/>
</linearGradient>
<linearGradient id="paint3_linear_1723_288" x1="36.6587" y1="118.169" x2="36.6629" y2="98.7046" gradientUnits="userSpaceOnUse">
<stop stop-color="#DA4639"/>
<stop offset="1" stop-color="#EC5B4F"/>
</linearGradient>
</defs>
</svg>
