/* XPM */
static const char *finddown_xpm[]={
"16 15 21 1",
". c None",
"g c #030303",
"b c #030303",
"a c #030303",
"h c #010101",
"p c #010101",
"# c #020202",
"l c #000000",
"e c #000000",
"d c #000000",
"k c #000000",
"n c #393939",
"r c #000000",
"q c #363636",
"c c #000000",
"s c #0000ff",
"j c #111111",
"f c #444444",
"o c #555555",
"m c #656565",
"i c #666666",
"................",
"......#.aa......",
".....bcbdd......",
".....efefcg.....",
"....hicjick.....",
"....lmcnmcc.....",
"....locgeoc.....",
"....pqr.pqr.....",
"................",
"......sss.......",
"......sss.......",
"....sssssss.....",
".....sssss......",
"......sss.......",
".......s........"};
