<svg width="164" height="77" viewBox="0 0 164 77" fill="none" xmlns="http://www.w3.org/2000/svg">
<g id="Education" clip-path="url(#clip0_610_2659)">
<g id="Group 1114">
<g id="Group 1116">
<path id="Vector 233" d="M77.1067 64.4445C77.3739 66.2769 77.7481 70.7894 77.1067 74.1795H80.2563" stroke="#CF0A80" stroke-width="1.07481" stroke-linecap="round"/>
<path id="Vector 234" d="M81.8596 63.7637C82.6422 65.5199 84.2647 69.662 84.4938 72.1817H88.2733" stroke="#CF0A80" stroke-width="1.07481" stroke-linecap="round"/>
<path id="Vector 236" d="M84.0922 57.6966C85.9819 57.0476 89.8874 54.5471 90.3913 49.7368" stroke="#CF0A80" stroke-width="1.07481" stroke-linecap="round"/>
<path id="Vector 240" d="M76.9343 49.2111C82.3745 48.0658 84.6651 55.7966 84.6651 58.0872C85.4095 58.0872 86.8411 59.0607 87.0702 60.1487C87.2992 61.2368 86.6693 62.7528 85.2377 63.3556C84.5764 63.634 81.9736 64.5009 79.8548 64.959C77.736 65.4171 75.0446 65.3598 73.5557 65.3598C72.0668 65.3598 70.5207 64.3863 70.4634 62.6684C70.4176 61.294 71.666 60.3396 72.2959 60.0342C71.2651 55.5675 71.4942 50.3564 76.9343 49.2111Z" fill="url(#paint0_linear_610_2659)"/>
<ellipse id="Ellipse 79" cx="82.3517" cy="57.189" rx="0.744443" ry="0.801708" transform="rotate(-17.4862 82.3517 57.189)" fill="#3B314F"/>
<ellipse id="Ellipse 80" cx="78.3428" cy="58.2274" rx="0.744443" ry="0.801708" transform="rotate(-17.4862 78.3428 58.2274)" fill="#3B314F"/>
<path id="Vector 245" d="M73.0969 59.5256C73.8032 62.2743 74.792 68.4131 73.0969 70.9785" stroke="#CF0A80" stroke-width="1.07481" stroke-linecap="round"/>
</g>
<g id="Vector 237" opacity="0.2" filter="url(#filter0_f_610_2659)">
<path d="M96.97 70.1445L79.0929 56.8318C78.1672 56.1425 77.6218 55.0563 77.6218 53.9022L77.6216 23.401C77.6216 22.2715 78.1441 21.2056 79.0368 20.5137L97.0232 6.57465C98.3196 5.56995 100.127 5.55255 101.442 6.5321L119.137 19.7077C120.063 20.397 120.608 21.4833 120.608 22.6375V53.1589C120.608 54.2768 120.096 55.3332 119.219 56.0259L101.415 70.0818C100.118 71.1058 98.2953 71.1315 96.97 70.1445Z" fill="#F9E05C"/>
</g>
<g id="Group 1110">
<path id="Polygon 3" d="M99.8176 70.1777L75.5547 39.0942L99.7076 30.694L99.8176 70.1777Z" fill="#FFDAA4"/>
<path id="Polygon 5" d="M99.8173 6.08455L124.08 39.091L99.7073 30.6902L99.8173 6.08455Z" fill="#FFA827"/>
<path id="Polygon 4" d="M99.8173 70.1722L99.7072 30.6889L124.08 39.0892L99.8173 70.1722Z" fill="#FFBC57"/>
<path id="Polygon 6" d="M99.8177 6.08644L99.7076 30.6916L75.5549 39.0925L99.8177 6.08644Z" fill="#FFBC57"/>
</g>
<g id="Group 1111">
<path id="Vector" d="M86.4539 42.8609C86.5754 42.8337 86.6501 42.7052 86.6207 42.5739C86.5913 42.4426 86.4689 42.3583 86.3473 42.3855C86.2258 42.4128 86.151 42.5413 86.1805 42.6726C86.2099 42.8038 86.3323 42.8882 86.4539 42.8609Z" fill="#FEFAD1"/>
<path id="Vector_2" d="M85.1342 37.8792C85.3625 37.828 85.5028 37.5867 85.4476 37.3402C85.3923 37.0936 85.1625 36.9352 84.9342 36.9864C84.7058 37.0376 84.5655 37.2789 84.6208 37.5254C84.676 37.772 84.9059 37.9303 85.1342 37.8792Z" fill="#FEFAD1"/>
<path id="Vector_3" d="M86.4192 39.5035C86.5882 39.4656 86.692 39.287 86.6512 39.1045C86.6103 38.922 86.4401 38.8048 86.2711 38.8426C86.1021 38.8805 85.9982 39.0591 86.0391 39.2416C86.08 39.4241 86.2502 39.5414 86.4192 39.5035Z" fill="#FEFAD1"/>
<path id="Vector_4" d="M82.5922 37.6347C82.6798 37.6151 82.7336 37.5224 82.7124 37.4278C82.6912 37.3332 82.603 37.2724 82.5154 37.292C82.4277 37.3117 82.3739 37.4043 82.3951 37.4989C82.4163 37.5935 82.5045 37.6543 82.5922 37.6347Z" fill="#FEFAD1"/>
<path id="Vector_5" d="M82.3491 34.0652C82.4219 34.0489 82.4666 33.972 82.449 33.8934C82.4314 33.8148 82.3581 33.7643 82.2853 33.7806C82.2126 33.7969 82.1678 33.8738 82.1855 33.9524C82.2031 34.031 82.2763 34.0815 82.3491 34.0652Z" fill="#FEFAD1"/>
<path id="Vector_6" d="M90.3807 33.7707C90.6303 33.7148 90.7837 33.451 90.7233 33.1815C90.6629 32.912 90.4116 32.7389 90.1621 32.7948C89.9125 32.8507 89.7592 33.1145 89.8195 33.384C89.8799 33.6535 90.1312 33.8266 90.3807 33.7707Z" fill="#FEFAD1"/>
<path id="Vector_7" d="M89.751 35.5209C89.8716 35.4939 89.9457 35.3664 89.9165 35.2362C89.8873 35.106 89.7659 35.0224 89.6453 35.0494C89.5248 35.0764 89.4507 35.2039 89.4798 35.3341C89.509 35.4643 89.6304 35.5479 89.751 35.5209Z" fill="#FEFAD1"/>
<path id="Vector_8" d="M90.671 32.2404C90.7542 32.2218 90.8053 32.1339 90.7852 32.044C90.765 31.9542 90.6813 31.8965 90.5981 31.9152C90.5149 31.9338 90.4638 32.0217 90.484 32.1115C90.5041 32.2014 90.5878 32.2591 90.671 32.2404Z" fill="#FEFAD1"/>
<path id="Vector_9" d="M91.1259 41.471C91.458 41.3966 91.6621 41.0456 91.5818 40.687C91.5014 40.3284 91.1671 40.098 90.835 40.1724C90.5029 40.2469 90.2988 40.5979 90.3791 40.9565C90.4595 41.3151 90.7938 41.5455 91.1259 41.471Z" fill="#FEFAD1"/>
<path id="Vector_10" d="M95.8254 54.7098C96.0315 54.6636 96.1582 54.4458 96.1083 54.2233C96.0584 54.0008 95.8509 53.8578 95.6449 53.904C95.4388 53.9502 95.3122 54.168 95.362 54.3905C95.4119 54.613 95.6194 54.756 95.8254 54.7098Z" fill="#FEFAD1"/>
<path id="Vector_11" d="M96.2603 50.7987C96.3509 50.7784 96.4066 50.6826 96.3846 50.5848C96.3627 50.4869 96.2715 50.4241 96.1809 50.4444C96.0903 50.4647 96.0346 50.5605 96.0565 50.6583C96.0785 50.7561 96.1697 50.819 96.2603 50.7987Z" fill="#FEFAD1"/>
<path id="Vector_12" d="M90.9321 51.5703C91.1619 51.5188 91.3031 51.2759 91.2475 51.0278C91.1919 50.7796 90.9606 50.6202 90.7308 50.6717C90.501 50.7232 90.3598 50.9661 90.4154 51.2142C90.471 51.4624 90.7023 51.6218 90.9321 51.5703Z" fill="#FEFAD1"/>
<path id="Vector_13" d="M95.0181 58.1985C95.2741 58.1411 95.4315 57.8705 95.3695 57.5941C95.3076 57.3177 95.0498 57.1401 94.7938 57.1975C94.5378 57.2548 94.3805 57.5254 94.4425 57.8018C94.5044 58.0782 94.7621 58.2558 95.0181 58.1985Z" fill="#FEFAD1"/>
<path id="Vector_14" d="M89.5071 50.0869C89.5987 50.0664 89.655 49.9696 89.6328 49.8707C89.6107 49.7718 89.5184 49.7082 89.4268 49.7288C89.3352 49.7493 89.279 49.8461 89.3011 49.945C89.3233 50.0439 89.4155 50.1075 89.5071 50.0869Z" fill="#FEFAD1"/>
<path id="Vector_15" d="M99.3288 13.6004C99.6565 13.5269 99.8578 13.1806 99.7785 12.8268C99.6993 12.473 99.3694 12.2457 99.0417 12.3192C98.7141 12.3926 98.5128 12.7389 98.592 13.0927C98.6713 13.4465 99.0012 13.6738 99.3288 13.6004Z" fill="#FEFAD1"/>
<path id="Vector_16" d="M110.714 23.4216C110.898 23.3802 111.012 23.1848 110.967 22.9852C110.923 22.7857 110.737 22.6575 110.552 22.6989C110.367 22.7403 110.253 22.9357 110.298 23.1352C110.343 23.3348 110.529 23.463 110.714 23.4216Z" fill="#FEFAD1"/>
<path id="Vector_17" d="M109.761 19.9759C109.857 19.9546 109.915 19.8537 109.892 19.7507C109.869 19.6478 109.773 19.5816 109.678 19.603C109.582 19.6243 109.524 19.7252 109.547 19.8281C109.57 19.9311 109.666 19.9973 109.761 19.9759Z" fill="#FEFAD1"/>
<path id="Vector_18" d="M106.424 16.6399C106.536 16.6149 106.605 16.4968 106.578 16.3762C106.551 16.2556 106.438 16.1781 106.326 16.2032C106.215 16.2282 106.146 16.3462 106.173 16.4668C106.2 16.5874 106.313 16.6649 106.424 16.6399Z" fill="#FEFAD1"/>
<path id="Vector_19" d="M107.754 22.3923C107.886 22.3626 107.967 22.2227 107.935 22.0796C107.903 21.9366 107.77 21.8448 107.637 21.8744C107.505 21.9041 107.424 22.0441 107.456 22.1871C107.488 22.3301 107.621 22.422 107.754 22.3923Z" fill="#FEFAD1"/>
<path id="Vector_20" d="M107.775 27.3356C107.898 27.308 107.974 27.178 107.944 27.0451C107.914 26.9122 107.79 26.8269 107.667 26.8544C107.544 26.882 107.469 27.0121 107.498 27.1449C107.528 27.2778 107.652 27.3632 107.775 27.3356Z" fill="#FEFAD1"/>
<path id="Vector_21" d="M85.4837 19.6867C85.5535 19.6711 85.5964 19.5973 85.5795 19.5219C85.5626 19.4465 85.4924 19.3981 85.4226 19.4138C85.3527 19.4294 85.3098 19.5032 85.3267 19.5786C85.3436 19.654 85.4139 19.7024 85.4837 19.6867Z" fill="#FEFAD1"/>
<path id="Vector_22" d="M88.333 25.6074C88.5347 25.5623 88.6586 25.3491 88.6098 25.1314C88.561 24.9137 88.358 24.7738 88.1564 24.819C87.9547 24.8642 87.8308 25.0773 87.8796 25.295C87.9284 25.5127 88.1314 25.6526 88.333 25.6074Z" fill="#FEFAD1"/>
<path id="Vector_23" d="M86.5427 28.8341C86.7276 28.7927 86.8411 28.5973 86.7964 28.3977C86.7517 28.1982 86.5656 28.0699 86.3808 28.1114C86.196 28.1528 86.0824 28.3481 86.1271 28.5477C86.1718 28.7473 86.3579 28.8755 86.5427 28.8341Z" fill="#FEFAD1"/>
<path id="Vector_24" d="M84.8425 26.5664C84.9143 26.5503 84.9585 26.4744 84.9411 26.3969C84.9237 26.3193 84.8514 26.2695 84.7796 26.2856C84.7079 26.3017 84.6637 26.3776 84.6811 26.4551C84.6985 26.5326 84.7708 26.5824 84.8425 26.5664Z" fill="#FEFAD1"/>
<path id="Vector_25" d="M82.4104 28.6645C82.5547 28.6321 82.6434 28.4796 82.6085 28.3238C82.5736 28.168 82.4283 28.0679 82.284 28.1002C82.1397 28.1325 82.051 28.2851 82.0859 28.4409C82.1208 28.5967 82.2661 28.6968 82.4104 28.6645Z" fill="#FEFAD1"/>
<path id="Vector_26" d="M85.3048 32.2755C85.5712 32.2158 85.7349 31.9342 85.6704 31.6466C85.606 31.359 85.3378 31.1742 85.0714 31.2339C84.805 31.2936 84.6414 31.5751 84.7058 31.8628C84.7703 32.1504 85.0384 32.3352 85.3048 32.2755Z" fill="#FEFAD1"/>
<path id="Vector_27" d="M98.3039 16.3294C98.4275 16.3017 98.5034 16.1711 98.4735 16.0377C98.4436 15.9043 98.3192 15.8186 98.1956 15.8463C98.0721 15.874 97.9962 16.0046 98.026 16.138C98.0559 16.2714 98.1803 16.3571 98.3039 16.3294Z" fill="#FEFAD1"/>
<path id="Vector_28" d="M88.597 15.0845C88.7991 15.0392 88.9234 14.8256 88.8745 14.6073C88.8255 14.3891 88.622 14.2489 88.4199 14.2942C88.2178 14.3394 88.0936 14.5531 88.1425 14.7713C88.1914 14.9896 88.3949 15.1298 88.597 15.0845Z" fill="#FEFAD1"/>
<path id="Vector_29" d="M98.1907 9.79363C98.3404 9.76008 98.4324 9.6018 98.3962 9.44011C98.36 9.27842 98.2092 9.17455 98.0595 9.2081C97.9097 9.24166 97.8177 9.39993 97.8539 9.56162C97.8902 9.72331 98.0409 9.82718 98.1907 9.79363Z" fill="#FEFAD1"/>
<path id="Vector_30" d="M94.0873 18.8032C94.3403 18.7465 94.4958 18.479 94.4346 18.2058C94.3734 17.9326 94.1186 17.7571 93.8656 17.8138C93.6126 17.8705 93.4571 18.1379 93.5183 18.4111C93.5795 18.6844 93.8343 18.8599 94.0873 18.8032Z" fill="#FEFAD1"/>
<path id="Vector_31" d="M99.7758 24.7826C99.9864 24.7355 100.116 24.513 100.065 24.2856C100.014 24.0583 99.8019 23.9123 99.5914 23.9594C99.3809 24.0066 99.2515 24.2291 99.3024 24.4565C99.3534 24.6838 99.5653 24.8298 99.7758 24.7826Z" fill="#FEFAD1"/>
<path id="Vector_32" d="M102.012 24.9224C102.09 24.905 102.137 24.8234 102.118 24.74C102.1 24.6566 102.022 24.603 101.945 24.6203C101.868 24.6376 101.82 24.7193 101.839 24.8027C101.857 24.8861 101.935 24.9397 102.012 24.9224Z" fill="#FEFAD1"/>
<path id="Vector_33" d="M93.9287 26.5788C94.0478 26.5521 94.121 26.4262 94.0921 26.2976C94.0633 26.169 93.9434 26.0864 93.8243 26.1131C93.7052 26.1398 93.632 26.2657 93.6608 26.3943C93.6896 26.5229 93.8096 26.6055 93.9287 26.5788Z" fill="#FEFAD1"/>
<path id="Vector_34" d="M92.2829 23.4413C92.4169 23.4113 92.4992 23.2698 92.4668 23.1252C92.4344 22.9805 92.2995 22.8876 92.1656 22.9176C92.0317 22.9477 91.9494 23.0892 91.9818 23.2338C92.0142 23.3784 92.149 23.4713 92.2829 23.4413Z" fill="#FEFAD1"/>
<path id="Vector_35" d="M99.0961 18.0534C99.1852 18.0334 99.24 17.9392 99.2184 17.843C99.1969 17.7467 99.1072 17.6849 99.018 17.7049C98.9289 17.7248 98.8742 17.819 98.8957 17.9153C98.9173 18.0115 99.007 18.0733 99.0961 18.0534Z" fill="#FEFAD1"/>
<path id="Vector_36" d="M97.1709 15.1179C97.2791 15.0936 97.3456 14.9792 97.3195 14.8624C97.2933 14.7455 97.1843 14.6704 97.0761 14.6947C96.9679 14.7189 96.9014 14.8333 96.9275 14.9502C96.9537 15.0671 97.0627 15.1421 97.1709 15.1179Z" fill="#FEFAD1"/>
<path id="Vector_37" d="M81.7296 41.7882C81.827 41.7663 81.8868 41.6634 81.8632 41.5583C81.8397 41.4532 81.7416 41.3856 81.6443 41.4075C81.5469 41.4293 81.4871 41.5322 81.5107 41.6373C81.5342 41.7424 81.6322 41.81 81.7296 41.7882Z" fill="#FEFAD1"/>
<path id="Vector_38" d="M89.5132 18.9328C89.6689 18.8979 89.7646 18.7334 89.7269 18.5653C89.6892 18.3972 89.5325 18.2892 89.3768 18.3241C89.2212 18.359 89.1255 18.5235 89.1632 18.6916C89.2008 18.8597 89.3576 18.9677 89.5132 18.9328Z" fill="#FEFAD1"/>
<path id="Vector_39" d="M83.0178 42.3868C83.2308 42.339 83.3617 42.1139 83.3102 41.8839C83.2587 41.6539 83.0442 41.5062 82.8312 41.5539C82.6182 41.6016 82.4873 41.8268 82.5389 42.0568C82.5904 42.2867 82.8048 42.4345 83.0178 42.3868Z" fill="#FEFAD1"/>
</g>
<g id="Group 1115">
<path id="Vector 235" d="M81.2968 18.8709C80.15 19.5007 74.8569 24.2177 69.264 18.2045" stroke="#CF0A80" stroke-width="1.07481" stroke-linecap="round"/>
<path id="Vector 238" d="M81.403 7.58447C76.9882 10.4551 79.0933 16.5364 80.6977 19.2183C78.6363 21.0881 80.334 26.1007 83.8008 25.0718C87.2677 24.0429 93.0642 20.9453 94.7322 19.1714C96.4002 17.3975 96.3417 15.6196 95.3991 14.2156C94.645 13.0925 92.8152 12.8952 91.9946 12.937C91.5247 11.6595 86.9215 3.99621 81.403 7.58447Z" fill="url(#paint1_linear_610_2659)"/>
<ellipse id="Ellipse 75" cx="83.4887" cy="20.1178" rx="0.744443" ry="0.801708" transform="rotate(-32.9344 83.4887 20.1178)" fill="#3B314F"/>
<ellipse id="Ellipse 78" cx="88.8267" cy="18.2172" rx="0.744443" ry="0.801708" transform="rotate(-32.9344 88.8267 18.2172)" fill="#3B314F"/>
<path id="Vector 241" d="M83.7052 24.6749C82.3123 25.7315 80.9002 27.7681 81.391 29.849C81.7837 31.5138 84.8901 32.0966 86.3942 32.1799L85.2754 35.4536" stroke="#CF0A80" stroke-width="1.07481" stroke-linecap="round"/>
<path id="Vector 242" d="M90.053 21.9248C89.0077 23.005 87.5692 26.5401 88.5494 28.9185C89.3335 30.8212 91.9391 30.8315 93.1438 30.5988L93.0092 34.5245" stroke="#CF0A80" stroke-width="1.07481" stroke-linecap="round"/>
<path id="Vector 243" d="M91.1505 13.1363C94.071 11.8155 97.6004 10.838 95.1866 2.61572" stroke="#CF0A80" stroke-width="1.07481" stroke-linecap="round"/>
</g>
<g id="Group 1117">
<path id="Vector 230" d="M108.362 59.9908C108.878 61.4224 111.283 65.3737 110.252 72.4173L107.103 73.6198" stroke="#CF0A80" stroke-width="1.07481" stroke-linecap="round"/>
<path id="Vector 231" d="M114.26 61.4778C114.718 62.4513 116.608 66.4598 117.009 72.8735L120.158 73.6752" stroke="#CF0A80" stroke-width="1.07481" stroke-linecap="round"/>
<path id="Vector 232" d="M105.613 57.4143C105.346 58.8268 104.972 62.7399 105.613 67.0921" stroke="#CF0A80" stroke-width="1.07481" stroke-linecap="round"/>
<path id="Vector 239" d="M115.349 47.0498C109.966 45.6182 107.274 52.2609 107.217 53.578C103.208 53.578 103.505 57.1429 104.354 58.331C104.926 59.1327 106.358 60.507 109.565 61.5951C112.772 62.6831 116.265 63.1412 117.238 63.0267C118.212 62.9122 119.472 63.0267 120.388 60.8506C121.121 59.1098 119.853 57.7202 119.243 57.2429C119.93 54.0361 120.731 48.4814 115.349 47.0498Z" fill="url(#paint2_linear_610_2659)"/>
<ellipse id="Ellipse 76" cx="109.425" cy="54.2161" rx="0.744443" ry="0.801708" transform="rotate(23.8851 109.425 54.2161)" fill="#3B314F"/>
<ellipse id="Ellipse 77" cx="114.464" cy="55.7024" rx="0.744443" ry="0.801708" transform="rotate(23.8851 114.464 55.7024)" fill="#3B314F"/>
<path id="Vector 244" d="M119.128 58.1578C119.892 60.0858 121.27 64.8693 120.674 68.58" stroke="#CF0A80" stroke-width="1.07481" stroke-linecap="round"/>
</g>
<g id="Group 1112">
<g id="Group 1103">
<path id="Vector 192" d="M57.4325 76.3215C60.8968 76.7437 61.2898 67.4737 61.1172 66.2695C59.1375 64.5867 56.8946 65.4785 55.9675 66.5606C56.7479 71.1531 53.9682 75.8992 57.4325 76.3215Z" fill="#DE493C"/>
</g>
<path id="Vector 192_2" d="M69.7065 47.8851C72.112 50.3365 63.9324 56.16 62.847 56.6652C60.0484 55.5457 62.7189 51.7044 63.1123 50.3585C67.3173 48.5324 67.9965 46.1424 69.7065 47.8851Z" fill="url(#paint3_linear_610_2659)"/>
<path id="Vector 197" d="M62.581 38.1822C57.838 30.6432 51.049 30.643 46.6805 34.4232C42.5412 38.815 45.517 43.8686 45.517 48.1417C45.517 52.2485 45.0692 54.0403 44.465 58.8275C43.8396 63.7822 45.8656 71.0815 54.1756 70.4294C62.4856 69.7773 64.1899 59.4036 64.5943 56.1669C64.9987 52.9302 66.5005 44.4122 62.581 38.1822Z" fill="url(#paint4_linear_610_2659)"/>
<g id="Group 1105">
<path id="Vector 204" d="M58.5885 46.1817C60.7291 45.6327 62.1037 44.1468 62.5693 43.1695C61.987 41.936 60.4163 39.219 58.7919 38.219C56.7614 36.969 54.0635 38.3704 52.9144 40.5213C51.995 42.2421 51.7658 44.128 51.467 45.4696C52.7881 46.1662 55.6839 46.9266 58.5885 46.1817Z" fill="#FEF9F5"/>
<g id="Mask group">
<mask id="mask0_610_2659" style="mask-type:alpha" maskUnits="userSpaceOnUse" x="53" y="37" width="8" height="8">
<path id="Ellipse 62" d="M60.9304 40.8302C61.1389 42.9396 59.8365 44.795 58.0215 44.9743C56.2064 45.1537 54.0451 43.7131 53.8366 41.6037C53.6281 39.4944 55.4515 37.515 57.2665 37.3357C59.0816 37.1563 60.7219 38.7208 60.9304 40.8302Z" fill="black"/>
</mask>
<g mask="url(#mask0_610_2659)">
<path id="Vector 205" d="M58.6884 47.0534C60.7556 46.2727 62.2035 44.123 62.6691 43.1457C62.0868 41.9122 60.5161 39.1952 58.8917 38.1952C56.8612 36.9452 54.1633 38.3466 53.0142 40.4975C52.0949 42.2183 51.501 44.7676 51.119 45.8936C52.4401 46.5902 56.1042 48.0293 58.6884 47.0534Z" fill="black"/>
</g>
</g>
</g>
<g id="Group 1080">
<path id="Vector 192_3" d="M61.4523 47.9927C63.663 50.6211 57.0661 55.3808 55.9808 55.8859C52.3474 56.0342 52.2258 53.3793 52.6192 52.0333C56.8242 50.2073 59.2417 45.3643 61.4523 47.9927Z" fill="url(#paint5_linear_610_2659)"/>
</g>
<g id="Group 1104">
<path id="Vector 192_4" d="M50.4922 76.3215C53.9564 76.7437 54.3495 67.4737 54.1769 66.2695C52.1972 64.5867 49.9543 65.4785 49.0271 66.5606C49.8076 71.1531 47.0279 75.8992 50.4922 76.3215Z" fill="url(#paint6_linear_610_2659)"/>
</g>
<path id="Vector 229" d="M61.3924 50.9563C57.5863 55.546 55.7952 56.0311 55.2355 56.3296C55.6459 56.3669 56.9605 56.1125 58.146 55.3221C59.1535 54.6505 61.1685 52.4116 61.3924 50.9563Z" fill="#DB422A"/>
</g>
<g id="Group 1113">
<path id="Vector 233_2" d="M55.0122 24.3001C56.5794 24.0762 60.3631 22.3299 62.9603 17.1357" stroke="#CF0A80" stroke-width="1.07481" stroke-linecap="round"/>
<path id="Vector 231_2" d="M55.6913 29.4511C57.1771 29.2236 60.8927 30.096 62.2653 32.2716C63.3633 34.0122 61.8641 36.1431 60.9772 36.991L64.2567 39.1529" stroke="#CF0A80" stroke-width="1.07481" stroke-linecap="round"/>
<g id="Group 1106">
<path id="Vector 230_2" d="M48.2948 17.3366C53.6777 15.905 56.3691 22.5477 56.4264 23.8648C60.4349 23.8648 60.1382 27.4297 59.2896 28.6178C58.717 29.4195 57.2853 30.7938 54.0785 31.8819C50.8717 32.9699 47.3785 33.428 46.405 33.3135C45.4315 33.199 44.1717 33.3135 43.2555 31.1374C42.5225 29.3966 43.7899 28.007 44.4008 27.5298C43.7136 24.3229 42.9119 18.7682 48.2948 17.3366Z" fill="url(#paint7_linear_610_2659)"/>
<ellipse id="Ellipse 75_2" cx="0.744443" cy="0.801708" rx="0.744443" ry="0.801708" transform="matrix(-0.914359 0.404904 0.404904 0.914359 54.5737 23.4677)" fill="#3B314F"/>
<ellipse id="Ellipse 76_2" cx="0.744443" cy="0.801708" rx="0.744443" ry="0.801708" transform="matrix(-0.914359 0.404904 0.404904 0.914359 49.5347 24.9547)" fill="#3B314F"/>
</g>
<path id="Vector 230_3" d="M48.7623 32.1714C50.0795 31.022 52.3603 30.0525 54.2984 30.9554C55.8488 31.6778 55.7891 34.8378 55.5654 36.3275L58.9981 35.8964" stroke="#CF0A80" stroke-width="1.07481" stroke-linecap="round"/>
<path id="Vector 232_2" d="M45.8327 28.116C44.9371 29.4967 43.952 33.5117 47.176 38.5269" stroke="#CF0A80" stroke-width="1.07481" stroke-linecap="round"/>
</g>
</g>
</g>
<defs>
<filter id="filter0_f_610_2659" x="67.0745" y="-4.73798" width="64.0807" height="86.1527" filterUnits="userSpaceOnUse" color-interpolation-filters="sRGB">
<feFlood flood-opacity="0" result="BackgroundImageFix"/>
<feBlend mode="normal" in="SourceGraphic" in2="BackgroundImageFix" result="shape"/>
<feGaussianBlur stdDeviation="5.27353" result="effect1_foregroundBlur_610_2659"/>
</filter>
<linearGradient id="paint0_linear_610_2659" x1="78.7891" y1="49.0961" x2="78.7891" y2="65.3621" gradientUnits="userSpaceOnUse">
<stop stop-color="#F783F2"/>
<stop offset="1" stop-color="#E040DA"/>
</linearGradient>
<linearGradient id="paint1_linear_610_2659" x1="86.6058" y1="6.39613" x2="88.3916" y2="24.6866" gradientUnits="userSpaceOnUse">
<stop stop-color="#F783F2"/>
<stop offset="1" stop-color="#E040DA"/>
</linearGradient>
<linearGradient id="paint2_linear_610_2659" x1="112.218" y1="46.8489" x2="112.218" y2="63.0438" gradientUnits="userSpaceOnUse">
<stop stop-color="#F783F2"/>
<stop offset="1" stop-color="#E040DA"/>
</linearGradient>
<linearGradient id="paint3_linear_610_2659" x1="70.3013" y1="49.091" x2="61.2322" y2="55.0098" gradientUnits="userSpaceOnUse">
<stop stop-color="#E04D40"/>
<stop offset="1" stop-color="#F15F56"/>
</linearGradient>
<linearGradient id="paint4_linear_610_2659" x1="52.3992" y1="31.1506" x2="52.2407" y2="72.3823" gradientUnits="userSpaceOnUse">
<stop stop-color="#F46A6A"/>
<stop offset="1" stop-color="#EA5749"/>
</linearGradient>
<linearGradient id="paint5_linear_610_2659" x1="62.047" y1="49.1988" x2="52.9779" y2="55.1175" gradientUnits="userSpaceOnUse">
<stop stop-color="#FF6F66"/>
<stop offset="1" stop-color="#EF6058"/>
</linearGradient>
<linearGradient id="paint6_linear_610_2659" x1="51.8488" y1="76.1581" x2="51.8512" y2="65.1538" gradientUnits="userSpaceOnUse">
<stop stop-color="#DA4639"/>
<stop offset="1" stop-color="#EC5B4F"/>
</linearGradient>
<linearGradient id="paint7_linear_610_2659" x1="51.4253" y1="17.1357" x2="51.4253" y2="33.3306" gradientUnits="userSpaceOnUse">
<stop stop-color="#F783F2"/>
<stop offset="1" stop-color="#E040DA"/>
</linearGradient>
<clipPath id="clip0_610_2659">
<rect width="163" height="76.3494" fill="white" transform="translate(0.328491 0.0872803)"/>
</clipPath>
</defs>
</svg>
