<svg width="95" height="95" viewBox="0 0 95 95" fill="none" xmlns="http://www.w3.org/2000/svg">
<g clip-path="url(#clip0_131_5)">
<path fill-rule="evenodd" clip-rule="evenodd" d="M13.9642 41C7.34833 41 2 46.5 2 53.3043C2 58.7433 5.42686 63.3473 10.1808 64.9768C10.7752 65.0993 10.9929 64.712 10.9929 64.3863C10.9929 64.101 10.9733 63.1233 10.9733 62.1045C7.64514 62.838 6.95208 60.6378 6.95208 60.6378C6.41722 59.2118 5.62473 58.8453 5.62473 58.8453C4.53543 58.0915 5.70408 58.0915 5.70408 58.0915C6.91241 58.173 7.54645 59.3545 7.54645 59.3545C8.61592 61.2285 10.3393 60.699 11.0326 60.373C11.1315 59.5785 11.4487 59.0285 11.7854 58.723C9.13094 58.4378 6.33812 57.3785 6.33812 52.6523C6.33812 51.3078 6.81323 50.2078 7.56604 49.3523C7.44727 49.0468 7.03118 47.7835 7.68506 46.0928C7.68506 46.0928 8.69527 45.7668 10.9731 47.3558C11.9483 47.0864 12.954 46.9494 13.9642 46.9483C14.9744 46.9483 16.0042 47.091 16.9552 47.3558C19.2332 45.7668 20.2434 46.0928 20.2434 46.0928C20.8973 47.7835 20.481 49.0468 20.3622 49.3523C21.1349 50.2078 21.5904 51.3078 21.5904 52.6523C21.5904 57.3785 18.7976 58.4173 16.1233 58.723C16.5592 59.11 16.9353 59.8433 16.9353 61.0045C16.9353 62.6545 16.9158 63.9788 16.9158 64.386C16.9158 64.712 17.1337 65.0993 17.7278 64.977C22.4818 63.347 25.9087 58.7433 25.9087 53.3043C25.9282 46.5 20.5603 41 13.9642 41Z" fill="#CAD1D8"/>
</g>
<ellipse cx="43.6223" cy="83.8794" rx="4.99631" ry="4.73335" transform="rotate(-135.137 43.6223 83.8794)" fill="#CE8C0C"/>
<circle cx="43.0658" cy="84.4386" r="4.99631" transform="rotate(-135.137 43.0658 84.4386)" fill="url(#paint0_linear_131_5)"/>
<path fill-rule="evenodd" clip-rule="evenodd" d="M45.6381 81.854C44.2107 80.4334 41.9019 80.4389 40.4813 81.8664C39.0606 83.2938 39.0662 85.6026 40.4936 87.0232C41.921 88.4438 44.2298 88.4383 45.6504 87.0108C47.071 85.5834 47.0655 83.2746 45.6381 81.854ZM46.0338 81.4564C44.3868 79.8172 41.7228 79.8236 40.0836 81.4706C38.4445 83.1177 38.4508 85.7816 40.0979 87.4208C41.7449 89.06 44.4089 89.0536 46.048 87.4066C47.6872 85.7596 47.6808 83.0956 46.0338 81.4564Z" fill="#E2AB1A"/>
<path fill-rule="evenodd" clip-rule="evenodd" d="M40.4813 81.8664C38.7005 83.6557 39.5284 85.8388 39.6988 86.4301C39.8692 87.0213 40.0979 87.4208 40.0979 87.4208C38.4508 85.7816 38.4445 83.1177 40.0836 81.4706C41.7228 79.8236 44.3868 79.8172 46.0338 81.4564C46.0338 81.4564 45.9327 81.359 45.1401 80.9627C44.3475 80.5664 41.9019 80.4389 40.4813 81.8664Z" fill="#D89C00"/>
<path d="M44.5016 83.2705C44.8527 83.6199 45.1 84.0474 45.2011 84.543C45.2716 84.8884 45.2018 85.4403 44.6751 85.9695C43.698 86.9513 42.819 86.7897 41.7691 85.7448L40.2605 84.2434C40.2605 84.2434 40.2118 84.1995 40.2134 84.1715C40.2154 84.1363 40.276 84.1087 40.276 84.1087L40.8339 83.8319C40.8339 83.8319 40.8914 83.8118 40.9235 83.8185C40.9611 83.8264 40.9977 83.864 40.9977 83.864L42.1816 85.0422C42.8745 85.7319 43.3382 86.0901 44.0638 85.361C44.3034 85.1202 44.4032 84.8784 44.3688 84.6218C44.3105 84.1882 43.8402 83.7041 43.5211 83.4403C43.5211 83.4403 43.0328 83.6911 42.9532 83.7316C42.86 83.779 42.8534 83.8058 42.9256 83.8777C43.0298 83.9814 43.2172 84.1679 43.416 84.3658C43.5554 84.5045 43.6253 84.7081 43.4644 84.8698C43.3089 85.026 43.0913 84.9899 42.9167 84.8161C42.6143 84.5152 41.9916 83.8954 41.875 83.7794C41.7222 83.6274 41.5872 83.4511 41.8979 83.2981L43.54 82.4908C43.54 82.4908 43.9728 82.7443 44.5016 83.2705Z" fill="#E2A60B"/>
<ellipse cx="56.6615" cy="56.2395" rx="7.62914" ry="7.22761" transform="rotate(-25.1664 56.6615 56.2395)" fill="#CE8C0C"/>
<circle cx="56.1492" cy="55.1492" r="7.62914" transform="rotate(-25.1664 56.1492 55.1492)" fill="url(#paint1_linear_131_5)"/>
<path fill-rule="evenodd" clip-rule="evenodd" d="M58.517 60.1886C61.3002 58.881 62.4963 55.5647 61.1886 52.7815C59.881 49.9983 56.5647 48.8022 53.7815 50.1098C50.9983 51.4175 49.8022 54.7338 51.1098 57.517C52.4175 60.3002 55.7338 61.4963 58.517 60.1886ZM58.8813 60.9639C62.0926 59.4551 63.4728 55.6286 61.9639 52.4172C60.4551 49.2058 56.6286 47.8257 53.4172 49.3345C50.2058 50.8434 48.8257 54.6699 50.3345 57.8813C51.8434 61.0926 55.6699 62.4728 58.8813 60.9639Z" fill="#E2AB1A"/>
<path fill-rule="evenodd" clip-rule="evenodd" d="M61.1886 52.7815C59.5494 49.2927 55.9846 49.3423 55.0472 49.2785C54.1098 49.2148 53.4172 49.3345 53.4172 49.3345C56.6286 47.8257 60.4551 49.2058 61.9639 52.4172C63.4728 55.6286 62.0926 59.4551 58.8813 60.9639C58.8813 60.9639 59.0738 60.8696 60.0559 59.9388C61.038 59.008 62.4963 55.5647 61.1886 52.7815Z" fill="#D89C00"/>
<path d="M57.0768 57.8189C56.3923 58.1406 55.6498 58.2725 54.8858 58.1592C54.3534 58.0803 53.5978 57.6923 53.113 56.6604C52.2135 54.7461 52.9039 53.5688 54.9509 52.607L57.8923 51.225C57.8923 51.225 57.9808 51.178 58.0201 51.1949C58.0696 51.2161 58.0777 51.3175 58.0777 51.3175L58.1839 52.2626C58.1839 52.2626 58.1828 52.3556 58.1564 52.3982C58.1255 52.448 58.0525 52.4808 58.0525 52.4808L55.7441 53.5654C54.393 54.2002 53.6371 54.6788 54.305 56.1003C54.5257 56.5699 54.8206 56.8392 55.2068 56.9236C55.8595 57.0662 56.7995 56.6436 57.3445 56.3232C57.3445 56.3232 57.2392 55.4916 57.2227 55.3563C57.2033 55.1978 57.1681 55.1744 57.0274 55.2405C56.8242 55.336 56.4589 55.5076 56.0711 55.6898C55.7993 55.8175 55.4707 55.8116 55.3225 55.4963C55.1794 55.1917 55.3448 54.8983 55.6853 54.7383C56.2748 54.4613 57.489 53.8908 57.7163 53.784C58.0142 53.644 58.3375 53.5422 58.3951 54.0678L58.6973 56.8455C58.6973 56.8455 58.1078 57.3345 57.0768 57.8189Z" fill="#E2A60B"/>
<ellipse cx="72.1334" cy="87.0926" rx="5.76419" ry="5.46081" transform="rotate(17.3995 72.1334 87.0926)" fill="#CE8C0C"/>
<circle cx="72.4056" cy="86.2241" r="5.76419" transform="rotate(17.3995 72.4056 86.2241)" fill="url(#paint2_linear_131_5)"/>
<path fill-rule="evenodd" clip-rule="evenodd" d="M71.1476 90.2385C73.3647 90.9332 75.7252 89.6992 76.4199 87.4821C77.1147 85.265 75.8806 82.9045 73.6636 82.2098C71.4465 81.515 69.086 82.7491 68.3912 84.9661C67.6965 87.1832 68.9305 89.5437 71.1476 90.2385ZM70.954 90.8561C73.5122 91.6577 76.2359 90.2338 77.0375 87.6756C77.8392 85.1175 76.4152 82.3938 73.8571 81.5922C71.2989 80.7905 68.5753 82.2144 67.7736 84.7726C66.972 87.3307 68.3959 90.0544 70.954 90.8561Z" fill="#E2AB1A"/>
<path fill-rule="evenodd" clip-rule="evenodd" d="M76.4199 87.4821C77.2908 84.7029 75.2818 82.9086 74.7927 82.3941C74.3037 81.8795 73.8571 81.5922 73.8571 81.5922C76.4152 82.3938 77.8391 85.1175 77.0375 87.6756C76.2358 90.2338 73.5122 91.6577 70.954 90.8561C70.954 90.8561 71.1094 90.902 72.1316 90.886C73.1538 90.8699 75.7251 89.6992 76.4199 87.4821Z" fill="#D89C00"/>
<path d="M71.5573 88.1838C71.012 88.0129 70.5314 87.7068 70.1642 87.2533C69.9082 86.9373 69.6861 86.3352 69.9436 85.5133C70.4215 83.9883 71.4074 83.686 73.038 84.1971L75.3811 84.9313C75.3811 84.9313 75.4544 84.9504 75.4676 84.9798C75.4843 85.0169 75.437 85.0775 75.437 85.0775L75.0131 85.6577C75.0131 85.6577 74.965 85.7089 74.9285 85.7191C74.8858 85.731 74.8285 85.712 74.8285 85.712L72.9896 85.1357C71.9133 84.7984 71.2481 84.6785 70.8932 85.8108C70.776 86.1849 70.8025 86.4855 70.9743 86.7298C71.2646 87.1427 72.0036 87.388 72.4707 87.4883C72.4707 87.4883 72.8371 86.9717 72.897 86.888C72.9673 86.7899 72.9597 86.7588 72.8476 86.7237C72.6857 86.673 72.3947 86.5818 72.0858 86.485C71.8693 86.4171 71.6894 86.2459 71.7681 85.9947C71.8442 85.7521 72.0862 85.6733 72.3574 85.7583C72.827 85.9055 73.7943 86.2086 73.9753 86.2653C74.2126 86.3397 74.4446 86.4482 74.208 86.7702L72.9565 88.4703C72.9565 88.4703 72.3786 88.4411 71.5573 88.1838Z" fill="#E2A60B"/>
<ellipse cx="85.3832" cy="67.9554" rx="6.83536" ry="6.47561" transform="rotate(-22.9844 85.3832 67.9554)" fill="#CE8C0C"/>
<circle cx="84.9618" cy="66.9618" r="6.83536" transform="rotate(-22.9844 84.9618 66.9618)" fill="url(#paint3_linear_131_5)"/>
<path fill-rule="evenodd" clip-rule="evenodd" d="M86.9098 71.5544C89.4462 70.4785 90.6302 67.5502 89.5544 65.0138C88.4786 62.4774 85.5503 61.2934 83.0139 62.3692C80.4774 63.445 79.2934 66.3733 80.3692 68.9097C81.4451 71.4462 84.3734 72.6302 86.9098 71.5544ZM87.2095 72.2609C90.1361 71.0196 91.5023 67.6408 90.2609 64.7141C89.0196 61.7875 85.6408 60.4213 82.7142 61.6627C79.7875 62.904 78.4213 66.2828 79.6627 69.2094C80.904 72.1361 84.2828 73.5023 87.2095 72.2609Z" fill="#E2AB1A"/>
<path fill-rule="evenodd" clip-rule="evenodd" d="M89.5544 65.0138C88.2058 61.8344 85.0124 61.7572 84.1754 61.6681C83.3383 61.5791 82.7141 61.6627 82.7141 61.6627C85.6408 60.4213 89.0196 61.7875 90.2609 64.7141C91.5023 67.6408 90.1361 71.0196 87.2094 72.2609C87.2094 72.2609 87.385 72.183 88.2961 71.3832C89.2071 70.5834 90.6302 67.5502 89.5544 65.0138Z" fill="#D89C00"/>
<path d="M85.7012 69.3836C85.0774 69.6482 84.4081 69.7411 83.728 69.6135C83.254 69.5247 82.5907 69.1516 82.1919 68.2112C81.4519 66.4666 82.1101 65.4361 83.9757 64.6449L86.6563 63.5079C86.6563 63.5079 86.7371 63.4688 86.7717 63.4853C86.8153 63.506 86.8191 63.597 86.8191 63.597L86.8819 64.4467C86.8819 64.4467 86.8778 64.53 86.8527 64.5672C86.8233 64.6108 86.7569 64.6376 86.7569 64.6376L84.6531 65.53C83.4218 66.0522 82.7288 66.4549 83.2782 67.7504C83.4597 68.1783 83.7146 68.4295 84.0575 68.5182C84.637 68.6681 85.493 68.3219 85.9919 68.0536C85.9919 68.0536 85.926 67.3055 85.9158 67.1838C85.9038 67.0413 85.8732 67.019 85.7449 67.0734C85.5597 67.152 85.2268 67.2932 84.8734 67.4431C84.6257 67.5481 84.3317 67.5317 84.2098 67.2443C84.0921 66.9668 84.2501 66.7096 84.5604 66.578C85.0977 66.3501 86.2042 65.8808 86.4113 65.793C86.6829 65.6778 86.9758 65.5976 87.0094 66.0702L87.1853 68.5674C87.1853 68.5674 86.6408 68.9851 85.7012 69.3836Z" fill="#E2A60B"/>
<rect x="12.3901" y="57.3901" width="70.2527" height="26.5275" rx="5.07143" fill="#22262C"/>
<rect x="12.3901" y="57.3901" width="70.2527" height="26.5275" rx="5.07143" stroke="#31363C" stroke-width="0.78022"/>
<path d="M32.2436 63.5008C32.4035 63.1163 32.9482 63.1163 33.1081 63.5008L34.7329 67.4074C34.8003 67.5694 34.9528 67.6802 35.1277 67.6942L39.3453 68.0323C39.7603 68.0656 39.9286 68.5836 39.6124 68.8545L36.3991 71.607C36.2658 71.7212 36.2075 71.9004 36.2483 72.0712L37.23 76.1868C37.3266 76.5918 36.886 76.9119 36.5306 76.6949L32.9198 74.4894C32.77 74.3979 32.5816 74.3979 32.4318 74.4894L28.821 76.6949C28.4657 76.9119 28.025 76.5918 28.1217 76.1868L29.1034 72.0712C29.1441 71.9004 29.0859 71.7212 28.9526 71.607L25.7393 68.8545C25.423 68.5836 25.5913 68.0656 26.0064 68.0323L30.2239 67.6942C30.3989 67.6802 30.5513 67.5694 30.6187 67.4074L32.2436 63.5008Z" stroke="#CAD1D8" stroke-width="1.3"/>
<path d="M51.4986 68.4599C51.4513 68.0403 51.2563 67.7152 50.9135 67.4846C50.5706 67.2512 50.1392 67.1344 49.619 67.1344C49.2466 67.1344 48.9245 67.1935 48.6526 67.3118C48.3807 67.427 48.1694 67.5866 48.0187 67.7905C47.8709 67.9915 47.797 68.2205 47.797 68.4776C47.797 68.6934 47.8473 68.8796 47.9477 69.0362C48.0512 69.1928 48.1857 69.3244 48.3512 69.4308C48.5196 69.5342 48.6999 69.6214 48.892 69.6923C49.0841 69.7603 49.2688 69.8164 49.4461 69.8608L50.3327 70.0913C50.6224 70.1622 50.9194 70.2583 51.2238 70.3794C51.5282 70.5006 51.8104 70.6602 52.0705 70.8582C52.3306 71.0562 52.5404 71.3015 52.7 71.5941C52.8625 71.8867 52.9438 72.2369 52.9438 72.6447C52.9438 73.159 52.8108 73.6156 52.5448 74.0145C52.2818 74.4135 51.8991 74.7283 51.3967 74.9588C50.8972 75.1893 50.2928 75.3046 49.5835 75.3046C48.9038 75.3046 48.3157 75.1967 47.8192 74.981C47.3227 74.7652 46.934 74.4593 46.6533 74.0633C46.3725 73.6643 46.2174 73.1915 46.1878 72.6447H47.5621C47.5887 72.9728 47.6951 73.2462 47.8812 73.4648C48.0704 73.6806 48.3113 73.8417 48.6038 73.9481C48.8994 74.0515 49.223 74.1032 49.5747 74.1032C49.9618 74.1032 50.3061 74.0426 50.6076 73.9215C50.912 73.7973 51.1514 73.6259 51.3257 73.4072C51.5001 73.1856 51.5873 72.927 51.5873 72.6314C51.5873 72.3625 51.5105 72.1423 51.3568 71.9709C51.206 71.7995 51.0006 71.6576 50.7406 71.5453C50.4835 71.433 50.1924 71.334 49.8673 71.2483L48.7945 70.9557C48.0674 70.7577 47.4911 70.4666 47.0656 70.0824C46.6429 69.6982 46.4316 69.1899 46.4316 68.5574C46.4316 68.0343 46.5735 67.5777 46.8572 67.1876C47.1409 66.7975 47.5251 66.4946 48.0098 66.2788C48.4945 66.0601 49.0412 65.9508 49.65 65.9508C50.2648 65.9508 50.8071 66.0587 51.277 66.2744C51.7498 66.4902 52.1222 66.7872 52.3941 67.1655C52.666 67.5408 52.8079 67.9723 52.8197 68.4599H51.4986ZM57.6528 68.3447V69.4086H53.9335V68.3447H57.6528ZM54.9309 66.7133H56.2564V73.1545C56.2564 73.4117 56.2948 73.6052 56.3717 73.7353C56.4485 73.8623 56.5475 73.9495 56.6687 73.9968C56.7928 74.0411 56.9273 74.0633 57.0721 74.0633C57.1785 74.0633 57.2716 74.0559 57.3514 74.0411C57.4312 74.0264 57.4932 74.0145 57.5376 74.0057L57.777 75.1006C57.7001 75.1302 57.5908 75.1598 57.4489 75.1893C57.3071 75.2218 57.1297 75.2396 56.9169 75.2425C56.5682 75.2484 56.2431 75.1864 55.9417 75.0563C55.6402 74.9263 55.3964 74.7253 55.2102 74.4534C55.024 74.1815 54.9309 73.8402 54.9309 73.4294V66.7133ZM61.1007 75.3046C60.6692 75.3046 60.2791 75.2248 59.9303 75.0652C59.5816 74.9026 59.3053 74.6677 59.1013 74.3603C58.9004 74.053 58.7999 73.6762 58.7999 73.2299C58.7999 72.8457 58.8738 72.5295 59.0215 72.2812C59.1693 72.033 59.3688 71.8364 59.62 71.6916C59.8712 71.5468 60.152 71.4375 60.4623 71.3636C60.7726 71.2897 61.0888 71.2335 61.411 71.1951C61.8188 71.1478 62.1498 71.1094 62.404 71.0799C62.6581 71.0473 62.8428 70.9956 62.9581 70.9247C63.0734 70.8538 63.131 70.7385 63.131 70.5789V70.5479C63.131 70.1607 63.0216 69.8608 62.803 69.648C62.5872 69.4352 62.2651 69.3288 61.8365 69.3288C61.3903 69.3288 61.0386 69.4278 60.7815 69.6258C60.5273 69.8209 60.3515 70.0381 60.2539 70.2775L59.0082 69.9938C59.156 69.58 59.3718 69.246 59.6555 68.9919C59.9421 68.7348 60.2717 68.5486 60.644 68.4333C61.0164 68.3151 61.408 68.256 61.8188 68.256C62.0907 68.256 62.3789 68.2885 62.6833 68.3535C62.9906 68.4156 63.2773 68.5308 63.5433 68.6993C63.8122 68.8678 64.0324 69.1086 64.2038 69.4219C64.3752 69.7322 64.4609 70.1356 64.4609 70.6321V75.1538H63.1665V74.2229H63.1133C63.0276 74.3943 62.899 74.5628 62.7276 74.7283C62.5562 74.8938 62.336 75.0312 62.0671 75.1405C61.7981 75.2499 61.476 75.3046 61.1007 75.3046ZM61.3888 74.2406C61.7553 74.2406 62.0685 74.1682 62.3286 74.0234C62.5916 73.8786 62.7911 73.6895 62.9271 73.456C63.066 73.2196 63.1354 72.9669 63.1354 72.6979V71.8202C63.0881 71.8675 62.9965 71.9118 62.8606 71.9532C62.7276 71.9916 62.5754 72.0256 62.404 72.0551C62.2326 72.0817 62.0656 72.1069 61.903 72.1305C61.7405 72.1512 61.6045 72.1689 61.4952 72.1837C61.2381 72.2162 61.0031 72.2709 60.7903 72.3477C60.5805 72.4246 60.412 72.5354 60.285 72.6802C60.1608 72.8221 60.0988 73.0112 60.0988 73.2476C60.0988 73.5757 60.22 73.8239 60.4623 73.9924C60.7046 74.1579 61.0135 74.2406 61.3888 74.2406ZM66.2264 75.1538V68.3447H67.5075V69.4263H67.5785C67.7026 69.0599 67.9213 68.7717 68.2346 68.5619C68.5508 68.3491 68.9084 68.2427 69.3074 68.2427C69.3901 68.2427 69.4876 68.2457 69.6 68.2516C69.7152 68.2575 69.8053 68.2649 69.8704 68.2737V69.5416C69.8172 69.5268 69.7226 69.5106 69.5867 69.4928C69.4507 69.4721 69.3148 69.4618 69.1788 69.4618C68.8655 69.4618 68.5863 69.5283 68.341 69.6613C68.0986 69.7913 67.9065 69.9731 67.7647 70.2065C67.6228 70.4371 67.5519 70.7001 67.5519 70.9956V75.1538H66.2264Z" fill="#CAD1D8"/>
<path d="M51.237 20.3049C51.406 19.4316 52.5456 19.197 53.0457 19.9326L57.3855 26.3152C57.5963 26.6253 57.9629 26.7913 58.3351 26.7453L65.995 25.7985C66.8778 25.6894 67.453 26.7007 66.908 27.4037L62.1789 33.5034C61.9491 33.7997 61.9044 34.1997 62.0632 34.5395L65.3307 41.5319C65.7073 42.3377 64.9232 43.1973 64.0862 42.8962L56.8237 40.2834C56.4708 40.1565 56.0766 40.2376 55.8026 40.4936L50.1621 45.7619C49.5121 46.3691 48.4523 45.889 48.48 45L48.7206 37.2855C48.7323 36.9107 48.5333 36.5609 48.2052 36.3793L41.4517 32.6429C40.6734 32.2123 40.8025 31.0561 41.6566 30.8077L49.0678 28.6527C49.4279 28.548 49.6992 28.2506 49.7704 27.8824L51.237 20.3049Z" fill="#FFA216"/>
<path d="M31.8208 54.0985C32.095 53.2523 33.2547 53.1584 33.6614 53.9494L35.0197 56.5909C35.1912 56.9243 35.5349 57.1338 35.9098 57.1335L38.88 57.1311C39.7695 57.1304 40.2172 58.2043 39.5906 58.8356L37.4982 60.9437C37.234 61.2098 37.141 61.6014 37.2571 61.9579L38.1773 64.782C38.4528 65.6277 37.5698 66.3854 36.7758 65.9845L34.1243 64.6459C33.7896 64.4769 33.3884 64.5094 33.0852 64.7301L30.6837 66.4779C29.9645 67.0013 28.9711 66.3956 29.107 65.5166L29.5607 62.5812C29.6179 62.2106 29.4631 61.8391 29.1595 61.619L26.7552 59.8751C26.0351 59.3528 26.3042 58.2209 27.1822 58.0785L30.1141 57.6029C30.4842 57.5429 30.7897 57.2808 30.9053 56.9241L31.8208 54.0985Z" fill="#FFBE16" fill-opacity="0.5"/>
<path d="M37.0362 37.808C37.2082 36.9353 38.3485 36.7047 38.8462 37.4419L41.2784 41.0456C41.4882 41.3565 41.8543 41.5238 42.2266 41.4791L46.5433 40.9605C47.4264 40.8545 47.9981 41.8677 47.4507 42.5688L44.775 45.9957C44.5442 46.2912 44.4982 46.6911 44.6558 47.0313L46.4829 50.9765C46.8567 51.7836 46.0697 52.6405 45.2337 52.3365L41.1478 50.8507C40.7953 50.7226 40.4009 50.8024 40.1259 51.0574L36.9384 54.0142C36.2863 54.6191 35.2282 54.1354 35.259 53.2464L35.4094 48.9013C35.4224 48.5266 35.2246 48.176 34.8971 47.9934L31.1001 45.8756C30.3232 45.4423 30.4563 44.2865 31.3112 44.0411L35.4902 42.8414C35.8506 42.738 36.1229 42.4416 36.1954 42.0736L37.0362 37.808Z" fill="#FA9704" fill-opacity="0.73"/>
<ellipse cx="39" cy="19.1053" rx="7" ry="6.63158" fill="#CE8C0C"/>
<circle cx="39" cy="18" r="7" fill="url(#paint4_linear_131_5)"/>
<path fill-rule="evenodd" clip-rule="evenodd" d="M39 23.1088C41.8215 23.1088 44.1088 20.8215 44.1088 18C44.1088 15.1785 41.8215 12.8912 39 12.8912C36.1785 12.8912 33.8912 15.1785 33.8912 18C33.8912 20.8215 36.1785 23.1088 39 23.1088ZM39 23.8947C42.2556 23.8947 44.8947 21.2556 44.8947 18C44.8947 14.7444 42.2556 12.1053 39 12.1053C35.7444 12.1053 33.1053 14.7444 33.1053 18C33.1053 21.2556 35.7444 23.8947 39 23.8947Z" fill="#E2AB1A"/>
<path fill-rule="evenodd" clip-rule="evenodd" d="M44.1088 18C44.1088 14.4632 41.129 13.1134 40.3754 12.6947C39.6219 12.2761 39 12.1053 39 12.1053C42.2556 12.1053 44.8947 14.7444 44.8947 18C44.8947 21.2556 42.2556 23.8947 39 23.8947C39 23.8947 39.1967 23.8915 40.3754 23.5018C41.5542 23.112 44.1088 20.8215 44.1088 18Z" fill="#D89C00"/>
<path d="M38.7286 20.5789C38.0347 20.5789 37.3666 20.3988 36.7764 20.0066C36.365 19.7334 35.8889 19.1163 35.8889 18.0703C35.8889 16.1296 36.9216 15.4213 38.9968 15.4213L41.9787 15.4213C41.9787 15.4213 42.0705 15.4168 42.0966 15.4461C42.1294 15.4831 42.0966 15.5704 42.0966 15.5704L41.816 16.3967C41.816 16.3967 41.7788 16.4735 41.7402 16.4985C41.6951 16.5279 41.6217 16.5266 41.6217 16.5266H39.2815C37.9118 16.5266 37.0974 16.6292 37.0974 18.0703C37.0974 18.5463 37.2372 18.885 37.525 19.1057C38.0114 19.4788 38.9569 19.4947 39.5346 19.4413C39.5346 19.4413 39.7716 18.7096 39.8106 18.5908C39.8564 18.4516 39.8363 18.4184 39.6937 18.4184C39.4877 18.4184 39.1173 18.4184 38.7242 18.4184C38.4487 18.4184 38.178 18.2853 38.178 17.9656C38.178 17.6569 38.4299 17.4777 38.775 17.4777C39.3727 17.4777 40.6036 17.4777 40.834 17.4777C41.136 17.4777 41.4443 17.5193 41.287 17.9783L40.4542 20.4029C40.4542 20.4029 39.7738 20.5789 38.7286 20.5789Z" fill="#E2A60B"/>
<ellipse cx="20.8487" cy="7.49671" rx="3.89322" ry="3.68832" transform="rotate(18.1576 20.8487 7.49671)" fill="#CE8C0C"/>
<circle cx="21.0403" cy="6.9126" r="3.89322" transform="rotate(18.1576 21.0403 6.9126)" fill="url(#paint5_linear_131_5)"/>
<path fill-rule="evenodd" clip-rule="evenodd" d="M20.1548 9.61248C21.6459 10.1015 23.2512 9.28917 23.7402 7.79807C24.2292 6.30696 23.4169 4.70175 21.9258 4.21273C20.4347 3.7237 18.8295 4.53604 18.3404 6.02714C17.8514 7.51824 18.6637 9.12345 20.1548 9.61248ZM20.0186 10.0278C21.7391 10.5921 23.5913 9.65479 24.1556 7.93429C24.7198 6.21379 23.7825 4.36162 22.062 3.79736C20.3415 3.2331 18.4893 4.17041 17.9251 5.89092C17.3608 7.61142 18.2981 9.46358 20.0186 10.0278Z" fill="#E2AB1A"/>
<path fill-rule="evenodd" clip-rule="evenodd" d="M23.7402 7.79807C24.3532 5.92892 23.0124 4.69916 22.6867 4.34728C22.361 3.9954 22.062 3.79736 22.062 3.79736C23.7825 4.36163 24.7198 6.21379 24.1556 7.93429C23.5913 9.65479 21.7391 10.5921 20.0186 10.0278C20.0186 10.0278 20.1231 10.0602 20.8136 10.0586C21.5041 10.0569 23.2512 9.28917 23.7402 7.79807Z" fill="#D89C00"/>
<path d="M20.4499 8.22849C20.0832 8.10821 19.7613 7.89723 19.5174 7.58766C19.3474 7.37195 19.2027 6.96334 19.384 6.41052C19.7204 5.38491 20.3889 5.18958 21.4856 5.54927L23.0614 6.06609C23.0614 6.06609 23.1107 6.07962 23.1194 6.09964C23.1303 6.12485 23.0979 6.16532 23.0979 6.16532L22.8064 6.55334C22.8064 6.55334 22.7734 6.58751 22.7487 6.59406C22.7198 6.60174 22.6812 6.58838 22.6812 6.58838L21.4445 6.18277C20.7206 5.94537 20.2724 5.8584 20.0226 6.61998C19.9401 6.87153 19.9553 7.07479 20.0692 7.24132C20.2616 7.5228 20.7585 7.69505 21.073 7.76693C21.073 7.76693 21.3251 7.42135 21.3663 7.36534C21.4146 7.2997 21.4098 7.27868 21.3344 7.25396C21.2255 7.21825 21.0298 7.15406 20.822 7.08592C20.6764 7.03817 20.5565 6.92093 20.6119 6.75198C20.6654 6.58882 20.8295 6.53776 21.0119 6.59758C21.3278 6.70117 21.9783 6.91452 22.1001 6.95445C22.2597 7.0068 22.4154 7.08219 22.2527 7.2975L21.3923 8.43452C21.3923 8.43452 21.0023 8.40965 20.4499 8.22849Z" fill="#E2A60B"/>
<ellipse cx="81.1516" cy="42.773" rx="9.43425" ry="8.93771" transform="rotate(18.0514 81.1516 42.773)" fill="#CE8C0C"/>
<circle cx="81.6132" cy="41.3567" r="9.43425" transform="rotate(18.0514 81.6132 41.3567)" fill="url(#paint6_linear_131_5)"/>
<path fill-rule="evenodd" clip-rule="evenodd" d="M79.4796 47.9031C83.0951 49.0815 86.9813 47.1058 88.1596 43.4903C89.3379 39.8748 87.3622 35.9886 83.7467 34.8103C80.1312 33.6319 76.2451 35.6076 75.0667 39.2231C73.8884 42.8386 75.8641 46.7248 79.4796 47.9031ZM79.1513 48.9103C83.3231 50.2699 87.8071 47.9902 89.1667 43.8185C90.5264 39.6468 88.2467 35.1627 84.075 33.8031C79.9032 32.4435 75.4192 34.7232 74.0596 38.8949C72.7 43.0666 74.9796 47.5507 79.1513 48.9103Z" fill="#E2AB1A"/>
<path fill-rule="evenodd" clip-rule="evenodd" d="M88.1596 43.4903C89.6367 38.9581 86.3821 35.9841 85.5913 35.1329C84.8005 34.2817 84.075 33.8031 84.075 33.8031C88.2467 35.1627 90.5263 39.6468 89.1667 43.8185C87.8071 47.9902 83.3231 50.2699 79.1513 48.9103C79.1513 48.9103 79.4047 48.9883 81.078 48.9811C82.7512 48.974 86.9812 47.1058 88.1596 43.4903Z" fill="#D89C00"/>
<path d="M80.1884 44.5481C79.2991 44.2582 78.5183 43.7484 77.9258 42.9994C77.5128 42.4774 77.1604 41.4879 77.5972 40.1475C78.4077 37.6607 80.0268 37.1843 82.686 38.051L86.507 39.2963C86.507 39.2963 86.6266 39.3289 86.6477 39.3774C86.6743 39.4384 86.5958 39.5366 86.5958 39.5366L85.8912 40.4782C85.8912 40.4782 85.8115 40.5611 85.7516 40.5771C85.6815 40.5958 85.588 40.5636 85.588 40.5636L82.5892 39.5863C80.8341 39.0143 79.7476 38.8055 79.1458 40.6522C78.947 41.2621 78.9847 41.7546 79.2613 42.1576C79.7288 42.8388 80.9337 43.254 81.6962 43.4268C81.6962 43.4268 82.3055 42.5882 82.4052 42.4523C82.5219 42.293 82.5101 42.2421 82.3273 42.1826C82.0633 42.0965 81.5887 41.9418 81.085 41.7777C80.732 41.6626 80.4407 41.379 80.5742 40.9694C80.7032 40.5738 81.1007 40.4493 81.543 40.5935C82.3089 40.8431 83.8862 41.3571 84.1814 41.4533C84.5684 41.5795 84.946 41.7615 84.5528 42.284L82.4731 45.0431C82.4731 45.0431 81.5277 44.9846 80.1884 44.5481Z" fill="#E2A60B"/>
<ellipse cx="65.7707" cy="11.0296" rx="4.54417" ry="4.305" transform="rotate(-96.9176 65.7707 11.0296)" fill="#CE8C0C"/>
<circle cx="65.0584" cy="11.116" r="4.54417" transform="rotate(-96.9176 65.0584 11.116)" fill="url(#paint7_linear_131_5)"/>
<path fill-rule="evenodd" clip-rule="evenodd" d="M68.3507 10.7166C68.1301 8.89827 66.4772 7.60309 64.659 7.8237C62.8407 8.0443 61.5455 9.69715 61.7661 11.5154C61.9867 13.3337 63.6395 14.6289 65.4578 14.4083C67.2761 14.1877 68.5713 12.5348 68.3507 10.7166ZM68.8572 10.6551C68.6027 8.55708 66.6955 7.06265 64.5975 7.31719C62.4995 7.57173 61.005 9.47887 61.2596 11.5769C61.5141 13.6749 63.4213 15.1694 65.5193 14.9148C67.6173 14.6603 69.1117 12.7531 68.8572 10.6551Z" fill="#E2AB1A"/>
<path fill-rule="evenodd" clip-rule="evenodd" d="M64.659 7.8237C62.3797 8.10024 61.7428 10.126 61.5319 10.6444C61.321 11.1628 61.2596 11.5769 61.2596 11.5769C61.0051 9.47887 62.4995 7.57174 64.5975 7.3172C66.6955 7.06265 68.6027 8.55709 68.8572 10.6551C68.8572 10.6551 68.8398 10.5286 68.4964 9.79945C68.1531 9.07029 66.4773 7.6031 64.659 7.8237Z" fill="#D89C00"/>
<path d="M66.7416 11.0892C66.7959 11.5365 66.732 11.9811 66.5254 12.3921C66.3815 12.6786 66.021 13.0336 65.3469 13.1154C64.0963 13.2672 63.5591 12.657 63.3968 11.3197L63.1637 9.39805C63.1637 9.39805 63.1536 9.33921 63.1705 9.32013C63.1917 9.29611 63.2506 9.31041 63.2506 9.31041L63.805 9.42665C63.805 9.42665 63.8574 9.44458 63.8765 9.46747C63.899 9.49427 63.9039 9.54164 63.9039 9.54164L64.0869 11.0498C64.194 11.9325 64.3237 12.4493 65.2524 12.3366C65.5592 12.2994 65.7666 12.1828 65.8863 11.9801C66.0887 11.6374 66.025 11.0269 65.9454 10.6588C65.9454 10.6588 65.4554 10.5633 65.3758 10.5474C65.2825 10.5288 65.2626 10.5443 65.2738 10.6362C65.2899 10.769 65.3189 11.0077 65.3496 11.261C65.3711 11.4386 65.3065 11.6234 65.1005 11.6484C64.9015 11.6725 64.7664 11.5243 64.7394 11.3018C64.6927 10.9167 64.5964 10.1234 64.5784 9.97493C64.5548 9.78029 64.5575 9.5784 64.8656 9.64386L66.4932 9.991C66.4932 9.991 66.6599 10.4157 66.7416 11.0892Z" fill="#E2A60B"/>
<defs>
<linearGradient id="paint0_linear_131_5" x1="43.0658" y1="79.4423" x2="43.0658" y2="89.4349" gradientUnits="userSpaceOnUse">
<stop stop-color="#FEDC28"/>
<stop offset="1" stop-color="#F1C34B"/>
</linearGradient>
<linearGradient id="paint1_linear_131_5" x1="56.1492" y1="47.5201" x2="56.1492" y2="62.7784" gradientUnits="userSpaceOnUse">
<stop stop-color="#FEDC28"/>
<stop offset="1" stop-color="#F1C34B"/>
</linearGradient>
<linearGradient id="paint2_linear_131_5" x1="72.4056" y1="80.4599" x2="72.4056" y2="91.9883" gradientUnits="userSpaceOnUse">
<stop stop-color="#FEDC28"/>
<stop offset="1" stop-color="#F1C34B"/>
</linearGradient>
<linearGradient id="paint3_linear_131_5" x1="84.9618" y1="60.1264" x2="84.9618" y2="73.7972" gradientUnits="userSpaceOnUse">
<stop stop-color="#FEDC28"/>
<stop offset="1" stop-color="#F1C34B"/>
</linearGradient>
<linearGradient id="paint4_linear_131_5" x1="39" y1="11" x2="39" y2="25" gradientUnits="userSpaceOnUse">
<stop stop-color="#FEDC28"/>
<stop offset="1" stop-color="#F1C34B"/>
</linearGradient>
<linearGradient id="paint5_linear_131_5" x1="21.0403" y1="3.01938" x2="21.0403" y2="10.8058" gradientUnits="userSpaceOnUse">
<stop stop-color="#FEDC28"/>
<stop offset="1" stop-color="#F1C34B"/>
</linearGradient>
<linearGradient id="paint6_linear_131_5" x1="81.6132" y1="31.9224" x2="81.6132" y2="50.7909" gradientUnits="userSpaceOnUse">
<stop stop-color="#FEDC28"/>
<stop offset="1" stop-color="#F1C34B"/>
</linearGradient>
<linearGradient id="paint7_linear_131_5" x1="65.0584" y1="6.57184" x2="65.0584" y2="15.6602" gradientUnits="userSpaceOnUse">
<stop stop-color="#FEDC28"/>
<stop offset="1" stop-color="#F1C34B"/>
</linearGradient>
<clipPath id="clip0_131_5">
<rect width="24" height="24" fill="white" transform="translate(2 41)"/>
</clipPath>
</defs>
</svg>
