<svg width="164" height="77" viewBox="0 0 164 77" fill="none" xmlns="http://www.w3.org/2000/svg">
	<g id="Education" clip-path="url(#clip0_640_29103)">
		<g id="Group 1114">
			<g id="Group 1116">
				<path id="Vector 233" d="M77.7417 64.4444C78.0089 66.2769 78.3831 70.7894 77.7417 74.1794H80.8913" stroke="#CF0A80" stroke-width="1.07481" stroke-linecap="round" />
				<path id="Vector 234" d="M82.4946 63.7637C83.2772 65.5198 84.8998 69.662 85.1288 72.1816H88.9083" stroke="#CF0A80" stroke-width="1.07481" stroke-linecap="round" />
				<path id="Vector 236" d="M84.7271 57.6966C86.6168 57.0476 90.5223 54.547 91.0262 49.7368" stroke="#CF0A80" stroke-width="1.07481" stroke-linecap="round" />
				<path id="Vector 240" d="M77.5693 49.2111C83.0095 48.0658 85.3001 55.7966 85.3001 58.0872C86.0445 58.0872 87.4761 59.0607 87.7052 60.1487C87.9343 61.2367 87.3043 62.7527 85.8727 63.3555C85.2114 63.634 82.6086 64.5008 80.4898 64.9589C78.371 65.4171 75.6796 65.3598 74.1907 65.3598C72.7018 65.3598 71.1557 64.3863 71.0984 62.6683C71.0526 61.294 72.301 60.3396 72.9309 60.0342C71.9001 55.5675 72.1292 50.3564 77.5693 49.2111Z" fill="url(#paint0_linear_640_29103)" />
				<ellipse id="Ellipse 79" cx="82.9866" cy="57.189" rx="0.744443" ry="0.801708" transform="rotate(-17.4862 82.9866 57.189)" fill="#3B314F" />
				<ellipse id="Ellipse 80" cx="78.9778" cy="58.2273" rx="0.744443" ry="0.801708" transform="rotate(-17.4862 78.9778 58.2273)" fill="#3B314F" />
				<path id="Vector 245" d="M73.7319 59.5255C74.4382 62.2742 75.427 68.413 73.7319 70.9785" stroke="#CF0A80" stroke-width="1.07481" stroke-linecap="round" />
			</g>
			<g id="Vector 237" opacity="0.2" filter="url(#filter0_f_640_29103)">
				<path d="M97.6048 70.1445L79.7277 56.8318C78.802 56.1425 78.2566 55.0563 78.2566 53.9021L78.2564 23.401C78.2564 22.2715 78.7788 21.2056 79.6716 20.5137L97.658 6.57462C98.9544 5.56992 100.762 5.55252 102.077 6.53207L119.772 19.7077C120.697 20.397 121.243 21.4833 121.243 22.6375V53.1589C121.243 54.2768 120.731 55.3332 119.854 56.0259L102.05 70.0818C100.753 71.1057 98.9301 71.1315 97.6048 70.1445Z" fill="#F9E05C" />
			</g>
			<g id="Group 1110">
				<path id="Polygon 3" d="M100.453 70.1777L76.1897 39.0942L100.343 30.6939L100.453 70.1777Z" fill="#FFDAA4" />
				<path id="Polygon 5" d="M100.452 6.08453L124.715 39.091L100.342 30.6902L100.452 6.08453Z" fill="#FFA827" />
				<path id="Polygon 4" d="M100.452 70.1722L100.342 30.6889L124.715 39.0891L100.452 70.1722Z" fill="#FFBC57" />
				<path id="Polygon 6" d="M100.453 6.08636L100.343 30.6915L76.1899 39.0924L100.453 6.08636Z" fill="#FFBC57" />
			</g>
			<g id="Group 1111">
				<path id="Vector" d="M87.0889 42.8609C87.2104 42.8337 87.2851 42.7052 87.2557 42.5739C87.2263 42.4426 87.1039 42.3583 86.9823 42.3855C86.8608 42.4128 86.7861 42.5413 86.8155 42.6725C86.8449 42.8038 86.9673 42.8881 87.0889 42.8609Z" fill="#FEFAD1" />
				<path id="Vector_2" d="M85.7692 37.8792C85.9975 37.828 86.1378 37.5867 86.0826 37.3401C86.0273 37.0936 85.7975 36.9352 85.5692 36.9864C85.3408 37.0375 85.2005 37.2789 85.2558 37.5254C85.311 37.7719 85.5409 37.9303 85.7692 37.8792Z" fill="#FEFAD1" />
				<path id="Vector_3" d="M87.0542 39.5035C87.2232 39.4656 87.3271 39.287 87.2862 39.1045C87.2453 38.922 87.0751 38.8047 86.9061 38.8426C86.7371 38.8805 86.6332 39.0591 86.6741 39.2416C86.715 39.4241 86.8852 39.5413 87.0542 39.5035Z" fill="#FEFAD1" />
				<path id="Vector_4" d="M83.2272 37.6347C83.3148 37.615 83.3686 37.5224 83.3474 37.4278C83.3262 37.3331 83.238 37.2724 83.1504 37.292C83.0627 37.3116 83.0089 37.4043 83.0301 37.4989C83.0513 37.5935 83.1395 37.6543 83.2272 37.6347Z" fill="#FEFAD1" />
				<path id="Vector_5" d="M82.9841 34.0652C83.0569 34.0489 83.1016 33.9719 83.084 33.8933C83.0664 33.8147 82.9931 33.7643 82.9203 33.7806C82.8476 33.7969 82.8028 33.8738 82.8205 33.9524C82.8381 34.031 82.9113 34.0815 82.9841 34.0652Z" fill="#FEFAD1" />
				<path id="Vector_6" d="M91.0158 33.7706C91.2653 33.7147 91.4187 33.4509 91.3583 33.1815C91.2979 32.912 91.0467 32.7389 90.7971 32.7948C90.5475 32.8507 90.3942 33.1145 90.4545 33.384C90.5149 33.6534 90.7662 33.8266 91.0158 33.7706Z" fill="#FEFAD1" />
				<path id="Vector_7" d="M90.386 35.5209C90.5066 35.4939 90.5807 35.3664 90.5515 35.2362C90.5223 35.106 90.4009 35.0224 90.2803 35.0494C90.1598 35.0764 90.0857 35.2039 90.1148 35.3341C90.144 35.4643 90.2654 35.5479 90.386 35.5209Z" fill="#FEFAD1" />
				<path id="Vector_8" d="M91.306 32.2404C91.3892 32.2218 91.4403 32.1338 91.4202 32.044C91.4001 31.9542 91.3163 31.8965 91.2331 31.9151C91.1499 31.9338 91.0988 32.0217 91.119 32.1115C91.1391 32.2013 91.2228 32.259 91.306 32.2404Z" fill="#FEFAD1" />
				<path id="Vector_9" d="M91.761 41.471C92.093 41.3966 92.2971 41.0456 92.2168 40.687C92.1364 40.3284 91.8021 40.098 91.47 40.1724C91.1379 40.2468 90.9338 40.5979 91.0141 40.9565C91.0945 41.3151 91.4289 41.5454 91.761 41.471Z" fill="#FEFAD1" />
				<path id="Vector_10" d="M96.4604 54.7098C96.6665 54.6636 96.7932 54.4458 96.7433 54.2233C96.6934 54.0007 96.486 53.8578 96.2799 53.904C96.0738 53.9501 95.9472 54.168 95.997 54.3905C96.0469 54.613 96.2544 54.756 96.4604 54.7098Z" fill="#FEFAD1" />
				<path id="Vector_11" d="M96.8953 50.7987C96.9859 50.7784 97.0416 50.6826 97.0196 50.5847C96.9977 50.4869 96.9065 50.4241 96.8159 50.4444C96.7253 50.4647 96.6696 50.5604 96.6916 50.6583C96.7135 50.7561 96.8047 50.819 96.8953 50.7987Z" fill="#FEFAD1" />
				<path id="Vector_12" d="M91.5671 51.5703C91.7969 51.5188 91.9382 51.2759 91.8826 51.0277C91.827 50.7796 91.5956 50.6202 91.3658 50.6717C91.136 50.7232 90.9948 50.9661 91.0504 51.2142C91.106 51.4624 91.3373 51.6218 91.5671 51.5703Z" fill="#FEFAD1" />
				<path id="Vector_13" d="M95.6531 58.1984C95.9091 58.1411 96.0665 57.8705 96.0045 57.5941C95.9426 57.3177 95.6848 57.1401 95.4289 57.1974C95.1729 57.2548 95.0155 57.5254 95.0775 57.8018C95.1394 58.0782 95.3972 58.2558 95.6531 58.1984Z" fill="#FEFAD1" />
				<path id="Vector_14" d="M90.1421 50.0869C90.2337 50.0664 90.29 49.9696 90.2678 49.8707C90.2457 49.7718 90.1534 49.7082 90.0618 49.7287C89.9702 49.7493 89.914 49.8461 89.9361 49.945C89.9583 50.0439 90.0505 50.1074 90.1421 50.0869Z" fill="#FEFAD1" />
				<path id="Vector_15" d="M99.9638 13.6003C100.291 13.5269 100.493 13.1806 100.414 12.8268C100.334 12.473 100.004 12.2457 99.6768 12.3191C99.3491 12.3925 99.1478 12.7389 99.227 13.0927C99.3063 13.4464 99.6362 13.6737 99.9638 13.6003Z" fill="#FEFAD1" />
				<path id="Vector_16" d="M111.349 23.4216C111.533 23.3802 111.647 23.1848 111.602 22.9852C111.558 22.7856 111.372 22.6574 111.187 22.6988C111.002 22.7403 110.888 22.9356 110.933 23.1352C110.978 23.3348 111.164 23.463 111.349 23.4216Z" fill="#FEFAD1" />
				<path id="Vector_17" d="M110.396 19.9759C110.492 19.9545 110.55 19.8537 110.527 19.7507C110.504 19.6477 110.408 19.5816 110.313 19.6029C110.217 19.6243 110.159 19.7251 110.182 19.8281C110.205 19.9311 110.301 19.9973 110.396 19.9759Z" fill="#FEFAD1" />
				<path id="Vector_18" d="M107.059 16.6399C107.171 16.6148 107.24 16.4968 107.213 16.3762C107.186 16.2556 107.073 16.1781 106.961 16.2031C106.85 16.2282 106.781 16.3462 106.808 16.4668C106.835 16.5874 106.948 16.6649 107.059 16.6399Z" fill="#FEFAD1" />
				<path id="Vector_19" d="M108.389 22.3923C108.521 22.3626 108.602 22.2226 108.57 22.0796C108.538 21.9366 108.405 21.8447 108.273 21.8744C108.14 21.9041 108.059 22.0441 108.091 22.1871C108.123 22.3301 108.256 22.422 108.389 22.3923Z" fill="#FEFAD1" />
				<path id="Vector_20" d="M108.41 27.3356C108.533 27.308 108.609 27.1779 108.579 27.0451C108.549 26.9122 108.425 26.8268 108.302 26.8544C108.179 26.882 108.104 27.012 108.133 27.1449C108.163 27.2778 108.287 27.3632 108.41 27.3356Z" fill="#FEFAD1" />
				<path id="Vector_21" d="M86.1187 19.6867C86.1885 19.6711 86.2314 19.5973 86.2145 19.5219C86.1976 19.4465 86.1274 19.3981 86.0576 19.4137C85.9877 19.4294 85.9448 19.5032 85.9617 19.5785C85.9786 19.6539 86.0489 19.7023 86.1187 19.6867Z" fill="#FEFAD1" />
				<path id="Vector_22" d="M88.968 25.6074C89.1697 25.5622 89.2936 25.3491 89.2448 25.1314C89.196 24.9137 88.993 24.7738 88.7914 24.819C88.5897 24.8642 88.4658 25.0773 88.5146 25.295C88.5634 25.5127 88.7664 25.6526 88.968 25.6074Z" fill="#FEFAD1" />
				<path id="Vector_23" d="M87.1778 28.834C87.3626 28.7926 87.4762 28.5973 87.4314 28.3977C87.3867 28.1981 87.2006 28.0699 87.0158 28.1113C86.831 28.1527 86.7174 28.3481 86.7621 28.5477C86.8068 28.7472 86.9929 28.8755 87.1778 28.834Z" fill="#FEFAD1" />
				<path id="Vector_24" d="M85.4776 26.5663C85.5493 26.5502 85.5935 26.4743 85.5761 26.3968C85.5587 26.3193 85.4864 26.2695 85.4147 26.2856C85.3429 26.3017 85.2987 26.3776 85.3161 26.4551C85.3335 26.5326 85.4058 26.5824 85.4776 26.5663Z" fill="#FEFAD1" />
				<path id="Vector_25" d="M83.0454 28.6644C83.1898 28.6321 83.2784 28.4796 83.2435 28.3238C83.2086 28.1679 83.0633 28.0678 82.919 28.1002C82.7747 28.1325 82.686 28.285 82.7209 28.4409C82.7558 28.5967 82.9011 28.6968 83.0454 28.6644Z" fill="#FEFAD1" />
				<path id="Vector_26" d="M85.9398 32.2755C86.2062 32.2158 86.3699 31.9342 86.3054 31.6466C86.241 31.359 85.9728 31.1742 85.7064 31.2339C85.4401 31.2936 85.2764 31.5751 85.3408 31.8627C85.4053 32.1504 85.6734 32.3351 85.9398 32.2755Z" fill="#FEFAD1" />
				<path id="Vector_27" d="M98.9389 16.3294C99.0625 16.3017 99.1384 16.1711 99.1085 16.0377C99.0786 15.9043 98.9542 15.8186 98.8307 15.8463C98.7071 15.8739 98.6312 16.0045 98.6611 16.1379C98.691 16.2714 98.8153 16.3571 98.9389 16.3294Z" fill="#FEFAD1" />
				<path id="Vector_28" d="M89.232 15.0845C89.4342 15.0392 89.5584 14.8256 89.5095 14.6073C89.4606 14.389 89.2571 14.2488 89.0549 14.2941C88.8528 14.3394 88.7286 14.5531 88.7775 14.7713C88.8264 14.9896 89.0299 15.1298 89.232 15.0845Z" fill="#FEFAD1" />
				<path id="Vector_29" d="M98.8257 9.7936C98.9754 9.76005 99.0674 9.60177 99.0312 9.44008C98.995 9.27839 98.8442 9.17452 98.6945 9.20807C98.5447 9.24163 98.4527 9.3999 98.4889 9.56159C98.5252 9.72328 98.6759 9.82715 98.8257 9.7936Z" fill="#FEFAD1" />
				<path id="Vector_30" d="M94.7223 18.8031C94.9753 18.7465 95.1308 18.479 95.0696 18.2058C95.0084 17.9326 94.7536 17.7571 94.5006 17.8138C94.2476 17.8705 94.0921 18.1379 94.1533 18.4111C94.2146 18.6843 94.4693 18.8598 94.7223 18.8031Z" fill="#FEFAD1" />
				<path id="Vector_31" d="M100.411 24.7826C100.621 24.7354 100.751 24.5129 100.7 24.2856C100.649 24.0583 100.437 23.9122 100.226 23.9594C100.016 24.0066 99.8865 24.2291 99.9374 24.4564C99.9884 24.6838 100.2 24.8298 100.411 24.7826Z" fill="#FEFAD1" />
				<path id="Vector_32" d="M102.647 24.9223C102.725 24.905 102.772 24.8234 102.753 24.74C102.735 24.6566 102.657 24.603 102.58 24.6203C102.503 24.6376 102.455 24.7193 102.474 24.8027C102.492 24.8861 102.57 24.9396 102.647 24.9223Z" fill="#FEFAD1" />
				<path id="Vector_33" d="M94.5637 26.5788C94.6828 26.5521 94.756 26.4262 94.7272 26.2976C94.6983 26.169 94.5784 26.0864 94.4593 26.1131C94.3402 26.1398 94.267 26.2657 94.2958 26.3943C94.3246 26.5229 94.4446 26.6055 94.5637 26.5788Z" fill="#FEFAD1" />
				<path id="Vector_34" d="M92.9179 23.4413C93.0519 23.4113 93.1342 23.2697 93.1018 23.1251C93.0694 22.9805 92.9345 22.8876 92.8006 22.9176C92.6667 22.9476 92.5844 23.0892 92.6168 23.2338C92.6492 23.3784 92.784 23.4713 92.9179 23.4413Z" fill="#FEFAD1" />
				<path id="Vector_35" d="M99.7311 18.0533C99.8203 18.0334 99.875 17.9392 99.8535 17.8429C99.8319 17.7467 99.7422 17.6849 99.653 17.7048C99.5639 17.7248 99.5092 17.819 99.5307 17.9152C99.5523 18.0115 99.642 18.0733 99.7311 18.0533Z" fill="#FEFAD1" />
				<path id="Vector_36" d="M97.8059 15.1178C97.9141 15.0936 97.9807 14.9792 97.9545 14.8623C97.9283 14.7455 97.8193 14.6704 97.7111 14.6946C97.6029 14.7189 97.5364 14.8333 97.5626 14.9502C97.5887 15.067 97.6977 15.1421 97.8059 15.1178Z" fill="#FEFAD1" />
				<path id="Vector_37" d="M82.3646 41.7881C82.462 41.7663 82.5218 41.6634 82.4982 41.5583C82.4747 41.4532 82.3767 41.3856 82.2793 41.4074C82.182 41.4292 82.1221 41.5322 82.1457 41.6373C82.1692 41.7424 82.2673 41.8099 82.3646 41.7881Z" fill="#FEFAD1" />
				<path id="Vector_38" d="M90.1482 18.9328C90.3039 18.8979 90.3996 18.7334 90.3619 18.5653C90.3243 18.3972 90.1675 18.2892 90.0118 18.3241C89.8562 18.359 89.7605 18.5235 89.7982 18.6916C89.8358 18.8597 89.9926 18.9677 90.1482 18.9328Z" fill="#FEFAD1" />
				<path id="Vector_39" d="M83.6529 42.3867C83.8659 42.339 83.9968 42.1139 83.9452 41.8839C83.8937 41.6539 83.6792 41.5061 83.4662 41.5539C83.2532 41.6016 83.1223 41.8267 83.1739 42.0567C83.2254 42.2867 83.4399 42.4345 83.6529 42.3867Z" fill="#FEFAD1" />
			</g>
			<g id="Group 1115">
				<path id="Vector 235" d="M81.9317 18.8708C80.7849 19.5006 75.4918 24.2176 69.8989 18.2045" stroke="#CF0A80" stroke-width="1.07481" stroke-linecap="round" />
				<path id="Vector 238" d="M82.038 7.58438C77.6233 10.455 79.7283 16.5364 81.3327 19.2182C79.2713 21.088 80.969 26.1006 84.4359 25.0717C87.9027 24.0428 93.6992 20.9452 95.3672 19.1713C97.0352 17.3974 96.9767 15.6195 96.0341 14.2156C95.28 13.0924 93.4502 12.8951 92.6296 12.9369C92.1597 11.6594 87.5565 3.99612 82.038 7.58438Z" fill="url(#paint1_linear_640_29103)" />
				<ellipse id="Ellipse 75" cx="84.1237" cy="20.1177" rx="0.744443" ry="0.801708" transform="rotate(-32.9344 84.1237 20.1177)" fill="#3B314F" />
				<ellipse id="Ellipse 78" cx="89.4616" cy="18.2171" rx="0.744443" ry="0.801708" transform="rotate(-32.9344 89.4616 18.2171)" fill="#3B314F" />
				<path id="Vector 241" d="M84.3402 24.6748C82.9474 25.7314 81.5352 27.768 82.026 29.849C82.4187 31.5137 85.5251 32.0965 87.0292 32.1798L85.9104 35.4536" stroke="#CF0A80" stroke-width="1.07481" stroke-linecap="round" />
				<path id="Vector 242" d="M90.688 21.9247C89.6427 23.0049 88.2042 26.54 89.1844 28.9184C89.9686 30.8211 92.5741 30.8314 93.7788 30.5987L93.6443 34.5244" stroke="#CF0A80" stroke-width="1.07481" stroke-linecap="round" />
				<path id="Vector 243" d="M91.7855 13.1363C94.706 11.8154 98.2354 10.8379 95.8216 2.61566" stroke="#CF0A80" stroke-width="1.07481" stroke-linecap="round" />
			</g>
			<g id="Group 1117">
				<path id="Vector 230" d="M108.998 59.9907C109.513 61.4224 111.918 65.3736 110.887 72.4172L107.738 73.6198" stroke="#CF0A80" stroke-width="1.07481" stroke-linecap="round" />
				<path id="Vector 231" d="M114.895 61.4778C115.353 62.4513 117.243 66.4598 117.644 72.8735L120.793 73.6752" stroke="#CF0A80" stroke-width="1.07481" stroke-linecap="round" />
				<path id="Vector 232" d="M106.248 57.4143C105.981 58.8268 105.607 62.7399 106.248 67.092" stroke="#CF0A80" stroke-width="1.07481" stroke-linecap="round" />
				<path id="Vector 239" d="M115.984 47.0498C110.601 45.6182 107.909 52.2609 107.852 53.578C103.843 53.578 104.14 57.1429 104.989 58.3309C105.561 59.1327 106.993 60.507 110.2 61.595C113.407 62.6831 116.9 63.1412 117.873 63.0267C118.847 62.9121 120.107 63.0267 121.023 60.8506C121.756 59.1097 120.488 57.7201 119.878 57.2429C120.565 54.0361 121.366 48.4814 115.984 47.0498Z" fill="url(#paint2_linear_640_29103)" />
				<ellipse id="Ellipse 76" cx="110.06" cy="54.2161" rx="0.744443" ry="0.801708" transform="rotate(23.8851 110.06 54.2161)" fill="#3B314F" />
				<ellipse id="Ellipse 77" cx="115.099" cy="55.7024" rx="0.744443" ry="0.801708" transform="rotate(23.8851 115.099 55.7024)" fill="#3B314F" />
				<path id="Vector 244" d="M119.763 58.1578C120.527 60.0857 121.905 64.8692 121.309 68.58" stroke="#CF0A80" stroke-width="1.07481" stroke-linecap="round" />
			</g>
			<g id="Group 1112">
				<g id="Group 1103">
					<path id="Vector 192" d="M58.0677 76.3215C61.532 76.7437 61.9251 67.4737 61.7525 66.2695C59.7727 64.5867 57.5299 65.4785 56.6027 66.5606C57.3831 71.1531 54.6035 75.8992 58.0677 76.3215Z" fill="#DE493C" />
				</g>
				<path id="Vector 192_2" d="M70.3417 47.8851C72.7471 50.3364 64.5675 56.16 63.4822 56.6652C60.6836 55.5457 63.354 51.7044 63.7474 50.3584C67.9524 48.5324 68.6316 46.1424 70.3417 47.8851Z" fill="url(#paint3_linear_640_29103)" />
				<path id="Vector 197" d="M63.2163 38.1822C58.4733 30.6432 51.6842 30.643 47.3158 34.4232C43.1765 38.815 46.1523 43.8686 46.1523 48.1417C46.1523 52.2485 45.7045 54.0403 45.1002 58.8275C44.4748 63.7822 46.5009 71.0815 54.8109 70.4294C63.1208 69.7773 64.8252 59.4036 65.2296 56.1669C65.634 52.9302 67.1358 44.4122 63.2163 38.1822Z" fill="url(#paint4_linear_640_29103)" />
				<g id="Group 1105">
					<path id="Vector 204" d="M59.2237 46.1816C61.3642 45.6327 62.7389 44.1467 63.2044 43.1694C62.6221 41.936 61.0514 39.219 59.427 38.219C57.3965 36.9689 54.6987 38.3704 53.5495 40.5213C52.6302 42.242 52.4009 44.128 52.1021 45.4696C53.4232 46.1662 56.319 46.9266 59.2237 46.1816Z" fill="#FEF9F5" />
					<g id="Mask group">
						<mask id="mask0_640_29103" style="mask-type:alpha" maskUnits="userSpaceOnUse" x="54" y="37" width="8" height="8">
							<path id="Ellipse 62" d="M61.5658 40.8302C61.7742 42.9396 60.4719 44.795 58.6568 44.9743C56.8418 45.1537 54.6804 43.7131 54.472 41.6037C54.2635 39.4944 56.0869 37.515 57.9019 37.3357C59.7169 37.1563 61.3573 38.7208 61.5658 40.8302Z" fill="black" />
						</mask>
						<g mask="url(#mask0_640_29103)">
							<path id="Vector 205" d="M59.3235 47.0534C61.3908 46.2727 62.8387 44.1229 63.3042 43.1456C62.7219 41.9121 61.1512 39.1951 59.5268 38.1951C57.4963 36.9451 54.7985 38.3466 53.6493 40.4975C52.73 42.2182 52.1362 44.7676 51.7541 45.8935C53.0753 46.5902 56.7394 48.0292 59.3235 47.0534Z" fill="black" />
						</g>
					</g>
				</g>
				<g id="Group 1080">
					<path id="Vector 192_3" d="M62.0874 47.9927C64.2981 50.6211 57.7012 55.3808 56.6159 55.886C52.9825 56.0342 52.8609 53.3793 53.2543 52.0333C57.4593 50.2073 59.8768 45.3643 62.0874 47.9927Z" fill="url(#paint5_linear_640_29103)" />
				</g>
				<g id="Group 1104">
					<path id="Vector 192_4" d="M51.1273 76.3214C54.5916 76.7437 54.9847 67.4737 54.812 66.2695C52.8323 64.5867 50.5894 65.4785 49.6623 66.5606C50.4427 71.1531 47.663 75.8992 51.1273 76.3214Z" fill="url(#paint6_linear_640_29103)" />
				</g>
				<path id="Vector 229" d="M62.0275 50.9563C58.2214 55.546 56.4303 56.0311 55.8706 56.3296C56.2811 56.3669 57.5956 56.1125 58.7812 55.3221C59.7887 54.6504 61.8037 52.4116 62.0275 50.9563Z" fill="#DB422A" />
			</g>
			<g id="Group 1113">
				<path id="Vector 233_2" d="M55.647 24.3001C57.2142 24.0762 60.9979 22.3298 63.595 17.1356" stroke="#CF0A80" stroke-width="1.07481" stroke-linecap="round" />
				<path id="Vector 231_2" d="M56.3262 29.4511C57.812 29.2236 61.5275 30.0959 62.9001 32.2716C63.9982 34.0121 62.499 36.1431 61.6121 36.991L64.8916 39.1528" stroke="#CF0A80" stroke-width="1.07481" stroke-linecap="round" />
				<g id="Group 1106">
					<path id="Vector 230_2" d="M48.9295 17.3366C54.3124 15.9049 57.0039 22.5477 57.0611 23.8648C61.0697 23.8648 60.773 27.4297 59.9244 28.6177C59.3517 29.4194 57.9201 30.7938 54.7133 31.8818C51.5064 32.9699 48.0133 33.428 47.0398 33.3135C46.0663 33.1989 44.8065 33.3135 43.8902 31.1374C43.1572 29.3965 44.4247 28.0069 45.0355 27.5297C44.3483 24.3229 43.5466 18.7682 48.9295 17.3366Z" fill="url(#paint7_linear_640_29103)" />
					<ellipse id="Ellipse 75_2" cx="0.744443" cy="0.801708" rx="0.744443" ry="0.801708" transform="matrix(-0.914359 0.404904 0.404904 0.914359 55.2085 23.4676)" fill="#3B314F" />
					<ellipse id="Ellipse 76_2" cx="0.744443" cy="0.801708" rx="0.744443" ry="0.801708" transform="matrix(-0.914359 0.404904 0.404904 0.914359 50.1694 24.9546)" fill="#3B314F" />
				</g>
				<path id="Vector 230_3" d="M49.397 32.1713C50.7143 31.0219 52.9951 30.0524 54.9331 30.9554C56.4836 31.6777 56.4238 34.8377 56.2001 36.3274L59.6328 35.8963" stroke="#CF0A80" stroke-width="1.07481" stroke-linecap="round" />
				<path id="Vector 232_2" d="M46.4674 28.116C45.5719 29.4966 44.5868 33.5117 47.8108 38.5268" stroke="#CF0A80" stroke-width="1.07481" stroke-linecap="round" />
			</g>
		</g>
	</g>
	<defs>
		<filter id="filter0_f_640_29103" x="67.7093" y="-4.73798" width="64.0809" height="86.1527" filterUnits="userSpaceOnUse" color-interpolation-filters="sRGB">
			<feFlood flood-opacity="0" result="BackgroundImageFix" />
			<feBlend mode="normal" in="SourceGraphic" in2="BackgroundImageFix" result="shape" />
			<feGaussianBlur stdDeviation="5.27353" result="effect1_foregroundBlur_640_29103" />
		</filter>
		<linearGradient id="paint0_linear_640_29103" x1="79.4242" y1="49.0961" x2="79.4242" y2="65.3621" gradientUnits="userSpaceOnUse">
			<stop stop-color="#F783F2" />
			<stop offset="1" stop-color="#E040DA" />
		</linearGradient>
		<linearGradient id="paint1_linear_640_29103" x1="87.2408" y1="6.39604" x2="89.0266" y2="24.6865" gradientUnits="userSpaceOnUse">
			<stop stop-color="#F783F2" />
			<stop offset="1" stop-color="#E040DA" />
		</linearGradient>
		<linearGradient id="paint2_linear_640_29103" x1="112.853" y1="46.8488" x2="112.853" y2="63.0438" gradientUnits="userSpaceOnUse">
			<stop stop-color="#F783F2" />
			<stop offset="1" stop-color="#E040DA" />
		</linearGradient>
		<linearGradient id="paint3_linear_640_29103" x1="70.9364" y1="49.091" x2="61.8673" y2="55.0097" gradientUnits="userSpaceOnUse">
			<stop stop-color="#E04D40" />
			<stop offset="1" stop-color="#F15F56" />
		</linearGradient>
		<linearGradient id="paint4_linear_640_29103" x1="53.0345" y1="31.1506" x2="52.8759" y2="72.3823" gradientUnits="userSpaceOnUse">
			<stop stop-color="#F46A6A" />
			<stop offset="1" stop-color="#EA5749" />
		</linearGradient>
		<linearGradient id="paint5_linear_640_29103" x1="62.6822" y1="49.1988" x2="53.6131" y2="55.1175" gradientUnits="userSpaceOnUse">
			<stop stop-color="#FF6F66" />
			<stop offset="1" stop-color="#EF6058" />
		</linearGradient>
		<linearGradient id="paint6_linear_640_29103" x1="52.4839" y1="76.1581" x2="52.4863" y2="65.1537" gradientUnits="userSpaceOnUse">
			<stop stop-color="#DA4639" />
			<stop offset="1" stop-color="#EC5B4F" />
		</linearGradient>
		<linearGradient id="paint7_linear_640_29103" x1="52.06" y1="17.1356" x2="52.06" y2="33.3306" gradientUnits="userSpaceOnUse">
			<stop stop-color="#F783F2" />
			<stop offset="1" stop-color="#E040DA" />
		</linearGradient>
		<clipPath id="clip0_640_29103">
			<rect width="163" height="76.3494" fill="white" transform="translate(0.963379 0.0872803)" />
		</clipPath>
	</defs>
</svg>
