<svg width="286" height="167" viewBox="0 0 286 167" fill="none" xmlns="http://www.w3.org/2000/svg">
<g clip-path="url(#clip0_1911_1339)">
<path d="M134.231 140.134C134.823 144.19 135.651 154.179 134.231 161.683H141.203" stroke="#CF0A80" stroke-width="2.37909" stroke-linecap="round"/>
<path d="M144.751 138.627C146.483 142.515 150.075 151.683 150.582 157.261H158.948" stroke="#CF0A80" stroke-width="2.37909" stroke-linecap="round"/>
<path d="M149.694 125.198C153.877 123.762 162.522 118.227 163.638 107.579" stroke="#CF0A80" stroke-width="2.37909" stroke-linecap="round"/>
<path d="M133.851 106.415C145.892 103.88 150.963 120.992 150.963 126.062C152.61 126.062 155.779 128.217 156.286 130.626C156.793 133.034 155.399 136.39 152.23 137.724C150.766 138.34 145.005 140.259 140.315 141.273C135.625 142.287 129.668 142.16 126.372 142.16C123.076 142.16 119.654 140.006 119.527 136.203C119.426 133.161 122.189 131.048 123.583 130.372C121.302 120.485 121.809 108.95 133.851 106.415Z" fill="url(#paint0_linear_1911_1339)"/>
<ellipse cx="145.842" cy="124.074" rx="1.64783" ry="1.77459" transform="rotate(-17.4862 145.842 124.074)" fill="#3B314F"/>
<ellipse cx="136.969" cy="126.373" rx="1.64783" ry="1.77459" transform="rotate(-17.4862 136.969 126.373)" fill="#3B314F"/>
<path d="M125.357 129.246C126.921 135.33 129.109 148.918 125.357 154.597" stroke="#CF0A80" stroke-width="2.37909" stroke-linecap="round"/>
<g opacity="0.2" filter="url(#filter0_f_1911_1339)">
<path d="M178.199 152.749L138.628 123.282C136.579 121.756 135.372 119.351 135.372 116.797L135.371 49.2822C135.371 46.7821 136.528 44.4227 138.504 42.8912L178.317 12.037C181.186 9.81309 185.187 9.77458 188.098 11.9428L227.266 41.1072C229.315 42.633 230.522 45.0375 230.522 47.5923V115.152C230.522 117.626 229.389 119.964 227.447 121.498L188.038 152.611C185.167 154.877 181.133 154.934 178.199 152.749Z" fill="#F9E05C"/>
</g>
<path d="M184.501 152.823L130.795 84.0192L184.257 65.4251L184.501 152.823Z" fill="#FFDAA4"/>
<path d="M184.501 10.9517L238.208 84.0118L184.258 65.4166L184.501 10.9517Z" fill="#FFA827"/>
<path d="M184.502 152.811L184.258 65.4144L238.208 84.0085L184.502 152.811Z" fill="#FFBC57"/>
<path d="M184.502 10.9565L184.258 65.4202L130.796 84.0156L184.502 10.9565Z" fill="#FFBC57"/>
<path d="M115.769 91.2361C115.983 91.1765 116.114 90.8954 116.062 90.6083C116.011 90.3212 115.796 90.1367 115.583 90.1963C115.369 90.2559 115.238 90.537 115.29 90.8241C115.341 91.1112 115.556 91.2957 115.769 91.2361Z" fill="#FEFAD1"/>
<path d="M113.454 80.3386C113.855 80.2266 114.101 79.6988 114.004 79.1595C113.907 78.6203 113.504 78.2739 113.103 78.3858C112.703 78.4977 112.457 79.0255 112.553 79.5648C112.65 80.104 113.054 80.4505 113.454 80.3386Z" fill="#FEFAD1"/>
<path d="M115.708 83.8918C116.004 83.8089 116.187 83.4182 116.115 83.019C116.043 82.6198 115.745 82.3634 115.448 82.4462C115.152 82.529 114.969 82.9198 115.041 83.319C115.113 83.7182 115.411 83.9746 115.708 83.8918Z" fill="#FEFAD1"/>
<path d="M108.993 79.8038C109.147 79.761 109.241 79.5587 109.204 79.3521C109.167 79.1455 109.012 79.0128 108.859 79.0557C108.705 79.0985 108.611 79.3008 108.648 79.5074C108.685 79.714 108.84 79.8467 108.993 79.8038Z" fill="#FEFAD1"/>
<path d="M108.567 71.9963C108.695 71.9607 108.773 71.7928 108.742 71.6212C108.711 71.4496 108.583 71.3394 108.455 71.375C108.328 71.4106 108.25 71.5785 108.28 71.7501C108.311 71.9217 108.44 72.0319 108.567 71.9963Z" fill="#FEFAD1"/>
<path d="M122.659 71.3535C123.097 71.2312 123.366 70.6542 123.26 70.0647C123.154 69.4753 122.713 69.0966 122.275 69.219C121.837 69.3413 121.568 69.9183 121.674 70.5077C121.78 71.0971 122.221 71.4758 122.659 71.3535Z" fill="#FEFAD1"/>
<path d="M121.554 75.1817C121.765 75.1226 121.895 74.8438 121.844 74.559C121.793 74.2742 121.58 74.0912 121.368 74.1503C121.157 74.2094 121.027 74.4882 121.078 74.773C121.129 75.0578 121.342 75.2408 121.554 75.1817Z" fill="#FEFAD1"/>
<path d="M123.168 68.0046C123.313 67.9639 123.403 67.772 123.368 67.5759C123.332 67.3798 123.186 67.2538 123.04 67.2945C122.894 67.3352 122.805 67.5271 122.84 67.7232C122.875 67.9193 123.022 68.0453 123.168 68.0046Z" fill="#FEFAD1"/>
<path d="M123.967 88.1961C124.55 88.0333 124.908 87.2655 124.767 86.4812C124.626 85.6968 124.039 85.1929 123.456 85.3557C122.874 85.5184 122.516 86.2862 122.657 87.0706C122.798 87.855 123.384 88.3589 123.967 88.1961Z" fill="#FEFAD1"/>
<path d="M132.213 117.153C132.574 117.052 132.797 116.576 132.709 116.089C132.622 115.603 132.258 115.29 131.896 115.391C131.534 115.492 131.312 115.968 131.4 116.455C131.487 116.942 131.851 117.254 132.213 117.153Z" fill="#FEFAD1"/>
<path d="M132.976 108.597C133.135 108.553 133.232 108.344 133.194 108.13C133.156 107.916 132.996 107.779 132.837 107.824C132.678 107.868 132.581 108.077 132.619 108.291C132.658 108.504 132.817 108.641 132.976 108.597Z" fill="#FEFAD1"/>
<path d="M123.627 110.286C124.031 110.173 124.278 109.642 124.181 109.099C124.083 108.557 123.677 108.208 123.274 108.32C122.871 108.433 122.623 108.964 122.721 109.507C122.818 110.05 123.224 110.399 123.627 110.286Z" fill="#FEFAD1"/>
<path d="M130.796 124.784C131.245 124.659 131.521 124.067 131.412 123.462C131.304 122.858 130.851 122.469 130.402 122.595C129.953 122.72 129.677 123.312 129.786 123.917C129.894 124.521 130.347 124.91 130.796 124.784Z" fill="#FEFAD1"/>
<path d="M121.126 107.041C121.287 106.996 121.385 106.784 121.347 106.569C121.308 106.353 121.146 106.214 120.986 106.259C120.825 106.304 120.727 106.515 120.766 106.731C120.804 106.947 120.966 107.085 121.126 107.041Z" fill="#FEFAD1"/>
<path d="M138.36 27.2343C138.935 27.0737 139.288 26.3162 139.149 25.5423C139.01 24.7685 138.431 24.2713 137.856 24.4319C137.281 24.5925 136.928 25.35 137.067 26.1238C137.206 26.8977 137.785 27.3949 138.36 27.2343Z" fill="#FEFAD1"/>
<path d="M158.336 48.7161C158.661 48.6255 158.86 48.1982 158.781 47.7617C158.703 47.3251 158.376 47.0447 158.052 47.1353C157.728 47.2259 157.528 47.6532 157.607 48.0897C157.685 48.5263 158.012 48.8067 158.336 48.7161Z" fill="#FEFAD1"/>
<path d="M156.664 41.1784C156.832 41.1316 156.935 40.9111 156.894 40.6859C156.854 40.4606 156.685 40.3159 156.518 40.3626C156.35 40.4094 156.248 40.6299 156.288 40.8552C156.329 41.0804 156.497 41.2251 156.664 41.1784Z" fill="#FEFAD1"/>
<path d="M150.81 33.8825C151.006 33.8278 151.126 33.5696 151.079 33.3058C151.031 33.042 150.834 32.8725 150.638 32.9273C150.442 32.982 150.322 33.2402 150.369 33.504C150.416 33.7678 150.614 33.9373 150.81 33.8825Z" fill="#FEFAD1"/>
<path d="M153.142 46.465C153.374 46.4001 153.517 46.0939 153.461 45.781C153.405 45.4682 153.171 45.2673 152.938 45.3322C152.706 45.3971 152.563 45.7033 152.619 46.0161C152.676 46.3289 152.91 46.5299 153.142 46.465Z" fill="#FEFAD1"/>
<path d="M153.18 57.2773C153.396 57.217 153.528 56.9325 153.476 56.6418C153.424 56.3512 153.206 56.1645 152.991 56.2248C152.775 56.2851 152.642 56.5696 152.694 56.8602C152.746 57.1509 152.964 57.3376 153.18 57.2773Z" fill="#FEFAD1"/>
<path d="M114.066 40.5473C114.188 40.5132 114.263 40.3521 114.234 40.1875C114.204 40.0229 114.081 39.9172 113.959 39.9513C113.836 39.9855 113.761 40.1466 113.791 40.3112C113.82 40.4758 113.944 40.5815 114.066 40.5473Z" fill="#FEFAD1"/>
<path d="M119.067 53.4987C119.421 53.3999 119.638 52.9337 119.552 52.4575C119.467 51.9813 119.111 51.6754 118.757 51.7742C118.403 51.873 118.186 52.3392 118.271 52.8154C118.357 53.2916 118.713 53.5975 119.067 53.4987Z" fill="#FEFAD1"/>
<path d="M115.925 60.556C116.249 60.4654 116.449 60.0381 116.37 59.6015C116.292 59.165 115.965 58.8846 115.641 58.9751C115.317 59.0657 115.117 59.493 115.196 59.9296C115.274 60.3661 115.601 60.6466 115.925 60.556Z" fill="#FEFAD1"/>
<path d="M112.941 55.5937C113.067 55.5586 113.144 55.3929 113.114 55.2237C113.083 55.0544 112.957 54.9457 112.831 54.9808C112.705 55.016 112.628 55.1816 112.659 55.3509C112.689 55.5201 112.816 55.6288 112.941 55.5937Z" fill="#FEFAD1"/>
<path d="M108.675 60.1843C108.929 60.1136 109.084 59.7799 109.023 59.4391C108.962 59.0983 108.707 58.8793 108.454 58.9501C108.2 59.0208 108.045 59.3544 108.106 59.6952C108.167 60.0361 108.422 60.255 108.675 60.1843Z" fill="#FEFAD1"/>
<path d="M113.753 68.0824C114.22 67.9518 114.507 67.336 114.394 66.7069C114.281 66.0778 113.811 65.6736 113.343 65.8041C112.876 65.9347 112.589 66.5505 112.702 67.1797C112.815 67.8088 113.285 68.2129 113.753 68.0824Z" fill="#FEFAD1"/>
<path d="M136.562 33.2029C136.779 33.1424 136.912 32.8567 136.86 32.5649C136.807 32.2731 136.589 32.0857 136.372 32.1462C136.155 32.2068 136.022 32.4924 136.074 32.7842C136.127 33.076 136.345 33.2635 136.562 33.2029Z" fill="#FEFAD1"/>
<path d="M119.53 30.4801C119.885 30.381 120.103 29.9137 120.017 29.4363C119.931 28.9589 119.574 28.6522 119.219 28.7513C118.865 28.8504 118.647 29.3177 118.733 29.795C118.818 30.2724 119.175 30.5791 119.53 30.4801Z" fill="#FEFAD1"/>
<path d="M136.363 18.9076C136.626 18.8342 136.787 18.488 136.724 18.1343C136.66 17.7807 136.396 17.5535 136.133 17.6269C135.87 17.7003 135.709 18.0465 135.772 18.4001C135.836 18.7538 136.1 18.981 136.363 18.9076Z" fill="#FEFAD1"/>
<path d="M129.164 38.6144C129.608 38.4904 129.88 37.9054 129.773 37.3078C129.665 36.7102 129.219 36.3262 128.775 36.4503C128.331 36.5743 128.058 37.1593 128.165 37.7569C128.273 38.3545 128.72 38.7384 129.164 38.6144Z" fill="#FEFAD1"/>
<path d="M139.144 51.6929C139.513 51.5897 139.74 51.103 139.651 50.6057C139.561 50.1085 139.19 49.7891 138.82 49.8923C138.451 49.9955 138.224 50.4822 138.313 50.9794C138.403 51.4766 138.774 51.7961 139.144 51.6929Z" fill="#FEFAD1"/>
<path d="M143.069 51.9977C143.204 51.9599 143.287 51.7817 143.254 51.5996C143.221 51.4175 143.085 51.3005 142.95 51.3383C142.815 51.3761 142.732 51.5543 142.764 51.7364C142.797 51.9185 142.933 52.0355 143.069 51.9977Z" fill="#FEFAD1"/>
<path d="M128.885 55.6215C129.094 55.5631 129.222 55.2877 129.172 55.0064C129.121 54.7251 128.911 54.5444 128.702 54.6028C128.493 54.6612 128.364 54.9365 128.415 55.2178C128.465 55.4991 128.676 55.6798 128.885 55.6215Z" fill="#FEFAD1"/>
<path d="M125.998 48.7595C126.233 48.6939 126.377 48.3842 126.32 48.0679C126.263 47.7516 126.027 47.5484 125.792 47.6141C125.557 47.6797 125.412 47.9893 125.469 48.3056C125.526 48.622 125.763 48.8252 125.998 48.7595Z" fill="#FEFAD1"/>
<path d="M137.951 36.9724C138.107 36.9288 138.203 36.7232 138.165 36.5131C138.127 36.303 137.97 36.168 137.814 36.2116C137.658 36.2552 137.562 36.4608 137.6 36.6709C137.637 36.881 137.795 37.016 137.951 36.9724Z" fill="#FEFAD1"/>
<path d="M134.575 30.5547C134.765 30.5017 134.881 30.2515 134.835 29.9958C134.789 29.7402 134.598 29.576 134.408 29.6291C134.218 29.6821 134.102 29.9323 134.148 30.1879C134.194 30.4436 134.385 30.6078 134.575 30.5547Z" fill="#FEFAD1"/>
<path d="M107.48 88.8908C107.651 88.8431 107.756 88.618 107.715 88.3881C107.674 88.1581 107.502 88.0104 107.331 88.0581C107.16 88.1058 107.055 88.3309 107.096 88.5609C107.138 88.7908 107.31 88.9385 107.48 88.8908Z" fill="#FEFAD1"/>
<path d="M121.137 38.8984C121.41 38.8221 121.578 38.4622 121.512 38.0945C121.446 37.7268 121.171 37.4906 120.898 37.5669C120.625 37.6432 120.457 38.0031 120.523 38.3708C120.589 38.7385 120.864 38.9747 121.137 38.8984Z" fill="#FEFAD1"/>
<path d="M109.741 90.1996C110.115 90.0952 110.345 89.6028 110.254 89.0997C110.164 88.5967 109.788 88.2735 109.414 88.3779C109.04 88.4823 108.811 88.9747 108.901 89.4778C108.991 89.9808 109.368 90.304 109.741 90.1996Z" fill="#FEFAD1"/>
<path d="M143.505 39.2528C140.966 40.6469 129.25 51.088 116.87 37.7778" stroke="#CF0A80" stroke-width="2.37909" stroke-linecap="round"/>
<path d="M143.741 14.2711C133.968 20.6252 138.628 34.0863 142.179 40.0226C137.616 44.1615 141.374 55.257 149.048 52.9794C156.722 50.7019 169.553 43.8454 173.245 39.9189C176.937 35.9923 176.807 32.0569 174.721 28.9492C173.052 26.4631 169.002 26.0265 167.185 26.1189C166.145 23.2912 155.956 6.32845 143.741 14.2711Z" fill="url(#paint1_linear_1911_1339)"/>
<ellipse cx="148.358" cy="42.0134" rx="1.64783" ry="1.77459" transform="rotate(-32.9344 148.358 42.0134)" fill="#3B314F"/>
<ellipse cx="160.173" cy="37.8059" rx="1.64783" ry="1.77459" transform="rotate(-32.9344 160.173 37.8059)" fill="#3B314F"/>
<path d="M148.835 52.1007C145.752 54.4394 142.627 58.9475 143.713 63.5537C144.582 67.2386 151.458 68.5286 154.788 68.713L152.311 75.9595" stroke="#CF0A80" stroke-width="2.37909" stroke-linecap="round"/>
<path d="M162.887 46.0129C160.573 48.4039 157.389 56.229 159.558 61.4936C161.294 65.7053 167.062 65.728 169.728 65.2129L169.43 73.9024" stroke="#CF0A80" stroke-width="2.37909" stroke-linecap="round"/>
<path d="M165.316 26.559C171.781 23.6353 179.593 21.4716 174.25 3.27155" stroke="#CF0A80" stroke-width="2.37909" stroke-linecap="round"/>
<path d="M203.415 130.275C204.555 133.444 209.879 142.19 207.598 157.781L200.626 160.443" stroke="#CF0A80" stroke-width="2.37909" stroke-linecap="round"/>
<path d="M216.471 133.566C217.485 135.721 221.668 144.594 222.555 158.79L229.527 160.565" stroke="#CF0A80" stroke-width="2.37909" stroke-linecap="round"/>
<path d="M197.331 124.572C196.739 127.699 195.911 136.361 197.331 145.994" stroke="#CF0A80" stroke-width="2.37909" stroke-linecap="round"/>
<path d="M218.879 101.63C206.964 98.4614 201.007 113.165 200.88 116.08C192.007 116.08 192.664 123.971 194.542 126.601C195.81 128.376 198.979 131.418 206.077 133.826C213.175 136.235 220.907 137.249 223.062 136.995C225.217 136.742 228.006 136.995 230.034 132.179C231.656 128.325 228.851 125.249 227.499 124.193C229.02 117.095 230.794 104.799 218.879 101.63Z" fill="url(#paint2_linear_1911_1339)"/>
<ellipse cx="205.767" cy="117.492" rx="1.64783" ry="1.77459" transform="rotate(23.8851 205.767 117.492)" fill="#3B314F"/>
<ellipse cx="216.922" cy="120.783" rx="1.64783" ry="1.77459" transform="rotate(23.8851 216.922 120.783)" fill="#3B314F"/>
<path d="M227.245 126.218C228.935 130.485 231.986 141.074 230.668 149.287" stroke="#CF0A80" stroke-width="2.37909" stroke-linecap="round"/>
<path d="M90.6821 166.422C98.3502 167.357 99.2203 146.838 98.8383 144.172C94.4561 140.447 89.4915 142.421 87.4392 144.816C89.1667 154.982 83.0139 165.488 90.6821 166.422Z" fill="#DE493C"/>
<path d="M117.852 103.479C123.176 108.906 105.071 121.796 102.668 122.914C96.4736 120.436 102.385 111.934 103.255 108.954C112.563 104.912 114.067 99.622 117.852 103.479Z" fill="url(#paint3_linear_1911_1339)"/>
<path d="M102.079 82.0014C91.5801 65.314 76.5525 65.3135 66.8829 73.681C57.7205 83.4022 64.3075 94.5883 64.3075 104.047C64.3075 113.137 63.3164 117.103 61.9788 127.7C60.5944 138.667 65.0792 154.824 83.4734 153.381C101.868 151.938 105.64 128.975 106.535 121.811C107.43 114.646 110.755 95.7917 102.079 82.0014Z" fill="url(#paint4_linear_1911_1339)"/>
<path d="M93.2403 99.7095C97.9784 98.4944 101.021 95.2052 102.052 93.042C100.763 90.3116 97.2859 84.2976 93.6904 82.084C89.1959 79.3171 83.2241 82.4192 80.6805 87.1803C78.6455 90.9891 78.138 95.1637 77.4766 98.1333C80.401 99.6753 86.8107 101.358 93.2403 99.7095Z" fill="#FEF9F5"/>
<mask id="mask0_1911_1339" style="mask-type:alpha" maskUnits="userSpaceOnUse" x="82" y="80" width="17" height="18">
<path d="M98.4245 87.8646C98.886 92.5337 96.0032 96.6406 91.9856 97.0377C87.968 97.4347 83.1838 94.2459 82.7223 89.5768C82.2609 84.9078 86.2969 80.5265 90.3145 80.1294C94.3321 79.7323 97.9631 83.1955 98.4245 87.8646Z" fill="black"/>
</mask>
<g mask="url(#mask0_1911_1339)">
<path d="M93.4611 101.639C98.0371 99.9107 101.242 95.1521 102.272 92.9889C100.984 90.2585 97.5068 84.2444 93.9112 82.0309C89.4167 79.264 83.4449 82.3661 80.9013 87.1272C78.8664 90.936 77.5519 96.5791 76.7063 99.0713C79.6306 100.613 87.7412 103.799 93.4611 101.639Z" fill="black"/>
</g>
<path d="M99.5792 103.717C104.473 109.535 89.8703 120.07 87.4679 121.189C79.4254 121.517 79.1563 115.64 80.027 112.661C89.3348 108.619 94.686 97.8987 99.5792 103.717Z" fill="url(#paint5_linear_1911_1339)"/>
<path d="M75.3207 166.422C82.9889 167.357 83.859 146.838 83.4769 144.172C79.0947 140.447 74.1301 142.421 72.0779 144.816C73.8053 154.982 67.6526 165.488 75.3207 166.422Z" fill="url(#paint6_linear_1911_1339)"/>
<path d="M99.4468 110.277C91.0219 120.436 87.0573 121.51 85.8184 122.171C86.7269 122.253 89.6367 121.69 92.2609 119.941C94.491 118.454 98.9512 113.498 99.4468 110.277Z" fill="#DB422A"/>
<path d="M85.3242 51.2736C88.7933 50.778 97.1686 46.9125 102.917 35.415" stroke="#CF0A80" stroke-width="2.37909" stroke-linecap="round"/>
<path d="M86.8281 62.6745C90.1169 62.171 98.3414 64.102 101.38 68.9178C103.81 72.7705 100.492 77.4874 98.5285 79.3643L105.788 84.1495" stroke="#CF0A80" stroke-width="2.37909" stroke-linecap="round"/>
<path d="M70.4556 35.8598C82.3707 32.6909 88.3283 47.3946 88.455 50.31C97.3279 50.31 96.6712 58.201 94.7928 60.8307C93.5253 62.6053 90.3563 65.6475 83.258 68.0558C76.1597 70.4642 68.4275 71.4783 66.2727 71.2247C64.1178 70.9712 61.3292 71.2247 59.3011 66.408C57.6786 62.5546 60.4842 59.4787 61.8362 58.4224C60.3152 51.324 58.5406 39.0287 70.4556 35.8598Z" fill="url(#paint7_linear_1911_1339)"/>
<ellipse cx="1.64783" cy="1.77459" rx="1.64783" ry="1.77459" transform="matrix(-0.914359 0.404904 0.404904 0.914359 84.3555 49.4321)" fill="#3B314F"/>
<ellipse cx="1.64783" cy="1.77459" rx="1.64783" ry="1.77459" transform="matrix(-0.914359 0.404904 0.404904 0.914359 73.2012 52.7222)" fill="#3B314F"/>
<path d="M71.489 68.6971C74.4047 66.1529 79.4533 64.0069 83.7431 66.0055C87.175 67.6045 87.0428 74.5992 86.5477 77.8966L94.146 76.9423" stroke="#CF0A80" stroke-width="2.37909" stroke-linecap="round"/>
<path d="M65.0048 59.7192C63.0224 62.7753 60.8419 71.6627 67.9782 82.7637" stroke="#CF0A80" stroke-width="2.37909" stroke-linecap="round"/>
</g>
<defs>
<filter id="filter0_f_1911_1339" x="112.025" y="-13.0037" width="141.843" height="190.7" filterUnits="userSpaceOnUse" color-interpolation-filters="sRGB">
<feFlood flood-opacity="0" result="BackgroundImageFix"/>
<feBlend mode="normal" in="SourceGraphic" in2="BackgroundImageFix" result="shape"/>
<feGaussianBlur stdDeviation="11.673" result="effect1_foregroundBlur_1911_1339"/>
</filter>
<linearGradient id="paint0_linear_1911_1339" x1="137.956" y1="106.161" x2="137.956" y2="142.166" gradientUnits="userSpaceOnUse">
<stop stop-color="#F783F2"/>
<stop offset="1" stop-color="#E040DA"/>
</linearGradient>
<linearGradient id="paint1_linear_1911_1339" x1="155.257" y1="11.6407" x2="159.21" y2="52.1267" gradientUnits="userSpaceOnUse">
<stop stop-color="#F783F2"/>
<stop offset="1" stop-color="#E040DA"/>
</linearGradient>
<linearGradient id="paint2_linear_1911_1339" x1="211.95" y1="101.186" x2="211.95" y2="137.033" gradientUnits="userSpaceOnUse">
<stop stop-color="#F783F2"/>
<stop offset="1" stop-color="#E040DA"/>
</linearGradient>
<linearGradient id="paint3_linear_1911_1339" x1="119.168" y1="106.149" x2="99.0938" y2="119.25" gradientUnits="userSpaceOnUse">
<stop stop-color="#E04D40"/>
<stop offset="1" stop-color="#F15F56"/>
</linearGradient>
<linearGradient id="paint4_linear_1911_1339" x1="79.5413" y1="66.4371" x2="79.1903" y2="157.704" gradientUnits="userSpaceOnUse">
<stop stop-color="#F46A6A"/>
<stop offset="1" stop-color="#EA5749"/>
</linearGradient>
<linearGradient id="paint5_linear_1911_1339" x1="100.896" y1="106.386" x2="80.8212" y2="119.488" gradientUnits="userSpaceOnUse">
<stop stop-color="#FF6F66"/>
<stop offset="1" stop-color="#EF6058"/>
</linearGradient>
<linearGradient id="paint6_linear_1911_1339" x1="78.3236" y1="166.061" x2="78.3289" y2="141.702" gradientUnits="userSpaceOnUse">
<stop stop-color="#DA4639"/>
<stop offset="1" stop-color="#EC5B4F"/>
</linearGradient>
<linearGradient id="paint7_linear_1911_1339" x1="77.3851" y1="35.415" x2="77.3851" y2="71.2626" gradientUnits="userSpaceOnUse">
<stop stop-color="#F783F2"/>
<stop offset="1" stop-color="#E040DA"/>
</linearGradient>
<clipPath id="clip0_1911_1339">
<rect width="286" height="167" fill="white"/>
</clipPath>
</defs>
</svg>
