<svg width="286" height="167" viewBox="0 0 286 167" fill="none" xmlns="http://www.w3.org/2000/svg">
<g clip-path="url(#clip0_1911_2227)">
<g filter="url(#filter0_f_1911_2227)">
<ellipse cx="37.8138" cy="2.06464" rx="37.8138" ry="2.06464" transform="matrix(0.999991 -0.00412603 -0.0157148 0.999877 94.501 136.703)" fill="black" fill-opacity="0.4"/>
</g>
<path d="M144.774 96.9415C138.18 107.063 127.292 107.677 115.023 105.53C110.422 104.047 99.9632 98.3831 94.9331 87.5867C88.6454 74.0912 105.931 33.6242 119.164 18.5756C134.806 0.786144 156.477 3.69993 166.599 15.9686C176.721 28.2372 172.532 43.4196 162.564 59.0621C152.596 74.7046 151.369 86.8199 144.774 96.9415Z" fill="url(#paint0_linear_1911_2227)"/>
<path d="M123.045 62.751L120.744 67.9651C120.131 66.2475 119.875 64.5402 119.824 64.1312C120.07 63.8858 122.073 63.1088 123.045 62.751Z" fill="#DB422A"/>
<path d="M162.457 33.7625C166.138 37.1363 165.524 44.9575 163.377 50.4784C146.569 57.9623 139.913 43.6796 138.687 35.6027C149.882 27.3214 158.163 29.8262 162.457 33.7625Z" fill="#FEF9F5"/>
<mask id="mask0_1911_2227" style="mask-type:alpha" maskUnits="userSpaceOnUse" x="143" y="35" width="19" height="20">
<path d="M159.03 50.4663C156.123 54.551 150.587 55.5997 146.666 52.8086C142.745 50.0176 142.333 44.606 145.24 40.5213C148.147 36.4367 153.981 34.387 158.036 36.8335C163.633 40.21 161.937 46.3817 159.03 50.4663Z" fill="black"/>
</mask>
<g mask="url(#mask0_1911_2227)">
<path d="M162.766 31.1612C166.446 34.535 165.526 44.9635 163.379 50.4844C146.571 57.9682 139.915 43.6855 138.688 35.6086C151.877 25.487 159.146 27.8435 162.766 31.1612Z" fill="black"/>
</g>
<path d="M90.8066 127.877L126.378 56.0494L174.194 87.7828L90.8066 127.877Z" fill="#FFDAA4"/>
<path d="M208.217 71.4194L169.123 144.941L174.196 87.7774L208.217 71.4194Z" fill="#FFA827"/>
<path d="M90.8126 127.882L174.199 87.7888L169.126 144.952L90.8126 127.882Z" fill="#FFBC57"/>
<path d="M208.214 71.4355L174.194 87.7931L126.377 56.0604L208.214 71.4355Z" fill="#FFBC57"/>
<path d="M122.889 92.1843C112.614 96.325 104.64 71.3276 104.18 67.4937C107.37 56.2065 115.63 58.4967 119.362 61.0526C120.742 75.775 133.164 88.0436 122.889 92.1843Z" fill="url(#paint1_linear_1911_2227)"/>
<path d="M109.702 90.0442C105.653 84.8914 103.756 69.9032 104.334 67.0405C105.561 75.0151 109.646 82.9416 111.979 86.3636L109.702 90.0442Z" fill="#DB422A"/>
<path d="M173.499 71.9379C168.326 71.9379 165.218 69.0242 165.218 65.6503C165.218 62.2762 170.657 59.9031 173.499 59.9758C177.827 60.0865 181.627 62.7365 181.627 65.6503C181.627 68.5641 178.253 71.9379 173.499 71.9379Z" fill="url(#paint2_linear_1911_2227)"/>
<g opacity="0.2" filter="url(#filter1_f_1911_2227)">
<path d="M89.3848 119.081L95.5851 76.8182C96.0116 73.9114 97.7874 71.3775 100.374 69.9848L153.03 41.6354C155.561 40.2725 158.581 40.1581 161.209 41.3256L201.137 59.0684C204.947 60.7613 207.163 64.7842 206.558 68.909L200.425 110.728C199.998 113.635 198.222 116.169 195.635 117.562L142.934 145.935C140.429 147.284 137.443 147.411 134.832 146.279L94.8821 128.955C91.0287 127.284 88.7751 123.236 89.3848 119.081Z" fill="#FEED58"/>
</g>
<path d="M163.834 148.815C163.855 148.482 163.582 148.194 163.223 148.171C162.864 148.149 162.556 148.399 162.535 148.732C162.513 149.064 162.787 149.352 163.146 149.375C163.505 149.398 163.813 149.147 163.834 148.815Z" fill="#D1FEF9"/>
<path d="M145.019 140.921C145.042 140.557 144.743 140.242 144.35 140.216C143.957 140.191 143.619 140.466 143.596 140.83C143.573 141.194 143.872 141.51 144.265 141.535C144.658 141.56 144.996 141.285 145.019 140.921Z" fill="#D1FEF9"/>
<path d="M140.426 142.507C140.458 142.016 140.054 141.591 139.524 141.557C138.994 141.523 138.539 141.894 138.508 142.384C138.477 142.875 138.881 143.3 139.41 143.334C139.94 143.368 140.395 142.997 140.426 142.507Z" fill="#D1FEF9"/>
<path d="M130.422 137.215C130.436 136.994 130.254 136.802 130.015 136.786C129.775 136.771 129.57 136.938 129.556 137.16C129.542 137.381 129.724 137.573 129.963 137.589C130.203 137.604 130.408 137.437 130.422 137.215Z" fill="#D1FEF9"/>
<path d="M120.778 129.333C120.824 128.624 120.24 128.01 119.475 127.962C118.71 127.913 118.053 128.447 118.008 129.156C117.962 129.865 118.546 130.479 119.311 130.527C120.076 130.576 120.733 130.042 120.778 129.333Z" fill="#D1FEF9"/>
<path d="M116.446 130.825C116.461 130.587 116.266 130.382 116.009 130.365C115.753 130.349 115.533 130.528 115.518 130.765C115.503 131.003 115.698 131.209 115.954 131.225C116.211 131.241 116.431 131.062 116.446 130.825Z" fill="#D1FEF9"/>
<path d="M130.327 146.609C130.351 146.238 130.045 145.916 129.644 145.891C129.243 145.865 128.899 146.145 128.875 146.517C128.851 146.888 129.157 147.21 129.558 147.235C129.959 147.261 130.303 146.981 130.327 146.609Z" fill="#D1FEF9"/>
<path d="M154.923 151.54C154.929 151.442 154.849 151.358 154.743 151.351C154.638 151.344 154.547 151.418 154.541 151.516C154.534 151.614 154.615 151.698 154.721 151.705C154.826 151.712 154.917 151.638 154.923 151.54Z" fill="#D1FEF9"/>
<path d="M164.482 152.868C164.507 152.471 164.18 152.127 163.752 152.1C163.323 152.072 162.955 152.372 162.93 152.769C162.904 153.166 163.231 153.51 163.66 153.537C164.088 153.564 164.456 153.265 164.482 152.868Z" fill="#D1FEF9"/>
<path d="M154.853 146.646C154.888 146.096 154.435 145.619 153.841 145.581C153.247 145.543 152.737 145.958 152.701 146.509C152.666 147.059 153.119 147.536 153.714 147.574C154.308 147.612 154.818 147.196 154.853 146.646Z" fill="#D1FEF9"/>
<path d="M147.263 147.45C147.274 147.284 147.137 147.141 146.959 147.13C146.78 147.118 146.626 147.243 146.616 147.409C146.605 147.574 146.742 147.718 146.92 147.729C147.099 147.741 147.253 147.616 147.263 147.45Z" fill="#D1FEF9"/>
<path d="M149.133 129.106C149.169 128.534 148.698 128.038 148.08 127.998C147.462 127.959 146.932 128.391 146.895 128.963C146.859 129.535 147.33 130.031 147.948 130.07C148.566 130.11 149.096 129.678 149.133 129.106Z" fill="#D1FEF9"/>
<path d="M135.853 128.757C135.87 128.489 135.649 128.257 135.36 128.238C135.071 128.22 134.823 128.422 134.805 128.69C134.788 128.958 135.009 129.19 135.298 129.208C135.587 129.227 135.836 129.025 135.853 128.757Z" fill="#D1FEF9"/>
<path d="M149.973 131.434C149.989 131.182 149.781 130.964 149.509 130.947C149.237 130.929 149.003 131.119 148.987 131.371C148.971 131.623 149.179 131.842 149.451 131.859C149.723 131.877 149.956 131.686 149.973 131.434Z" fill="#D1FEF9"/>
<path d="M140.117 131.237C140.132 130.996 139.934 130.787 139.674 130.771C139.413 130.754 139.19 130.936 139.174 131.177C139.159 131.418 139.357 131.627 139.618 131.643C139.878 131.66 140.102 131.478 140.117 131.237Z" fill="#D1FEF9"/>
<path d="M155.937 135.648C155.961 135.275 155.654 134.953 155.252 134.927C154.85 134.901 154.504 135.182 154.481 135.555C154.457 135.927 154.764 136.25 155.166 136.276C155.568 136.302 155.913 136.021 155.937 135.648Z" fill="#D1FEF9"/>
<path d="M124.035 84.4542C124.249 84.6645 124.607 84.6476 124.834 84.4165C125.061 84.1853 125.071 83.8275 124.857 83.6172C124.643 83.4068 124.286 83.4237 124.059 83.6549C123.831 83.886 123.821 84.2439 124.035 84.4542Z" fill="#D1FEF9"/>
<path d="M132.393 75.2638C132.795 75.6588 133.467 75.627 133.894 75.1929C134.32 74.7588 134.34 74.0867 133.938 73.6917C133.536 73.2968 132.864 73.3285 132.438 73.7626C132.011 74.1967 131.991 74.8688 132.393 75.2638Z" fill="#D1FEF9"/>
<path d="M130.77 79.9973C131.067 80.2897 131.564 80.2662 131.88 79.9448C132.196 79.6235 132.21 79.126 131.913 78.8336C131.615 78.5412 131.118 78.5647 130.802 78.8861C130.487 79.2074 130.472 79.705 130.77 79.9973Z" fill="#D1FEF9"/>
<path d="M129.554 69.8011C129.708 69.9524 129.966 69.9403 130.129 69.7739C130.293 69.6076 130.3 69.3501 130.146 69.1988C129.992 69.0475 129.735 69.0596 129.571 69.2259C129.408 69.3923 129.4 69.6498 129.554 69.8011Z" fill="#D1FEF9"/>
<path d="M136.454 64.6296C136.582 64.7553 136.796 64.7451 136.931 64.607C137.067 64.4689 137.073 64.2551 136.945 64.1294C136.818 64.0037 136.604 64.0138 136.468 64.152C136.332 64.2901 136.326 64.5039 136.454 64.6296Z" fill="#D1FEF9"/>
<path d="M147.553 80.5113C147.992 80.9431 148.726 80.9084 149.193 80.4339C149.659 79.9594 149.68 79.2247 149.241 78.793C148.802 78.3612 148.067 78.3959 147.601 78.8704C147.135 79.3449 147.113 80.0796 147.553 80.5113Z" fill="#D1FEF9"/>
<path d="M143.19 81.5102C143.402 81.7189 143.757 81.7021 143.982 81.4728C144.207 81.2436 144.218 80.8886 144.006 80.68C143.793 80.4714 143.438 80.4881 143.213 80.7174C142.988 80.9467 142.978 81.3016 143.19 81.5102Z" fill="#D1FEF9"/>
<path d="M151.024 79.091C151.171 79.2346 151.415 79.2231 151.57 79.0652C151.725 78.9074 151.732 78.663 151.586 78.5193C151.44 78.3757 151.196 78.3873 151.04 78.5451C150.885 78.703 150.878 78.9474 151.024 79.091Z" fill="#D1FEF9"/>
<path d="M132.947 92.0828C133.532 92.6573 134.509 92.6111 135.129 91.9797C135.75 91.3482 135.778 90.3706 135.194 89.7961C134.609 89.2216 133.632 89.2677 133.012 89.8992C132.391 90.5306 132.362 91.5082 132.947 92.0828Z" fill="#D1FEF9"/>
<path d="M112.314 118.902C112.677 119.259 113.283 119.23 113.668 118.838C114.053 118.447 114.071 117.84 113.708 117.483C113.345 117.127 112.739 117.156 112.354 117.547C111.969 117.939 111.951 118.546 112.314 118.902Z" fill="#D1FEF9"/>
<path d="M120.789 114.663C120.948 114.819 121.214 114.807 121.383 114.635C121.552 114.463 121.56 114.197 121.401 114.04C121.241 113.884 120.975 113.896 120.806 114.068C120.637 114.24 120.63 114.506 120.789 114.663Z" fill="#D1FEF9"/>
<path d="M112.259 104.896C112.664 105.293 113.34 105.261 113.769 104.825C114.198 104.388 114.218 103.711 113.814 103.314C113.409 102.916 112.733 102.948 112.304 103.385C111.875 103.822 111.855 104.498 112.259 104.896Z" fill="#D1FEF9"/>
<path d="M104.207 121.818C104.657 122.261 105.41 122.225 105.889 121.738C106.367 121.252 106.389 120.498 105.938 120.055C105.487 119.612 104.734 119.648 104.256 120.135C103.778 120.621 103.756 121.375 104.207 121.818Z" fill="#D1FEF9"/>
<path d="M113.39 100.067C113.551 100.225 113.82 100.213 113.991 100.039C114.161 99.8651 114.169 99.5959 114.008 99.4377C113.847 99.2796 113.578 99.2923 113.408 99.4661C113.237 99.64 113.229 99.9091 113.39 100.067Z" fill="#D1FEF9"/>
<path d="M200.054 72.2408C200.631 72.8076 201.595 72.7621 202.207 72.1391C202.819 71.5161 202.847 70.5516 202.27 69.9848C201.693 69.418 200.729 69.4635 200.117 70.0865C199.505 70.7095 199.477 71.674 200.054 72.2408Z" fill="#D1FEF9"/>
<path d="M195.087 108.103C195.413 108.422 195.956 108.397 196.302 108.045C196.647 107.694 196.663 107.15 196.337 106.83C196.012 106.51 195.468 106.536 195.123 106.887C194.778 107.239 194.762 107.783 195.087 108.103Z" fill="#D1FEF9"/>
<path d="M200.8 101.664C200.967 101.829 201.248 101.816 201.426 101.635C201.604 101.454 201.613 101.173 201.445 101.008C201.277 100.843 200.996 100.856 200.818 101.037C200.64 101.219 200.632 101.499 200.8 101.664Z" fill="#D1FEF9"/>
<path d="M203.19 90.5632C203.387 90.7564 203.716 90.7409 203.924 90.5285C204.133 90.3161 204.143 89.9874 203.946 89.7942C203.749 89.601 203.421 89.6165 203.212 89.8288C203.003 90.0412 202.994 90.37 203.19 90.5632Z" fill="#D1FEF9"/>
<path d="M193.278 100.772C193.511 101.001 193.901 100.982 194.148 100.73C194.396 100.479 194.407 100.089 194.174 99.8596C193.941 99.6305 193.551 99.649 193.304 99.9008C193.057 100.153 193.045 100.542 193.278 100.772Z" fill="#D1FEF9"/>
<path d="M183.311 107.281C183.528 107.493 183.89 107.476 184.119 107.242C184.349 107.008 184.36 106.646 184.143 106.433C183.927 106.22 183.565 106.238 183.335 106.471C183.105 106.705 183.094 107.068 183.311 107.281Z" fill="#D1FEF9"/>
<path d="M169.62 52.1844C169.743 52.3049 169.948 52.2952 170.078 52.1628C170.208 52.0303 170.214 51.8252 170.091 51.7046C169.969 51.5841 169.764 51.5937 169.633 51.7262C169.503 51.8587 169.497 52.0638 169.62 52.1844Z" fill="#D1FEF9"/>
<path d="M161.392 65.6849C161.747 66.0338 162.34 66.0058 162.717 65.6224C163.094 65.239 163.111 64.6455 162.756 64.2966C162.401 63.9478 161.808 63.9758 161.431 64.3592C161.055 64.7426 161.037 65.3361 161.392 65.6849Z" fill="#D1FEF9"/>
<path d="M152.526 66.2842C152.851 66.6039 153.395 66.5782 153.74 66.2268C154.085 65.8754 154.101 65.3313 153.776 65.0116C153.45 64.6918 152.907 64.7175 152.561 65.0689C152.216 65.4204 152.2 65.9644 152.526 66.2842Z" fill="#D1FEF9"/>
<path d="M154.879 59.8795C155.006 60.0034 155.216 59.9935 155.35 59.8572C155.484 59.721 155.49 59.51 155.364 59.3861C155.238 59.2621 155.027 59.2721 154.893 59.4083C154.76 59.5446 154.753 59.7555 154.879 59.8795Z" fill="#D1FEF9"/>
<path d="M147.456 57.7064C147.71 57.956 148.134 57.936 148.404 57.6616C148.673 57.3872 148.686 56.9624 148.432 56.7128C148.178 56.4631 147.753 56.4832 147.484 56.7575C147.214 57.0319 147.201 57.4567 147.456 57.7064Z" fill="#D1FEF9"/>
<path d="M143.95 68.2636C144.419 68.7244 145.202 68.6874 145.7 68.181C146.198 67.6745 146.221 66.8904 145.752 66.4296C145.283 65.9688 144.499 66.0058 144.001 66.5123C143.504 67.0187 143.481 67.8028 143.95 68.2636Z" fill="#D1FEF9"/>
<path d="M193.199 73.7177C193.416 73.9314 193.78 73.9143 194.011 73.6794C194.241 73.4445 194.252 73.0808 194.035 72.867C193.817 72.6533 193.454 72.6704 193.223 72.9053C192.992 73.1402 192.981 73.5039 193.199 73.7177Z" fill="#D1FEF9"/>
<path d="M183.041 52.4501C183.397 52.7998 183.991 52.7717 184.369 52.3874C184.746 52.0031 184.764 51.4081 184.408 51.0584C184.052 50.7087 183.458 50.7368 183.08 51.1212C182.702 51.5055 182.685 52.1005 183.041 52.4501Z" fill="#D1FEF9"/>
<path d="M206.27 64.9508C206.534 65.2098 206.974 65.189 207.254 64.9043C207.534 64.6196 207.547 64.1788 207.283 63.9197C207.019 63.6607 206.579 63.6815 206.299 63.9662C206.019 64.2509 206.006 64.6917 206.27 64.9508Z" fill="#D1FEF9"/>
<path d="M182.671 68.4234C183.117 68.8612 183.861 68.826 184.334 68.3449C184.806 67.8638 184.828 67.119 184.383 66.6812C183.937 66.2435 183.193 66.2787 182.72 66.7598C182.248 67.2409 182.226 67.9857 182.671 68.4234Z" fill="#D1FEF9"/>
<path d="M178.031 87.7496C178.402 88.1138 179.021 88.0845 179.415 87.6843C179.808 87.284 179.826 86.6643 179.455 86.3001C179.085 85.9359 178.465 85.9651 178.072 86.3654C177.679 86.7657 177.661 87.3854 178.031 87.7496Z" fill="#D1FEF9"/>
<path d="M180.661 92.4627C180.797 92.5961 181.023 92.5854 181.167 92.4388C181.311 92.2922 181.318 92.0653 181.182 91.9319C181.047 91.7985 180.82 91.8093 180.676 91.9558C180.532 92.1024 180.525 92.3294 180.661 92.4627Z" fill="#D1FEF9"/>
<path d="M166.747 78.2556C166.957 78.4617 167.307 78.4452 167.53 78.2187C167.752 77.9923 167.762 77.6416 167.553 77.4356C167.343 77.2295 166.992 77.2461 166.77 77.4725C166.548 77.699 166.537 78.0496 166.747 78.2556Z" fill="#D1FEF9"/>
<path d="M170.931 70.8534C171.167 71.0851 171.561 71.0665 171.811 70.8118C172.061 70.5572 172.073 70.1629 171.837 69.9312C171.601 69.6995 171.207 69.7181 170.957 69.9728C170.707 70.2274 170.695 70.6217 170.931 70.8534Z" fill="#D1FEF9"/>
<path d="M190.749 77.5815C190.906 77.7354 191.168 77.7231 191.334 77.5539C191.5 77.3848 191.508 77.1229 191.351 76.969C191.194 76.8152 190.933 76.8275 190.767 76.9967C190.6 77.1658 190.593 77.4277 190.749 77.5815Z" fill="#D1FEF9"/>
<path d="M194.168 69.8513C194.358 70.0385 194.677 70.0235 194.879 69.8177C195.081 69.6119 195.09 69.2933 194.9 69.1061C194.709 68.9189 194.391 68.9339 194.189 69.1397C193.986 69.3455 193.977 69.6641 194.168 69.8513Z" fill="#D1FEF9"/>
<path d="M120.014 73.5007C120.186 73.6691 120.472 73.6556 120.654 73.4705C120.836 73.2853 120.844 72.9988 120.673 72.8303C120.501 72.6619 120.215 72.6755 120.033 72.8606C119.851 73.0457 119.843 73.3323 120.014 73.5007Z" fill="#D1FEF9"/>
<path d="M176.426 59.3549C176.7 59.6242 177.158 59.6026 177.449 59.3066C177.739 59.0106 177.753 58.5523 177.479 58.283C177.205 58.0137 176.747 58.0354 176.456 58.3313C176.165 58.6273 176.152 59.0856 176.426 59.3549Z" fill="#D1FEF9"/>
<path d="M120.511 76.8716C120.886 77.24 121.512 77.2105 121.91 76.8055C122.308 76.4005 122.327 75.7735 121.952 75.405C121.577 75.0365 120.95 75.0661 120.552 75.4711C120.154 75.8761 120.136 76.5031 120.511 76.8716Z" fill="#D1FEF9"/>
</g>
<defs>
<filter id="filter0_f_1911_2227" x="82.8528" y="124.925" width="98.8588" height="27.3725" filterUnits="userSpaceOnUse" color-interpolation-filters="sRGB">
<feFlood flood-opacity="0" result="BackgroundImageFix"/>
<feBlend mode="normal" in="SourceGraphic" in2="BackgroundImageFix" result="shape"/>
<feGaussianBlur stdDeviation="5.80797" result="effect1_foregroundBlur_1911_2227"/>
</filter>
<filter id="filter1_f_1911_2227" x="56.7615" y="8.00025" width="182.42" height="171.57" filterUnits="userSpaceOnUse" color-interpolation-filters="sRGB">
<feFlood flood-opacity="0" result="BackgroundImageFix"/>
<feBlend mode="normal" in="SourceGraphic" in2="BackgroundImageFix" result="shape"/>
<feGaussianBlur stdDeviation="16.2623" result="effect1_foregroundBlur_1911_2227"/>
</filter>
<linearGradient id="paint0_linear_1911_2227" x1="163.637" y1="8.45403" x2="104.748" y2="102.156" gradientUnits="userSpaceOnUse">
<stop stop-color="#FF7171"/>
<stop offset="1" stop-color="#E85345"/>
</linearGradient>
<linearGradient id="paint1_linear_1911_2227" x1="118.595" y1="92.7977" x2="109.547" y2="59.059" gradientUnits="userSpaceOnUse">
<stop stop-color="#E04D40"/>
<stop offset="1" stop-color="#F15F56"/>
</linearGradient>
<linearGradient id="paint2_linear_1911_2227" x1="173.422" y1="59.9741" x2="173.422" y2="71.9379" gradientUnits="userSpaceOnUse">
<stop stop-color="#FA6B68"/>
<stop offset="1" stop-color="#F1463F"/>
</linearGradient>
<clipPath id="clip0_1911_2227">
<rect width="286" height="167" fill="white"/>
</clipPath>
</defs>
</svg>
