<svg width="286" height="167" viewBox="0 0 286 167" fill="none" xmlns="http://www.w3.org/2000/svg">
<g clip-path="url(#clip0_1911_1723)">
<g filter="url(#filter0_f_1911_1723)">
<ellipse cx="42.762" cy="2.48802" rx="42.762" ry="2.48802" transform="matrix(0.999991 -0.00412603 -0.0157148 0.999877 41.7871 112.352)" fill="black" fill-opacity="0.3"/>
</g>
<path d="M206.842 54.9177C206.924 55.0146 207.076 55.0209 207.18 54.9319C207.285 54.8428 207.303 54.6922 207.221 54.5953C207.138 54.4984 206.987 54.4921 206.882 54.5811C206.777 54.6701 206.759 54.8208 206.842 54.9177Z" fill="#FEFAD1" fill-opacity="0.7"/>
<path d="M210.717 51.3508C210.871 51.5327 211.156 51.5447 211.353 51.3775C211.549 51.2103 211.583 50.9273 211.428 50.7454C211.273 50.5635 210.988 50.5516 210.792 50.7187C210.595 50.8859 210.562 51.1689 210.717 51.3508Z" fill="#FEFAD1" fill-opacity="0.7"/>
<path d="M209.853 53.2926C209.967 53.4272 210.178 53.4361 210.324 53.3123C210.469 53.1885 210.494 52.979 210.379 52.8444C210.265 52.7097 210.054 52.7009 209.909 52.8247C209.763 52.9485 209.738 53.1579 209.853 53.2926Z" fill="#FEFAD1" fill-opacity="0.7"/>
<path d="M209.723 48.9397C209.782 49.0094 209.891 49.0139 209.966 48.9499C210.042 48.8858 210.054 48.7774 209.995 48.7077C209.936 48.638 209.827 48.6335 209.751 48.6975C209.676 48.7616 209.663 48.87 209.723 48.9397Z" fill="#FEFAD1" fill-opacity="0.7"/>
<path d="M212.831 47.023C212.88 47.0809 212.971 47.0847 213.033 47.0315C213.096 46.9783 213.106 46.8882 213.057 46.8304C213.008 46.7725 212.917 46.7687 212.855 46.8219C212.792 46.8751 212.781 46.9652 212.831 47.023Z" fill="#FEFAD1" fill-opacity="0.7"/>
<path d="M216.918 54.1444C217.087 54.3432 217.398 54.3563 217.613 54.1735C217.828 53.9907 217.864 53.6814 217.695 53.4826C217.526 53.2837 217.215 53.2707 217 53.4535C216.785 53.6362 216.748 53.9456 216.918 54.1444Z" fill="#FEFAD1" fill-opacity="0.7"/>
<path d="M215.034 54.4063C215.116 54.5024 215.266 54.5087 215.37 54.4204C215.474 54.3321 215.492 54.1826 215.41 54.0865C215.328 53.9905 215.178 53.9842 215.074 54.0725C214.97 54.1608 214.952 54.3102 215.034 54.4063Z" fill="#FEFAD1" fill-opacity="0.7"/>
<path d="M218.433 53.6788C218.489 53.745 218.593 53.7493 218.664 53.6885C218.736 53.6277 218.748 53.5248 218.692 53.4586C218.635 53.3925 218.532 53.3882 218.461 53.449C218.389 53.5098 218.377 53.6127 218.433 53.6788Z" fill="#FEFAD1" fill-opacity="0.7"/>
<path d="M210.312 58.4784C210.537 58.743 210.951 58.7603 211.237 58.5171C211.522 58.2739 211.571 57.8623 211.346 57.5977C211.121 57.3331 210.707 57.3158 210.421 57.559C210.135 57.8022 210.086 58.2138 210.312 58.4784Z" fill="#FEFAD1" fill-opacity="0.7"/>
<path d="M200.592 69.0196C200.732 69.1837 200.989 69.1945 201.167 69.0436C201.344 68.8927 201.374 68.6372 201.235 68.4731C201.095 68.3089 200.838 68.2981 200.66 68.449C200.483 68.5999 200.453 68.8554 200.592 69.0196Z" fill="#FEFAD1" fill-opacity="0.7"/>
<path d="M204.336 67.547C204.397 67.6191 204.51 67.6238 204.588 67.5576C204.666 67.4914 204.679 67.3793 204.618 67.3072C204.557 67.2352 204.444 67.2304 204.366 67.2967C204.288 67.3629 204.275 67.475 204.336 67.547Z" fill="#FEFAD1" fill-opacity="0.7"/>
<path d="M201.098 63.1074C201.253 63.2905 201.54 63.3025 201.738 63.1342C201.935 62.9659 201.969 62.6811 201.813 62.498C201.658 62.3149 201.371 62.3029 201.173 62.4712C200.976 62.6395 200.942 62.9243 201.098 63.1074Z" fill="#FEFAD1" fill-opacity="0.7"/>
<path d="M197.061 69.9471C197.234 70.151 197.554 70.1644 197.774 69.9769C197.994 69.7895 198.032 69.4722 197.858 69.2682C197.685 69.0643 197.365 69.0509 197.145 69.2384C196.925 69.4258 196.887 69.7431 197.061 69.9471Z" fill="#FEFAD1" fill-opacity="0.7"/>
<path d="M201.755 61.1165C201.817 61.1894 201.931 61.1941 202.01 61.1272C202.089 61.0602 202.102 60.9469 202.04 60.8741C201.978 60.8012 201.864 60.7965 201.785 60.8634C201.707 60.9304 201.693 61.0437 201.755 61.1165Z" fill="#FEFAD1" fill-opacity="0.7"/>
<path d="M239.391 52.6296C239.614 52.8907 240.022 52.9078 240.304 52.6678C240.586 52.4279 240.634 52.0218 240.412 51.7607C240.19 51.4997 239.781 51.4826 239.499 51.7225C239.218 51.9625 239.169 52.3686 239.391 52.6296Z" fill="#FEFAD1" fill-opacity="0.7"/>
<path d="M235.947 67.5756C236.072 67.7229 236.303 67.7325 236.462 67.5972C236.621 67.4618 236.648 67.2327 236.523 67.0855C236.398 66.9382 236.167 66.9286 236.008 67.0639C235.849 67.1993 235.822 67.4284 235.947 67.5756Z" fill="#FEFAD1" fill-opacity="0.7"/>
<path d="M238.6 65.0844C238.665 65.1604 238.784 65.1653 238.866 65.0955C238.948 65.0256 238.962 64.9074 238.897 64.8314C238.833 64.7554 238.714 64.7505 238.632 64.8203C238.55 64.8902 238.536 65.0084 238.6 65.0844Z" fill="#FEFAD1" fill-opacity="0.7"/>
<path d="M240.023 60.4837C240.098 60.5726 240.238 60.5785 240.334 60.4967C240.43 60.4149 240.446 60.2765 240.371 60.1875C240.295 60.0985 240.156 60.0927 240.059 60.1745C239.963 60.2562 239.947 60.3947 240.023 60.4837Z" fill="#FEFAD1" fill-opacity="0.7"/>
<path d="M235.459 64.4158C235.549 64.5213 235.714 64.5282 235.828 64.4312C235.942 64.3342 235.961 64.1701 235.872 64.0646C235.782 63.9591 235.617 63.9522 235.503 64.0491C235.389 64.1461 235.369 64.3103 235.459 64.4158Z" fill="#FEFAD1" fill-opacity="0.7"/>
<path d="M231.007 66.7934C231.09 66.8914 231.244 66.8978 231.35 66.8077C231.456 66.7176 231.474 66.5651 231.39 66.467C231.307 66.369 231.153 66.3626 231.048 66.4527C230.942 66.5428 230.924 66.6953 231.007 66.7934Z" fill="#FEFAD1" fill-opacity="0.7"/>
<path d="M227.3 43.0221C227.347 43.0776 227.434 43.0813 227.494 43.0302C227.554 42.9792 227.564 42.8929 227.517 42.8373C227.47 42.7818 227.383 42.7782 227.323 42.8292C227.263 42.8802 227.253 42.9666 227.3 43.0221Z" fill="#FEFAD1" fill-opacity="0.7"/>
<path d="M223.318 48.4008C223.454 48.5614 223.706 48.5719 223.879 48.4243C224.053 48.2766 224.083 48.0267 223.946 47.8661C223.809 47.7054 223.558 47.6949 223.384 47.8425C223.211 47.9902 223.181 48.2401 223.318 48.4008Z" fill="#FEFAD1" fill-opacity="0.7"/>
<path d="M219.554 48.3246C219.68 48.4719 219.91 48.4815 220.069 48.3462C220.228 48.2108 220.256 47.9817 220.13 47.8345C220.005 47.6872 219.774 47.6776 219.615 47.8129C219.456 47.9483 219.429 48.1774 219.554 48.3246Z" fill="#FEFAD1" fill-opacity="0.7"/>
<path d="M220.788 45.7138C220.836 45.7709 220.926 45.7746 220.987 45.7222C221.049 45.6697 221.059 45.5809 221.011 45.5238C220.962 45.4667 220.873 45.4629 220.811 45.5154C220.75 45.5679 220.739 45.6567 220.788 45.7138Z" fill="#FEFAD1" fill-opacity="0.7"/>
<path d="M217.739 44.5132C217.837 44.6282 218.017 44.6357 218.141 44.5301C218.265 44.4244 218.287 44.2455 218.189 44.1305C218.091 44.0156 217.911 44.008 217.787 44.1137C217.663 44.2194 217.641 44.3982 217.739 44.5132Z" fill="#FEFAD1" fill-opacity="0.7"/>
<path d="M215.859 48.845C216.039 49.0572 216.371 49.0711 216.601 48.8761C216.83 48.681 216.869 48.3509 216.688 48.1386C216.508 47.9264 216.176 47.9125 215.946 48.1076C215.717 48.3026 215.678 48.6328 215.859 48.845Z" fill="#FEFAD1" fill-opacity="0.7"/>
<path d="M236.445 52.9942C236.528 53.0926 236.682 53.099 236.789 53.0086C236.895 52.9181 236.913 52.765 236.829 52.6665C236.746 52.5681 236.592 52.5616 236.485 52.6521C236.379 52.7426 236.361 52.8957 236.445 52.9942Z" fill="#FEFAD1" fill-opacity="0.7"/>
<path d="M232.954 43.6313C233.092 43.7923 233.344 43.8029 233.517 43.6549C233.691 43.5068 233.721 43.2563 233.584 43.0953C233.447 42.9342 233.195 42.9237 233.021 43.0717C232.847 43.2197 232.817 43.4703 232.954 43.6313Z" fill="#FEFAD1" fill-opacity="0.7"/>
<path d="M242.293 49.784C242.394 49.9033 242.581 49.9111 242.71 49.8015C242.839 49.6918 242.861 49.5062 242.759 49.3869C242.658 49.2676 242.471 49.2598 242.342 49.3694C242.213 49.4791 242.191 49.6647 242.293 49.784Z" fill="#FEFAD1" fill-opacity="0.7"/>
<path d="M232.196 50.371C232.368 50.5725 232.683 50.5858 232.901 50.4005C233.119 50.2152 233.156 49.9016 232.985 49.7C232.813 49.4984 232.497 49.4852 232.28 49.6705C232.062 49.8557 232.025 50.1694 232.196 50.371Z" fill="#FEFAD1" fill-opacity="0.7"/>
<path d="M229.511 58.3463C229.654 58.5141 229.916 58.5251 230.097 58.3709C230.278 58.2167 230.309 57.9558 230.167 57.7881C230.024 57.6203 229.761 57.6093 229.58 57.7635C229.399 57.9177 229.368 58.1786 229.511 58.3463Z" fill="#FEFAD1" fill-opacity="0.7"/>
<path d="M230.443 60.4387C230.496 60.5001 230.592 60.5041 230.658 60.4477C230.724 60.3912 230.736 60.2957 230.684 60.2343C230.631 60.1728 230.535 60.1688 230.469 60.2253C230.402 60.2817 230.391 60.3773 230.443 60.4387Z" fill="#FEFAD1" fill-opacity="0.7"/>
<path d="M225.1 53.9232C225.181 54.0181 225.33 54.0243 225.432 53.9371C225.535 53.8499 225.552 53.7023 225.471 53.6074C225.391 53.5125 225.242 53.5062 225.14 53.5935C225.037 53.6807 225.02 53.8283 225.1 53.9232Z" fill="#FEFAD1" fill-opacity="0.7"/>
<path d="M227.146 50.9497C227.236 51.0564 227.404 51.0634 227.519 50.9653C227.634 50.8673 227.654 50.7013 227.563 50.5946C227.472 50.4879 227.305 50.4809 227.19 50.5789C227.075 50.677 227.055 50.843 227.146 50.9497Z" fill="#FEFAD1" fill-opacity="0.7"/>
<path d="M235.27 54.5302C235.33 54.6011 235.441 54.6057 235.517 54.5406C235.594 54.4755 235.607 54.3652 235.547 54.2943C235.486 54.2235 235.375 54.2188 235.299 54.284C235.222 54.3491 235.209 54.4594 235.27 54.5302Z" fill="#FEFAD1" fill-opacity="0.7"/>
<path d="M237 51.3958C237.073 51.482 237.208 51.4876 237.301 51.4084C237.394 51.3291 237.41 51.195 237.337 51.1088C237.264 51.0225 237.129 51.0169 237.036 51.0961C236.942 51.1754 236.926 51.3095 237 51.3958Z" fill="#FEFAD1" fill-opacity="0.7"/>
<path d="M205.554 50.1437C205.62 50.2213 205.741 50.2264 205.825 50.1551C205.908 50.0838 205.923 49.9631 205.857 49.8856C205.791 49.808 205.669 49.8029 205.586 49.8742C205.502 49.9455 205.488 50.0662 205.554 50.1437Z" fill="#FEFAD1" fill-opacity="0.7"/>
<path d="M229.906 46.3039C230.012 46.4279 230.206 46.436 230.34 46.322C230.474 46.208 230.497 46.0151 230.391 45.8911C230.286 45.767 230.092 45.7589 229.958 45.8729C229.824 45.9869 229.801 46.1799 229.906 46.3039Z" fill="#FEFAD1" fill-opacity="0.7"/>
<path d="M205.64 51.5791C205.784 51.7488 206.05 51.76 206.233 51.604C206.417 51.448 206.448 51.184 206.304 51.0143C206.159 50.8446 205.893 50.8335 205.71 50.9894C205.527 51.1454 205.496 51.4094 205.64 51.5791Z" fill="#FEFAD1" fill-opacity="0.7"/>
<path d="M227.244 89.1438C230.617 90.3698 230.385 94.6309 229.55 96.5659C228.715 98.501 226.672 100.749 220.902 102.245C218.576 102.848 213.871 103.113 213.871 103.113C213.871 103.113 213.215 99.9989 211.618 96.6318C209.712 92.6134 207.98 90.7007 207.98 90.7007C207.98 90.7007 212.343 91.9898 216.502 91.1648C220.729 90.3262 224.713 88.2239 227.244 89.1438Z" fill="url(#paint0_linear_1911_1723)"/>
<path d="M227.244 89.1438C230.617 90.3698 230.385 94.6309 229.55 96.5659C228.715 98.501 226.672 100.749 220.902 102.245C218.576 102.848 213.871 103.113 213.871 103.113C213.871 103.113 213.215 99.9989 211.618 96.6318C209.712 92.6134 207.98 90.7007 207.98 90.7007C207.98 90.7007 212.343 91.9898 216.502 91.1648C220.729 90.3262 224.713 88.2239 227.244 89.1438Z" fill="url(#paint1_linear_1911_1723)"/>
<path d="M212.523 91.4153C212.523 91.4153 215.773 94.9818 216.82 96.8109C217.867 98.6399 219.408 102.546 219.408 102.546C218.976 102.658 219.957 102.457 219.408 102.546C216.993 102.937 213.871 103.113 213.871 103.113C213.871 103.113 213.215 99.9989 211.618 96.6318C209.712 92.6134 207.98 90.7007 207.98 90.7007C207.98 90.7007 209.96 91.2857 212.523 91.4153Z" fill="#007156"/>
<path d="M212.523 91.4153C212.523 91.4153 215.773 94.9818 216.82 96.8109C217.867 98.6399 219.408 102.546 219.408 102.546C218.976 102.658 219.957 102.457 219.408 102.546C216.993 102.937 213.871 103.113 213.871 103.113C213.871 103.113 213.215 99.9989 211.618 96.6318C209.712 92.6134 207.98 90.7007 207.98 90.7007C207.98 90.7007 209.96 91.2857 212.523 91.4153Z" fill="#007156"/>
<path d="M149.066 134.991L151.066 115.663C152.567 115.985 153.553 115.164 155.731 115.663C158.064 116.199 161.112 117.046 161.729 117.663C163.062 118.996 167.061 114.997 168.394 112.998L181.723 116.33C181.723 116.996 178.39 124.327 172.392 128.992C168.66 131.125 162.395 129.881 159.73 128.992C158.13 132.191 151.954 134.324 149.066 134.991Z" fill="url(#paint2_linear_1911_1723)"/>
<path d="M168.395 112.998L181.724 116.33C181.724 116.741 180.452 119.696 178.066 122.994C178.066 122.994 173.904 121.257 171.727 119.662C169.55 118.067 166.917 114.824 166.917 114.824C167.526 114.166 168.05 113.515 168.395 112.998Z" fill="#007156"/>
<circle cx="186.389" cy="91.0094" r="30.6568" fill="url(#paint3_linear_1911_1723)"/>
<path d="M162.512 110.377L164.394 112.377C164.394 112.377 164.832 109.061 166.393 107.712C166.393 107.712 167.511 106.234 168.392 104.999C170.467 102.092 174.175 99.9043 174.175 99.9043C171.058 101.667 167.655 100.641 164.394 104.333C163.019 105.888 162.512 108.378 162.512 110.377Z" fill="#007156"/>
<path d="M160.282 116.899C159.049 120.63 155.6 120.946 152.925 119.597C150.25 118.248 149.916 114.875 150.918 108.804C151.921 102.734 157.384 95.9883 158.944 94.6392C163.626 90.592 167.024 90.592 169.646 89.9175C169.646 89.9175 172.99 88.8139 175.665 91.2666C178.341 93.7192 176.334 98.0119 176.334 98.0119C173.659 101.385 169.809 100.705 165.633 105.432C162.305 109.199 161.62 112.852 160.282 116.899Z" fill="url(#paint4_linear_1911_1723)"/>
<rect x="187.721" y="90.4106" width="19.3367" height="19.9525" rx="2" transform="rotate(-46.6569 187.721 90.4106)" fill="black"/>
<path fill-rule="evenodd" clip-rule="evenodd" d="M190.978 86.9596L194.915 82.7878C195.355 82.6998 195.817 82.6528 196.294 82.6528C199.238 82.6528 201.625 84.4431 201.625 86.6516C201.625 88.86 199.238 90.6503 196.294 90.6503C193.487 90.6503 191.187 89.0241 190.978 86.9596Z" fill="white"/>
<path d="M217.044 139.001C213.712 139.668 202.382 141.667 196.384 143C196.068 141.102 194.762 134.489 191.719 128.338L185.133 118.459C184.557 117.651 184.067 116.932 183.722 116.342H201.049C205.048 121.673 207.492 125.894 208.38 130.337C211.046 130.87 215.934 137.002 217.044 139.001Z" fill="url(#paint5_linear_1911_1723)"/>
<path d="M236.312 114.415L217.361 71.6266L246.56 72.8268L236.312 114.415Z" fill="#FFDE95"/>
<path d="M254.819 40.6543L273.214 85.6562L246.558 72.8268L254.819 40.6543Z" fill="#FFB430"/>
<path d="M236.308 114.425L246.559 72.8268L273.215 85.6543L236.308 114.425Z" fill="#FFC557"/>
<path d="M254.626 40.9201L246.559 72.8264L217.164 71.9049L254.626 40.9201Z" fill="#FFC557"/>
<path d="M107.294 78.8317L114.298 71.3881C115.699 69.4668 117.959 68.6759 119.7 69.3319C122.184 70.2623 122.348 73.6584 122.357 73.9562C122.437 76.2823 121.059 77.9617 118.589 80.8926C116.915 82.8676 115.048 84.6708 113.014 86.2753" fill="url(#paint6_linear_1911_1723)"/>
<path opacity="0.69" d="M112.179 74.1441C111.398 78.6164 110.62 83.0903 109.845 87.5658C112.559 86.564 114.987 84.9176 116.919 82.7693C116.367 80.4987 116.054 78.1772 115.985 75.8421C115.931 73.7576 116.069 71.6725 116.396 69.6128C115.796 69.9098 115.232 70.2734 114.715 70.6968C113.603 71.6249 112.733 72.8078 112.179 74.1441Z" fill="#C52600" fill-opacity="0.7"/>
<path d="M86.9453 93.721C86.2013 96.3634 85.4604 98.9997 84.7227 101.63C83.9673 102.696 82.918 103.522 81.7016 104.007C80.1 104.607 78.7039 104.328 75.8183 103.542C66.8859 101.076 65.7932 99.7595 65.3263 99.1082C64.4636 97.9708 64.0156 96.5743 64.0563 95.1492C64.0563 94.684 64.1823 92.9626 65.4851 91.8228C66.9185 90.5714 69.2906 90.497 71.3684 91.6647L80.2681 94.991" fill="url(#paint7_linear_1911_1723)"/>
<path opacity="0.69" d="M74.3105 92.7095C74.6468 93.4035 75.0653 94.0548 75.5573 94.6495C78.1581 97.7944 81.3892 97.5385 82.5612 99.9204C82.9114 100.618 83.1869 101.753 82.6453 103.572C83.0926 103.291 83.5089 102.964 83.8873 102.595C84.1858 102.308 84.4606 101.997 84.7091 101.665L85.9278 97.3478C85.7501 96.0229 85.1978 94.7756 84.3356 93.7516C82.155 91.1929 78.9052 91.2719 78.4289 91.2952C76.9487 91.3652 75.5197 91.856 74.3105 92.7095Z" fill="#C52600" fill-opacity="0.7"/>
<path d="M113.172 29.9153C111.043 26.526 108.169 23.6627 104.767 21.5413C99.4675 18.4522 94.4714 18.3545 91.7118 18.3545C87.8363 18.3545 81.8642 20.3689 76.9334 24.0581C71.3302 28.2451 70.5785 36.1539 70.2329 38.0706C69.3411 53.6975 68.4446 65.6025 67.5527 81.2294C68.2531 83.9975 70.1069 89.4871 75.1824 93.5811C79.0066 96.6655 82.9942 97.6378 86.6269 98.4938C90.3556 99.4809 94.2314 99.796 98.0714 99.4243C101.956 99.0102 108.928 98.2659 112.546 92.9111C113.706 91.1548 114.416 89.1422 114.615 87.0493L116.996 49.9943C117.44 47.2448 118.523 38.3079 113.172 29.9153Z" fill="url(#paint8_linear_1911_1723)"/>
<path opacity="0.6" d="M98.4408 86.4429C101.09 85.775 103.872 85.841 106.486 86.6336C108.435 87.1331 110.2 88.1756 111.576 89.6389C112.194 90.3352 112.706 91.1191 113.093 91.9651C112.738 92.528 112.197 93.3607 111.487 94.3377C109.857 96.5754 108.788 97.5943 108.274 98.2502C105.099 102.321 109.974 109.644 107.92 111.007C106.691 111.821 103.25 110.225 102.354 107.838C101.378 105.275 103.754 102.944 102.512 99.2877C102.291 98.615 101.976 97.9763 101.579 97.3896L93.7715 95.3426" fill="#C52600" fill-opacity="0.7"/>
<path d="M98.7081 85.6582C101.218 85.9714 103.677 86.6111 106.02 87.561C108.318 88.4914 109.756 89.0962 111.11 90.5663C112.476 92.1316 113.358 94.0577 113.65 96.1118C113.963 97.8238 113.65 98.0611 113.015 103.714C112.548 108.101 112.604 109.091 111.586 110.227C110.49 111.323 109.007 111.948 107.454 111.967C104.124 112.013 102.173 109.222 101.911 108.743C101.79 108.514 101.693 108.274 101.622 108.026C101.52 107.663 101.481 107.286 101.505 106.91C101.794 104.202 101.972 102.118 102.075 101.076C102.1 100.8 102.091 100.521 102.047 100.248C101.93 99.5368 101.606 98.8763 101.113 98.3495L93.3057 96.2699" fill="url(#paint9_linear_1911_1723)"/>
<path opacity="0.69" d="M108.291 58.4441C108.174 60.4539 108.006 62.0496 107.917 62.8916C107.333 63.0638 106.834 63.1801 106.456 63.2545C105.533 63.4435 104.595 63.5478 103.654 63.5662C103.24 63.5662 102.81 63.5569 102.365 63.5383C98.2329 63.2778 95.3613 61.4401 92.9846 59.8956C90.5787 58.3463 88.4326 56.4294 86.625 54.2152C87.8309 51.4537 89.4388 48.8844 91.397 46.5902C93.8998 43.6779 98.429 38.3883 104.051 38.1697C104.441 38.1312 104.835 38.1406 105.223 38.1976C109.425 39.4723 108.58 53.7826 108.291 58.4441Z" fill="#C52600" fill-opacity="0.7"/>
<path d="M120.461 50.7355C119.159 54.462 116.677 57.6656 113.387 59.8632C113.107 60.0446 112.818 60.2214 112.514 60.3935C110.918 61.3109 109.184 61.9645 107.378 62.3288C106.028 62.6022 104.648 62.6976 103.274 62.6126C99.1412 62.3521 96.2696 60.5145 93.8929 58.9699C91.4953 57.4187 89.3572 55.5019 87.5566 53.2896C88.7625 50.528 90.3705 47.9587 92.3287 45.6646C94.8314 42.7523 99.3607 37.4627 104.983 37.244C105.373 37.2279 105.765 37.2372 106.155 37.2719C110.282 37.6395 113.21 40.7006 115.535 43.1337C115.587 43.1896 115.643 43.2454 115.689 43.3012C117.718 45.4715 119.335 47.9903 120.461 50.7355Z" fill="white" stroke="#FFFEF4" stroke-miterlimit="10"/>
<path d="M116.305 48.8374C116.305 53.3407 115.157 57.3417 113.387 59.8632C113.107 60.0446 112.817 60.2214 112.514 60.3935C110.918 61.3109 109.184 61.9645 107.378 62.3288C104.081 60.9844 101.606 55.4529 101.606 48.8374C101.606 43.9805 102.942 39.7051 104.959 37.244C105.35 37.2279 105.741 37.2372 106.131 37.2719C110.259 37.6395 113.186 40.7006 115.512 43.1337C115.563 43.1896 115.619 43.2454 115.666 43.3012C116.09 45.1163 116.304 46.9738 116.305 48.8374Z" fill="black" stroke="black" stroke-miterlimit="10"/>
<path d="M27.251 96.2319L56.0924 65.2733L69.0718 89.4488L27.251 96.2319Z" fill="#FFDE95"/>
<path d="M95.17 85.4044L64.291 116.688L69.0778 89.4422L95.17 85.4044Z" fill="#FFB430"/>
<path d="M27.2513 96.2274L69.0716 89.4443L64.2853 116.69L27.2513 96.2274Z" fill="#FFC557"/>
<path d="M94.8679 85.3457L68.7762 89.3835L55.7962 65.2082L94.8679 85.3457Z" fill="#FFC557"/>
<path opacity="0.69" d="M77.8475 64.6977C73.5413 63.7019 69.0263 63.7732 64.7596 64.9044C63.806 65.3172 62.9727 65.9338 62.3288 66.7029C61.6448 67.5348 61.1975 68.5114 61.0277 69.5437C60.6559 72.622 64.1161 74.0379 66.3944 79.2182C66.7781 80.0762 67.0966 80.9578 67.3476 81.8567L67.8242 83C68.6351 82.7498 69.3758 82.3368 69.9928 81.7907C70.4465 81.3781 70.8261 80.9017 71.1176 80.3791C72.2472 78.3739 71.213 77.4504 72.1519 76.1092C72.6285 75.4231 73.5818 74.9834 75.4358 74.1479C76.2707 73.776 77.1267 73.4457 78 73.1584L77.8475 64.6977Z" fill="#C52600" fill-opacity="0.7"/>
<path d="M78.8597 62.9303C76.3762 62.2366 73.7973 61.9275 71.2163 62.0143C69.1925 62.0759 67.1844 62.3836 65.2382 62.9303C65.1884 62.943 65.1399 62.9599 65.0931 62.9807C64.1386 63.4315 63.3118 64.105 62.6854 64.9419C62.059 65.7789 61.6521 66.7537 61.5007 67.7807C60.9662 70.3996 60.8588 73.0848 61.1826 75.7365C61.5381 78.5671 62.2023 79.6709 62.9367 80.4129C63.7428 81.2443 64.8067 81.7917 65.9632 81.9702C66.0942 81.9702 68.7698 82.3274 70.262 80.5686C70.9309 79.7717 71.0432 78.9198 71.1976 77.6053C71.3389 76.5196 71.3389 75.4207 71.1976 74.335C71.1813 74.2149 71.1904 74.0928 71.2243 73.9763C71.2582 73.8598 71.3163 73.7514 71.3948 73.6577C71.4733 73.5641 71.5706 73.4873 71.6808 73.432C71.7909 73.3768 71.9114 73.3443 72.0349 73.3365L79 72.9289" fill="url(#paint10_linear_1911_1723)"/>
<g opacity="0.2" filter="url(#filter1_f_1911_1723)">
<path d="M232.864 110.612L218.932 95.2787C217.232 93.4069 216.516 90.841 217.003 88.3591L222.998 57.7936C223.474 55.3647 225.048 53.2931 227.261 52.183L246.319 42.6198C249.527 41.0102 253.414 41.7339 255.828 44.39L269.603 59.549C271.304 61.4209 272.019 63.987 271.533 66.469L265.529 97.078C265.057 99.482 263.51 101.537 261.33 102.656L242.437 112.35C239.22 114 235.296 113.288 232.864 110.612Z" fill="#F6F95C"/>
</g>
<g opacity="0.2" filter="url(#filter2_f_1911_1723)">
<path d="M26.6008 90.7407L35.8585 72.3312C36.9948 70.0717 39.1326 68.4825 41.6237 68.0456L72.1648 62.6894C74.6028 62.2618 77.1014 62.9868 78.9318 64.6529L94.6177 78.9306C97.2718 81.3464 97.9923 85.2341 96.38 88.4406L87.228 106.642C86.0918 108.902 83.9539 110.491 81.4626 110.928L50.8778 116.292C48.4647 116.715 45.9908 116.009 44.1643 114.376L28.4164 100.299C25.7206 97.8895 24.9763 93.971 26.6008 90.7407Z" fill="#F6F95C"/>
</g>
<path d="M226.182 65.6616C226.316 65.7111 226.468 65.6342 226.521 65.4898C226.575 65.3453 226.51 65.1881 226.376 65.1385C226.242 65.089 226.09 65.1659 226.037 65.3103C225.983 65.4548 226.048 65.612 226.182 65.6616Z" fill="#FEFAD1"/>
<path d="M228.018 60.0487C228.269 60.1417 228.554 59.9973 228.655 59.726C228.755 59.4548 228.633 59.1595 228.382 59.0664C228.13 58.9734 227.845 59.1178 227.745 59.3891C227.644 59.6603 227.767 59.9556 228.018 60.0487Z" fill="#FEFAD1"/>
<path d="M228.236 62.4187C228.422 62.4876 228.633 62.3807 228.708 62.1799C228.782 61.9791 228.692 61.7605 228.506 61.6916C228.32 61.6227 228.109 61.7297 228.034 61.9305C227.96 62.1312 228.05 62.3499 228.236 62.4187Z" fill="#FEFAD1"/>
<path d="M225.725 58.2353C225.822 58.271 225.931 58.2156 225.969 58.1117C226.008 58.0078 225.961 57.8946 225.865 57.859C225.768 57.8233 225.659 57.8787 225.621 57.9826C225.582 58.0865 225.629 58.1997 225.725 58.2353Z" fill="#FEFAD1"/>
<path d="M227.715 54.6562C227.795 54.6858 227.886 54.6398 227.918 54.5535C227.95 54.4672 227.911 54.3732 227.831 54.3436C227.751 54.314 227.661 54.36 227.629 54.4463C227.597 54.5326 227.636 54.6266 227.715 54.6562Z" fill="#FEFAD1"/>
<path d="M235.614 59.3799C235.889 59.4816 236.2 59.3237 236.31 59.0272C236.42 58.7307 236.286 58.4079 236.012 58.3062C235.737 58.2045 235.426 58.3624 235.316 58.6589C235.206 58.9554 235.34 59.2782 235.614 59.3799Z" fill="#FEFAD1"/>
<path d="M233.916 60.6688C234.049 60.7179 234.199 60.6417 234.253 60.4984C234.306 60.3551 234.241 60.1992 234.108 60.15C233.976 60.1009 233.825 60.1772 233.772 60.3204C233.719 60.4637 233.784 60.6197 233.916 60.6688Z" fill="#FEFAD1"/>
<path d="M236.841 58.0938C236.932 58.1276 237.036 58.0751 237.072 57.9764C237.109 57.8778 237.064 57.7704 236.973 57.7366C236.882 57.7027 236.778 57.7553 236.741 57.8539C236.705 57.9525 236.749 58.0599 236.841 58.0938Z" fill="#FEFAD1"/>
<path d="M231.532 67.2446C231.897 67.38 232.312 67.1698 232.458 66.7753C232.604 66.3808 232.426 65.9512 232.061 65.8159C231.696 65.6805 231.281 65.8906 231.135 66.2852C230.989 66.6797 231.166 67.1093 231.532 67.2446Z" fill="#FEFAD1"/>
<path d="M227.802 82.8853C228.029 82.9693 228.286 82.839 228.377 82.5941C228.467 82.3493 228.357 82.0827 228.13 81.9988C227.904 81.9148 227.646 82.0452 227.556 82.29C227.465 82.5348 227.575 82.8014 227.802 82.8853Z" fill="#FEFAD1"/>
<path d="M230.658 79.3948C230.758 79.4316 230.871 79.3744 230.91 79.267C230.95 79.1595 230.902 79.0426 230.802 79.0057C230.703 78.9688 230.59 79.0261 230.55 79.1335C230.51 79.241 230.559 79.3579 230.658 79.3948Z" fill="#FEFAD1"/>
<path d="M225.055 76.8238C225.308 76.9174 225.595 76.772 225.696 76.499C225.797 76.226 225.674 75.9288 225.422 75.8351C225.169 75.7414 224.882 75.8868 224.781 76.1599C224.68 76.4329 224.803 76.7301 225.055 76.8238Z" fill="#FEFAD1"/>
<path d="M224.857 85.7312C225.139 85.8355 225.458 85.6735 225.571 85.3694C225.684 85.0653 225.547 84.7342 225.265 84.6298C224.983 84.5255 224.664 84.6875 224.551 84.9916C224.438 85.2957 224.575 85.6268 224.857 85.7312Z" fill="#FEFAD1"/>
<path d="M224.607 74.516C224.707 74.5532 224.822 74.4954 224.862 74.3868C224.902 74.2782 224.853 74.1599 224.752 74.1226C224.652 74.0854 224.538 74.1432 224.497 74.2518C224.457 74.3605 224.506 74.4787 224.607 74.516Z" fill="#FEFAD1"/>
<path d="M256.771 45.5782C257.132 45.7117 257.541 45.5044 257.685 45.1151C257.829 44.7259 257.654 44.3021 257.293 44.1685C256.933 44.035 256.524 44.2423 256.38 44.6316C256.235 45.0208 256.411 45.4446 256.771 45.5782Z" fill="#FEFAD1"/>
<path d="M261.598 62.0883C261.801 62.1636 262.032 62.0467 262.114 61.8271C262.195 61.6075 262.096 61.3685 261.893 61.2931C261.689 61.2178 261.458 61.3347 261.377 61.5543C261.296 61.7739 261.395 62.013 261.598 62.0883Z" fill="#FEFAD1"/>
<path d="M262.823 58.1931C262.928 58.232 263.047 58.1716 263.089 58.0583C263.131 57.945 263.08 57.8217 262.975 57.7828C262.87 57.7439 262.751 57.8043 262.709 57.9176C262.667 58.0309 262.718 58.1542 262.823 58.1931Z" fill="#FEFAD1"/>
<path d="M261.694 52.9145C261.817 52.96 261.956 52.8893 262.005 52.7566C262.055 52.6239 261.995 52.4795 261.872 52.434C261.749 52.3885 261.61 52.4591 261.56 52.5918C261.511 52.7245 261.571 52.869 261.694 52.9145Z" fill="#FEFAD1"/>
<path d="M259.386 59.2666C259.531 59.3206 259.697 59.2368 259.755 59.0795C259.813 58.9221 259.743 58.7508 259.597 58.6968C259.451 58.6429 259.286 58.7267 259.227 58.884C259.169 59.0414 259.24 59.2127 259.386 59.2666Z" fill="#FEFAD1"/>
<path d="M256.332 64.0289C256.468 64.079 256.621 64.0012 256.675 63.855C256.73 63.7088 256.664 63.5496 256.528 63.4995C256.393 63.4493 256.239 63.5272 256.185 63.6734C256.131 63.8196 256.197 63.9787 256.332 64.0289Z" fill="#FEFAD1"/>
<path d="M239.673 42.8092C239.75 42.8376 239.837 42.7935 239.868 42.7107C239.898 42.628 239.861 42.5378 239.784 42.5094C239.708 42.481 239.621 42.5251 239.59 42.6079C239.559 42.6907 239.597 42.7808 239.673 42.8092Z" fill="#FEFAD1"/>
<path d="M238.729 50.2589C238.951 50.3411 239.202 50.2135 239.291 49.974C239.38 49.7344 239.272 49.4736 239.05 49.3915C238.828 49.3093 238.577 49.4369 238.488 49.6764C238.399 49.9159 238.507 50.1767 238.729 50.2589Z" fill="#FEFAD1"/>
<path d="M235.003 52.2392C235.207 52.3145 235.437 52.1976 235.519 51.978C235.6 51.7584 235.501 51.5193 235.298 51.444C235.095 51.3687 234.864 51.4856 234.782 51.7052C234.701 51.9248 234.8 52.1638 235.003 52.2392Z" fill="#FEFAD1"/>
<path d="M234.778 49.0076C234.856 49.0369 234.946 48.9915 234.977 48.9064C235.009 48.8213 234.971 48.7286 234.892 48.6994C234.813 48.6702 234.723 48.7155 234.692 48.8006C234.66 48.8858 234.699 48.9784 234.778 49.0076Z" fill="#FEFAD1"/>
<path d="M231.138 49.5076C231.296 49.5664 231.477 49.4751 231.54 49.3037C231.604 49.1322 231.526 48.9456 231.368 48.8868C231.209 48.8279 231.029 48.9192 230.965 49.0907C230.902 49.2621 230.979 49.4488 231.138 49.5076Z" fill="#FEFAD1"/>
<path d="M231.672 54.7751C231.965 54.8837 232.297 54.7152 232.414 54.3987C232.532 54.0823 232.389 53.7377 232.096 53.6292C231.803 53.5206 231.47 53.6892 231.353 54.0056C231.236 54.3221 231.379 54.6666 231.672 54.7751Z" fill="#FEFAD1"/>
<path d="M254.089 47.5543C254.225 47.6047 254.38 47.5265 254.434 47.3798C254.488 47.233 254.422 47.0732 254.286 47.0228C254.15 46.9725 253.996 47.0506 253.942 47.1974C253.887 47.3442 253.953 47.504 254.089 47.5543Z" fill="#FEFAD1"/>
<path d="M245.542 40.3078C245.765 40.3902 246.017 40.2623 246.106 40.0222C246.195 39.782 246.087 39.5206 245.865 39.4382C245.642 39.3558 245.39 39.4837 245.301 39.7239C245.212 39.964 245.32 40.2254 245.542 40.3078Z" fill="#FEFAD1"/>
<path d="M258.05 41.2069C258.215 41.2679 258.402 41.1732 258.468 40.9953C258.533 40.8174 258.453 40.6237 258.289 40.5626C258.124 40.5016 257.937 40.5964 257.871 40.7743C257.805 40.9522 257.885 41.1458 258.05 41.2069Z" fill="#FEFAD1"/>
<path d="M248.492 47.3119C248.771 47.415 249.087 47.2549 249.198 46.9543C249.309 46.6537 249.174 46.3265 248.896 46.2233C248.617 46.1202 248.301 46.2803 248.19 46.5809C248.079 46.8815 248.214 47.2088 248.492 47.3119Z" fill="#FEFAD1"/>
<path d="M250.24 56.5889C250.472 56.6747 250.735 56.5415 250.827 56.2914C250.92 56.0413 250.807 55.769 250.576 55.6832C250.344 55.5974 250.081 55.7306 249.989 55.9807C249.896 56.2308 250.009 56.5031 250.24 56.5889Z" fill="#FEFAD1"/>
<path d="M252.297 58.1234C252.382 58.1548 252.478 58.1061 252.512 58.0145C252.546 57.9229 252.505 57.8232 252.42 57.7917C252.335 57.7603 252.239 57.8091 252.205 57.9007C252.171 57.9923 252.212 58.092 252.297 58.1234Z" fill="#FEFAD1"/>
<path d="M243.501 54.6813C243.632 54.7299 243.78 54.6545 243.833 54.513C243.885 54.3715 243.821 54.2175 243.69 54.1689C243.559 54.1204 243.411 54.1958 243.358 54.3373C243.306 54.4787 243.37 54.6328 243.501 54.6813Z" fill="#FEFAD1"/>
<path d="M243.869 50.6482C244.016 50.7027 244.183 50.618 244.242 50.4589C244.301 50.2998 244.23 50.1266 244.082 50.072C243.935 50.0174 243.768 50.1021 243.709 50.2612C243.65 50.4203 243.721 50.5936 243.869 50.6482Z" fill="#FEFAD1"/>
<path d="M253.779 49.6978C253.876 49.7341 253.988 49.6778 254.027 49.5721C254.066 49.4665 254.018 49.3514 253.92 49.3151C253.822 49.2789 253.711 49.3352 253.672 49.4409C253.633 49.5465 253.681 49.6616 253.779 49.6978Z" fill="#FEFAD1"/>
<path d="M253.756 45.6876C253.875 45.7317 254.01 45.6632 254.058 45.5346C254.105 45.406 254.048 45.2661 253.928 45.2219C253.809 45.1778 253.674 45.2463 253.627 45.3749C253.579 45.5035 253.637 45.6435 253.756 45.6876Z" fill="#FEFAD1"/>
<path d="M222.305 61.6997C222.413 61.7393 222.534 61.6777 222.577 61.5621C222.62 61.4464 222.568 61.3205 222.461 61.2808C222.353 61.2412 222.232 61.3027 222.189 61.4184C222.146 61.5341 222.198 61.66 222.305 61.6997Z" fill="#FEFAD1"/>
<path d="M244.02 44.5844C244.191 44.6478 244.386 44.5494 244.454 44.3644C244.523 44.1795 244.439 43.9781 244.268 43.9147C244.097 43.8512 243.902 43.9497 243.834 44.1347C243.765 44.3196 243.849 44.521 244.02 44.5844Z" fill="#FEFAD1"/>
<path d="M223.18 63.0579C223.414 63.1447 223.68 63.01 223.774 62.7569C223.867 62.5039 223.753 62.2284 223.519 62.1416C223.285 62.0547 223.019 62.1895 222.925 62.4426C222.831 62.6956 222.945 62.9711 223.18 63.0579Z" fill="#FEFAD1"/>
<path d="M61.1287 84.5327C61.0584 84.6529 60.8963 84.6887 60.7666 84.6129C60.6369 84.537 60.5887 84.3782 60.6589 84.258C60.7292 84.1379 60.8913 84.102 61.021 84.1779C61.1507 84.2537 61.1989 84.4126 61.1287 84.5327Z" fill="#FEFAD1"/>
<path d="M56.2644 81.4468C56.1325 81.6724 55.828 81.7398 55.5844 81.5974C55.3408 81.4549 55.2503 81.1565 55.3822 80.9309C55.5141 80.7053 55.8186 80.6379 56.0622 80.7804C56.3058 80.9229 56.3963 81.2212 56.2644 81.4468Z" fill="#FEFAD1"/>
<path d="M57.57 83.3625C57.4723 83.5295 57.2469 83.5794 57.0666 83.4739C56.8863 83.3685 56.8193 83.1476 56.9169 82.9806C57.0146 82.8136 57.2399 82.7637 57.4203 82.8692C57.6006 82.9746 57.6676 83.1955 57.57 83.3625Z" fill="#FEFAD1"/>
<path d="M56.8754 78.6549C56.8248 78.7414 56.7082 78.7672 56.6149 78.7126C56.5215 78.658 56.4868 78.5437 56.5374 78.4573C56.5879 78.3708 56.7046 78.345 56.7979 78.3996C56.8912 78.4542 56.9259 78.5685 56.8754 78.6549Z" fill="#FEFAD1"/>
<path d="M53.1607 77.1833C53.1188 77.255 53.0219 77.2765 52.9444 77.2312C52.8669 77.1858 52.8381 77.0909 52.8801 77.0191C52.922 76.9474 53.0189 76.9259 53.0964 76.9712C53.1739 77.0166 53.2027 77.1115 53.1607 77.1833Z" fill="#FEFAD1"/>
<path d="M50.1202 85.6442C49.976 85.8908 49.6432 85.9645 49.3769 85.8088C49.1106 85.653 49.0117 85.3269 49.1559 85.0803C49.3001 84.8337 49.6329 84.76 49.8991 84.9157C50.1654 85.0714 50.2644 85.3976 50.1202 85.6442Z" fill="#FEFAD1"/>
<path d="M52.2021 85.5541C52.1324 85.6733 51.9716 85.7089 51.8429 85.6336C51.7143 85.5584 51.6665 85.4008 51.7361 85.2817C51.8058 85.1625 51.9666 85.1269 52.0953 85.2021C52.2239 85.2774 52.2717 85.435 52.2021 85.5541Z" fill="#FEFAD1"/>
<path d="M48.3999 85.4289C48.352 85.5109 48.2413 85.5355 48.1527 85.4837C48.0641 85.4319 48.0312 85.3234 48.0792 85.2413C48.1271 85.1593 48.2378 85.1348 48.3264 85.1866C48.415 85.2384 48.4479 85.3469 48.3999 85.4289Z" fill="#FEFAD1"/>
<path d="M58.0656 89.0472C57.8737 89.3753 57.4309 89.4734 57.0765 89.2662C56.7222 89.0589 56.5905 88.625 56.7824 88.2968C56.9743 87.9687 57.4171 87.8706 57.7715 88.0778C58.1258 88.285 58.2575 88.719 58.0656 89.0472Z" fill="#FEFAD1"/>
<path d="M70.5562 98.5394C70.4371 98.743 70.1624 98.8039 69.9425 98.6753C69.7226 98.5467 69.6409 98.2774 69.76 98.0738C69.8791 97.8702 70.1538 97.8093 70.3737 97.9379C70.5936 98.0665 70.6753 98.3358 70.5562 98.5394Z" fill="#FEFAD1"/>
<path d="M66.246 97.6684C66.1938 97.7577 66.0732 97.7844 65.9767 97.728C65.8802 97.6716 65.8443 97.5534 65.8966 97.464C65.9489 97.3747 66.0694 97.348 66.1659 97.4044C66.2624 97.4608 66.2983 97.579 66.246 97.6684Z" fill="#FEFAD1"/>
<path d="M68.8789 92.2658C68.7461 92.4929 68.4397 92.5607 68.1945 92.4174C67.9494 92.274 67.8582 91.9737 67.991 91.7466C68.1238 91.5195 68.4302 91.4517 68.6754 91.5951C68.9206 91.7384 69.0117 92.0388 68.8789 92.2658Z" fill="#FEFAD1"/>
<path d="M74.5377 98.8641C74.3898 99.117 74.0484 99.1926 73.7753 99.0329C73.5022 98.8732 73.4006 98.5386 73.5486 98.2856C73.6965 98.0327 74.0378 97.9571 74.311 98.1168C74.5841 98.2766 74.6856 98.6111 74.5377 98.8641Z" fill="#FEFAD1"/>
<path d="M67.7947 90.2412C67.7419 90.3316 67.62 90.3586 67.5224 90.3015C67.4249 90.2445 67.3886 90.125 67.4415 90.0347C67.4943 89.9443 67.6162 89.9173 67.7137 89.9744C67.8113 90.0314 67.8475 90.1509 67.7947 90.2412Z" fill="#FEFAD1"/>
<path d="M25.6214 88.3197C25.4321 88.6434 24.9952 88.7402 24.6456 88.5357C24.296 88.3313 24.1661 87.9031 24.3554 87.5794C24.5448 87.2556 24.9816 87.1589 25.3312 87.3633C25.6808 87.5678 25.8107 87.9959 25.6214 88.3197Z" fill="#FEFAD1"/>
<path d="M32.1946 103.763C32.0878 103.946 31.8413 104 31.6441 103.885C31.4469 103.77 31.3736 103.528 31.4804 103.345C31.5872 103.163 31.8337 103.108 32.0309 103.223C32.2281 103.339 32.3014 103.58 32.1946 103.763Z" fill="#FEFAD1"/>
<path d="M28.8635 101.574C28.8084 101.668 28.6812 101.697 28.5794 101.637C28.4776 101.578 28.4398 101.453 28.4949 101.359C28.5501 101.264 28.6772 101.236 28.779 101.296C28.8808 101.355 28.9186 101.48 28.8635 101.574Z" fill="#FEFAD1"/>
<path d="M26.4504 96.8926C26.3859 97.003 26.237 97.0359 26.1178 96.9662C25.9986 96.8965 25.9544 96.7506 26.0189 96.6402C26.0834 96.5299 26.2323 96.4969 26.3515 96.5666C26.4707 96.6363 26.515 96.7822 26.4504 96.8926Z" fill="#FEFAD1"/>
<path d="M32.1173 100.264C32.0408 100.395 31.8642 100.434 31.7229 100.351C31.5816 100.268 31.5291 100.095 31.6056 99.9645C31.6821 99.8336 31.8587 99.7945 32 99.8772C32.1413 99.9598 32.1938 100.133 32.1173 100.264Z" fill="#FEFAD1"/>
<path d="M37.3721 101.958C37.301 102.08 37.1369 102.116 37.0057 102.039C36.8744 101.962 36.8256 101.802 36.8967 101.68C36.9678 101.559 37.1318 101.522 37.2631 101.599C37.3944 101.676 37.4432 101.837 37.3721 101.958Z" fill="#FEFAD1"/>
<path d="M36.8057 75.6542C36.7654 75.723 36.6725 75.7436 36.5982 75.7001C36.5238 75.6567 36.4962 75.5656 36.5365 75.4967C36.5767 75.4279 36.6696 75.4073 36.744 75.4508C36.8183 75.4943 36.846 75.5853 36.8057 75.6542Z" fill="#FEFAD1"/>
<path d="M42.1296 80.685C42.0131 80.8842 41.7443 80.9438 41.5291 80.8179C41.314 80.6921 41.234 80.4286 41.3506 80.2294C41.4671 80.0302 41.7359 79.9706 41.9511 80.0964C42.1662 80.2222 42.2461 80.4858 42.1296 80.685Z" fill="#FEFAD1"/>
<path d="M46.1663 79.8728C46.0595 80.0554 45.813 80.11 45.6158 79.9947C45.4186 79.8794 45.3453 79.6378 45.4521 79.4552C45.5589 79.2726 45.8054 79.218 46.0026 79.3333C46.1998 79.4486 46.2731 79.6902 46.1663 79.8728Z" fill="#FEFAD1"/>
<path d="M44.3357 77.2979C44.2943 77.3687 44.1987 77.3899 44.1223 77.3452C44.0458 77.3005 44.0174 77.2068 44.0588 77.136C44.1002 77.0652 44.1958 77.0441 44.2722 77.0888C44.3487 77.1335 44.3771 77.2271 44.3357 77.2979Z" fill="#FEFAD1"/>
<path d="M47.3919 75.4202C47.3085 75.5628 47.1161 75.6054 46.9622 75.5153C46.8082 75.4253 46.751 75.2367 46.8344 75.0941C46.9178 74.9515 47.1102 74.9089 47.2641 74.999C47.4181 75.089 47.4753 75.2776 47.3919 75.4202Z" fill="#FEFAD1"/>
<path d="M50.2456 79.7288C50.0917 79.992 49.7365 80.0707 49.4523 79.9045C49.1681 79.7383 49.0625 79.3902 49.2164 79.127C49.3703 78.8638 49.7255 78.7851 50.0097 78.9513C50.2939 79.1175 50.3995 79.4656 50.2456 79.7288Z" fill="#FEFAD1"/>
<path d="M28.8696 88.1462C28.7982 88.2683 28.6334 88.3048 28.5016 88.2277C28.3698 88.1506 28.3208 87.9891 28.3922 87.8671C28.4636 87.745 28.6283 87.7085 28.7602 87.7856C28.892 87.8627 28.941 88.0241 28.8696 88.1462Z" fill="#FEFAD1"/>
<path d="M30.8332 77.3935C30.7164 77.5932 30.4469 77.6529 30.2312 77.5268C30.0156 77.4007 29.9354 77.1365 30.0522 76.9368C30.169 76.7371 30.4385 76.6774 30.6542 76.8035C30.8698 76.9297 30.95 77.1938 30.8332 77.3935Z" fill="#FEFAD1"/>
<path d="M21.959 85.8011C21.8725 85.949 21.6728 85.9933 21.5131 85.8998C21.3533 85.8064 21.2939 85.6107 21.3804 85.4627C21.467 85.3148 21.6666 85.2706 21.8264 85.364C21.9862 85.4574 22.0455 85.6531 21.959 85.8011Z" fill="#FEFAD1"/>
<path d="M32.9453 84.4966C32.7991 84.7466 32.4618 84.8213 32.1918 84.6634C31.9218 84.5055 31.8215 84.1749 31.9677 83.9249C32.1139 83.6748 32.4513 83.6001 32.7212 83.758C32.9912 83.9159 33.0915 84.2466 32.9453 84.4966Z" fill="#FEFAD1"/>
<path d="M37.3617 92.5843C37.2401 92.7923 36.9594 92.8544 36.7347 92.7231C36.5101 92.5917 36.4266 92.3166 36.5483 92.1086C36.6699 91.9006 36.9506 91.8384 37.1753 91.9698C37.3999 92.1011 37.4834 92.3762 37.3617 92.5843Z" fill="#FEFAD1"/>
<path d="M36.7602 95.0089C36.7156 95.0851 36.6128 95.1078 36.5306 95.0597C36.4483 95.0116 36.4178 94.9109 36.4623 94.8347C36.5069 94.7585 36.6097 94.7358 36.6919 94.7839C36.7742 94.832 36.8047 94.9327 36.7602 95.0089Z" fill="#FEFAD1"/>
<path d="M41.2701 86.9651C41.2013 87.0828 41.0425 87.118 40.9154 87.0437C40.7884 86.9694 40.7411 86.8137 40.81 86.696C40.8788 86.5783 41.0376 86.5432 41.1647 86.6175C41.2917 86.6918 41.339 86.8474 41.2701 86.9651Z" fill="#FEFAD1"/>
<path d="M38.4926 84.1604C38.4152 84.2927 38.2366 84.3323 38.0937 84.2487C37.9508 84.1651 37.8977 83.9901 37.9751 83.8578C38.0525 83.7254 38.2311 83.6859 38.374 83.7695C38.5169 83.853 38.57 84.028 38.4926 84.1604Z" fill="#FEFAD1"/>
<path d="M30.4333 89.5667C30.3819 89.6546 30.2633 89.6808 30.1683 89.6253C30.0734 89.5698 30.0382 89.4536 30.0896 89.3657C30.141 89.2778 30.2596 89.2515 30.3545 89.307C30.4494 89.3625 30.4847 89.4788 30.4333 89.5667Z" fill="#FEFAD1"/>
<path d="M27.9671 86.5314C27.9045 86.6384 27.7602 86.6703 27.6447 86.6028C27.5293 86.5353 27.4863 86.3938 27.5489 86.2869C27.6114 86.1799 27.7557 86.148 27.8712 86.2155C27.9867 86.2831 28.0296 86.4245 27.9671 86.5314Z" fill="#FEFAD1"/>
<path d="M61.5985 79.1534C61.5423 79.2496 61.4125 79.2784 61.3086 79.2176C61.2047 79.1569 61.1661 79.0297 61.2224 78.9335C61.2786 78.8373 61.4084 78.8085 61.5123 78.8693C61.6162 78.93 61.6548 79.0572 61.5985 79.1534Z" fill="#FEFAD1"/>
<path d="M34.6281 79.6771C34.5381 79.831 34.3305 79.8769 34.1645 79.7798C33.9984 79.6827 33.9366 79.4792 34.0266 79.3254C34.1165 79.1716 34.3241 79.1256 34.4902 79.2227C34.6563 79.3199 34.718 79.5233 34.6281 79.6771Z" fill="#FEFAD1"/>
<path d="M61.7847 80.7105C61.6616 80.921 61.3776 80.9838 61.1504 80.851C60.9231 80.7181 60.8386 80.4397 60.9617 80.2292C61.0848 80.0188 61.3688 79.9559 61.5961 80.0888C61.8233 80.2217 61.9078 80.5 61.7847 80.7105Z" fill="#FEFAD1"/>
<path d="M43.5173 68.2759C43.4471 68.396 43.285 68.4319 43.1553 68.3561C43.0256 68.2802 42.9774 68.1213 43.0476 68.0012C43.1179 67.8811 43.28 67.8452 43.4097 67.921C43.5394 67.9969 43.5876 68.1558 43.5173 68.2759Z" fill="#FEFAD1" fill-opacity="0.6"/>
<path d="M38.6531 65.1895C38.5211 65.4151 38.2167 65.4825 37.9731 65.34C37.7295 65.1976 37.639 64.8992 37.7709 64.6736C37.9028 64.448 38.2072 64.3806 38.4509 64.5231C38.6945 64.6655 38.785 64.9639 38.6531 65.1895Z" fill="#FEFAD1" fill-opacity="0.6"/>
<path d="M39.9586 67.1052C39.861 67.2722 39.6356 67.322 39.4553 67.2166C39.275 67.1111 39.2079 66.8903 39.3056 66.7233C39.4033 66.5563 39.6286 66.5064 39.8089 66.6118C39.9893 66.7173 40.0563 66.9382 39.9586 67.1052Z" fill="#FEFAD1" fill-opacity="0.6"/>
<path d="M39.264 62.3976C39.2135 62.484 39.0969 62.5099 39.0035 62.4553C38.9102 62.4007 38.8755 62.2864 38.9261 62.2C38.9766 62.1135 39.0932 62.0877 39.1866 62.1423C39.2799 62.1969 39.3146 62.3112 39.264 62.3976Z" fill="#FEFAD1" fill-opacity="0.6"/>
<path d="M35.5494 60.9264C35.5074 60.9982 35.4106 61.0196 35.3331 60.9743C35.2556 60.929 35.2268 60.8341 35.2687 60.7623C35.3107 60.6905 35.4076 60.6691 35.4851 60.7144C35.5626 60.7597 35.5914 60.8547 35.5494 60.9264Z" fill="#FEFAD1" fill-opacity="0.6"/>
<path d="M32.5098 69.3873C32.3656 69.6339 32.0328 69.7076 31.7666 69.5519C31.5003 69.3962 31.4013 69.0701 31.5455 68.8235C31.6897 68.5769 32.0225 68.5032 32.2888 68.6589C32.5551 68.8146 32.654 69.1407 32.5098 69.3873Z" fill="#FEFAD1" fill-opacity="0.6"/>
<path d="M34.5927 69.2973C34.523 69.4164 34.3622 69.452 34.2336 69.3768C34.1049 69.3016 34.0571 69.144 34.1268 69.0248C34.1964 68.9057 34.3572 68.8701 34.4859 68.9453C34.6145 69.0205 34.6624 69.1781 34.5927 69.2973Z" fill="#FEFAD1" fill-opacity="0.6"/>
<path d="M30.7886 69.1721C30.7406 69.2541 30.6299 69.2786 30.5414 69.2268C30.4528 69.175 30.4198 69.0665 30.4678 68.9845C30.5158 68.9024 30.6265 68.8779 30.7151 68.9297C30.8037 68.9815 30.8366 69.09 30.7886 69.1721Z" fill="#FEFAD1" fill-opacity="0.6"/>
<path d="M40.4552 72.7908C40.2633 73.119 39.8205 73.217 39.4662 73.0098C39.1119 72.8026 38.9802 72.3686 39.1721 72.0405C39.364 71.7123 39.8068 71.6143 40.1611 71.8215C40.5154 72.0287 40.6471 72.4627 40.4552 72.7908Z" fill="#FEFAD1" fill-opacity="0.6"/>
<path d="M52.9449 82.2826C52.8258 82.4862 52.551 82.5471 52.3312 82.4185C52.1113 82.2899 52.0296 82.0206 52.1486 81.8169C52.2677 81.6133 52.5425 81.5525 52.7624 81.6811C52.9823 81.8096 53.064 82.079 52.9449 82.2826Z" fill="#FEFAD1" fill-opacity="0.6"/>
<path d="M48.6347 81.4115C48.5825 81.5009 48.4619 81.5276 48.3654 81.4712C48.2689 81.4148 48.233 81.2966 48.2853 81.2072C48.3375 81.1178 48.4581 81.0912 48.5546 81.1476C48.6511 81.204 48.687 81.3222 48.6347 81.4115Z" fill="#FEFAD1" fill-opacity="0.6"/>
<path d="M51.2676 76.009C51.1348 76.2361 50.8284 76.3039 50.5832 76.1605C50.338 76.0171 50.2469 75.7168 50.3797 75.4898C50.5125 75.2627 50.8189 75.1948 51.0641 75.3382C51.3093 75.4816 51.4004 75.7819 51.2676 76.009Z" fill="#FEFAD1" fill-opacity="0.6"/>
<path d="M56.9263 82.6072C56.7784 82.8602 56.4371 82.9358 56.164 82.776C55.8908 82.6163 55.7893 82.2818 55.9372 82.0288C56.0852 81.7759 56.4265 81.7003 56.6996 81.86C56.9728 82.0197 57.0743 82.3543 56.9263 82.6072Z" fill="#FEFAD1" fill-opacity="0.6"/>
<path d="M50.1834 73.9839C50.1305 74.0743 50.0086 74.1013 49.9111 74.0442C49.8136 73.9872 49.7773 73.8677 49.8301 73.7773C49.883 73.687 50.0049 73.66 50.1024 73.7171C50.2 73.7741 50.2362 73.8936 50.1834 73.9839Z" fill="#FEFAD1" fill-opacity="0.6"/>
<path d="M8.01009 72.0629C7.82076 72.3866 7.38389 72.4833 7.0343 72.2789C6.68471 72.0745 6.55479 71.6463 6.74411 71.3225C6.93344 70.9988 7.37031 70.9021 7.7199 71.1065C8.06949 71.3109 8.19941 71.7391 8.01009 72.0629Z" fill="#FEFAD1" fill-opacity="0.6"/>
<path d="M14.5833 87.5061C14.4765 87.6888 14.23 87.7433 14.0328 87.628C13.8356 87.5127 13.7623 87.2711 13.8691 87.0885C13.9759 86.9059 14.2224 86.8513 14.4196 86.9666C14.6168 87.0819 14.6901 87.3235 14.5833 87.5061Z" fill="#FEFAD1" fill-opacity="0.6"/>
<path d="M11.2521 85.3173C11.197 85.4115 11.0698 85.4397 10.9681 85.3802C10.8663 85.3207 10.8285 85.196 10.8836 85.1018C10.9387 85.0075 11.0659 84.9794 11.1677 85.0389C11.2694 85.0984 11.3072 85.2231 11.2521 85.3173Z" fill="#FEFAD1" fill-opacity="0.6"/>
<path d="M8.8391 80.6358C8.77457 80.7461 8.62565 80.7791 8.50649 80.7094C8.38732 80.6397 8.34303 80.4938 8.40756 80.3834C8.4721 80.2731 8.62102 80.2401 8.74018 80.3098C8.85935 80.3795 8.90364 80.5254 8.8391 80.6358Z" fill="#FEFAD1" fill-opacity="0.6"/>
<path d="M14.507 84.0069C14.4304 84.1378 14.2539 84.1769 14.1125 84.0942C13.9712 84.0116 13.9187 83.8385 13.9952 83.7076C14.0718 83.5768 14.2483 83.5377 14.3897 83.6203C14.531 83.703 14.5835 83.876 14.507 84.0069Z" fill="#FEFAD1" fill-opacity="0.6"/>
<path d="M19.7608 85.7013C19.6897 85.8229 19.5256 85.8592 19.3943 85.7824C19.263 85.7057 19.2142 85.5448 19.2853 85.4233C19.3564 85.3017 19.5205 85.2654 19.6518 85.3421C19.7831 85.4189 19.8319 85.5797 19.7608 85.7013Z" fill="#FEFAD1" fill-opacity="0.6"/>
<path d="M19.1944 59.3969C19.1541 59.4657 19.0612 59.4863 18.9869 59.4428C18.9125 59.3993 18.8849 59.3083 18.9251 59.2394C18.9654 59.1706 19.0583 59.15 19.1327 59.1935C19.207 59.2369 19.2346 59.328 19.1944 59.3969Z" fill="#FEFAD1" fill-opacity="0.6"/>
<path d="M24.5183 64.4277C24.4018 64.6269 24.1329 64.6864 23.9178 64.5606C23.7027 64.4348 23.6227 64.1713 23.7392 63.9721C23.8557 63.7728 24.1246 63.7133 24.3397 63.8391C24.5549 63.9649 24.6348 64.2284 24.5183 64.4277Z" fill="#FEFAD1" fill-opacity="0.6"/>
<path d="M28.554 63.6155C28.4472 63.7981 28.2007 63.8527 28.0035 63.7374C27.8063 63.622 27.733 63.3805 27.8398 63.1979C27.9466 63.0152 28.1931 62.9607 28.3903 63.076C28.5875 63.1913 28.6608 63.4329 28.554 63.6155Z" fill="#FEFAD1" fill-opacity="0.6"/>
<path d="M26.7253 61.0406C26.6839 61.1114 26.5884 61.1326 26.5119 61.0879C26.4355 61.0432 26.4071 60.9495 26.4485 60.8787C26.4899 60.8079 26.5854 60.7867 26.6619 60.8314C26.7383 60.8762 26.7667 60.9698 26.7253 61.0406Z" fill="#FEFAD1" fill-opacity="0.6"/>
<path d="M29.7806 59.1633C29.6972 59.3059 29.5048 59.3485 29.3508 59.2585C29.1969 59.1685 29.1397 58.9799 29.223 58.8373C29.3064 58.6947 29.4988 58.6521 29.6528 58.7421C29.8068 58.8322 29.864 59.0207 29.7806 59.1633Z" fill="#FEFAD1" fill-opacity="0.6"/>
<path d="M32.6343 63.472C32.4804 63.7352 32.1252 63.8138 31.841 63.6476C31.5568 63.4814 31.4512 63.1333 31.6051 62.8701C31.759 62.6069 32.1142 62.5283 32.3984 62.6945C32.6826 62.8607 32.7882 63.2088 32.6343 63.472Z" fill="#FEFAD1" fill-opacity="0.6"/>
<path d="M11.2592 71.8894C11.1878 72.0115 11.0231 72.0479 10.8913 71.9709C10.7595 71.8938 10.7105 71.7323 10.7819 71.6102C10.8533 71.4881 11.018 71.4517 11.1498 71.5287C11.2816 71.6058 11.3306 71.7673 11.2592 71.8894Z" fill="#FEFAD1" fill-opacity="0.6"/>
<path d="M13.2218 61.1367C13.1051 61.3364 12.8355 61.3961 12.6199 61.27C12.4042 61.1438 12.3241 60.8797 12.4409 60.68C12.5577 60.4803 12.8272 60.4206 13.0428 60.5467C13.2585 60.6728 13.3386 60.937 13.2218 61.1367Z" fill="#FEFAD1" fill-opacity="0.6"/>
<path d="M4.34768 69.5442C4.26115 69.6922 4.06149 69.7364 3.90172 69.643C3.74195 69.5496 3.68258 69.3539 3.76911 69.2059C3.85564 69.0579 4.0553 69.0137 4.21507 69.1072C4.37483 69.2006 4.4342 69.3963 4.34768 69.5442Z" fill="#FEFAD1" fill-opacity="0.6"/>
<path d="M15.333 68.2397C15.1868 68.4898 14.8494 68.5645 14.5795 68.4066C14.3095 68.2487 14.2092 67.918 14.3554 67.668C14.5016 67.418 14.839 67.3433 15.1089 67.5012C15.3789 67.6591 15.4792 67.9897 15.333 68.2397Z" fill="#FEFAD1" fill-opacity="0.6"/>
<path d="M19.7504 76.3274C19.6287 76.5354 19.348 76.5976 19.1234 76.4662C18.8988 76.3349 18.8153 76.0598 18.937 75.8518C19.0586 75.6437 19.3393 75.5816 19.5639 75.7129C19.7886 75.8443 19.872 76.1194 19.7504 76.3274Z" fill="#FEFAD1" fill-opacity="0.6"/>
<path d="M19.1508 78.7521C19.1063 78.8282 19.0035 78.851 18.9212 78.8029C18.839 78.7548 18.8084 78.654 18.8529 78.5779C18.8975 78.5017 19.0003 78.4789 19.0825 78.527C19.1648 78.5751 19.1954 78.6759 19.1508 78.7521Z" fill="#FEFAD1" fill-opacity="0.6"/>
<path d="M23.6598 70.7083C23.591 70.826 23.4322 70.8611 23.3051 70.7868C23.178 70.7125 23.1308 70.5569 23.1996 70.4392C23.2684 70.3215 23.4272 70.2863 23.5543 70.3606C23.6814 70.4349 23.7286 70.5906 23.6598 70.7083Z" fill="#FEFAD1" fill-opacity="0.6"/>
<path d="M20.8813 67.9035C20.8039 68.0359 20.6253 68.0754 20.4824 67.9919C20.3395 67.9083 20.2864 67.7333 20.3638 67.6009C20.4412 67.4686 20.6197 67.4291 20.7626 67.5126C20.9055 67.5962 20.9586 67.7712 20.8813 67.9035Z" fill="#FEFAD1" fill-opacity="0.6"/>
<path d="M12.8229 73.3098C12.7715 73.3977 12.6529 73.424 12.558 73.3685C12.4631 73.313 12.4278 73.1967 12.4792 73.1088C12.5306 73.021 12.6492 72.9947 12.7441 73.0502C12.839 73.1057 12.8743 73.2219 12.8229 73.3098Z" fill="#FEFAD1" fill-opacity="0.6"/>
<path d="M10.3557 70.2746C10.2932 70.3815 10.1489 70.4135 10.0334 70.346C9.91793 70.2784 9.87502 70.137 9.93755 70.0301C10.0001 69.9231 10.1444 69.8912 10.2599 69.9587C10.3753 70.0262 10.4183 70.1677 10.3557 70.2746Z" fill="#FEFAD1" fill-opacity="0.6"/>
<path d="M43.9872 62.8966C43.9309 62.9928 43.8011 63.0215 43.6973 62.9608C43.5934 62.9 43.5548 62.7728 43.611 62.6766C43.6673 62.5804 43.7971 62.5517 43.901 62.6124C44.0048 62.6732 44.0435 62.8004 43.9872 62.8966Z" fill="#FEFAD1" fill-opacity="0.6"/>
<path d="M17.0177 63.4198C16.9278 63.5736 16.7202 63.6196 16.5541 63.5225C16.388 63.4253 16.3263 63.2219 16.4162 63.0681C16.5062 62.9142 16.7137 62.8683 16.8798 62.9654C17.0459 63.0625 17.1077 63.266 17.0177 63.4198Z" fill="#FEFAD1" fill-opacity="0.6"/>
<path d="M44.1734 64.4537C44.0503 64.6641 43.7663 64.727 43.539 64.5941C43.3118 64.4612 43.2273 64.1829 43.3504 63.9724C43.4735 63.7619 43.7575 63.699 43.9847 63.8319C44.212 63.9648 44.2964 64.2432 44.1734 64.4537Z" fill="#FEFAD1" fill-opacity="0.6"/>
</g>
<defs>
<filter id="filter0_f_1911_1723" x="33.1303" y="103.551" width="102.759" height="22.2233" filterUnits="userSpaceOnUse" color-interpolation-filters="sRGB">
<feFlood flood-opacity="0" result="BackgroundImageFix"/>
<feBlend mode="normal" in="SourceGraphic" in2="BackgroundImageFix" result="shape"/>
<feGaussianBlur stdDeviation="4.30889" result="effect1_foregroundBlur_1911_1723"/>
</filter>
<filter id="filter1_f_1911_1723" x="200.854" y="25.77" width="86.8291" height="103.462" filterUnits="userSpaceOnUse" color-interpolation-filters="sRGB">
<feFlood flood-opacity="0" result="BackgroundImageFix"/>
<feBlend mode="normal" in="SourceGraphic" in2="BackgroundImageFix" result="shape"/>
<feGaussianBlur stdDeviation="8" result="effect1_foregroundBlur_1911_1723"/>
</filter>
<filter id="filter2_f_1911_1723" x="15.748" y="52.5688" width="91.4854" height="73.8433" filterUnits="userSpaceOnUse" color-interpolation-filters="sRGB">
<feFlood flood-opacity="0" result="BackgroundImageFix"/>
<feBlend mode="normal" in="SourceGraphic" in2="BackgroundImageFix" result="shape"/>
<feGaussianBlur stdDeviation="5" result="effect1_foregroundBlur_1911_1723"/>
</filter>
<linearGradient id="paint0_linear_1911_1723" x1="210.233" y1="97.1818" x2="230.723" y2="92.2519" gradientUnits="userSpaceOnUse">
<stop stop-color="#01AD6C"/>
<stop offset="1" stop-color="#1FF073"/>
</linearGradient>
<linearGradient id="paint1_linear_1911_1723" x1="210.233" y1="97.1818" x2="230.723" y2="92.2519" gradientUnits="userSpaceOnUse">
<stop stop-color="#01AD6C"/>
<stop offset="1" stop-color="#1FF073"/>
</linearGradient>
<linearGradient id="paint2_linear_1911_1723" x1="172.392" y1="120.995" x2="151.732" y2="119.662" gradientUnits="userSpaceOnUse">
<stop stop-color="#01AD6C"/>
<stop offset="1" stop-color="#1FF073"/>
</linearGradient>
<linearGradient id="paint3_linear_1911_1723" x1="194.387" y1="63.0184" x2="179.725" y2="119" gradientUnits="userSpaceOnUse">
<stop stop-color="#1FF073"/>
<stop offset="1" stop-color="#04795D"/>
</linearGradient>
<linearGradient id="paint4_linear_1911_1723" x1="165.633" y1="93.9647" x2="170.376" y2="102.7" gradientUnits="userSpaceOnUse">
<stop stop-color="#20AD78"/>
<stop offset="0.929244" stop-color="#1FF073"/>
</linearGradient>
<linearGradient id="paint5_linear_1911_1723" x1="200.383" y1="116.342" x2="200.383" y2="143" gradientUnits="userSpaceOnUse">
<stop stop-color="#06805E"/>
<stop offset="1" stop-color="#1FF073"/>
</linearGradient>
<linearGradient id="paint6_linear_1911_1723" x1="114.715" y1="79.7213" x2="125.311" y2="71.3329" gradientUnits="userSpaceOnUse">
<stop stop-color="#EA5547"/>
<stop offset="1" stop-color="#FF7171"/>
</linearGradient>
<linearGradient id="paint7_linear_1911_1723" x1="77.1886" y1="102.24" x2="82.9281" y2="94.2931" gradientUnits="userSpaceOnUse">
<stop stop-color="#FF7171"/>
<stop offset="0.746441" stop-color="#EA5547"/>
</linearGradient>
<linearGradient id="paint8_linear_1911_1723" x1="92.4734" y1="18.3545" x2="92.4734" y2="99.5754" gradientUnits="userSpaceOnUse">
<stop stop-color="#FF7171"/>
<stop offset="1" stop-color="#E85345"/>
</linearGradient>
<linearGradient id="paint9_linear_1911_1723" x1="111.626" y1="107.533" x2="95.2904" y2="95.1712" gradientUnits="userSpaceOnUse">
<stop stop-color="#FF7171"/>
<stop offset="1" stop-color="#EB574A"/>
</linearGradient>
<linearGradient id="paint10_linear_1911_1723" x1="60.5581" y1="64.5768" x2="83.4053" y2="75.7536" gradientUnits="userSpaceOnUse">
<stop offset="0.0666008" stop-color="#FF7171"/>
<stop offset="1" stop-color="#EA5548"/>
</linearGradient>
<clipPath id="clip0_1911_1723">
<rect width="286" height="167" fill="white"/>
</clipPath>
</defs>
</svg>
