<svg width="226" height="106" viewBox="0 0 226 106" fill="none" xmlns="http://www.w3.org/2000/svg">
<g clip-path="url(#clip0_2048_2832)">
<path d="M101.691 58.7856C102.661 61.537 99.8644 63.589 98.218 64.0624C96.5717 64.5359 94.1056 64.412 90.1898 61.5585C88.6112 60.4083 86.018 57.5891 86.018 57.5891C86.018 57.5891 87.6358 55.5706 88.9275 52.8308C90.4692 49.561 90.7772 47.4862 90.7772 47.4862C90.7772 47.4862 92.2177 50.892 94.8812 53.0794C97.5885 55.3026 100.964 56.7211 101.691 58.7856Z" fill="url(#paint0_linear_2048_2832)"/>
<path d="M101.691 58.7856C102.661 61.537 99.8644 63.589 98.218 64.0624C96.5717 64.5359 94.1056 64.412 90.1898 61.5585C88.6112 60.4083 86.018 57.5891 86.018 57.5891C86.018 57.5891 87.6358 55.5706 88.9275 52.8308C90.4692 49.561 90.7772 47.4862 90.7772 47.4862C90.7772 47.4862 92.2177 50.892 94.8812 53.0794C97.5885 55.3026 100.964 56.7211 101.691 58.7856Z" fill="url(#paint1_linear_2048_2832)"/>
<path d="M92.6716 50.709C92.6716 50.709 92.1072 54.5901 91.4982 56.1913C90.8892 57.7924 89.2298 60.775 89.2298 60.775C88.9371 60.5616 89.5694 61.0745 89.2298 60.775C87.7385 59.4595 86.018 57.5891 86.018 57.5891C86.018 57.5891 87.6358 55.5706 88.9275 52.8308C90.4692 49.561 90.7772 47.4862 90.7772 47.4862C90.7772 47.4862 91.4308 49.0316 92.6716 50.709Z" fill="#007156"/>
<path d="M92.6716 50.709C92.6716 50.709 92.1072 54.5901 91.4982 56.1913C90.8892 57.7924 89.2298 60.775 89.2298 60.775C88.9371 60.5616 89.5694 61.0745 89.2298 60.775C87.7385 59.4595 86.018 57.5891 86.018 57.5891C86.018 57.5891 87.6358 55.5706 88.9275 52.8308C90.4692 49.561 90.7772 47.4862 90.7772 47.4862C90.7772 47.4862 91.4308 49.0316 92.6716 50.709Z" fill="#007156"/>
<path d="M36.8989 78.3103L39.1779 62.682C40.3862 62.9941 41.2151 62.3607 42.9666 62.8401C44.8435 63.354 47.2901 64.1455 47.77 64.6672C48.8073 65.7949 52.1903 62.683 53.3406 61.1045L64.0525 64.2626C64.0299 64.8038 61.0752 70.6445 56.0458 74.2299C52.9425 75.8354 47.897 74.6126 45.7622 73.8006C44.3547 76.3443 39.2669 77.8669 36.8989 78.3103Z" fill="url(#paint2_linear_2048_2832)"/>
<path d="M53.3406 61.1045L64.0526 64.2627C64.0386 64.597 62.9059 66.9533 60.8565 69.5511C60.8565 69.5511 57.5349 67.9994 55.8209 66.63C54.107 65.2605 52.0787 62.5378 52.0787 62.5378C52.596 62.0241 53.043 61.513 53.3406 61.1045Z" fill="#007156"/>
<circle cx="68.6997" cy="43.8533" r="24.9189" transform="rotate(2.39048 68.6997 43.8533)" fill="url(#paint3_linear_2048_2832)"/>
<path d="M48.6527 58.7785L50.1134 60.4661C50.1134 60.4661 50.582 57.7878 51.8952 56.7451C51.8952 56.7451 52.853 55.5832 53.6109 54.6099C55.3942 52.3196 58.4801 50.6684 58.4801 50.6684C55.8888 51.994 53.1601 51.0455 50.3861 53.9331C49.2173 55.1497 48.7205 57.1548 48.6527 58.7785Z" fill="#007156"/>
<path d="M46.6213 63.9993C45.4932 66.9879 42.6819 67.1274 40.5548 65.9411C38.4278 64.7548 38.2709 62.0045 39.2912 57.1082C40.3115 52.212 44.9764 46.9192 46.2896 45.8765C50.229 42.7484 52.9882 42.8635 55.1406 42.4046C55.1406 42.4046 57.8936 41.6218 59.9833 43.7043C62.073 45.7869 60.2979 49.2051 60.2979 49.2051C58.0108 51.8534 54.9074 51.1709 51.3555 54.8681C48.525 57.8144 47.8449 60.7579 46.6213 63.9993Z" fill="url(#paint4_linear_2048_2832)"/>
<rect x="69.8027" y="43.4121" width="15.7175" height="16.2181" rx="2" transform="rotate(-44.2664 69.8027 43.4121)" fill="black"/>
<path fill-rule="evenodd" clip-rule="evenodd" d="M72.5631 40.7212L75.8977 37.4709C76.2593 37.4138 76.6378 37.3911 77.0266 37.4073C79.418 37.5071 81.2959 39.042 81.221 40.8355C81.1461 42.629 79.1469 44.0021 76.7555 43.9022C74.4748 43.807 72.6611 42.4065 72.5631 40.7212Z" fill="white"/>
<path d="M91.9698 83.8623C89.241 84.2906 79.972 85.5303 75.0556 86.4094C74.863 84.857 74.0264 79.4425 71.764 74.3439L66.75 66.0972C66.3101 65.4215 65.9366 64.8211 65.6758 64.3303L79.7481 64.9178C82.8148 69.3833 84.6563 72.894 85.2273 76.5325C87.3742 77.0558 91.1355 82.201 91.9698 83.8623Z" fill="url(#paint5_linear_2048_2832)"/>
<path d="M126.001 85.0581L170.881 110.991V51.9832C170.881 41.5952 170.881 32.0647 165.22 21.6806C159.531 9.73196 126.001 -8.66585 126.001 26.0882V85.0581Z" fill="url(#paint6_linear_2048_2832)"/>
<path d="M126.369 85.2713C126.141 85.1396 126 84.8962 126 84.6329V26.0885C126 2.64963 141.247 3.44043 154.207 10.808C142.305 5.97101 133.184 8.55958 133.184 28.9061V88.245C133.184 88.7505 133.096 88.8542 132.771 88.8542L126.369 85.2713Z" fill="#281847"/>
</g>
<defs>
<linearGradient id="paint0_linear_2048_2832" x1="87.8676" y1="52.2444" x2="101.533" y2="62.5743" gradientUnits="userSpaceOnUse">
<stop stop-color="#01AD6C"/>
<stop offset="1" stop-color="#1FF073"/>
</linearGradient>
<linearGradient id="paint1_linear_2048_2832" x1="87.8676" y1="52.2444" x2="101.533" y2="62.5743" gradientUnits="userSpaceOnUse">
<stop stop-color="#01AD6C"/>
<stop offset="1" stop-color="#1FF073"/>
</linearGradient>
<linearGradient id="paint2_linear_2048_2832" x1="56.3169" y1="67.735" x2="39.5836" y2="65.952" gradientUnits="userSpaceOnUse">
<stop stop-color="#01AD6C"/>
<stop offset="1" stop-color="#1FF073"/>
</linearGradient>
<linearGradient id="paint3_linear_2048_2832" x1="75.2003" y1="21.1013" x2="63.2825" y2="66.6054" gradientUnits="userSpaceOnUse">
<stop stop-color="#1FF073"/>
<stop offset="1" stop-color="#04795D"/>
</linearGradient>
<linearGradient id="paint4_linear_2048_2832" x1="51.7442" y1="45.5554" x2="55.3005" y2="52.8104" gradientUnits="userSpaceOnUse">
<stop stop-color="#20AD78"/>
<stop offset="0.929244" stop-color="#1FF073"/>
</linearGradient>
<linearGradient id="paint5_linear_2048_2832" x1="79.2069" y1="64.8952" x2="78.3031" y2="86.545" gradientUnits="userSpaceOnUse">
<stop stop-color="#06805E"/>
<stop offset="1" stop-color="#1FF073"/>
</linearGradient>
<linearGradient id="paint6_linear_2048_2832" x1="148.441" y1="6" x2="148.441" y2="110.991" gradientUnits="userSpaceOnUse">
<stop stop-color="#644ACF"/>
<stop offset="1" stop-color="#644ACF" stop-opacity="0"/>
</linearGradient>
<clipPath id="clip0_2048_2832">
<rect width="226" height="105.859" fill="white"/>
</clipPath>
</defs>
</svg>
