<?xml version="1.0" encoding="UTF-8"?>
<svg width="24" height="24" version="1.1" viewBox="0 0 24 24" xmlns="http://www.w3.org/2000/svg">
 <path d="m3.074 4.4251c0.12489-0.25985 0.38768-0.42511 0.67598-0.42511h14.5c0.2883 0 0.5511 0.16526 0.676 0.42511 0.1249 0.25984 0.0898 0.56828-0.0903 0.79341l-4.5617 5.7022c-0.1774 0.2216-0.274 0.497-0.274 0.7809v6.5484c0 0.9665-0.7835 1.75-1.75 1.75h-2.5c-0.96651 0-1.75-0.7835-1.75-1.75v-6.5484c0-0.2839-0.09661-0.5593-0.2739-0.7809l-4.5618-5.7022c-0.1801-0.22513-0.21522-0.53356-0.09033-0.79341zm2.2364 1.0749 3.5869 4.4837c-1e-5 -1e-5 0 1e-5 0 0 0.39012 0.48764 0.60262 1.0934 0.60262 1.7179v6.5484c0 0.1381 0.1119 0.25 0.25 0.25h2.5c0.1381 0 0.25-0.1119 0.25-0.25v-6.5484c0-0.6245 0.2126-1.2304 0.6027-1.7179l3.5868-4.4837z" clip-rule="evenodd" fill-rule="evenodd"/>
 <g transform="translate(7.0001 4)" clip-rule="evenodd" fill-rule="evenodd">
  <path d="m10.495 10.083-3e-4 0.0033c-1e-4 7e-4 -1e-4 3e-4 0 0l2e-4 -0.0017zm2.2142 1.0469c-0.6346 0.2452-1.4595 0.8587-1.4595 1.8697v0.25c0 0.4142 0.3358 0.75 0.75 0.75s0.75-0.3358 0.75-0.75v-0.25c0-0.0517 0.0185-0.1216 0.1017-0.213 0.0879-0.0967 0.228-0.1917 0.3984-0.2575 1.1586-0.4477 1.7499-1.4934 1.7499-2.5295 0-0.5336-0.0595-1.2986-0.5147-1.9359-0.4926-0.68965-1.3198-1.0641-2.4853-1.0641-1.3525 0-2.1299 0.78953-2.5306 1.5108-0.19574 0.35234-0.30967 0.69722-0.37506 0.94945-0.03309 0.1276-0.05477 0.23548-0.06849 0.3141-0.00688 0.03941-0.01182 0.07176-0.01521 0.09589l-0.00401 0.02998-0.00124 0.01017-4.5e-4 0.00383-1.8e-4 0.0016c-4e-5 3.4e-4 -1.5e-4 0.00139 0.74526 0.08421l-0.74541-0.08282c-0.04574 0.41172 0.25091 0.78252 0.66259 0.82822 0.41042 0.0456 0.78012-0.249 0.82782-0.6587l1e-3 -0.0074c0.0012-0.0089 0.0036-0.0249 0.0075-0.047 0.0077-0.04441 0.0212-0.11231 0.0428-0.19564 0.044-0.16965 0.1176-0.38727 0.2343-0.59743 0.2243-0.40376 0.5719-0.73923 1.2194-0.73923 0.8345 0 1.1323 0.25058 1.2647 0.43593 0.1698 0.23767 0.2353 0.59767 0.2353 1.0641 0 0.4665-0.2555 0.9236-0.7905 1.1303z"/>
  <path d="m11 16c0-0.5522 0.4478-1 1-1s1 0.4478 1 1-0.4478 1-1 1-1-0.4478-1-1z"/>
 </g>
</svg>
