<?xml version="1.0" encoding="UTF-8"?>
<svg width="24" height="24" version="1.1" viewBox="0 0 24 24" xmlns="http://www.w3.org/2000/svg" xmlns:cc="http://creativecommons.org/ns#" xmlns:dc="http://purl.org/dc/elements/1.1/" xmlns:rdf="http://www.w3.org/1999/02/22-rdf-syntax-ns#">
 <metadata>
  <rdf:RDF>
   <cc:Work rdf:about="">
    <dc:format>image/svg+xml</dc:format>
    <dc:type rdf:resource="http://purl.org/dc/dcmitype/StillImage"/>
   </cc:Work>
  </rdf:RDF>
 </metadata>
 <g transform="matrix(1.3333 0 0 1.3333 -3.3331 -3.3333)" stroke-width=".21798" style="isolation:isolate" aria-label="f(x)">
  <path d="m8.4202 7.2384v1.1256h-0.94835q-0.36401 0-0.5077 0.13411-0.14369 0.12932-0.14369 0.45502v0.37359h1.4656v1.2262h-1.4656v4.1383h-1.7147v-4.1383h-0.85256v-1.2262h0.85256v-0.37359q0-0.87651 0.48854-1.2932 0.48854-0.42149 1.5135-0.42149z"/>
  <path d="m10.822 15.984h-1.4225q-0.73282-1.183-1.0825-2.2463-0.34964-1.0681-0.34964-2.117t0.34964-2.1218q0.35443-1.0777 1.0825-2.2511h1.4225q-0.61308 1.1351-0.91961 2.2224-0.30654 1.0825-0.30654 2.141t0.30175 2.1458q0.30654 1.0873 0.9244 2.2272z"/>
  <path d="m12.277 11.947-1.935-2.6199h1.8153l1.0968 1.5902 1.1112-1.5902h1.8153l-1.935 2.6104 2.0308 2.754h-1.8153l-1.207-1.6955-1.1926 1.6955h-1.8153z"/>
  <path d="m15.771 15.984q0.61308-1.1399 0.91961-2.2272t0.30654-2.1458q0-1.0585-0.30654-2.141-0.30654-1.0873-0.91961-2.2224h1.4225q0.72803 1.1735 1.0777 2.2511 0.35444 1.0729 0.35444 2.1218t-0.34964 2.117q-0.34964 1.0633-1.0825 2.2463z"/>
 </g>
</svg>
