<?xml version="1.0" encoding="UTF-8"?>
<svg width="24" height="24" fill="none" version="1.1" viewBox="0 0 24 24" xmlns="http://www.w3.org/2000/svg">
<path fill-rule="evenodd" clip-rule="evenodd" d="M9.69315 4.06562C9.88832 3.97813 10.1116 3.97813 10.3067 4.06562L17.4391 7.26289C17.7868 7.32813 18.0499 7.63334 18.0499 8V13C18.0499 13.4142 17.7142 13.75 17.2999 13.75C16.8857 13.75 16.5499 13.4142 16.5499 13V9.1357L10.7499 11.7357V19C10.7499 19.0426 10.7464 19.0844 10.7396 19.1251C10.7635 19.2664 10.7474 19.4162 10.6843 19.5568C10.5149 19.9348 10.0711 20.1038 9.69315 19.9344L2.45875 16.6914C2.42029 16.6752 2.38346 16.6558 2.34859 16.6337C2.16755 16.5188 2.0391 16.3284 2.0075 16.1069C2.00158 16.066 1.99901 16.0246 1.99994 15.9829V8C1.99994 7.81185 2.06923 7.63988 2.18367 7.50821C2.21412 7.47314 2.24791 7.44079 2.28471 7.41169C2.33743 7.36994 2.3959 7.33513 2.45873 7.30863L9.69315 4.06562ZM3.49994 15.5143L9.24994 18.0919V11.7357L3.49994 9.15812V15.5143ZM4.58343 8L9.99994 10.4281L15.4165 8L9.99994 5.57191L4.58343 8Z" fill="currentColor"/>
<path fill-rule="evenodd" clip-rule="evenodd" d="M19.8449 14.9192C20.7894 14.9192 21.5433 15.1333 22.1065 15.5616C22.6756 15.9899 22.9601 16.7789 22.9601 17.9288C22.9601 19.0552 22.6814 19.8501 22.1241 20.3136C21.5668 20.7712 20.8598 21 20.0033 21H18.3489V14.9192H19.8449ZM20.9185 15.9576C20.678 15.8461 20.3876 15.7904 20.0473 15.7904H19.5105V20.1288H20.0825C20.5988 20.1288 21.0036 19.9704 21.2969 19.6536C21.5902 19.3309 21.7369 18.756 21.7369 17.9288C21.7369 17.3539 21.6606 16.9109 21.5081 16.6C21.3614 16.2832 21.1649 16.0691 20.9185 15.9576Z" fill="currentColor"/>
<path d="M16.0799 15.192C15.7925 15.0453 15.4493 14.972 15.0503 14.972C14.2701 14.972 13.6306 15.2947 13.1319 15.94L13.8183 16.4856C14.0061 16.2627 14.185 16.1043 14.3551 16.0104C14.5311 15.9107 14.7335 15.8608 14.9623 15.8608C15.2205 15.8608 15.4258 15.9371 15.5783 16.0896C15.7367 16.2421 15.8159 16.4533 15.8159 16.7232C15.8159 17.0048 15.7455 17.2776 15.6047 17.5416C15.4698 17.7997 15.2381 18.1136 14.9095 18.4832C14.5869 18.8469 14.0501 19.4101 13.2991 20.1728V21H16.9863L17.1095 20.1112H14.5751C15.2205 19.4952 15.7103 18.9995 16.0447 18.624C16.3791 18.2485 16.6167 17.9083 16.7575 17.6032C16.9042 17.2923 16.9775 16.9696 16.9775 16.6352C16.9775 16.3243 16.9013 16.0427 16.7487 15.7904C16.5962 15.5381 16.3733 15.3387 16.0799 15.192Z" fill="currentColor"/>
</svg>
