<?xml version="1.0" encoding="UTF-8"?>
<svg width="14" height="14" version="1.1" viewBox="0 0 14 14" xml:space="preserve" xmlns="http://www.w3.org/2000/svg"><path d="m7 0-6 3.5v7l6 3.5 6-3.5v-7l-6-3.5z" fill="#2e388a"/><g fill="none" stroke="#53a6da" stroke-width=".7"><path d="m8.294 9.112c-1.291 0.7556-2.601 1.165-3.664 1.229-1.085 0.0656-1.803-0.2277-2.095-0.7272-0.2924-0.4996-0.1966-1.269 0.3921-2.183 0.5768-0.8956 1.575-1.837 2.866-2.593 1.291-0.7556 2.601-1.165 3.664-1.229 1.085-0.06552 1.803 0.2277 2.095 0.7272s0.1964 1.269-0.3862 2.174-1.581 1.846-2.872 2.602z"/><path d="m5.787 9.112c1.291 0.7556 2.601 1.165 3.664 1.229 1.085 0.0656 1.803-0.2277 2.095-0.7272 0.2924-0.4996 0.1966-1.269-0.3921-2.183-0.5768-0.8956-1.575-1.837-2.866-2.593-1.291-0.7556-2.601-1.165-3.664-1.229-1.085-0.06552-1.803 0.2277-2.095 0.7272s-0.1964 1.269 0.3862 2.174 1.581 1.846 2.872 2.602z"/><path d="m7.038 1.75c-0.5788 0-1.194 0.4711-1.686 1.441-0.4817 0.9502-0.7898 2.287-0.7898 3.783s0.3081 2.833 0.7898 3.783c0.4916 0.9697 1.107 1.441 1.686 1.441s1.194-0.4712 1.686-1.441c0.4817-0.9502 0.7898-2.287 0.7898-3.783s-0.3081-2.833-0.7898-3.783c-0.4916-0.9698-1.107-1.441-1.686-1.441z"/></g><path d="m7.038 8.607c0.8578 0 1.553-0.6954 1.553-1.553 0-0.8578-0.6954-1.553-1.553-1.553s-1.553 0.6954-1.553 1.553c0 0.8578 0.6954 1.553 1.553 1.553z" fill="#fff"/></svg>
