<svg width="20" height="20" viewBox="0 0 20 20" fill="none" xmlns="http://www.w3.org/2000/svg">
  <path d="M5.55421 16.3457H5.75283H10.9997H11.0308C11.6104 17.9018 13.1322 19 14.8905 19C17.1386 19 19 17.2049 19 14.953C19 13.0339 17.6429 11.441 15.8458 11.0169L15.653 10.6547C14.861 9.16722 13.4178 8.12702 11.733 7.82892C12.4444 7.10695 12.885 6.12164 12.885 5.02698C12.885 2.7839 11.035 1 8.79595 1C6.55685 1 4.70688 2.7839 4.70688 5.02698C4.70688 6.1017 5.13156 7.071 5.82024 7.7892C3.11649 8.14324 1 10.4207 1 13.2058V14.953C1 15.7506 1.65379 16.3457 2.40071 16.3457H4.55421H4.75283H5.55421ZM15.4649 14.7289L15.4649 14.7289C15.4649 14.7289 15.4649 14.7289 15.4649 14.7289Z" fill="white" stroke="#29ABE1" stroke-width="2" />
  <path d="M2 13.2058V14.953C2 15.1729 2.1803 15.3457 2.40071 15.3457H4.75283V13.3039C4.75283 13.084 4.93313 12.9113 5.15352 12.9113C5.37392 12.9113 5.55421 13.084 5.55421 13.3039V15.3457H10.9997C10.9877 15.2161 10.9797 15.0866 10.9797 14.953C10.9797 12.8799 12.6707 11.1836 14.7703 11.1247C14.001 9.67979 12.4703 8.74137 10.7313 8.74137H6.55597C4.04357 8.74137 2 10.7439 2 13.2058Z" fill="white" />
  <path d="M18 14.953C18 13.2764 16.6055 11.9061 14.8905 11.9061C13.1755 11.9061 11.7811 13.2764 11.7811 14.953C11.7811 16.6336 13.1755 18 14.8905 18C16.6055 18 18 16.6336 18 14.953ZM16.1648 14.5683L14.8104 15.8954C14.7343 15.97 14.6341 16.0093 14.5259 16.0093C14.4217 16.0093 14.3176 15.97 14.2454 15.8954L13.6163 15.2789C13.46 15.1258 13.46 14.8784 13.6163 14.7253C13.7726 14.5722 14.025 14.5722 14.1813 14.7253L14.5259 15.063L15.5958 14.0146C15.752 13.8615 16.0085 13.8615 16.1648 14.0146C16.321 14.1677 16.321 14.4151 16.1648 14.5683Z" fill="#2B3990" />
  <path d="M11.885 5.02698C11.885 6.69874 10.502 8.05397 8.79595 8.05397C7.0899 8.05397 5.70688 6.69874 5.70688 5.02698C5.70688 3.35523 7.0899 2 8.79595 2C10.502 2 11.885 3.35523 11.885 5.02698Z" fill="white" />
</svg>