<svg width="62" height="62" viewBox="0 0 62 62" fill="none" xmlns="http://www.w3.org/2000/svg">
<path d="M47.1917 9.52621C61.6331 3.903 62.0217 29.4536 45.9739 23.6472L47.1917 9.52621Z" stroke="#2B3990" stroke-width="5"/>
<path d="M14.8011 9.96676C0.361326 4.34356 -0.0272331 29.8942 16.0187 24.0878L14.8011 9.96676Z" stroke="#2B3990" stroke-width="5"/>
<path d="M18.2426 30.1975C12.1426 23.6797 13.7746 11.1717 14.4872 4.10922H32.3022H47.9793C47.9793 4.10922 49.7339 23.6185 44.2953 30.1975C38.8567 36.7765 23.1267 35.4161 18.2426 30.1975Z" fill="#27AAE1" stroke="#2B3990" stroke-width="5"/>
<path d="M31.175 35.033C27.3891 35.033 31.175 35.033 25.1917 57.6229H37.2175C31.175 35.033 34.9609 35.033 31.175 35.033Z" fill="#27AAE1" stroke="#2B3990" stroke-width="5"/>
<rect x="18.6728" y="55.1399" width="25.0635" height="6.3261" rx="3" fill="#2B3990"/>
</svg>
