<svg width="20" height="20" viewBox="0 0 20 20" fill="none" xmlns="http://www.w3.org/2000/svg">
  <path
    d="M9.00316 9.87598H15.1181C15.5631 10.7758 16.8296 12.4675 18.3348 12.0356C20.2163 11.4957 18.8052 6.09661 18.3348 5.01679C17.8644 3.93697 16.9237 2.85715 15.0422 2.85715H11.355H9.00316C6.18089 2.85715 5.71051 5.01679 5.24013 6.63652C4.76976 8.25625 4.10157 11.42 5.71051 12.0356C7.12164 12.5755 8.37599 10.9558 9.00316 9.87598Z"
    fill="white" />
  <path fill-rule="evenodd" clip-rule="evenodd"
    d="M5.92575 6.5791C5.90322 6.65756 5.88056 6.7365 5.85753 6.8158C5.62711 7.60923 5.36109 8.74136 5.33831 9.72747C5.32688 10.222 5.37836 10.6319 5.49256 10.9304C5.60074 11.2132 5.74896 11.362 5.94027 11.4352C6.33402 11.5859 6.75543 11.4715 7.23994 11.0688C7.72423 10.6663 8.14969 10.0655 8.4473 9.55311L8.63315 9.23313H15.5173L15.6943 9.59098C15.8892 9.98503 16.269 10.5563 16.7478 10.9676C17.2292 11.3811 17.7016 11.5485 18.1575 11.4177C18.2805 11.3824 18.4576 11.2489 18.5654 10.7317C18.6697 10.2319 18.6634 9.55217 18.5781 8.80126C18.4075 7.30029 17.9507 5.74455 17.7455 5.27352C17.5402 4.80223 17.2458 4.36301 16.827 4.04257C16.4169 3.72871 15.8506 3.50001 15.0422 3.50001H9.0032C7.79438 3.50001 7.16858 3.94389 6.76321 4.51258C6.3545 5.08595 6.1467 5.80962 5.92575 6.5791ZM5.71625 3.7663C6.36923 2.85024 7.38975 2.21429 9.0032 2.21429H15.0422C16.1153 2.21429 16.9602 2.5255 17.6084 3.02151C18.2479 3.51093 18.6591 4.15153 18.9242 4.76006C19.1894 5.36886 19.6733 7.05258 19.8555 8.65609C19.9466 9.45742 19.9697 10.2962 19.8241 10.9943C19.682 11.6751 19.3299 12.4189 18.5122 12.6535C17.4629 12.9546 16.5494 12.4922 15.91 11.9428C15.408 11.5116 15.0074 10.9744 14.737 10.5188H9.36451C9.04063 11.0278 8.59743 11.6124 8.06178 12.0576C7.40955 12.5997 6.49821 13.0253 5.48083 12.636C4.86767 12.4014 4.49607 11.924 4.29172 11.3898C4.09338 10.8713 4.03963 10.2736 4.05293 9.69778C4.07961 8.54317 4.38286 7.28354 4.62282 6.45724C4.64547 6.37927 4.66855 6.29803 4.69241 6.21409C4.90188 5.477 5.17044 4.53201 5.71625 3.7663Z"
    fill="#3DB3E4" />
  <path fill-rule="evenodd" clip-rule="evenodd"
    d="M9.8888 4.99613C9.8888 4.95318 9.85399 4.91837 9.81104 4.91837H8.8556C8.81265 4.91837 8.77783 4.95318 8.77783 4.99613V5.95156C8.77783 5.99451 8.74301 6.02933 8.70006 6.02933H7.74403C7.70108 6.02933 7.66626 6.06414 7.66626 6.10709L7.66626 7.06253C7.66626 7.10548 7.70108 7.1403 7.74403 7.1403H8.70006C8.74301 7.1403 8.77783 7.17512 8.77783 7.21807V8.17352C8.77783 8.21647 8.81265 8.25129 8.8556 8.25129H9.81104C9.85399 8.25129 9.8888 8.21647 9.8888 8.17352V7.21807C9.8888 7.17512 9.92362 7.1403 9.96657 7.1403H10.9214C10.9644 7.1403 10.9992 7.10548 10.9992 7.06253V6.1071C10.9992 6.06414 10.9644 6.02933 10.9214 6.02933H9.96657C9.92362 6.02933 9.8888 5.99451 9.8888 5.95156V4.99613Z"
    fill="#404D9B" />
  <circle cx="14.8933" cy="5.7516" r="0.833231" fill="#404D9B" />
  <circle cx="16.5593" cy="7.41798" r="0.833231" fill="#404D9B" />
  <path
    d="M5.02366 15.5903H11.1386C11.5836 16.4901 12.8501 18.1818 14.3553 17.7499C16.2368 17.21 14.8257 11.8109 14.3553 10.7311C13.8849 9.65126 12.9442 8.57144 11.0627 8.57144H7.37555H5.02366C2.2014 8.57144 1.73102 10.7311 1.26064 12.3508C0.790265 13.9705 0.122081 17.1343 1.73102 17.7499C3.14215 18.2898 4.39649 16.6701 5.02366 15.5903Z"
    fill="white" />
  <path fill-rule="evenodd" clip-rule="evenodd"
    d="M1.94626 12.2934C1.92373 12.3719 1.90106 12.4508 1.87803 12.5301C1.64762 13.3235 1.38159 14.4557 1.35881 15.4418C1.34739 15.9363 1.39887 16.3462 1.51307 16.6447C1.62125 16.9275 1.76947 17.0763 1.96078 17.1495C2.35453 17.3002 2.77593 17.1858 3.26045 16.7831C3.74474 16.3806 4.1702 15.7798 4.46781 15.2674L4.65366 14.9474H11.5378L11.7148 15.3053C11.9097 15.6993 12.2895 16.2705 12.7683 16.6819C13.2497 17.0954 13.7221 17.2628 14.178 17.132C14.301 17.0967 14.4781 16.9632 14.5859 16.446C14.6902 15.9462 14.6839 15.2665 14.5986 14.5156C14.428 13.0146 13.9712 11.4588 13.766 10.9878C13.5607 10.5165 13.2663 10.0773 12.8475 9.75687C12.4374 9.44301 11.8711 9.2143 11.0627 9.2143H5.0237C3.81488 9.2143 3.18909 9.65818 2.78371 10.2269C2.37501 10.8002 2.16721 11.5239 1.94626 12.2934ZM1.73676 9.48059C2.38973 8.56453 3.41026 7.92859 5.0237 7.92859H11.0627C12.1358 7.92859 12.9807 8.2398 13.6289 8.7358C14.2685 9.22522 14.6796 9.86582 14.9447 10.4744C15.2099 11.0832 15.6938 12.7669 15.8761 14.3704C15.9671 15.1717 15.9902 16.0105 15.8446 16.7086C15.7026 17.3894 15.3504 18.1332 14.5327 18.3678C13.4834 18.6689 12.5699 18.2064 11.9305 17.6571C11.4285 17.2258 11.0279 16.6887 10.7575 16.2331H5.38501C5.06114 16.7421 4.61793 17.3267 4.08229 17.7719C3.43006 18.314 2.51872 18.7396 1.50134 18.3503C0.888182 18.1157 0.516576 17.6383 0.312224 17.1041C0.113893 16.5856 0.0601412 15.9879 0.0734423 15.4121C0.100114 14.2575 0.403369 12.9978 0.643331 12.1715C0.665975 12.0936 0.689063 12.0123 0.712917 11.9284C0.922389 11.1913 1.19094 10.2463 1.73676 9.48059Z"
    fill="#3DB3E4" />
  <path fill-rule="evenodd" clip-rule="evenodd"
    d="M5.42836 10.7966C5.42836 10.7537 5.39354 10.7188 5.35059 10.7188H4.39515C4.3522 10.7188 4.31738 10.7537 4.31738 10.7966V11.752C4.31738 11.7949 4.28256 11.8298 4.23961 11.8298H3.28358C3.24063 11.8298 3.20581 11.8646 3.20581 11.9075L3.20581 12.863C3.20581 12.9059 3.24063 12.9407 3.28358 12.9407H4.23961C4.28256 12.9407 4.31738 12.9756 4.31738 13.0185V13.974C4.31738 14.0169 4.3522 14.0518 4.39515 14.0518H5.35059C5.39354 14.0518 5.42836 14.0169 5.42836 13.974V13.0185C5.42836 12.9756 5.46317 12.9407 5.50612 12.9407H6.46097C6.50392 12.9407 6.53874 12.9059 6.53874 12.863V11.9075C6.53874 11.8646 6.50392 11.8298 6.46097 11.8298H5.50612C5.46317 11.8298 5.42836 11.7949 5.42836 11.752V10.7966Z"
    fill="#404D9B" />
  <circle cx="10.4321" cy="11.5521" r="0.833231" fill="#404D9B" />
  <circle cx="12.0986" cy="13.2185" r="0.833231" fill="#404D9B" />
</svg>