<svg xmlns="http://www.w3.org/2000/svg" xmlns:xlink="http://www.w3.org/1999/xlink" width="24" height="24" preserveAspectRatio="xMidYMid meet" viewBox="0 0 24 24" style="-ms-transform: rotate(360deg); -webkit-transform: rotate(360deg); transform: rotate(360deg);"><path d="M19.5 3A2.502 2.502 0 0 0 17 5.5c0 .357.078.696.214 1.005l-1.955 2.199A3.977 3.977 0 0 0 13 8c-.74 0-1.424.216-2.019.566L8.707 6.293l-.023.023C8.88 5.918 9 5.475 9 5a3 3 0 1 0-3 3c.475 0 .917-.12 1.316-.316l-.023.023L9.567 9.98A3.956 3.956 0 0 0 9 12c0 .997.38 1.899.985 2.601l-2.577 2.576A2.472 2.472 0 0 0 6.5 17C5.122 17 4 18.121 4 19.5S5.122 22 6.5 22S9 20.879 9 19.5c0-.321-.066-.626-.177-.909l2.838-2.838c.421.15.867.247 1.339.247c2.206 0 4-1.794 4-4c0-.636-.163-1.229-.428-1.764l2.117-2.383c.256.088.526.147.811.147C20.879 8 22 6.879 22 5.5S20.879 3 19.5 3zM13 14c-1.103 0-2-.897-2-2s.897-2 2-2s2 .897 2 2s-.897 2-2 2z" fill="#626262"/><rect x="0" y="0" width="24" height="24" fill="rgba(0, 0, 0, 0)" /></svg>