<?xml version="1.0" encoding="UTF-8"?>
<svg width="14" height="14" version="1.1" viewBox="0 0 14 14" xml:space="preserve" xmlns="http://www.w3.org/2000/svg"><path d="m7 0-6 3.5v7l6 3.5 6-3.5v-7z" fill="#55b1e0" style="paint-order:normal"/><path d="m7.001 0.289 5.75 3.355v6.711l-5.75 3.355-5.75-3.355v-6.711z" fill="#2e388a" style="paint-order:normal"/><path d="m9.595 4.129c-0.075-0.2212-0.285-0.3788-0.5325-0.3788h-4.125c-0.2475 0-0.4538 0.1575-0.5325 0.3788l-0.78 2.246v3c0 0.2062 0.1688 0.375 0.375 0.375h0.375c0.2062 0 0.375-0.1688 0.375-0.375v-0.375h4.5v0.375c0 0.2062 0.1688 0.375 0.375 0.375h0.375c0.2062 0 0.375-0.1688 0.375-0.375v-3zm-4.658 3.746c-0.3112 0-0.5625-0.2512-0.5625-0.5625s0.2512-0.5625 0.5625-0.5625 0.5625 0.2512 0.5625 0.5625-0.2512 0.5625-0.5625 0.5625zm4.125 0c-0.3112 0-0.5625-0.2512-0.5625-0.5625s0.2512-0.5625 0.5625-0.5625 0.5625 0.2512 0.5625 0.5625-0.2512 0.5625-0.5625 0.5625zm-4.688-1.875 0.5625-1.688h4.125l0.5625 1.688z" fill="#55b1e0" stroke-width=".375"/></svg>
