<?xml version="1.0" encoding="UTF-8"?>
<svg width="14" height="14" version="1.1" viewBox="0 0 14 14" xml:space="preserve" xmlns="http://www.w3.org/2000/svg"><path d="m7 0-6 3.5v7l6 3.5 6-3.5v-7l-6-3.5z" fill="#2e388a"/><g fill="#27aae1" stroke-width=".7"><path d="m9.1 3.801v1.398h-0.6992-2.801-2.1v1.4 1.4h1.4v-1.4h0.6992v2.801h-2.1v1.4h2.1 1.4v-1.4h1.4 0.6992v1.4h1.4v-1.4-1.4h-2.1v-1.4h2.1v-1.4-1.398h-1.4z"/><path d="m7 5.2c0.7732 0 1.4-0.6268 1.4-1.4s-0.6268-1.4-1.4-1.4-1.4 0.6268-1.4 1.4 0.6268 1.4 1.4 1.4z"/></g></svg>
