<svg width="32" height="32" viewBox="0 0 14 14" fill="none" xmlns="http://www.w3.org/2000/svg">
<path d="M5.17 3L7 9L0 8.5V11.5L9.5 13.96L9.52223 13.9426C9.67532 13.9801 9.83534 14 10 14C11.1046 14 12 13.1046 12 12C12 10.8 11.46 5 10.96 1.5L10.9586 1.50037C10.8629 0.929434 10.6059 0.413168 10.2361 0H5.76389C5.28885 0.530756 5 1.23165 5 2C5 2.35057 5.05949 2.68727 5.17 3Z" fill="#3DB3E4"/>
<circle cx="8" cy="2" r="1" fill="#404D9B"/>
<path d="M7.22677 4.76781C7.10153 4.08024 7.64253 3.40581 8.43514 3.26143C9.22775 3.11705 9.97181 3.55739 10.0971 4.24496C10.3238 5.48992 10.5884 10.5868 9.79581 10.7312C9.00321 10.8756 7.45355 6.01277 7.22677 4.76781Z" fill="#404D9B"/>
<path d="M6.12523 6.13193L7 9.00002L0 8.50002V11.5L9.5 13.96L9.52223 13.9426C9.67532 13.9801 9.83534 14 10 14C11.1046 14 12 13.1046 12 12L6.12523 6.13193Z" fill="#2399CA"/>
<path d="M10.1383 10.1467C10.056 10.4862 9.94166 10.7026 9.78711 10.7308C9.39621 10.802 8.82118 9.65528 8.31151 8.32533C8.31151 8.32533 10.1352 10.1471 10.1383 10.1467Z" fill="#273382"/>
<circle cx="10" cy="12" r="1" fill="#273382"/>
<path d="M7.59932 10.3794C8.39844 10.5318 8.96462 11.0834 8.86392 11.6116C8.76322 12.1397 8.03378 12.4443 7.23466 12.292C5.78773 12.0161 0.0816328 10.4844 0.182332 9.95628C0.283031 9.42813 6.15239 10.1035 7.59932 10.3794Z" fill="#273382"/>
</svg>