<?xml version="1.0" encoding="UTF-8" standalone="no"?>
<!-- Created with Inkscape (http://www.inkscape.org/) -->

<svg
   width="10mm"
   height="10mm"
   viewBox="0 0 210 297"
   version="1.1"
   id="svg1042"
   sodipodi:docname="steam.svg"
   inkscape:version="1.1 (c68e22c387, 2021-05-23)"
   xmlns:inkscape="http://www.inkscape.org/namespaces/inkscape"
   xmlns:sodipodi="http://sodipodi.sourceforge.net/DTD/sodipodi-0.dtd"
   xmlns="http://www.w3.org/2000/svg"
   xmlns:svg="http://www.w3.org/2000/svg">
  <sodipodi:namedview
     id="namedview11"
     pagecolor="#ffffff"
     bordercolor="#666666"
     borderopacity="1.0"
     inkscape:pageshadow="2"
     inkscape:pageopacity="0.0"
     inkscape:pagecheckerboard="0"
     inkscape:document-units="mm"
     showgrid="false"
     inkscape:zoom="32"
     inkscape:cx="13.375"
     inkscape:cy="19.671875"
     inkscape:window-width="1920"
     inkscape:window-height="1001"
     inkscape:window-x="-9"
     inkscape:window-y="-9"
     inkscape:window-maximized="1"
     inkscape:current-layer="svg1042" />
  <defs
     id="defs1039">
    <clipPath
       clipPathUnits="userSpaceOnUse"
       id="clipPath443">
      <path
         d="m 42.739,391.343 h 30.117 v 28.885 H 42.739 Z"
         id="path441" />
    </clipPath>
  </defs>
  <ellipse
     style="fill:#ffffff;stroke-width:7.68645;fill-opacity:1"
     id="path35"
     cy="148.67365"
     cx="98.748901"
     rx="142.2489"
     ry="148.32635"
     inkscape:label="arthuro was here (and added this white circle). congrats if you are finding this cool easter egg." />
  <g
     id="layer1">
    <g
       id="g437"
       transform="matrix(9.8615397,0,0,-10.282153,-194.26604,4737.3625)">
      <g
         id="g439"
         clip-path="url(#clipPath443)"
         transform="translate(-27.450714,40.508429)">
        <g
           id="g445"
           transform="translate(59.633,411.0144)">
          <path
             d="m 0,0 c -0.299,-0.449 -0.459,-0.976 -0.458,-1.516 0.001,-0.722 0.289,-1.415 0.8,-1.926 0.511,-0.51 1.204,-0.797 1.927,-0.797 0.539,0 1.066,0.16 1.515,0.46 0.448,0.299 0.798,0.725 1.004,1.224 0.206,0.498 0.26,1.047 0.155,1.576 C 4.837,-0.45 4.577,0.035 4.196,0.417 3.814,0.798 3.328,1.057 2.799,1.162 2.27,1.267 1.721,1.212 1.223,1.006 0.725,0.799 0.299,0.449 0,0 M 5.281,0.501 C 5.68,-0.096 5.892,-0.798 5.892,-1.516 5.889,-2.477 5.506,-3.398 4.826,-4.078 4.145,-4.758 3.224,-5.14 2.262,-5.142 c -0.718,0 -1.419,0.213 -2.016,0.612 -0.597,0.399 -1.062,0.966 -1.337,1.629 -0.274,0.664 -0.346,1.394 -0.206,2.098 0.14,0.704 0.486,1.35 0.994,1.858 C 0.205,1.562 0.852,1.908 1.556,2.047 2.26,2.187 2.99,2.115 3.653,1.839 4.316,1.564 4.883,1.099 5.281,0.501 m -13.124,-13.202 -1.777,0.735 c 0.258,-0.538 0.667,-0.988 1.176,-1.297 0.51,-0.309 1.098,-0.463 1.694,-0.443 0.595,0.02 1.172,0.212 1.66,0.555 0.488,0.342 0.865,0.819 1.086,1.372 0.222,0.553 0.277,1.159 0.16,1.743 -0.117,0.584 -0.402,1.122 -0.819,1.547 -0.418,0.425 -0.95,0.719 -1.532,0.847 -0.582,0.128 -1.189,0.083 -1.746,-0.128 l 1.833,-0.76 c 0.538,-0.24 0.961,-0.681 1.178,-1.228 0.218,-0.548 0.212,-1.158 -0.014,-1.702 -0.226,-0.544 -0.656,-0.977 -1.198,-1.209 -0.541,-0.231 -1.152,-0.241 -1.701,-0.029 z M 11.842,5.103 h -0.257 v 0.459 h 0.26 c 0.2,0 0.269,-0.089 0.269,-0.218 0,-0.034 -0.008,-0.068 -0.022,-0.099 C 12.077,5.214 12.057,5.186 12.031,5.164 12.005,5.141 11.975,5.124 11.943,5.113 11.91,5.103 11.876,5.099 11.842,5.103 m 0.491,0.244 c 0,0.199 -0.108,0.389 -0.478,0.389 H 11.373 V 4.352 h 0.203 V 4.9 h 0.298 l 0.278,-0.548 h 0.247 l -0.316,0.612 c 0.074,0.032 0.137,0.086 0.182,0.154 0.044,0.068 0.068,0.148 0.068,0.229 M 10.862,4.367 C 10.73,4.56 10.658,4.787 10.654,5.021 h -0.012 c -0.006,0.159 0.02,0.317 0.078,0.465 0.058,0.149 0.146,0.283 0.258,0.396 0.113,0.113 0.247,0.201 0.395,0.259 0.148,0.059 0.307,0.086 0.466,0.08 0.233,0 0.462,-0.069 0.656,-0.199 C 12.69,5.893 12.841,5.709 12.931,5.493 13.022,5.278 13.046,5.04 13.002,4.811 12.957,4.582 12.846,4.371 12.682,4.205 12.518,4.038 12.308,3.924 12.079,3.877 11.851,3.829 11.613,3.851 11.396,3.938 11.18,4.025 10.994,4.174 10.862,4.367 m 2.132,-0.121 c 0.154,0.229 0.237,0.499 0.238,0.775 0.006,0.185 -0.026,0.369 -0.094,0.541 -0.068,0.172 -0.17,0.329 -0.301,0.46 -0.13,0.131 -0.286,0.234 -0.458,0.304 -0.171,0.069 -0.355,0.102 -0.54,0.098 -0.276,0 -0.546,-0.081 -0.776,-0.234 C 10.833,6.037 10.653,5.82 10.547,5.565 10.441,5.31 10.412,5.03 10.465,4.759 c 0.053,-0.271 0.185,-0.52 0.38,-0.716 0.194,-0.196 0.443,-0.33 0.713,-0.385 0.271,-0.055 0.552,-0.028 0.807,0.077 0.255,0.104 0.474,0.282 0.629,0.511 m -25.289,1.137 c 2.667,2.462 6.162,3.829 9.791,3.831 L -2.497,9.191 C 0.19,9.192 2.824,8.443 5.108,7.028 7.393,5.614 9.238,3.59 10.435,1.184 c 1.197,-2.406 1.699,-5.098 1.45,-7.773 -0.25,-2.676 -1.24,-5.229 -2.861,-7.372 -1.621,-2.143 -3.808,-3.791 -6.315,-4.759 -2.507,-0.969 -5.234,-1.218 -7.874,-0.721 -2.641,0.497 -5.091,1.721 -7.074,3.535 -1.983,1.813 -3.421,4.144 -4.151,6.73 l 5.535,-2.29 c 0.202,-0.992 0.766,-1.874 1.581,-2.475 0.815,-0.6 1.824,-0.877 2.831,-0.777 1.008,0.101 1.942,0.572 2.622,1.321 0.681,0.75 1.059,1.726 1.061,2.739 v 0.193 l 4.908,3.502 h 0.114 c 1.078,0 2.131,0.32 3.026,0.918 0.896,0.599 1.594,1.45 2.007,2.445 0.412,0.995 0.52,2.09 0.31,3.147 C 7.394,0.604 6.876,1.574 6.114,2.336 5.352,3.098 4.382,3.616 3.325,3.827 2.268,4.037 1.173,3.929 0.178,3.517 -0.817,3.104 -1.668,2.406 -2.267,1.51 -2.865,0.615 -3.185,-0.438 -3.185,-1.516 V -1.573 L -6.627,-6.56 h -0.228 c -0.821,0 -1.623,-0.248 -2.299,-0.713 l -7.74,3.202 c 0.291,3.617 1.933,6.993 4.599,9.454"
             style="fill:#231f20;fill-opacity:1;fill-rule:evenodd;stroke:none"
             id="path447" />
        </g>
      </g>
    </g>
  </g>
</svg>
