<svg width="64" height="64" viewBox="0 0 16 16" fill="none" xmlns="http://www.w3.org/2000/svg">
<path d="M15 1H1V15H15V1Z" fill="#27AAE1"/>
<path d="M14 13H2V14H14V13Z" fill="white"/>
<path d="M14 2H2V3H14V2Z" fill="white"/>
<path d="M3 2H2V14H3V2Z" fill="white"/>
<path d="M14 2H13V14H14V2Z" fill="white"/>
<g opacity="0.1">
<path opacity="0.1" d="M15 15L1 1V15H15Z" fill="black"/>
<path opacity="0.1" d="M15 1H1L15 15V1Z" fill="white"/>
<rect x="9" y="4" width="3" height="1" fill="#2B3990"/>
</g>
<rect x="9" y="11" width="3" height="1" fill="#2B3990"/>
<rect x="10" y="4" width="1" height="8" fill="#2B3990"/>
<rect x="9" y="4" width="3" height="1" fill="#2B3990"/>
<path d="M6.71338 10.5C6.68408 10.4414 6.65918 10.3726 6.63867 10.2935C6.62109 10.2144 6.60498 10.1294 6.59033 10.0386C6.51709 10.1147 6.43359 10.1865 6.33984 10.2539C6.24902 10.3184 6.14648 10.3755 6.03223 10.4253C5.9209 10.4751 5.79932 10.5146 5.66748 10.5439C5.53857 10.5732 5.39941 10.5879 5.25 10.5879C4.99805 10.5879 4.76953 10.5527 4.56445 10.4824C4.3623 10.4092 4.18799 10.3096 4.0415 10.1836C3.89795 10.0547 3.78662 9.90381 3.70752 9.73096C3.62842 9.55811 3.58887 9.37061 3.58887 9.16846C3.58887 8.65869 3.77783 8.26904 4.15576 7.99951C4.53662 7.72998 5.08154 7.59521 5.79053 7.59521H6.55957V7.2832C6.55957 7.03125 6.47461 6.83203 6.30469 6.68555C6.13477 6.53613 5.89453 6.46143 5.58398 6.46143C5.44336 6.46143 5.32031 6.479 5.21484 6.51416C5.10938 6.54639 5.02148 6.5918 4.95117 6.65039C4.88086 6.70898 4.82812 6.77783 4.79297 6.85693C4.75781 6.93604 4.74023 7.021 4.74023 7.11182H3.68994C3.68994 6.92725 3.73242 6.74854 3.81738 6.57568C3.90527 6.3999 4.03271 6.24463 4.19971 6.10986C4.3667 5.97217 4.57031 5.8623 4.81055 5.78027C5.05371 5.69824 5.33057 5.65723 5.64111 5.65723C5.92236 5.65723 6.18311 5.69238 6.42334 5.7627C6.66357 5.83008 6.87158 5.93262 7.04736 6.07031C7.22314 6.20508 7.36084 6.375 7.46045 6.58008C7.56006 6.78223 7.60986 7.01953 7.60986 7.29199V9.41016C7.60986 9.61816 7.62451 9.80859 7.65381 9.98145C7.68604 10.1514 7.73145 10.2993 7.79004 10.4253V10.5H6.71338ZM5.44775 9.73975C5.58252 9.73975 5.7085 9.72363 5.82568 9.69141C5.9458 9.65625 6.05273 9.6123 6.14648 9.55957C6.24316 9.50391 6.3252 9.44092 6.39258 9.37061C6.46289 9.30029 6.51855 9.22852 6.55957 9.15527V8.26318H5.8916C5.46387 8.26318 5.14746 8.33203 4.94238 8.46973C4.74023 8.60742 4.63916 8.80371 4.63916 9.05859C4.63916 9.15527 4.65527 9.24609 4.6875 9.33105C4.71973 9.41309 4.76807 9.48486 4.83252 9.54639C4.8999 9.60498 4.9834 9.65186 5.08301 9.68701C5.18555 9.72217 5.30713 9.73975 5.44775 9.73975Z" fill="#2B3990"/>
<path d="M15 1H1V15H15V1Z" fill="#27AAE1"/>
<path d="M15 14H1V15H15V14Z" fill="#2B3990"/>
<path d="M15 1H1V2H15V1Z" fill="#2B3990"/>
<path d="M2 1H1V15H2V1Z" fill="#2B3990"/>
<path d="M15 1H14V15H15V1Z" fill="#2B3990"/>
<g opacity="0.1">
<path opacity="0.1" d="M15 15L1 1V15H15Z" fill="black"/>
<path opacity="0.1" d="M15 1H1L15 15V1Z" fill="white"/>
</g>
<rect x="9" y="11" width="3" height="1" fill="white"/>
<rect x="10" y="4" width="1" height="8" fill="white"/>
<rect x="9" y="4" width="3" height="1" fill="white"/>
<path d="M6.71338 11C6.68408 10.9414 6.65918 10.8726 6.63867 10.7935C6.62109 10.7144 6.60498 10.6294 6.59033 10.5386C6.51709 10.6147 6.43359 10.6865 6.33984 10.7539C6.24902 10.8184 6.14648 10.8755 6.03223 10.9253C5.9209 10.9751 5.79932 11.0146 5.66748 11.0439C5.53857 11.0732 5.39941 11.0879 5.25 11.0879C4.99805 11.0879 4.76953 11.0527 4.56445 10.9824C4.3623 10.9092 4.18799 10.8096 4.0415 10.6836C3.89795 10.5547 3.78662 10.4038 3.70752 10.231C3.62842 10.0581 3.58887 9.87061 3.58887 9.66846C3.58887 9.15869 3.77783 8.76904 4.15576 8.49951C4.53662 8.22998 5.08154 8.09521 5.79053 8.09521H6.55957V7.7832C6.55957 7.53125 6.47461 7.33203 6.30469 7.18555C6.13477 7.03613 5.89453 6.96143 5.58398 6.96143C5.44336 6.96143 5.32031 6.979 5.21484 7.01416C5.10938 7.04639 5.02148 7.0918 4.95117 7.15039C4.88086 7.20898 4.82812 7.27783 4.79297 7.35693C4.75781 7.43604 4.74023 7.521 4.74023 7.61182H3.68994C3.68994 7.42725 3.73242 7.24854 3.81738 7.07568C3.90527 6.8999 4.03271 6.74463 4.19971 6.60986C4.3667 6.47217 4.57031 6.3623 4.81055 6.28027C5.05371 6.19824 5.33057 6.15723 5.64111 6.15723C5.92236 6.15723 6.18311 6.19238 6.42334 6.2627C6.66357 6.33008 6.87158 6.43262 7.04736 6.57031C7.22314 6.70508 7.36084 6.875 7.46045 7.08008C7.56006 7.28223 7.60986 7.51953 7.60986 7.79199V9.91016C7.60986 10.1182 7.62451 10.3086 7.65381 10.4814C7.68604 10.6514 7.73145 10.7993 7.79004 10.9253V11H6.71338ZM5.44775 10.2397C5.58252 10.2397 5.7085 10.2236 5.82568 10.1914C5.9458 10.1562 6.05273 10.1123 6.14648 10.0596C6.24316 10.0039 6.3252 9.94092 6.39258 9.87061C6.46289 9.80029 6.51855 9.72852 6.55957 9.65527V8.76318H5.8916C5.46387 8.76318 5.14746 8.83203 4.94238 8.96973C4.74023 9.10742 4.63916 9.30371 4.63916 9.55859C4.63916 9.65527 4.65527 9.74609 4.6875 9.83105C4.71973 9.91309 4.76807 9.98486 4.83252 10.0464C4.8999 10.105 4.9834 10.1519 5.08301 10.187C5.18555 10.2222 5.30713 10.2397 5.44775 10.2397Z" fill="white"/>
</svg>
