<svg width="24" height="24" viewBox="0 0 24 24" fill="none" xmlns="http://www.w3.org/2000/svg">
<path d="M12.4502 17C12.8643 17.0001 13.2002 17.3359 13.2002 17.75V21.25C13.2002 21.6641 12.8643 21.9999 12.4502 22C12.036 22 11.7002 21.6642 11.7002 21.25V17.75C11.7002 17.3358 12.036 17 12.4502 17Z" fill="white"/>
<path fill-rule="evenodd" clip-rule="evenodd" d="M12.2998 8.75C14.0947 8.75 15.5498 10.2051 15.5498 12C15.5498 13.7949 14.0947 15.25 12.2998 15.25C10.505 15.2499 9.0498 13.7948 9.0498 12C9.0498 10.2052 10.505 8.75013 12.2998 8.75ZM12.2998 10.25C11.3334 10.2501 10.5498 11.0336 10.5498 12C10.5498 12.9664 11.3334 13.7499 12.2998 13.75C13.2663 13.75 14.0498 12.9665 14.0498 12C14.0498 11.0335 13.2663 10.25 12.2998 10.25Z" fill="white"/>
<path d="M6.25 11C6.66421 11 7 11.3358 7 11.75C7 12.1642 6.66421 12.5 6.25 12.5H2.75C2.33579 12.5 2 12.1642 2 11.75C2 11.3358 2.33579 11 2.75 11H6.25Z" fill="white"/>
<path d="M21.25 11C21.6642 11 22 11.3358 22 11.75C22 12.1642 21.6642 12.5 21.25 12.5H17.75C17.3358 12.5 17 12.1642 17 11.75C17 11.3358 17.3358 11 17.75 11H21.25Z" fill="white"/>
<path d="M12.4502 2C12.8643 2.00013 13.2002 2.33587 13.2002 2.75V6.25C13.2002 6.66413 12.8643 6.99987 12.4502 7C12.036 7 11.7002 6.66421 11.7002 6.25V2.75C11.7002 2.33579 12.036 2 12.4502 2Z" fill="white"/>
</svg>
