<svg width="24" height="24" viewBox="0 0 24 24" fill="none" xmlns="http://www.w3.org/2000/svg">
<g clip-path="url(#clip0_2660_307)">
<path d="M13.4696 20.4698C13.7625 20.177 14.2373 20.177 14.5302 20.4698C14.823 20.7627 14.823 21.2374 14.5302 21.5303L12.5302 23.5303C12.2555 23.8049 11.8208 23.8224 11.5262 23.5821L11.4696 23.5303L9.46961 21.5303C9.17681 21.2374 9.17674 20.7627 9.46961 20.4698C9.76247 20.177 10.2373 20.177 10.5302 20.4698L11.9999 21.9395L13.4696 20.4698Z" fill="white"/>
<path fill-rule="evenodd" clip-rule="evenodd" d="M12.9999 7.75007C13.8962 7.75007 14.6337 8.42427 14.7362 9.29304L15.9413 8.69147L16.0985 8.62507C16.8905 8.35275 17.7495 8.93791 17.7499 9.80866V14.5655C17.7499 15.5639 16.6372 16.1593 15.8065 15.6055L14.7089 14.8741C14.5375 15.6608 13.838 16.2501 12.9999 16.2501H7.99988C7.03344 16.25 6.24988 15.4665 6.24988 14.5001V9.50007C6.24995 8.53367 7.03348 7.75013 7.99988 7.75007H12.9999ZM7.99988 9.25007C7.86191 9.25013 7.74995 9.36209 7.74988 9.50007V14.5001C7.74988 14.6381 7.86186 14.75 7.99988 14.7501H12.9999C13.138 14.7501 13.2499 14.6381 13.2499 14.5001V9.50007C13.2498 9.36205 13.1379 9.25007 12.9999 9.25007H7.99988ZM14.7499 10.963V13.0977L16.2499 14.0977V10.213L14.7499 10.963Z" fill="white"/>
<path d="M2.46961 9.46979C2.76245 9.17698 3.23726 9.17706 3.53015 9.46979C3.82304 9.76268 3.82302 10.2374 3.53015 10.5303L2.06043 12.0001L3.53015 13.4698C3.82304 13.7627 3.82302 14.2374 3.53015 14.5303C3.23726 14.8232 2.7625 14.8232 2.46961 14.5303L0.469606 12.5303L0.417848 12.4737C0.177679 12.1791 0.195053 11.7443 0.469606 11.4698L2.46961 9.46979Z" fill="white"/>
<path d="M20.4696 9.46979C20.7625 9.17698 21.2373 9.17706 21.5302 9.46979L23.5302 11.4698C23.8047 11.7444 23.8222 12.1791 23.5819 12.4737L23.5302 12.5303L21.5302 14.5303C21.2373 14.8232 20.7625 14.8232 20.4696 14.5303C20.1769 14.2374 20.1768 13.7626 20.4696 13.4698L21.9393 12.0001L20.4696 10.5303C20.1769 10.2374 20.1768 9.76264 20.4696 9.46979Z" fill="white"/>
<path d="M11.5262 0.418037C11.8208 0.17777 12.2555 0.195283 12.5302 0.469794L14.5302 2.46979C14.823 2.76268 14.823 3.23745 14.5302 3.53034C14.2373 3.82323 13.7625 3.82323 13.4696 3.53034L11.9999 2.06061L10.5302 3.53034C10.2373 3.82323 9.7625 3.82323 9.46961 3.53034C9.1768 3.23744 9.17674 2.76266 9.46961 2.46979L11.4696 0.469794L11.5262 0.418037Z" fill="white"/>
</g>
<defs>
<clipPath id="clip0_2660_307">
<rect width="24" height="24" fill="white"/>
</clipPath>
</defs>
</svg>
