<svg width="24" height="24" viewBox="0 0 24 24" fill="none" xmlns="http://www.w3.org/2000/svg">
<path d="M14.4696 18.4698C14.7624 18.177 15.2372 18.1771 15.5302 18.4698C15.823 18.7627 15.823 19.2374 15.5302 19.5303L12.5302 22.5303L12.4735 22.5821C12.1789 22.8224 11.7442 22.8049 11.4696 22.5303L8.46961 19.5303C8.17687 19.2374 8.17679 18.7626 8.46961 18.4698C8.76245 18.177 9.23725 18.1771 9.53015 18.4698L11.9999 20.9395L14.4696 18.4698Z" fill="white"/>
<path d="M4.46961 8.46979C4.76245 8.17698 5.23726 8.17706 5.53015 8.46979C5.82304 8.76268 5.82301 9.23745 5.53015 9.53034L3.06043 12.0001L5.53015 14.4698C5.82304 14.7627 5.82301 15.2374 5.53015 15.5303C5.23726 15.8232 4.7625 15.8232 4.46961 15.5303L1.46961 12.5303L1.41785 12.4737C1.17768 12.1791 1.19505 11.7443 1.46961 11.4698L4.46961 8.46979Z" fill="white"/>
<path d="M18.4696 8.46979C18.7625 8.17693 19.2373 8.177 19.5302 8.46979L22.5302 11.4698L22.5819 11.5264C22.8222 11.821 22.8048 12.2557 22.5302 12.5303L19.5302 15.5303C19.2373 15.8232 18.7625 15.8232 18.4696 15.5303C18.1768 15.2375 18.1768 14.7627 18.4696 14.4698L20.9393 12.0001L18.4696 9.53034C18.1768 9.23745 18.1768 8.76266 18.4696 8.46979Z" fill="white"/>
<path fill-rule="evenodd" clip-rule="evenodd" d="M12.2499 9.25007C13.9067 9.25007 15.2498 10.5933 15.2499 12.2501C15.2499 13.9069 13.9067 15.2501 12.2499 15.2501C10.5931 15.25 9.24988 13.9069 9.24988 12.2501C9.24994 10.5933 10.5931 9.25013 12.2499 9.25007ZM12.2499 10.7501C11.4215 10.7501 10.7499 11.4217 10.7499 12.2501C10.7499 13.0785 11.4215 13.75 12.2499 13.7501C13.0783 13.7501 13.7499 13.0785 13.7499 12.2501C13.7498 11.4217 13.0783 10.7501 12.2499 10.7501Z" fill="white"/>
<path d="M11.5262 1.41804C11.8208 1.17777 12.2555 1.19528 12.5302 1.46979L15.5302 4.46979C15.823 4.76268 15.823 5.23745 15.5302 5.53034C15.2373 5.82323 14.7625 5.82323 14.4696 5.53034L11.9999 3.06061L9.53015 5.53034C9.23726 5.82323 8.7625 5.82323 8.46961 5.53034C8.1768 5.23744 8.17674 4.76266 8.46961 4.46979L11.4696 1.46979L11.5262 1.41804Z" fill="white"/>
</svg>
