<svg width="24" height="24" viewBox="0 0 24 24" fill="none" xmlns="http://www.w3.org/2000/svg">
<g clip-path="url(#clip0_2660_308)">
<path d="M12.8945 22.2119C13.3072 22.1763 13.6714 22.4819 13.707 22.8945C13.7425 23.3069 13.4368 23.6702 13.0244 23.7061C12.6868 23.7352 12.3448 23.75 12 23.75C11.6552 23.75 11.3132 23.7352 10.9756 23.7061C10.5632 23.6702 10.2575 23.3069 10.293 22.8945C10.3286 22.4819 10.6928 22.1763 11.1055 22.2119C11.4001 22.2374 11.6984 22.25 12 22.25C12.3016 22.25 12.5999 22.2374 12.8945 22.2119Z" fill="white"/>
<path d="M5.07617 20.5811C5.31405 20.242 5.78199 20.1596 6.12109 20.3975C6.60729 20.7385 7.12423 21.0384 7.66699 21.292C8.04228 21.4673 8.2046 21.9138 8.0293 22.2891C7.85399 22.6643 7.40751 22.8267 7.03223 22.6514C6.40964 22.3605 5.81688 22.0168 5.25977 21.626C4.92073 21.3881 4.83847 20.9201 5.07617 20.5811Z" fill="white"/>
<path d="M17.8789 20.3975C18.218 20.1596 18.686 20.242 18.9238 20.5811C19.1615 20.9201 19.0793 21.3881 18.7402 21.626C18.1831 22.0168 17.5904 22.3605 16.9678 22.6514C16.5925 22.8267 16.146 22.6643 15.9707 22.2891C15.7954 21.9138 15.9577 21.4673 16.333 21.292C16.8758 21.0384 17.3927 20.7385 17.8789 20.3975Z" fill="white"/>
<path d="M1.71094 15.9707C2.08623 15.7954 2.53271 15.9577 2.70801 16.333C2.96157 16.8758 3.26149 17.3927 3.60254 17.8789C3.84041 18.218 3.75804 18.686 3.41895 18.9238C3.07986 19.1615 2.61185 19.0793 2.37402 18.7402C1.98325 18.1831 1.63947 17.5904 1.34863 16.9678C1.17334 16.5925 1.33567 16.146 1.71094 15.9707Z" fill="white"/>
<path d="M21.292 16.333C21.4673 15.9577 21.9138 15.7954 22.2891 15.9707C22.6643 16.146 22.8267 16.5925 22.6514 16.9678C22.3605 17.5904 22.0168 18.1831 21.626 18.7402C21.3881 19.0793 20.9201 19.1615 20.5811 18.9238C20.242 18.686 20.1596 18.218 20.3975 17.8789C20.7385 17.3927 21.0384 16.8758 21.292 16.333Z" fill="white"/>
<path fill-rule="evenodd" clip-rule="evenodd" d="M13 7.7002C13.8965 7.7002 14.6339 8.37421 14.7363 9.24316L15.9414 8.6416L16.0986 8.5752C16.8907 8.30286 17.7497 8.88798 17.75 9.75879V14.5156C17.7498 15.5138 16.6372 16.1092 15.8066 15.5557L14.709 14.8232C14.5379 15.6103 13.8383 16.2002 13 16.2002H8C7.03358 16.2002 6.25013 15.4166 6.25 14.4502V9.4502C6.25 8.4837 7.0335 7.7002 8 7.7002H13ZM8 9.2002C7.86193 9.2002 7.75 9.31212 7.75 9.4502V14.4502C7.75013 14.5882 7.86201 14.7002 8 14.7002H13C13.138 14.7002 13.2499 14.5882 13.25 14.4502V9.4502C13.25 9.32952 13.1645 9.22854 13.0508 9.20508L13 9.2002H8ZM14.75 10.9131V13.0479L16.25 14.0479V10.1631L14.75 10.9131Z" fill="white"/>
<path d="M0.293945 10.9756C0.329776 10.5632 0.693076 10.2575 1.10547 10.293C1.51814 10.3286 1.82374 10.6928 1.78809 11.1055C1.76264 11.4001 1.75 11.6984 1.75 12C1.75 12.3016 1.76264 12.5999 1.78809 12.8945C1.82374 13.3072 1.51814 13.6714 1.10547 13.707C0.693075 13.7425 0.329775 13.4368 0.293945 13.0244C0.264771 12.6868 0.25 12.3448 0.25 12C0.25 11.6552 0.264771 11.3132 0.293945 10.9756Z" fill="white"/>
<path d="M22.8945 10.293C23.3069 10.2575 23.6702 10.5632 23.7061 10.9756C23.7352 11.3132 23.75 11.6552 23.75 12C23.75 12.3448 23.7352 12.6868 23.7061 13.0244C23.6702 13.4368 23.3069 13.7425 22.8945 13.707C22.4819 13.6714 22.1763 13.3072 22.2119 12.8945C22.2374 12.5999 22.25 12.3016 22.25 12C22.25 11.6984 22.2374 11.4001 22.2119 11.1055C22.1763 10.6928 22.4819 10.3286 22.8945 10.293Z" fill="white"/>
<path d="M2.37402 5.25977C2.61185 4.92073 3.07986 4.83847 3.41895 5.07617C3.75804 5.31405 3.84041 5.78199 3.60254 6.12109C3.26149 6.60729 2.96157 7.12423 2.70801 7.66699C2.53271 8.04228 2.08623 8.2046 1.71094 8.0293C1.33567 7.85399 1.17334 7.40751 1.34863 7.03223C1.63947 6.40964 1.98325 5.81688 2.37402 5.25977Z" fill="white"/>
<path d="M20.5811 5.07617C20.9201 4.83847 21.3881 4.92073 21.626 5.25977C22.0168 5.81688 22.3605 6.40964 22.6514 7.03223C22.8267 7.40751 22.6643 7.85399 22.2891 8.0293C21.9138 8.2046 21.4673 8.04228 21.292 7.66699C21.0384 7.12423 20.7385 6.60729 20.3975 6.12109C20.1596 5.78199 20.242 5.31405 20.5811 5.07617Z" fill="white"/>
<path d="M7.03223 1.34863C7.40751 1.17334 7.85399 1.33567 8.0293 1.71094C8.2046 2.08623 8.04228 2.53271 7.66699 2.70801C7.12423 2.96157 6.60729 3.26149 6.12109 3.60254C5.78199 3.84041 5.31405 3.75804 5.07617 3.41895C4.83847 3.07986 4.92073 2.61185 5.25977 2.37402C5.81688 1.98325 6.40964 1.63947 7.03223 1.34863Z" fill="white"/>
<path d="M15.9707 1.71094C16.146 1.33567 16.5925 1.17334 16.9678 1.34863C17.5904 1.63947 18.1831 1.98325 18.7402 2.37402C19.0793 2.61185 19.1615 3.07986 18.9238 3.41895C18.686 3.75804 18.218 3.84041 17.8789 3.60254C17.3927 3.26149 16.8758 2.96157 16.333 2.70801C15.9577 2.53271 15.7954 2.08623 15.9707 1.71094Z" fill="white"/>
<path d="M12 0.25C12.3448 0.25 12.6868 0.264771 13.0244 0.293945C13.4368 0.329776 13.7425 0.693076 13.707 1.10547C13.6714 1.51814 13.3072 1.82374 12.8945 1.78809C12.5999 1.76264 12.3016 1.75 12 1.75C11.6984 1.75 11.4001 1.76264 11.1055 1.78809C10.6928 1.82374 10.3286 1.51814 10.293 1.10547C10.2575 0.693075 10.5632 0.329775 10.9756 0.293945C11.3132 0.264771 11.6552 0.25 12 0.25Z" fill="white"/>
</g>
<defs>
<clipPath id="clip0_2660_308">
<rect width="24" height="24" fill="white"/>
</clipPath>
</defs>
</svg>
