<svg width="24" height="24" viewBox="0 0 24 24" fill="none" xmlns="http://www.w3.org/2000/svg">
<path d="M7.46973 15.4697C7.76262 15.1768 8.23738 15.1768 8.53027 15.4697C8.82317 15.7626 8.82317 16.2374 8.53027 16.5303L4.81055 20.25H8C8.41421 20.25 8.75 20.5858 8.75 21C8.75 21.4142 8.41421 21.75 8 21.75H3C2.58579 21.75 2.25 21.4142 2.25 21V16C2.25 15.5858 2.58579 15.25 3 15.25C3.41421 15.25 3.75 15.5858 3.75 16V19.1895L7.46973 15.4697Z" fill="white"/>
<path fill-rule="evenodd" clip-rule="evenodd" d="M12.5 9.25C14.2949 9.25 15.75 10.7051 15.75 12.5C15.75 14.2949 14.2949 15.75 12.5 15.75C10.7051 15.75 9.25 14.2949 9.25 12.5C9.25 10.7051 10.7051 9.25 12.5 9.25ZM12.5 10.75C11.5335 10.75 10.75 11.5335 10.75 12.5C10.75 13.4665 11.5335 14.25 12.5 14.25C13.4665 14.25 14.25 13.4665 14.25 12.5C14.25 11.5335 13.4665 10.75 12.5 10.75Z" fill="white"/>
<path d="M21 2.25C21.4142 2.25 21.75 2.58579 21.75 3V8C21.75 8.41421 21.4142 8.75 21 8.75C20.5858 8.75 20.25 8.41421 20.25 8V4.81055L16.5303 8.53027C16.2374 8.82317 15.7626 8.82317 15.4697 8.53027C15.1768 8.23738 15.1768 7.76262 15.4697 7.46973L19.1895 3.75H16C15.5858 3.75 15.25 3.41421 15.25 3C15.25 2.58579 15.5858 2.25 16 2.25H21Z" fill="white"/>
</svg>
