<svg width="24" height="24" viewBox="0 0 24 24" fill="none" xmlns="http://www.w3.org/2000/svg">
<path d="M9.37598 1.58403C9.60576 1.23944 10.0714 1.14627 10.416 1.37602L13.416 3.37602C13.6029 3.50059 13.7238 3.70239 13.7461 3.92583C13.7682 4.1494 13.6891 4.37144 13.5303 4.53032L10.5303 7.53032C10.2374 7.82321 9.76262 7.82321 9.46973 7.53032C9.17684 7.23742 9.17684 6.76266 9.46973 6.46977L11.1436 4.79399C6.98969 5.22242 3.75006 8.73295 3.75 13C3.75 17.5564 7.44365 21.25 12 21.25C16.5564 21.25 20.25 17.5564 20.25 13C20.2501 12.5859 20.5858 12.25 21 12.25C21.4142 12.25 21.7499 12.5859 21.75 13C21.75 18.3849 17.3848 22.75 12 22.75C6.61523 22.75 2.25 18.3849 2.25 13C2.25006 8.06895 5.91102 3.99458 10.6631 3.34282L9.58398 2.62407C9.23934 2.3943 9.14621 1.92868 9.37598 1.58403Z" fill="white"/>
<path fill-rule="evenodd" clip-rule="evenodd" d="M12 10.25C13.7949 10.25 15.2499 11.7052 15.25 13.5C15.25 15.295 13.7949 16.75 12 16.75C10.2051 16.75 8.75 15.295 8.75 13.5C8.75007 11.7052 10.2051 10.25 12 10.25ZM12 11.75C11.0335 11.75 10.2501 12.5336 10.25 13.5C10.25 14.4665 11.0335 15.25 12 15.25C12.9665 15.25 13.75 14.4665 13.75 13.5C13.7499 12.5336 12.9665 11.75 12 11.75Z" fill="white"/>
</svg>
