<svg width="117" height="162" viewBox="0 0 117 162" fill="none" xmlns="http://www.w3.org/2000/svg">
<path d="M46.7106 56.0097C59.7298 26.391 93.7243 6.32877 109.094 0C111.128 13.9685 111.128 41.0918 95.5326 76.0809C83.0558 104.072 49.875 130.644 35.8613 140.77L28.1311 137.108C28.8996 122.417 33.6914 85.6283 46.7106 56.0097Z" fill="url(#paint0_linear_2212_486)"/>
<path d="M71.1334 23.8685C85.6777 10.074 99.4695 3.97836 109.131 0C110.488 9.31715 110.94 24.4869 106.462 43.9398C105.408 48.5174 92.0097 51.7354 81.7368 47.8727C70.7054 43.7247 66.1758 28.826 71.1334 23.8685Z" fill="url(#paint1_linear_2212_486)"/>
<path d="M26.3759 66.7921C33.1025 60.4994 40.1223 63.7071 42.699 66.0578C42.699 66.0578 39.5594 75.3511 38.4291 79.2443C37.2989 83.1374 35.4622 90.3893 35.4622 90.3893C30.8512 90.7962 29.2239 100.018 16.3403 99.34C3.4567 98.6619 14.9841 82.1167 16.3403 80.4893C17.6964 78.8619 17.9677 74.6578 26.3759 66.7921Z" fill="url(#paint2_linear_2212_486)"/>
<path fill-rule="evenodd" clip-rule="evenodd" d="M89.7901 98.8125C90.1563 98.8906 90.3899 99.2509 90.3118 99.6171C89.6287 102.819 89.9916 110.929 97.1451 117.136L97.5275 117.468L97.318 117.929C97.0027 118.622 96.6563 119.665 96.5626 120.774C96.4689 121.883 96.632 122.997 97.2594 123.909C97.4716 124.218 97.3934 124.64 97.0848 124.852C96.7762 125.064 96.3541 124.986 96.1419 124.678C95.2775 123.42 95.1016 121.958 95.2113 120.659C95.3014 119.593 95.5867 118.597 95.8867 117.833C88.6408 111.282 88.2345 102.854 88.9855 99.3342C89.0636 98.9679 89.4238 98.7343 89.7901 98.8125Z" fill="#CF0A80"/>
<path d="M10.3837 69.9033L19.4484 42.9224L27.9799 35.8839L45.5762 40.2563L35.6583 68.8368L10.3837 69.9033Z" fill="url(#paint3_linear_2212_486)" fill-opacity="0.5"/>
<path d="M81.9136 94.6471C82.5918 92.6129 94.1192 75.1851 95.8821 74.4402C115.14 66.3032 117.581 87.0526 116.903 91.6635L116.887 91.7695C116.206 96.4081 114.93 105.091 105.24 105.225C95.4753 105.361 99.8151 90.1717 98.7301 90.1717C97.6452 90.1717 99.1369 92.3416 91.678 99.8005C84.2191 107.259 81.304 96.4756 81.9136 94.6471Z" fill="url(#paint4_linear_2212_486)"/>
<path fill-rule="evenodd" clip-rule="evenodd" d="M88.9243 59.8322C89.3359 59.6739 89.798 59.8792 89.9563 60.2908C93.823 70.3444 95.7503 82.1737 96.2337 86.8465C96.2791 87.2852 95.9603 87.6776 95.5216 87.723C95.0829 87.7683 94.6905 87.4495 94.6452 87.0108C94.1703 82.4208 92.2647 70.7416 88.4657 60.8641C88.3074 60.4525 88.5127 59.9905 88.9243 59.8322Z" fill="#CF0A80"/>
<ellipse cx="104.787" cy="75.4573" rx="0.950311" ry="1.40985" transform="rotate(-64.5138 104.787 75.4573)" fill="#3B314F"/>
<ellipse cx="100.315" cy="80.8869" rx="0.950311" ry="1.40985" transform="rotate(-64.5138 100.315 80.8869)" fill="#3B314F"/>
<path d="M27.8799 67.3139L35.5787 40.4212L42.8246 33.4058L57.7693 37.7639L49.3459 66.2509L27.8799 67.3139Z" fill="url(#paint5_linear_2212_486)" fill-opacity="0.5"/>
<path d="M57.8648 36.8733C57.7831 37.9767 54.069 42.6283 50.8071 47.1781C49.5166 48.9781 44.7606 51.7545 40.5098 50.0953C35.1962 48.0214 38.0808 39.3275 35.9274 39.5946C33.7741 39.8617 25.1504 51.864 20.1749 48.1082C15.1993 44.3524 25.3577 28.1967 32.9309 24.2509C40.5041 20.305 51.2355 20.887 54.9653 25.6172C58.6952 30.3475 57.9671 35.4941 57.8648 36.8733Z" fill="url(#paint6_linear_2212_486)"/>
<ellipse cx="34.5627" cy="27.7762" rx="0.971528" ry="1.43597" transform="rotate(-91.6962 34.5627 27.7762)" fill="#3B314F"/>
<ellipse cx="46.2513" cy="24.5223" rx="0.806979" ry="1.19721" transform="rotate(-81.6632 46.2513 24.5223)" fill="#3B314F"/>
<path fill-rule="evenodd" clip-rule="evenodd" d="M52.9466 34.2484C51.3488 36.3704 50.2605 39.1498 49.7548 41.0625C49.6591 41.4245 49.288 41.6404 48.926 41.5447C48.5639 41.449 48.348 41.0779 48.4437 40.7159C48.9778 38.6957 50.1271 35.7384 51.8632 33.4326C53.5893 31.1401 56.0487 29.3124 59.1575 30.0586C62.1643 30.7802 63.6094 32.8427 64.1662 35.0585C64.5965 36.7712 64.506 38.5897 64.2385 40.0178L67.9526 39.275C68.3198 39.2015 68.6771 39.4397 68.7505 39.8069C68.824 40.1741 68.5858 40.5313 68.2186 40.6048L62.3815 41.7722L62.687 40.7029C63.0721 39.3551 63.322 37.264 62.8509 35.389C62.3905 33.5567 61.2589 31.9576 58.841 31.3773C56.5252 30.8215 54.5544 32.113 52.9466 34.2484Z" fill="#CF0A80"/>
<path fill-rule="evenodd" clip-rule="evenodd" d="M39.7837 37.7195C40.0363 37.443 40.4652 37.4237 40.7417 37.6763C43.4384 40.1405 49.019 47.1904 49.9095 55.8735C49.9477 56.246 49.6767 56.579 49.3042 56.6172C48.9316 56.6554 48.5986 56.3844 48.5604 56.0119C47.7151 47.77 42.3741 41.0051 39.8269 38.6775C39.5504 38.4249 39.5311 37.996 39.7837 37.7195Z" fill="#CF0A80"/>
<path fill-rule="evenodd" clip-rule="evenodd" d="M31.1679 92.1549C31.5411 92.187 31.8174 92.5156 31.7853 92.8887C31.4922 96.2875 29.8602 104.565 25.62 110.874L26.4896 116.923C26.5429 117.294 26.2856 117.638 25.9149 117.691C25.5442 117.744 25.2005 117.487 25.1473 117.116L24.2026 110.545L24.3525 110.327C28.5209 104.258 30.1484 96.0852 30.4341 92.7722C30.4663 92.3991 30.7948 92.1227 31.1679 92.1549Z" fill="#CF0A80"/>
<ellipse cx="30.8175" cy="76.2689" rx="0.512358" ry="1.43597" transform="rotate(-114.883 30.8175 76.2689)" fill="#3B314F"/>
<path fill-rule="evenodd" clip-rule="evenodd" d="M23.4861 95.4249C23.8508 95.5098 24.0776 95.8743 23.9927 96.2391C23.219 99.5616 20.4257 107.523 15.3309 113.165V119.276C15.3309 119.65 15.0273 119.954 14.6528 119.954C14.2783 119.954 13.9747 119.65 13.9747 119.276V112.637L14.1542 112.442C19.1438 107.028 21.9177 99.1702 22.6719 95.9315C22.7568 95.5668 23.1213 95.3399 23.4861 95.4249Z" fill="#CF0A80"/>
<path fill-rule="evenodd" clip-rule="evenodd" d="M48.9488 74.7743C49.1841 75.0656 49.1386 75.4926 48.8472 75.7278C36.8813 85.3883 27.6399 84.206 24.3305 82.1502C24.0124 81.9526 23.9147 81.5345 24.1123 81.2164C24.3099 80.8983 24.728 80.8006 25.0461 80.9982C27.7039 82.6492 36.3096 84.1069 47.9953 74.6726C48.2866 74.4374 48.7136 74.4829 48.9488 74.7743Z" fill="#CF0A80"/>
<path fill-rule="evenodd" clip-rule="evenodd" d="M84.2275 97.3088C84.5256 97.5354 84.5836 97.9608 84.357 98.2589C83.1411 99.8588 81.7788 102.728 81.698 106.066C81.6179 109.373 82.7921 113.184 86.7137 116.739L87.3431 117.31L86.6471 117.797C85.7591 118.419 84.4279 119.431 83.3259 120.441C82.7734 120.947 82.2957 121.437 81.9615 121.865C81.7945 122.079 81.6747 122.263 81.5992 122.414C81.5203 122.573 81.5117 122.651 81.5117 122.666C81.5117 123.041 81.2081 123.345 80.8336 123.345C80.4591 123.345 80.1555 123.041 80.1555 122.666C80.1555 122.356 80.2599 122.061 80.3858 121.809C80.5152 121.55 80.6921 121.287 80.8923 121.03C81.2928 120.517 81.8322 119.97 82.4098 119.441C83.3107 118.615 84.3464 117.797 85.1952 117.171C81.4582 113.507 80.2571 109.548 80.3422 106.034C80.4309 102.368 81.9165 99.2289 83.2773 97.4383C83.5039 97.1402 83.9293 97.0822 84.2275 97.3088Z" fill="#CF0A80"/>
<path d="M26.4513 51.1961C26.0444 49.84 27.265 49.1619 27.6718 48.755C28.3499 48.1556 28.2142 49.2975 27.943 49.9756C27.6718 50.6537 26.8581 52.5523 26.4513 51.1961Z" fill="#E652E0"/>
<path d="M9.22791 106.935C8.68545 106.392 10.0416 103.409 10.9909 103.815V104.629C10.9909 105.443 9.77038 107.477 9.22791 106.935Z" fill="#E652E0"/>
<path d="M100.456 106.383C100.362 107.248 99.5204 107.349 99.1972 107.485C98.6771 107.668 99.0233 107.051 99.3351 106.729C99.647 106.407 100.55 105.519 100.456 106.383Z" fill="#E652E0"/>
<path d="M19.3853 49.0515C19.7124 49.8574 19.0199 50.3454 18.8 50.6188C18.4288 51.0262 18.441 50.3191 18.5628 49.8878C18.6846 49.4565 19.0583 48.2456 19.3853 49.0515Z" fill="#E652E0"/>
<path d="M49.0421 66.0663C48.7333 65.456 49.2443 65.0285 49.3988 64.8C49.6632 64.4565 49.6997 65.0115 49.6323 65.3574C49.5649 65.7033 49.3508 66.6766 49.0421 66.0663Z" fill="#E652E0"/>
<path d="M43.724 132.733L58.876 111.147C62.9817 142.074 54.1512 157.449 49.2227 161.27C50.1025 154.831 45.9235 139.562 43.724 132.733Z" fill="url(#paint7_linear_2212_486)"/>
<path d="M32.635 127.732L41.3328 102.835C13.8154 117.537 6.47652 133.676 6.24677 139.908C10.9643 135.438 25.8046 129.928 32.635 127.732Z" fill="url(#paint8_linear_2212_486)"/>
<defs>
<linearGradient id="paint0_linear_2212_486" x1="80.0838" y1="41.0918" x2="31.5331" y2="143.618" gradientUnits="userSpaceOnUse">
<stop stop-color="#E5DEF9"/>
<stop offset="1" stop-color="#82789E"/>
</linearGradient>
<linearGradient id="paint1_linear_2212_486" x1="108.428" y1="-0.135615" x2="77.9142" y2="49.6357" gradientUnits="userSpaceOnUse">
<stop stop-color="#D3304E"/>
<stop offset="1" stop-color="#9C1B33"/>
</linearGradient>
<linearGradient id="paint2_linear_2212_486" x1="26.4075" y1="63.0884" x2="26.4075" y2="99.3754" gradientUnits="userSpaceOnUse">
<stop stop-color="#F782F2"/>
<stop offset="1" stop-color="#DC34D5"/>
</linearGradient>
<linearGradient id="paint3_linear_2212_486" x1="28.0866" y1="34.9241" x2="16.4624" y2="66.9172" gradientUnits="userSpaceOnUse">
<stop stop-color="#F06CEA"/>
<stop offset="1" stop-color="#F06CEA" stop-opacity="0"/>
</linearGradient>
<linearGradient id="paint4_linear_2212_486" x1="99.4176" y1="72.5684" x2="99.4176" y2="105.226" gradientUnits="userSpaceOnUse">
<stop stop-color="#F782F2"/>
<stop offset="1" stop-color="#DC34D5"/>
</linearGradient>
<linearGradient id="paint5_linear_2212_486" x1="42.9151" y1="32.4491" x2="29.891" y2="62.9938" gradientUnits="userSpaceOnUse">
<stop stop-color="#F06CEA"/>
<stop offset="1" stop-color="#F06CEA" stop-opacity="0"/>
</linearGradient>
<linearGradient id="paint6_linear_2212_486" x1="36.3061" y1="22.4035" x2="39.8652" y2="51.0953" gradientUnits="userSpaceOnUse">
<stop stop-color="#F782F2"/>
<stop offset="1" stop-color="#DC34D5"/>
</linearGradient>
<linearGradient id="paint7_linear_2212_486" x1="41.4845" y1="141.967" x2="56.332" y2="154.309" gradientUnits="userSpaceOnUse">
<stop stop-color="#9187AD"/>
<stop offset="1" stop-color="#7C7297"/>
</linearGradient>
<linearGradient id="paint8_linear_2212_486" x1="3.83911" y1="137.168" x2="39.2803" y2="119.001" gradientUnits="userSpaceOnUse">
<stop stop-color="#938CA7"/>
<stop offset="1" stop-color="#796E96"/>
</linearGradient>
</defs>
</svg>
