<svg width="40" height="40" viewBox="0 0 40 40" fill="none" xmlns="http://www.w3.org/2000/svg">
<path fill-rule="evenodd" clip-rule="evenodd" d="M10 9C9.44772 9 9 9.44772 9 10V30C9 30.5523 9.44772 31 10 31H12V23C12 21.3431 13.3431 20 15 20H26C27.6569 20 29 21.3431 29 23V31H30C30.5523 31 31 30.5523 31 30V14.2426C31 13.9774 30.8946 13.7231 30.7071 13.5355L26.4645 9.29289C26.2769 9.10536 26.0226 9 25.7574 9H19.5C19.2239 9 19 9.22386 19 9.5V12.1589L20.5163 10.9458C20.732 10.7733 21.0466 10.8083 21.2191 11.0239L22.7809 12.9761C22.9534 13.1917 22.9184 13.5064 22.7028 13.6789L17.3123 17.9912C17.1297 18.1373 16.8703 18.1373 16.6877 17.9912L11.2972 13.6789C11.0816 13.5064 11.0466 13.1917 11.2191 12.9761L12.7809 11.0239C12.9534 10.8083 13.268 10.7733 13.4837 10.9458L15 12.1589V5.5C15 5.22386 15.2239 5 15.5 5H25.7574C27.0834 5 28.3552 5.52678 29.2929 6.46447L33.5355 10.7071C34.4732 11.6448 35 12.9166 35 14.2426V30C35 32.7614 32.7614 35 30 35H10C7.23858 35 5 32.7614 5 30V10C5 7.23858 7.23858 5 10 5H11.375C11.6511 5 11.875 5.22386 11.875 5.5V8.5C11.875 8.77614 11.6511 9 11.375 9H10ZM25 31V24H16V31H25Z" fill="black"/>
</svg>
