<?xml version="1.0" encoding="UTF-8" standalone="no"?>
<svg
   xmlns:dc="http://purl.org/dc/elements/1.1/"
   xmlns:cc="http://creativecommons.org/ns#"
   xmlns:rdf="http://www.w3.org/1999/02/22-rdf-syntax-ns#"
   xmlns:svg="http://www.w3.org/2000/svg"
   xmlns="http://www.w3.org/2000/svg"
   width="480"
   height="480"
   viewBox="0 0 127 127"
   version="1.1"
   id="svg8">
  <defs
     id="defs2" />
  <metadata
     id="metadata5">
    <rdf:RDF>
      <cc:Work
         rdf:about="">
        <dc:format>image/svg+xml</dc:format>
        <dc:type
           rdf:resource="http://purl.org/dc/dcmitype/StillImage" />
        <dc:title></dc:title>
      </cc:Work>
    </rdf:RDF>
  </metadata>
  <g
     id="layer1"
     transform="translate(0,-169.99986)">
    <path
       style="fill:#7eb63f;fill-opacity:1;stroke:none;stroke-width:0.763511;stroke-miterlimit:4;stroke-dasharray:none;stroke-opacity:1"
       id="path1312"
       d="M 106.92766,267.55199 A 63.055634,51.015881 0 0 1 22.209377,269.58953 63.055634,51.015881 0 0 1 11.515461,201.56497 63.055634,51.015881 0 0 1 94.166795,186.37944 63.055634,51.015881 0 0 1 120.83581,251.4689 L 63.181133,230.81085 Z" />
    <path
       style="fill:#fffefd;fill-opacity:1;fill-rule:evenodd;stroke:#a5a5a5;stroke-width:0.55350357;stroke-linecap:butt;stroke-linejoin:miter;stroke-opacity:1;stroke-miterlimit:4;stroke-dasharray:none"
       d="m 221.56719,236.60042 c -0.0427,0.4149 -1.48496,15.09248 7.13707,24.10774 10.73381,11.22335 24.99832,9.38424 24.99832,9.38424 0,0 2.42702,-14.17633 -8.34318,-25.36477 -8.65125,-8.98722 -23.37589,-8.15271 -23.79221,-8.12721 z"
       id="path851-0-9"
       transform="matrix(0.95440932,-0.05566359,0.05566359,0.95440932,-205.47938,-29.688193)" />
    <path
       style="fill:#fffefd;fill-opacity:1;fill-rule:evenodd;stroke:#a5a5a5;stroke-width:0.55350357;stroke-linecap:butt;stroke-linejoin:miter;stroke-opacity:1;stroke-miterlimit:4;stroke-dasharray:none"
       d="m 278.64337,262.39909 c -0.2942,-0.23862 -10.72042,-8.62236 -19.76013,-5.6907 -11.2538,3.6497 -13.85161,16.67053 -13.85161,16.67053 0,0 9.78352,8.97625 21.02165,5.27859 9.02713,-2.97017 12.49349,-15.89215 12.59009,-16.25842 z"
       id="path851-0-1"
       transform="matrix(0.95440932,-0.05566359,0.05566359,0.95440932,-161.84017,-28.10445)" />
    <path
       style="fill:#fffefd;fill-opacity:1;fill-rule:evenodd;stroke:#a5a5a5;stroke-width:0.55350357;stroke-linecap:butt;stroke-linejoin:miter;stroke-opacity:1;stroke-miterlimit:4;stroke-dasharray:none"
       d="m 123.0742,203.46899 c 0.10817,0.42433 3.99866,15.40517 15.36205,20.36032 14.14661,6.1688 26.95173,-1.99835 26.95173,-1.99835 0,0 -2.78172,-14.93103 -16.95018,-21.04948 -11.38094,-4.9147 -24.9798,2.47667 -25.3636,2.68751 z"
       id="path851-0-0"
       transform="matrix(0.95440932,-0.05566359,0.05566359,0.95440932,-115.33206,20.926498)" />
    <path
       style="fill:#ffffff;fill-opacity:1;fill-rule:evenodd;stroke:#b7b7b7;stroke-width:0.52916667;stroke-linecap:butt;stroke-linejoin:miter;stroke-opacity:1;stroke-miterlimit:4;stroke-dasharray:none"
       d="M 114.54967,182.08802 C 97.846917,181.2384 88.599708,187.2021 81.046257,194.03624 l 10.728704,20.11785 c 8.144595,-5.53703 21.257569,-13.07847 22.774709,-32.06607 z"
       id="path1192-5" />
    <path
       style="fill:#ffffff;fill-opacity:1;fill-rule:evenodd;stroke:#b7b7b7;stroke-width:0.52916667;stroke-linecap:butt;stroke-linejoin:miter;stroke-opacity:1;stroke-miterlimit:4;stroke-dasharray:none"
       d="m 30.470302,171.06681 c -2.696988,15.31882 7.801718,27.17357 18.163255,33.99028 l 11.479985,-14.14735 c -1.860461,-9.30414 -17.4322,-14.44826 -29.64324,-19.84293 z"
       id="path1192-8" />
    <path
       style="fill:#ffffff;fill-opacity:1;fill-rule:evenodd;stroke:#b7b7b7;stroke-width:0.52916667;stroke-linecap:butt;stroke-linejoin:miter;stroke-opacity:1;stroke-miterlimit:4;stroke-dasharray:none"
       d="m 46.992867,163.57813 c -3.58826,13.75027 -2.97289,18.89425 5.330362,32.80587 l 14.437219,-3.25858 C 63.977353,174.90714 58.57495,169.30346 46.992867,163.57813 Z"
       id="path1192-7" />
    <path
       style="fill:#ffffff;fill-opacity:1;fill-rule:evenodd;stroke:#b7b7b7;stroke-width:0.52916667;stroke-linecap:butt;stroke-linejoin:miter;stroke-opacity:1;stroke-miterlimit:4;stroke-dasharray:none"
       d="m 83.047536,160.02638 c -9.187627,5.63407 -14.612058,14.70326 -13.032563,24.48412 l 12.466569,4.82532 c 3.937572,-10.5986 7.189071,-19.24701 0.565994,-29.30944 z"
       id="path1192-3" />
    <path
       style="fill:#ffffff;fill-opacity:1;fill-rule:evenodd;stroke:#b6b6b6;stroke-width:0.52916667;stroke-linecap:butt;stroke-linejoin:miter;stroke-opacity:1;stroke-miterlimit:4;stroke-dasharray:none"
       d="m 26.736574,194.48244 c 9.781749,-4.62898 20.640551,5.07617 31.714346,6.59568 l -3.587241,22.35983 C 44.162913,216.29977 30.808433,214.47449 26.736574,194.48244 Z"
       id="path1198" />
    <path
       style="fill:#fffefd;fill-opacity:1;fill-rule:evenodd;stroke:#a5a5a5;stroke-width:0.55350357;stroke-linecap:butt;stroke-linejoin:miter;stroke-opacity:1;stroke-miterlimit:4;stroke-dasharray:none"
       d="m 177.88571,286.00392 c 0.37882,-0.14927 13.74996,-5.48902 17.7473,-17.04233 4.97641,-14.38303 -2.94328,-25.96931 -2.94328,-25.96931 0,0 -13.37294,4.25764 -18.30293,18.65666 -3.96006,11.56614 3.29221,24.00418 3.49891,24.35498 z"
       id="path851-0-5"
       transform="matrix(0.95440932,-0.05566359,0.05566359,0.95440932,-125.47499,-4.4610982)" />
    <path
       style="fill:#fffefd;fill-opacity:1;fill-rule:evenodd;stroke:#a5a5a5;stroke-width:0.55350357;stroke-linecap:butt;stroke-linejoin:miter;stroke-opacity:1;stroke-miterlimit:4;stroke-dasharray:none"
       d="m 141.64136,261.2907 c 0.33818,0.22405 12.33176,8.09178 23.94977,4.71509 14.46358,-4.20372 19.25812,-17.3496 19.25812,-17.3496 0,0 -11.12166,-8.49179 -25.57145,-4.2409 -11.60693,3.41457 -17.47225,16.50445 -17.63644,16.87541 z"
       id="path851-0-3"
       transform="matrix(0.95440932,-0.05566359,0.05566359,0.95440932,-122.95904,-5.9808801)" />
    <path
       style="fill:#fffefd;fill-opacity:1;fill-rule:evenodd;stroke:#a5a5a5;stroke-width:0.55350357;stroke-linecap:butt;stroke-linejoin:miter;stroke-opacity:1;stroke-miterlimit:4;stroke-dasharray:none"
       d="m 209.3597,280.75073 c -0.15169,-0.3942 -5.58024,-14.31042 -17.66192,-18.78617 -15.04083,-5.57198 -27.31784,2.2033 -27.31784,2.2033 0,0 4.29188,13.88379 19.35011,19.40855 12.09566,4.43782 25.25837,-2.62428 25.62965,-2.82568 z"
       id="path851-0-39"
       transform="matrix(0.95440932,-0.05566359,0.05566359,0.95440932,-95.72948,-21.006323)" />
    <path
       style="fill:#fffefd;fill-opacity:1;fill-rule:evenodd;stroke:#a5a5a5;stroke-width:0.55350357;stroke-linecap:butt;stroke-linejoin:miter;stroke-opacity:1;stroke-miterlimit:4;stroke-dasharray:none"
       d="m 219.59834,282.22279 c 0.18072,-0.41109 6.50403,-14.97415 0.58105,-26.79569 -7.37368,-14.71696 -22.69266,-17.15324 -22.69266,-17.15324 0,0 -7.17388,13.75289 0.24884,28.44519 5.96237,11.80172 21.42496,15.40385 21.86277,15.50374 z"
       id="path851-0"
       transform="matrix(0.95440932,-0.05566359,0.05566359,0.95440932,-129.79065,0.3092268)" />
    <path
       style="fill:#ffffff;fill-opacity:1;fill-rule:evenodd;stroke:#b7b7b7;stroke-width:0.52916667;stroke-linecap:butt;stroke-linejoin:miter;stroke-opacity:1;stroke-miterlimit:4;stroke-dasharray:none"
       d="m 96.579897,167.60285 c 1.139378,18.88489 -1.068309,24.56006 -7.602382,35.46414 l -16.50979,-10.106 c 6.843327,-12.62079 16.19098,-18.76241 24.112172,-25.35814 z"
       id="path1190" />
    <path
       style="fill:#ffffff;fill-opacity:1;fill-rule:evenodd;stroke:#b7b7b7;stroke-width:0.52916667;stroke-linecap:butt;stroke-linejoin:miter;stroke-opacity:1;stroke-miterlimit:4;stroke-dasharray:none"
       d="m 80.863524,221.98642 c 8.866681,-1.06317 20.701296,-10.68417 17.461587,-25.96426 -13.5599,2.03081 -16.752833,8.251 -24.441718,12.29933 z"
       id="path1188" />
    <path
       style="fill:#ffffff;fill-opacity:1;fill-rule:evenodd;stroke:#b7b7b7;stroke-width:0.52916667;stroke-linecap:butt;stroke-linejoin:miter;stroke-opacity:1;stroke-miterlimit:4;stroke-dasharray:none"
       d="m 64.699169,165.2377 c -8.969814,11.95345 -8.432411,23.00326 -6.852916,32.78412 l 19.568659,-5.23776 c -1.860477,-9.30414 1.997281,-13.98234 -12.715743,-27.54636 z"
       id="path1192" />
    <path
       style="fill:#ffffff;fill-opacity:1;fill-rule:evenodd;stroke:#b7b7b7;stroke-width:0.52916667;stroke-linecap:butt;stroke-linejoin:miter;stroke-opacity:1;stroke-miterlimit:4;stroke-dasharray:none"
       d="M 60.82905,193.48644 41.63049,179.32855 C 38.571192,196.75 46.756817,205.077 51.64367,213.92458 l 8.286193,1.32905 z"
       id="path1194" />
    <g
       id="g1180"
       transform="matrix(1.5900769,-0.09273735,0.09273735,1.5900769,-194.17301,-167.8069)">
      <path
         style="fill:#ffee52;fill-opacity:1;fill-rule:evenodd;stroke:none;stroke-width:0.264583px;stroke-linecap:butt;stroke-linejoin:miter;stroke-opacity:1"
         d="m 146.62026,235.76879 -11.29573,-4.44795 12.19247,22.84876 h 7.48355 l 13.74422,-23.76127 -11.1688,3.9229 -5.24813,-9.42764 z"
         id="path1081" />
      <path
         style="fill:#ffdd52;fill-opacity:1;fill-rule:evenodd;stroke:none;stroke-width:0.264583px;stroke-linecap:butt;stroke-linejoin:miter;stroke-opacity:1"
         d="m 146.62026,227.54781 -2.03531,10.95458 -8.26686,1.78599 11.19891,13.88122 h 7.48355 l 13.72292,-12.63659 -8.38867,-1.86426 -1.53041,-12.42457 -6.38206,7.20331 z"
         id="path1081-2" />
      <path
         style="fill:#ffc952;fill-opacity:1;fill-rule:evenodd;stroke:none;stroke-width:0.264583px;stroke-linecap:butt;stroke-linejoin:miter;stroke-opacity:1"
         d="m 148.51014,239.26507 -7.32698,-1.99111 6.33384,16.89564 h 7.48355 l 7.98008,-17.14669 -7.67252,3.07246 -2.60229,-9.61663 z"
         id="path1081-38" />
      <path
         style="fill:#ffbd52;fill-opacity:1;fill-rule:evenodd;stroke:none;stroke-width:0.264583px;stroke-linecap:butt;stroke-linejoin:miter;stroke-opacity:1"
         d="m 148.22388,235.63271 -1.23351,6.67827 -5.26007,0.78373 5.7867,11.07489 h 7.48355 l 8.91207,-11.36706 -5.51552,-0.72837 -1.35567,-6.13932 -4.6191,4.05848 z"
         id="path1081-2-1" />
    </g>
    <path
       style="fill:#ffffff;fill-opacity:1;fill-rule:evenodd;stroke:#b7b7b7;stroke-width:0.52916667;stroke-linecap:butt;stroke-linejoin:miter;stroke-opacity:1;stroke-miterlimit:4;stroke-dasharray:none"
       d="m 53.163213,221.09457 c 3.874211,-6.15903 9.792054,-14.03617 17.186562,-17.27966 8.193876,2.80159 9.937554,11.36139 14.652722,17.26847 0,0 -8.712342,6.37339 -13.358573,6.74905 -4.646216,0.37564 -18.480711,-6.73786 -18.480711,-6.73786 z"
       id="path1182" />
    <path
       style="fill:#ffffff;fill-opacity:1;fill-rule:evenodd;stroke:#b7b7b7;stroke-width:0.52916667;stroke-linecap:butt;stroke-linejoin:miter;stroke-opacity:1;stroke-miterlimit:4;stroke-dasharray:none"
       d="m 47.065816,199.54901 c -4.872088,11.80298 -0.403833,18.94675 3.625929,23.24281 4.029779,4.29605 15.603691,5.39801 15.603691,5.39801 l 0.445612,-5.68996 C 62.551832,209.68961 58.30311,208.81337 47.065816,199.54901 Z"
       id="path1184" />
    <path
       style="fill:#ffffff;fill-opacity:1;fill-rule:evenodd;stroke:#b7b7b7;stroke-width:0.52916667;stroke-linecap:butt;stroke-linejoin:miter;stroke-opacity:1;stroke-miterlimit:4;stroke-dasharray:none"
       d="m 67.303904,221.04953 c 5.095602,-6.90879 18.364613,-13.773 25.343071,-15.12366 0,0 -2.162102,13.90286 -6.845891,17.88269 -4.683789,3.97981 -10.389012,4.65693 -10.389012,4.65693 z"
       id="path1186" />
    <path
       style="fill:#ffffff;fill-opacity:1;fill-rule:evenodd;stroke:#c2c2c2;stroke-width:0.52916667;stroke-linecap:butt;stroke-linejoin:miter;stroke-opacity:1;stroke-miterlimit:4;stroke-dasharray:none"
       d="m 65.526028,233.80766 c -3.441263,-1.72476 -4.311175,-3.59331 -5.669831,-9.47708 8.730802,-8.44318 18.940339,-4.54603 18.876071,7.42759 0,0 -6.992969,5.16359 -13.20624,2.04949 z"
       id="path1196" />
  </g>
</svg>
