<?xml version="1.0" encoding="UTF-8" standalone="no"?>
<svg
   xmlns:dc="http://purl.org/dc/elements/1.1/"
   xmlns:cc="http://creativecommons.org/ns#"
   xmlns:rdf="http://www.w3.org/1999/02/22-rdf-syntax-ns#"
   xmlns:svg="http://www.w3.org/2000/svg"
   xmlns="http://www.w3.org/2000/svg"
   xmlns:sodipodi="http://sodipodi.sourceforge.net/DTD/sodipodi-0.dtd"
   xmlns:inkscape="http://www.inkscape.org/namespaces/inkscape"
   width="480"
   height="480"
   viewBox="0 0 127 127"
   version="1.1"
   id="svg8"
   sodipodi:docname="OieBasGrosTraitSimpleRose.svg"
   inkscape:export-filename="C:\Users\davyh\Documents\GDevelop projects\SansFoieNieLOie\OieRoseBas20.png"
   inkscape:export-xdpi="11.609954"
   inkscape:export-ydpi="11.609954"
   inkscape:version="1.0.1 (3bc2e813f5, 2020-09-07)">
  <sodipodi:namedview
     pagecolor="#ffffff"
     bordercolor="#666666"
     borderopacity="1"
     objecttolerance="10"
     gridtolerance="10"
     guidetolerance="10"
     inkscape:pageopacity="0"
     inkscape:pageshadow="2"
     inkscape:window-width="1858"
     inkscape:window-height="1057"
     id="namedview3816"
     showgrid="false"
     inkscape:zoom="1.8541667"
     inkscape:cx="240"
     inkscape:cy="240"
     inkscape:window-x="54"
     inkscape:window-y="-8"
     inkscape:window-maximized="1"
     inkscape:current-layer="layer1" />
  <defs
     id="defs2">
    <filter
       inkscape:collect="always"
       style="color-interpolation-filters:sRGB"
       id="filter4964"
       x="-7.1760728e-05"
       width="1.0001435"
       y="-4.9804748e-05"
       height="1.0000996">
      <feGaussianBlur
         inkscape:collect="always"
         stdDeviation="0.0026786424"
         id="feGaussianBlur4966" />
    </filter>
  </defs>
  <metadata
     id="metadata5">
    <rdf:RDF>
      <cc:Work
         rdf:about="">
        <dc:format>image/svg+xml</dc:format>
        <dc:type
           rdf:resource="http://purl.org/dc/dcmitype/StillImage" />
        <dc:title />
      </cc:Work>
    </rdf:RDF>
  </metadata>
  <g
     id="layer1"
     transform="translate(0,-169.99986)">
    <path
       style="fill:#dc8b8b;fill-opacity:1;fill-rule:evenodd;stroke:none;stroke-width:0.26458333;stroke-linecap:butt;stroke-linejoin:miter;stroke-opacity:1;filter:url(#filter4964);stroke-miterlimit:4;stroke-dasharray:none"
       d="m 60,293.40908 c 31.5381,0.0343 45.96713,-26.14735 44.71839,-51.22527 -0.6403,-12.85899 -8.59205,-21.91027 -15.876037,-30.12931 1.182224,-9.16167 -5.682891,-22.63844 -12.296612,-23.89116 0,0 -1.093739,-9.61651 -4.881265,-15.62836 C 67.87695,166.52314 60,164.33022 60,164.33022 c 0,0 -7.87695,2.19292 -11.664476,8.20476 -3.787526,6.01185 -4.881265,15.62836 -4.881265,15.62836 -6.613721,1.25272 -13.478836,14.72949 -12.296612,23.89116 C 23.87366,220.27354 15.92191,229.32482 15.28161,242.18381 14.03287,267.26173 28.4619,293.44338 60,293.40908 Z"
       id="path901"
       transform="translate(3.7417734,-14.748173)" />
    <path
       style="fill:none;fill-rule:evenodd;stroke:#c33c3c;stroke-width:1.5875;stroke-linecap:butt;stroke-linejoin:miter;stroke-miterlimit:4;stroke-dasharray:none;stroke-opacity:1;fill-opacity:1"
       d="m 60.017111,198.5977 c 4.322925,0.10412 5.541506,0.69223 7.328376,1.74675 3.021897,1.78337 3.30558,4.71423 4.75877,7.88546 1.453191,3.17123 2.94196,6.29936 2.704389,9.80019 -0.262992,3.87544 -4.516078,5.73465 -5.437101,9.16544 -2.125233,7.91644 -2.521269,16.88095 0.267269,24.58879 2.735996,7.5626 8.305538,19.88311 15.234364,18.70887 5.605112,-0.94991 12.653473,-6.2064 13.226548,-16.41785 0.823518,-14.67404 -8.029941,-16.53649 -9.233751,-42.51694 M 60.284381,198.5977 c -4.322925,0.10412 -5.541506,0.69223 -7.328376,1.74675 -3.021897,1.78337 -3.30558,4.71423 -4.75877,7.88546 -1.453191,3.17123 -2.94196,6.29936 -2.704389,9.80019 0.262992,3.87544 4.516078,5.73465 5.437101,9.16544 2.125233,7.91644 2.521269,16.88095 -0.267269,24.58879 -2.735996,7.5626 -8.305538,19.88311 -15.234364,18.70887 -5.605112,-0.94991 -12.653473,-6.2064 -13.226548,-16.41785 -0.823518,-14.67404 8.029941,-16.53649 9.233751,-42.51694"
       id="path905"
       transform="translate(3.7417734,-14.748173)" />
    <path
       style="fill:#361b03;fill-opacity:1;fill-rule:evenodd;stroke:none;stroke-width:0.264583px;stroke-linecap:butt;stroke-linejoin:miter;stroke-opacity:1"
       d="m 60,213.46974 5.276062,-0.18899 c 0.05875,3.5617 0.571228,6.86413 1.511904,9.92188 -1.721524,4.32814 -3.358862,3.813 -4.393975,13.32366 -0.110751,1.01758 -1.536356,1.89507 -2.393991,1.89557 -0.857635,-5e-4 -2.28324,-0.87799 -2.393991,-1.89557 -1.035113,-9.51066 -2.672451,-8.99552 -4.393975,-13.32366 0.940676,-3.05775 1.453154,-6.36018 1.511904,-9.92188 z"
       id="path909"
       transform="translate(3.7417734,-14.748173)" />
    <path
       style="fill:#000000;fill-opacity:1;fill-rule:evenodd;stroke:#f1d863;stroke-width:0.346456;stroke-linecap:butt;stroke-linejoin:miter;stroke-miterlimit:4;stroke-dasharray:none;stroke-opacity:1"
       d="m 53.959699,211.26725 c 0,0 -0.257664,-3.37958 -1.644354,-3.76187 -1.631595,-0.44981 -1.809834,1.72913 -1.809834,1.72913 0,0 0.367993,1.72279 1.255627,2.01301 0.880421,0.28786 2.198561,0.0197 2.198561,0.0197 z m 12.080602,0 c 0,0 0.257664,-3.37958 1.644354,-3.76187 1.631595,-0.44981 1.809834,1.72913 1.809834,1.72913 0,0 -0.367993,1.72279 -1.255627,2.01301 -0.880421,0.28786 -2.198561,0.0197 -2.198561,0.0197 z"
       id="path851"
       transform="translate(3.7417734,-14.748173)" />
    <path
       style="fill:#000000;fill-opacity:1;fill-rule:evenodd;stroke:none;stroke-width:0.217187px;stroke-linecap:butt;stroke-linejoin:miter;stroke-opacity:1"
       d="m 58.464683,227.7062 c 0,0 0.626053,-3.25508 -0.388179,-3.97126 -0.559209,-0.39486 -0.916695,0.78283 -0.759804,1.44918 0.305871,1.29906 1.147983,2.52208 1.147983,2.52208 z m 3.070634,0 c 0,0 -0.626053,-3.25508 0.388179,-3.97126 0.559209,-0.39486 0.916695,0.78283 0.759804,1.44918 -0.305871,1.29906 -1.147983,2.52208 -1.147983,2.52208 z"
       id="path889"
       transform="translate(3.7417734,-14.748173)" />
    <path
       style="fill:#ffffff;fill-opacity:1;fill-rule:evenodd;stroke:none;stroke-width:0.217187px;stroke-linecap:butt;stroke-linejoin:miter;stroke-opacity:1"
       d="m 52.200078,207.87046 -0.184219,0.83384 0.591443,0.46541 0.21331,-0.75628 z m 15.599844,0 0.184219,0.83384 -0.591443,0.46541 -0.21331,-0.75628 z"
       id="path855"
       transform="translate(3.7417734,-14.748173)" />
  </g>
</svg>
