<svg width="24" height="24" viewBox="0 0 24 24" fill="none" xmlns="http://www.w3.org/2000/svg">
	<circle cx="12" cy="12" r="12" fill="#F076FA" />
	<mask id="mask0_802_3805" style="mask-type:alpha" maskUnits="userSpaceOnUse" x="0" y="0" width="24" height="24">
		<circle cx="12" cy="12" r="12" fill="#D9D9D9" />
	</mask>
	<g mask="url(#mask0_802_3805)">
		<path d="M0.888631 22.0665C0.888631 23.1711 1.58404 24.0665 2.68861 24.0665C3.79318 24.0665 4.12285 23.5979 4.68853 22.4665C4.88853 22.0666 5.48852 20.4666 5.48852 20.4666C5.48852 20.4666 4.72282 19.2971 4.28854 18.2666C3.77023 17.0367 3.08855 14.2666 3.08855 14.2666C2.48856 15.4666 0.888631 20.962 0.888631 22.0665Z" fill="#16CF89" />
		<path d="M0.888631 22.0664C0.888631 23.1709 1.58404 24.0663 2.68861 24.0663C3.79318 24.0663 4.12285 23.5977 4.68853 22.4663C4.88853 22.0664 5.48852 20.4664 5.48852 20.4664C5.48852 20.4664 4.72282 19.2969 4.28854 18.2664C3.77023 17.0365 3.08855 14.2664 3.08855 14.2664C2.48856 15.4664 0.888631 20.9618 0.888631 22.0664Z" fill="url(#paint0_linear_802_3805)" />
		<path d="M2.68781 15.2664C2.68781 15.2664 2.68855 19.2664 5.02614 21.6664C5.25177 21.0977 5.48852 20.4664 5.48852 20.4664C5.48852 20.4664 4.72282 19.2969 4.28854 18.2664C3.77023 17.0365 3.08855 14.2664 3.08855 14.2664C2.98176 14.48 2.84329 14.8297 2.68781 15.2664Z" fill="#278050" />
		<path d="M18.4884 19.4666C18.4884 19.4666 17.3677 20.3373 16.4884 20.8666C15.4816 21.4726 13.4884 21.6666 13.4884 21.6666C13.4884 21.6666 13.3939 24.043 13.4884 24.9548C13.583 25.8665 13.6884 26.8665 13.6884 26.8665C13.6884 26.8665 13.1653 27.63 12.8884 28.0665C12.5017 28.6762 12.2884 29.6665 12.2884 29.6665L19.0884 29.6665C19.0884 29.6665 19.0839 28.4924 18.8884 27.7801C18.7721 27.3564 18.4884 26.7321 18.4884 26.7321C18.2884 25.4744 18.0884 24.8891 18.0884 23.8665C18.0884 22.8579 18.2884 20.6666 18.4884 19.4666Z" fill="url(#paint1_linear_802_3805)" />
		<path d="M18.4885 19.6668C18.4885 19.6668 16.9678 21.7375 16.0886 22.2668C15.0817 22.8728 13.4886 21.6668 13.4886 21.6668C13.4886 21.6668 13.4394 22.9032 13.4474 23.9346C13.4489 24.1262 13.449 24.3029 13.4532 24.4668C13.4532 24.4668 15.8886 24.0668 18.2261 21.7107C18.2326 21.6463 18.2392 21.5818 18.2459 21.5173C18.3161 20.8482 18.4023 20.184 18.4885 19.6668Z" fill="#278050" />
		<path d="M10.2883 22.0672C10.2883 22.0672 8.48835 21.7753 7.68836 21.2672C6.88837 20.7591 6.08837 20.0672 6.08837 20.0672C6.08837 20.0672 5.17264 22.0774 4.88839 24.0672C4.68839 25.4672 4.88839 26.8671 4.88839 26.8671C4.88839 26.8671 4.36528 27.6307 4.08839 28.0671C3.70163 28.6768 3.4884 29.6671 3.4884 29.6671L10.2883 29.6671C10.2883 29.6671 10.2838 28.493 10.0883 27.7807C9.97207 27.3571 9.68834 26.7327 9.68834 26.7327C9.28834 25.6672 9.68834 24.0672 9.68834 24.0672C9.68834 24.0672 10.0883 22.4672 10.2883 22.0672Z" fill="url(#paint2_linear_802_3805)" />
		<path d="M10.2883 22.0672C10.2883 22.0672 8.48835 21.7753 7.68836 21.2672C6.88837 20.7591 6.08837 20.0672 6.08837 20.0672C6.08837 20.0672 5.80308 20.6935 5.50154 21.5929C5.50154 21.5929 5.48838 21.8672 6.68837 22.8672C7.88835 23.8672 9.60838 24.4672 9.60838 24.4672C9.64965 24.2219 9.68834 24.0672 9.68834 24.0672C9.68834 24.0672 10.0883 22.4672 10.2883 22.0672Z" fill="#278050" />
		<circle cx="9.1999" cy="9.1999" r="9.1999" transform="matrix(-1 -8.74228e-08 -8.74228e-08 1 21.0879 5.66664)" fill="url(#paint3_linear_802_3805)" />
		<rect width="5.80281" height="5.9876" rx="0.629083" transform="matrix(-0.686366 -0.727256 -0.727256 0.686366 12.2881 14.287)" fill="black" />
		<path fill-rule="evenodd" clip-rule="evenodd" d="M11.3113 13.2521L10.1312 12.0017C9.99873 11.9751 9.8595 11.9609 9.71585 11.9609C8.83221 11.9609 8.11587 12.4981 8.11587 13.1609C8.11587 13.8236 8.8322 14.3609 9.71585 14.3609C10.5586 14.3609 11.2491 13.8722 11.3113 13.2521Z" fill="white" />
		<circle cx="9.1999" cy="9.1999" r="9.1999" transform="matrix(-1 -8.74228e-08 -8.74228e-08 1 21.0879 5.66664)" fill="url(#paint4_linear_802_3805)" />
		<rect width="5.80281" height="5.9876" rx="0.629083" transform="matrix(-0.686366 -0.727256 -0.727256 0.686366 11.4883 14.287)" fill="black" />
		<path fill-rule="evenodd" clip-rule="evenodd" d="M10.5112 13.252L9.33128 12.0017C9.19878 11.9751 9.0595 11.9609 8.91579 11.9609C8.03214 11.9609 7.31581 12.4981 7.31581 13.1609C7.31581 13.8236 8.03214 14.3609 8.91579 14.3609C9.75856 14.3609 10.4491 13.8722 10.5112 13.252Z" fill="white" />
		<path d="M18.4886 21.2665C18.3286 21.2665 17.5553 17.2665 17.2886 15.6665C17.2886 15.6665 18.8219 19.1332 19.2886 20.4665L18.4886 21.2665Z" fill="#007156" />
		<path d="M19.4883 23.2664C20.0539 24.3977 21.2883 24.6664 21.8883 24.4664C22.4883 24.2664 23.2883 23.8664 23.4882 22.6664C23.6882 21.4664 23.1209 19.6385 22.4883 17.2664C21.4883 14.4665 21.2883 13.4665 20.6883 12.2665L17.0883 14.8665C17.4883 16.2665 19.0883 22.4664 19.4883 23.2664Z" fill="url(#paint5_linear_802_3805)" />
	</g>
	<defs>
		<linearGradient id="paint0_linear_802_3805" x1="2.48856" y1="16.2664" x2="1.88856" y2="24.0663" gradientUnits="userSpaceOnUse">
			<stop stop-color="#1EB67C" />
			<stop offset="1" stop-color="#1FF073" />
		</linearGradient>
		<linearGradient id="paint1_linear_802_3805" x1="15.8884" y1="23.6665" x2="15.8884" y2="29.6665" gradientUnits="userSpaceOnUse">
			<stop stop-color="#14B678" />
			<stop offset="0.8125" stop-color="#1FF073" />
		</linearGradient>
		<linearGradient id="paint2_linear_802_3805" x1="6.88837" y1="22.6672" x2="6.88836" y2="29.6671" gradientUnits="userSpaceOnUse">
			<stop stop-color="#00AB6A" />
			<stop offset="1" stop-color="#1FF073" />
		</linearGradient>
		<linearGradient id="paint3_linear_802_3805" x1="14.1999" y1="0.799991" x2="3.79996" y2="15.5998" gradientUnits="userSpaceOnUse">
			<stop offset="0.234375" stop-color="#16CF89" />
			<stop offset="1" stop-color="#14B578" />
		</linearGradient>
		<linearGradient id="paint4_linear_802_3805" x1="15.5998" y1="2.39998" x2="7.59992" y2="18.1998" gradientUnits="userSpaceOnUse">
			<stop stop-color="#1FF073" />
			<stop offset="1" stop-color="#04795D" />
		</linearGradient>
		<linearGradient id="paint5_linear_802_3805" x1="18.2883" y1="16.6664" x2="22.4882" y2="24.4664" gradientUnits="userSpaceOnUse">
			<stop stop-color="#0FA866" />
			<stop offset="0.994297" stop-color="#1FF073" />
			<stop offset="0.994397" stop-color="#1EB57C" />
		</linearGradient>
	</defs>
</svg>
