/* XPM */
static const char *findup_xpm[]={
"16 15 21 1",
". c None",
"h c #030303",
"c c #030303",
"b c #030303",
"i c #010101",
"q c #010101",
"a c #020202",
"m c #000000",
"f c #000000",
"e c #000000",
"l c #000000",
"o c #393939",
"s c #000000",
"r c #363636",
"d c #000000",
"# c #0000ff",
"k c #111111",
"g c #444444",
"p c #555555",
"n c #656565",
"j c #666666",
".......#........",
"......###.......",
".....#####......",
"....#######.....",
"......###.......",
"......###.......",
"................",
"......a.bb......",
".....cdcee......",
".....fgfgdh.....",
"....ijdkjdl.....",
"....mndondd.....",
"....mpdhfpd.....",
"....qrs.qrs.....",
"................"};
