/* XPM */
static const char *pencil16_xpm[]={
"16 16 12 1",
". c None",
"i c #000000",
"# c #585858",
"g c #304030",
"a c #bf4a35",
"b c #c3c3c3",
"h c #c66c37",
"k c #d2b48c",
"f c #ffa500",
"e c #ffd27f",
"d c #ffff00",
"c c #ffffff",
"................",
"........#aaaa...",
".......#bcbaaa..",
"......#d#bbbaa..",
".....#dde#bbba..",
"....#ddeff#bga..",
"...#ddefffh#gi..",
"..#eeefffhhhi#..",
"..#cefffhhhi#g..",
".#kbkffhhhi#gg..",
".#kkkkfhhi#gg...",
".i#kkkhhi#gg....",
".ii#hhi#ggg.....",
".iii###ggg......",
"...gggggg.......",
"...gggg........."};
