/* XPM */
static const char *pencil32_xpm[]={
"32 32 15 1",
". c None",
"# c #000000",
"c c #304030",
"b c #708090",
"k c #808080",
"g c #a0522d",
"j c #b22222",
"e c #bebebe",
"l c #cd853f",
"m c #d2b48c",
"d c #ee82ee",
"a c #ff6347",
"h c #ffa500",
"i c #ffff00",
"f c #ffffff",
"................................",
"...................######.......",
".................##aaaaaa#......",
"................##bbcaddaa#.....",
"...............#eeeefbcaaaa#....",
"..............#eeeffeebcaaag#...",
".............#eeeeeeeeeecagg#...",
"............##hhheeeeeebcagg#...",
"...........#iiiihjjeeebbb#gg#...",
"..........#iiiihfhhjeebbc#gj#...",
".........#iiiihfhhhhjebc##jj#...",
"........#iiiihfhhhhhhjc###j##c..",
".......#iiiihfhhhhhhhc##c#j##cck",
"......#iiiihfhhhhhhhgc#cb####cck",
".....#lhhhhfhhhhhhhggc#bc####cck",
"....#lmmmhhllhhhhhgggc#c####ccck",
"....#mmeemmllhhhhggglc#####ccck.",
"....#meeemmmllhhggglc#####ccck..",
"...#lmeeemmmmlhgggllc####ccck...",
"...#mmeemmmmmljggllj####ccck....",
"...#meemmmmmmmjgllj####ccck.....",
"..#lmmmmmmmmmljllj####ccck......",
"..###mmmmmmmlljlj####ccck.......",
"..#eb##mmmmllgjj####ccck........",
".#cf###mmlllgjj####ccck.........",
".#bc####lllg#######cck..........",
".#c#####j#######cccck...........",
".############cccccck............",
".#########cccccccck.............",
"......ccccccccckkk..............",
"......ccccccckk.................",
"......cccck....................."};
