/* XPM */
static const char *replace_xpm[]={
"16 15 5 1",
". c None",
"# c #000000",
"c c #000080",
"b c #808080",
"a c #ffffff",
"....##...##.....",
"....##...##.....",
"...####.####....",
"...#a##.a###....",
"..###########...",
".##a####a#####..",
".##a##b#a#####..",
".##a##b#a#####..",
".######.######..",
".#a###...#a###..",
".#a###...#a###..",
".#####...#####..",
"...c......ccc...",
"..c.c.ccc..c....",
"..c.c.....ccc..."};
