<svg width="160" height="90" viewBox="0 0 160 90" fill="none" xmlns="http://www.w3.org/2000/svg">
<rect width="160" height="90" fill="#1D1D25"/>
<line x1="20" y1="76.5" x2="139" y2="76.5" stroke="#D6D6D6"/>
<path d="M19.5 68C23 65 31.3 58.8 36.5 58C43 57 50 56.5 56.5 58C63 59.5 73.3144 61.0993 79.3144 60.0993C85.3144 59.0993 92 58 99.5 52.5C107 47 114.5 38.5 125 35.5C133.4 33.1 134.5 33 139.5 33M19.5 58C23 55.5 31.318 49.7678 34.5 48C39 45.5 48.5 45 55 45.5C61.5 46 70.5 45.5 78.5 42.5C86.5 39.5 96.1357 36.2692 102 30.5C107.802 24.7918 115 16.5 122.5 14.5C130 12.5 134 12 139.5 12" stroke="#72ACCD"/>
<path d="M122.106 82.4003C117.652 82.9431 117.147 71.024 117.368 69.4757C119.914 67.312 122.798 68.4587 123.99 69.85C122.986 75.7549 126.56 81.8574 122.106 82.4003Z" fill="#DE493C"/>
<path d="M106.325 45.8388C103.232 48.9908 113.749 56.4785 115.144 57.1281C118.743 55.6887 115.309 50.7497 114.803 49.019C109.397 46.6712 108.523 43.5981 106.325 45.8388Z" fill="url(#paint0_linear_906_810)"/>
<path d="M115.488 33.3649C121.586 23.6715 130.315 23.6713 135.932 28.5317C141.255 34.1785 137.428 40.6763 137.428 46.1706C137.428 51.451 138.004 53.7548 138.781 59.9101C139.585 66.2808 136.98 75.666 126.295 74.8276C115.611 73.9892 113.419 60.6509 112.899 56.4892C112.379 52.3275 110.448 41.3754 115.488 33.3649Z" fill="url(#paint1_linear_906_810)"/>
<path d="M120.622 43.6476C117.87 42.9418 116.102 41.0312 115.503 39.7746C116.252 38.1886 118.272 34.6952 120.36 33.4094C122.971 31.8021 126.44 33.6041 127.918 36.3697C129.1 38.5822 129.394 41.0071 129.779 42.732C128.08 43.6278 124.357 44.6054 120.622 43.6476Z" fill="#FEF9F5"/>
<path d="M143.867 63.7555C140.873 67.0013 133.732 59.3587 132.912 58.0562C132.133 53.4458 135.5 52.8603 137.281 53.1438C140.292 58.2113 146.861 60.5096 143.867 63.7555Z" fill="#F5543C"/>
<path d="M131.031 82.4003C126.577 82.9431 126.071 71.024 126.293 69.4757C128.839 67.312 131.722 68.4587 132.914 69.85C131.911 75.7549 135.485 81.8574 131.031 82.4003Z" fill="url(#paint2_linear_906_810)"/>
<path d="M140.083 64.1593C133.612 60.0487 132.703 57.8428 132.231 57.1772C132.25 57.7068 132.788 59.3423 133.988 60.7263C135.009 61.9025 138.191 64.1097 140.083 64.1593Z" fill="#DB422A"/>
<path d="M118.028 37.5112C117.76 40.2234 119.435 42.609 121.768 42.8396C124.102 43.0703 126.881 41.218 127.149 38.5058C127.417 35.7936 125.073 33.2487 122.739 33.018C120.405 32.7874 118.296 34.799 118.028 37.5112Z" fill="black"/>
<line x1="100.461" y1="28.806" x2="108.461" y2="47.806" stroke="#CB1313"/>
<line x1="33.5363" y1="8.36585" x2="33.5363" y2="24.902" stroke="#E27526" stroke-opacity="0.3" stroke-width="0.731707" stroke-linecap="round"/>
<circle cx="33.6097" cy="15.7566" r="1.60971" fill="#F57600"/>
<line x1="37.9262" y1="8.36585" x2="37.9262" y2="24.902" stroke="#E27526" stroke-opacity="0.3" stroke-width="0.731707" stroke-linecap="round"/>
<circle cx="37.9999" cy="19.8526" r="1.60971" fill="#F57600"/>
<line x1="42.3168" y1="8.36585" x2="42.3168" y2="24.902" stroke="#E27526" stroke-opacity="0.3" stroke-width="0.731707" stroke-linecap="round"/>
<circle cx="42.3902" cy="11.9511" r="1.60971" fill="#F57600"/>
<line x1="19.5" y1="77" x2="19.5" y2="15" stroke="#D6D6D6"/>
<path d="M66.1253 21.5505C68.4865 21.5505 70.4006 19.6364 70.4006 17.2752C70.4006 14.9141 68.4865 13 66.1253 13C63.7642 13 61.8501 14.9141 61.8501 17.2752C61.8501 19.6364 63.7642 21.5505 66.1253 21.5505Z" fill="#EEEEFF"/>
<path d="M66.1254 18.3436C65.943 18.3436 65.7606 18.2741 65.6217 18.1348L64.9091 17.4223C64.6309 17.144 64.6309 16.693 64.9091 16.4147C65.187 16.1365 65.6388 16.1365 65.9167 16.4147L66.1254 16.6235L66.3342 16.4151C66.6121 16.1368 67.0639 16.1368 67.3417 16.4151C67.62 16.6933 67.62 17.1444 67.3417 17.4226L66.6292 18.1352C66.4903 18.2741 66.3078 18.3436 66.1254 18.3436Z" fill="#F24327"/>
<path d="M67.1942 24.0445H59.7125C59.3192 24.0445 59 23.7252 59 23.3319C59 22.9386 59.3192 22.6194 59.7125 22.6194H67.1942C67.5875 22.6194 67.9068 22.9386 67.9068 23.3319C67.9068 23.7252 67.5875 24.0445 67.1942 24.0445Z" fill="#6D6DFC"/>
<path d="M65.0566 26.5386H59.7125C59.3192 26.5386 59 26.2194 59 25.8261C59 25.4327 59.3192 25.1135 59.7125 25.1135H65.0566C65.4499 25.1135 65.7691 25.4327 65.7691 25.8261C65.7691 26.2194 65.4499 26.5386 65.0566 26.5386Z" fill="#6D6DFC"/>
<path d="M62.919 29.0326H59.7125C59.3192 29.0326 59 28.7134 59 28.3201C59 27.9268 59.3192 27.6075 59.7125 27.6075H62.919C63.3123 27.6075 63.6315 27.9268 63.6315 28.3201C63.6315 28.7134 63.3123 29.0326 62.919 29.0326Z" fill="#6D6DFC"/>
<path d="M61.8502 31.5259H59.7125C59.3192 31.5259 59 31.2067 59 30.8134C59 30.42 59.3192 30.1008 59.7125 30.1008H61.8502C62.2435 30.1008 62.5627 30.42 62.5627 30.8134C62.5627 31.2067 62.2435 31.5259 61.8502 31.5259Z" fill="#6D6DFC"/>
<path d="M81.8015 18.9351C81.8015 19.6512 81.5093 20.3566 80.9999 20.8625L80.4904 21.372C77.5797 21.119 77.7044 24.158 77.7044 24.158L67.3404 34.5219L63.6317 34.0053L63.4856 30.6671L73.8495 20.3032C73.8495 20.3032 73.8531 20.3032 73.8531 20.2996C73.9635 20.2569 75.7199 19.5514 76.2828 18.9885C76.8636 18.4078 76.6355 17.5171 76.6355 17.5171L77.145 17.0077C77.6509 16.4982 78.3563 16.2061 79.0724 16.2061C79.8064 16.2061 80.4904 16.4911 81.0034 17.0077C81.5165 17.5171 81.8015 18.2012 81.8015 18.9351Z" fill="#0F0FED"/>
<path d="M67.3407 34.5226C67.2552 34.6116 67.1447 34.6758 67.0272 34.7078L64.3409 35.4418C64.3409 35.4418 64.3338 35.4418 64.3231 35.4453C64.2126 35.4596 63.5785 35.5273 63.0939 35.0427C62.5845 34.5333 62.5667 33.7459 62.5667 33.6711V33.6675L63.3006 30.9812C63.3326 30.8637 63.3968 30.7532 63.4858 30.6677L67.3407 34.5226Z" fill="#F49625"/>
<path d="M64.3408 35.4412L63.1081 35.7761C63.044 35.7939 62.9834 35.8011 62.9193 35.8011C62.734 35.8011 62.5523 35.7262 62.417 35.5909C62.2353 35.4127 62.164 35.1491 62.2317 34.8997L62.5666 33.667L64.3408 35.4412Z" fill="#0F0FED"/>
<path d="M73.8472 20.3044L76.6327 17.5189L80.4871 21.3732L77.7015 24.1588L73.8472 20.3044Z" fill="#02CFC4"/>
<defs>
<linearGradient id="paint0_linear_906_810" x1="105.56" y1="47.3894" x2="117.221" y2="54.9996" gradientUnits="userSpaceOnUse">
<stop stop-color="#E04D40"/>
<stop offset="1" stop-color="#F15F56"/>
</linearGradient>
<linearGradient id="paint1_linear_906_810" x1="106.148" y1="36.5833" x2="136.289" y2="73.081" gradientUnits="userSpaceOnUse">
<stop stop-color="#FB9782"/>
<stop offset="0.302083" stop-color="#F46639"/>
<stop offset="0.760417" stop-color="#F44C3C"/>
</linearGradient>
<linearGradient id="paint2_linear_906_810" x1="129.286" y1="82.1903" x2="129.283" y2="68.0411" gradientUnits="userSpaceOnUse">
<stop stop-color="#DA4639"/>
<stop offset="1" stop-color="#EC5B4F"/>
</linearGradient>
</defs>
</svg>
