<?xml version="1.0" encoding="UTF-8" standalone="no"?>
<svg width="24" height="24" viewBox="0 0 24 24" fill="none" xmlns="http://www.w3.org/2000/svg">
	<path fill-rule="evenodd" clip-rule="evenodd" d="M20.3407 6.4739C20.789 6.322 21.2756 6.56232 21.4275 7.01068C22.134 9.09598 21.9387 10.8304 21.0598 12.0678C20.1927 13.2886 18.7768 13.8571 17.3888 13.8571C16.039 13.8571 15.0362 13.48 14.1952 12.7894C13.4047 12.1402 12.79 11.2338 12.1615 10.3062C11.5644 9.42514 11.0121 8.90437 10.4432 8.59341C9.87912 8.28509 9.22524 8.14286 8.35349 8.14286C7.57792 8.14286 6.76118 8.57683 6.27981 9.42361C6.04587 9.83515 5.5226 9.97912 5.11106 9.74517C4.69952 9.51123 4.55555 8.98796 4.7895 8.57642C5.5639 7.21414 6.93813 6.42858 8.35349 6.42858C9.41788 6.42858 10.3774 6.60381 11.2654 7.08915C12.1485 7.57184 12.8869 8.3209 13.5806 9.34456C14.2429 10.3218 14.7207 11.0027 15.2832 11.4646C15.7953 11.8851 16.406 12.1429 17.3888 12.1429C18.3335 12.1429 19.1764 11.759 19.6622 11.0751C20.1363 10.4077 20.3881 9.28499 19.8039 7.56076C19.652 7.11241 19.8923 6.62581 20.3407 6.4739Z" fill="#000"/>
	<path fill-rule="evenodd" clip-rule="evenodd" d="M3.43276 12.2737C4.06677 11.6439 4.88063 11.4015 5.60704 11.4015C6.79924 11.4015 8.00928 11.8281 8.58396 13.0646C8.7233 13.3643 8.59323 13.7203 8.29346 13.8596C7.99368 13.999 7.63771 13.8689 7.49838 13.5691C7.19518 12.9168 6.54304 12.5986 5.60704 12.5986C5.13633 12.5986 4.64666 12.7552 4.27643 13.123C3.91237 13.4846 3.59854 14.1156 3.59854 15.1923C3.59854 16.2462 3.94405 16.8741 4.35034 17.2434C4.77081 17.6257 5.31729 17.7861 5.79326 17.7861C6.30247 17.7861 6.72159 17.6617 7.01762 17.3679C7.25418 17.1331 7.47817 16.7244 7.55807 16.0037H6.19229C5.86172 16.0037 5.59374 15.7357 5.59374 15.4051C5.59374 15.0746 5.86172 14.8066 6.19229 14.8066H8.18749C8.51806 14.8066 8.78604 15.0746 8.78604 15.4051C8.78604 16.6944 8.46334 17.6196 7.86096 18.2175C7.25915 18.8149 6.48116 18.9832 5.79326 18.9832C5.0721 18.9832 4.22195 18.7446 3.54507 18.1292C2.854 17.501 2.40143 16.5327 2.40143 15.1923C2.40143 13.8748 2.79257 12.9096 3.43276 12.2737Z" fill="#000"/>
</svg>
