<?xml version="1.0" encoding="UTF-8"?>
<svg width="24" height="24" fill="none" version="1.1" viewBox="0 0 24 24" xmlns="http://www.w3.org/2000/svg">
  <path stroke="currentColor" stroke-linecap="round" stroke-linejoin="round" stroke-width="1.5" d="M4.75 16L7.49619 12.5067C8.2749 11.5161 9.76453 11.4837 10.5856 12.4395L13 15.25M10.915 12.823C11.9522 11.5037 13.3973 9.63455 13.4914 9.51294C13.4947 9.50859 13.4979 9.50448 13.5013 9.50017C14.2815 8.51598 15.7663 8.48581 16.5856 9.43947L19 12.25M6.75 19.25H17.25C18.3546 19.25 19.25 18.3546 19.25 17.25V6.75C19.25 5.64543 18.3546 4.75 17.25 4.75H6.75C5.64543 4.75 4.75 5.64543 4.75 6.75V17.25C4.75 18.3546 5.64543 19.25 6.75 19.25Z"/>
</svg>
