<?xml version="1.0" encoding="utf-8"?>
<!-- Generator: Adobe Illustrator 23.0.2, SVG Export Plug-In . SVG Version: 6.00 Build 0)  -->
<svg version="1.1" id="Calque_1" xmlns="http://www.w3.org/2000/svg" xmlns:xlink="http://www.w3.org/1999/xlink" x="0px" y="0px"
	 viewBox="0 0 19.1 16" style="enable-background:new 0 0 19.1 16;" xml:space="preserve">
<style type="text/css">
	.st0{fill:#27AAE1;}
	.st1{fill:#2B3990;}
	.st2{fill:#FFFFFF;}
	.st3{opacity:0.1;}
</style>
<rect id="base" x="2.9" y="1" class="st0" width="14" height="14"/>
<rect id="frame" x="3.9" y="3.7" class="st1" width="12" height="8.6"/>
<g id="hole">
	<rect x="14.5" y="4.3" class="st2" width="1" height="0.9"/>
	<rect x="4.4" y="4.3" class="st2" width="1" height="0.9"/>
	<rect x="12" y="4.3" class="st2" width="1" height="0.9"/>
	<rect x="6.9" y="4.3" class="st2" width="1" height="0.9"/>
	<rect x="9.4" y="4.3" class="st2" width="1" height="0.9"/>
</g>
<g id="hole_1_">
	<rect x="14.5" y="10.7" class="st2" width="1" height="0.9"/>
	<rect x="4.4" y="10.7" class="st2" width="1" height="0.9"/>
	<rect x="12" y="10.7" class="st2" width="1" height="0.9"/>
	<rect x="6.9" y="10.7" class="st2" width="1" height="0.9"/>
	<rect x="9.4" y="10.7" class="st2" width="1" height="0.9"/>
</g>
<polygon id="triangle_1_" class="st2" points="8.6,9.6 12.1,7.9 8.6,6.3 "/>
<g id="highlight">
	<g class="st3">
		<polygon points="16.9,15 2.9,1 2.9,15 		"/>
		<polygon class="st2" points="16.9,1 2.9,1 16.9,15 		"/>
	</g>
</g>
</svg>
