<?xml version="1.0" encoding="utf-8"?>
<!-- Generator: Adobe Illustrator 16.2.0, SVG Export Plug-In . SVG Version: 6.00 Build 0)  -->
<!DOCTYPE svg PUBLIC "-//W3C//DTD SVG 1.1//EN" "http://www.w3.org/Graphics/SVG/1.1/DTD/svg11.dtd">
<svg version="1.1" id="Layer_1" xmlns:ev="http://www.w3.org/2001/xml-events"
	 xmlns="http://www.w3.org/2000/svg" xmlns:xlink="http://www.w3.org/1999/xlink" x="0px" y="0px" width="600px" height="400px"
	 viewBox="0 0 600 400" enable-background="new 0 0 600 400" xml:space="preserve">
<g>
	<g transform="matrix(1.0 0.0 0.0 1.0 0.0 0.0)">
		<path fill="#6FC4A9" d="M108.45,141.6H100.1l-3.55-18.3c-0.3-1.8,0.017-3.366,0.95-4.7c1.1-1.434,2.55-2.133,4.35-2.1
			c1.867-0.033,3.45,0.667,4.75,2.1c1.267,1.333,1.884,2.9,1.851,4.7V141.6z M71.45,123.3c-0.034-1.8,0.583-3.366,1.85-4.7
			c1.3-1.434,2.883-2.133,4.75-2.1c1.8-0.033,3.25,0.667,4.35,2.1c0.934,1.333,1.25,2.9,0.95,4.7l-3.55,18.3h-8.35V123.3z"/>
		<path fill="#6FC4A9" d="M68.45,79.4c0-5.933,2.1-11,6.3-15.2c4.2-4.2,9.267-6.3,15.2-6.3c5.933,0,11,2.1,15.199,6.3
			c4.2,4.2,6.301,9.267,6.301,15.2v40.4c0,3.634-2.101,6.733-6.301,9.3c-4.199,2.533-9.267,3.8-15.199,3.8
			c-5.934,0-11-1.267-15.2-3.8c-4.2-2.567-6.3-5.667-6.3-9.3V79.4z"/>
		<path fill="#347E67" d="M77.55,87.35c1-0.967,2.2-1.45,3.6-1.45c1.334,0,2.483,0.483,3.45,1.45c1,1,1.5,2.167,1.5,3.5
			s-0.5,2.466-1.5,3.4c-0.967,1-2.116,1.5-3.45,1.5c-1.399,0-2.6-0.5-3.6-1.5c-0.934-0.934-1.4-2.066-1.4-3.4
			S76.616,88.35,77.55,87.35z M98.85,85.9c1.333,0,2.483,0.483,3.45,1.45c1,1,1.5,2.167,1.5,3.5s-0.5,2.466-1.5,3.4
			c-0.967,1-2.117,1.5-3.45,1.5c-1.399,0-2.6-0.5-3.6-1.5c-0.934-0.934-1.4-2.066-1.4-3.4s0.467-2.5,1.4-3.5
			C96.25,86.383,97.45,85.9,98.85,85.9z M96.35,98c0.233,0.066,0.434,0.233,0.601,0.5v0.8c-0.4,0.9-1.051,1.717-1.95,2.45
			c-1.4,1.1-3.084,1.65-5.05,1.65c-2,0-3.7-0.55-5.101-1.65c-1-0.733-1.633-1.583-1.899-2.55c-0.067-0.267-0.034-0.517,0.1-0.75
			c0.1-0.267,0.283-0.434,0.55-0.5l0.851,0.1L84.9,98.6c0.2,0.6,0.601,1.133,1.2,1.6c1.033,0.8,2.316,1.2,3.851,1.2
			c1.466,0,2.732-0.4,3.8-1.2l1.3-1.65c0.066-0.267,0.233-0.45,0.5-0.55C95.817,97.867,96.083,97.867,96.35,98z"/>
		<path fill="#6FC4A9" d="M58.5,119.8c-0.2-8.366,3.649-14.1,11.55-17.2l0.3-0.1v9.2c-4.667-0.134-6.95,2.533-6.85,8
			c0,0.7-0.233,1.3-0.7,1.8s-1.05,0.75-1.75,0.75s-1.3-0.233-1.8-0.7C58.783,121.083,58.533,120.5,58.5,119.8z M120.65,121.55
			c-0.5,0.467-1.1,0.7-1.8,0.7s-1.283-0.25-1.75-0.75s-0.7-1.1-0.7-1.8c0.101-5.467-2.183-8.134-6.85-8v-9.2l0.3,0.1
			c7.9,3.1,11.75,8.833,11.55,17.2C121.366,120.5,121.116,121.083,120.65,121.55z"/>
		<path opacity="0.2" fill="#FFFFFF" enable-background="new    " d="M89.95,54.8c7.6,0,14.116,2.7,19.55,8.1
			c5.366,5.367,8.05,11.85,8.05,19.45c0,7.633-2.684,14.15-8.05,19.55c-5.434,5.367-11.95,8.05-19.55,8.05
			c-7.601,0-14.084-2.684-19.45-8.05c-5.434-5.4-8.15-11.917-8.15-19.55c0-7.6,2.717-14.083,8.15-19.45
			C75.866,57.5,82.35,54.8,89.95,54.8z M94.75,65.35c-1.867,1.833-2.8,4.05-2.8,6.65s0.933,4.816,2.8,6.65
			c1.833,1.833,4.05,2.75,6.649,2.75c2.601,0,4.817-0.917,6.65-2.75s2.75-4.05,2.75-6.65s-0.917-4.816-2.75-6.65
			c-1.833-1.867-4.05-2.8-6.65-2.8C98.8,62.55,96.583,63.483,94.75,65.35z"/>
		<path fill="#FFFFFF" d="M109.5,62.9c-5.434-5.4-11.95-8.1-19.55-8.1c-7.601,0-14.084,2.7-19.45,8.1
			c-5.434,5.367-8.15,11.85-8.15,19.45c0,7.633,2.717,14.15,8.15,19.55c5.366,5.367,11.85,8.05,19.45,8.05
			c7.6,0,14.116-2.684,19.55-8.05c5.366-5.4,8.05-11.917,8.05-19.55C117.55,74.75,114.866,68.267,109.5,62.9z M57.35,82.35
			c0-9,3.2-16.667,9.601-23c6.333-6.367,14-9.55,23-9.55s16.699,3.184,23.1,9.55c6.333,6.333,9.5,14,9.5,23
			c0,9.033-3.167,16.733-9.5,23.1c-6.4,6.333-14.1,9.5-23.1,9.5s-16.667-3.167-23-9.5C60.55,99.083,57.35,91.383,57.35,82.35z"/>
		<path opacity="0.302" fill="#FFFFFF" enable-background="new    " d="M91.95,72c0-2.6,0.933-4.816,2.8-6.65
			c1.833-1.867,4.05-2.8,6.649-2.8c2.601,0,4.817,0.934,6.65,2.8c1.833,1.833,2.75,4.05,2.75,6.65s-0.917,4.816-2.75,6.65
			S104,81.4,101.4,81.4c-2.6,0-4.816-0.917-6.649-2.75C92.883,76.816,91.95,74.6,91.95,72z"/>
		<path fill="#6FC4A9" d="M186.55,141.6h-8.35l-2.2-18.3c-0.134-1.8,0.3-3.366,1.3-4.7c1.233-1.434,2.75-2.133,4.55-2.1
			c1.867-0.033,3.384,0.667,4.55,2.1c1.2,1.333,1.7,2.9,1.5,4.7L186.55,141.6z M150.15,123.3c0.301-1.8,1.217-3.366,2.75-4.7
			c1.533-1.434,3.25-2.133,5.15-2.1c1.767-0.033,3.083,0.667,3.95,2.1c0.666,1.333,0.683,2.9,0.05,4.7L155,141.6h-8.351
			L150.15,123.3z"/>
		<path fill="#6FC4A9" d="M148.45,79.4c0-5.933,2.1-11,6.3-15.2c4.2-4.2,9.267-6.3,15.2-6.3c5.933,0,11,2.1,15.199,6.3
			c4.2,4.2,6.301,9.267,6.301,15.2v40.4c0,3.634-2.101,6.733-6.301,9.3c-4.199,2.533-9.267,3.8-15.199,3.8
			c-5.934,0-11-1.267-15.2-3.8c-4.2-2.567-6.3-5.667-6.3-9.3V79.4z"/>
		<path fill="#347E67" d="M178.85,90.85c0-1.333,0.467-2.5,1.4-3.5c1-0.967,2.2-1.45,3.6-1.45c1.333,0,2.483,0.483,3.45,1.45
			c1,1,1.5,2.167,1.5,3.5s-0.5,2.466-1.5,3.4c-0.967,1-2.117,1.5-3.45,1.5c-1.399,0-2.6-0.5-3.6-1.5
			C179.317,93.316,178.85,92.184,178.85,90.85z M169.6,87.35c1,1,1.5,2.167,1.5,3.5s-0.5,2.466-1.5,3.4c-0.967,1-2.116,1.5-3.45,1.5
			c-1.399,0-2.6-0.5-3.6-1.5c-0.934-0.934-1.4-2.066-1.4-3.4s0.467-2.5,1.4-3.5c1-0.967,2.2-1.45,3.6-1.45
			C167.484,85.9,168.633,86.383,169.6,87.35z M181.35,98c0.233,0.066,0.434,0.233,0.601,0.5v0.8c-0.4,0.9-1.051,1.717-1.95,2.45
			c-1.4,1.1-3.084,1.65-5.05,1.65c-2,0-3.7-0.55-5.101-1.65c-1-0.733-1.633-1.583-1.899-2.55c-0.067-0.267-0.034-0.517,0.1-0.75
			c0.1-0.267,0.283-0.434,0.55-0.5l0.851,0.1l0.449,0.55c0.2,0.6,0.601,1.133,1.2,1.6c1.033,0.8,2.316,1.2,3.851,1.2
			c1.466,0,2.732-0.4,3.8-1.2c0.6-0.5,1.033-1.05,1.3-1.65c0.066-0.267,0.233-0.45,0.5-0.55
			C180.817,97.867,181.083,97.867,181.35,98z"/>
		<path fill="#6FC4A9" d="M197.65,121.55c-0.5,0.467-1.1,0.7-1.8,0.7s-1.283-0.25-1.75-0.75s-0.7-1.1-0.7-1.8
			c0.101-5.467-2.183-8.134-6.85-8v-9.2l0.3,0.1c7.9,3.1,11.75,8.833,11.55,17.2C198.366,120.5,198.116,121.083,197.65,121.55z
			 M141.05,122.25c-0.7,0-1.3-0.233-1.8-0.7c-0.467-0.466-0.717-1.05-0.75-1.75c-0.2-8.366,3.649-14.1,11.55-17.2l0.3-0.1v9.2
			c-4.667-0.134-6.95,2.533-6.85,8c0,0.7-0.233,1.3-0.7,1.8S141.75,122.25,141.05,122.25z"/>
		<path opacity="0.302" fill="#FFFFFF" enable-background="new    " d="M171.95,72c0-2.6,0.933-4.816,2.8-6.65
			c1.833-1.867,4.05-2.8,6.649-2.8c2.601,0,4.817,0.934,6.65,2.8c1.833,1.833,2.75,4.05,2.75,6.65s-0.917,4.816-2.75,6.65
			S184,81.4,181.4,81.4c-2.6,0-4.816-0.917-6.649-2.75C172.883,76.816,171.95,74.6,171.95,72z"/>
		<path opacity="0.2" fill="#FFFFFF" enable-background="new    " d="M174.75,65.35c-1.867,1.833-2.8,4.05-2.8,6.65
			s0.933,4.816,2.8,6.65c1.833,1.833,4.05,2.75,6.649,2.75c2.601,0,4.817-0.917,6.65-2.75s2.75-4.05,2.75-6.65
			s-0.917-4.816-2.75-6.65c-1.833-1.867-4.05-2.8-6.65-2.8C178.8,62.55,176.583,63.483,174.75,65.35z M169.95,54.8
			c7.6,0,14.116,2.7,19.55,8.1c5.366,5.367,8.05,11.85,8.05,19.45c0,7.633-2.684,14.15-8.05,19.55
			c-5.434,5.367-11.95,8.05-19.55,8.05c-7.601,0-14.084-2.684-19.45-8.05c-5.434-5.4-8.15-11.917-8.15-19.55
			c0-7.6,2.717-14.083,8.15-19.45C155.866,57.5,162.35,54.8,169.95,54.8z"/>
		<path fill="#FFFFFF" d="M189.5,62.9c-5.434-5.4-11.95-8.1-19.55-8.1c-7.601,0-14.084,2.7-19.45,8.1
			c-5.434,5.367-8.15,11.85-8.15,19.45c0,7.633,2.717,14.15,8.15,19.55c5.366,5.367,11.85,8.05,19.45,8.05
			c7.6,0,14.116-2.684,19.55-8.05c5.366-5.4,8.05-11.917,8.05-19.55C197.55,74.75,194.866,68.267,189.5,62.9z M137.35,82.35
			c0-9,3.2-16.667,9.601-23c6.333-6.367,14-9.55,23-9.55s16.699,3.184,23.1,9.55c6.333,6.333,9.5,14,9.5,23
			c0,9.033-3.167,16.733-9.5,23.1c-6.4,6.333-14.1,9.5-23.1,9.5s-16.667-3.167-23-9.5C140.55,99.083,137.35,91.383,137.35,82.35z"/>
		<path fill="#6FC4A9" d="M348.9,118.6c1.2,1.333,1.7,2.9,1.5,4.7l-1.35,18.3h-8.351l-2.199-18.3c-0.134-1.8,0.3-3.366,1.3-4.7
			c1.233-1.434,2.75-2.133,4.55-2.1C346.216,116.467,347.733,117.167,348.9,118.6z M310.4,118.6c1.533-1.434,3.25-2.133,5.15-2.1
			c1.767-0.033,3.083,0.667,3.95,2.1c0.666,1.333,0.683,2.9,0.05,4.7l-7.05,18.3h-8.351l3.5-18.3
			C307.949,121.5,308.866,119.934,310.4,118.6z"/>
		<path fill="#6FC4A9" d="M307.949,120.15l6.601-24.5c1.533-5.733,4.866-10.1,10-13.1c5.166-2.966,10.616-3.683,16.35-2.15
			c5.733,1.534,10.066,4.883,13,10.05c3,5.133,3.733,10.566,2.2,16.3l-6.6,24.5c-0.934,3.533-3.768,6-8.5,7.4
			c-4.7,1.333-9.917,1.233-15.65-0.3c-5.733-1.534-10.3-4.067-13.7-7.6C308.25,127.217,307.017,123.684,307.949,120.15z"/>
		<path fill="#347E67" d="M348.25,120c-1.2,0.7-2.45,0.883-3.75,0.55c-1.334-0.366-2.351-1.167-3.051-2.4
			c-0.666-1.133-0.833-2.333-0.5-3.6c0.367-1.3,1.117-2.316,2.25-3.05c1.233-0.667,2.517-0.816,3.851-0.45
			c1.3,0.333,2.283,1.1,2.95,2.3c0.732,1.2,0.916,2.45,0.55,3.75C350.216,118.367,349.449,119.333,348.25,120z M329.949,106.45
			c1.301,0.366,2.283,1.133,2.95,2.3c0.733,1.233,0.917,2.5,0.55,3.8c-0.333,1.267-1.1,2.217-2.3,2.85
			c-1.2,0.733-2.45,0.917-3.75,0.55c-1.333-0.367-2.35-1.15-3.05-2.35c-0.667-1.167-0.833-2.383-0.5-3.65
			c0.366-1.3,1.116-2.3,2.25-3C327.333,106.25,328.616,106.083,329.949,106.45z"/>
		<path fill="#347E67" d="M334.199,126.85c-0.699,0-1.3-0.25-1.8-0.75c-0.467-0.467-0.7-1.05-0.7-1.75c0-0.7,0.233-1.3,0.7-1.8
			c0.5-0.466,1.101-0.7,1.8-0.7c0.7,0,1.283,0.233,1.75,0.7c0.5,0.5,0.75,1.1,0.75,1.8c0,0.7-0.25,1.283-0.75,1.75
			C335.483,126.6,334.9,126.85,334.199,126.85z"/>
		<path fill="#6FC4A9" d="M354.1,138.85c-0.3-0.633-0.367-1.284-0.2-1.95c1.5-5.233-0.033-8.383-4.6-9.45l2.399-8.9L352,118.7
			c6.8,5.066,9.017,11.6,6.649,19.6c-0.2,0.667-0.583,1.167-1.149,1.5l-1.9,0.2C354.933,139.833,354.433,139.45,354.1,138.85z
			 M303.2,124c-0.167,0.667-0.551,1.184-1.15,1.55l-1.9,0.25c-0.666-0.167-1.183-0.533-1.55-1.1c-0.333-0.6-0.434-1.233-0.3-1.9
			c1.967-8.1,7.184-12.633,15.649-13.6l0.301-0.05l-2.4,8.9C307.383,116.717,304.5,118.7,303.2,124z"/>
		<path opacity="0.302" fill="#FFFFFF" enable-background="new    " d="M339.5,86.05c1.833-1.866,4.05-2.8,6.649-2.8
			c2.601,0,4.816,0.934,6.65,2.8c1.833,1.833,2.75,4.05,2.75,6.65c0,2.6-0.917,4.816-2.75,6.65c-1.834,1.833-4.051,2.75-6.65,2.75
			s-4.816-0.917-6.649-2.75c-1.867-1.833-2.801-4.05-2.801-6.65C336.699,90.1,337.633,87.883,339.5,86.05z"/>
		<path opacity="0.2" fill="#FFFFFF" enable-background="new    " d="M346.15,83.25c-2.6,0-4.816,0.934-6.649,2.8
			c-1.867,1.833-2.801,4.05-2.801,6.65c0,2.6,0.934,4.816,2.801,6.65c1.833,1.833,4.05,2.75,6.649,2.75
			c2.601,0,4.816-0.917,6.65-2.75c1.833-1.833,2.75-4.05,2.75-6.65c0-2.6-0.917-4.817-2.75-6.65
			C350.966,84.184,348.749,83.25,346.15,83.25z M334.699,75.5c7.601,0,14.117,2.7,19.551,8.1c5.366,5.367,8.05,11.85,8.05,19.45
			c0,7.634-2.684,14.15-8.05,19.55c-5.434,5.367-11.95,8.05-19.551,8.05c-7.6,0-14.083-2.683-19.449-8.05
			c-5.434-5.4-8.15-11.917-8.15-19.55c0-7.6,2.717-14.083,8.15-19.45C320.616,78.2,327.1,75.5,334.699,75.5z"/>
		<path fill="#FFFFFF" d="M354.25,83.6c-5.434-5.4-11.95-8.1-19.551-8.1c-7.6,0-14.083,2.7-19.449,8.1
			c-5.434,5.367-8.15,11.85-8.15,19.45c0,7.634,2.717,14.15,8.15,19.55c5.366,5.367,11.85,8.05,19.449,8.05
			c7.601,0,14.117-2.683,19.551-8.05c5.366-5.4,8.05-11.917,8.05-19.55C362.3,95.45,359.616,88.967,354.25,83.6z M302.1,103.05
			c0-9,3.2-16.667,9.6-23c6.334-6.366,14-9.55,23-9.55s16.7,3.184,23.101,9.55c6.333,6.333,9.5,14,9.5,23
			c0,9.034-3.167,16.733-9.5,23.1c-6.4,6.333-14.101,9.5-23.101,9.5s-16.666-3.167-23-9.5C305.3,119.783,302.1,112.083,302.1,103.05
			z"/>
		<path fill="#6FC4A9" d="M393.449,119.8V79.4c0-5.933,2.101-11,6.301-15.2c4.199-4.2,9.267-6.3,15.199-6.3c5.934,0,11,2.1,15.2,6.3
			c4.2,4.2,6.3,9.267,6.3,15.2v40.4c0,3.634-2.1,6.733-6.3,9.3c-4.2,2.533-9.267,3.8-15.2,3.8c-5.933,0-11-1.267-15.199-3.8
			C395.55,126.533,393.449,123.434,393.449,119.8z"/>
		<path fill="#347E67" d="M407.55,87.35c1-0.967,2.2-1.45,3.6-1.45c1.333,0,2.483,0.483,3.45,1.45c1,1,1.5,2.167,1.5,3.5
			s-0.5,2.466-1.5,3.4c-0.967,1-2.117,1.5-3.45,1.5c-1.399,0-2.6-0.5-3.6-1.5c-0.934-0.934-1.4-2.066-1.4-3.4
			S406.616,88.35,407.55,87.35z M419.949,95.4c1.967,0,3.65,0.55,5.051,1.65c0.899,0.733,1.55,1.55,1.949,2.45v0.8l-0.6,0.5
			c-0.267,0.134-0.533,0.134-0.8,0l-0.5-0.55c-0.267-0.6-0.7-1.15-1.3-1.65c-1.067-0.8-2.334-1.2-3.801-1.2
			c-1.533,0-2.816,0.4-3.85,1.2c-0.6,0.466-1,1-1.2,1.6l-0.45,0.55l-0.85,0.1l-0.55-0.5c-0.134-0.233-0.167-0.483-0.101-0.75
			c0.267-0.967,0.9-1.817,1.9-2.55C416.25,95.95,417.949,95.4,419.949,95.4z M432.3,94.25c-0.967,1-2.117,1.5-3.45,1.5
			c-1.4,0-2.6-0.5-3.6-1.5c-0.934-0.934-1.4-2.066-1.4-3.4s0.467-2.5,1.4-3.5c1-0.967,2.199-1.45,3.6-1.45
			c1.333,0,2.483,0.483,3.45,1.45c1,1,1.5,2.167,1.5,3.5S433.3,93.316,432.3,94.25z"/>
		<path fill="#6FC4A9" d="M380,108.45c5.767-6.034,12.533-7.367,20.3-4l0.3,0.15l-6.5,6.5c-3.2-3.4-6.7-3.117-10.5,0.85
			c-0.5,0.5-1.083,0.75-1.75,0.75c-0.7,0.033-1.3-0.2-1.8-0.7s-0.75-1.1-0.75-1.8C379.3,109.566,379.533,108.983,380,108.45z
			 M443.3,111.9c-3.767-3.933-7.25-4.2-10.45-0.8l-6.5-6.5c0.066-0.1,0.15-0.167,0.25-0.2c7.767-3.367,14.533-2.033,20.3,4
			c0.467,0.534,0.717,1.133,0.75,1.8c-0.033,0.667-0.3,1.25-0.8,1.75s-1.1,0.733-1.8,0.7C444.383,112.65,443.8,112.4,443.3,111.9z"
			/>
		<path opacity="0.302" fill="#FFFFFF" enable-background="new    " d="M416.949,72c0-2.6,0.934-4.816,2.801-6.65
			c1.833-1.867,4.05-2.8,6.649-2.8c2.601,0,4.816,0.934,6.65,2.8c1.833,1.833,2.75,4.05,2.75,6.65s-0.917,4.816-2.75,6.65
			c-1.834,1.833-4.051,2.75-6.65,2.75s-4.816-0.917-6.649-2.75C417.883,76.816,416.949,74.6,416.949,72z"/>
		<path opacity="0.2" fill="#FFFFFF" enable-background="new    " d="M419.75,65.35c-1.867,1.833-2.801,4.05-2.801,6.65
			s0.934,4.816,2.801,6.65c1.833,1.833,4.05,2.75,6.649,2.75c2.601,0,4.816-0.917,6.65-2.75c1.833-1.833,2.75-4.05,2.75-6.65
			s-0.917-4.816-2.75-6.65c-1.834-1.867-4.051-2.8-6.65-2.8S421.583,63.483,419.75,65.35z M395.5,62.9
			c5.366-5.4,11.85-8.1,19.449-8.1c7.601,0,14.117,2.7,19.551,8.1c5.366,5.367,8.05,11.85,8.05,19.45
			c0,7.633-2.684,14.15-8.05,19.55c-5.434,5.367-11.95,8.05-19.551,8.05c-7.6,0-14.083-2.684-19.449-8.05
			c-5.434-5.4-8.15-11.917-8.15-19.55C387.35,74.75,390.067,68.267,395.5,62.9z"/>
		<path fill="#FFFFFF" d="M414.949,54.8c-7.6,0-14.083,2.7-19.449,8.1c-5.434,5.367-8.15,11.85-8.15,19.45
			c0,7.633,2.717,14.15,8.15,19.55c5.366,5.367,11.85,8.05,19.449,8.05c7.601,0,14.117-2.684,19.551-8.05
			c5.366-5.4,8.05-11.917,8.05-19.55c0-7.6-2.684-14.083-8.05-19.45C429.067,57.5,422.55,54.8,414.949,54.8z M382.35,82.35
			c0-9,3.2-16.667,9.6-23c6.334-6.367,14-9.55,23-9.55s16.7,3.184,23.101,9.55c6.333,6.333,9.5,14,9.5,23
			c0,9.033-3.167,16.733-9.5,23.1c-6.4,6.333-14.101,9.5-23.101,9.5s-16.666-3.167-23-9.5C385.55,99.083,382.35,91.383,382.35,82.35
			z"/>
		<path fill="#6FC4A9" d="M442.1,136.75c-0.434,1.9-1.233,3.417-2.4,4.55c-1.467,0.867-2.717,0.75-3.75-0.35
			c-0.6-6.034-3.983-10.067-10.149-12.1c1.267-4.067,3.8-6.917,7.6-8.55C440.3,126.367,443.199,131.85,442.1,136.75z M406.9,120.3
			c6.9,6.067,9.8,11.55,8.7,16.45c-0.434,1.9-1.233,3.417-2.4,4.55c-1.467,0.867-2.717,0.75-3.75-0.35
			c-0.6-6.034-3.983-10.067-10.149-12.1C400.567,124.783,403.1,121.934,406.9,120.3z"/>
		<path fill="#8DB5E7" d="M106.45,241.6H98.1l-3.55-18.3c-0.3-1.8,0.017-3.366,0.95-4.7c1.1-1.434,2.55-2.133,4.35-2.1
			c1.867-0.033,3.45,0.666,4.75,2.1c1.267,1.334,1.884,2.9,1.851,4.7V241.6z M73.45,223.3c-0.034-1.8,0.583-3.366,1.85-4.7
			c1.3-1.434,2.883-2.133,4.75-2.1c1.8-0.033,3.25,0.666,4.35,2.1c0.934,1.334,1.25,2.9,0.95,4.7l-3.55,18.3h-8.35V223.3z"/>
		<path fill="#8DB5E7" d="M88.95,157.95l1-0.05l1,0.05v0.15c4.666,0.6,8.732,2.633,12.199,6.1c4.2,4.2,6.301,9.267,6.301,15.2v40.4
			c0,3.634-2.101,6.733-6.301,9.3c-3.467,2.101-7.533,3.334-12.199,3.7v0.101h-1h-1V232.8c-4.634-0.366-8.7-1.6-12.2-3.7
			c-4.2-2.566-6.3-5.666-6.3-9.3v-40.4c0-5.933,2.1-11,6.3-15.2c3.5-3.5,7.566-5.534,12.2-6.1V157.95z"/>
		<path fill="#8DB5E7" d="M114.4,229.7c0.101-5.467-2.183-8.134-6.85-8v-9.2l0.3,0.1c7.9,3.101,11.75,8.834,11.55,17.2
			c-0.033,0.7-0.283,1.284-0.75,1.75c-0.5,0.467-1.1,0.7-1.8,0.7s-1.283-0.25-1.75-0.75S114.4,230.4,114.4,229.7z M72.35,221.7
			c-4.667-0.134-6.95,2.533-6.85,8c0,0.7-0.233,1.3-0.7,1.8s-1.05,0.75-1.75,0.75s-1.3-0.233-1.8-0.7
			c-0.467-0.466-0.717-1.05-0.75-1.75c-0.2-8.366,3.649-14.1,11.55-17.2l0.3-0.1V221.7z"/>
		<path fill="#4F719D" d="M88.35,186.3c0.5-0.533,1.117-0.8,1.851-0.8c0.666,0,1.232,0.267,1.699,0.8c0.5,0.467,0.75,1.05,0.75,1.75
			c0,0.7-0.25,1.284-0.75,1.75c-0.467,0.5-1.033,0.75-1.699,0.75c-0.733,0-1.351-0.25-1.851-0.75c-0.467-0.466-0.7-1.05-0.7-1.75
			C87.65,187.35,87.883,186.767,88.35,186.3z M84.35,194.05c-0.434,0.534-1.017,0.8-1.75,0.8c-0.667,0-1.267-0.267-1.8-0.8
			c-0.467-0.433-0.7-1.017-0.7-1.75c0-0.667,0.233-1.25,0.7-1.75c0.533-0.5,1.133-0.75,1.8-0.75c0.733,0,1.316,0.25,1.75,0.75
			c0.533,0.5,0.8,1.083,0.8,1.75C85.15,193.033,84.883,193.617,84.35,194.05z M100.2,192.3c0,0.733-0.268,1.317-0.801,1.75
			c-0.5,0.534-1.066,0.8-1.699,0.8c-0.733,0-1.351-0.267-1.851-0.8c-0.5-0.433-0.75-1.017-0.75-1.75c0-0.667,0.25-1.25,0.75-1.75
			s1.117-0.75,1.851-0.75c0.633,0,1.199,0.25,1.699,0.75C99.933,191.05,100.2,191.633,100.2,192.3z M94.3,202.05
			c0,0.3-0.117,0.55-0.35,0.75c-0.2,0.233-0.45,0.351-0.75,0.351h-6.25c-0.301,0-0.567-0.117-0.801-0.351
			c-0.166-0.2-0.25-0.45-0.25-0.75c0-0.267,0.084-0.517,0.25-0.75c0.233-0.2,0.5-0.3,0.801-0.3h6.25c0.3,0,0.55,0.1,0.75,0.3
			C94.183,201.533,94.3,201.783,94.3,202.05z"/>
		<path opacity="0.2" fill="#FFFFFF" enable-background="new    " d="M70.5,162.9c5.366-5.4,11.85-8.1,19.45-8.1
			c7.6,0,14.116,2.7,19.55,8.1c5.366,5.367,8.05,11.85,8.05,19.45c0,7.633-2.684,14.15-8.05,19.55
			c-5.434,5.366-11.95,8.05-19.55,8.05c-7.601,0-14.084-2.684-19.45-8.05c-5.434-5.4-8.15-11.917-8.15-19.55
			C62.35,174.75,65.067,168.267,70.5,162.9z M101.4,162.55c-2.6,0-4.816,0.934-6.649,2.8c-1.867,1.833-2.8,4.05-2.8,6.65
			s0.933,4.816,2.8,6.65c1.833,1.833,4.05,2.75,6.649,2.75c2.601,0,4.817-0.917,6.65-2.75s2.75-4.05,2.75-6.65
			s-0.917-4.816-2.75-6.65C106.217,163.483,104,162.55,101.4,162.55z"/>
		<path fill="#FFFFFF" d="M89.95,154.8c-7.601,0-14.084,2.7-19.45,8.1c-5.434,5.367-8.15,11.85-8.15,19.45
			c0,7.633,2.717,14.15,8.15,19.55c5.366,5.366,11.85,8.05,19.45,8.05c7.6,0,14.116-2.684,19.55-8.05
			c5.366-5.4,8.05-11.917,8.05-19.55c0-7.6-2.684-14.083-8.05-19.45C104.067,157.5,97.55,154.8,89.95,154.8z M57.35,182.35
			c0-9,3.2-16.667,9.601-23c6.333-6.367,14-9.55,23-9.55s16.699,3.184,23.1,9.55c6.333,6.333,9.5,14,9.5,23
			c0,9.033-3.167,16.733-9.5,23.1c-6.4,6.333-14.1,9.5-23.1,9.5s-16.667-3.167-23-9.5C60.55,199.083,57.35,191.383,57.35,182.35z"/>
		<path opacity="0.302" fill="#FFFFFF" enable-background="new    " d="M94.75,165.35c1.833-1.867,4.05-2.8,6.649-2.8
			c2.601,0,4.817,0.934,6.65,2.8c1.833,1.833,2.75,4.05,2.75,6.65s-0.917,4.816-2.75,6.65s-4.05,2.75-6.65,2.75
			c-2.6,0-4.816-0.917-6.649-2.75c-1.867-1.833-2.8-4.05-2.8-6.65S92.883,167.184,94.75,165.35z"/>
		<path fill="#8DB5E7" d="M184.55,241.6h-8.35l-2.2-18.3c-0.134-1.8,0.3-3.366,1.3-4.7c1.233-1.434,2.75-2.133,4.55-2.1
			c1.867-0.033,3.384,0.666,4.55,2.1c1.2,1.334,1.7,2.9,1.5,4.7L184.55,241.6z M152.15,223.3c0.301-1.8,1.217-3.366,2.75-4.7
			c1.533-1.434,3.25-2.133,5.15-2.1c1.767-0.033,3.083,0.666,3.95,2.1c0.666,1.334,0.683,2.9,0.05,4.7L157,241.6h-8.351
			L152.15,223.3z"/>
		<path fill="#8DB5E7" d="M170.9,157.95v0.15c4.667,0.566,8.75,2.6,12.25,6.1c4.2,4.2,6.301,9.267,6.301,15.2v40.4
			c0,3.634-2.101,6.733-6.301,9.3c-3.5,2.101-7.583,3.334-12.25,3.7v0.101h-0.949h-0.75H168.9l-1-0.051V232.7
			c-4.233-0.467-7.949-1.667-11.149-3.601c-4.2-2.566-6.3-5.666-6.3-9.3v-40.4c0-5.933,2.1-11,6.3-15.2
			c3.2-3.2,6.916-5.184,11.149-5.95V158l1-0.05l1.051-0.05L170.9,157.95z"/>
		<path fill="#8DB5E7" d="M191.4,229.7c0.101-5.467-2.183-8.134-6.85-8v-9.2l0.3,0.1c7.9,3.101,11.75,8.834,11.55,17.2
			c-0.033,0.7-0.283,1.284-0.75,1.75c-0.5,0.467-1.1,0.7-1.8,0.7s-1.283-0.25-1.75-0.75S191.4,230.4,191.4,229.7z M145.5,229.7
			c0,0.7-0.233,1.3-0.7,1.8s-1.05,0.75-1.75,0.75s-1.3-0.233-1.8-0.7c-0.467-0.466-0.717-1.05-0.75-1.75
			c-0.2-8.366,3.649-14.1,11.55-17.2l0.3-0.1v9.2C147.683,221.566,145.4,224.233,145.5,229.7z"/>
		<path fill="#4F719D" d="M167.6,189.8c0.733,0,1.316,0.25,1.75,0.75c0.533,0.5,0.8,1.083,0.8,1.75c0,0.733-0.267,1.317-0.8,1.75
			c-0.434,0.534-1.017,0.8-1.75,0.8c-0.667,0-1.267-0.267-1.8-0.8c-0.467-0.433-0.7-1.017-0.7-1.75c0-0.667,0.233-1.25,0.7-1.75
			C166.333,190.05,166.933,189.8,167.6,189.8z M176.9,189.8c-0.467,0.5-1.033,0.75-1.699,0.75c-0.733,0-1.351-0.25-1.851-0.75
			c-0.467-0.466-0.7-1.05-0.7-1.75c0-0.7,0.233-1.283,0.7-1.75c0.5-0.533,1.117-0.8,1.851-0.8c0.666,0,1.232,0.267,1.699,0.8
			c0.5,0.467,0.75,1.05,0.75,1.75C177.65,188.75,177.4,189.333,176.9,189.8z M180.85,190.55c0.5-0.5,1.117-0.75,1.851-0.75
			c0.633,0,1.199,0.25,1.699,0.75c0.533,0.5,0.801,1.083,0.801,1.75c0,0.733-0.268,1.317-0.801,1.75c-0.5,0.534-1.066,0.8-1.699,0.8
			c-0.733,0-1.351-0.267-1.851-0.8c-0.5-0.433-0.75-1.017-0.75-1.75C180.1,191.633,180.35,191.05,180.85,190.55z M179.3,202.05
			l-0.35,0.75c-0.2,0.233-0.45,0.351-0.75,0.351h-6.25c-0.301,0-0.567-0.117-0.801-0.351c-0.166-0.2-0.25-0.45-0.25-0.75
			c0-0.267,0.084-0.517,0.25-0.75c0.233-0.2,0.5-0.3,0.801-0.3h6.25c0.3,0,0.55,0.1,0.75,0.3L179.3,202.05z"/>
		<path opacity="0.302" fill="#FFFFFF" enable-background="new    " d="M174.75,165.35c1.833-1.867,4.05-2.8,6.649-2.8
			c2.601,0,4.817,0.934,6.65,2.8c1.833,1.833,2.75,4.05,2.75,6.65s-0.917,4.816-2.75,6.65s-4.05,2.75-6.65,2.75
			c-2.6,0-4.816-0.917-6.649-2.75c-1.867-1.833-2.8-4.05-2.8-6.65S172.883,167.184,174.75,165.35z"/>
		<path opacity="0.2" fill="#FFFFFF" enable-background="new    " d="M181.4,162.55c-2.6,0-4.816,0.934-6.649,2.8
			c-1.867,1.833-2.8,4.05-2.8,6.65s0.933,4.816,2.8,6.65c1.833,1.833,4.05,2.75,6.649,2.75c2.601,0,4.817-0.917,6.65-2.75
			s2.75-4.05,2.75-6.65s-0.917-4.816-2.75-6.65C186.217,163.483,184,162.55,181.4,162.55z M150.5,162.9
			c5.366-5.4,11.85-8.1,19.45-8.1c7.6,0,14.116,2.7,19.55,8.1c5.366,5.367,8.05,11.85,8.05,19.45c0,7.633-2.684,14.15-8.05,19.55
			c-5.434,5.366-11.95,8.05-19.55,8.05c-7.601,0-14.084-2.684-19.45-8.05c-5.434-5.4-8.15-11.917-8.15-19.55
			C142.35,174.75,145.067,168.267,150.5,162.9z"/>
		<path fill="#FFFFFF" d="M169.95,154.8c-7.601,0-14.084,2.7-19.45,8.1c-5.434,5.367-8.15,11.85-8.15,19.45
			c0,7.633,2.717,14.15,8.15,19.55c5.366,5.366,11.85,8.05,19.45,8.05c7.6,0,14.116-2.684,19.55-8.05
			c5.366-5.4,8.05-11.917,8.05-19.55c0-7.6-2.684-14.083-8.05-19.45C184.067,157.5,177.55,154.8,169.95,154.8z M137.35,182.35
			c0-9,3.2-16.667,9.601-23c6.333-6.367,14-9.55,23-9.55s16.699,3.184,23.1,9.55c6.333,6.333,9.5,14,9.5,23
			c0,9.033-3.167,16.733-9.5,23.1c-6.4,6.333-14.1,9.5-23.1,9.5s-16.667-3.167-23-9.5C140.55,199.083,137.35,191.383,137.35,182.35z
			"/>
		<path opacity="0.502" fill="#A3C3EB" enable-background="new    " d="M157.85,215.2c0.566,0.566,0.851,1.25,0.851,2.05
			s-0.284,1.483-0.851,2.05c-0.566,0.567-1.25,0.851-2.05,0.851s-1.483-0.283-2.05-0.851c-0.567-0.566-0.851-1.25-0.851-2.05
			s0.283-1.483,0.851-2.05c0.566-0.567,1.25-0.851,2.05-0.851S157.283,214.633,157.85,215.2z M157.2,225.4
			c-0.4-0.4-0.601-0.884-0.601-1.45c0-0.567,0.2-1.05,0.601-1.45c0.399-0.4,0.883-0.6,1.449-0.6c0.567,0,1.051,0.199,1.45,0.6
			c0.4,0.4,0.601,0.883,0.601,1.45c0,0.566-0.2,1.05-0.601,1.45c-0.399,0.399-0.883,0.6-1.45,0.6
			C158.083,226,157.6,225.8,157.2,225.4z M170.3,222.25c0.767,0.767,1.15,1.7,1.15,2.8c0,1.101-0.384,2.034-1.15,2.8
			c-0.767,0.768-1.7,1.15-2.8,1.15c-1.101,0-2.033-0.383-2.8-1.15c-0.768-0.766-1.15-1.699-1.15-2.8c0-1.1,0.383-2.033,1.15-2.8
			c0.767-0.767,1.699-1.15,2.8-1.15C168.6,221.1,169.533,221.483,170.3,222.25z"/>
		<path fill="#8DB5E7" d="M274.05,234.25c-0.434,1.9-1.233,3.416-2.4,4.55c-1.467,0.866-2.717,0.75-3.75-0.35
			c-0.6-6.034-3.983-10.067-10.149-12.101c1.267-4.066,3.8-6.916,7.6-8.55C272.25,223.867,275.15,229.35,274.05,234.25z
			 M232.7,243.1c-1.768-0.533-2.467-1.649-2.101-3.35c3.9-4.367,4.583-9.483,2.05-15.35c3.867-1.768,7.684-1.768,11.45,0
			c0.066,9.199-2.116,15.016-6.55,17.449C235.883,242.783,234.267,243.2,232.7,243.1z"/>
		<path fill="#8DB5E7" d="M249.9,157.9h0.051l1,0.05l0.949-0.05v0.35c4.267,0.733,8.017,2.717,11.25,5.95
			c4.2,4.2,6.301,9.267,6.301,15.2v40.4c0,3.634-2.101,6.733-6.301,9.3c-3.233,1.967-6.983,3.184-11.25,3.65v0.15h-0.949h-1
			c-5.067-0.301-9.467-1.566-13.2-3.801c-4.2-2.566-6.3-5.666-6.3-9.3v-40.4c0-5.933,2.1-11,6.3-15.2
			c3.733-3.733,8.116-5.8,13.149-6.2V157.9z M249.95,232.9H249.9v-0.051L249.95,232.9z"/>
		<path fill="#8DB5E7" d="M220.5,229.8c-0.2-8.366,3.649-14.1,11.55-17.2l0.3-0.1v9.2c-4.667-0.134-6.95,2.533-6.85,8
			c0,0.7-0.233,1.3-0.7,1.8s-1.05,0.75-1.75,0.75s-1.3-0.233-1.8-0.7C220.783,231.084,220.533,230.5,220.5,229.8z M279.3,210.9
			c0.667-0.167,1.3-0.084,1.9,0.25c0.6,0.366,1,0.866,1.199,1.5c0.167,0.633,0.084,1.266-0.25,1.899
			c-4,7.333-10.199,10.366-18.6,9.101l-0.3-0.051l4.6-8c3.967,2.467,7.283,1.316,9.95-3.449
			C278.166,211.517,278.666,211.1,279.3,210.9z"/>
		<path fill="#4F719D" d="M245.1,192.3c0-0.667,0.233-1.25,0.7-1.75c0.533-0.5,1.133-0.75,1.8-0.75c0.733,0,1.316,0.25,1.75,0.75
			c0.533,0.5,0.8,1.083,0.8,1.75c0,0.733-0.267,1.317-0.8,1.75c-0.434,0.534-1.017,0.8-1.75,0.8c-0.667,0-1.267-0.267-1.8-0.8
			C245.333,193.617,245.1,193.033,245.1,192.3z M253.35,186.3c0.5-0.533,1.117-0.8,1.851-0.8c0.666,0,1.232,0.267,1.699,0.8
			c0.5,0.467,0.75,1.05,0.75,1.75c0,0.7-0.25,1.284-0.75,1.75c-0.467,0.5-1.033,0.75-1.699,0.75c-0.733,0-1.351-0.25-1.851-0.75
			c-0.467-0.466-0.7-1.05-0.7-1.75C252.65,187.35,252.883,186.767,253.35,186.3z M260.85,190.55c0.5-0.5,1.117-0.75,1.851-0.75
			c0.633,0,1.199,0.25,1.699,0.75c0.533,0.5,0.801,1.083,0.801,1.75c0,0.733-0.268,1.317-0.801,1.75c-0.5,0.534-1.066,0.8-1.699,0.8
			c-0.733,0-1.351-0.267-1.851-0.8c-0.5-0.433-0.75-1.017-0.75-1.75C260.1,191.633,260.35,191.05,260.85,190.55z M253.15,203.15
			c-0.467-0.467-0.699-1.051-0.699-1.75c0-0.7,0.232-1.3,0.699-1.8c0.5-0.467,1.101-0.7,1.801-0.7c0.699,0,1.283,0.233,1.75,0.7
			c0.5,0.5,0.75,1.1,0.75,1.8c0,0.699-0.25,1.283-0.75,1.75c-0.467,0.5-1.051,0.75-1.75,0.75
			C254.25,203.9,253.65,203.65,253.15,203.15z"/>
		<path opacity="0.2" fill="#FFFFFF" enable-background="new    " d="M230.5,162.9c5.366-5.4,11.85-8.1,19.45-8.1
			c7.6,0,14.116,2.7,19.55,8.1c5.366,5.367,8.05,11.85,8.05,19.45c0,7.633-2.684,14.15-8.05,19.55
			c-5.434,5.366-11.95,8.05-19.55,8.05c-7.601,0-14.084-2.684-19.45-8.05c-5.434-5.4-8.15-11.917-8.15-19.55
			C222.35,174.75,225.067,168.267,230.5,162.9z M261.4,162.55c-2.6,0-4.816,0.934-6.649,2.8c-1.867,1.833-2.8,4.05-2.8,6.65
			s0.933,4.816,2.8,6.65c1.833,1.833,4.05,2.75,6.649,2.75c2.601,0,4.817-0.917,6.65-2.75s2.75-4.05,2.75-6.65
			s-0.917-4.816-2.75-6.65C266.217,163.483,264,162.55,261.4,162.55z"/>
		<path fill="#FFFFFF" d="M249.95,154.8c-7.601,0-14.084,2.7-19.45,8.1c-5.434,5.367-8.15,11.85-8.15,19.45
			c0,7.633,2.717,14.15,8.15,19.55c5.366,5.366,11.85,8.05,19.45,8.05c7.6,0,14.116-2.684,19.55-8.05
			c5.366-5.4,8.05-11.917,8.05-19.55c0-7.6-2.684-14.083-8.05-19.45C264.067,157.5,257.55,154.8,249.95,154.8z M217.35,182.35
			c0-9,3.2-16.667,9.601-23c6.333-6.367,14-9.55,23-9.55s16.699,3.184,23.1,9.55c6.333,6.333,9.5,14,9.5,23
			c0,9.033-3.167,16.733-9.5,23.1c-6.4,6.333-14.1,9.5-23.1,9.5s-16.667-3.167-23-9.5C220.55,199.083,217.35,191.383,217.35,182.35z
			"/>
		<path opacity="0.302" fill="#FFFFFF" enable-background="new    " d="M254.75,165.35c1.833-1.867,4.05-2.8,6.649-2.8
			c2.601,0,4.817,0.934,6.65,2.8c1.833,1.833,2.75,4.05,2.75,6.65s-0.917,4.816-2.75,6.65s-4.05,2.75-6.65,2.75
			c-2.6,0-4.816-0.917-6.649-2.75c-1.867-1.833-2.8-4.05-2.8-6.65S252.883,167.184,254.75,165.35z"/>
		<path fill="#8DB5E7" d="M347.05,241.6h-8.351l-2.199-18.3c-0.134-1.8,0.3-3.366,1.3-4.7c1.233-1.434,2.75-2.133,4.55-2.1
			c1.866-0.033,3.383,0.666,4.55,2.1c1.2,1.334,1.7,2.9,1.5,4.7L347.05,241.6z M309.65,223.3c0.3-1.8,1.217-3.366,2.75-4.7
			c1.533-1.434,3.25-2.133,5.15-2.1c1.767-0.033,3.083,0.666,3.95,2.1c0.666,1.334,0.683,2.9,0.05,4.7l-7.05,18.3h-8.351
			L309.65,223.3z"/>
		<path fill="#8DB5E7" d="M314.55,195.65c1.533-5.733,4.866-10.1,10-13.1c5.166-2.966,10.616-3.683,16.35-2.15
			c5.733,1.534,10.066,4.883,13,10.05c3,5.133,3.733,10.566,2.2,16.3l-6.6,24.5c-0.934,3.533-3.768,6-8.5,7.4
			c-4.7,1.333-9.917,1.232-15.65-0.301s-10.3-4.066-13.7-7.6c-3.399-3.533-4.633-7.066-3.7-10.6L314.55,195.65z"/>
		<path fill="#8DB5E7" d="M300.3,224.8c1.967-8.1,7.183-12.634,15.649-13.6l0.301-0.05l-2.4,8.899
			c-4.467-1.333-7.35,0.65-8.649,5.95c-0.167,0.666-0.551,1.184-1.15,1.55l-1.9,0.25c-0.666-0.167-1.183-0.533-1.55-1.1
			C300.267,226.1,300.166,225.467,300.3,224.8z M351.9,238.9c1.5-5.234-0.033-8.384-4.6-9.45l2.399-8.9L350,220.7
			c6.8,5.066,9.017,11.6,6.649,19.6c-0.2,0.667-0.583,1.167-1.149,1.5l-1.9,0.2c-0.667-0.166-1.167-0.55-1.5-1.15
			C351.8,240.217,351.733,239.566,351.9,238.9z"/>
		<path fill="#4F719D" d="M345.1,220c-0.6,0.4-1.217,0.517-1.85,0.35c-0.7-0.199-1.217-0.633-1.551-1.3
			c-0.366-0.5-0.467-1.1-0.3-1.8c0.167-0.666,0.566-1.184,1.2-1.55c0.6-0.366,1.25-0.45,1.95-0.25c0.633,0.167,1.116,0.566,1.45,1.2
			c0.399,0.6,0.517,1.232,0.35,1.899C346.183,219.25,345.767,219.733,345.1,220z M328.05,211.85c0.633-0.366,1.283-0.467,1.95-0.3
			c0.699,0.2,1.199,0.601,1.5,1.2c0.366,0.6,0.466,1.233,0.3,1.9c-0.167,0.699-0.567,1.184-1.2,1.449
			c-0.566,0.434-1.2,0.551-1.9,0.351c-0.666-0.167-1.183-0.583-1.55-1.25c-0.333-0.534-0.417-1.15-0.25-1.851
			C327.067,212.684,327.449,212.184,328.05,211.85z M339.85,210.6c0.4,0.566,0.5,1.2,0.3,1.9c-0.167,0.666-0.566,1.15-1.2,1.45
			c-0.566,0.366-1.166,0.466-1.8,0.3c-0.733-0.2-1.267-0.6-1.6-1.2c-0.334-0.566-0.417-1.183-0.25-1.85c0.2-0.7,0.583-1.2,1.149-1.5
			c0.601-0.434,1.267-0.55,2-0.351C339.083,209.517,339.55,209.934,339.85,210.6z M331.9,225.9c-0.333-0.566-0.417-1.2-0.25-1.9
			c0.2-0.666,0.583-1.166,1.15-1.5c0.6-0.367,1.25-0.45,1.95-0.25c0.666,0.166,1.166,0.55,1.5,1.15
			c0.366,0.6,0.449,1.232,0.25,1.899c-0.167,0.7-0.551,1.2-1.15,1.5c-0.6,0.366-1.233,0.467-1.9,0.3
			C332.75,226.9,332.233,226.5,331.9,225.9z"/>
		<path opacity="0.302" fill="#FFFFFF" enable-background="new    " d="M339.5,186.05c1.833-1.866,4.05-2.8,6.649-2.8
			c2.601,0,4.816,0.934,6.65,2.8c1.833,1.833,2.75,4.05,2.75,6.65c0,2.6-0.917,4.816-2.75,6.65c-1.834,1.833-4.051,2.75-6.65,2.75
			s-4.816-0.916-6.649-2.75c-1.867-1.833-2.801-4.05-2.801-6.65C336.699,190.1,337.633,187.883,339.5,186.05z"/>
		<path opacity="0.2" fill="#FFFFFF" enable-background="new    " d="M346.15,183.25c-2.6,0-4.816,0.934-6.649,2.8
			c-1.867,1.833-2.801,4.05-2.801,6.65c0,2.6,0.934,4.816,2.801,6.65c1.833,1.833,4.05,2.75,6.649,2.75
			c2.601,0,4.816-0.916,6.65-2.75c1.833-1.833,2.75-4.05,2.75-6.65c0-2.6-0.917-4.817-2.75-6.65
			C350.966,184.184,348.749,183.25,346.15,183.25z M334.699,175.5c7.601,0,14.117,2.7,19.551,8.1c5.366,5.367,8.05,11.85,8.05,19.45
			c0,7.634-2.684,14.15-8.05,19.55c-5.434,5.367-11.95,8.051-19.551,8.051c-7.6,0-14.083-2.684-19.449-8.051
			c-5.434-5.399-8.15-11.916-8.15-19.55c0-7.6,2.717-14.083,8.15-19.45C320.616,178.2,327.1,175.5,334.699,175.5z"/>
		<path fill="#FFFFFF" d="M354.25,183.6c-5.434-5.4-11.95-8.1-19.551-8.1c-7.6,0-14.083,2.7-19.449,8.1
			c-5.434,5.367-8.15,11.85-8.15,19.45c0,7.634,2.717,14.15,8.15,19.55c5.366,5.367,11.85,8.051,19.449,8.051
			c7.601,0,14.117-2.684,19.551-8.051c5.366-5.399,8.05-11.916,8.05-19.55C362.3,195.45,359.616,188.967,354.25,183.6z
			 M302.1,203.05c0-9,3.2-16.667,9.6-23c6.334-6.366,14-9.55,23-9.55s16.7,3.184,23.101,9.55c6.333,6.333,9.5,14,9.5,23
			c0,9.034-3.167,16.733-9.5,23.101c-6.4,6.333-14.101,9.5-23.101,9.5s-16.666-3.167-23-9.5
			C305.3,219.783,302.1,212.084,302.1,203.05z"/>
		<path fill="#8DB5E7" d="M414.949,157.9l0.95,0.05v0.15c4.7,0.6,8.783,2.633,12.25,6.1c4.2,4.2,6.3,9.267,6.3,15.2v40.4
			c0,3.634-2.1,6.733-6.3,9.3c-3.467,2.101-7.55,3.334-12.25,3.7v0.101h-0.2h-0.75H414.3h-0.4V232.8
			c-4.633-0.399-8.684-1.634-12.149-3.7c-4.2-2.566-6.301-5.666-6.301-9.3v-40.4c0-5.933,2.101-11,6.301-15.2
			c3.466-3.434,7.517-5.45,12.149-6.05v-0.2L414.949,157.9z"/>
		<path fill="#8DB5E7" d="M382.05,222c-0.5-0.5-0.75-1.1-0.75-1.8c0-0.634,0.233-1.217,0.7-1.75c5.767-6.034,12.533-7.366,20.3-4
			l0.3,0.149l-6.5,6.5c-3.2-3.399-6.7-3.116-10.5,0.851c-0.5,0.5-1.083,0.75-1.75,0.75C383.15,222.733,382.55,222.5,382.05,222z
			 M445.65,220.2c-0.033,0.667-0.3,1.25-0.8,1.75s-1.1,0.733-1.8,0.7c-0.667,0-1.25-0.25-1.75-0.75
			c-3.767-3.934-7.25-4.2-10.45-0.801l-6.5-6.5c0.066-0.1,0.15-0.166,0.25-0.199c7.767-3.367,14.533-2.033,20.3,4
			C445.366,218.934,445.616,219.533,445.65,220.2z"/>
		<path fill="#8DB5E7" d="M431.4,220.3c6.9,6.067,9.8,11.55,8.7,16.45c-0.434,1.9-1.233,3.416-2.4,4.55
			c-1.467,0.866-2.717,0.75-3.75-0.35c-0.6-6.034-3.983-10.067-10.149-12.101C425.067,224.783,427.6,221.934,431.4,220.3z
			 M401.3,228.85c1.267-4.066,3.8-6.916,7.6-8.55c6.9,6.067,9.8,11.55,8.7,16.45c-0.434,1.9-1.233,3.416-2.4,4.55
			c-1.467,0.866-2.717,0.75-3.75-0.35C410.85,234.916,407.466,230.883,401.3,228.85z"/>
		<path fill="#4F719D" d="M420.199,183c0.667,0,1.233,0.267,1.7,0.8c0.5,0.467,0.75,1.05,0.75,1.75c0,0.7-0.25,1.284-0.75,1.75
			c-0.467,0.5-1.033,0.75-1.7,0.75c-0.733,0-1.35-0.25-1.85-0.75c-0.467-0.466-0.7-1.05-0.7-1.75c0-0.7,0.233-1.283,0.7-1.75
			C418.85,183.267,419.466,183,420.199,183z M412.6,187.3c0.733,0,1.316,0.25,1.75,0.75c0.533,0.5,0.8,1.083,0.8,1.75
			c0,0.733-0.267,1.317-0.8,1.75c-0.434,0.534-1.017,0.8-1.75,0.8c-0.667,0-1.267-0.267-1.8-0.8c-0.467-0.433-0.7-1.017-0.7-1.75
			c0-0.667,0.233-1.25,0.7-1.75C411.333,187.55,411.933,187.3,412.6,187.3z M427.699,187.3c0.634,0,1.2,0.25,1.7,0.75
			c0.533,0.5,0.8,1.083,0.8,1.75c0,0.733-0.267,1.317-0.8,1.75c-0.5,0.534-1.066,0.8-1.7,0.8c-0.733,0-1.35-0.267-1.85-0.8
			c-0.5-0.433-0.75-1.017-0.75-1.75c0-0.667,0.25-1.25,0.75-1.75S426.966,187.3,427.699,187.3z M425.55,200.8l-0.5-0.55
			c-0.267-0.6-0.7-1.15-1.3-1.65c-1.067-0.8-2.334-1.2-3.801-1.2c-1.533,0-2.816,0.4-3.85,1.2c-0.6,0.466-1,1-1.2,1.6l-0.45,0.55
			l-0.85,0.1l-0.55-0.5c-0.134-0.233-0.167-0.483-0.101-0.75c0.267-0.967,0.9-1.817,1.9-2.55c1.4-1.1,3.1-1.65,5.1-1.65
			c1.967,0,3.65,0.55,5.051,1.65c0.899,0.733,1.55,1.55,1.949,2.45v0.8l-0.6,0.5C426.083,200.934,425.817,200.934,425.55,200.8z"/>
		<path opacity="0.302" fill="#FFFFFF" enable-background="new    " d="M419.75,165.35c1.833-1.867,4.05-2.8,6.649-2.8
			c2.601,0,4.816,0.934,6.65,2.8c1.833,1.833,2.75,4.05,2.75,6.65s-0.917,4.816-2.75,6.65c-1.834,1.833-4.051,2.75-6.65,2.75
			s-4.816-0.917-6.649-2.75c-1.867-1.833-2.801-4.05-2.801-6.65S417.883,167.184,419.75,165.35z"/>
		<path opacity="0.2" fill="#FFFFFF" enable-background="new    " d="M426.4,162.55c-2.6,0-4.816,0.934-6.649,2.8
			c-1.867,1.833-2.801,4.05-2.801,6.65s0.934,4.816,2.801,6.65c1.833,1.833,4.05,2.75,6.649,2.75c2.601,0,4.816-0.917,6.65-2.75
			c1.833-1.833,2.75-4.05,2.75-6.65s-0.917-4.816-2.75-6.65C431.216,163.483,428.999,162.55,426.4,162.55z M414.949,154.8
			c7.601,0,14.117,2.7,19.551,8.1c5.366,5.367,8.05,11.85,8.05,19.45c0,7.633-2.684,14.15-8.05,19.55
			c-5.434,5.366-11.95,8.05-19.551,8.05c-7.6,0-14.083-2.684-19.449-8.05c-5.434-5.4-8.15-11.917-8.15-19.55
			c0-7.6,2.717-14.083,8.15-19.45C400.866,157.5,407.35,154.8,414.949,154.8z"/>
		<path fill="#FFFFFF" d="M434.5,162.9c-5.434-5.4-11.95-8.1-19.551-8.1c-7.6,0-14.083,2.7-19.449,8.1
			c-5.434,5.367-8.15,11.85-8.15,19.45c0,7.633,2.717,14.15,8.15,19.55c5.366,5.366,11.85,8.05,19.449,8.05
			c7.601,0,14.117-2.684,19.551-8.05c5.366-5.4,8.05-11.917,8.05-19.55C442.55,174.75,439.866,168.267,434.5,162.9z M382.35,182.35
			c0-9,3.2-16.667,9.6-23c6.334-6.367,14-9.55,23-9.55s16.7,3.184,23.101,9.55c6.333,6.333,9.5,14,9.5,23
			c0,9.033-3.167,16.733-9.5,23.1c-6.4,6.333-14.101,9.5-23.101,9.5s-16.666-3.167-23-9.5
			C385.55,199.083,382.35,191.383,382.35,182.35z"/>
		<path fill="#F19CB7" d="M108.45,323.3v18.3H100.1l-3.55-18.3c-0.3-1.8,0.017-3.366,0.95-4.7c1.1-1.434,2.55-2.133,4.35-2.1
			c1.867-0.033,3.45,0.666,4.75,2.1C107.866,319.934,108.484,321.5,108.45,323.3z M71.45,323.3c-0.034-1.8,0.583-3.366,1.85-4.7
			c1.3-1.434,2.883-2.133,4.75-2.1c1.8-0.033,3.25,0.666,4.35,2.1c0.934,1.334,1.25,2.9,0.95,4.7l-3.55,18.3h-8.35V323.3z"/>
		<path fill="#F19CB7" d="M68.45,289.4c0-5.934,2.1-11,6.3-15.2s9.267-6.3,15.2-6.3c5.933,0,11,2.1,15.199,6.3
			c4.2,4.2,6.301,9.267,6.301,15.2V319.8c0,3.634-2.101,6.733-6.301,9.3c-4.199,2.533-9.267,3.801-15.199,3.801
			c-5.934,0-11-1.268-15.2-3.801c-4.2-2.566-6.3-5.666-6.3-9.3V289.4z"/>
		<path fill="#F19CB7" d="M121.4,319.8c-0.033,0.7-0.283,1.284-0.75,1.75c-0.5,0.467-1.1,0.7-1.8,0.7s-1.283-0.25-1.75-0.75
			s-0.7-1.1-0.7-1.8c0.101-5.467-2.183-8.134-6.85-8v-9.2l0.3,0.1C117.75,305.7,121.6,311.434,121.4,319.8z M62.8,321.5
			c-0.467,0.5-1.05,0.75-1.75,0.75s-1.3-0.233-1.8-0.7c-0.467-0.466-0.717-1.05-0.75-1.75c-0.2-8.366,3.649-14.1,11.55-17.2l0.3-0.1
			v9.2c-4.667-0.134-6.95,2.533-6.85,8C63.5,320.4,63.267,321,62.8,321.5z"/>
		<path fill="#A55B72" d="M90.25,280.7c1.333,0,2.5,0.5,3.5,1.5c1.033,1.033,1.55,2.233,1.55,3.6c0,1.4-0.517,2.567-1.55,3.5
			c-1,1.034-2.167,1.55-3.5,1.55c-1.467,0-2.717-0.516-3.75-1.55c-0.967-0.933-1.45-2.1-1.45-3.5c0-1.366,0.483-2.566,1.45-3.6
			C87.533,281.2,88.783,280.7,90.25,280.7z M94.65,300.2l0.7-1.25c0.101-0.267,0.283-0.45,0.55-0.55c0.233-0.134,0.483-0.134,0.75,0
			l0.65,0.5c0.133,0.3,0.133,0.583,0,0.85c-0.4,0.934-1.066,1.767-2,2.5c-1.434,1.166-3.167,1.75-5.2,1.75
			c-2.066,0-3.8-0.584-5.2-1.75c-1.066-0.733-1.717-1.6-1.949-2.6c-0.101-0.301-0.067-0.551,0.1-0.75
			c0.1-0.301,0.283-0.467,0.55-0.5l0.9,0.05l0.45,0.55l0.75,1.25l0.449,0.45c1.101,0.833,2.417,1.25,3.95,1.25
			s2.851-0.417,3.95-1.25L94.65,300.2z M96.65,298.4H96.7H96.65z"/>
		<path fill="#FFFFFF" d="M93.75,282.2c-1-1-2.167-1.5-3.5-1.5c-1.467,0-2.717,0.5-3.75,1.5c-0.967,1.033-1.45,2.233-1.45,3.6
			c0,1.4,0.483,2.567,1.45,3.5c1.033,1.034,2.283,1.55,3.75,1.55c1.333,0,2.5-0.516,3.5-1.55c1.033-0.933,1.55-2.1,1.55-3.5
			C95.3,284.434,94.783,283.233,93.75,282.2z M90.3,278.2c2,0,3.75,0.75,5.25,2.25c1.566,1.566,2.35,3.384,2.35,5.45l-0.1,1.3
			c-0.3,1.5-1.05,2.816-2.25,3.95c-1.5,1.533-3.25,2.3-5.25,2.3c-2.2,0-4.066-0.767-5.6-2.3c-1.134-1.134-1.801-2.45-2-3.95
			c-0.101-0.434-0.15-0.866-0.15-1.3c0-2.066,0.717-3.884,2.15-5.45C86.234,278.95,88.1,278.2,90.3,278.2z"/>
		<path opacity="0.2" fill="#FFFFFF" enable-background="new    " d="M89.95,254.8c7.6,0,14.116,2.7,19.55,8.101
			c5.366,5.366,8.05,11.85,8.05,19.449c0,7.634-2.684,14.15-8.05,19.551c-5.434,5.366-11.95,8.05-19.55,8.05
			c-7.601,0-14.084-2.684-19.45-8.05c-5.434-5.4-8.15-11.917-8.15-19.551c0-7.6,2.717-14.083,8.15-19.449
			C75.866,257.5,82.35,254.8,89.95,254.8z M94.75,265.35c-1.867,1.834-2.8,4.051-2.8,6.65s0.933,4.816,2.8,6.65
			c1.833,1.833,4.05,2.75,6.649,2.75c2.601,0,4.817-0.917,6.65-2.75c1.833-1.834,2.75-4.051,2.75-6.65s-0.917-4.816-2.75-6.65
			c-1.833-1.866-4.05-2.8-6.65-2.8C98.8,262.55,96.583,263.483,94.75,265.35z"/>
		<path fill="#FFFFFF" d="M109.5,262.9c-5.434-5.4-11.95-8.101-19.55-8.101c-7.601,0-14.084,2.7-19.45,8.101
			c-5.434,5.366-8.15,11.85-8.15,19.449c0,7.634,2.717,14.15,8.15,19.551c5.366,5.366,11.85,8.05,19.45,8.05
			c7.6,0,14.116-2.684,19.55-8.05c5.366-5.4,8.05-11.917,8.05-19.551C117.55,274.75,114.866,268.267,109.5,262.9z M57.35,282.35
			c0-9,3.2-16.666,9.601-23c6.333-6.366,14-9.55,23-9.55s16.699,3.184,23.1,9.55c6.333,6.334,9.5,14,9.5,23
			c0,9.033-3.167,16.734-9.5,23.101c-6.4,6.333-14.1,9.5-23.1,9.5s-16.667-3.167-23-9.5C60.55,299.084,57.35,291.383,57.35,282.35z"
			/>
		<path opacity="0.302" fill="#FFFFFF" enable-background="new    " d="M91.95,272c0-2.6,0.933-4.816,2.8-6.65
			c1.833-1.866,4.05-2.8,6.649-2.8c2.601,0,4.817,0.934,6.65,2.8c1.833,1.834,2.75,4.051,2.75,6.65s-0.917,4.816-2.75,6.65
			c-1.833,1.833-4.05,2.75-6.65,2.75c-2.6,0-4.816-0.917-6.649-2.75C92.883,276.816,91.95,274.6,91.95,272z"/>
		<path fill="#F19CB7" d="M187.9,323.3l-1.35,18.3h-8.35l-2.2-18.3c-0.134-1.8,0.3-3.366,1.3-4.7c1.233-1.434,2.75-2.133,4.55-2.1
			c1.867-0.033,3.384,0.666,4.55,2.1C187.6,319.934,188.1,321.5,187.9,323.3z M150.15,323.3c0.301-1.8,1.217-3.366,2.75-4.7
			c1.533-1.434,3.25-2.133,5.15-2.1c1.767-0.033,3.083,0.666,3.95,2.1c0.666,1.334,0.683,2.9,0.05,4.7L155,341.6h-8.351
			L150.15,323.3z"/>
		<path fill="#F19CB7" d="M148.45,289.4c0-5.934,2.1-11,6.3-15.2s9.267-6.3,15.2-6.3c5.933,0,11,2.1,15.199,6.3
			c4.2,4.2,6.301,9.267,6.301,15.2V319.8c0,3.634-2.101,6.733-6.301,9.3c-4.199,2.533-9.267,3.801-15.199,3.801
			c-5.934,0-11-1.268-15.2-3.801c-4.2-2.566-6.3-5.666-6.3-9.3V289.4z"/>
		<path fill="#FFFFFF" d="M180.55,280.45c1.566,1.566,2.35,3.384,2.35,5.45l-0.1,1.3c-0.3,1.5-1.05,2.816-2.25,3.95
			c-1.5,1.533-3.25,2.3-5.25,2.3c-2.2,0-4.066-0.767-5.6-2.3c-1.134-1.134-1.801-2.45-2-3.95c-0.101-0.434-0.15-0.866-0.15-1.3
			c0-2.066,0.717-3.884,2.15-5.45c1.533-1.5,3.399-2.25,5.6-2.25C177.3,278.2,179.05,278.95,180.55,280.45z M178.75,282.2
			c-1-1-2.167-1.5-3.5-1.5c-1.467,0-2.717,0.5-3.75,1.5c-0.967,1.033-1.45,2.233-1.45,3.6c0,1.4,0.483,2.567,1.45,3.5
			c1.033,1.034,2.283,1.55,3.75,1.55c1.333,0,2.5-0.516,3.5-1.55c1.033-0.933,1.55-2.1,1.55-3.5
			C180.3,284.434,179.783,283.233,178.75,282.2z"/>
		<path fill="#A55B72" d="M175.25,280.7c1.333,0,2.5,0.5,3.5,1.5c1.033,1.033,1.55,2.233,1.55,3.6c0,1.4-0.517,2.567-1.55,3.5
			c-1,1.034-2.167,1.55-3.5,1.55c-1.467,0-2.717-0.516-3.75-1.55c-0.967-0.933-1.45-2.1-1.45-3.5c0-1.366,0.483-2.566,1.45-3.6
			C172.533,281.2,173.783,280.7,175.25,280.7z M180.35,298.95c0.101-0.267,0.283-0.45,0.55-0.55c0.233-0.134,0.483-0.134,0.75,0
			l0.65,0.5c0.133,0.3,0.133,0.583,0,0.85c-0.4,0.934-1.066,1.767-2,2.5c-1.434,1.166-3.167,1.75-5.2,1.75
			c-2.066,0-3.8-0.584-5.2-1.75c-1.066-0.733-1.717-1.6-1.949-2.6c-0.101-0.301-0.067-0.551,0.1-0.75
			c0.1-0.301,0.283-0.467,0.55-0.5l0.9,0.05l0.45,0.55l0.75,1.25l0.449,0.45c1.101,0.833,2.417,1.25,3.95,1.25
			s2.851-0.417,3.95-1.25l0.6-0.5L180.35,298.95z M181.65,298.4h0.051H181.65z"/>
		<path fill="#F19CB7" d="M186.85,302.6c7.9,3.101,11.75,8.834,11.55,17.2c-0.033,0.7-0.283,1.284-0.75,1.75
			c-0.5,0.467-1.1,0.7-1.8,0.7s-1.283-0.25-1.75-0.75s-0.7-1.1-0.7-1.8c0.101-5.467-2.183-8.134-6.85-8v-9.2L186.85,302.6z
			 M150.35,311.7c-4.667-0.134-6.95,2.533-6.85,8c0,0.7-0.233,1.3-0.7,1.8s-1.05,0.75-1.75,0.75s-1.3-0.233-1.8-0.7
			c-0.467-0.466-0.717-1.05-0.75-1.75c-0.2-8.366,3.649-14.1,11.55-17.2l0.3-0.1V311.7z"/>
		<path opacity="0.302" fill="#FFFFFF" enable-background="new    " d="M181.4,262.55c2.601,0,4.817,0.934,6.65,2.8
			c1.833,1.834,2.75,4.051,2.75,6.65s-0.917,4.816-2.75,6.65c-1.833,1.833-4.05,2.75-6.65,2.75c-2.6,0-4.816-0.917-6.649-2.75
			c-1.867-1.834-2.8-4.051-2.8-6.65s0.933-4.816,2.8-6.65C176.583,263.483,178.8,262.55,181.4,262.55z"/>
		<path opacity="0.2" fill="#FFFFFF" enable-background="new    " d="M188.05,265.35c-1.833-1.866-4.05-2.8-6.65-2.8
			c-2.6,0-4.816,0.934-6.649,2.8c-1.867,1.834-2.8,4.051-2.8,6.65s0.933,4.816,2.8,6.65c1.833,1.833,4.05,2.75,6.649,2.75
			c2.601,0,4.817-0.917,6.65-2.75c1.833-1.834,2.75-4.051,2.75-6.65S189.883,267.184,188.05,265.35z M169.95,254.8
			c7.6,0,14.116,2.7,19.55,8.101c5.366,5.366,8.05,11.85,8.05,19.449c0,7.634-2.684,14.15-8.05,19.551
			c-5.434,5.366-11.95,8.05-19.55,8.05c-7.601,0-14.084-2.684-19.45-8.05c-5.434-5.4-8.15-11.917-8.15-19.551
			c0-7.6,2.717-14.083,8.15-19.449C155.866,257.5,162.35,254.8,169.95,254.8z"/>
		<path fill="#FFFFFF" d="M189.5,262.9c-5.434-5.4-11.95-8.101-19.55-8.101c-7.601,0-14.084,2.7-19.45,8.101
			c-5.434,5.366-8.15,11.85-8.15,19.449c0,7.634,2.717,14.15,8.15,19.551c5.366,5.366,11.85,8.05,19.45,8.05
			c7.6,0,14.116-2.684,19.55-8.05c5.366-5.4,8.05-11.917,8.05-19.551C197.55,274.75,194.866,268.267,189.5,262.9z M137.35,282.35
			c0-9,3.2-16.666,9.601-23c6.333-6.366,14-9.55,23-9.55s16.699,3.184,23.1,9.55c6.333,6.334,9.5,14,9.5,23
			c0,9.033-3.167,16.734-9.5,23.101c-6.4,6.333-14.1,9.5-23.1,9.5s-16.667-3.167-23-9.5
			C140.55,299.084,137.35,291.383,137.35,282.35z"/>
		<path opacity="0.502" fill="#F3AFC5" enable-background="new    " d="M162.95,325.85c-0.801-0.199-1.4-0.649-1.801-1.35
			c-0.399-0.7-0.483-1.434-0.25-2.2c0.167-0.767,0.601-1.35,1.301-1.75c0.699-0.399,1.449-0.5,2.25-0.3
			c0.732,0.2,1.3,0.65,1.699,1.35c0.4,0.7,0.517,1.434,0.351,2.2c-0.233,0.767-0.7,1.351-1.4,1.75L162.95,325.85z M174.25,325.9
			c-0.533-0.934-0.667-1.917-0.4-2.95c0.3-1.067,0.934-1.866,1.9-2.4c0.933-0.566,1.916-0.7,2.95-0.399
			c1.066,0.266,1.866,0.866,2.399,1.8c0.566,0.966,0.7,1.983,0.4,3.05c-0.267,1.033-0.867,1.834-1.8,2.4
			c-0.967,0.533-1.983,0.666-3.051,0.399C175.616,327.5,174.817,326.867,174.25,325.9z M168.45,325.65l1.6-0.2
			c0.533,0.134,0.934,0.45,1.2,0.95c0.3,0.5,0.383,1.016,0.25,1.55c-0.167,0.566-0.5,0.983-1,1.25l-1.55,0.2
			c-0.534-0.134-0.95-0.45-1.25-0.95c-0.268-0.5-0.334-1.017-0.2-1.55C167.666,326.367,167.984,325.95,168.45,325.65z"/>
		<path fill="#F19CB7" d="M267.35,317.8c6.9,6.067,9.8,11.55,8.7,16.45c-0.434,1.9-1.233,3.416-2.4,4.55
			c-1.467,0.866-2.717,0.75-3.75-0.35c-0.6-6.034-3.983-10.067-10.149-12.101C261.017,322.283,263.55,319.434,267.35,317.8z
			 M235.55,341.85c-1.667,0.934-3.283,1.351-4.85,1.25c-1.768-0.533-2.467-1.649-2.101-3.35c3.9-4.367,4.583-9.483,2.05-15.35
			c3.867-1.768,7.684-1.768,11.45,0C242.166,333.6,239.984,339.416,235.55,341.85z"/>
		<path fill="#F19CB7" d="M228.45,289.4c0-5.934,2.1-11,6.3-15.2s9.267-6.3,15.2-6.3c5.933,0,11,2.1,15.199,6.3
			c4.2,4.2,6.301,9.267,6.301,15.2V319.8c0,3.634-2.101,6.733-6.301,9.3c-4.199,2.533-9.267,3.801-15.199,3.801
			c-5.934,0-11-1.268-15.2-3.801c-4.2-2.566-6.3-5.666-6.3-9.3V289.4z"/>
		<path fill="#A55B72" d="M254.95,303.9c-0.7,0-1.301-0.25-1.801-0.75c-0.467-0.467-0.699-1.051-0.699-1.75
			c0-0.7,0.232-1.301,0.699-1.801c0.5-0.467,1.101-0.699,1.801-0.699c0.699,0,1.283,0.232,1.75,0.699c0.5,0.5,0.75,1.101,0.75,1.801
			c0,0.699-0.25,1.283-0.75,1.75C256.234,303.65,255.65,303.9,254.95,303.9z"/>
		<path fill="#A55B72" d="M258.75,282.35c1.033,1.033,1.55,2.234,1.55,3.601c0,1.399-0.517,2.566-1.55,3.5
			c-1,1.033-2.167,1.55-3.5,1.55c-1.467,0-2.717-0.517-3.75-1.55c-0.967-0.934-1.45-2.101-1.45-3.5c0-1.366,0.483-2.567,1.45-3.601
			c1.033-1,2.283-1.5,3.75-1.5C256.583,280.85,257.75,281.35,258.75,282.35z"/>
		<path fill="#FFFFFF" d="M260.3,285.95c0-1.366-0.517-2.567-1.55-3.601c-1-1-2.167-1.5-3.5-1.5c-1.467,0-2.717,0.5-3.75,1.5
			c-0.967,1.033-1.45,2.234-1.45,3.601c0,1.399,0.483,2.566,1.45,3.5c1.033,1.033,2.283,1.55,3.75,1.55c1.333,0,2.5-0.517,3.5-1.55
			C259.783,288.517,260.3,287.35,260.3,285.95z M260.55,280.6c1.566,1.566,2.35,3.384,2.35,5.45l-0.1,1.3
			c-0.3,1.5-1.05,2.816-2.25,3.95c-1.5,1.534-3.25,2.3-5.25,2.3c-2.2,0-4.066-0.766-5.6-2.3c-1.134-1.134-1.801-2.45-2-3.95
			l-0.15-1.3c0-2.066,0.717-3.884,2.15-5.45c1.533-1.5,3.399-2.25,5.6-2.25C257.3,278.35,259.05,279.1,260.55,280.6z"/>
		<path fill="#F19CB7" d="M281.3,300.9c0.667-0.167,1.3-0.084,1.9,0.25c0.6,0.366,1,0.866,1.199,1.5
			c0.167,0.633,0.084,1.266-0.25,1.899c-4,7.333-10.199,10.366-18.6,9.101l-0.3-0.051l4.6-8c3.967,2.467,7.283,1.316,9.95-3.449
			C280.166,301.517,280.666,301.1,281.3,300.9z M222.8,321.5c-0.467,0.5-1.05,0.75-1.75,0.75s-1.3-0.233-1.8-0.7
			c-0.467-0.466-0.717-1.05-0.75-1.75c-0.2-8.366,3.649-14.1,11.55-17.2l0.3-0.1v9.2c-4.667-0.134-6.95,2.533-6.85,8
			C223.5,320.4,223.267,321,222.8,321.5z"/>
		<path opacity="0.2" fill="#FFFFFF" enable-background="new    " d="M249.95,254.8c7.6,0,14.116,2.7,19.55,8.101
			c5.366,5.366,8.05,11.85,8.05,19.449c0,7.634-2.684,14.15-8.05,19.551c-5.434,5.366-11.95,8.05-19.55,8.05
			c-7.601,0-14.084-2.684-19.45-8.05c-5.434-5.4-8.15-11.917-8.15-19.551c0-7.6,2.717-14.083,8.15-19.449
			C235.866,257.5,242.35,254.8,249.95,254.8z M268.05,265.35c-1.833-1.866-4.05-2.8-6.65-2.8c-2.6,0-4.816,0.934-6.649,2.8
			c-1.867,1.834-2.8,4.051-2.8,6.65s0.933,4.816,2.8,6.65c1.833,1.833,4.05,2.75,6.649,2.75c2.601,0,4.817-0.917,6.65-2.75
			c1.833-1.834,2.75-4.051,2.75-6.65S269.883,267.184,268.05,265.35z"/>
		<path fill="#FFFFFF" d="M269.5,262.9c-5.434-5.4-11.95-8.101-19.55-8.101c-7.601,0-14.084,2.7-19.45,8.101
			c-5.434,5.366-8.15,11.85-8.15,19.449c0,7.634,2.717,14.15,8.15,19.551c5.366,5.366,11.85,8.05,19.45,8.05
			c7.6,0,14.116-2.684,19.55-8.05c5.366-5.4,8.05-11.917,8.05-19.551C277.55,274.75,274.866,268.267,269.5,262.9z M217.35,282.35
			c0-9,3.2-16.666,9.601-23c6.333-6.366,14-9.55,23-9.55s16.699,3.184,23.1,9.55c6.333,6.334,9.5,14,9.5,23
			c0,9.033-3.167,16.734-9.5,23.101c-6.4,6.333-14.1,9.5-23.1,9.5s-16.667-3.167-23-9.5
			C220.55,299.084,217.35,291.383,217.35,282.35z"/>
		<path opacity="0.302" fill="#FFFFFF" enable-background="new    " d="M261.4,262.55c2.601,0,4.817,0.934,6.65,2.8
			c1.833,1.834,2.75,4.051,2.75,6.65s-0.917,4.816-2.75,6.65c-1.833,1.833-4.05,2.75-6.65,2.75c-2.6,0-4.816-0.917-6.649-2.75
			c-1.867-1.834-2.8-4.051-2.8-6.65s0.933-4.816,2.8-6.65C256.583,263.483,258.8,262.55,261.4,262.55z"/>
		<path fill="#F19CB7" d="M349.05,341.6h-8.351l-2.199-18.3c-0.134-1.8,0.3-3.366,1.3-4.7c1.233-1.434,2.75-2.133,4.55-2.1
			c1.866-0.033,3.383,0.666,4.55,2.1c1.2,1.334,1.7,2.9,1.5,4.7L349.05,341.6z M310.4,318.6c1.533-1.434,3.25-2.133,5.15-2.1
			c1.767-0.033,3.083,0.666,3.95,2.1c0.666,1.334,0.683,2.9,0.05,4.7l-7.05,18.3h-8.351l3.5-18.3
			C307.949,321.5,308.866,319.934,310.4,318.6z"/>
		<path fill="#F19CB7" d="M312.55,303.05c1.533-5.733,4.866-10.1,10-13.1c5.166-2.967,10.616-3.684,16.35-2.15
			c5.733,1.534,10.066,4.884,13,10.05c3,5.134,3.733,10.566,2.2,16.301l-4.6,17.1c-0.934,3.533-3.768,6-8.5,7.4
			c-4.7,1.333-9.917,1.232-15.65-0.301s-10.3-4.066-13.7-7.6c-3.399-3.533-4.633-7.066-3.7-10.6L312.55,303.05z"/>
		<path fill="#F19CB7" d="M357.5,339.8l-1.9,0.2c-0.667-0.166-1.167-0.55-1.5-1.15c-0.3-0.633-0.367-1.283-0.2-1.949
			c1.5-5.234-0.033-8.384-4.6-9.45l2.399-8.9L352,318.7c6.8,5.066,9.017,11.6,6.649,19.6
			C358.449,338.967,358.067,339.467,357.5,339.8z M311.85,318.05c-4.467-1.333-7.35,0.65-8.649,5.95
			c-0.167,0.666-0.551,1.184-1.15,1.55l-1.9,0.25c-0.666-0.167-1.183-0.533-1.55-1.1c-0.333-0.601-0.434-1.233-0.3-1.9
			c1.967-8.1,7.184-12.634,15.649-13.6l0.301-0.05L311.85,318.05z"/>
		<path fill="#A55B72" d="M332.05,325.2c-0.334-0.567-0.4-1.2-0.2-1.9c0.167-0.667,0.55-1.167,1.15-1.5
			c0.566-0.366,1.199-0.45,1.899-0.25c0.667,0.167,1.184,0.55,1.55,1.15c0.334,0.6,0.417,1.233,0.25,1.899
			c-0.199,0.7-0.6,1.2-1.199,1.5c-0.567,0.367-1.184,0.467-1.851,0.301C332.949,326.2,332.416,325.8,332.05,325.2z"/>
		<path fill="#FFFFFF" d="M345.35,311.2l-0.45,1.2c-0.633,1.366-1.684,2.449-3.149,3.25c-1.867,1.1-3.768,1.399-5.7,0.899
			c-2.101-0.566-3.7-1.8-4.8-3.7c-0.801-1.399-1.101-2.85-0.9-4.35l0.2-1.25c0.533-2,1.683-3.566,3.45-4.7
			c1.899-1.066,3.899-1.316,6-0.75c1.933,0.5,3.433,1.684,4.5,3.55C345.6,307.25,345.883,309.2,345.35,311.2z M342.3,306.55
			c-0.7-1.233-1.684-2.033-2.95-2.399c-1.434-0.367-2.783-0.2-4.05,0.5c-1.2,0.766-1.983,1.816-2.351,3.149
			c-0.333,1.333-0.166,2.567,0.5,3.7c0.733,1.267,1.817,2.084,3.25,2.45c1.267,0.366,2.517,0.183,3.75-0.55
			c1.267-0.634,2.067-1.617,2.4-2.95C343.216,309.117,343.033,307.816,342.3,306.55z"/>
		<path fill="#A55B72" d="M339.35,304.15c1.267,0.366,2.25,1.166,2.95,2.399c0.733,1.267,0.916,2.567,0.55,3.9
			c-0.333,1.333-1.134,2.316-2.4,2.95c-1.233,0.732-2.483,0.916-3.75,0.55c-1.433-0.366-2.517-1.184-3.25-2.45
			c-0.666-1.133-0.833-2.367-0.5-3.7c0.367-1.333,1.15-2.384,2.351-3.149C336.567,303.95,337.916,303.783,339.35,304.15z"/>
		<path opacity="0.302" fill="#FFFFFF" enable-background="new    " d="M339.5,286.05c1.833-1.866,4.05-2.8,6.649-2.8
			c2.601,0,4.816,0.934,6.65,2.8c1.833,1.833,2.75,4.05,2.75,6.65c0,2.6-0.917,4.816-2.75,6.649c-1.834,1.834-4.051,2.75-6.65,2.75
			s-4.816-0.916-6.649-2.75c-1.867-1.833-2.801-4.05-2.801-6.649C336.699,290.1,337.633,287.883,339.5,286.05z"/>
		<path opacity="0.2" fill="#FFFFFF" enable-background="new    " d="M346.15,283.25c-2.6,0-4.816,0.934-6.649,2.8
			c-1.867,1.833-2.801,4.05-2.801,6.65c0,2.6,0.934,4.816,2.801,6.649c1.833,1.834,4.05,2.75,6.649,2.75
			c2.601,0,4.816-0.916,6.65-2.75c1.833-1.833,2.75-4.05,2.75-6.649c0-2.601-0.917-4.817-2.75-6.65
			C350.966,284.184,348.749,283.25,346.15,283.25z M334.699,275.5c7.601,0,14.117,2.7,19.551,8.1
			c5.366,5.367,8.05,11.851,8.05,19.45c0,7.634-2.684,14.15-8.05,19.55c-5.434,5.367-11.95,8.051-19.551,8.051
			c-7.6,0-14.083-2.684-19.449-8.051c-5.434-5.399-8.15-11.916-8.15-19.55c0-7.6,2.717-14.083,8.15-19.45
			C320.616,278.2,327.1,275.5,334.699,275.5z"/>
		<path fill="#FFFFFF" d="M354.25,283.6c-5.434-5.399-11.95-8.1-19.551-8.1c-7.6,0-14.083,2.7-19.449,8.1
			c-5.434,5.367-8.15,11.851-8.15,19.45c0,7.634,2.717,14.15,8.15,19.55c5.366,5.367,11.85,8.051,19.449,8.051
			c7.601,0,14.117-2.684,19.551-8.051c5.366-5.399,8.05-11.916,8.05-19.55C362.3,295.45,359.616,288.967,354.25,283.6z
			 M302.1,303.05c0-9,3.2-16.667,9.6-23c6.334-6.366,14-9.55,23-9.55s16.7,3.184,23.101,9.55c6.333,6.333,9.5,14,9.5,23
			c0,9.034-3.167,16.733-9.5,23.101c-6.4,6.333-14.101,9.5-23.101,9.5s-16.666-3.167-23-9.5
			C305.3,319.783,302.1,312.084,302.1,303.05z"/>
		<path fill="#F19CB7" d="M393.449,319.8V289.4c0-5.934,2.101-11,6.301-15.2c4.199-4.2,9.267-6.3,15.199-6.3
			c5.934,0,11,2.1,15.2,6.3s6.3,9.267,6.3,15.2V319.8c0,3.634-2.1,6.733-6.3,9.3c-4.2,2.533-9.267,3.801-15.2,3.801
			c-5.933,0-11-1.268-15.199-3.801C395.55,326.533,393.449,323.434,393.449,319.8z"/>
		<path fill="#F19CB7" d="M446.85,311.95c-0.5,0.5-1.1,0.733-1.8,0.7c-0.667,0-1.25-0.25-1.75-0.75
			c-3.767-3.934-7.25-4.2-10.45-0.801l-6.5-6.5c0.066-0.1,0.15-0.166,0.25-0.199c7.767-3.367,14.533-2.033,20.3,4
			c0.467,0.533,0.717,1.133,0.75,1.8C447.616,310.867,447.35,311.45,446.85,311.95z M394.1,311.1c-3.2-3.399-6.7-3.116-10.5,0.851
			c-0.5,0.5-1.083,0.75-1.75,0.75c-0.7,0.033-1.3-0.2-1.8-0.7s-0.75-1.1-0.75-1.8c0-0.634,0.233-1.217,0.7-1.75
			c5.767-6.034,12.533-7.366,20.3-4l0.3,0.149L394.1,311.1z"/>
		<path fill="#F19CB7" d="M425.8,328.85c1.267-4.066,3.8-6.916,7.6-8.55c6.9,6.067,9.8,11.55,8.7,16.45
			c-0.434,1.9-1.233,3.416-2.4,4.55c-1.467,0.866-2.717,0.75-3.75-0.35C435.35,334.916,431.966,330.883,425.8,328.85z
			 M409.449,340.95c-0.6-6.034-3.983-10.067-10.149-12.101c1.267-4.066,3.8-6.916,7.6-8.55c6.9,6.067,9.8,11.55,8.7,16.45
			c-0.434,1.9-1.233,3.416-2.4,4.55C411.733,342.166,410.483,342.05,409.449,340.95z"/>
		<path fill="#A55B72" d="M423.5,282.2c1.033,1.033,1.55,2.233,1.55,3.6c0,1.4-0.517,2.567-1.55,3.5c-1,1.034-2.167,1.55-3.5,1.55
			c-1.467,0-2.717-0.516-3.75-1.55c-0.967-0.933-1.45-2.1-1.45-3.5c0-1.366,0.483-2.566,1.45-3.6c1.033-1,2.283-1.5,3.75-1.5
			C421.333,280.7,422.5,281.2,423.5,282.2z M427.05,300.05c0.133,0.267,0.133,0.55,0,0.851l-0.601,0.5c-0.3,0.133-0.566,0.133-0.8,0
			l-0.55-0.551l-0.7-1.25l-0.6-0.5c-1.101-0.833-2.417-1.25-3.95-1.25s-2.851,0.417-3.95,1.25l-0.45,0.45l-0.75,1.25l-0.449,0.55
			l-0.9,0.051l-0.55-0.5c-0.167-0.2-0.2-0.45-0.101-0.75c0.233-1,0.884-1.867,1.95-2.601c1.4-1.167,3.134-1.75,5.2-1.75
			c2.033,0,3.767,0.583,5.2,1.75C425.983,298.283,426.65,299.117,427.05,300.05z M426.449,301.4h-0.05H426.449z"/>
		<path fill="#FFFFFF" d="M425.05,285.8c0-1.366-0.517-2.566-1.55-3.6c-1-1-2.167-1.5-3.5-1.5c-1.467,0-2.717,0.5-3.75,1.5
			c-0.967,1.033-1.45,2.233-1.45,3.6c0,1.4,0.483,2.567,1.45,3.5c1.033,1.034,2.283,1.55,3.75,1.55c1.333,0,2.5-0.516,3.5-1.55
			C424.533,288.367,425.05,287.2,425.05,285.8z M420.05,278.2c2,0,3.75,0.75,5.25,2.25c1.566,1.566,2.35,3.384,2.35,5.45l-0.1,1.3
			c-0.3,1.5-1.05,2.816-2.25,3.95c-1.5,1.533-3.25,2.3-5.25,2.3c-2.2,0-4.067-0.767-5.601-2.3c-1.133-1.134-1.8-2.45-2-3.95
			l-0.149-1.3c0-2.066,0.717-3.884,2.149-5.45C415.983,278.95,417.85,278.2,420.05,278.2z"/>
		<path opacity="0.302" fill="#FFFFFF" enable-background="new    " d="M416.949,272c0-2.6,0.934-4.816,2.801-6.65
			c1.833-1.866,4.05-2.8,6.649-2.8c2.601,0,4.816,0.934,6.65,2.8c1.833,1.834,2.75,4.051,2.75,6.65s-0.917,4.816-2.75,6.65
			c-1.834,1.833-4.051,2.75-6.65,2.75s-4.816-0.917-6.649-2.75C417.883,276.816,416.949,274.6,416.949,272z"/>
		<path opacity="0.2" fill="#FFFFFF" enable-background="new    " d="M419.75,265.35c-1.867,1.834-2.801,4.051-2.801,6.65
			s0.934,4.816,2.801,6.65c1.833,1.833,4.05,2.75,6.649,2.75c2.601,0,4.816-0.917,6.65-2.75c1.833-1.834,2.75-4.051,2.75-6.65
			s-0.917-4.816-2.75-6.65c-1.834-1.866-4.051-2.8-6.65-2.8S421.583,263.483,419.75,265.35z M395.5,262.9
			c5.366-5.4,11.85-8.101,19.449-8.101c7.601,0,14.117,2.7,19.551,8.101c5.366,5.366,8.05,11.85,8.05,19.449
			c0,7.634-2.684,14.15-8.05,19.551c-5.434,5.366-11.95,8.05-19.551,8.05c-7.6,0-14.083-2.684-19.449-8.05
			c-5.434-5.4-8.15-11.917-8.15-19.551C387.35,274.75,390.067,268.267,395.5,262.9z"/>
		<path fill="#FFFFFF" d="M414.949,254.8c-7.6,0-14.083,2.7-19.449,8.101c-5.434,5.366-8.15,11.85-8.15,19.449
			c0,7.634,2.717,14.15,8.15,19.551c5.366,5.366,11.85,8.05,19.449,8.05c7.601,0,14.117-2.684,19.551-8.05
			c5.366-5.4,8.05-11.917,8.05-19.551c0-7.6-2.684-14.083-8.05-19.449C429.067,257.5,422.55,254.8,414.949,254.8z M382.35,282.35
			c0-9,3.2-16.666,9.6-23c6.334-6.366,14-9.55,23-9.55s16.7,3.184,23.101,9.55c6.333,6.334,9.5,14,9.5,23
			c0,9.033-3.167,16.734-9.5,23.101c-6.4,6.333-14.101,9.5-23.101,9.5s-16.666-3.167-23-9.5
			C385.55,299.084,382.35,291.383,382.35,282.35z"/>
		<path opacity="0.502" fill="#8BCFBA" enable-background="new    " d="M426.3,119.15c-0.567-0.566-0.851-1.25-0.851-2.05
			c0-0.8,0.283-1.483,0.851-2.05c0.566-0.566,1.25-0.85,2.05-0.85s1.483,0.283,2.05,0.85c0.566,0.567,0.851,1.25,0.851,2.05
			c0,0.8-0.284,1.483-0.851,2.05c-0.566,0.567-1.25,0.85-2.05,0.85S426.866,119.717,426.3,119.15z M425.5,125.85
			c-0.567,0-1.051-0.2-1.45-0.6c-0.4-0.4-0.601-0.883-0.601-1.45c0-0.566,0.2-1.05,0.601-1.45c0.399-0.4,0.883-0.6,1.45-0.6
			c0.566,0,1.05,0.2,1.449,0.6c0.4,0.4,0.601,0.883,0.601,1.45c0,0.567-0.2,1.05-0.601,1.45
			C426.55,125.65,426.067,125.85,425.5,125.85z M416.65,120.95c1.101,0,2.033,0.383,2.8,1.15s1.15,1.7,1.15,2.8
			s-0.384,2.034-1.15,2.8s-1.7,1.15-2.8,1.15s-2.033-0.383-2.8-1.15s-1.15-1.7-1.15-2.8s0.384-2.033,1.15-2.8
			S415.55,120.95,416.65,120.95z"/>
		<path opacity="0.502" fill="#8BCFBA" enable-background="new    " d="M184.35,120c-0.8,0-1.483-0.283-2.05-0.85
			c-0.566-0.566-0.85-1.25-0.85-2.05c0-0.8,0.283-1.483,0.85-2.05c0.566-0.566,1.25-0.85,2.05-0.85s1.483,0.283,2.05,0.85
			c0.567,0.567,0.851,1.25,0.851,2.05c0,0.8-0.283,1.483-0.851,2.05C185.833,119.717,185.15,120,184.35,120z M182.95,125.25
			c-0.4,0.4-0.884,0.6-1.45,0.6c-0.567,0-1.05-0.2-1.45-0.6s-0.6-0.883-0.6-1.45c0-0.566,0.199-1.05,0.6-1.45s0.883-0.6,1.45-0.6
			c0.566,0,1.05,0.2,1.45,0.6c0.399,0.4,0.6,0.883,0.6,1.45C183.55,124.367,183.35,124.85,182.95,125.25z M172.65,120.95
			c1.101,0,2.033,0.383,2.801,1.15c0.767,0.767,1.149,1.7,1.149,2.8s-0.383,2.034-1.149,2.8c-0.768,0.767-1.7,1.15-2.801,1.15
			c-1.1,0-2.033-0.383-2.8-1.15s-1.149-1.7-1.149-2.8s0.383-2.033,1.149-2.8S171.55,120.95,172.65,120.95z"/>
		<path opacity="0.502" fill="#8BCFBA" enable-background="new    " d="M106.4,119.15c-0.566,0.567-1.25,0.85-2.05,0.85
			s-1.483-0.283-2.05-0.85c-0.566-0.566-0.85-1.25-0.85-2.05c0-0.8,0.283-1.483,0.85-2.05c0.566-0.566,1.25-0.85,2.05-0.85
			s1.483,0.283,2.05,0.85c0.567,0.567,0.851,1.25,0.851,2.05C107.25,117.9,106.967,118.583,106.4,119.15z M102.95,125.25
			c-0.4,0.4-0.884,0.6-1.45,0.6c-0.567,0-1.05-0.2-1.45-0.6s-0.6-0.883-0.6-1.45c0-0.566,0.199-1.05,0.6-1.45s0.883-0.6,1.45-0.6
			c0.566,0,1.05,0.2,1.45,0.6c0.399,0.4,0.6,0.883,0.6,1.45C103.55,124.367,103.35,124.85,102.95,125.25z M92.65,120.95
			c1.101,0,2.033,0.383,2.801,1.15c0.767,0.767,1.149,1.7,1.149,2.8s-0.383,2.034-1.149,2.8c-0.768,0.767-1.7,1.15-2.801,1.15
			c-1.1,0-2.033-0.383-2.8-1.15S88.7,126,88.7,124.9s0.383-2.033,1.149-2.8S91.55,120.95,92.65,120.95z"/>
		<path opacity="0.502" fill="#A3C3EB" enable-background="new    " d="M77.85,219.3c-0.566,0.567-1.25,0.851-2.05,0.851
			s-1.483-0.283-2.05-0.851c-0.567-0.566-0.851-1.25-0.851-2.05s0.283-1.483,0.851-2.05c0.566-0.567,1.25-0.851,2.05-0.851
			s1.483,0.283,2.05,0.851c0.566,0.566,0.851,1.25,0.851,2.05S78.416,218.733,77.85,219.3z M78.65,226c-0.566,0-1.05-0.2-1.449-0.6
			c-0.4-0.4-0.601-0.884-0.601-1.45c0-0.567,0.2-1.05,0.601-1.45c0.399-0.4,0.883-0.6,1.449-0.6c0.567,0,1.051,0.199,1.45,0.6
			c0.4,0.4,0.601,0.883,0.601,1.45c0,0.566-0.2,1.05-0.601,1.45C79.7,225.8,79.217,226,78.65,226z M90.3,222.25
			c0.767,0.767,1.15,1.7,1.15,2.8c0,1.101-0.384,2.034-1.15,2.8c-0.767,0.768-1.7,1.15-2.8,1.15c-1.101,0-2.033-0.383-2.8-1.15
			c-0.768-0.766-1.15-1.699-1.15-2.8c0-1.1,0.383-2.033,1.15-2.8c0.767-0.767,1.699-1.15,2.8-1.15
			C88.6,221.1,89.533,221.483,90.3,222.25z"/>
		<path opacity="0.502" fill="#A3C3EB" enable-background="new    " d="M237.85,215.2c0.566,0.566,0.851,1.25,0.851,2.05
			s-0.284,1.483-0.851,2.05c-0.566,0.567-1.25,0.851-2.05,0.851s-1.483-0.283-2.05-0.851c-0.567-0.566-0.851-1.25-0.851-2.05
			s0.283-1.483,0.851-2.05c0.566-0.567,1.25-0.851,2.05-0.851S237.283,214.633,237.85,215.2z M237.2,225.4
			c-0.4-0.4-0.601-0.884-0.601-1.45c0-0.567,0.2-1.05,0.601-1.45c0.399-0.4,0.883-0.6,1.449-0.6c0.567,0,1.051,0.199,1.45,0.6
			c0.4,0.4,0.601,0.883,0.601,1.45c0,0.566-0.2,1.05-0.601,1.45c-0.399,0.399-0.883,0.6-1.45,0.6
			C238.083,226,237.6,225.8,237.2,225.4z M251.45,225.05c0,1.101-0.384,2.034-1.15,2.8c-0.767,0.768-1.7,1.15-2.8,1.15
			c-1.101,0-2.033-0.383-2.8-1.15c-0.768-0.766-1.15-1.699-1.15-2.8c0-1.1,0.383-2.033,1.15-2.8c0.767-0.767,1.699-1.15,2.8-1.15
			c1.1,0,2.033,0.384,2.8,1.15S251.45,223.95,251.45,225.05z"/>
		<path opacity="0.502" fill="#A3C3EB" enable-background="new    " d="M400.8,214.35c0.8,0,1.483,0.283,2.05,0.851
			c0.566,0.566,0.85,1.25,0.85,2.05s-0.283,1.483-0.85,2.05c-0.566,0.567-1.25,0.851-2.05,0.851s-1.483-0.283-2.05-0.851
			c-0.567-0.566-0.851-1.25-0.851-2.05s0.283-1.483,0.851-2.05C399.317,214.633,400,214.35,400.8,214.35z M403.65,226
			c-0.566,0-1.05-0.2-1.45-0.6c-0.399-0.4-0.6-0.884-0.6-1.45c0-0.567,0.2-1.05,0.6-1.45c0.4-0.4,0.884-0.6,1.45-0.6
			s1.05,0.199,1.45,0.6s0.6,0.883,0.6,1.45c0,0.566-0.199,1.05-0.6,1.45C404.699,225.8,404.216,226,403.65,226z M416.449,225.05
			c0,1.101-0.383,2.034-1.149,2.8c-0.767,0.768-1.7,1.15-2.8,1.15c-1.101,0-2.034-0.383-2.801-1.15
			c-0.767-0.766-1.149-1.699-1.149-2.8c0-1.1,0.383-2.033,1.149-2.8s1.7-1.15,2.801-1.15c1.1,0,2.033,0.384,2.8,1.15
			S416.449,223.95,416.449,225.05z"/>
		<path opacity="0.502" fill="#F3AFC5" enable-background="new    " d="M98.7,320.15c1.066,0.266,1.866,0.866,2.399,1.8
			c0.566,0.966,0.7,1.983,0.4,3.05c-0.267,1.033-0.867,1.834-1.8,2.4c-0.967,0.533-1.983,0.666-3.051,0.399
			c-1.033-0.3-1.833-0.933-2.399-1.899c-0.533-0.934-0.667-1.917-0.4-2.95c0.3-1.067,0.934-1.866,1.9-2.4
			C96.683,319.983,97.666,319.85,98.7,320.15z M91.25,326.4c0.3,0.5,0.383,1.016,0.25,1.55c-0.167,0.566-0.5,0.983-1,1.25l-1.55,0.2
			c-0.534-0.134-0.95-0.45-1.25-0.95c-0.268-0.5-0.334-1.017-0.2-1.55c0.166-0.533,0.483-0.95,0.95-1.25l1.6-0.2
			C90.583,325.584,90.984,325.9,91.25,326.4z M84.45,320.25c0.732,0.2,1.3,0.65,1.699,1.35c0.4,0.7,0.517,1.434,0.351,2.2
			c-0.233,0.767-0.7,1.351-1.4,1.75c-0.7,0.4-1.417,0.5-2.149,0.3c-0.801-0.199-1.4-0.649-1.801-1.35
			c-0.399-0.7-0.483-1.434-0.25-2.2c0.167-0.767,0.601-1.35,1.301-1.75C82.9,320.15,83.65,320.05,84.45,320.25z"/>
		<path opacity="0.502" fill="#F3AFC5" enable-background="new    " d="M242.95,325.85c-0.801-0.199-1.4-0.649-1.801-1.35
			c-0.399-0.7-0.483-1.434-0.25-2.2c0.167-0.767,0.601-1.35,1.301-1.75c0.699-0.399,1.449-0.5,2.25-0.3
			c0.732,0.2,1.3,0.65,1.699,1.35c0.4,0.7,0.517,1.434,0.351,2.2c-0.233,0.767-0.7,1.351-1.4,1.75
			C244.4,325.95,243.683,326.05,242.95,325.85z M261.1,321.95c0.566,0.966,0.7,1.983,0.4,3.05c-0.267,1.033-0.867,1.834-1.8,2.4
			c-0.967,0.533-1.983,0.666-3.051,0.399c-1.033-0.3-1.833-0.933-2.399-1.899c-0.533-0.934-0.667-1.917-0.4-2.95
			c0.3-1.067,0.934-1.866,1.9-2.4c0.933-0.566,1.916-0.7,2.95-0.399C259.767,320.416,260.567,321.017,261.1,321.95z M248.45,325.65
			l1.6-0.2c0.533,0.134,0.934,0.45,1.2,0.95c0.3,0.5,0.383,1.016,0.25,1.55c-0.167,0.566-0.5,0.983-1,1.25l-1.55,0.2
			c-0.534-0.134-0.95-0.45-1.25-0.95c-0.268-0.5-0.334-1.017-0.2-1.55C247.666,326.367,247.984,325.95,248.45,325.65z"/>
		<path opacity="0.502" fill="#F3AFC5" enable-background="new    " d="M431.5,325c-0.268,1.033-0.867,1.834-1.801,2.4
			c-0.967,0.533-1.983,0.666-3.05,0.399c-1.033-0.3-1.833-0.933-2.399-1.899c-0.534-0.934-0.667-1.917-0.4-2.95
			c0.3-1.067,0.934-1.866,1.9-2.4c0.933-0.566,1.916-0.7,2.949-0.399c1.067,0.266,1.867,0.866,2.4,1.8
			C431.666,322.916,431.8,323.934,431.5,325z M418.449,325.65l1.601-0.2c0.533,0.134,0.933,0.45,1.2,0.95
			c0.3,0.5,0.383,1.016,0.25,1.55c-0.167,0.566-0.5,0.983-1,1.25l-1.551,0.2c-0.533-0.134-0.949-0.45-1.25-0.95
			c-0.267-0.5-0.333-1.017-0.199-1.55C417.666,326.367,417.983,325.95,418.449,325.65z M414.449,320.25c0.733,0.2,1.3,0.65,1.7,1.35
			c0.4,0.7,0.517,1.434,0.351,2.2c-0.233,0.767-0.7,1.351-1.4,1.75c-0.7,0.4-1.417,0.5-2.15,0.3c-0.8-0.199-1.399-0.649-1.8-1.35
			c-0.399-0.7-0.483-1.434-0.25-2.2c0.167-0.767,0.601-1.35,1.3-1.75C412.9,320.15,413.65,320.05,414.449,320.25z"/>
	</g>
	<g transform="matrix(1.0 0.0 0.0 1.0 497.4 140.6)">
		<g transform="matrix(1.0 0.0 0.0 1.0 0.0 0.0)">
			<path fill="#6FC4A9" d="M7.35-23c1.232-1.434,2.75-2.133,4.55-2.1c1.866-0.033,3.383,0.667,4.55,2.1c1.2,1.333,1.7,2.9,1.5,4.7
				L16.6,0H8.25l-2.2-18.3C5.917-20.1,6.35-21.667,7.35-23z"/>
		</g>
		<g transform="matrix(1.0 0.0 0.0 1.0 0.0 0.0)">
			<path fill="#6FC4A9" d="M-11.9-25.1c1.8-0.033,3.316,0.667,4.55,2.1c1,1.333,1.433,2.9,1.3,4.7L-8.25,0h-8.35l-1.351-18.3
				c-0.199-1.8,0.301-3.367,1.5-4.7C-15.284-24.434-13.767-25.133-11.9-25.1z"/>
		</g>
		<g transform="matrix(1.0 0.0 0.0 1.0 0.0 0.0)">
			<path fill="#6FC4A9" d="M23.45-21.9c0.1-5.467-2.184-8.134-6.85-8v-9.2l0.3,0.1c7.899,3.1,11.75,8.833,11.55,17.2
				c-0.033,0.7-0.283,1.284-0.75,1.75c-0.5,0.467-1.1,0.7-1.8,0.7s-1.283-0.25-1.75-0.75S23.45-21.2,23.45-21.9z"/>
			<path fill="#6FC4A9" d="M-27.15-20.1c-0.467,0.5-1.051,0.75-1.75,0.75c-0.7,0-1.301-0.233-1.801-0.7
				c-0.467-0.466-0.717-1.05-0.75-1.75C-31.65-30.167-27.8-35.9-19.9-39l0.3-0.1v9.2c-4.667-0.134-6.95,2.533-6.851,8
				C-26.451-21.2-26.684-20.6-27.15-20.1z"/>
			<path fill="#6FC4A9" d="M-15.201-77.4c4.2-4.2,9.267-6.3,15.2-6.3s11,2.1,15.2,6.3c4.2,4.2,6.3,9.267,6.3,15.2v40.4
				c0,3.633-2.1,6.733-6.3,9.3C11-9.967,5.933-8.7,0-8.7s-11-1.267-15.2-3.8c-4.199-2.567-6.3-5.667-6.3-9.3v-40.4
				C-21.5-68.133-19.4-73.2-15.201-77.4z"/>
			<path fill="#347E67" d="M10.299-54.25c1-0.967,2.2-1.45,3.601-1.45c1.333,0,2.483,0.483,3.45,1.45c1,1,1.5,2.167,1.5,3.5
				c0,1.333-0.5,2.466-1.5,3.4c-0.967,1-2.117,1.5-3.45,1.5c-1.4,0-2.601-0.5-3.601-1.5C9.367-48.284,8.9-49.417,8.9-50.75
				C8.9-52.083,9.367-53.25,10.299-54.25z M10.1-43.05l0.5-0.55c0.267-0.133,0.533-0.133,0.8,0l0.6,0.5v0.8
				c-0.399,0.9-1.05,1.717-1.95,2.45C8.65-38.75,6.966-38.2,5-38.2c-2,0-3.7-0.55-5.1-1.65c-1-0.733-1.634-1.583-1.9-2.55
				l0.101-0.75l0.55-0.5l0.85,0.1L-0.05-43c0.2,0.6,0.6,1.133,1.2,1.6c1.033,0.8,2.316,1.2,3.85,1.2c1.467,0,2.733-0.4,3.8-1.2
				C9.4-41.9,9.833-42.45,10.1-43.05z M-3.8-55.7c1.333,0,2.483,0.483,3.45,1.45c1,1,1.5,2.167,1.5,3.5c0,1.333-0.5,2.466-1.5,3.4
				c-0.967,1-2.117,1.5-3.45,1.5c-1.4,0-2.6-0.5-3.6-1.5c-0.934-0.934-1.4-2.067-1.4-3.4c0-1.333,0.467-2.5,1.4-3.5
				C-6.4-55.217-5.201-55.7-3.8-55.7z"/>
			<path opacity="0.302" fill="#FFFFFF" enable-background="new    " d="M18.1-76.25c1.833,1.833,2.75,4.05,2.75,6.65
				s-0.917,4.816-2.75,6.65c-1.834,1.833-4.051,2.75-6.65,2.75s-4.816-0.917-6.65-2.75C2.933-64.784,2-67,2-69.6
				s0.934-4.817,2.8-6.65c1.834-1.867,4.051-2.8,6.65-2.8S16.266-78.117,18.1-76.25z"/>
			<path opacity="0.2" fill="#FFFFFF" enable-background="new    " d="M20.85-69.6c0-2.6-0.917-4.817-2.75-6.65
				c-1.834-1.867-4.051-2.8-6.65-2.8s-4.816,0.934-6.65,2.8C2.933-74.417,2-72.2,2-69.6s0.934,4.816,2.8,6.65
				c1.834,1.833,4.051,2.75,6.65,2.75s4.816-0.917,6.65-2.75C19.933-64.784,20.85-67,20.85-69.6z M19.549-78.7
				c5.367,5.367,8.051,11.85,8.051,19.45c0,7.633-2.684,14.15-8.051,19.55C14.117-34.333,7.6-31.65,0-31.65
				c-7.6,0-14.083-2.684-19.45-8.05c-5.433-5.4-8.149-11.917-8.149-19.55c0-7.6,2.717-14.083,8.149-19.45
				C-14.083-84.1-7.6-86.8,0-86.8C7.6-86.8,14.117-84.1,19.549-78.7z"/>
			<path fill="#FFFFFF" d="M27.6-59.25c0-7.6-2.684-14.083-8.051-19.45C14.117-84.1,7.6-86.8,0-86.8c-7.6,0-14.083,2.7-19.45,8.1
				c-5.433,5.367-8.149,11.85-8.149,19.45c0,7.633,2.717,14.15,8.149,19.55C-14.083-34.333-7.6-31.65,0-31.65
				c7.601,0,14.117-2.684,19.55-8.05C24.917-45.1,27.6-51.617,27.6-59.25z M0-91.8c9,0,16.7,3.184,23.101,9.55
				c6.333,6.333,9.5,14,9.5,23c0,9.033-3.167,16.733-9.5,23.1C16.7-29.817,9-26.65,0-26.65s-16.667-3.167-23-9.5
				c-6.399-6.367-9.6-14.067-9.6-23.1c0-9,3.2-16.667,9.6-23C-16.667-88.617-9-91.8,0-91.8z"/>
			<path opacity="0.502" fill="#8BCFBA" enable-background="new    " d="M15.9-28.3c0.8,0,1.483,0.284,2.05,0.85
				c0.566,0.567,0.85,1.25,0.85,2.05c0,0.8-0.283,1.483-0.85,2.05c-0.566,0.566-1.25,0.85-2.05,0.85s-1.483-0.284-2.05-0.85
				C13.283-23.917,13-24.6,13-25.4c0-0.8,0.283-1.483,0.851-2.05C14.417-28.017,15.1-28.3,15.9-28.3z M13.049-20.75
				c0.567,0,1.051,0.2,1.45,0.6c0.4,0.4,0.601,0.883,0.601,1.45c0,0.567-0.2,1.05-0.601,1.45c-0.399,0.4-0.883,0.6-1.45,0.6
				c-0.566,0-1.05-0.2-1.449-0.6C11.2-17.65,11-18.133,11-18.7c0-0.566,0.2-1.05,0.601-1.45C12-20.55,12.483-20.75,13.049-20.75z
				 M4.2-21.55c1.1,0,2.033,0.383,2.8,1.15c0.767,0.767,1.15,1.7,1.15,2.8S7.766-15.567,7-14.8s-1.7,1.15-2.8,1.15
				s-2.033-0.384-2.8-1.15s-1.15-1.7-1.15-2.8s0.384-2.033,1.15-2.8C2.167-21.167,3.1-21.55,4.2-21.55z"/>
		</g>
	</g>
	<g transform="matrix(1.0 0.0 0.0 1.0 497.4 240.6)">
		<g transform="matrix(1.0 0.0 0.0 1.0 0.0 0.0)">
			<path fill="#8DB5E7" d="M9.9-25.1c1.866-0.033,3.383,0.666,4.55,2.1c1.2,1.334,1.7,2.9,1.5,4.7L14.6,0H6.25l-2.2-18.3
				C3.917-20.1,4.35-21.666,5.35-23C6.583-24.434,8.1-25.133,9.9-25.1z"/>
		</g>
		<g transform="matrix(1.0 0.0 0.0 1.0 0.0 0.0)">
			<path fill="#8DB5E7" d="M-14.451-23c1.167-1.434,2.684-2.133,4.551-2.1c1.8-0.033,3.316,0.666,4.55,2.1
				c1,1.334,1.433,2.9,1.3,4.7L-6.25,0h-8.35l-1.351-18.3C-16.15-20.1-15.65-21.666-14.451-23z"/>
		</g>
		<g transform="matrix(1.0 0.0 0.0 1.0 0.0 0.0)">
			<path fill="#8DB5E7" d="M23.9-19.35c-0.7,0-1.283-0.25-1.75-0.75s-0.7-1.1-0.7-1.8c0.1-5.467-2.184-8.134-6.85-8v-9.2l0.3,0.1
				c7.899,3.101,11.75,8.834,11.55,17.2c-0.033,0.7-0.283,1.284-0.75,1.75C25.2-19.583,24.6-19.35,23.9-19.35z"/>
		</g>
		<g transform="matrix(1.0 0.0 0.0 1.0 0.0 0.0)">
			<path fill="#8DB5E7" d="M-17.6-39.1v9.2c-4.667-0.134-6.95,2.533-6.851,8c0,0.7-0.233,1.3-0.699,1.8
				c-0.467,0.5-1.051,0.75-1.75,0.75c-0.7,0-1.301-0.233-1.801-0.7c-0.467-0.466-0.717-1.05-0.75-1.75
				C-29.65-30.166-25.8-35.9-17.9-39L-17.6-39.1z"/>
		</g>
		<g transform="matrix(1.0 0.0 0.0 1.0 0.0 0.0)">
			<path fill="#8DB5E7" d="M19.6-62.2v40.4c0,3.634-2.101,6.733-6.301,9.3c-3.5,2.101-7.583,3.334-12.25,3.7V-8.7H0.1h-0.75h-0.301
				l-1-0.051V-8.9C-6.184-9.367-9.9-10.567-13.1-12.5c-4.2-2.566-6.3-5.666-6.3-9.3v-40.4c0-5.933,2.1-11,6.3-15.2
				c3.2-3.2,6.916-5.184,11.149-5.95v-0.25l1-0.05L0.1-83.7l0.949,0.05v0.15c4.667,0.566,8.75,2.6,12.25,6.1
				C17.5-73.2,19.6-68.133,19.6-62.2z"/>
			<path fill="#4F719D" d="M7.799-53.55c0,0.7-0.25,1.284-0.75,1.75c-0.467,0.5-1.033,0.75-1.699,0.75C4.617-51.05,4-51.3,3.5-51.8
				c-0.467-0.466-0.7-1.05-0.7-1.75c0-0.7,0.233-1.283,0.7-1.75c0.5-0.533,1.117-0.8,1.851-0.8c0.666,0,1.232,0.267,1.699,0.8
				C7.549-54.833,7.799-54.25,7.799-53.55z M14.549-51.05c0.533,0.5,0.801,1.083,0.801,1.75c0,0.733-0.268,1.317-0.801,1.75
				c-0.5,0.534-1.066,0.8-1.699,0.8c-0.733,0-1.351-0.267-1.851-0.8c-0.5-0.433-0.75-1.017-0.75-1.75c0-0.667,0.25-1.25,0.75-1.75
				s1.117-0.75,1.851-0.75C13.483-51.8,14.049-51.55,14.549-51.05z M1.049-39.55l0.25-0.75c0.233-0.2,0.5-0.3,0.801-0.3h6.25
				l0.75,0.3l0.35,0.75c0,0.3-0.117,0.55-0.35,0.75c-0.2,0.233-0.45,0.351-0.75,0.351H2.1c-0.301,0-0.567-0.117-0.801-0.351
				C1.133-39,1.049-39.25,1.049-39.55z M-0.5-51.05c0.533,0.5,0.8,1.083,0.8,1.75c0,0.733-0.267,1.317-0.8,1.75
				c-0.434,0.534-1.017,0.8-1.75,0.8c-0.667,0-1.267-0.267-1.8-0.8c-0.467-0.433-0.7-1.017-0.7-1.75c0-0.667,0.233-1.25,0.7-1.75
				c0.533-0.5,1.133-0.75,1.8-0.75C-1.517-51.8-0.934-51.55-0.5-51.05z"/>
			<path opacity="0.2" fill="#FFFFFF" enable-background="new    " d="M19.65-78.7c5.366,5.367,8.05,11.85,8.05,19.45
				c0,7.633-2.684,14.15-8.05,19.55C14.216-34.333,7.7-31.65,0.1-31.65c-7.601,0-14.084-2.684-19.45-8.05
				c-5.434-5.4-8.15-11.917-8.15-19.55c0-7.6,2.717-14.083,8.15-19.45c5.366-5.4,11.85-8.1,19.45-8.1
				C7.7-86.8,14.216-84.1,19.65-78.7z M20.95-69.6c0-2.6-0.917-4.817-2.75-6.65c-1.833-1.867-4.05-2.8-6.65-2.8
				c-2.6,0-4.816,0.934-6.649,2.8c-1.867,1.833-2.8,4.05-2.8,6.65s0.933,4.816,2.8,6.65c1.833,1.833,4.05,2.75,6.649,2.75
				c2.601,0,4.817-0.917,6.65-2.75S20.95-67,20.95-69.6z"/>
			<path fill="#FFFFFF" d="M27.7-59.25c0-7.6-2.684-14.083-8.05-19.45C14.216-84.1,7.7-86.8,0.1-86.8c-7.601,0-14.084,2.7-19.45,8.1
				c-5.434,5.367-8.15,11.85-8.15,19.45c0,7.633,2.717,14.15,8.15,19.55c5.366,5.366,11.85,8.05,19.45,8.05
				c7.6,0,14.116-2.684,19.55-8.05C25.016-45.1,27.7-51.617,27.7-59.25z M0.1-91.8c9,0,16.699,3.184,23.1,9.55
				c6.333,6.333,9.5,14,9.5,23c0,9.033-3.167,16.733-9.5,23.1c-6.4,6.333-14.1,9.5-23.1,9.5s-16.667-3.167-23-9.5
				c-6.4-6.367-9.601-14.067-9.601-23.1c0-9,3.2-16.667,9.601-23C-16.567-88.617-8.9-91.8,0.1-91.8z"/>
			<path opacity="0.302" fill="#FFFFFF" enable-background="new    " d="M18.2-76.25c1.833,1.833,2.75,4.05,2.75,6.65
				s-0.917,4.816-2.75,6.65s-4.05,2.75-6.65,2.75c-2.6,0-4.816-0.917-6.649-2.75C3.033-64.784,2.1-67,2.1-69.6s0.933-4.817,2.8-6.65
				c1.833-1.867,4.05-2.8,6.649-2.8C14.15-79.05,16.367-78.117,18.2-76.25z"/>
			<path opacity="0.502" fill="#A3C3EB" enable-background="new    " d="M-2.35-20.5c1.1,0,2.033,0.384,2.8,1.15s1.15,1.7,1.15,2.8
				c0,1.101-0.384,2.034-1.15,2.8c-0.767,0.768-1.7,1.15-2.8,1.15c-1.101,0-2.033-0.383-2.8-1.15c-0.768-0.766-1.15-1.699-1.15-2.8
				c0-1.1,0.383-2.033,1.15-2.8C-4.383-20.117-3.451-20.5-2.35-20.5z M-16.1-26.4c0.566-0.567,1.25-0.851,2.05-0.851
				s1.483,0.283,2.05,0.851c0.566,0.566,0.851,1.25,0.851,2.05S-11.434-22.867-12-22.3c-0.566,0.567-1.25,0.851-2.05,0.851
				s-1.483-0.283-2.05-0.851c-0.567-0.566-0.851-1.25-0.851-2.05S-16.667-25.833-16.1-26.4z M-11.201-19.7
				c0.567,0,1.051,0.199,1.45,0.6c0.4,0.4,0.601,0.883,0.601,1.45c0,0.566-0.2,1.05-0.601,1.45c-0.399,0.399-0.883,0.6-1.45,0.6
				c-0.566,0-1.05-0.2-1.449-0.6c-0.4-0.4-0.601-0.884-0.601-1.45c0-0.567,0.2-1.05,0.601-1.45C-12.25-19.5-11.767-19.7-11.201-19.7
				z"/>
		</g>
	</g>
	<g transform="matrix(1.0 0.0 0.0 1.0 497.4 340.6)">
		<g transform="matrix(1.0 0.0 0.0 1.0 0.0 0.0)">
			<path fill="#F19CB7" d="M11.9-25.1c1.866-0.033,3.383,0.666,4.55,2.1c1.2,1.334,1.7,2.9,1.5,4.7L16.6,0H8.25l-2.2-18.3
				C5.917-20.1,6.35-21.666,7.35-23C8.583-24.434,10.1-25.133,11.9-25.1z"/>
		</g>
		<g transform="matrix(1.0 0.0 0.0 1.0 0.0 0.0)">
			<path fill="#F19CB7" d="M-16.451-23c1.167-1.434,2.684-2.133,4.551-2.1c1.8-0.033,3.316,0.666,4.55,2.1
				c1,1.334,1.433,2.9,1.3,4.7L-8.25,0h-8.35l-1.351-18.3C-18.15-20.1-17.65-21.666-16.451-23z"/>
		</g>
		<g transform="matrix(1.0 0.0 0.0 1.0 0.0 0.0)">
			<path fill="#F19CB7" d="M24.15-20.1c-0.467-0.5-0.7-1.1-0.7-1.8c0.1-5.467-2.184-8.134-6.85-8v-9.2l0.3,0.1
				c7.899,3.101,11.75,8.834,11.55,17.2c-0.033,0.7-0.283,1.284-0.75,1.75c-0.5,0.467-1.1,0.7-1.8,0.7S24.617-19.6,24.15-20.1z"/>
		</g>
		<g transform="matrix(1.0 0.0 0.0 1.0 0.0 0.0)">
			<path fill="#F19CB7" d="M-28.9-19.35c-0.7,0-1.301-0.233-1.801-0.7c-0.467-0.466-0.717-1.05-0.75-1.75
				C-31.65-30.166-27.8-35.9-19.9-39l0.3-0.1v9.2c-4.667-0.134-6.95,2.533-6.851,8c0,0.7-0.233,1.3-0.699,1.8
				C-27.617-19.6-28.201-19.35-28.9-19.35z"/>
		</g>
		<g transform="matrix(1.0 0.0 0.0 1.0 0.0 0.0)">
			<path fill="#F19CB7" d="M0.35-73.7c5.933,0,11,2.1,15.199,6.3c4.2,4.2,6.301,9.267,6.301,15.2V-21.8
				c0,3.634-2.101,6.733-6.301,9.3C11.35-9.967,6.283-8.7,0.35-8.7c-5.934,0-11-1.268-15.2-3.801c-4.2-2.566-6.3-5.666-6.3-9.3
				V-52.2c0-5.934,2.1-11,6.3-15.2S-5.583-73.7,0.35-73.7z"/>
			<path fill="#A55B72" d="M1.9-59.4c1.033-1,2.283-1.5,3.75-1.5c1.333,0,2.5,0.5,3.5,1.5c1.033,1.033,1.55,2.233,1.55,3.6
				c0,1.4-0.517,2.567-1.55,3.5c-1,1.034-2.167,1.55-3.5,1.55c-1.467,0-2.717-0.516-3.75-1.55c-0.967-0.933-1.45-2.1-1.45-3.5
				C0.45-57.166,0.933-58.367,1.9-59.4z M10.049-41.4l0.7-1.25l0.55-0.55c0.233-0.134,0.483-0.134,0.75,0l0.65,0.5
				c0.133,0.3,0.133,0.583,0,0.85c-0.4,0.934-1.066,1.767-2,2.5c-1.434,1.166-3.167,1.75-5.2,1.75c-2.066,0-3.8-0.584-5.2-1.75
				c-1.066-0.733-1.717-1.6-1.949-2.6C-1.75-42.25-1.717-42.5-1.55-42.7L-1-43.2l0.9,0.05l0.45,0.55
				c0.166,0.434,0.416,0.85,0.75,1.25l0.449,0.45c1.101,0.833,2.417,1.25,3.95,1.25s2.851-0.417,3.95-1.25L10.049-41.4z
				 M12.049-43.2H12.1H12.049z"/>
			<path fill="#FFFFFF" d="M5.65-60.9c-1.467,0-2.717,0.5-3.75,1.5c-0.967,1.033-1.45,2.233-1.45,3.6c0,1.4,0.483,2.567,1.45,3.5
				c1.033,1.034,2.283,1.55,3.75,1.55c1.333,0,2.5-0.516,3.5-1.55c1.033-0.933,1.55-2.1,1.55-3.5c0-1.366-0.517-2.566-1.55-3.6
				C8.15-60.4,6.983-60.9,5.65-60.9z M13.2-54.4c-0.3,1.5-1.05,2.816-2.25,3.95c-1.5,1.533-3.25,2.3-5.25,2.3
				c-2.2,0-4.066-0.767-5.6-2.3c-1.134-1.134-1.801-2.45-2-3.95l-0.15-1.3c0-2.066,0.717-3.884,2.15-5.45
				c1.533-1.5,3.399-2.25,5.6-2.25c2,0,3.75,0.75,5.25,2.25c1.566,1.566,2.35,3.384,2.35,5.45L13.2-54.4z"/>
			<path opacity="0.2" fill="#FFFFFF" enable-background="new    " d="M19.9-78.7c5.366,5.366,8.05,11.85,8.05,19.449
				c0,7.634-2.684,14.15-8.05,19.551c-5.434,5.366-11.95,8.05-19.55,8.05c-7.601,0-14.084-2.684-19.45-8.05
				c-5.434-5.4-8.15-11.917-8.15-19.551c0-7.6,2.717-14.083,8.15-19.449C-13.734-84.1-7.25-86.8,0.35-86.8
				C7.95-86.8,14.466-84.1,19.9-78.7z M18.45-76.25c-1.833-1.866-4.05-2.8-6.65-2.8c-2.6,0-4.816,0.934-6.649,2.8
				c-1.867,1.834-2.8,4.051-2.8,6.65s0.933,4.816,2.8,6.65c1.833,1.833,4.05,2.75,6.649,2.75c2.601,0,4.817-0.917,6.65-2.75
				C20.283-64.784,21.2-67,21.2-69.6S20.283-74.416,18.45-76.25z"/>
			<path fill="#FFFFFF" d="M27.95-59.25c0-7.6-2.684-14.083-8.05-19.449C14.466-84.1,7.95-86.8,0.35-86.8
				c-7.601,0-14.084,2.7-19.45,8.101c-5.434,5.366-8.15,11.85-8.15,19.449c0,7.634,2.717,14.15,8.15,19.551
				c5.366,5.366,11.85,8.05,19.45,8.05c7.6,0,14.116-2.684,19.55-8.05C25.266-45.1,27.95-51.617,27.95-59.25z M0.35-91.8
				c9,0,16.699,3.184,23.1,9.55c6.333,6.334,9.5,14,9.5,23c0,9.033-3.167,16.734-9.5,23.101c-6.4,6.333-14.1,9.5-23.1,9.5
				s-16.667-3.167-23-9.5c-6.4-6.366-9.601-14.067-9.601-23.101c0-9,3.2-16.666,9.601-23C-16.317-88.617-8.65-91.8,0.35-91.8z"/>
			<path opacity="0.302" fill="#FFFFFF" enable-background="new    " d="M11.799-79.05c2.601,0,4.817,0.934,6.65,2.8
				c1.833,1.834,2.75,4.051,2.75,6.65s-0.917,4.816-2.75,6.65c-1.833,1.833-4.05,2.75-6.65,2.75c-2.6,0-4.816-0.917-6.649-2.75
				C3.283-64.784,2.35-67,2.35-69.6s0.933-4.816,2.8-6.65C6.983-78.117,9.2-79.05,11.799-79.05z"/>
			<path opacity="0.502" fill="#F3AFC5" enable-background="new    " d="M9.1-21.45c1.066,0.266,1.866,0.866,2.399,1.8
				c0.566,0.966,0.7,1.983,0.4,3.05c-0.267,1.033-0.867,1.834-1.8,2.4c-0.967,0.533-1.983,0.666-3.051,0.399
				C6.016-14.1,5.216-14.733,4.65-15.7c-0.533-0.934-0.667-1.917-0.4-2.95c0.3-1.067,0.934-1.866,1.9-2.4
				C7.083-21.617,8.066-21.75,9.1-21.45z M0.45-16.15c0.533,0.134,0.934,0.45,1.2,0.95c0.3,0.5,0.383,1.016,0.25,1.55
				c-0.167,0.566-0.5,0.983-1,1.25c-0.467,0.3-0.983,0.366-1.55,0.2c-0.534-0.134-0.95-0.45-1.25-0.95
				c-0.268-0.5-0.334-1.017-0.2-1.55c0.166-0.533,0.483-0.95,0.95-1.25L0.45-16.15z M-8.451-17.1c-0.399-0.7-0.483-1.434-0.25-2.2
				c0.167-0.767,0.601-1.35,1.301-1.75l2.25-0.3c0.732,0.2,1.3,0.65,1.699,1.35c0.4,0.7,0.517,1.434,0.351,2.2
				c-0.233,0.767-0.7,1.351-1.4,1.75c-0.7,0.4-1.417,0.5-2.149,0.3C-7.451-15.95-8.05-16.4-8.451-17.1z"/>
		</g>
	</g>
	<g transform="matrix(1.0 0.0 0.0 1.0 0.0 0.0)">
		<path fill="#6FC4A9" d="M259.75,126.35c1.267-4.067,3.8-6.917,7.6-8.55c6.9,6.067,9.8,11.55,8.7,16.45
			c-0.434,1.9-1.233,3.417-2.4,4.55c-1.467,0.867-2.717,0.75-3.75-0.35C269.3,132.417,265.916,128.383,259.75,126.35z M228.6,139.75
			c3.9-4.367,4.583-9.483,2.05-15.35c3.867-1.767,7.684-1.767,11.45,0c0.066,9.2-2.116,15.017-6.55,17.45
			c-1.667,0.933-3.283,1.35-4.85,1.25C228.933,142.566,228.234,141.45,228.6,139.75z"/>
		<path fill="#6FC4A9" d="M228.45,79.4c0-5.933,2.1-11,6.3-15.2c4.2-4.2,9.267-6.3,15.2-6.3c5.933,0,11,2.1,15.199,6.3
			c4.2,4.2,6.301,9.267,6.301,15.2v40.4c0,3.634-2.101,6.733-6.301,9.3c-4.199,2.533-9.267,3.8-15.199,3.8
			c-5.934,0-11-1.267-15.2-3.8c-4.2-2.567-6.3-5.667-6.3-9.3V79.4z"/>
		<path fill="#347E67" d="M246.15,95.75c-1.399,0-2.6-0.5-3.6-1.5c-0.934-0.934-1.4-2.066-1.4-3.4s0.467-2.5,1.4-3.5
			c1-0.967,2.2-1.45,3.6-1.45c1.334,0,2.483,0.483,3.45,1.45c1,1,1.5,2.167,1.5,3.5s-0.5,2.466-1.5,3.4
			C248.633,95.25,247.484,95.75,246.15,95.75z M258.85,90.85c0-1.333,0.467-2.5,1.4-3.5c1-0.967,2.2-1.45,3.6-1.45
			c1.333,0,2.483,0.483,3.45,1.45c1,1,1.5,2.167,1.5,3.5s-0.5,2.466-1.5,3.4c-0.967,1-2.117,1.5-3.45,1.5c-1.399,0-2.6-0.5-3.6-1.5
			C259.317,93.316,258.85,92.184,258.85,90.85z"/>
		<path fill="#347E67" d="M256.7,103.15c-0.467,0.5-1.051,0.75-1.75,0.75c-0.7,0-1.301-0.25-1.801-0.75
			c-0.467-0.466-0.699-1.05-0.699-1.75c0-0.7,0.232-1.3,0.699-1.8c0.5-0.467,1.101-0.7,1.801-0.7c0.699,0,1.283,0.233,1.75,0.7
			c0.5,0.5,0.75,1.1,0.75,1.8C257.45,102.1,257.2,102.684,256.7,103.15z"/>
		<path fill="#6FC4A9" d="M219.25,121.55c-0.467-0.466-0.717-1.05-0.75-1.75c-0.2-8.366,3.649-14.1,11.55-17.2l0.3-0.1v9.2
			c-4.667-0.134-6.95,2.533-6.85,8c0,0.7-0.233,1.3-0.7,1.8s-1.05,0.75-1.75,0.75S219.75,122.017,219.25,121.55z M269.85,105.6
			c3.967,2.466,7.283,1.316,9.95-3.45c0.366-0.633,0.866-1.05,1.5-1.25c0.667-0.167,1.3-0.083,1.9,0.25c0.6,0.367,1,0.867,1.199,1.5
			c0.167,0.633,0.084,1.267-0.25,1.9c-4,7.333-10.199,10.367-18.6,9.1l-0.3-0.05L269.85,105.6z"/>
		<path opacity="0.2" fill="#FFFFFF" enable-background="new    " d="M249.95,54.8c7.6,0,14.116,2.7,19.55,8.1
			c5.366,5.367,8.05,11.85,8.05,19.45c0,7.633-2.684,14.15-8.05,19.55c-5.434,5.367-11.95,8.05-19.55,8.05
			c-7.601,0-14.084-2.684-19.45-8.05c-5.434-5.4-8.15-11.917-8.15-19.55c0-7.6,2.717-14.083,8.15-19.45
			C235.866,57.5,242.35,54.8,249.95,54.8z M254.75,65.35c-1.867,1.833-2.8,4.05-2.8,6.65s0.933,4.816,2.8,6.65
			c1.833,1.833,4.05,2.75,6.649,2.75c2.601,0,4.817-0.917,6.65-2.75s2.75-4.05,2.75-6.65s-0.917-4.816-2.75-6.65
			c-1.833-1.867-4.05-2.8-6.65-2.8C258.8,62.55,256.583,63.483,254.75,65.35z"/>
		<path fill="#FFFFFF" d="M269.5,62.9c-5.434-5.4-11.95-8.1-19.55-8.1c-7.601,0-14.084,2.7-19.45,8.1
			c-5.434,5.367-8.15,11.85-8.15,19.45c0,7.633,2.717,14.15,8.15,19.55c5.366,5.367,11.85,8.05,19.45,8.05
			c7.6,0,14.116-2.684,19.55-8.05c5.366-5.4,8.05-11.917,8.05-19.55C277.55,74.75,274.866,68.267,269.5,62.9z M217.35,82.35
			c0-9,3.2-16.667,9.601-23c6.333-6.367,14-9.55,23-9.55s16.699,3.184,23.1,9.55c6.333,6.333,9.5,14,9.5,23
			c0,9.033-3.167,16.733-9.5,23.1c-6.4,6.333-14.1,9.5-23.1,9.5s-16.667-3.167-23-9.5C220.55,99.083,217.35,91.383,217.35,82.35z"/>
		<path opacity="0.302" fill="#FFFFFF" enable-background="new    " d="M251.95,72c0-2.6,0.933-4.816,2.8-6.65
			c1.833-1.867,4.05-2.8,6.649-2.8c2.601,0,4.817,0.934,6.65,2.8c1.833,1.833,2.75,4.05,2.75,6.65s-0.917,4.816-2.75,6.65
			S264,81.4,261.4,81.4c-2.6,0-4.816-0.917-6.649-2.75C252.883,76.816,251.95,74.6,251.95,72z"/>
		<path opacity="0.502" fill="#8BCFBA" enable-background="new    " d="M262.95,125.25c-0.4,0.4-0.884,0.6-1.45,0.6
			c-0.567,0-1.05-0.2-1.45-0.6s-0.6-0.883-0.6-1.45c0-0.566,0.199-1.05,0.6-1.45s0.883-0.6,1.45-0.6c0.566,0,1.05,0.2,1.45,0.6
			c0.399,0.4,0.6,0.883,0.6,1.45C263.55,124.367,263.35,124.85,262.95,125.25z M264.35,120c-0.8,0-1.483-0.283-2.05-0.85
			c-0.566-0.566-0.85-1.25-0.85-2.05c0-0.8,0.283-1.483,0.85-2.05c0.566-0.566,1.25-0.85,2.05-0.85s1.483,0.283,2.05,0.85
			c0.567,0.567,0.851,1.25,0.851,2.05c0,0.8-0.283,1.483-0.851,2.05C265.833,119.717,265.15,120,264.35,120z M252.65,120.95
			c1.101,0,2.033,0.383,2.801,1.15c0.767,0.767,1.149,1.7,1.149,2.8s-0.383,2.034-1.149,2.8c-0.768,0.767-1.7,1.15-2.801,1.15
			c-1.1,0-2.033-0.383-2.8-1.15s-1.149-1.7-1.149-2.8s0.383-2.033,1.149-2.8S251.55,120.95,252.65,120.95z"/>
	</g>
</g>
</svg>
