<svg xmlns="http://www.w3.org/2000/svg" xmlns:xlink="http://www.w3.org/1999/xlink">
  <defs/>
  <g>
    <path stroke="none" fill="#484848" d="M87.65 180.95 Q86 177.5 87.4 174 88.75 170.6 92.35 169.15 94.6 168.3 96.9 168.55 98.9 168.95 101 169.8 106.75 172.1 109.9 176.15 113 180.3 111.65 183.7 110.25 187.2 105.2 187.95 100.1 188.8 94.35 186.5 92.25 185.65 90.5 184.55 88.65 183.2 87.65 180.95"/>
    <path stroke="none" fill="#ECECEC" d="M76.9 174.8 L75.8 174.75 Q71.1 174.05 65.1 171.55 52.55 165.8 53.6 161.9 L53.75 161.6 Q57.3 153.9 70.4 158.9 74 160.3 76.45 162.4 78.3 163.75 79.7 165.5 L80.4 166.4 Q80.75 167.95 80.55 169.65 80.45 171.2 79.8 172.75 L78.75 174 Q78 174.5 76.9 174.8"/>
    <path stroke="none" fill="#FFFFFF" d="M57.4 155.55 Q62.85 149 74.15 157.25 77.25 159.55 79.15 162.15 80.55 164 81.45 166 L81.9 166.95 Q81.85 168.65 81.2 170.25 80.7 171.7 79.65 173.05 79.2 173.65 78.3 174 L76.35 174.3 75.3 173.95 Q70.9 172.05 65.8 168.05 55.1 159.3 57.2 155.8 L57.4 155.55"/>
    <path stroke="none" fill="#404040" d="M88.5 157.55 Q96.05 157.55 101.4 162.9 105.2 166.7 106.3 171.65 L99.95 177.85 98.8 179.15 Q98.5 179.65 98.55 180.25 98.8 185.05 95.4 187 92.55 188.55 88.5 188.55 80.95 188.55 75.6 186.75 L73.2 185.8 Q70.25 181.4 70.25 175.8 70.25 168.25 75.6 162.9 80.95 157.55 88.5 157.55"/>
    <path stroke="none" fill="#999999" d="M90.05 171.6 Q90.95 172.5 90.95 173.65 90.95 174.85 90.05 175.65 89.2 176.5 88.05 176.5 86.85 176.5 85.95 175.65 85.15 174.85 85.15 173.65 L85.2 173.2 89.95 171.5 90.05 171.6 M82.85 176.85 Q84.6 176.85 85.8 177.85 L86.9 179.25 86.9 179.7 86.6 180 86.15 180 Q85.9 179.9 85.8 179.7 L85.1 178.75 Q84.15 178 82.85 178 81.55 178 80.65 178.75 80.1 179.15 79.9 179.65 L79.65 179.95 79.2 180.05 78.85 179.75 78.8 179.3 Q79.05 178.45 79.85 177.85 81.15 176.85 82.85 176.85 M79.75 175.65 Q78.9 176.5 77.75 176.5 76.5 176.5 75.65 175.65 74.85 174.85 74.85 173.65 74.85 172.55 75.6 171.65 L80.55 172.95 80.65 173.65 Q80.65 174.85 79.75 175.65"/>
    <path stroke="none" fill="#ECECEC" d="M102.5 174.75 L101.4 174.8 Q100.3 174.5 99.55 174 98.8 173.45 98.5 172.75 97.85 171.2 97.75 169.65 97.55 167.95 97.9 166.4 L98.6 165.5 Q100 163.75 101.85 162.4 104.3 160.3 107.9 158.9 121 153.9 124.55 161.6 L124.7 161.9 Q125.75 165.8 113.2 171.55 107.2 174.05 102.5 174.75"/>
    <path stroke="none" fill="#FFFFFF" d="M121.1 155.8 Q123.2 159.3 112.5 168.05 107.4 172.05 103 173.95 L101.95 174.3 100 174 Q99.1 173.65 98.65 173.05 97.6 171.7 97.1 170.25 96.45 168.65 96.4 166.95 L96.85 166 Q97.75 164 99.15 162.15 101.05 159.55 104.15 157.25 115.45 149 120.9 155.55 L121.1 155.8"/>
    <path stroke="none" fill="#ECECEC" d="M154.05 173.6 L148.9 174.85 Q135.25 177.15 133.95 173.35 L133.9 173 Q133.65 171.4 133.95 169.95 136.5 172.6 147.05 173.55 L154.05 173.6"/>
    <path stroke="none" fill="#FFFFFF" d="M154.05 173.6 L147.05 173.55 Q136.5 172.6 133.95 169.95 133.15 169.15 133.1 168.2 L133.1 167.9 Q133.95 159.45 147.9 159.9 151.45 160.05 154.25 160.95 L154.8 161.15 Q157 161.9 158.85 163.05 L159.8 163.55 Q160.7 164.95 161.05 166.7 161.4 168.05 161.35 169.6 L161.35 169.85 Q161.3 170.6 160.75 171.4 L159.35 172.75 158.25 173.05 154.05 173.6"/>
    <path stroke="none" fill="#484848" d="M189.9 176.15 Q193 180.3 191.65 183.7 190.25 187.2 185.2 187.95 180.1 188.8 174.35 186.5 172.25 185.65 170.5 184.55 168.65 183.2 167.65 180.95 166 177.5 167.4 174 168.75 170.6 172.35 169.15 174.6 168.3 176.9 168.55 L181 169.8 Q186.75 172.1 189.9 176.15"/>
    <path stroke="none" fill="#404040" d="M179.95 177.85 L178.8 179.15 Q178.5 179.65 178.55 180.25 178.8 185.05 175.4 187 172.55 188.55 168.5 188.55 160.95 188.55 155.6 186.75 L153.2 185.8 Q150.25 181.4 150.25 175.8 150.25 168.25 155.6 162.9 160.95 157.55 168.5 157.55 176.05 157.55 181.4 162.9 185.2 166.7 186.3 171.65 L179.95 177.85"/>
    <path stroke="none" fill="#999999" d="M170.05 171.6 Q170.95 172.5 170.95 173.65 170.95 174.85 170.05 175.65 169.2 176.5 168.05 176.5 166.85 176.5 165.95 175.65 165.15 174.85 165.15 173.65 L165.2 173.2 169.95 171.5 170.05 171.6 M160.65 178.75 Q160.1 179.15 159.9 179.65 L159.65 179.95 159.2 180.05 158.85 179.75 158.8 179.3 Q159.05 178.45 159.85 177.85 161.15 176.85 162.85 176.85 164.6 176.85 165.8 177.85 166.6 178.45 166.9 179.25 L166.9 179.7 166.6 180 166.15 180 165.8 179.7 165.1 178.75 Q164.15 178 162.85 178 161.55 178 160.65 178.75 M157.75 176.5 Q156.5 176.5 155.65 175.65 154.85 174.85 154.85 173.65 154.85 172.55 155.6 171.65 L160.55 172.95 160.65 173.65 Q160.65 174.85 159.75 175.65 158.9 176.5 157.75 176.5"/>
    <path stroke="none" fill="#FFFFFF" d="M186.3 174.55 L182.05 174 180.95 173.7 179.55 172.35 Q179 171.55 178.95 170.8 L178.95 170.55 Q178.9 169 179.25 167.65 179.6 165.9 180.5 164.5 L181.45 164 Q183.3 162.85 185.5 162.1 L186.05 161.9 Q188.85 161 192.4 160.85 206.35 160.4 207.2 168.85 L207.2 169.15 Q207.15 170.1 206.4 170.9 203.8 173.55 193.25 174.5 L186.3 174.55"/>
    <path stroke="none" fill="#ECECEC" d="M186.3 174.55 L193.25 174.5 Q203.8 173.55 206.4 170.9 206.65 172.35 206.4 173.95 L206.35 174.3 Q205.05 178.1 191.4 175.8 L186.3 174.55"/>
    <path stroke="none" fill="#ECECEC" d="M220.7 178.65 L220.6 178.4 Q219.8 175.5 229.25 171.2 233.75 169.3 237.25 168.8 L238.1 168.75 Q238.9 168.95 239.45 169.35 240.05 169.75 240.25 170.3 L240.8 172.6 Q240.95 173.9 240.7 175.05 L240.2 175.7 Q239.15 177.05 237.75 178.05 235.9 179.6 233.2 180.65 223.4 184.4 220.7 178.65"/>
    <path stroke="none" fill="#FFFFFF" d="M229.75 173.8 Q233.6 170.8 236.9 169.4 L237.65 169.1 239.15 169.35 Q239.8 169.6 240.15 170.05 240.95 171.05 241.3 172.15 241.8 173.35 241.85 174.65 L241.5 175.35 239.75 178.25 Q238.35 180.2 236 181.9 227.55 188.1 223.45 183.2 L223.3 183 Q221.75 180.35 229.75 173.8"/>
    <path stroke="none" fill="#484848" d="M247.65 160.15 Q248.65 157.9 250.5 156.55 252.25 155.45 254.35 154.6 260.1 152.3 265.2 153.15 270.25 153.9 271.65 157.4 273 160.8 269.9 164.95 266.75 169 261 171.3 L256.9 172.55 Q254.6 172.8 252.35 171.95 248.75 170.5 247.4 167.1 246 163.6 247.65 160.15"/>
    <path stroke="none" fill="#404040" d="M235.6 154.35 Q240.95 152.55 248.5 152.55 252.55 152.55 255.4 154.1 258.8 156.05 258.55 160.85 258.5 161.45 258.8 161.95 L259.95 163.25 266.3 169.45 Q265.2 174.4 261.4 178.2 256.05 183.55 248.5 183.55 240.95 183.55 235.6 178.2 230.25 172.85 230.25 165.3 230.25 159.7 233.2 155.3 L235.6 154.35"/>
    <path stroke="none" fill="#999999" d="M235.75 165.55 Q236.6 164.7 237.75 164.7 239 164.7 239.85 165.55 240.65 166.35 240.65 167.55 240.65 168.65 239.9 169.55 L234.95 168.25 234.85 167.55 Q234.85 166.35 235.75 165.55 M250.9 168 L246.15 169.7 246.05 169.6 Q245.15 168.7 245.15 167.55 245.15 166.35 246.05 165.55 246.9 164.7 248.05 164.7 249.25 164.7 250.15 165.55 250.95 166.35 250.95 167.55 L250.9 168 M246.9 161.5 L246.9 161.95 245.8 163.35 Q244.6 164.35 242.85 164.35 241.15 164.35 239.85 163.35 239.05 162.75 238.8 161.9 238.75 161.65 238.85 161.45 238.95 161.25 239.2 161.15 L239.65 161.25 239.9 161.55 240.65 162.45 Q241.55 163.2 242.85 163.2 244.15 163.2 245.1 162.45 L245.8 161.5 246.15 161.2 246.6 161.2 246.9 161.5"/>
    <path stroke="none" fill="#ECECEC" d="M260.2 168.7 L261.05 168.75 Q264.55 169.3 269.05 171.15 278.45 175.45 277.7 178.4 L277.55 178.6 Q274.9 184.4 265.1 180.65 262.4 179.6 260.55 178 259.15 177 258.1 175.7 L257.6 175 Q257.3 173.85 257.45 172.6 257.55 171.4 258.05 170.25 L258.8 169.3 Q259.4 168.95 260.2 168.7"/>
    <path stroke="none" fill="#FFFFFF" d="M260.6 169.1 L261.4 169.4 Q264.7 170.8 268.55 173.8 276.55 180.35 275 183 L274.85 183.2 Q270.75 188.1 262.25 181.9 259.95 180.2 258.5 178.25 L256.8 175.35 256.45 174.65 Q256.5 173.35 257 172.15 257.35 171.05 258.15 170.05 258.5 169.6 259.15 169.35 L260.6 169.1"/>
    <path stroke="none" fill="#E98AF4" d="M88.75 109.2 Q88.75 109.85 89.2 110.3 89.65 110.75 90.3 110.75 90.95 110.75 91.4 110.3 91.85 109.85 91.85 109.2 91.85 108.55 91.4 108.1 90.95 107.65 90.3 107.65 89.65 107.65 89.2 108.1 88.75 108.55 88.75 109.2 M80.9 106.55 Q80 107.45 80 108.75 80 110.05 80.9 110.95 81.8 111.85 83.1 111.85 84.4 111.85 85.3 110.95 86.2 110.05 86.2 108.75 86.2 107.45 85.3 106.55 84.4 105.65 83.1 105.65 81.8 105.65 80.9 106.55 M93.75 106.8 Q98.6 111.65 99.65 118.1 99.4 122.3 107 126.05 L107 128.55 58.6 128.55 Q57.55 125.4 57.55 121.8 57.55 113 63.75 106.8 69.95 100.6 78.75 100.6 87.55 100.6 93.75 106.8 M90.1 117.05 Q91.05 116.1 91.05 114.75 91.05 113.4 90.1 112.45 89.15 111.5 87.8 111.5 86.45 111.5 85.5 112.45 84.55 113.4 84.55 114.75 84.55 116.1 85.5 117.05 86.45 118 87.8 118 89.15 118 90.1 117.05"/>
    <path stroke="none" fill="#EDA3F5" d="M90.1 117.05 Q89.15 118 87.8 118 86.45 118 85.5 117.05 84.55 116.1 84.55 114.75 84.55 113.4 85.5 112.45 86.45 111.5 87.8 111.5 89.15 111.5 90.1 112.45 91.05 113.4 91.05 114.75 91.05 116.1 90.1 117.05 M80.9 106.55 Q81.8 105.65 83.1 105.65 84.4 105.65 85.3 106.55 86.2 107.45 86.2 108.75 86.2 110.05 85.3 110.95 84.4 111.85 83.1 111.85 81.8 111.85 80.9 110.95 80 110.05 80 108.75 80 107.45 80.9 106.55 M88.75 109.2 Q88.75 108.55 89.2 108.1 89.65 107.65 90.3 107.65 90.95 107.65 91.4 108.1 91.85 108.55 91.85 109.2 91.85 109.85 91.4 110.3 90.95 110.75 90.3 110.75 89.65 110.75 89.2 110.3 88.75 109.85 88.75 109.2"/>
    <path stroke="none" fill="#D244E2" d="M73.1 115.8 L78.35 113.95 78.45 114.05 Q79.45 115.05 79.45 116.3 79.45 117.6 78.45 118.5 77.55 119.45 76.25 119.45 74.95 119.45 73.95 118.5 73.05 117.6 73.05 116.3 L73.1 115.8 M68.1 116.3 Q68.1 117.6 67.1 118.5 66.2 119.45 64.9 119.45 63.55 119.45 62.6 118.5 61.7 117.6 61.7 116.3 61.7 115.1 62.55 114.1 L68 115.55 68.1 116.3 M67.25 120.9 Q68.65 119.85 70.55 119.85 72.45 119.85 73.8 120.9 74.65 121.6 75 122.45 L75 122.95 74.65 123.3 74.15 123.3 73.8 122.95 Q73.55 122.35 73 121.9 71.95 121.1 70.55 121.1 69.1 121.1 68.1 121.9 67.5 122.35 67.3 122.9 L67 123.25 66.5 123.35 66.15 123 66.05 122.5 Q66.35 121.6 67.25 120.9"/>
    <path stroke="none" fill="#E98AF4" d="M161.65 108.45 L161.8 108.55 Q167.1 113 168.7 118.95 168.85 122.8 176.8 126.25 L177 128.55 128.6 128.55 Q127.25 125.65 126.95 122.35 126.15 114.25 131.8 108.55 137.45 102.85 146.25 102.85 154.4 102.85 160.75 107.75 L160.3 107.65 Q159.65 107.65 159.2 108.1 158.75 108.55 158.75 109.2 158.75 109.85 159.2 110.3 159.65 110.75 160.3 110.75 160.95 110.75 161.4 110.3 161.85 109.85 161.85 109.2 L161.65 108.45 M155.5 112.45 Q154.55 113.4 154.55 114.75 154.55 116.1 155.5 117.05 156.45 118 157.8 118 159.15 118 160.1 117.05 161.05 116.1 161.05 114.75 161.05 113.4 160.1 112.45 159.15 111.5 157.8 111.5 156.45 111.5 155.5 112.45 M153.1 105.65 Q151.8 105.65 150.9 106.55 150 107.45 150 108.75 150 110.05 150.9 110.95 151.8 111.85 153.1 111.85 154.4 111.85 155.3 110.95 156.2 110.05 156.2 108.75 156.2 107.45 155.3 106.55 154.4 105.65 153.1 105.65"/>
    <path stroke="none" fill="#EDA3F5" d="M153.1 105.65 Q154.4 105.65 155.3 106.55 156.2 107.45 156.2 108.75 156.2 110.05 155.3 110.95 154.4 111.85 153.1 111.85 151.8 111.85 150.9 110.95 150 110.05 150 108.75 150 107.45 150.9 106.55 151.8 105.65 153.1 105.65 M160.75 107.75 L161.65 108.45 161.85 109.2 Q161.85 109.85 161.4 110.3 160.95 110.75 160.3 110.75 159.65 110.75 159.2 110.3 158.75 109.85 158.75 109.2 158.75 108.55 159.2 108.1 159.65 107.65 160.3 107.65 L160.75 107.75 M155.5 112.45 Q156.45 111.5 157.8 111.5 159.15 111.5 160.1 112.45 161.05 113.4 161.05 114.75 161.05 116.1 160.1 117.05 159.15 118 157.8 118 156.45 118 155.5 117.05 154.55 116.1 154.55 114.75 154.55 113.4 155.5 112.45"/>
    <path stroke="none" fill="#D244E2" d="M132.55 115.1 L138 116.55 138.1 117.3 Q138.1 118.6 137.1 119.5 136.2 120.45 134.9 120.45 133.55 120.45 132.6 119.5 131.7 118.6 131.7 117.3 131.7 116.1 132.55 115.1 M146.25 120.45 Q144.95 120.45 143.95 119.5 143.05 118.6 143.05 117.3 L143.1 116.8 148.35 114.95 148.45 115.05 Q149.45 116.05 149.45 117.3 149.45 118.6 148.45 119.5 147.55 120.45 146.25 120.45 M140.55 122.1 Q139.1 122.1 138.1 122.9 137.5 123.35 137.3 123.9 L137 124.25 136.5 124.35 136.15 124 136.05 123.5 Q136.35 122.6 137.25 121.9 138.65 120.85 140.55 120.85 142.45 120.85 143.8 121.9 144.65 122.6 145 123.45 L145 123.95 144.65 124.3 144.15 124.3 143.8 123.95 143 122.9 Q141.95 122.1 140.55 122.1"/>
    <path stroke="none" fill="#E98AF4" d="M234.8 117.65 L239 118.9 239.85 119.2 240 119.25 Q245 121.3 246.25 124.1 246.2 125.85 253.95 127.5 L254 128.55 196.2 128.55 196.2 128.2 Q199.05 127.5 199.85 126.25 200.85 124.6 202.2 123.15 203.55 121.7 209.75 119.15 215.95 116.6 224.75 116.6 L228.65 116.75 228.65 116.9 Q228.65 118.2 229.55 119.1 230.45 120 231.75 120 233.05 120 233.95 119.1 L234.8 117.65 M234.15 120.6 Q233.2 121.55 233.2 122.9 233.2 124.25 234.15 125.2 235.1 126.15 236.45 126.15 237.8 126.15 238.75 125.2 239.7 124.25 239.7 122.9 239.7 121.55 238.75 120.6 237.8 119.65 236.45 119.65 235.1 119.65 234.15 120.6"/>
    <path stroke="none" fill="#EDA3F5" d="M234.15 120.6 Q235.1 119.65 236.45 119.65 237.8 119.65 238.75 120.6 239.7 121.55 239.7 122.9 239.7 124.25 238.75 125.2 237.8 126.15 236.45 126.15 235.1 126.15 234.15 125.2 233.2 124.25 233.2 122.9 233.2 121.55 234.15 120.6 M228.65 116.75 L234.8 117.65 233.95 119.1 Q233.05 120 231.75 120 230.45 120 229.55 119.1 228.65 118.2 228.65 116.9 L228.65 116.75"/>
    <path stroke="none" fill="#D244E2" d="M208.75 123.2 L214.2 122.35 Q215.05 122.95 215.05 123.7 215.05 124.45 214.15 125 213.2 125.6 211.85 125.6 210.55 125.6 209.65 125 208.65 124.45 208.65 123.7 L208.75 123.2 M214.2 125.6 Q215.6 125 217.5 125 219.4 125 220.75 125.6 221.6 126.05 221.95 126.55 L221.95 126.85 221.6 127.05 221.1 127.05 220.75 126.85 219.95 126.2 217.5 125.75 215.05 126.2 214.25 126.85 213.95 127.05 213.45 127.1 213.1 126.9 213 126.6 Q213.3 126.05 214.2 125.6 M221 122.3 L221.1 122.25 226.35 123.4 226.4 123.7 Q226.4 124.45 225.5 125 224.5 125.6 223.2 125.6 221.9 125.6 221 125 220 124.45 220 123.7 220 122.9 221 122.3"/>
    <path stroke="none" fill="#80BE1F" d="M95.7 219.95 Q100.7 222.25 104.75 225.85 106.6 229.35 104.75 232.85 96.65 241.6 83.25 243.45 L81.7 243.6 69.55 243.6 68.35 243.6 Q62.9 243.6 59.1 239.5 55.25 235.4 55.25 229.6 55.25 223.8 59.1 219.7 62.9 215.6 68.35 215.6 L69.3 215.6 77.7 215.6 Q87.9 216.25 95.7 219.95"/>
    <path stroke="none" fill="#8BCB27" d="M95.7 219.95 Q87.9 216.25 77.7 215.6 L69.3 215.6 Q69.15 212.25 67.6 209.15 L68.95 207.05 88.45 211.6 Q94.45 212.9 95.7 217.6 L95.7 219.95 M104.75 225.85 L115.9 220.45 Q120.3 218.35 120.35 220.85 117.5 229.75 118.25 240.1 L104.75 232.85 Q106.6 229.35 104.75 225.85 M83.25 243.45 L84 245.1 Q76.2 245.85 72.5 247.85 69.6 246.2 69.55 243.6 L81.7 243.6 83.25 243.45"/>
    <path stroke="none" fill="#5F8C19" d="M59.45 225.9 L66.4 223.4 66.55 223.55 Q67.9 224.85 67.9 226.55 67.9 228.3 66.55 229.5 65.3 230.7 63.65 230.7 61.85 230.7 60.55 229.5 59.4 228.3 59.4 226.55 L59.45 225.9 M60.35 232.7 Q61.5 233.6 61.95 234.75 L61.95 235.4 61.5 235.85 60.85 235.85 60.35 235.4 59.3 234.05 Q57.9 232.9 56 232.9 L55.5 232.95 55.25 231.25 56 231.25 Q58.55 231.25 60.35 232.7"/>
    <path stroke="none" fill="#8BCB27" d="M73.9 232.1 L85 230.85 91.65 235.5 78.15 238 73.9 232.1"/>
    <path stroke="none" fill="#80BE1F" d="M184.7 225.85 Q186.2 229.85 184.7 232.85 L184.45 233.2 Q176.4 241.65 163.25 243.45 L161.7 243.6 149.55 243.6 148.35 243.6 Q142.9 243.6 139.1 239.5 135.25 235.4 135.25 229.6 135.25 223.8 139.1 219.7 142.9 215.6 148.35 215.6 L149.3 215.6 157.7 215.6 Q167.9 216.25 175.7 219.95 180.5 222.15 184.45 225.6 L184.7 225.85"/>
    <path stroke="none" fill="#8BCB27" d="M184.7 225.85 L192.85 219.75 Q196.05 217.35 196.1 219.85 194 228.95 194.55 239.25 L184.7 232.85 Q186.2 229.85 184.7 225.85 M163.25 243.45 L164 245.1 Q158.75 246.3 156.25 249.1 149.6 246.2 149.55 243.6 L161.7 243.6 163.25 243.45 M149.3 215.6 Q149.15 212.25 147.6 209.15 L148.95 207.05 168.45 211.6 Q174.45 212.9 175.7 217.6 L175.7 219.95 Q167.9 216.25 157.7 215.6 L149.3 215.6"/>
    <path stroke="none" fill="#5F8C19" d="M139.45 225.9 L146.4 223.4 146.55 223.55 Q147.9 224.85 147.9 226.55 147.9 228.3 146.55 229.5 145.3 230.7 143.65 230.7 141.85 230.7 140.55 229.5 139.4 228.3 139.4 226.55 L139.45 225.9 M140.35 232.7 Q141.5 233.6 141.95 234.75 L141.95 235.4 141.5 235.85 140.85 235.85 140.35 235.4 Q140.05 234.6 139.3 234.05 137.9 232.9 136 232.9 L135.5 232.95 135.25 231.25 136 231.25 Q138.55 231.25 140.35 232.7"/>
    <path stroke="none" fill="#8BCB27" d="M154 231.8 L164.95 230.85 172.1 234.3 158.85 236.1 154 231.8"/>
    <path stroke="none" fill="#80BE1F" d="M229.55 211.3 L241.7 211.3 243.25 211.45 Q256.6 213.3 264.7 222 266.65 224.55 264.7 229.1 260.65 232.65 255.7 234.95 247.9 238.65 237.7 239.3 L229.3 239.3 228.35 239.3 Q222.9 239.3 219.1 235.2 215.25 231.1 215.25 225.3 215.25 219.5 219.1 215.4 222.9 211.3 228.35 211.3 L229.55 211.3"/>
    <path stroke="none" fill="#8BCB27" d="M229.55 211.3 Q229.6 208.7 232.5 207.05 236.2 209.05 244 209.8 L243.25 211.45 241.7 211.3 229.55 211.3 M264.7 222 L264.75 222.05 278.25 214.8 Q277.5 225.15 280.35 234.05 280.3 236.55 275.9 234.45 L264.75 229.05 264.7 229.1 Q266.65 224.55 264.7 222 M255.7 234.95 L255.7 237.3 Q254.45 242 248.45 243.3 L228.95 247.85 227.6 245.75 Q229.15 242.65 229.3 239.3 L237.7 239.3 Q247.9 238.65 255.7 234.95"/>
    <path stroke="none" fill="#5F8C19" d="M216 223.65 L215.25 223.65 215.5 221.95 216 222 Q217.9 222 219.3 220.85 L220.35 219.5 220.85 219.05 Q221.15 218.9 221.5 219.05 L221.95 219.5 221.95 220.15 Q221.5 221.3 220.35 222.2 218.55 223.65 216 223.65 M220.75 225.4 Q222 224.2 223.65 224.2 225.45 224.2 226.75 225.4 227.9 226.6 227.9 228.35 L227.85 229 220.9 231.5 220.75 231.35 Q219.4 230.05 219.4 228.35 219.4 226.6 220.75 225.4"/>
    <path stroke="none" fill="#8BCB27" d="M238.15 216.9 L251.65 219.4 245 224.05 233.9 222.8 238.15 216.9"/>
    <path stroke="none" fill="#FFCC00" d="M136.7 297.5 L136.7 297.45 Q136.7 293.9 140 291.35 143.3 288.9 148 288.9 L166.2 288.9 Q177.15 289.55 188.7 296.85 190.65 298.45 188.7 299.3 L136.95 299.3 Q136.7 298.45 136.7 297.5"/>
    <path stroke="none" fill="#FFCC00" d="M145.95 292.85 L143.05 293.75 Q140.7 286 133.7 279.55 L135.75 277.35 Q143.35 284.45 145.95 292.85 M141.5 275.2 L144.25 273.95 Q148.6 283.6 150.6 292.35 L147.65 293 Q145.75 284.6 141.5 275.2"/>
    <path stroke="none" fill="#D2A800" d="M147.4 295.2 Q146.55 296 145.45 296 144.3 296 143.4 295.2 142.65 294.4 142.65 293.25 L142.7 292.8 147.3 291.15 147.4 291.25 Q148.3 292.1 148.3 293.25 148.3 294.4 147.4 295.2"/>
    <path stroke="none" fill="#E98AF4" d="M164.8 296.6 Q160.95 295.4 157.95 293.55 L155.95 292.15 Q152 289.1 151.85 286 L151.85 285.75 151.9 285.05 152.1 283.8 Q153.65 276.2 160.1 271.95 166.6 267.8 174.2 269.35 181.75 270.9 185.95 277.35 190.2 283.8 188.65 291.4 L188.4 292.65 188.15 293.25 188.05 293.5 Q186.65 296.3 181.8 297.55 L179.4 297.95 Q175.15 298.65 170.15 297.85 L161.4 288.2 166.8 280.35 176.55 280.9 178.7 286.45 175.3 288.95 170.95 285.1 167.6 287.95 175.15 292.85 182.8 287.75 178.65 278 164.4 276 157.2 288.65 164.8 296.6"/>
    <path stroke="none" fill="#EDA3F5" d="M164.8 296.6 L157.2 288.65 164.4 276 178.65 278 182.8 287.75 175.15 292.85 167.6 287.95 170.95 285.1 175.3 288.95 178.7 286.45 176.55 280.9 166.8 280.35 161.4 288.2 170.15 297.85 168.35 297.5 167.8 297.4 164.8 296.6"/>
    <path stroke="none" fill="#E98AF4" d="M229.2 298.5 L220.8 297.3 218.3 296.6 Q213.5 295.25 212.6 293.45 L212.45 292.95 Q212.3 292.9 212.4 292.65 L212.25 291.8 212.25 290.4 Q212.6 281.4 219.15 275.35 225.8 269.4 234.75 269.6 243.7 269.95 249.7 276.55 255.85 283.05 255.45 292.05 L255.45 293.45 255.45 293.55 255.3 293.9 255.25 294.05 Q254.2 296.05 248.85 297.3 L246.1 297.85 235.65 298.75 223.7 293.6 223.8 293.45 228.4 283.65 239.65 282.35 243.25 288.4 239.75 291.8 234 288.25 230.8 292.15 233.85 293.45 240.3 295.05 243.4 293.45 248.1 289.05 241.55 278.7 224.8 279.15 219.6 293.45 219.05 294.35 229.2 298.5"/>
    <path stroke="none" fill="#EDA3F5" d="M229.2 298.5 L219.05 294.35 219.6 293.45 224.8 279.15 241.55 278.7 248.1 289.05 243.4 293.45 240.3 295.05 233.85 293.45 230.8 292.15 234 288.25 239.75 291.8 243.25 288.4 239.65 282.35 228.4 283.65 223.8 293.45 223.7 293.6 235.65 298.75 233.45 298.7 232.75 298.7 229.2 298.5"/>
    <path stroke="none" fill="#EDA3F5" d="M298.65 269.65 L286.7 274.8 286.8 274.95 291.4 284.75 302.65 286.05 306.25 280 302.75 276.6 297 280.15 293.8 276.25 296.85 274.95 303.3 273.35 306.4 274.95 311.1 279.35 304.55 289.7 287.8 289.25 282.6 274.95 282.05 274.05 292.2 269.9 295.75 269.7 296.45 269.7 298.65 269.65"/>
    <path stroke="none" fill="#E98AF4" d="M298.65 269.65 L309.1 270.55 311.85 271.1 Q317.2 272.35 318.25 274.35 L318.3 274.5 318.45 274.85 318.45 274.95 318.45 276.35 Q318.85 285.35 312.7 291.85 306.7 298.45 297.75 298.8 288.8 299 282.15 293.05 275.6 287 275.25 278 L275.25 276.6 275.4 275.75 Q275.3 275.5 275.45 275.45 L275.6 274.95 Q276.5 273.15 281.3 271.8 L283.8 271.1 Q287.65 270.25 292.2 269.9 L282.05 274.05 282.6 274.95 287.8 289.25 304.55 289.7 311.1 279.35 306.4 274.95 303.3 273.35 296.85 274.95 293.8 276.25 297 280.15 302.75 276.6 306.25 280 302.65 286.05 291.4 284.75 286.8 274.95 286.7 274.8 298.65 269.65"/>
    <path stroke="none" fill="#FFCC00" d="M63.6 289.65 Q66.65 286.65 71 286.65 L87.9 286.65 Q98.05 287.45 108.75 296.3 110.55 298.25 108.75 299.3 L60.75 299.3 60.55 297.1 60.55 297.05 Q60.55 292.75 63.6 289.65"/>
    <path stroke="none" fill="#FFCC00" d="M64.65 274.3 L67.5 273.4 Q70.6 283.55 71.45 292.45 L68.45 292.75 Q67.6 284.15 64.65 274.3 M56.35 277.55 L58.65 275.65 Q65.3 283.7 66.75 292.35 L63.8 292.85 Q62.4 284.9 56.35 277.55"/>
    <path stroke="none" fill="#D2A800" d="M69.4 295.2 Q68.55 296 67.45 296 66.3 296 65.4 295.2 64.65 294.4 64.65 293.25 L64.7 292.8 69.3 291.15 69.4 291.25 Q70.3 292.1 70.3 293.25 70.3 294.4 69.4 295.2"/>
    <path stroke="none" fill="#E98AF4" d="M84.8 296.6 Q80.95 295.4 77.95 293.55 L75.95 292.15 Q72 289.1 71.85 286 L71.85 285.75 71.9 285.05 72.1 283.8 Q73.65 276.2 80.1 271.95 86.6 267.8 94.2 269.35 101.75 270.9 105.95 277.35 110.2 283.8 108.65 291.4 L108.4 292.65 108.15 293.25 108.05 293.5 Q106.65 296.3 101.8 297.55 L99.4 297.95 Q95.15 298.65 90.15 297.85 L81.4 288.2 86.8 280.35 96.55 280.9 98.7 286.45 95.3 288.95 90.95 285.1 87.6 287.95 95.15 292.85 102.8 287.75 98.65 278 84.4 276 77.2 288.65 84.8 296.6"/>
    <path stroke="none" fill="#EDA3F5" d="M84.8 296.6 L77.2 288.65 84.4 276 98.65 278 102.8 287.75 95.15 292.85 87.6 287.95 90.95 285.1 95.3 288.95 98.7 286.45 96.55 280.9 86.8 280.35 81.4 288.2 90.15 297.85 88.35 297.5 87.8 297.4 84.8 296.6"/>
    <path stroke="none" fill="#F77C2B" d="M420.8 178.05 L420.8 176.55 Q420.8 174.8 421.05 173.1 422.1 165.5 427.85 159.8 434.9 152.85 444.8 152.85 L444.85 152.85 Q454.75 152.85 461.8 159.8 L463.1 161.2 Q468.8 167.7 468.8 176.55 L468.8 178.05 Q468.6 168.55 461.8 161.8 L461.65 161.65 Q454.6 154.85 444.85 154.85 L444.8 154.85 Q434.9 154.85 427.85 161.8 422.9 166.7 421.45 173 420.85 175.4 420.8 178.05"/>
    <path stroke="none" fill="#E86A17" d="M420.8 178.05 Q420.85 175.4 421.45 173 422.9 166.7 427.85 161.8 434.9 154.85 444.8 154.85 L444.85 154.85 Q454.6 154.85 461.65 161.65 L461.8 161.8 Q468.6 168.55 468.8 178.05 L468.8 298.85 420.8 298.85 420.8 178.05"/>
    <path stroke="none" fill="#AF4E0E" d="M449.55 182.85 L449.75 182.65 458.55 185.8 458.6 186.65 Q458.6 188.85 457.15 190.35 455.45 191.9 453.25 191.9 451.1 191.9 449.55 190.35 447.9 188.85 447.9 186.65 447.9 184.5 449.55 182.85 M443.6 194.7 Q441.2 194.7 439.55 196.1 438.5 196.8 438.15 197.75 L437.7 198.3 436.85 198.5 436.2 197.95 Q436 197.55 436.1 197.1 436.6 195.5 438.05 194.4 440.45 192.55 443.6 192.55 446.85 192.55 449.1 194.4 450.55 195.5 451.1 197 451.3 197.35 451.1 197.85 L450.55 198.4 Q450.1 198.6 449.75 198.4 L449.1 197.85 Q448.7 196.8 447.8 196.1 446 194.7 443.6 194.7 M434.15 191.9 Q432 191.9 430.45 190.35 428.75 188.85 428.75 186.65 L428.95 185.35 438.1 182.9 Q439.5 184.6 439.5 186.65 439.5 188.85 438 190.35 436.45 191.9 434.15 191.9"/>
    <path stroke="none" fill="#8BCB27" d="M495.8 261.3 L495.8 258.65 Q495.8 248.65 505.8 248.65 L536.55 248.65 Q540.05 248.65 542.3 249.85 546.55 252.15 546.55 258.65 L546.55 261.15 Q546.4 255 542.3 252.85 540.05 251.65 536.55 251.65 L505.8 251.65 Q496 251.65 495.8 261.3"/>
    <path stroke="none" fill="#80BE1F" d="M495.8 261.3 Q496 251.65 505.8 251.65 L536.55 251.65 Q540.05 251.65 542.3 252.85 546.4 255 546.55 261.15 L546.55 289.8 Q546.45 296 542.3 298.2 540.05 299.4 536.55 299.4 L505.8 299.4 Q496 299.4 495.8 289.8 L495.8 261.3"/>
    <path stroke="none" fill="#8BCB27" d="M495.8 191.3 L495.8 188.65 Q495.8 178.65 505.8 178.65 L536.55 178.65 Q540.05 178.65 542.3 179.85 546.55 182.15 546.55 188.65 L546.55 191.15 Q546.4 185 542.3 182.85 540.05 181.65 536.55 181.65 L505.8 181.65 Q496 181.65 495.8 191.3"/>
    <path stroke="none" fill="#80BE1F" d="M495.8 191.3 Q496 181.65 505.8 181.65 L536.55 181.65 Q540.05 181.65 542.3 182.85 546.4 185 546.55 191.15 L546.55 219.8 Q546.45 226 542.3 228.2 540.05 229.4 536.55 229.4 L505.8 229.4 Q496 229.4 495.8 219.8 L495.8 191.3"/>
    <path stroke="none" fill="#5F8C19" d="M526.1 209.4 Q527.55 210.5 528.1 212 528.3 212.35 528.1 212.85 L527.55 213.4 Q527.1 213.6 526.75 213.4 L526.1 212.85 Q525.7 211.8 524.8 211.1 523 209.7 520.6 209.7 518.2 209.7 516.55 211.1 515.5 211.8 515.15 212.75 L514.7 213.3 513.85 213.5 513.2 212.95 Q513 212.55 513.1 212.1 513.6 210.5 515.05 209.4 517.45 207.55 520.6 207.55 523.85 207.55 526.1 209.4 M515 205.35 Q513.45 206.9 511.15 206.9 509 206.9 507.45 205.35 505.75 203.85 505.75 201.65 L505.95 200.35 515.1 197.9 Q516.5 199.6 516.5 201.65 516.5 203.85 515 205.35 M524.9 201.65 Q524.9 199.5 526.55 197.85 L526.75 197.65 535.55 200.8 535.6 201.65 Q535.6 203.85 534.15 205.35 532.45 206.9 530.25 206.9 528.1 206.9 526.55 205.35 524.9 203.85 524.9 201.65"/>
    <path stroke="none" fill="#8BCB27" d="M495.8 121.3 L495.8 118.65 Q495.8 108.65 505.8 108.65 L536.55 108.65 Q540.05 108.65 542.3 109.85 546.55 112.15 546.55 118.65 L546.55 121.15 Q546.4 115 542.3 112.85 540.05 111.65 536.55 111.65 L505.8 111.65 Q496 111.65 495.8 121.3"/>
    <path stroke="none" fill="#80BE1F" d="M495.8 121.3 Q496 111.65 505.8 111.65 L536.55 111.65 Q540.05 111.65 542.3 112.85 546.4 115 546.55 121.15 L546.55 149.8 Q546.45 156 542.3 158.2 540.05 159.4 536.55 159.4 L505.8 159.4 Q496 159.4 495.8 149.8 L495.8 121.3"/>
    <path stroke="none" fill="#5F8C19" d="M507.2 127.9 L516.35 130.35 516.55 131.65 Q516.55 133.85 514.85 135.35 513.3 136.9 511.15 136.9 508.85 136.9 507.3 135.35 505.8 133.85 505.8 131.65 505.8 129.6 507.2 127.9 M533.95 127.85 Q535.6 129.5 535.6 131.65 535.6 133.85 533.95 135.35 532.4 136.9 530.25 136.9 528.05 136.9 526.35 135.35 524.9 133.85 524.9 131.65 L524.95 130.8 533.75 127.65 533.95 127.85 M520.6 139.7 Q518.2 139.7 516.55 141.1 515.5 141.8 515.15 142.75 L514.7 143.3 513.85 143.5 513.2 142.95 Q513 142.55 513.1 142.1 513.6 140.5 515.05 139.4 517.45 137.55 520.6 137.55 523.85 137.55 526.1 139.4 527.55 140.5 528.1 142 528.3 142.35 528.1 142.85 L527.55 143.4 Q527.1 143.6 526.75 143.4 L526.1 142.85 Q525.7 141.8 524.8 141.1 523 139.7 520.6 139.7"/>
    <path stroke="none" fill="#F0711C" d="M460.3 174.85 Q459.3 175.85 457.9 175.85 456.5 175.85 455.5 174.85 454.5 173.85 454.5 172.45 454.5 171.05 455.5 170.05 456.5 169.05 457.9 169.05 459.3 169.05 460.3 170.05 461.3 171.05 461.3 172.45 461.3 173.85 460.3 174.85 M450.6 170.4 Q450.6 172.1 449.4 173.25 448.25 174.45 446.55 174.45 444.85 174.45 443.65 173.25 442.5 172.1 442.5 170.4 442.5 168.7 443.65 167.5 444.85 166.35 446.55 166.35 448.25 166.35 449.4 167.5 450.6 168.7 450.6 170.4 M451.7 178.2 Q452.15 178.65 452.15 179.25 L451.7 180.25 Q451.3 180.7 450.7 180.7 450.1 180.7 449.65 180.25 449.25 179.85 449.25 179.25 449.25 178.65 449.65 178.2 450.1 177.8 450.7 177.8 L451.7 178.2 M430.15 220 Q430.15 221.1 429.35 221.9 428.55 222.7 427.45 222.7 426.35 222.7 425.55 221.9 424.75 221.1 424.75 220 424.75 218.9 425.55 218.1 426.35 217.3 427.45 217.3 428.55 217.3 429.35 218.1 430.15 218.9 430.15 220 M433 224.95 Q433 223.45 434.05 222.35 435.15 221.3 436.65 221.3 438.15 221.3 439.2 222.35 440.3 223.45 440.3 224.95 440.3 226.45 439.2 227.5 438.15 228.6 436.65 228.6 435.15 228.6 434.05 227.5 433 226.45 433 224.95 M432.65 231.55 Q434.05 231.55 435.05 232.55 436.05 233.55 436.05 234.95 436.05 236.35 435.05 237.35 434.05 238.35 432.65 238.35 431.25 238.35 430.25 237.35 429.25 236.35 429.25 234.95 429.25 233.55 430.25 232.55 431.25 231.55 432.65 231.55 M461.85 263.4 Q460.45 264.85 458.4 264.85 456.35 264.85 454.9 263.4 453.5 262 453.5 259.95 453.5 257.9 454.9 256.45 456.35 255.05 458.4 255.05 460.45 255.05 461.85 256.45 463.3 257.9 463.3 259.95 463.3 262 461.85 263.4 M454.2 266.85 Q455.3 267.95 455.3 269.45 455.3 270.95 454.2 272 453.15 273.1 451.65 273.1 450.15 273.1 449.05 272 448 270.95 448 269.45 448 267.95 449.05 266.85 450.15 265.8 451.65 265.8 453.15 265.8 454.2 266.85 M451.4 279.2 Q452.55 278.05 454.15 278.05 455.75 278.05 456.9 279.2 458.05 280.35 458.05 281.95 458.05 283.55 456.9 284.7 455.75 285.85 454.15 285.85 452.55 285.85 451.4 284.7 450.25 283.55 450.25 281.95 450.25 280.35 451.4 279.2"/>
    <path stroke="none" fill="#82C41B" d="M511.95 122.55 Q510.8 123.75 509.1 123.75 507.4 123.75 506.2 122.55 505.05 121.4 505.05 119.7 505.05 118 506.2 116.8 507.4 115.65 509.1 115.65 510.8 115.65 511.95 116.8 513.15 118 513.15 119.7 513.15 121.4 511.95 122.55 M514.2 127.05 Q513.8 126.65 513.8 126.05 513.8 125.45 514.2 125 514.65 124.6 515.25 124.6 515.85 124.6 516.25 125 516.7 125.45 516.7 126.05 L516.25 127.05 Q515.85 127.5 515.25 127.5 514.65 127.5 514.2 127.05 M524.85 119.35 Q525.85 120.35 525.85 121.75 525.85 123.15 524.85 124.15 523.85 125.15 522.45 125.15 521.05 125.15 520.05 124.15 519.05 123.15 519.05 121.75 519.05 120.35 520.05 119.35 521.05 118.35 522.45 118.35 523.85 118.35 524.85 119.35 M539.5 145.65 Q540.6 146.75 540.6 148.25 540.6 149.75 539.5 150.8 538.45 151.9 536.95 151.9 535.45 151.9 534.35 150.8 533.3 149.75 533.3 148.25 533.3 146.75 534.35 145.65 535.45 144.6 536.95 144.6 538.45 144.6 539.5 145.65 M527.85 152.95 Q527.05 152.15 527.05 151.05 527.05 149.95 527.85 149.15 528.65 148.35 529.75 148.35 530.85 148.35 531.65 149.15 532.45 149.95 532.45 151.05 532.45 152.15 531.65 152.95 530.85 153.75 529.75 153.75 528.65 153.75 527.85 152.95"/>
    <path stroke="none" fill="#82C41B" d="M524.85 189.35 Q525.85 190.35 525.85 191.75 525.85 193.15 524.85 194.15 523.85 195.15 522.45 195.15 521.05 195.15 520.05 194.15 519.05 193.15 519.05 191.75 519.05 190.35 520.05 189.35 521.05 188.35 522.45 188.35 523.85 188.35 524.85 189.35 M513.15 189.7 Q513.15 191.4 511.95 192.55 510.8 193.75 509.1 193.75 507.4 193.75 506.2 192.55 505.05 191.4 505.05 189.7 505.05 188 506.2 186.8 507.4 185.65 509.1 185.65 510.8 185.65 511.95 186.8 513.15 188 513.15 189.7 M514.2 195 Q514.65 194.6 515.25 194.6 515.85 194.6 516.25 195 516.7 195.45 516.7 196.05 L516.25 197.05 Q515.85 197.5 515.25 197.5 514.65 197.5 514.2 197.05 513.8 196.65 513.8 196.05 513.8 195.45 514.2 195 M532.45 221.05 Q532.45 222.15 531.65 222.95 530.85 223.75 529.75 223.75 528.65 223.75 527.85 222.95 527.05 222.15 527.05 221.05 527.05 219.95 527.85 219.15 528.65 218.35 529.75 218.35 530.85 218.35 531.65 219.15 532.45 219.95 532.45 221.05 M536.95 221.9 Q535.45 221.9 534.35 220.8 533.3 219.75 533.3 218.25 533.3 216.75 534.35 215.65 535.45 214.6 536.95 214.6 538.45 214.6 539.5 215.65 540.6 216.75 540.6 218.25 540.6 219.75 539.5 220.8 538.45 221.9 536.95 221.9"/>
    <path stroke="none" fill="#82C41B" d="M538.6 255.25 Q539.6 256.25 539.6 257.65 539.6 259.05 538.6 260.05 537.6 261.05 536.2 261.05 534.8 261.05 533.8 260.05 532.8 259.05 532.8 257.65 532.8 256.25 533.8 255.25 534.8 254.25 536.2 254.25 537.6 254.25 538.6 255.25 M507.5 274.6 Q508.6 274.6 509.4 275.4 510.2 276.2 510.2 277.3 510.2 278.4 509.4 279.2 508.6 280 507.5 280 506.4 280 505.6 279.2 504.8 278.4 504.8 277.3 504.8 276.2 505.6 275.4 506.4 274.6 507.5 274.6 M517.3 272.45 Q517.3 270.75 518.45 269.55 519.65 268.4 521.35 268.4 523.05 268.4 524.2 269.55 525.4 270.75 525.4 272.45 525.4 274.15 524.2 275.3 523.05 276.5 521.35 276.5 519.65 276.5 518.45 275.3 517.3 274.15 517.3 272.45 M518.35 293.3 Q517.3 292.25 517.3 290.75 517.3 289.25 518.35 288.15 519.45 287.1 520.95 287.1 522.45 287.1 523.5 288.15 524.6 289.25 524.6 290.75 524.6 292.25 523.5 293.3 522.45 294.4 520.95 294.4 519.45 294.4 518.35 293.3"/>
    <path stroke="none" fill="#F77C2B" d="M398.8 178.05 Q398.6 168.55 391.8 161.8 L391.65 161.65 Q384.6 154.85 374.85 154.85 L374.8 154.85 Q364.9 154.85 357.85 161.8 352.9 166.7 351.45 173 350.85 175.4 350.8 178.05 L350.8 176.55 Q350.8 174.8 351.05 173.1 352.1 165.5 357.85 159.8 364.9 152.85 374.8 152.85 L374.85 152.85 Q384.75 152.85 391.8 159.8 L393.1 161.2 Q398.8 167.7 398.8 176.55 L398.8 178.05"/>
    <path stroke="none" fill="#E86A17" d="M398.8 178.05 L398.8 298.85 350.8 298.85 350.8 178.05 Q350.85 175.4 351.45 173 352.9 166.7 357.85 161.8 364.9 154.85 374.8 154.85 L374.85 154.85 Q384.6 154.85 391.65 161.65 L391.8 161.8 Q398.6 168.55 398.8 178.05"/>
    <path stroke="none" fill="#AF4E0E" d="M386.95 182.85 Q388.6 184.5 388.6 186.65 388.6 188.85 386.95 190.35 385.4 191.9 383.25 191.9 381.05 191.9 379.35 190.35 377.9 188.85 377.9 186.65 L377.95 185.8 386.75 182.65 386.95 182.85 M369.55 196.1 Q368.5 196.8 368.15 197.75 L367.7 198.3 366.85 198.5 366.2 197.95 Q366 197.55 366.1 197.1 366.6 195.5 368.05 194.4 370.45 192.55 373.6 192.55 376.85 192.55 379.1 194.4 380.55 195.5 381.1 197 381.3 197.35 381.1 197.85 L380.55 198.4 Q380.1 198.6 379.75 198.4 L379.1 197.85 Q378.7 196.8 377.8 196.1 376 194.7 373.6 194.7 371.2 194.7 369.55 196.1 M369.55 186.65 Q369.55 188.85 367.85 190.35 366.3 191.9 364.15 191.9 361.85 191.9 360.3 190.35 358.8 188.85 358.8 186.65 358.8 184.6 360.2 182.9 L369.35 185.35 369.55 186.65"/>
    <path stroke="none" fill="#F0711C" d="M391.3 172.45 Q391.3 173.85 390.3 174.85 389.3 175.85 387.9 175.85 386.5 175.85 385.5 174.85 384.5 173.85 384.5 172.45 384.5 171.05 385.5 170.05 386.5 169.05 387.9 169.05 389.3 169.05 390.3 170.05 391.3 171.05 391.3 172.45 M380.6 170.4 Q380.6 172.1 379.4 173.25 378.25 174.45 376.55 174.45 374.85 174.45 373.65 173.25 372.5 172.1 372.5 170.4 372.5 168.7 373.65 167.5 374.85 166.35 376.55 166.35 378.25 166.35 379.4 167.5 380.6 168.7 380.6 170.4 M381.7 178.2 Q382.15 178.65 382.15 179.25 382.15 179.85 381.7 180.25 381.3 180.7 380.7 180.7 380.1 180.7 379.65 180.25 379.25 179.85 379.25 179.25 379.25 178.65 379.65 178.2 380.1 177.8 380.7 177.8 381.3 177.8 381.7 178.2 M354.75 220 Q354.75 218.9 355.55 218.1 356.35 217.3 357.45 217.3 358.55 217.3 359.35 218.1 360.15 218.9 360.15 220 360.15 221.1 359.35 221.9 358.55 222.7 357.45 222.7 356.35 222.7 355.55 221.9 354.75 221.1 354.75 220 M364.05 227.5 Q363 226.45 363 224.95 363 223.45 364.05 222.35 365.15 221.3 366.65 221.3 368.15 221.3 369.2 222.35 370.3 223.45 370.3 224.95 370.3 226.45 369.2 227.5 368.15 228.6 366.65 228.6 365.15 228.6 364.05 227.5 M362.65 231.55 Q364.05 231.55 365.05 232.55 366.05 233.55 366.05 234.95 366.05 236.35 365.05 237.35 364.05 238.35 362.65 238.35 361.25 238.35 360.25 237.35 359.25 236.35 359.25 234.95 359.25 233.55 360.25 232.55 361.25 231.55 362.65 231.55 M388.4 255.05 Q390.45 255.05 391.85 256.45 393.3 257.9 393.3 259.95 393.3 262 391.85 263.4 390.45 264.85 388.4 264.85 386.35 264.85 384.9 263.4 383.5 262 383.5 259.95 383.5 257.9 384.9 256.45 386.35 255.05 388.4 255.05 M385.3 269.45 Q385.3 270.95 384.2 272 383.15 273.1 381.65 273.1 380.15 273.1 379.05 272 378 270.95 378 269.45 378 267.95 379.05 266.85 380.15 265.8 381.65 265.8 383.15 265.8 384.2 266.85 385.3 267.95 385.3 269.45 M386.9 279.2 Q388.05 280.35 388.05 281.95 388.05 283.55 386.9 284.7 385.75 285.85 384.15 285.85 382.55 285.85 381.4 284.7 380.25 283.55 380.25 281.95 380.25 280.35 381.4 279.2 382.55 278.05 384.15 278.05 385.75 278.05 386.9 279.2"/>
  </g>
</svg>