<svg width="292" height="103" viewBox="0 0 292 103" fill="none" xmlns="http://www.w3.org/2000/svg">
<rect width="292" height="102.768" fill="#1D1D26"/>
<g opacity="0.5">
<path d="M174.883 48.5969C172.797 48.3081 167.755 46.0073 164.271 39.114" stroke="#CF0A80" stroke-width="0.893308" stroke-linecap="round"/>
<path d="M174.01 55.4325C172.032 55.1385 167.096 56.32 165.283 59.2215C163.832 61.5427 165.838 64.3682 167.023 65.4908L162.674 68.3848" stroke="#CF0A80" stroke-width="0.893308" stroke-linecap="round"/>
<path d="M183.776 39.2987C176.609 37.4256 173.068 46.2757 172.999 48.0277C167.668 48.0508 168.083 52.7903 169.218 54.3655C169.985 55.4285 171.897 57.2481 176.168 58.6768C180.439 60.1054 185.088 60.6946 186.382 60.5367C187.676 60.3788 189.352 60.5239 190.558 57.6245C191.523 55.305 189.829 53.4641 189.014 52.8329C189.909 48.564 190.944 41.1718 183.776 39.2987Z" fill="url(#paint0_linear_1654_6180)"/>
<ellipse cx="175.938" cy="48.8582" rx="0.9901" ry="1.06626" transform="rotate(23.6376 175.938 48.8582)" fill="#3B314F"/>
<ellipse cx="182.65" cy="50.8074" rx="0.9901" ry="1.06626" transform="rotate(23.6376 182.65 50.8074)" fill="#3B314F"/>
<path d="M183.241 59.018C181.483 57.4969 178.444 56.2206 175.871 57.4326C173.813 58.4022 173.911 62.6046 174.217 64.5846L169.649 64.0309" stroke="#CF0A80" stroke-width="0.893308" stroke-linecap="round"/>
<path d="M187.114 53.6076C188.313 55.4387 189.646 60.7729 185.387 67.4614" stroke="#CF0A80" stroke-width="0.893308" stroke-linecap="round"/>
</g>
<rect x="169.108" y="6.1079" width="90.7842" height="79.7842" rx="3.8921" fill="#13775F" fill-opacity="0.2" stroke="#7FFF00" stroke-width="0.2158"/>
<path d="M119.297 49.0762C118.253 51.7128 116.368 58.2546 117.182 63.3294" stroke="#CF0A80" stroke-width="0.918557" stroke-linecap="round"/>
<g opacity="0.6">
<path d="M82.0359 50.4424C81.331 52.4002 78.0418 57.8039 79.4515 67.4366L83.7588 69.0812" stroke="#CF0A80" stroke-width="0.918557" stroke-linecap="round"/>
<path d="M73.9697 52.4785C73.3432 53.8099 70.7588 59.2919 70.2106 68.0631L65.9034 69.1594" stroke="#CF0A80" stroke-width="0.918557" stroke-linecap="round"/>
<path d="M85.795 46.918C86.1605 48.8497 86.6721 54.2012 85.795 60.1531" stroke="#CF0A80" stroke-width="0.918557" stroke-linecap="round"/>
<path d="M72.4818 32.7435C79.8434 30.7857 83.5241 39.8701 83.6024 41.6714C89.0844 41.6714 88.6787 46.5467 87.5182 48.1714C86.735 49.2678 84.7772 51.1474 80.3916 52.6354C76.006 54.1233 71.2288 54.7498 69.8974 54.5932C68.5661 54.4366 66.8432 54.5932 65.5902 51.6173C64.5877 49.2365 66.3211 47.3361 67.1565 46.6835C66.2167 42.2979 65.1203 34.7014 72.4818 32.7435Z" fill="url(#paint1_linear_1654_6180)"/>
<ellipse cx="1.01809" cy="1.0964" rx="1.01809" ry="1.0964" transform="matrix(-0.914359 0.404904 0.404904 0.914359 81.0693 41.123)" fill="#3B314F"/>
<ellipse cx="1.01809" cy="1.0964" rx="1.01809" ry="1.0964" transform="matrix(-0.914359 0.404904 0.404904 0.914359 74.1777 43.1582)" fill="#3B314F"/>
<path d="M67.3135 47.9365C66.2693 50.5731 64.3845 57.115 65.199 62.1897" stroke="#CF0A80" stroke-width="0.918557" stroke-linecap="round"/>
</g>
<path d="M131.882 51.9141C134.01 54.0423 134.01 63.9742 132.855 68.4372L137.162 70.0818" stroke="#CF0A80" stroke-width="0.918557" stroke-linecap="round"/>
<path d="M125.497 53.333C124.871 54.6644 124.162 60.2918 123.614 69.063L119.306 70.1594" stroke="#CF0A80" stroke-width="0.918557" stroke-linecap="round"/>
<path d="M139.198 47.918C139.564 49.8497 140.075 55.2012 139.198 61.1531" stroke="#CF0A80" stroke-width="0.918557" stroke-linecap="round"/>
<path d="M128.653 33.0245C136.27 32.9243 137.62 42.6327 137.256 44.3985C142.571 45.7377 140.987 50.3662 139.465 51.6582C138.438 52.5301 136.08 53.8744 131.464 54.2459C126.847 54.6175 122.062 54.058 120.809 53.5809C119.556 53.1038 117.847 52.8348 117.359 49.6429C116.969 47.0894 119.114 45.67 120.083 45.2412C120.244 40.7589 121.036 33.1247 128.653 33.0245Z" fill="url(#paint2_linear_1654_6180)"/>
<ellipse cx="1.01809" cy="1.0964" rx="1.01809" ry="1.0964" transform="matrix(-0.914359 0.404904 0.404904 0.914359 134.453 41.9814)" fill="#3B314F"/>
<ellipse cx="1.01809" cy="1.0964" rx="1.01809" ry="1.0964" transform="matrix(-0.914359 0.404904 0.404904 0.914359 125.94 41.9814)" fill="#3B314F"/>
<g opacity="0.6">
<path d="M30.1475 53.9385C30.0607 56.4313 29.4709 62.5014 27.8053 66.8398L31.9792 67.5976" stroke="#CF0A80" stroke-width="0.904674" stroke-linecap="round"/>
<path d="M36.6113 54.1699C37.226 56.6855 38.3796 62.5653 38.077 65.9595L43.0857 66.8689" stroke="#CF0A80" stroke-width="0.904674" stroke-linecap="round"/>
<path d="M41.4385 60.6397C42.4 58.126 43.1888 51.9299 38.6526 47.2544" stroke="#CF0A80" stroke-width="0.904674" stroke-linecap="round"/>
<path d="M33.5847 33.7096C41.0698 33.5007 42.2454 44.2969 41.6943 47.3325C42.6809 47.5116 44.3439 49.1462 44.3857 50.6432C44.4275 52.1402 43.228 53.9978 41.1857 54.4522C40.2423 54.6621 36.5844 55.1847 33.6663 55.282C30.7481 55.3794 27.195 54.6559 25.2219 54.2977C23.2488 53.9395 21.4339 52.2774 21.7714 49.9869C22.0413 48.1545 23.9254 47.19 24.8336 46.9368C24.5423 40.7694 26.0996 33.9185 33.5847 33.7096Z" fill="url(#paint3_linear_1654_6180)"/>
<ellipse cx="38.8459" cy="45.5824" rx="1.0027" ry="1.07983" transform="rotate(-7.19645 38.8459 45.5824)" fill="#3B314F"/>
<ellipse cx="33.2853" cy="45.9838" rx="1.0027" ry="1.07983" transform="rotate(-7.19645 33.2853 45.9838)" fill="#3B314F"/>
<path d="M26.0205 46.4473C26.2952 50.2599 26.1286 58.6332 23.265 61.6253" stroke="#CF0A80" stroke-width="0.904674" stroke-linecap="round"/>
</g>
<g opacity="0.3">
<path d="M217.079 47.4473C217.354 51.2599 217.187 59.6332 214.324 62.6253" stroke="#CF0A80" stroke-width="0.904674" stroke-linecap="round"/>
<path d="M223.038 54.9385C223.125 57.4313 223.715 63.5014 225.38 67.8398L221.206 68.5976" stroke="#CF0A80" stroke-width="0.904674" stroke-linecap="round"/>
<path d="M227.67 55.1699C228.285 57.6855 229.438 63.5653 229.136 66.9595L234.144 67.8689" stroke="#CF0A80" stroke-width="0.904674" stroke-linecap="round"/>
<path d="M229.059 46.2912C231.26 47.8392 237.074 50.1223 242.719 46.8701" stroke="#CF0A80" stroke-width="0.904674" stroke-linecap="round"/>
<path d="M224.643 34.7096C232.128 34.5007 233.304 45.2969 232.753 48.3325C233.74 48.5116 235.403 50.1462 235.444 51.6432C235.486 53.1402 234.287 54.9978 232.244 55.4522C231.301 55.6621 227.643 56.1847 224.725 56.282C221.807 56.3794 218.254 55.6559 216.28 55.2977C214.307 54.9395 212.493 53.2774 212.83 50.9869C213.1 49.1545 214.984 48.19 215.892 47.9368C215.601 41.7694 217.158 34.9185 224.643 34.7096Z" fill="url(#paint4_linear_1654_6180)"/>
<ellipse cx="226.904" cy="46.5824" rx="1.0027" ry="1.07983" transform="rotate(-7.19645 226.904 46.5824)" fill="#3B314F"/>
<ellipse cx="221.344" cy="46.9838" rx="1.0027" ry="1.07983" transform="rotate(-7.19645 221.344 46.9838)" fill="#3B314F"/>
</g>
<path d="M116 25H109C107.895 25 107 25.8954 107 27V35" stroke="#7FFF00"/>
<path d="M140 25H147C148.105 25 149 25.8954 149 27V35" stroke="#7FFF00"/>
<path d="M116 76H109C107.895 76 107 75.1046 107 74V66" stroke="#7FFF00"/>
<path d="M140 76H147C148.105 76 149 75.1046 149 74V66" stroke="#7FFF00"/>
<rect x="107" y="25" width="42" height="51" rx="1" fill="#58FFD7" fill-opacity="0.04"/>
<path d="M206.999 21.8145H207.608V22.5195H206.999V21.8145ZM206.999 23.2891H207.608V24H206.999V23.2891Z" fill="#76FF9C"/>
<path d="M205.578 22.7266V22.9023H204.021V22.9141C204.011 23.2122 204.068 23.4264 204.191 23.5566C204.316 23.6868 204.492 23.752 204.719 23.752C204.833 23.752 204.953 23.7337 205.078 23.6973C205.203 23.6608 205.337 23.6055 205.479 23.5312V23.8887C205.342 23.9447 205.21 23.9863 205.082 24.0137C204.956 24.0423 204.833 24.0566 204.715 24.0566C204.375 24.0566 204.109 23.9551 203.918 23.752C203.727 23.5475 203.631 23.2663 203.631 22.9082C203.631 22.5592 203.725 22.2806 203.912 22.0723C204.1 21.8639 204.35 21.7598 204.662 21.7598C204.941 21.7598 205.16 21.8542 205.32 22.043C205.482 22.2318 205.568 22.4596 205.578 22.7266ZM205.219 22.6211C205.203 22.4701 205.148 22.3398 205.053 22.2305C204.959 22.1198 204.824 22.0645 204.646 22.0645C204.473 22.0645 204.331 22.1217 204.219 22.2363C204.107 22.3509 204.046 22.4798 204.035 22.623L205.219 22.6211Z" fill="#76FF9C"/>
<path d="M201.941 22.0352C201.986 21.9414 202.042 21.8724 202.109 21.8281C202.178 21.7826 202.261 21.7598 202.357 21.7598C202.533 21.7598 202.657 21.8281 202.729 21.9648C202.801 22.1003 202.838 22.3561 202.838 22.7324V24H202.51V22.748C202.51 22.4395 202.492 22.248 202.457 22.1738C202.423 22.0983 202.361 22.0605 202.27 22.0605C202.165 22.0605 202.094 22.1009 202.055 22.1816C202.017 22.2611 201.998 22.4499 201.998 22.748V24H201.67V22.748C201.67 22.4355 201.651 22.2428 201.613 22.1699C201.577 22.097 201.51 22.0605 201.414 22.0605C201.319 22.0605 201.253 22.1009 201.215 22.1816C201.178 22.2611 201.16 22.4499 201.16 22.748V24H200.834V21.8125H201.16V22C201.203 21.9219 201.257 21.8626 201.32 21.8223C201.385 21.7806 201.459 21.7598 201.541 21.7598C201.64 21.7598 201.722 21.7826 201.787 21.8281C201.854 21.8737 201.905 21.9427 201.941 22.0352Z" fill="#76FF9C"/>
<path d="M199.222 22.9004H199.103C198.893 22.9004 198.735 22.9375 198.628 23.0117C198.522 23.0846 198.47 23.194 198.47 23.3398C198.47 23.4714 198.509 23.5736 198.589 23.6465C198.668 23.7194 198.778 23.7559 198.919 23.7559C199.117 23.7559 199.272 23.6875 199.386 23.5508C199.499 23.4128 199.556 23.2227 199.558 22.9805V22.9004H199.222ZM199.919 22.752V24H199.558V23.6758C199.481 23.806 199.384 23.9023 199.267 23.9648C199.151 24.026 199.009 24.0566 198.843 24.0566C198.62 24.0566 198.442 23.9941 198.31 23.8691C198.177 23.7428 198.11 23.5742 198.11 23.3633C198.11 23.1198 198.192 22.9349 198.354 22.8086C198.519 22.6823 198.759 22.6191 199.075 22.6191H199.558V22.5625C199.556 22.388 199.512 22.2617 199.425 22.1836C199.338 22.1042 199.198 22.0645 199.007 22.0645C198.884 22.0645 198.761 22.082 198.636 22.1172C198.511 22.1523 198.389 22.2038 198.271 22.2715V21.9121C198.403 21.8613 198.53 21.8236 198.651 21.7988C198.774 21.7728 198.892 21.7598 199.007 21.7598C199.188 21.7598 199.342 21.7865 199.47 21.8398C199.599 21.8932 199.703 21.9733 199.782 22.0801C199.832 22.1452 199.867 22.2259 199.888 22.3223C199.909 22.4173 199.919 22.5605 199.919 22.752Z" fill="#76FF9C"/>
<path d="M197.134 22.6445V24H196.772V22.6445C196.772 22.4479 196.738 22.3034 196.669 22.2109C196.6 22.1185 196.492 22.0723 196.345 22.0723C196.177 22.0723 196.047 22.1322 195.956 22.252C195.866 22.3704 195.821 22.541 195.821 22.7637V24H195.462V21.8125H195.821V22.1406C195.885 22.0156 195.972 21.9212 196.081 21.8574C196.19 21.7923 196.32 21.7598 196.47 21.7598C196.692 21.7598 196.858 21.8333 196.968 21.9805C197.078 22.1263 197.134 22.3477 197.134 22.6445Z" fill="#76FF9C"/>
<path d="M194.566 22.2637C194.49 22.2038 194.411 22.1602 194.332 22.1328C194.253 22.1055 194.165 22.0918 194.07 22.0918C193.846 22.0918 193.675 22.1621 193.557 22.3027C193.438 22.4434 193.379 22.6465 193.379 22.9121V24H193.018V21.8125H193.379V22.2402C193.439 22.0853 193.531 21.9668 193.654 21.8848C193.779 21.8014 193.927 21.7598 194.098 21.7598C194.186 21.7598 194.269 21.7708 194.346 21.793C194.423 21.8151 194.496 21.8496 194.566 21.8965V22.2637Z" fill="#76FF9C"/>
<path d="M191.728 22.7266V22.9023H190.171V22.9141C190.16 23.2122 190.217 23.4264 190.341 23.5566C190.466 23.6868 190.642 23.752 190.868 23.752C190.983 23.752 191.103 23.7337 191.228 23.6973C191.353 23.6608 191.486 23.6055 191.628 23.5312V23.8887C191.491 23.9447 191.359 23.9863 191.231 24.0137C191.105 24.0423 190.983 24.0566 190.864 24.0566C190.524 24.0566 190.259 23.9551 190.067 23.752C189.876 23.5475 189.78 23.2663 189.78 22.9082C189.78 22.5592 189.874 22.2806 190.062 22.0723C190.249 21.8639 190.499 21.7598 190.812 21.7598C191.09 21.7598 191.31 21.8542 191.47 22.043C191.631 22.2318 191.717 22.4596 191.728 22.7266ZM191.368 22.6211C191.353 22.4701 191.297 22.3398 191.202 22.2305C191.108 22.1198 190.973 22.0645 190.796 22.0645C190.623 22.0645 190.48 22.1217 190.368 22.2363C190.256 22.3509 190.195 22.4798 190.185 22.623L191.368 22.6211Z" fill="#76FF9C"/>
<path d="M188.671 21.8887V22.2402C188.568 22.1803 188.465 22.1354 188.36 22.1055C188.256 22.0755 188.15 22.0605 188.042 22.0605C187.879 22.0605 187.757 22.0872 187.677 22.1406C187.597 22.1927 187.558 22.2728 187.558 22.3809C187.558 22.4785 187.588 22.5514 187.647 22.5996C187.707 22.6478 187.856 22.6947 188.095 22.7402L188.239 22.7676C188.418 22.8014 188.552 22.8691 188.644 22.9707C188.736 23.0723 188.782 23.2044 188.782 23.3672C188.782 23.5833 188.705 23.7526 188.552 23.875C188.398 23.9961 188.185 24.0566 187.911 24.0566C187.803 24.0566 187.69 24.0449 187.571 24.0215C187.453 23.9993 187.325 23.9655 187.187 23.9199V23.5488C187.321 23.6178 187.449 23.6699 187.571 23.7051C187.694 23.7389 187.81 23.7559 187.919 23.7559C188.078 23.7559 188.201 23.724 188.288 23.6602C188.375 23.5951 188.419 23.5046 188.419 23.3887C188.419 23.222 188.259 23.1068 187.94 23.043L187.925 23.0391L187.79 23.0117C187.583 22.9714 187.432 22.9036 187.337 22.8086C187.242 22.7122 187.194 22.5814 187.194 22.416C187.194 22.2064 187.265 22.0449 187.407 21.9316C187.549 21.8171 187.752 21.7598 188.015 21.7598C188.132 21.7598 188.244 21.7708 188.353 21.793C188.461 21.8138 188.567 21.8457 188.671 21.8887Z" fill="#76FF9C"/>
<path d="M184.287 22.8809V21.084H184.684V23.0605C184.684 23.2025 184.688 23.304 184.695 23.3652C184.703 23.4251 184.717 23.4714 184.736 23.5039C184.778 23.5807 184.838 23.6387 184.916 23.6777C184.995 23.7168 185.091 23.7363 185.203 23.7363C185.316 23.7363 185.412 23.7168 185.49 23.6777C185.568 23.6387 185.629 23.5807 185.672 23.5039C185.691 23.4714 185.705 23.4251 185.713 23.3652C185.721 23.3053 185.725 23.2051 185.725 23.0645V21.084H186.119V22.8809C186.119 23.179 186.1 23.3913 186.062 23.5176C186.026 23.6426 185.962 23.7461 185.871 23.8281C185.785 23.9049 185.687 23.9622 185.576 24C185.465 24.0378 185.341 24.0566 185.203 24.0566C185.066 24.0566 184.943 24.0378 184.832 24C184.721 23.9622 184.622 23.9049 184.535 23.8281C184.445 23.7474 184.382 23.6432 184.344 23.5156C184.306 23.3867 184.287 23.1751 184.287 22.8809Z" fill="#76FF9C"/>
<path d="M230.824 22.0645C230.642 22.0645 230.504 22.1354 230.41 22.2773C230.316 22.4193 230.27 22.6296 230.27 22.9082C230.27 23.1855 230.316 23.3958 230.41 23.5391C230.504 23.681 230.642 23.752 230.824 23.752C231.008 23.752 231.146 23.681 231.24 23.5391C231.334 23.3958 231.381 23.1855 231.381 22.9082C231.381 22.6296 231.334 22.4193 231.24 22.2773C231.146 22.1354 231.008 22.0645 230.824 22.0645ZM230.824 21.7598C231.128 21.7598 231.359 21.8581 231.52 22.0547C231.681 22.2513 231.762 22.5358 231.762 22.9082C231.762 23.2819 231.682 23.5671 231.521 23.7637C231.361 23.959 231.129 24.0566 230.824 24.0566C230.521 24.0566 230.289 23.959 230.129 23.7637C229.969 23.5671 229.889 23.2819 229.889 22.9082C229.889 22.5358 229.969 22.2513 230.129 22.0547C230.289 21.8581 230.521 21.7598 230.824 21.7598Z" fill="#76FF9C"/>
<path d="M228.903 22.6445V24H228.542V22.6445C228.542 22.4479 228.507 22.3034 228.438 22.2109C228.369 22.1185 228.261 22.0723 228.114 22.0723C227.946 22.0723 227.817 22.1322 227.726 22.252C227.636 22.3704 227.591 22.541 227.591 22.7637V24H227.231V20.9609H227.591V22.1406C227.655 22.0156 227.741 21.9212 227.851 21.8574C227.96 21.7923 228.09 21.7598 228.239 21.7598C228.462 21.7598 228.628 21.8333 228.737 21.9805C228.848 22.1263 228.903 22.3477 228.903 22.6445Z" fill="#76FF9C"/>
<path d="M226.153 23.8887C226.057 23.9447 225.957 23.9863 225.854 24.0137C225.753 24.0423 225.649 24.0566 225.542 24.0566C225.203 24.0566 224.938 23.9551 224.747 23.752C224.557 23.5488 224.462 23.2676 224.462 22.9082C224.462 22.5488 224.557 22.2676 224.747 22.0645C224.938 21.8613 225.203 21.7598 225.542 21.7598C225.647 21.7598 225.75 21.7734 225.851 21.8008C225.951 21.8281 226.052 21.8704 226.153 21.9277V22.3047C226.058 22.2201 225.963 22.1589 225.866 22.1211C225.771 22.0833 225.663 22.0645 225.542 22.0645C225.317 22.0645 225.144 22.1374 225.022 22.2832C224.901 22.429 224.841 22.6374 224.841 22.9082C224.841 23.1777 224.901 23.3861 225.022 23.5332C225.145 23.679 225.318 23.752 225.542 23.752C225.667 23.752 225.779 23.7331 225.878 23.6953C225.977 23.6562 226.069 23.5964 226.153 23.5156V23.8887Z" fill="#76FF9C"/>
<path d="M223.363 22.6445V24H223.002V22.6445C223.002 22.4479 222.967 22.3034 222.898 22.2109C222.829 22.1185 222.721 22.0723 222.574 22.0723C222.406 22.0723 222.277 22.1322 222.186 22.252C222.096 22.3704 222.051 22.541 222.051 22.7637V24H221.691V21.8125H222.051V22.1406C222.115 22.0156 222.201 21.9212 222.311 21.8574C222.42 21.7923 222.549 21.7598 222.699 21.7598C222.922 21.7598 223.088 21.8333 223.197 21.9805C223.308 22.1263 223.363 22.3477 223.363 22.6445Z" fill="#76FF9C"/>
<path d="M219.911 22.9004H219.792C219.582 22.9004 219.424 22.9375 219.317 23.0117C219.212 23.0846 219.159 23.194 219.159 23.3398C219.159 23.4714 219.199 23.5736 219.278 23.6465C219.358 23.7194 219.468 23.7559 219.608 23.7559C219.806 23.7559 219.962 23.6875 220.075 23.5508C220.188 23.4128 220.246 23.2227 220.247 22.9805V22.9004H219.911ZM220.608 22.752V24H220.247V23.6758C220.17 23.806 220.073 23.9023 219.956 23.9648C219.84 24.026 219.699 24.0566 219.532 24.0566C219.31 24.0566 219.132 23.9941 218.999 23.8691C218.866 23.7428 218.8 23.5742 218.8 23.3633C218.8 23.1198 218.881 22.9349 219.044 22.8086C219.208 22.6823 219.448 22.6191 219.765 22.6191H220.247V22.5625C220.246 22.388 220.201 22.2617 220.114 22.1836C220.027 22.1042 219.888 22.0645 219.696 22.0645C219.574 22.0645 219.45 22.082 219.325 22.1172C219.2 22.1523 219.078 22.2038 218.96 22.2715V21.9121C219.093 21.8613 219.22 21.8236 219.341 21.7988C219.463 21.7728 219.582 21.7598 219.696 21.7598C219.877 21.7598 220.032 21.7865 220.159 21.8398C220.288 21.8932 220.392 21.9733 220.472 22.0801C220.521 22.1452 220.556 22.2259 220.577 22.3223C220.598 22.4173 220.608 22.5605 220.608 22.752Z" fill="#76FF9C"/>
<path d="M216.151 23.1719V21.8164H216.511V23.1719C216.511 23.3685 216.545 23.513 216.614 23.6055C216.685 23.6979 216.793 23.7441 216.938 23.7441C217.108 23.7441 217.237 23.6849 217.327 23.5664C217.417 23.4466 217.462 23.2754 217.462 23.0527V21.8164H217.823V24H217.462V23.6719C217.398 23.7982 217.311 23.8939 217.2 23.959C217.091 24.0241 216.963 24.0566 216.815 24.0566C216.591 24.0566 216.425 23.9837 216.315 23.8379C216.206 23.6908 216.151 23.4688 216.151 23.1719Z" fill="#76FF9C"/>
<path d="M213.213 23.8809V23.4199C213.331 23.5254 213.454 23.6048 213.58 23.6582C213.706 23.7103 213.837 23.7363 213.973 23.7363C214.159 23.7363 214.288 23.6882 214.361 23.5918C214.436 23.4941 214.473 23.3132 214.473 23.0488V21.416H213.729V21.084H214.867V23.0488C214.867 23.416 214.798 23.6758 214.66 23.8281C214.523 23.9805 214.294 24.0566 213.973 24.0566C213.848 24.0566 213.723 24.0423 213.6 24.0137C213.476 23.985 213.347 23.9408 213.213 23.8809Z" fill="#76FF9C"/>
<path d="M206.999 32.8145H207.608V33.5195H206.999V32.8145ZM206.999 34.2891H207.608V35H206.999V34.2891Z" fill="#76FF9C"/>
<path d="M205.066 33.8887C205.066 33.6191 205.022 33.4147 204.934 33.2754C204.846 33.1348 204.719 33.0645 204.551 33.0645C204.375 33.0645 204.241 33.1348 204.148 33.2754C204.056 33.4147 204.01 33.6191 204.01 33.8887C204.01 34.1582 204.056 34.3639 204.148 34.5059C204.242 34.6465 204.378 34.7168 204.555 34.7168C204.72 34.7168 204.846 34.6458 204.934 34.5039C205.022 34.362 205.066 34.1569 205.066 33.8887ZM205.426 34.8594C205.426 35.1875 205.348 35.4362 205.193 35.6055C205.038 35.7747 204.811 35.8594 204.51 35.8594C204.411 35.8594 204.307 35.8503 204.199 35.832C204.091 35.8138 203.983 35.7871 203.875 35.752V35.3965C204.003 35.4564 204.118 35.5007 204.223 35.5293C204.327 35.5579 204.423 35.5723 204.51 35.5723C204.704 35.5723 204.845 35.5195 204.934 35.4141C205.022 35.3086 205.066 35.1413 205.066 34.9121V34.8965V34.6523C205.009 34.7747 204.931 34.8659 204.832 34.9258C204.733 34.9857 204.613 35.0156 204.471 35.0156C204.215 35.0156 204.012 34.9134 203.859 34.709C203.707 34.5046 203.631 34.2311 203.631 33.8887C203.631 33.5449 203.707 33.2708 203.859 33.0664C204.012 32.862 204.215 32.7598 204.471 32.7598C204.611 32.7598 204.73 32.7878 204.828 32.8438C204.926 32.8997 205.005 32.9863 205.066 33.1035V32.8203H205.426V34.8594Z" fill="#76FF9C"/>
<path d="M202.674 33.6445V35H202.312V33.6445C202.312 33.4479 202.278 33.3034 202.209 33.2109C202.14 33.1185 202.032 33.0723 201.885 33.0723C201.717 33.0723 201.587 33.1322 201.496 33.252C201.406 33.3704 201.361 33.541 201.361 33.7637V35H201.002V32.8125H201.361V33.1406C201.425 33.0156 201.512 32.9212 201.621 32.8574C201.73 32.7923 201.86 32.7598 202.01 32.7598C202.232 32.7598 202.398 32.8333 202.508 32.9805C202.618 33.1263 202.674 33.3477 202.674 33.6445Z" fill="#76FF9C"/>
<path d="M198.468 32.8203H199.388V34.7207H200.101V35H198.315V34.7207H199.028V33.0996H198.468V32.8203ZM199.028 31.9707H199.388V32.4238H199.028V31.9707Z" fill="#76FF9C"/>
<path d="M197.134 33.6445V35H196.772V33.6445C196.772 33.4479 196.738 33.3034 196.669 33.2109C196.6 33.1185 196.492 33.0723 196.345 33.0723C196.177 33.0723 196.047 33.1322 195.956 33.252C195.866 33.3704 195.821 33.541 195.821 33.7637V35H195.462V32.8125H195.821V33.1406C195.885 33.0156 195.972 32.9212 196.081 32.8574C196.19 32.7923 196.32 32.7598 196.47 32.7598C196.692 32.7598 196.858 32.8333 196.968 32.9805C197.078 33.1263 197.134 33.3477 197.134 33.6445Z" fill="#76FF9C"/>
<path d="M192.928 32.8203H193.848V34.7207H194.561V35H192.775V34.7207H193.488V33.0996H192.928V32.8203ZM193.488 31.9707H193.848V32.4238H193.488V31.9707Z" fill="#76FF9C"/>
<path d="M190.911 33.9004H190.792C190.582 33.9004 190.424 33.9375 190.317 34.0117C190.212 34.0846 190.159 34.194 190.159 34.3398C190.159 34.4714 190.199 34.5736 190.278 34.6465C190.358 34.7194 190.468 34.7559 190.608 34.7559C190.806 34.7559 190.962 34.6875 191.075 34.5508C191.188 34.4128 191.246 34.2227 191.247 33.9805V33.9004H190.911ZM191.608 33.752V35H191.247V34.6758C191.17 34.806 191.073 34.9023 190.956 34.9648C190.84 35.026 190.699 35.0566 190.532 35.0566C190.31 35.0566 190.132 34.9941 189.999 34.8691C189.866 34.7428 189.8 34.5742 189.8 34.3633C189.8 34.1198 189.881 33.9349 190.044 33.8086C190.208 33.6823 190.448 33.6191 190.765 33.6191H191.247V33.5625C191.246 33.388 191.201 33.2617 191.114 33.1836C191.027 33.1042 190.888 33.0645 190.696 33.0645C190.574 33.0645 190.45 33.082 190.325 33.1172C190.2 33.1523 190.078 33.2038 189.96 33.2715V32.9121C190.093 32.8613 190.22 32.8236 190.341 32.7988C190.463 32.7728 190.582 32.7598 190.696 32.7598C190.877 32.7598 191.032 32.7865 191.159 32.8398C191.288 32.8932 191.392 32.9733 191.472 33.0801C191.521 33.1452 191.556 33.2259 191.577 33.3223C191.598 33.4173 191.608 33.5605 191.608 33.752Z" fill="#76FF9C"/>
<path d="M189.026 33.2637C188.95 33.2038 188.871 33.1602 188.792 33.1328C188.713 33.1055 188.625 33.0918 188.53 33.0918C188.306 33.0918 188.135 33.1621 188.017 33.3027C187.898 33.4434 187.839 33.6465 187.839 33.9121V35H187.478V32.8125H187.839V33.2402C187.899 33.0853 187.991 32.9668 188.114 32.8848C188.239 32.8014 188.387 32.7598 188.558 32.7598C188.646 32.7598 188.729 32.7708 188.806 32.793C188.882 32.8151 188.956 32.8496 189.026 32.8965V33.2637Z" fill="#76FF9C"/>
<path d="M184.092 32.084H186.316V32.416H185.404V35H185.008V32.416H184.092V32.084Z" fill="#76FF9C"/>
<path d="M220.44 32.8887V33.2402C220.338 33.1803 220.234 33.1354 220.13 33.1055C220.026 33.0755 219.92 33.0605 219.812 33.0605C219.649 33.0605 219.527 33.0872 219.446 33.1406C219.367 33.1927 219.327 33.2728 219.327 33.3809C219.327 33.4785 219.357 33.5514 219.417 33.5996C219.477 33.6478 219.626 33.6947 219.864 33.7402L220.009 33.7676C220.187 33.8014 220.322 33.8691 220.413 33.9707C220.506 34.0723 220.552 34.2044 220.552 34.3672C220.552 34.5833 220.475 34.7526 220.321 34.875C220.168 34.9961 219.954 35.0566 219.681 35.0566C219.573 35.0566 219.459 35.0449 219.341 35.0215C219.222 34.9993 219.094 34.9655 218.956 34.9199V34.5488C219.09 34.6178 219.218 34.6699 219.341 34.7051C219.463 34.7389 219.579 34.7559 219.688 34.7559C219.847 34.7559 219.97 34.724 220.058 34.6602C220.145 34.5951 220.188 34.5046 220.188 34.3887C220.188 34.222 220.029 34.1068 219.71 34.043L219.694 34.0391L219.56 34.0117C219.353 33.9714 219.201 33.9036 219.106 33.8086C219.011 33.7122 218.964 33.5814 218.964 33.416C218.964 33.2064 219.035 33.0449 219.177 32.9316C219.319 32.8171 219.521 32.7598 219.784 32.7598C219.901 32.7598 220.014 32.7708 220.122 32.793C220.23 32.8138 220.336 32.8457 220.44 32.8887Z" fill="#76FF9C"/>
<path d="M217.958 33.7266V33.9023H216.401V33.9141C216.391 34.2122 216.448 34.4264 216.571 34.5566C216.696 34.6868 216.872 34.752 217.099 34.752C217.213 34.752 217.333 34.7337 217.458 34.6973C217.583 34.6608 217.716 34.6055 217.858 34.5312V34.8887C217.722 34.9447 217.59 34.9863 217.462 35.0137C217.336 35.0423 217.213 35.0566 217.095 35.0566C216.755 35.0566 216.489 34.9551 216.298 34.752C216.106 34.5475 216.011 34.2663 216.011 33.9082C216.011 33.5592 216.104 33.2806 216.292 33.0723C216.479 32.8639 216.729 32.7598 217.042 32.7598C217.321 32.7598 217.54 32.8542 217.7 33.043C217.862 33.2318 217.948 33.4596 217.958 33.7266ZM217.599 33.6211C217.583 33.4701 217.528 33.3398 217.433 33.2305C217.339 33.1198 217.203 33.0645 217.026 33.0645C216.853 33.0645 216.711 33.1217 216.599 33.2363C216.487 33.3509 216.425 33.4798 216.415 33.623L217.599 33.6211Z" fill="#76FF9C"/>
<path d="M213.072 32.084H213.492L214.203 33.3711L214.912 32.084H215.336L214.4 33.6914V35H214.004V33.6914L213.072 32.084Z" fill="#76FF9C"/>
<path d="M201.459 44.8145H202.068V45.5195H201.459V44.8145ZM201.459 46.2891H202.068V47H201.459V46.2891Z" fill="#76FF9C"/>
<path d="M199.751 44.8887V45.2402C199.648 45.1803 199.545 45.1354 199.44 45.1055C199.336 45.0755 199.23 45.0605 199.122 45.0605C198.959 45.0605 198.838 45.0872 198.757 45.1406C198.677 45.1927 198.638 45.2728 198.638 45.3809C198.638 45.4785 198.668 45.5514 198.728 45.5996C198.787 45.6478 198.937 45.6947 199.175 45.7402L199.319 45.7676C199.498 45.8014 199.632 45.8691 199.724 45.9707C199.816 46.0723 199.862 46.2044 199.862 46.3672C199.862 46.5833 199.785 46.7526 199.632 46.875C199.478 46.9961 199.265 47.0566 198.991 47.0566C198.883 47.0566 198.77 47.0449 198.651 47.0215C198.533 46.9993 198.405 46.9655 198.267 46.9199V46.5488C198.401 46.6178 198.529 46.6699 198.651 46.7051C198.774 46.7389 198.89 46.7559 198.999 46.7559C199.158 46.7559 199.281 46.724 199.368 46.6602C199.455 46.5951 199.499 46.5046 199.499 46.3887C199.499 46.222 199.34 46.1068 199.021 46.043L199.005 46.0391L198.87 46.0117C198.663 45.9714 198.512 45.9036 198.417 45.8086C198.322 45.7122 198.274 45.5814 198.274 45.416C198.274 45.2064 198.345 45.0449 198.487 44.9316C198.629 44.8171 198.832 44.7598 199.095 44.7598C199.212 44.7598 199.325 44.7708 199.433 44.793C199.541 44.8138 199.647 44.8457 199.751 44.8887Z" fill="#76FF9C"/>
<path d="M196.485 46.209C196.485 46.3704 196.515 46.4922 196.573 46.5742C196.633 46.6562 196.721 46.6973 196.837 46.6973H197.257V47H196.802C196.587 47 196.42 46.9316 196.302 46.7949C196.185 46.6569 196.126 46.4616 196.126 46.209V44.2305H195.55V43.9492H196.485V46.209Z" fill="#76FF9C"/>
<path d="M193.715 46.209C193.715 46.3704 193.744 46.4922 193.803 46.5742C193.863 46.6562 193.951 46.6973 194.066 46.6973H194.486V47H194.031C193.816 47 193.65 46.9316 193.531 46.7949C193.414 46.6569 193.355 46.4616 193.355 46.209V44.2305H192.779V43.9492H193.715V46.209Z" fill="#76FF9C"/>
<path d="M190.157 44.8203H191.077V46.7207H191.79V47H190.005V46.7207H190.718V45.0996H190.157V44.8203ZM190.718 43.9707H191.077V44.4238H190.718V43.9707Z" fill="#76FF9C"/>
<path d="M187.231 43.9609H187.603V45.7207L188.546 44.8125H188.983L188.122 45.6367L189.118 47H188.679L187.87 45.8711L187.603 46.123V47H187.231V43.9609Z" fill="#76FF9C"/>
<path d="M185.977 44.1836V44.584C185.857 44.5072 185.736 44.4492 185.615 44.4102C185.495 44.3711 185.374 44.3516 185.252 44.3516C185.066 44.3516 184.919 44.3952 184.811 44.4824C184.702 44.5684 184.648 44.6849 184.648 44.832C184.648 44.9609 184.684 45.0592 184.754 45.127C184.826 45.1947 184.958 45.2513 185.152 45.2969L185.359 45.3438C185.633 45.4076 185.832 45.5078 185.957 45.6445C186.082 45.7812 186.145 45.9674 186.145 46.2031C186.145 46.4805 186.059 46.6921 185.887 46.8379C185.715 46.9837 185.465 47.0566 185.137 47.0566C185 47.0566 184.863 47.0417 184.725 47.0117C184.587 46.9831 184.448 46.9395 184.309 46.8809V46.4609C184.458 46.556 184.6 46.6257 184.732 46.6699C184.867 46.7142 185.001 46.7363 185.137 46.7363C185.336 46.7363 185.491 46.6921 185.602 46.6035C185.712 46.5137 185.768 46.3887 185.768 46.2285C185.768 46.0827 185.729 45.9714 185.652 45.8945C185.577 45.8177 185.445 45.7585 185.256 45.7168L185.045 45.668C184.774 45.6068 184.577 45.5143 184.455 45.3906C184.333 45.2669 184.271 45.1009 184.271 44.8926C184.271 44.6322 184.359 44.4238 184.533 44.2676C184.709 44.11 184.942 44.0312 185.232 44.0312C185.344 44.0312 185.462 44.0443 185.586 44.0703C185.71 44.0951 185.84 44.1328 185.977 44.1836Z" fill="#76FF9C"/>
<path d="M242.377 45.8887C242.377 45.6191 242.333 45.4147 242.244 45.2754C242.157 45.1348 242.029 45.0645 241.861 45.0645C241.686 45.0645 241.551 45.1348 241.459 45.2754C241.367 45.4147 241.32 45.6191 241.32 45.8887C241.32 46.1582 241.367 46.3639 241.459 46.5059C241.553 46.6465 241.688 46.7168 241.865 46.7168C242.031 46.7168 242.157 46.6458 242.244 46.5039C242.333 46.362 242.377 46.1569 242.377 45.8887ZM242.736 46.8594C242.736 47.1875 242.659 47.4362 242.504 47.6055C242.349 47.7747 242.121 47.8594 241.82 47.8594C241.721 47.8594 241.618 47.8503 241.51 47.832C241.402 47.8138 241.294 47.7871 241.186 47.752V47.3965C241.313 47.4564 241.429 47.5007 241.533 47.5293C241.637 47.5579 241.733 47.5723 241.82 47.5723C242.014 47.5723 242.156 47.5195 242.244 47.4141C242.333 47.3086 242.377 47.1413 242.377 46.9121V46.8965V46.6523C242.32 46.7747 242.242 46.8659 242.143 46.9258C242.044 46.9857 241.923 47.0156 241.781 47.0156C241.526 47.0156 241.322 46.9134 241.17 46.709C241.018 46.5046 240.941 46.2311 240.941 45.8887C240.941 45.5449 241.018 45.2708 241.17 45.0664C241.322 44.862 241.526 44.7598 241.781 44.7598C241.922 44.7598 242.041 44.7878 242.139 44.8438C242.236 44.8997 242.316 44.9863 242.377 45.1035V44.8203H242.736V46.8594Z" fill="#76FF9C"/>
<path d="M239.984 45.6445V47H239.623V45.6445C239.623 45.4479 239.589 45.3034 239.52 45.2109C239.451 45.1185 239.342 45.0723 239.195 45.0723C239.027 45.0723 238.898 45.1322 238.807 45.252C238.717 45.3704 238.672 45.541 238.672 45.7637V47H238.312V44.8125H238.672V45.1406C238.736 45.0156 238.822 44.9212 238.932 44.8574C239.041 44.7923 239.171 44.7598 239.32 44.7598C239.543 44.7598 239.709 44.8333 239.818 44.9805C239.929 45.1263 239.984 45.3477 239.984 45.6445Z" fill="#76FF9C"/>
<path d="M235.778 44.8203H236.698V46.7207H237.411V47H235.626V46.7207H236.339V45.0996H235.778V44.8203ZM236.339 43.9707H236.698V44.4238H236.339V43.9707Z" fill="#76FF9C"/>
<path d="M233.59 44.1914V44.8125H234.406V45.0918H233.59V46.2793C233.59 46.4408 233.62 46.5534 233.682 46.6172C233.743 46.681 233.85 46.7129 234.002 46.7129H234.406V47H233.967C233.697 47 233.507 46.946 233.396 46.8379C233.286 46.7298 233.23 46.5436 233.23 46.2793V45.0918H232.646V44.8125H233.23V44.1914H233.59Z" fill="#76FF9C"/>
<path d="M230.992 45.9004H230.873C230.663 45.9004 230.505 45.9375 230.398 46.0117C230.293 46.0846 230.24 46.194 230.24 46.3398C230.24 46.4714 230.28 46.5736 230.359 46.6465C230.439 46.7194 230.549 46.7559 230.689 46.7559C230.887 46.7559 231.043 46.6875 231.156 46.5508C231.27 46.4128 231.327 46.2227 231.328 45.9805V45.9004H230.992ZM231.689 45.752V47H231.328V46.6758C231.251 46.806 231.154 46.9023 231.037 46.9648C230.921 47.026 230.78 47.0566 230.613 47.0566C230.391 47.0566 230.213 46.9941 230.08 46.8691C229.947 46.7428 229.881 46.5742 229.881 46.3633C229.881 46.1198 229.962 45.9349 230.125 45.8086C230.289 45.6823 230.529 45.6191 230.846 45.6191H231.328V45.5625C231.327 45.388 231.283 45.2617 231.195 45.1836C231.108 45.1042 230.969 45.0645 230.777 45.0645C230.655 45.0645 230.531 45.082 230.406 45.1172C230.281 45.1523 230.16 45.2038 230.041 45.2715V44.9121C230.174 44.8613 230.301 44.8236 230.422 44.7988C230.544 44.7728 230.663 44.7598 230.777 44.7598C230.958 44.7598 231.113 44.7865 231.24 44.8398C231.369 44.8932 231.473 44.9733 231.553 45.0801C231.602 45.1452 231.637 45.2259 231.658 45.3223C231.679 45.4173 231.689 45.5605 231.689 45.752Z" fill="#76FF9C"/>
<path d="M229.038 45.7266V45.9023H227.481V45.9141C227.471 46.2122 227.528 46.4264 227.651 46.5566C227.776 46.6868 227.952 46.752 228.179 46.752C228.293 46.752 228.413 46.7337 228.538 46.6973C228.663 46.6608 228.797 46.6055 228.938 46.5312V46.8887C228.802 46.9447 228.67 46.9863 228.542 47.0137C228.416 47.0423 228.293 47.0566 228.175 47.0566C227.835 47.0566 227.569 46.9551 227.378 46.752C227.187 46.5475 227.091 46.2663 227.091 45.9082C227.091 45.5592 227.185 45.2806 227.372 45.0723C227.56 44.8639 227.81 44.7598 228.122 44.7598C228.401 44.7598 228.62 44.8542 228.78 45.043C228.942 45.2318 229.028 45.4596 229.038 45.7266ZM228.679 45.6211C228.663 45.4701 228.608 45.3398 228.513 45.2305C228.419 45.1198 228.284 45.0645 228.106 45.0645C227.933 45.0645 227.791 45.1217 227.679 45.2363C227.567 45.3509 227.506 45.4798 227.495 45.623L228.679 45.6211Z" fill="#76FF9C"/>
<path d="M223.498 45.7266V45.9023H221.941V45.9141C221.931 46.2122 221.988 46.4264 222.111 46.5566C222.236 46.6868 222.412 46.752 222.639 46.752C222.753 46.752 222.873 46.7337 222.998 46.6973C223.123 46.6608 223.257 46.6055 223.398 46.5312V46.8887C223.262 46.9447 223.13 46.9863 223.002 47.0137C222.876 47.0423 222.753 47.0566 222.635 47.0566C222.295 47.0566 222.029 46.9551 221.838 46.752C221.646 46.5475 221.551 46.2663 221.551 45.9082C221.551 45.5592 221.645 45.2806 221.832 45.0723C222.02 44.8639 222.27 44.7598 222.582 44.7598C222.861 44.7598 223.08 44.8542 223.24 45.043C223.402 45.2318 223.488 45.4596 223.498 45.7266ZM223.139 45.6211C223.123 45.4701 223.068 45.3398 222.973 45.2305C222.879 45.1198 222.743 45.0645 222.566 45.0645C222.393 45.0645 222.251 45.1217 222.139 45.2363C222.027 45.3509 221.965 45.4798 221.955 45.623L223.139 45.6211Z" fill="#76FF9C"/>
<path d="M219.001 43.9609H219.372V45.7207L220.315 44.8125H220.753L219.892 45.6367L220.888 47H220.448L219.64 45.8711L219.372 46.123V47H219.001V43.9609Z" fill="#76FF9C"/>
<path d="M217.142 45.9004H217.022C216.813 45.9004 216.655 45.9375 216.548 46.0117C216.442 46.0846 216.39 46.194 216.39 46.3398C216.39 46.4714 216.429 46.5736 216.509 46.6465C216.588 46.7194 216.698 46.7559 216.839 46.7559C217.037 46.7559 217.192 46.6875 217.306 46.5508C217.419 46.4128 217.476 46.2227 217.478 45.9805V45.9004H217.142ZM217.839 45.752V47H217.478V46.6758C217.401 46.806 217.304 46.9023 217.187 46.9648C217.071 47.026 216.929 47.0566 216.763 47.0566C216.54 47.0566 216.362 46.9941 216.229 46.8691C216.097 46.7428 216.03 46.5742 216.03 46.3633C216.03 46.1198 216.112 45.9349 216.274 45.8086C216.438 45.6823 216.679 45.6191 216.995 45.6191H217.478V45.5625C217.476 45.388 217.432 45.2617 217.345 45.1836C217.257 45.1042 217.118 45.0645 216.927 45.0645C216.804 45.0645 216.681 45.082 216.556 45.1172C216.431 45.1523 216.309 45.2038 216.19 45.2715V44.9121C216.323 44.8613 216.45 44.8236 216.571 44.7988C216.694 44.7728 216.812 44.7598 216.927 44.7598C217.108 44.7598 217.262 44.7865 217.39 44.8398C217.519 44.8932 217.623 44.9733 217.702 45.0801C217.752 45.1452 217.787 45.2259 217.808 45.3223C217.828 45.4173 217.839 45.5605 217.839 45.752Z" fill="#76FF9C"/>
<path d="M215.096 46.8965C214.995 46.9499 214.893 46.9896 214.787 47.0156C214.682 47.043 214.57 47.0566 214.451 47.0566C214.077 47.0566 213.787 46.9245 213.58 46.6602C213.374 46.3958 213.271 46.0241 213.271 45.5449C213.271 45.0684 213.375 44.6973 213.582 44.4316C213.79 44.1647 214.08 44.0312 214.451 44.0312C214.57 44.0312 214.682 44.0449 214.787 44.0723C214.893 44.0983 214.995 44.138 215.096 44.1914V44.5957C214.999 44.5163 214.896 44.4557 214.785 44.4141C214.674 44.3724 214.563 44.3516 214.451 44.3516C214.195 44.3516 214.003 44.4505 213.875 44.6484C213.747 44.8464 213.684 45.1452 213.684 45.5449C213.684 45.9434 213.747 46.2415 213.875 46.4395C214.003 46.6374 214.195 46.7363 214.451 46.7363C214.566 46.7363 214.678 46.7155 214.787 46.6738C214.898 46.6322 215.001 46.5716 215.096 46.4922V46.8965Z" fill="#76FF9C"/>
<rect x="215" y="64" width="30" height="11.4725" rx="5.02676" fill="#16CF89"/>
<path d="M232.552 70.3827V70.5227C232.552 70.7444 232.594 70.8969 232.677 70.9802C232.76 71.0636 232.915 71.1052 233.14 71.1052H233.55C233.733 71.1052 233.867 71.0861 233.952 71.0477C234.039 71.0077 234.095 70.9386 234.12 70.8402C234.133 70.7852 234.154 70.7427 234.182 70.7127C234.212 70.6827 234.256 70.6677 234.315 70.6677C234.376 70.6677 234.423 70.6844 234.455 70.7177C234.486 70.7494 234.497 70.7961 234.487 70.8577C234.455 71.0661 234.361 71.2211 234.205 71.3227C234.05 71.4227 233.831 71.4727 233.55 71.4727H233.14C232.815 71.4727 232.574 71.3952 232.417 71.2402C232.262 71.0852 232.185 70.8461 232.185 70.5227V69.9477C232.185 69.6177 232.262 69.3761 232.417 69.2227C232.574 69.0677 232.815 68.9919 233.14 68.9952H233.55C233.875 68.9952 234.115 69.0727 234.27 69.2277C234.425 69.3811 234.502 69.6211 234.502 69.9477V70.1977C234.502 70.3211 234.441 70.3827 234.32 70.3827H232.552ZM233.14 69.3627C232.915 69.3594 232.76 69.3994 232.677 69.4827C232.594 69.5661 232.552 69.7211 232.552 69.9477V70.0152H234.135V69.9477C234.135 69.7227 234.093 69.5694 234.01 69.4877C233.928 69.4044 233.775 69.3627 233.55 69.3627H233.14Z" fill="black"/>
<path d="M230.519 71.4726C230.396 71.4726 230.334 71.411 230.334 71.2876V69.1776C230.334 69.056 230.396 68.9951 230.519 68.9951C230.641 68.9951 230.701 69.056 230.701 69.1776V69.4376C230.796 69.2926 230.921 69.1826 231.076 69.1076C231.233 69.0326 231.415 68.9951 231.621 68.9951C231.745 68.9951 231.806 69.056 231.806 69.1776C231.806 69.301 231.745 69.3626 231.621 69.3626C231.33 69.3626 231.106 69.421 230.951 69.5376C230.796 69.6526 230.713 69.8101 230.701 70.0101V71.2876C230.701 71.411 230.641 71.4726 230.519 71.4726Z" fill="black"/>
<path d="M229.079 68.57C228.936 68.57 228.864 68.4967 228.864 68.35V68.215C228.864 68.0717 228.936 68 229.079 68H229.214C229.353 68 229.422 68.0717 229.422 68.215V68.35C229.422 68.4967 229.353 68.57 229.214 68.57H229.079ZM229.147 71.4725C229.023 71.4725 228.962 71.4108 228.962 71.2875V69.1775C228.962 69.0558 229.023 68.995 229.147 68.995C229.268 68.995 229.329 69.0558 229.329 69.1775V71.2875C229.329 71.4108 229.268 71.4725 229.147 71.4725Z" fill="black"/>
<path d="M225.348 71.4727C225.298 71.4727 225.255 71.4544 225.218 71.4177C225.181 71.381 225.163 71.3377 225.163 71.2877V68.3227C225.163 68.2727 225.181 68.2294 225.218 68.1927C225.255 68.156 225.298 68.1377 225.348 68.1377C225.398 68.1377 225.441 68.156 225.476 68.1927C225.512 68.2294 225.531 68.2727 225.531 68.3227V69.6002H227.591V68.3227C227.591 68.2727 227.608 68.2294 227.643 68.1927C227.678 68.156 227.721 68.1377 227.773 68.1377C227.823 68.1377 227.866 68.156 227.903 68.1927C227.94 68.2294 227.958 68.2727 227.958 68.3227V71.2877C227.958 71.3377 227.94 71.381 227.903 71.4177C227.866 71.4544 227.823 71.4727 227.773 71.4727C227.721 71.4727 227.678 71.4544 227.643 71.4177C227.608 71.381 227.591 71.3377 227.591 71.2877V69.9677H225.531V71.2877C225.531 71.3377 225.512 71.381 225.476 71.4177C225.441 71.4544 225.398 71.4727 225.348 71.4727Z" fill="black"/>
<path d="M204.452 71.4725C204.352 71.4725 204.286 71.4225 204.254 71.3225L203.554 69.2375C203.516 69.1242 203.555 69.0475 203.672 69.0075C203.787 68.9692 203.864 69.0083 203.904 69.125L204.509 70.9175H204.452L205.024 69.1375C205.058 69.0408 205.128 68.9925 205.234 68.9925C205.338 68.9925 205.403 69.0433 205.432 69.145L205.969 70.9025H205.919L206.544 69.1225C206.588 69.0042 206.666 68.9658 206.779 69.0075C206.896 69.0492 206.933 69.1283 206.889 69.245L206.127 71.3225C206.09 71.4225 206.02 71.4725 205.917 71.4725C205.81 71.4725 205.742 71.4217 205.712 71.32L205.179 69.5675H205.232L204.649 71.3225C204.634 71.3742 204.609 71.4125 204.574 71.4375C204.539 71.4608 204.498 71.4725 204.452 71.4725Z" fill="#16CF89"/>
<path d="M201.139 70.3827V70.5227C201.139 70.7444 201.181 70.8969 201.264 70.9802C201.347 71.0636 201.501 71.1052 201.726 71.1052H202.136C202.32 71.1052 202.454 71.0861 202.539 71.0477C202.626 71.0077 202.681 70.9386 202.706 70.8402C202.72 70.7852 202.741 70.7427 202.769 70.7127C202.799 70.6827 202.843 70.6677 202.901 70.6677C202.963 70.6677 203.01 70.6844 203.041 70.7177C203.073 70.7494 203.084 70.7961 203.074 70.8577C203.042 71.0661 202.948 71.2211 202.791 71.3227C202.636 71.4227 202.418 71.4727 202.136 71.4727H201.726C201.401 71.4727 201.161 71.3952 201.004 71.2402C200.849 71.0852 200.771 70.8461 200.771 70.5227V69.9477C200.771 69.6177 200.849 69.3761 201.004 69.2227C201.161 69.0677 201.401 68.9919 201.726 68.9952H202.136C202.461 68.9952 202.701 69.0727 202.856 69.2277C203.011 69.3811 203.089 69.6211 203.089 69.9477V70.1977C203.089 70.3211 203.028 70.3827 202.906 70.3827H201.139ZM201.726 69.3627C201.501 69.3594 201.347 69.3994 201.264 69.4827C201.181 69.5661 201.139 69.7211 201.139 69.9477V70.0152H202.721V69.9477C202.721 69.7227 202.68 69.5694 202.596 69.4877C202.515 69.4044 202.361 69.3627 202.136 69.3627H201.726Z" fill="#16CF89"/>
<path d="M199.619 68.57C199.476 68.57 199.404 68.4967 199.404 68.35V68.215C199.404 68.0717 199.476 68 199.619 68H199.754C199.893 68 199.962 68.0717 199.962 68.215V68.35C199.962 68.4967 199.893 68.57 199.754 68.57H199.619ZM199.687 71.4725C199.563 71.4725 199.502 71.4108 199.502 71.2875V69.1775C199.502 69.0558 199.563 68.995 199.687 68.995C199.808 68.995 199.869 69.0558 199.869 69.1775V71.2875C199.869 71.4108 199.808 71.4725 199.687 71.4725Z" fill="#16CF89"/>
<path d="M197.876 71.3349C197.856 71.3832 197.829 71.4182 197.794 71.4399C197.759 71.4616 197.715 71.4724 197.664 71.4724C197.569 71.4724 197.501 71.4241 197.461 71.3274L196.586 69.2549C196.535 69.1399 196.567 69.0599 196.684 69.0149C196.792 68.9649 196.872 68.9974 196.924 69.1124L197.761 71.0949H197.579L198.486 69.1049C198.511 69.0549 198.545 69.0216 198.586 69.0049C198.63 68.9882 198.678 68.9916 198.731 69.0149C198.841 69.0666 198.871 69.1482 198.821 69.2599L197.876 71.3349Z" fill="#16CF89"/>
<path d="M195.048 71.4726C194.925 71.4726 194.863 71.411 194.863 71.2876V69.1776C194.863 69.056 194.925 68.9951 195.048 68.9951C195.17 68.9951 195.231 69.056 195.231 69.1776V69.4376C195.326 69.2926 195.451 69.1826 195.606 69.1076C195.762 69.0326 195.944 68.9951 196.151 68.9951C196.274 68.9951 196.336 69.056 196.336 69.1776C196.336 69.301 196.274 69.3626 196.151 69.3626C195.859 69.3626 195.636 69.421 195.481 69.5376C195.326 69.6526 195.242 69.8101 195.231 70.0101V71.2876C195.231 71.411 195.17 71.4726 195.048 71.4726Z" fill="#16CF89"/>
<path d="M192.013 70.3827V70.5227C192.013 70.7444 192.055 70.8969 192.138 70.9802C192.221 71.0636 192.376 71.1052 192.601 71.1052H193.011C193.194 71.1052 193.328 71.0861 193.413 71.0477C193.5 71.0077 193.556 70.9386 193.581 70.8402C193.594 70.7852 193.615 70.7427 193.643 70.7127C193.673 70.6827 193.717 70.6677 193.776 70.6677C193.837 70.6677 193.884 70.6844 193.916 70.7177C193.947 70.7494 193.958 70.7961 193.948 70.8577C193.916 71.0661 193.822 71.2211 193.666 71.3227C193.511 71.4227 193.292 71.4727 193.011 71.4727H192.601C192.276 71.4727 192.035 71.3952 191.878 71.2402C191.723 71.0852 191.646 70.8461 191.646 70.5227V69.9477C191.646 69.6177 191.723 69.3761 191.878 69.2227C192.035 69.0677 192.276 68.9919 192.601 68.9952H193.011C193.336 68.9952 193.576 69.0727 193.731 69.2277C193.886 69.3811 193.963 69.6211 193.963 69.9477V70.1977C193.963 70.3211 193.902 70.3827 193.781 70.3827H192.013ZM192.601 69.3627C192.376 69.3594 192.221 69.3994 192.138 69.4827C192.055 69.5661 192.013 69.7211 192.013 69.9477V70.0152H193.596V69.9477C193.596 69.7227 193.554 69.5694 193.471 69.4877C193.389 69.4044 193.236 69.3627 193.011 69.3627H192.601Z" fill="#16CF89"/>
<path d="M190.987 71.4727C190.665 71.4727 190.428 71.3969 190.277 71.2452C190.125 71.0935 190.049 70.8577 190.049 70.5377V69.3627H189.787C189.663 69.3627 189.602 69.301 189.602 69.1777C189.602 69.056 189.663 68.9952 189.787 68.9952H190.049V68.5727C190.049 68.4494 190.11 68.3877 190.232 68.3877C190.355 68.3877 190.417 68.4494 190.417 68.5727V68.9952H191.009C191.131 68.9952 191.192 69.056 191.192 69.1777C191.192 69.301 191.131 69.3627 191.009 69.3627H190.417V70.5377C190.417 70.7577 190.457 70.9077 190.537 70.9877C190.618 71.066 190.768 71.1052 190.987 71.1052C191.047 71.1052 191.092 71.1202 191.124 71.1502C191.156 71.1785 191.172 71.2244 191.172 71.2877C191.172 71.411 191.11 71.4727 190.987 71.4727Z" fill="#16CF89"/>
<path d="M186.914 71.4726C186.79 71.4726 186.729 71.411 186.729 71.2876V69.1776C186.729 69.056 186.79 68.9951 186.914 68.9951C187.035 68.9951 187.096 69.056 187.096 69.1776V69.3126C187.266 69.101 187.535 68.9951 187.904 68.9951H188.044C188.369 68.9951 188.609 69.0726 188.764 69.2276C188.919 69.3826 188.996 69.6226 188.996 69.9476V71.2876C188.996 71.411 188.935 71.4726 188.814 71.4726C188.69 71.4726 188.629 71.411 188.629 71.2876V69.9476C188.629 69.7226 188.586 69.5693 188.501 69.4876C188.418 69.4043 188.265 69.3626 188.044 69.3626H187.904C187.684 69.3626 187.499 69.3918 187.351 69.4501C187.203 69.5068 187.118 69.5968 187.096 69.7201V71.2876C187.096 71.411 187.035 71.4726 186.914 71.4726Z" fill="#16CF89"/>
<path d="M185.541 71.4721C185.48 71.4721 185.433 71.4571 185.401 71.4271C185.371 71.3955 185.356 71.3488 185.356 71.2871V68.3246C185.356 68.2613 185.371 68.2146 185.401 68.1846C185.433 68.1546 185.48 68.1396 185.541 68.1396C185.603 68.1396 185.649 68.1546 185.679 68.1846C185.709 68.2146 185.724 68.2613 185.724 68.3246V71.2871C185.724 71.3488 185.709 71.3955 185.679 71.4271C185.649 71.4571 185.603 71.4721 185.541 71.4721Z" fill="#16CF89"/>
<rect x="181.25" y="64.25" width="30.0984" height="10.9725" rx="4.77676" stroke="#16CF89" stroke-width="0.5"/>
<path d="M88.2432 15.2109H88.9307V16H88.2432V15.2109Z" fill="#76FF9C"/>
<path d="M85.4736 15.2109H86.1611V16H85.4736V15.2109Z" fill="#76FF9C"/>
<path d="M82.7031 15.2109H83.3906V16H82.7031V15.2109Z" fill="#76FF9C"/>
<path d="M79.9521 13.4082V14.5039H80.4092C80.5915 14.5039 80.7334 14.4557 80.835 14.3594C80.9378 14.263 80.9893 14.1283 80.9893 13.9551C80.9893 13.7819 80.9385 13.6478 80.8369 13.5527C80.7354 13.4564 80.5928 13.4082 80.4092 13.4082H79.9521ZM79.5576 13.084H80.4092C80.7347 13.084 80.9814 13.1582 81.1494 13.3066C81.3174 13.4538 81.4014 13.6699 81.4014 13.9551C81.4014 14.2428 81.3174 14.4603 81.1494 14.6074C80.9827 14.7546 80.736 14.8281 80.4092 14.8281H79.9521V16H79.5576V13.084Z" fill="#76FF9C"/>
<path d="M77.1826 13.4082V14.5039H77.6396C77.8219 14.5039 77.9639 14.4557 78.0654 14.3594C78.1683 14.263 78.2197 14.1283 78.2197 13.9551C78.2197 13.7819 78.1689 13.6478 78.0674 13.5527C77.9658 13.4564 77.8232 13.4082 77.6396 13.4082H77.1826ZM76.7881 13.084H77.6396C77.9652 13.084 78.2119 13.1582 78.3799 13.3066C78.5479 13.4538 78.6318 13.6699 78.6318 13.9551C78.6318 14.2428 78.5479 14.4603 78.3799 14.6074C78.2132 14.7546 77.9665 14.8281 77.6396 14.8281H77.1826V16H76.7881V13.084Z" fill="#76FF9C"/>
<path d="M74.8359 13.4316L74.4199 14.9238H75.252L74.8359 13.4316ZM74.5977 13.084H75.0762L75.9688 16H75.5605L75.3457 15.2402H74.3242L74.1133 16H73.7051L74.5977 13.084Z" fill="#76FF9C"/>
<path d="M70.0693 13.1836V13.584C69.9495 13.5072 69.8291 13.4492 69.708 13.4102C69.5882 13.3711 69.4671 13.3516 69.3447 13.3516C69.1585 13.3516 69.0114 13.3952 68.9033 13.4824C68.7952 13.5684 68.7412 13.6849 68.7412 13.832C68.7412 13.9609 68.7764 14.0592 68.8467 14.127C68.9183 14.1947 69.0511 14.2513 69.2451 14.2969L69.4521 14.3438C69.7256 14.4076 69.9248 14.5078 70.0498 14.6445C70.1748 14.7812 70.2373 14.9674 70.2373 15.2031C70.2373 15.4805 70.1514 15.6921 69.9795 15.8379C69.8076 15.9837 69.5576 16.0566 69.2295 16.0566C69.0928 16.0566 68.9554 16.0417 68.8174 16.0117C68.6794 15.9831 68.5407 15.9395 68.4014 15.8809V15.4609C68.5511 15.556 68.6924 15.6257 68.8252 15.6699C68.9593 15.7142 69.0941 15.7363 69.2295 15.7363C69.4287 15.7363 69.5837 15.6921 69.6943 15.6035C69.805 15.5137 69.8604 15.3887 69.8604 15.2285C69.8604 15.0827 69.8219 14.9714 69.7451 14.8945C69.6696 14.8177 69.5374 14.7585 69.3486 14.7168L69.1377 14.668C68.8669 14.6068 68.6702 14.5143 68.5479 14.3906C68.4255 14.2669 68.3643 14.1009 68.3643 13.8926C68.3643 13.6322 68.4515 13.4238 68.626 13.2676C68.8018 13.11 69.0348 13.0312 69.3252 13.0312C69.4372 13.0312 69.555 13.0443 69.6787 13.0703C69.8024 13.0951 69.9326 13.1328 70.0693 13.1836Z" fill="#76FF9C"/>
<path d="M65.707 13.084H67.4375V13.416H66.1016V14.2012H67.3789V14.5332H66.1016V15.668H67.4746V16H65.707V13.084Z" fill="#76FF9C"/>
<path d="M64.6484 15.8965C64.5482 15.9499 64.4453 15.9896 64.3398 16.0156C64.2344 16.043 64.1224 16.0566 64.0039 16.0566C63.6302 16.0566 63.3398 15.9245 63.1328 15.6602C62.9271 15.3958 62.8242 15.0241 62.8242 14.5449C62.8242 14.0684 62.9277 13.6973 63.1348 13.4316C63.3431 13.1647 63.6328 13.0312 64.0039 13.0312C64.1224 13.0312 64.2344 13.0449 64.3398 13.0723C64.4453 13.0983 64.5482 13.138 64.6484 13.1914V13.5957C64.5521 13.5163 64.4486 13.4557 64.3379 13.4141C64.2272 13.3724 64.1159 13.3516 64.0039 13.3516C63.7474 13.3516 63.5553 13.4505 63.4277 13.6484C63.3001 13.8464 63.2363 14.1452 63.2363 14.5449C63.2363 14.9434 63.3001 15.2415 63.4277 15.4395C63.5553 15.6374 63.7474 15.7363 64.0039 15.7363C64.1185 15.7363 64.2305 15.7155 64.3398 15.6738C64.4505 15.6322 64.5534 15.5716 64.6484 15.4922V15.8965Z" fill="#76FF9C"/>
<path d="M61.2666 14.623C61.3682 14.6491 61.4548 14.6986 61.5264 14.7715C61.598 14.8431 61.6872 14.987 61.7939 15.2031L62.1904 16H61.7666L61.4189 15.2637C61.3187 15.054 61.2282 14.9193 61.1475 14.8594C61.068 14.7982 60.9639 14.7676 60.835 14.7676H60.458V16H60.0615V13.084H60.874C61.1943 13.084 61.4398 13.1562 61.6104 13.3008C61.7809 13.4453 61.8662 13.6543 61.8662 13.9277C61.8662 14.1204 61.8135 14.278 61.708 14.4004C61.6038 14.5215 61.4567 14.5957 61.2666 14.623ZM60.458 13.4082V14.4434H60.8896C61.0785 14.4434 61.2191 14.401 61.3115 14.3164C61.404 14.2318 61.4502 14.1022 61.4502 13.9277C61.4502 13.7598 61.4007 13.6315 61.3018 13.543C61.2041 13.4531 61.0615 13.4082 60.874 13.4082H60.458Z" fill="#76FF9C"/>
<path d="M57.2988 14.8809V13.084H57.6953V15.0605C57.6953 15.2025 57.6992 15.304 57.707 15.3652C57.7148 15.4251 57.7285 15.4714 57.748 15.5039C57.7897 15.5807 57.8496 15.6387 57.9277 15.6777C58.0072 15.7168 58.1029 15.7363 58.2148 15.7363C58.3281 15.7363 58.4238 15.7168 58.502 15.6777C58.5801 15.6387 58.6406 15.5807 58.6836 15.5039C58.7031 15.4714 58.7168 15.4251 58.7246 15.3652C58.7324 15.3053 58.7363 15.2051 58.7363 15.0645V13.084H59.1309V14.8809C59.1309 15.179 59.112 15.3913 59.0742 15.5176C59.0378 15.6426 58.974 15.7461 58.8828 15.8281C58.7969 15.9049 58.6986 15.9622 58.5879 16C58.4772 16.0378 58.3529 16.0566 58.2148 16.0566C58.0781 16.0566 57.9544 16.0378 57.8438 16C57.7331 15.9622 57.6341 15.9049 57.5469 15.8281C57.457 15.7474 57.3932 15.6432 57.3555 15.5156C57.3177 15.3867 57.2988 15.1751 57.2988 14.8809Z" fill="#76FF9C"/>
<path d="M56.0098 14.5449C56.0098 14.1165 55.9655 13.8105 55.877 13.627C55.7897 13.4434 55.6458 13.3516 55.4453 13.3516C55.2461 13.3516 55.1022 13.4434 55.0137 13.627C54.9264 13.8105 54.8828 14.1165 54.8828 14.5449C54.8828 14.972 54.9264 15.2773 55.0137 15.4609C55.1022 15.6445 55.2461 15.7363 55.4453 15.7363C55.6458 15.7363 55.7897 15.6452 55.877 15.4629C55.9655 15.2793 56.0098 14.9733 56.0098 14.5449ZM56.4219 14.5449C56.4219 15.0527 56.3411 15.4316 56.1797 15.6816C56.0195 15.9316 55.7747 16.0566 55.4453 16.0566C55.1159 16.0566 54.8711 15.9323 54.7109 15.6836C54.5508 15.4349 54.4707 15.0553 54.4707 14.5449C54.4707 14.0358 54.5508 13.6562 54.7109 13.4062C54.8724 13.1562 55.1172 13.0312 55.4453 13.0312C55.7747 13.0312 56.0195 13.1562 56.1797 13.4062C56.3411 13.6562 56.4219 14.0358 56.4219 14.5449Z" fill="#76FF9C"/>
<path d="M53.4482 13.1836V13.584C53.3284 13.5072 53.208 13.4492 53.0869 13.4102C52.9671 13.3711 52.846 13.3516 52.7236 13.3516C52.5374 13.3516 52.3903 13.3952 52.2822 13.4824C52.1742 13.5684 52.1201 13.6849 52.1201 13.832C52.1201 13.9609 52.1553 14.0592 52.2256 14.127C52.2972 14.1947 52.43 14.2513 52.624 14.2969L52.8311 14.3438C53.1045 14.4076 53.3037 14.5078 53.4287 14.6445C53.5537 14.7812 53.6162 14.9674 53.6162 15.2031C53.6162 15.4805 53.5303 15.6921 53.3584 15.8379C53.1865 15.9837 52.9365 16.0566 52.6084 16.0566C52.4717 16.0566 52.3343 16.0417 52.1963 16.0117C52.0583 15.9831 51.9196 15.9395 51.7803 15.8809V15.4609C51.93 15.556 52.0713 15.6257 52.2041 15.6699C52.3382 15.7142 52.473 15.7363 52.6084 15.7363C52.8076 15.7363 52.9626 15.6921 53.0732 15.6035C53.1839 15.5137 53.2393 15.3887 53.2393 15.2285C53.2393 15.0827 53.2008 14.9714 53.124 14.8945C53.0485 14.8177 52.9163 14.7585 52.7275 14.7168L52.5166 14.668C52.2458 14.6068 52.0492 14.5143 51.9268 14.3906C51.8044 14.2669 51.7432 14.1009 51.7432 13.8926C51.7432 13.6322 51.8304 13.4238 52.0049 13.2676C52.1807 13.11 52.4137 13.0312 52.7041 13.0312C52.8161 13.0312 52.9339 13.0443 53.0576 13.0703C53.1813 13.0951 53.3115 13.1328 53.4482 13.1836Z" fill="#76FF9C"/>
<path d="M49.0859 13.084H50.8164V13.416H49.4805V14.2012H50.7578V14.5332H49.4805V15.668H50.8535V16H49.0859V13.084Z" fill="#76FF9C"/>
<path d="M47.416 14.623C47.5176 14.6491 47.6042 14.6986 47.6758 14.7715C47.7474 14.8431 47.8366 14.987 47.9434 15.2031L48.3398 16H47.916L47.5684 15.2637C47.4681 15.054 47.3776 14.9193 47.2969 14.8594C47.2174 14.7982 47.1133 14.7676 46.9844 14.7676H46.6074V16H46.2109V13.084H47.0234C47.3438 13.084 47.5892 13.1562 47.7598 13.3008C47.9303 13.4453 48.0156 13.6543 48.0156 13.9277C48.0156 14.1204 47.9629 14.278 47.8574 14.4004C47.7533 14.5215 47.6061 14.5957 47.416 14.623ZM46.6074 13.4082V14.4434H47.0391C47.2279 14.4434 47.3685 14.401 47.4609 14.3164C47.5534 14.2318 47.5996 14.1022 47.5996 13.9277C47.5996 13.7598 47.5501 13.6315 47.4512 13.543C47.3535 13.4531 47.2109 13.4082 47.0234 13.4082H46.6074Z" fill="#76FF9C"/>
<path d="M41.2422 15.6758C41.5742 15.6758 41.806 15.5944 41.9375 15.4316C42.069 15.2676 42.1348 14.972 42.1348 14.5449C42.1348 14.1139 42.069 13.8171 41.9375 13.6543C41.8073 13.4902 41.5755 13.4082 41.2422 13.4082H41.0547V15.6758H41.2422ZM41.25 13.084C41.6953 13.084 42.0234 13.2025 42.2344 13.4395C42.4453 13.6764 42.5508 14.0449 42.5508 14.5449C42.5508 15.0423 42.4453 15.4095 42.2344 15.6465C42.0234 15.8822 41.6953 16 41.25 16H40.6582V13.084H41.25Z" fill="#76FF9C"/>
<path d="M38.0137 13.084H39.6328V13.416H39.0215V15.668H39.6328V16H38.0137V15.668H38.625V13.416H38.0137V13.084Z" fill="#76FF9C"/>
<path d="M36.6182 14.5449C36.6182 14.1165 36.5739 13.8105 36.4854 13.627C36.3981 13.4434 36.2542 13.3516 36.0537 13.3516C35.8545 13.3516 35.7106 13.4434 35.6221 13.627C35.5348 13.8105 35.4912 14.1165 35.4912 14.5449C35.4912 14.972 35.5348 15.2773 35.6221 15.4609C35.7106 15.6445 35.8545 15.7363 36.0537 15.7363C36.2542 15.7363 36.3981 15.6452 36.4854 15.4629C36.5739 15.2793 36.6182 14.9733 36.6182 14.5449ZM37.0303 14.5449C37.0303 15.0527 36.9495 15.4316 36.7881 15.6816C36.6279 15.9316 36.3831 16.0566 36.0537 16.0566C35.7243 16.0566 35.4795 15.9323 35.3193 15.6836C35.1592 15.4349 35.0791 15.0553 35.0791 14.5449C35.0791 14.0358 35.1592 13.6562 35.3193 13.4062C35.4808 13.1562 35.7256 13.0312 36.0537 13.0312C36.3831 13.0312 36.6279 13.1562 36.7881 13.4062C36.9495 13.6562 37.0303 14.0358 37.0303 14.5449Z" fill="#76FF9C"/>
<path d="M32.1182 13.0938H32.6572L33.7979 15.4863V13.0938H34.2178V16H33.6787L32.5381 13.6074V16H32.1182V13.0938Z" fill="#76FF9C"/>
<path d="M30.5137 13.4316L30.0977 14.9238H30.9297L30.5137 13.4316ZM30.2754 13.084H30.7539L31.6465 16H31.2383L31.0234 15.2402H30.002L29.791 16H29.3828L30.2754 13.084Z" fill="#76FF9C"/>
<path d="M26.6104 13.0938H27.1377L27.6416 14.5742L28.1494 13.0938H28.6787V16H28.3135V13.4316L27.7939 14.9629H27.4951L26.9736 13.4316V16H26.6104V13.0938Z" fill="#76FF9C"/>
<path d="M24.0576 14.8809V13.084H24.4541V15.0605C24.4541 15.2025 24.458 15.304 24.4658 15.3652C24.4736 15.4251 24.4873 15.4714 24.5068 15.5039C24.5485 15.5807 24.6084 15.6387 24.6865 15.6777C24.766 15.7168 24.8617 15.7363 24.9736 15.7363C25.0869 15.7363 25.1826 15.7168 25.2607 15.6777C25.3389 15.6387 25.3994 15.5807 25.4424 15.5039C25.4619 15.4714 25.4756 15.4251 25.4834 15.3652C25.4912 15.3053 25.4951 15.2051 25.4951 15.0645V13.084H25.8896V14.8809C25.8896 15.179 25.8708 15.3913 25.833 15.5176C25.7965 15.6426 25.7327 15.7461 25.6416 15.8281C25.5557 15.9049 25.4574 15.9622 25.3467 16C25.236 16.0378 25.1117 16.0566 24.9736 16.0566C24.8369 16.0566 24.7132 16.0378 24.6025 16C24.4919 15.9622 24.3929 15.9049 24.3057 15.8281C24.2158 15.7474 24.152 15.6432 24.1143 15.5156C24.0765 15.3867 24.0576 15.1751 24.0576 14.8809Z" fill="#76FF9C"/>
<path d="M21.2676 13.084H21.6641V14.2012H22.7441V13.084H23.1406V16H22.7441V14.5332H21.6641V16H21.2676V13.084Z" fill="#76FF9C"/>
<rect x="108.108" y="15.1079" width="40.7861" height="2.5896" rx="1.2948" fill="#32F28B" fill-opacity="0.2" stroke="#49FF92" stroke-width="0.2158"/>
<rect x="108" y="15" width="37" height="3" rx="1.5" fill="#32F296" fill-opacity="0.7"/>
<defs>
<linearGradient id="paint0_linear_1654_6180" x1="179.612" y1="39.0494" x2="179.705" y2="60.5883" gradientUnits="userSpaceOnUse">
<stop stop-color="#F783F2"/>
<stop offset="1" stop-color="#E040DA"/>
</linearGradient>
<linearGradient id="paint1_linear_1654_6180" x1="76.7631" y1="32.4688" x2="76.7631" y2="54.6166" gradientUnits="userSpaceOnUse">
<stop stop-color="#F783F2"/>
<stop offset="1" stop-color="#E040DA"/>
</linearGradient>
<linearGradient id="paint2_linear_1654_6180" x1="132.871" y1="33.8039" x2="127.461" y2="55.2808" gradientUnits="userSpaceOnUse">
<stop stop-color="#F783F2"/>
<stop offset="1" stop-color="#E040DA"/>
</linearGradient>
<linearGradient id="paint3_linear_1654_6180" x1="36.0705" y1="34.0034" x2="32.157" y2="55.5599" gradientUnits="userSpaceOnUse">
<stop stop-color="#F783F2"/>
<stop offset="1" stop-color="#E040DA"/>
</linearGradient>
<linearGradient id="paint4_linear_1654_6180" x1="227.129" y1="35.0034" x2="223.216" y2="56.5599" gradientUnits="userSpaceOnUse">
<stop stop-color="#F783F2"/>
<stop offset="1" stop-color="#E040DA"/>
</linearGradient>
</defs>
</svg>
