<svg width="285" height="102" viewBox="0 0 285 102" fill="none" xmlns="http://www.w3.org/2000/svg">
<g clip-path="url(#clip0_1642_5489)">
<rect width="285" height="102" fill="#1D1D26"/>
<line opacity="0.3" y1="-0.409991" x2="106.853" y2="-0.409991" transform="matrix(-0.866044 0.499967 0.866044 0.499967 77.6816 22.2959)" stroke="url(#paint0_linear_1642_5489)" stroke-width="0.819982"/>
<line opacity="0.3" y1="-0.409991" x2="106.853" y2="-0.409991" transform="matrix(-0.866044 0.499967 0.866044 0.499967 88.291 28.4229)" stroke="url(#paint1_linear_1642_5489)" stroke-width="0.819982"/>
<line opacity="0.3" y1="-0.409991" x2="106.853" y2="-0.409991" transform="matrix(-0.866044 0.499967 0.866044 0.499967 98.9023 34.5488)" stroke="url(#paint2_linear_1642_5489)" stroke-width="0.819982"/>
<line opacity="0.3" y1="-0.409991" x2="106.853" y2="-0.409991" transform="matrix(-0.866044 0.499967 0.866044 0.499967 109.514 40.6729)" stroke="url(#paint3_linear_1642_5489)" stroke-width="0.819982"/>
<line opacity="0.3" y1="-0.409991" x2="106.853" y2="-0.409991" transform="matrix(-0.866044 0.499967 0.866044 0.499967 120.125 46.8008)" stroke="url(#paint4_linear_1642_5489)" stroke-width="0.819982"/>
<line opacity="0.3" y1="-0.409991" x2="106.853" y2="-0.409991" transform="matrix(-0.866044 0.499967 0.866044 0.499967 130.736 52.9258)" stroke="url(#paint5_linear_1642_5489)" stroke-width="0.819982"/>
<line opacity="0.3" y1="-0.409991" x2="106.853" y2="-0.409991" transform="matrix(-0.866044 0.499967 0.866044 0.499967 141.348 59.0518)" stroke="url(#paint6_linear_1642_5489)" stroke-width="0.819982"/>
<line opacity="0.3" y1="-0.409991" x2="106.853" y2="-0.409991" transform="matrix(0.866044 0.499967 0.866044 -0.499967 -14.8594 59.0518)" stroke="url(#paint7_linear_1642_5489)" stroke-width="0.819982"/>
<line opacity="0.3" y1="-0.409991" x2="106.853" y2="-0.409991" transform="matrix(0.866044 0.499967 0.866044 -0.499967 -4.24805 52.9258)" stroke="url(#paint8_linear_1642_5489)" stroke-width="0.819982"/>
<line opacity="0.3" y1="-0.409991" x2="106.853" y2="-0.409991" transform="matrix(0.866044 0.499967 0.866044 -0.499967 6.36328 46.8008)" stroke="url(#paint9_linear_1642_5489)" stroke-width="0.819982"/>
<line opacity="0.3" y1="-0.409991" x2="106.853" y2="-0.409991" transform="matrix(0.866044 0.499967 0.866044 -0.499967 16.9746 40.6738)" stroke="url(#paint10_linear_1642_5489)" stroke-width="0.819982"/>
<line opacity="0.3" y1="-0.409991" x2="106.853" y2="-0.409991" transform="matrix(0.866044 0.499967 0.866044 -0.499967 27.5859 34.5488)" stroke="url(#paint11_linear_1642_5489)" stroke-width="0.819982"/>
<line opacity="0.3" y1="-0.409991" x2="106.853" y2="-0.409991" transform="matrix(0.866044 0.499967 0.866044 -0.499967 38.1973 28.4229)" stroke="url(#paint12_linear_1642_5489)" stroke-width="0.819982"/>
<line opacity="0.3" y1="-0.409991" x2="106.853" y2="-0.409991" transform="matrix(0.866044 0.499967 0.866044 -0.499967 48.8066 22.2959)" stroke="url(#paint13_linear_1642_5489)" stroke-width="0.819982"/>
<path d="M34.0468 5.59024C33.8624 5.48377 33.5634 5.48377 33.379 5.59024L-4.91728 27.6987C-5.10171 27.8051 -5.10171 27.9778 -4.91728 28.0842L33.379 50.1926C33.5634 50.2991 33.8624 50.2991 34.0468 50.1926L72.3431 28.0842C72.5275 27.9778 72.5275 27.8051 72.3431 27.6987L34.0468 5.59024Z" fill="#F6FAFF"/>
<path d="M25.1566 22.2181C24.3414 21.9783 23.4709 22.4809 23.8863 22.9515L27.4544 26.9943C27.6402 27.2048 27.5701 27.4604 27.2807 27.6274L21.7232 30.8358C21.0762 31.2093 21.6351 31.8425 22.5388 31.7599L30.3016 31.0501C30.7058 31.0131 31.1052 31.1306 31.2909 31.3411L34.8591 35.3839C35.2745 35.8545 36.4904 35.7434 36.6335 35.2217L37.8631 30.7402C37.9271 30.5069 38.244 30.3239 38.6482 30.2869L46.411 29.5771C47.3147 29.4945 47.5073 28.7926 46.6921 28.5528L39.6891 26.4928C39.3245 26.3856 39.121 26.155 39.185 25.9217L40.4145 21.4402C40.5577 20.9185 39.4608 20.5959 38.8138 20.9694L33.2562 24.1778C32.9669 24.3448 32.5241 24.3853 32.1596 24.278L25.1566 22.2181Z" fill="#8ED0FF"/>
<path d="M72.6777 28.3969C72.6777 28.1013 72.3587 27.9156 72.1017 28.0616L33.6542 49.9041C33.5336 49.9726 33.4591 50.1006 33.4591 50.2393V94.7339C33.4591 95.0296 33.7781 95.2152 34.0351 95.0692L72.4826 73.2268C72.6032 73.1582 72.6777 73.0302 72.6777 72.8915V28.3969Z" fill="#D0DCEF"/>
<path d="M-5.21094 29.0499C-5.21094 28.4608 -4.57711 28.0892 -4.06307 28.377L34.331 49.8707C34.5746 50.007 34.7255 50.2644 34.7255 50.5436V94.081C34.7255 94.6701 34.0917 95.0416 33.5776 94.7539L-4.81647 73.2602C-5.06006 73.1238 -5.21094 72.8664 -5.21094 72.5873V29.0499Z" fill="#B5C8E6"/>
<ellipse cx="7.09647" cy="9.9406" rx="7.09647" ry="9.9406" transform="matrix(-0.873203 -0.487357 -0.487357 0.873203 65.4629 55.8525)" fill="#3D75FE"/>
<path d="M6.55219 64.5855L19.8078 72.2738C20.4034 72.6192 21.1188 72.0702 20.9392 71.4055L15.7628 52.2519C15.5924 51.6213 14.7642 51.4749 14.388 52.0089L6.30872 63.4742C6.04794 63.8443 6.16056 64.3583 6.55219 64.5855Z" fill="#294DA5"/>
<path d="M96.7285 18.0175C96.4984 18.0175 96.3338 18.0536 96.2346 18.1258C96.1353 18.1934 96.0857 18.3107 96.0857 18.4776V20.0947C96.0857 20.3247 96.0451 20.4916 95.9639 20.5954C95.8827 20.6946 95.7542 20.7736 95.5783 20.8322C95.7587 20.8954 95.8872 20.9743 95.9639 21.069C96.0451 21.1637 96.0857 21.3261 96.0857 21.5562V23.1733C96.0857 23.3402 96.1353 23.4575 96.2346 23.5251C96.3338 23.5973 96.4984 23.6334 96.7285 23.6334V24.1138C96.2774 24.1138 95.9594 24.0348 95.7745 23.877C95.5895 23.7236 95.4971 23.4665 95.4971 23.1056V21.6035C95.4971 21.4141 95.461 21.281 95.3888 21.2043C95.3211 21.1277 95.1994 21.0893 95.0234 21.0893V20.5751C95.1994 20.5751 95.3211 20.5345 95.3888 20.4533C95.461 20.3721 95.4971 20.2368 95.4971 20.0473V18.5453C95.4971 18.1844 95.5895 17.9273 95.7745 17.7739C95.9594 17.616 96.2774 17.5371 96.7285 17.5371V18.0175Z" fill="white"/>
<path d="M108.581 27.6931C108.392 27.6931 108.256 27.7359 108.175 27.8216C108.094 27.9028 108.053 28.0314 108.053 28.2073V28.7012H108.919L108.852 29.1816H108.053V32.267H107.431V29.1816H106.795V28.7012H107.431V28.2141C107.431 27.9073 107.528 27.6615 107.722 27.4766C107.92 27.2871 108.196 27.1924 108.547 27.1924C108.71 27.1924 108.854 27.2082 108.98 27.2397C109.111 27.2668 109.251 27.3119 109.4 27.3751L109.204 27.8284C109.001 27.7382 108.793 27.6931 108.581 27.6931Z" fill="#6A9EED"/>
<path d="M106.015 28.7011V32.2668H105.392V28.7011H106.015ZM105.697 26.9893C105.828 26.9893 105.934 27.0299 106.015 27.111C106.096 27.1922 106.136 27.2937 106.136 27.4155C106.136 27.5373 106.096 27.6388 106.015 27.72C105.934 27.7967 105.828 27.835 105.697 27.835C105.57 27.835 105.467 27.7967 105.385 27.72C105.304 27.6388 105.264 27.5373 105.264 27.4155C105.264 27.2937 105.304 27.1922 105.385 27.111C105.467 27.0299 105.57 26.9893 105.697 26.9893Z" fill="#6A9EED"/>
<path d="M143.84 30.0747V29.5537H146.384V30.0747H143.84ZM143.84 31.3806V30.8596H146.384V31.3806H143.84Z" fill="white"/>
<path d="M140.389 30.0747V29.5537H142.933V30.0747H140.389ZM140.389 31.3806V30.8596H142.933V31.3806H140.389Z" fill="white"/>
<path d="M139.55 30.8188C139.55 30.9225 139.545 31.0285 139.536 31.1368H137.263C137.29 31.5292 137.389 31.8179 137.56 32.0028C137.732 32.1878 137.953 32.2802 138.223 32.2802C138.395 32.2802 138.553 32.2554 138.697 32.2058C138.841 32.1562 138.993 32.0773 139.15 31.969L139.421 32.3411C139.042 32.6388 138.627 32.7877 138.176 32.7877C137.68 32.7877 137.292 32.6253 137.012 32.3005C136.737 31.9758 136.6 31.5292 136.6 30.9608C136.6 30.591 136.658 30.2639 136.776 29.9798C136.897 29.6911 137.069 29.4655 137.29 29.3032C137.515 29.1408 137.779 29.0596 138.081 29.0596C138.555 29.0596 138.918 29.2152 139.171 29.5264C139.423 29.8377 139.55 30.2684 139.55 30.8188ZM138.934 30.6361C138.934 30.2842 138.864 30.0158 138.724 29.8309C138.584 29.646 138.375 29.5535 138.095 29.5535C137.585 29.5535 137.308 29.9279 137.263 30.6767H138.934V30.6361Z" fill="white"/>
<path d="M136.243 32.5447C136.008 32.707 135.742 32.7882 135.445 32.7882C135.142 32.7882 134.906 32.7025 134.734 32.5311C134.567 32.3552 134.484 32.1026 134.484 31.7733V29.6217H133.861V29.1413H134.484V28.3361L135.106 28.2617V29.1413H135.952L135.884 29.6217H135.106V31.7463C135.106 31.9312 135.138 32.0665 135.201 32.1522C135.269 32.2334 135.379 32.274 135.533 32.274C135.672 32.274 135.83 32.2267 136.006 32.1319L136.243 32.5447Z" fill="white"/>
<path d="M133.098 31.8743C133.098 32.0186 133.123 32.1269 133.172 32.199C133.222 32.2667 133.296 32.3186 133.395 32.3547L133.253 32.7877C133.068 32.7651 132.92 32.7133 132.807 32.6321C132.694 32.5509 132.611 32.4246 132.556 32.2532C132.317 32.6095 131.963 32.7877 131.494 32.7877C131.142 32.7877 130.865 32.6885 130.662 32.49C130.459 32.2915 130.357 32.0321 130.357 31.7119C130.357 31.333 130.493 31.042 130.763 30.8391C131.039 30.6361 131.426 30.5346 131.927 30.5346H132.475V30.2707C132.475 30.0181 132.414 29.8377 132.293 29.7294C132.171 29.6212 131.984 29.567 131.731 29.567C131.469 29.567 131.149 29.6302 130.77 29.7565L130.615 29.3032C131.057 29.1408 131.467 29.0596 131.846 29.0596C132.265 29.0596 132.579 29.1633 132.786 29.3708C132.994 29.5738 133.098 29.8647 133.098 30.2436V31.8743ZM131.636 32.3208C131.993 32.3208 132.272 32.1359 132.475 31.766V30.9473H132.008C131.35 30.9473 131.021 31.1909 131.021 31.6781C131.021 31.8901 131.072 32.0502 131.176 32.1584C131.28 32.2667 131.433 32.3208 131.636 32.3208Z" fill="white"/>
<path d="M130.03 32.5447C129.796 32.707 129.529 32.7882 129.232 32.7882C128.929 32.7882 128.693 32.7025 128.521 32.5311C128.354 32.3552 128.271 32.1026 128.271 31.7733V29.6217H127.648V29.1413H128.271V28.3361L128.893 28.2617V29.1413H129.739L129.672 29.6217H128.893V31.7463C128.893 31.9312 128.925 32.0665 128.988 32.1522C129.056 32.2334 129.166 32.274 129.32 32.274C129.459 32.274 129.617 32.2267 129.793 32.1319L130.03 32.5447Z" fill="white"/>
<path d="M125.66 27.9639C125.971 27.9639 126.237 28.009 126.458 28.0992C126.679 28.1849 126.893 28.3202 127.101 28.5052L126.749 28.8976C126.573 28.7578 126.399 28.6563 126.228 28.5931C126.061 28.5255 125.881 28.4916 125.687 28.4916C125.443 28.4916 125.242 28.548 125.085 28.6608C124.927 28.7735 124.848 28.9382 124.848 29.1547C124.848 29.29 124.875 29.405 124.929 29.4998C124.983 29.59 125.082 29.6734 125.227 29.7501C125.375 29.8268 125.59 29.908 125.869 29.9937C126.163 30.0839 126.406 30.1809 126.6 30.2846C126.794 30.3884 126.95 30.5327 127.067 30.7177C127.189 30.8981 127.25 31.1281 127.25 31.4078C127.25 31.6785 127.182 31.9175 127.047 32.125C126.916 32.3325 126.724 32.4949 126.472 32.6122C126.223 32.7295 125.928 32.7881 125.585 32.7881C124.94 32.7881 124.412 32.5874 124.002 32.1859L124.354 31.7935C124.543 31.9468 124.735 32.0641 124.929 32.1453C125.123 32.222 125.339 32.2603 125.578 32.2603C125.867 32.2603 126.106 32.1904 126.296 32.0506C126.485 31.9063 126.58 31.6988 126.58 31.4281C126.58 31.2747 126.551 31.1484 126.492 31.0492C126.433 30.9455 126.332 30.853 126.187 30.7718C126.048 30.6906 125.842 30.6094 125.572 30.5282C125.094 30.3839 124.744 30.2102 124.523 30.0072C124.302 29.8042 124.191 29.5291 124.191 29.1818C124.191 28.9472 124.252 28.7375 124.374 28.5525C124.5 28.3676 124.674 28.2232 124.895 28.1195C125.121 28.0157 125.375 27.9639 125.66 27.9639Z" fill="white"/>
<path d="M120.496 33.6673V33.1328H123.784V33.6673H120.496Z" fill="white"/>
<path d="M118.734 29.0596C119.027 29.0596 119.261 29.1588 119.437 29.3573C119.613 29.5512 119.701 29.8151 119.701 30.1489V32.7065H119.079V30.2369C119.079 29.7768 118.912 29.5467 118.578 29.5467C118.402 29.5467 118.253 29.5986 118.131 29.7024C118.01 29.8016 117.879 29.9595 117.739 30.176V32.7065H117.116V30.2369C117.116 29.7768 116.95 29.5467 116.616 29.5467C116.435 29.5467 116.284 29.5986 116.162 29.7024C116.041 29.8061 115.912 29.964 115.777 30.176V32.7065H115.154V29.1408H115.689L115.743 29.6618C116.009 29.2603 116.352 29.0596 116.771 29.0596C116.992 29.0596 117.18 29.116 117.333 29.2287C117.491 29.3415 117.604 29.4994 117.671 29.7024C117.811 29.4949 117.964 29.337 118.131 29.2287C118.303 29.116 118.504 29.0596 118.734 29.0596Z" fill="white"/>
<path d="M114.172 27.2599C113.938 27.6072 113.751 27.9185 113.611 28.1936C113.476 28.4643 113.367 28.7733 113.286 29.1206C113.209 29.4679 113.171 29.8739 113.171 30.3385C113.171 30.7986 113.209 31.2023 113.286 31.5496C113.367 31.8969 113.476 32.2104 113.611 32.4901C113.751 32.7653 113.938 33.0742 114.172 33.4171L113.78 33.6877C113.482 33.2637 113.252 32.9164 113.09 32.6457C112.932 32.3706 112.797 32.0435 112.684 31.6646C112.576 31.2812 112.521 30.8392 112.521 30.3385C112.521 29.8378 112.576 29.398 112.684 29.0191C112.797 28.6357 112.932 28.3086 113.09 28.038C113.252 27.7628 113.482 27.4133 113.78 26.9893L114.172 27.2599Z" fill="white"/>
<rect width="31.8781" height="8.82423" transform="translate(149.506 26.9893)" fill="#A8650F"/>
<path d="M180.343 31.8441C180.343 31.9479 180.338 32.0539 180.329 32.1622H178.056C178.083 32.5546 178.182 32.8433 178.353 33.0282C178.525 33.2132 178.746 33.3056 179.016 33.3056C179.188 33.3056 179.346 33.2808 179.49 33.2312C179.634 33.1816 179.786 33.1026 179.943 32.9944L180.214 33.3665C179.835 33.6642 179.42 33.8131 178.969 33.8131C178.473 33.8131 178.085 33.6507 177.805 33.3259C177.53 33.0012 177.393 32.5546 177.393 31.9862C177.393 31.6164 177.451 31.2893 177.568 31.0052C177.69 30.7165 177.862 30.4909 178.083 30.3285C178.308 30.1662 178.572 30.085 178.874 30.085C179.348 30.085 179.711 30.2406 179.964 30.5518C180.216 30.8631 180.343 31.2938 180.343 31.8441ZM179.727 31.6615C179.727 31.3096 179.657 31.0412 179.517 30.8563C179.377 30.6714 179.168 30.5789 178.888 30.5789C178.378 30.5789 178.101 30.9533 178.056 31.7021H179.727V31.6615Z" fill="white"/>
<path d="M177.036 33.5701C176.801 33.7324 176.535 33.8136 176.238 33.8136C175.935 33.8136 175.699 33.7279 175.527 33.5565C175.36 33.3806 175.277 33.128 175.277 32.7987V30.6471H174.654V30.1667H175.277V29.3615L175.899 29.2871V30.1667H176.745L176.677 30.6471H175.899V32.7717C175.899 32.9566 175.931 33.0919 175.994 33.1776C176.062 33.2588 176.172 33.2994 176.326 33.2994C176.465 33.2994 176.623 33.252 176.799 33.1573L177.036 33.5701Z" fill="white"/>
<path d="M173.891 32.8997C173.891 33.044 173.915 33.1523 173.965 33.2244C174.015 33.2921 174.089 33.344 174.188 33.3801L174.046 33.8131C173.861 33.7905 173.712 33.7387 173.6 33.6575C173.487 33.5763 173.404 33.45 173.349 33.2786C173.11 33.6349 172.756 33.8131 172.287 33.8131C171.935 33.8131 171.658 33.7138 171.455 33.5154C171.252 33.3169 171.15 33.0575 171.15 32.7373C171.15 32.3584 171.286 32.0674 171.556 31.8644C171.832 31.6615 172.219 31.56 172.72 31.56H173.268V31.2961C173.268 31.0435 173.207 30.8631 173.085 30.7548C172.964 30.6465 172.777 30.5924 172.524 30.5924C172.262 30.5924 171.942 30.6556 171.563 30.7819L171.408 30.3285C171.85 30.1662 172.26 30.085 172.639 30.085C173.058 30.085 173.372 30.1887 173.579 30.3962C173.787 30.5992 173.891 30.8901 173.891 31.269V32.8997ZM172.429 33.3462C172.786 33.3462 173.065 33.1613 173.268 32.7914V31.9727H172.801C172.143 31.9727 171.813 32.2163 171.813 32.7034C171.813 32.9154 171.865 33.0756 171.969 33.1838C172.073 33.2921 172.226 33.3462 172.429 33.3462Z" fill="white"/>
<path d="M170.823 33.5701C170.589 33.7324 170.322 33.8136 170.025 33.8136C169.722 33.8136 169.486 33.7279 169.314 33.5565C169.147 33.3806 169.064 33.128 169.064 32.7987V30.6471H168.441V30.1667H169.064V29.3615L169.686 29.2871V30.1667H170.532L170.464 30.6471H169.686V32.7717C169.686 32.9566 169.718 33.0919 169.781 33.1776C169.849 33.2588 169.959 33.2994 170.113 33.2994C170.252 33.2994 170.41 33.252 170.586 33.1573L170.823 33.5701Z" fill="white"/>
<path d="M166.453 28.9893C166.764 28.9893 167.03 29.0344 167.251 29.1246C167.472 29.2103 167.686 29.3456 167.894 29.5305L167.542 29.923C167.366 29.7831 167.192 29.6817 167.021 29.6185C166.854 29.5508 166.674 29.517 166.48 29.517C166.236 29.517 166.035 29.5734 165.877 29.6862C165.72 29.7989 165.641 29.9636 165.641 30.1801C165.641 30.3154 165.668 30.4304 165.722 30.5252C165.776 30.6154 165.875 30.6988 166.02 30.7755C166.168 30.8522 166.383 30.9334 166.662 31.0191C166.956 31.1093 167.199 31.2063 167.393 31.31C167.587 31.4138 167.743 31.5581 167.86 31.7431C167.982 31.9235 168.043 32.1535 168.043 32.4332C168.043 32.7039 167.975 32.9429 167.84 33.1504C167.709 33.3579 167.517 33.5203 167.265 33.6376C167.016 33.7549 166.721 33.8135 166.378 33.8135C165.733 33.8135 165.205 33.6128 164.795 33.2113L165.147 32.8189C165.336 32.9722 165.528 33.0895 165.722 33.1707C165.916 33.2474 166.132 33.2857 166.371 33.2857C166.66 33.2857 166.899 33.2158 167.089 33.076C167.278 32.9316 167.373 32.7241 167.373 32.4535C167.373 32.3001 167.343 32.1738 167.285 32.0746C167.226 31.9709 167.125 31.8784 166.98 31.7972C166.841 31.716 166.635 31.6348 166.365 31.5536C165.887 31.4093 165.537 31.2356 165.316 31.0326C165.095 30.8296 164.984 30.5545 164.984 30.2072C164.984 29.9726 165.045 29.7628 165.167 29.5779C165.293 29.393 165.467 29.2486 165.688 29.1449C165.914 29.0411 166.168 28.9893 166.453 28.9893Z" fill="white"/>
<path d="M164.139 30.085C164.266 30.085 164.383 30.0985 164.491 30.1256L164.376 30.7345C164.268 30.7074 164.164 30.6939 164.065 30.6939C163.844 30.6939 163.666 30.7751 163.53 30.9375C163.395 31.0999 163.289 31.3525 163.212 31.6953V33.7319H162.59V30.1662H163.124L163.185 30.8901C163.28 30.624 163.409 30.4233 163.571 30.2879C163.733 30.1526 163.923 30.085 164.139 30.085Z" fill="white"/>
<path d="M161.244 32.8997C161.244 33.044 161.269 33.1523 161.319 33.2244C161.368 33.2921 161.443 33.344 161.542 33.3801L161.4 33.8131C161.215 33.7905 161.066 33.7387 160.953 33.6575C160.84 33.5763 160.757 33.45 160.703 33.2786C160.464 33.6349 160.11 33.8131 159.641 33.8131C159.289 33.8131 159.011 33.7138 158.808 33.5154C158.605 33.3169 158.504 33.0575 158.504 32.7373C158.504 32.3584 158.639 32.0674 158.91 31.8644C159.185 31.6615 159.573 31.56 160.074 31.56H160.622V31.2961C160.622 31.0435 160.561 30.8631 160.439 30.7548C160.317 30.6465 160.13 30.5924 159.877 30.5924C159.616 30.5924 159.296 30.6556 158.917 30.7819L158.761 30.3285C159.203 30.1662 159.614 30.085 159.992 30.085C160.412 30.085 160.725 30.1887 160.933 30.3962C161.14 30.5992 161.244 30.8901 161.244 31.269V32.8997ZM159.783 33.3462C160.139 33.3462 160.419 33.1613 160.622 32.7914V31.9727H160.155C159.496 31.9727 159.167 32.2163 159.167 32.7034C159.167 32.9154 159.219 33.0756 159.323 33.1838C159.426 33.2921 159.58 33.3462 159.783 33.3462Z" fill="white"/>
<path d="M157.847 31.8441C157.847 31.9479 157.842 32.0539 157.833 32.1622H155.56C155.587 32.5546 155.686 32.8433 155.857 33.0282C156.029 33.2132 156.25 33.3056 156.52 33.3056C156.692 33.3056 156.85 33.2808 156.994 33.2312C157.138 33.1816 157.289 33.1026 157.447 32.9944L157.718 33.3665C157.339 33.6642 156.924 33.8131 156.473 33.8131C155.977 33.8131 155.589 33.6507 155.309 33.3259C155.034 33.0012 154.896 32.5546 154.896 31.9862C154.896 31.6164 154.955 31.2893 155.072 31.0052C155.194 30.7165 155.366 30.4909 155.587 30.3285C155.812 30.1662 156.076 30.085 156.378 30.085C156.852 30.085 157.215 30.2406 157.468 30.5518C157.72 30.8631 157.847 31.2938 157.847 31.8441ZM157.231 31.6615C157.231 31.3096 157.161 31.0412 157.021 30.8563C156.881 30.6714 156.671 30.5789 156.392 30.5789C155.882 30.5789 155.605 30.9533 155.56 31.7021H157.231V31.6615Z" fill="white"/>
<path d="M152.57 28.9893C152.863 28.9893 153.116 29.0321 153.328 29.1178C153.544 29.199 153.759 29.3276 153.971 29.5035L153.592 29.8959C153.425 29.7606 153.265 29.6636 153.111 29.605C152.958 29.5463 152.777 29.517 152.57 29.517C152.331 29.517 152.11 29.5824 151.907 29.7132C151.708 29.8395 151.546 30.0448 151.42 30.3289C151.293 30.6086 151.23 30.965 151.23 31.398C151.23 32.052 151.336 32.5302 151.548 32.8324C151.765 33.1346 152.083 33.2857 152.502 33.2857C152.845 33.2857 153.141 33.2158 153.389 33.076V31.6686H152.563L152.489 31.1476H154.025V33.4008C153.542 33.6759 153.035 33.8135 152.502 33.8135C151.889 33.8135 151.408 33.6083 151.061 33.1978C150.718 32.7873 150.547 32.1874 150.547 31.398C150.547 30.8928 150.637 30.4598 150.818 30.0989C151.002 29.7335 151.248 29.4584 151.555 29.2734C151.866 29.084 152.205 28.9893 152.57 28.9893Z" fill="white"/>
<path d="M281.749 28.5391L284.232 29.6961V30.3321L281.749 31.4891L281.525 30.9884L283.738 30.0141L281.525 29.0533L281.749 28.5391Z" fill="white"/>
<path d="M278.911 30.3793C278.911 30.4831 278.906 30.5891 278.897 30.6973H276.624C276.651 31.0897 276.75 31.3784 276.922 31.5634C277.093 31.7483 277.314 31.8408 277.585 31.8408C277.756 31.8408 277.914 31.816 278.058 31.7664C278.203 31.7167 278.354 31.6378 278.512 31.5295L278.782 31.9017C278.404 32.1994 277.989 32.3482 277.537 32.3482C277.041 32.3482 276.653 32.1859 276.374 31.8611C276.099 31.5363 275.961 31.0897 275.961 30.5214C275.961 30.1515 276.02 29.8245 276.137 29.5403C276.259 29.2516 276.43 29.0261 276.651 28.8637C276.877 28.7013 277.14 28.6201 277.443 28.6201C277.916 28.6201 278.279 28.7757 278.532 29.087C278.785 29.3982 278.911 29.829 278.911 30.3793ZM278.295 30.1966C278.295 29.8448 278.225 29.5764 278.085 29.3915C277.946 29.2065 277.736 29.114 277.456 29.114C276.947 29.114 276.669 29.4884 276.624 30.2372H278.295V30.1966Z" fill="white"/>
<path d="M274.867 27.2668V32.267H274.319L274.258 31.773C274.14 31.9535 273.994 32.0956 273.818 32.1993C273.642 32.2985 273.446 32.3482 273.229 32.3482C272.805 32.3482 272.474 32.1813 272.235 31.8475C272 31.5137 271.883 31.0649 271.883 30.501C271.883 30.1356 271.939 29.8109 272.052 29.5267C272.165 29.2425 272.327 29.0215 272.539 28.8636C272.751 28.7012 272.999 28.62 273.283 28.62C273.649 28.62 273.969 28.7666 274.244 29.0598V27.1924L274.867 27.2668ZM273.365 31.8542C273.554 31.8542 273.716 31.8114 273.852 31.7257C273.987 31.6355 274.118 31.5024 274.244 31.3265V29.5808C274.127 29.4275 274.001 29.3124 273.865 29.2357C273.734 29.1546 273.586 29.114 273.419 29.114C273.144 29.114 272.929 29.229 272.776 29.459C272.627 29.6891 272.553 30.0319 272.553 30.4875C272.553 30.9476 272.623 31.2904 272.762 31.5159C272.902 31.7415 273.103 31.8542 273.365 31.8542Z" fill="white"/>
<path d="M270.753 32.2669H270.218L270.171 31.7121C270.035 31.9331 269.88 32.0955 269.704 32.1992C269.528 32.2985 269.314 32.3481 269.061 32.3481C268.75 32.3481 268.506 32.2534 268.33 32.0639C268.154 31.8745 268.066 31.6061 268.066 31.2588V28.7012H268.689V31.1911C268.689 31.4347 268.732 31.6083 268.817 31.7121C268.903 31.8113 269.043 31.8609 269.237 31.8609C269.584 31.8609 269.882 31.6557 270.13 31.2452V28.7012H270.753V32.2669Z" fill="white"/>
<path d="M267.388 32.1042C267.153 32.2666 266.887 32.3478 266.589 32.3478C266.287 32.3478 266.05 32.2621 265.879 32.0907C265.712 31.9148 265.628 31.6622 265.628 31.3329V29.1813H265.006V28.7009H265.628V27.8957L266.251 27.8213V28.7009H267.097L267.029 29.1813H266.251V31.3058C266.251 31.4908 266.282 31.6261 266.346 31.7118C266.413 31.793 266.524 31.8336 266.677 31.8336C266.817 31.8336 266.975 31.7862 267.151 31.6915L267.388 32.1042Z" fill="white"/>
<path d="M264.233 28.7011V32.2668H263.611V28.7011H264.233ZM263.915 26.9893C264.046 26.9893 264.152 27.0299 264.233 27.111C264.315 27.1922 264.355 27.2937 264.355 27.4155C264.355 27.5373 264.315 27.6388 264.233 27.72C264.152 27.7967 264.046 27.835 263.915 27.835C263.789 27.835 263.685 27.7967 263.604 27.72C263.523 27.6388 263.482 27.5373 263.482 27.4155C263.482 27.2937 263.523 27.1922 263.604 27.111C263.685 27.0299 263.789 26.9893 263.915 26.9893Z" fill="white"/>
<path d="M262.897 32.1042C262.663 32.2666 262.397 32.3478 262.099 32.3478C261.797 32.3478 261.56 32.2621 261.388 32.0907C261.222 31.9148 261.138 31.6622 261.138 31.3329V29.1813H260.516V28.7009H261.138V27.8957L261.761 27.8213V28.7009H262.606L262.539 29.1813H261.761V31.3058C261.761 31.4908 261.792 31.6261 261.855 31.7118C261.923 31.793 262.033 31.8336 262.187 31.8336C262.327 31.8336 262.485 31.7862 262.66 31.6915L262.897 32.1042Z" fill="white"/>
<path d="M259.758 32.3482C259.528 32.3482 259.345 32.2805 259.21 32.1452C259.079 32.0053 259.014 31.8114 259.014 31.5633V27.2668L259.636 27.1924V31.5498C259.636 31.649 259.652 31.7212 259.684 31.7663C259.72 31.8114 259.778 31.8339 259.859 31.8339C259.945 31.8339 260.022 31.8204 260.089 31.7933L260.252 32.2264C260.103 32.3076 259.938 32.3482 259.758 32.3482Z" fill="white"/>
<path d="M257.619 32.2663L257.267 31.0958H255.501L255.15 32.2663H254.5L255.995 27.6045H256.807L258.296 32.2663H257.619ZM255.657 30.5748H257.112L256.388 28.139L255.657 30.5748Z" fill="white"/>
<path d="M253.545 31.4072C253.68 31.4072 253.793 31.4523 253.883 31.5425C253.974 31.6328 254.019 31.7433 254.019 31.8741C254.019 32.0049 253.974 32.1177 253.883 32.2124C253.793 32.3026 253.68 32.3477 253.545 32.3477C253.414 32.3477 253.304 32.3026 253.213 32.2124C253.123 32.1177 253.078 32.0049 253.078 31.8741C253.078 31.7433 253.123 31.6328 253.213 31.5425C253.304 31.4523 253.414 31.4072 253.545 31.4072Z" fill="white"/>
<path d="M252.388 30.3793C252.388 30.4831 252.383 30.5891 252.374 30.6973H250.101C250.128 31.0897 250.227 31.3784 250.398 31.5634C250.57 31.7483 250.791 31.8408 251.061 31.8408C251.233 31.8408 251.391 31.816 251.535 31.7664C251.679 31.7167 251.83 31.6378 251.988 31.5295L252.259 31.9017C251.88 32.1994 251.465 32.3482 251.014 32.3482C250.518 32.3482 250.13 32.1859 249.85 31.8611C249.575 31.5363 249.438 31.0897 249.438 30.5214C249.438 30.1515 249.496 29.8245 249.613 29.5403C249.735 29.2516 249.907 29.0261 250.128 28.8637C250.353 28.7013 250.617 28.6201 250.919 28.6201C251.393 28.6201 251.756 28.7757 252.009 29.087C252.261 29.3982 252.388 29.829 252.388 30.3793ZM251.772 30.1966C251.772 29.8448 251.702 29.5764 251.562 29.3915C251.422 29.2065 251.212 29.114 250.933 29.114C250.423 29.114 250.146 29.4884 250.101 30.2372H251.772V30.1966Z" fill="white"/>
<path d="M247.34 28.6201C247.665 28.6201 247.917 28.7171 248.098 28.9111C248.283 29.105 248.375 29.3712 248.375 29.7095V32.267H247.753V29.7974C247.753 29.5448 247.705 29.3666 247.611 29.2629C247.516 29.1592 247.376 29.1073 247.191 29.1073C247.002 29.1073 246.835 29.1614 246.691 29.2697C246.546 29.3779 246.411 29.5335 246.285 29.7365V32.267H245.662V28.7013H246.197L246.251 29.2291C246.377 29.0396 246.533 28.8908 246.718 28.7825C246.907 28.6742 247.115 28.6201 247.34 28.6201Z" fill="white"/>
<path d="M244.314 31.4348C244.314 31.5792 244.339 31.6874 244.389 31.7596C244.439 31.8273 244.513 31.8791 244.612 31.9152L244.47 32.3482C244.285 32.3257 244.136 32.2738 244.024 32.1926C243.911 32.1114 243.827 31.9851 243.773 31.8137C243.534 32.1701 243.18 32.3482 242.711 32.3482C242.359 32.3482 242.082 32.249 241.879 32.0505C241.676 31.8521 241.574 31.5927 241.574 31.2724C241.574 30.8935 241.71 30.6026 241.98 30.3996C242.255 30.1966 242.643 30.0951 243.144 30.0951H243.692V29.8313C243.692 29.5786 243.631 29.3982 243.509 29.29C243.388 29.1817 243.2 29.1276 242.948 29.1276C242.686 29.1276 242.366 29.1907 241.987 29.317L241.831 28.8637C242.273 28.7013 242.684 28.6201 243.063 28.6201C243.482 28.6201 243.796 28.7239 244.003 28.9314C244.211 29.1343 244.314 29.4253 244.314 29.8042V31.4348ZM242.853 31.8814C243.209 31.8814 243.489 31.6964 243.692 31.3266V30.5079H243.225C242.567 30.5079 242.237 30.7514 242.237 31.2386C242.237 31.4506 242.289 31.6107 242.393 31.719C242.497 31.8273 242.65 31.8814 242.853 31.8814Z" fill="white"/>
<path d="M240.608 32.3482C240.378 32.3482 240.195 32.2805 240.06 32.1452C239.929 32.0053 239.863 31.8114 239.863 31.5633V27.2668L240.486 27.1924V31.5498C240.486 31.649 240.502 31.7212 240.533 31.7663C240.569 31.8114 240.628 31.8339 240.709 31.8339C240.795 31.8339 240.871 31.8204 240.939 31.7933L241.101 32.2264C240.953 32.3076 240.788 32.3482 240.608 32.3482Z" fill="white"/>
<path d="M237.223 27.6045C237.8 27.6045 238.247 27.7263 238.562 27.9699C238.878 28.2089 239.036 28.5675 239.036 29.0457C239.036 29.5554 238.871 29.9343 238.542 30.1824C238.213 30.4305 237.775 30.5545 237.229 30.5545H236.641V32.2663H235.998V27.6045H237.223ZM237.202 30.0471C237.577 30.0471 237.861 29.9749 238.055 29.8305C238.253 29.6862 238.353 29.4268 238.353 29.0524C238.353 28.7186 238.253 28.4773 238.055 28.3285C237.861 28.1796 237.581 28.1052 237.216 28.1052H236.641V30.0471H237.202Z" fill="white"/>
<path d="M231.854 33.2279V32.6934H235.142V33.2279H231.854Z" fill="white"/>
<path d="M230.091 28.6201C230.384 28.6201 230.619 28.7194 230.795 28.9178C230.971 29.1118 231.059 29.3757 231.059 29.7095V32.267H230.436V29.7974C230.436 29.3373 230.269 29.1073 229.935 29.1073C229.759 29.1073 229.611 29.1592 229.489 29.2629C229.367 29.3621 229.236 29.52 229.096 29.7365V32.267H228.474V29.7974C228.474 29.3373 228.307 29.1073 227.973 29.1073C227.793 29.1073 227.642 29.1592 227.52 29.2629C227.398 29.3666 227.27 29.5245 227.134 29.7365V32.267H226.512V28.7013H227.046L227.1 29.2223C227.367 28.8208 227.709 28.6201 228.129 28.6201C228.35 28.6201 228.537 28.6765 228.69 28.7893C228.848 28.902 228.961 29.0599 229.029 29.2629C229.169 29.0554 229.322 28.8975 229.489 28.7893C229.66 28.6765 229.861 28.6201 230.091 28.6201Z" fill="white"/>
<path d="M221.058 27.5234C221.301 27.5234 221.516 27.5685 221.701 27.6588C221.89 27.7445 222.037 27.8663 222.14 28.0241C222.244 28.182 222.296 28.3579 222.296 28.5519C222.296 28.818 222.21 29.0481 222.039 29.242C221.872 29.4315 221.64 29.6142 221.342 29.7901L222.533 30.9133C222.713 30.5479 222.849 30.1667 222.939 29.7698L223.521 29.9389C223.363 30.4622 223.162 30.9065 222.918 31.2719L223.676 31.9823L223.23 32.3477L222.573 31.7117C222.379 31.9237 222.161 32.0838 221.917 32.1921C221.674 32.2958 221.394 32.3477 221.078 32.3477C220.78 32.3477 220.517 32.2958 220.286 32.1921C220.061 32.0883 219.883 31.9417 219.752 31.7523C219.626 31.5583 219.562 31.335 219.562 31.0824C219.562 30.8027 219.641 30.5592 219.799 30.3517C219.957 30.1397 220.192 29.9344 220.503 29.736C220.277 29.5194 220.111 29.3255 220.002 29.1541C219.899 28.9827 219.847 28.7887 219.847 28.5722C219.847 28.2655 219.953 28.0151 220.165 27.8211C220.381 27.6227 220.679 27.5234 221.058 27.5234ZM221.065 27.9835C220.875 27.9835 220.726 28.0377 220.618 28.1459C220.51 28.2542 220.456 28.394 220.456 28.5654C220.456 28.7278 220.498 28.8744 220.584 29.0052C220.67 29.1315 220.805 29.2826 220.99 29.4585C221.22 29.3187 221.394 29.1811 221.511 29.0458C221.628 28.906 221.687 28.7526 221.687 28.5857C221.687 28.3963 221.631 28.2497 221.518 28.1459C221.405 28.0377 221.254 27.9835 221.065 27.9835ZM220.862 30.0743C220.636 30.2231 220.469 30.3765 220.361 30.5344C220.253 30.6877 220.199 30.8636 220.199 31.0621C220.199 31.3102 220.284 31.5042 220.456 31.644C220.632 31.7838 220.862 31.8537 221.146 31.8537C221.358 31.8537 221.549 31.8131 221.721 31.732C221.892 31.6508 222.057 31.529 222.215 31.3666L220.862 30.0743Z" fill="white"/>
<path d="M216.06 27.5234C216.303 27.5234 216.518 27.5685 216.703 27.6588C216.892 27.7445 217.039 27.8663 217.142 28.0241C217.246 28.182 217.298 28.3579 217.298 28.5519C217.298 28.818 217.212 29.0481 217.041 29.242C216.874 29.4315 216.642 29.6142 216.344 29.7901L217.535 30.9133C217.715 30.5479 217.851 30.1667 217.941 29.7698L218.523 29.9389C218.365 30.4622 218.164 30.9065 217.92 31.2719L218.678 31.9823L218.232 32.3477L217.575 31.7117C217.381 31.9237 217.163 32.0838 216.919 32.1921C216.675 32.2958 216.396 32.3477 216.08 32.3477C215.782 32.3477 215.518 32.2958 215.288 32.1921C215.063 32.0883 214.885 31.9417 214.754 31.7523C214.628 31.5583 214.564 31.335 214.564 31.0824C214.564 30.8027 214.643 30.5592 214.801 30.3517C214.959 30.1397 215.194 29.9344 215.505 29.736C215.279 29.5194 215.113 29.3255 215.004 29.1541C214.901 28.9827 214.849 28.7887 214.849 28.5722C214.849 28.2655 214.955 28.0151 215.167 27.8211C215.383 27.6227 215.681 27.5234 216.06 27.5234ZM216.067 27.9835C215.877 27.9835 215.728 28.0377 215.62 28.1459C215.512 28.2542 215.458 28.394 215.458 28.5654C215.458 28.7278 215.5 28.8744 215.586 29.0052C215.672 29.1315 215.807 29.2826 215.992 29.4585C216.222 29.3187 216.396 29.1811 216.513 29.0458C216.63 28.906 216.689 28.7526 216.689 28.5857C216.689 28.3963 216.633 28.2497 216.52 28.1459C216.407 28.0377 216.256 27.9835 216.067 27.9835ZM215.864 30.0743C215.638 30.2231 215.471 30.3765 215.363 30.5344C215.255 30.6877 215.2 30.8636 215.2 31.0621C215.2 31.3102 215.286 31.5042 215.458 31.644C215.633 31.7838 215.864 31.8537 216.148 31.8537C216.36 31.8537 216.551 31.8131 216.723 31.732C216.894 31.6508 217.059 31.529 217.217 31.3666L215.864 30.0743Z" fill="white"/>
<path d="M211.451 27.2668V32.267H210.903L210.842 31.773C210.724 31.9535 210.578 32.0956 210.402 32.1993C210.226 32.2985 210.03 32.3482 209.813 32.3482C209.389 32.3482 209.058 32.1813 208.819 31.8475C208.584 31.5137 208.467 31.0649 208.467 30.501C208.467 30.1356 208.523 29.8109 208.636 29.5267C208.749 29.2425 208.911 29.0215 209.123 28.8636C209.335 28.7012 209.583 28.62 209.867 28.62C210.233 28.62 210.553 28.7666 210.828 29.0598V27.1924L211.451 27.2668ZM209.949 31.8542C210.138 31.8542 210.3 31.8114 210.436 31.7257C210.571 31.6355 210.702 31.5024 210.828 31.3265V29.5808C210.711 29.4275 210.585 29.3124 210.449 29.2357C210.318 29.1546 210.17 29.114 210.003 29.114C209.728 29.114 209.513 29.229 209.36 29.459C209.211 29.6891 209.137 30.0319 209.137 30.4875C209.137 30.9476 209.207 31.2904 209.346 31.5159C209.486 31.7415 209.687 31.8542 209.949 31.8542Z" fill="white"/>
<path d="M207.628 30.3793C207.628 30.4831 207.623 30.5891 207.614 30.6973H205.341C205.368 31.0897 205.467 31.3784 205.639 31.5634C205.81 31.7483 206.031 31.8408 206.302 31.8408C206.473 31.8408 206.631 31.816 206.775 31.7664C206.92 31.7167 207.071 31.6378 207.229 31.5295L207.499 31.9017C207.12 32.1994 206.705 32.3482 206.254 32.3482C205.758 32.3482 205.37 32.1859 205.09 31.8611C204.815 31.5363 204.678 31.0897 204.678 30.5214C204.678 30.1515 204.736 29.8245 204.854 29.5403C204.975 29.2516 205.147 29.0261 205.368 28.8637C205.593 28.7013 205.857 28.6201 206.16 28.6201C206.633 28.6201 206.996 28.7757 207.249 29.087C207.501 29.3982 207.628 29.829 207.628 30.3793ZM207.012 30.1966C207.012 29.8448 206.942 29.5764 206.802 29.3915C206.662 29.2065 206.453 29.114 206.173 29.114C205.663 29.114 205.386 29.4884 205.341 30.2372H207.012V30.1966Z" fill="white"/>
<path d="M204.012 28.6201C204.139 28.6201 204.256 28.6336 204.364 28.6607L204.249 29.2697C204.141 29.2426 204.037 29.2291 203.938 29.2291C203.717 29.2291 203.539 29.3103 203.403 29.4726C203.268 29.635 203.162 29.8876 203.085 30.2305V32.267H202.463V28.7013H202.997L203.058 29.4253C203.153 29.1592 203.282 28.9584 203.444 28.8231C203.606 28.6878 203.796 28.6201 204.012 28.6201Z" fill="white"/>
<path d="M201.401 30.3793C201.401 30.4831 201.397 30.5891 201.388 30.6973H199.114C199.141 31.0897 199.241 31.3784 199.412 31.5634C199.583 31.7483 199.804 31.8408 200.075 31.8408C200.246 31.8408 200.404 31.816 200.549 31.7664C200.693 31.7167 200.844 31.6378 201.002 31.5295L201.273 31.9017C200.894 32.1994 200.479 32.3482 200.028 32.3482C199.531 32.3482 199.144 32.1859 198.864 31.8611C198.589 31.5363 198.451 31.0897 198.451 30.5214C198.451 30.1515 198.51 29.8245 198.627 29.5403C198.749 29.2516 198.92 29.0261 199.141 28.8637C199.367 28.7013 199.631 28.6201 199.933 28.6201C200.407 28.6201 200.77 28.7757 201.022 29.087C201.275 29.3982 201.401 29.829 201.401 30.3793ZM200.785 30.1966C200.785 29.8448 200.716 29.5764 200.576 29.3915C200.436 29.2065 200.226 29.114 199.946 29.114C199.437 29.114 199.159 29.4884 199.114 30.2372H200.785V30.1966Z" fill="white"/>
<path d="M197.864 28.7012L197.052 32.2669H196.206L195.584 29.2628L194.941 32.2669H194.115L193.283 28.7012H193.906L194.548 31.8339L195.252 28.7012H195.949L196.619 31.8339L197.268 28.7012H197.864Z" fill="white"/>
<path d="M191.11 28.6201C191.611 28.6201 191.999 28.787 192.274 29.1208C192.554 29.4546 192.694 29.9079 192.694 30.4808C192.694 30.8507 192.631 31.1777 192.504 31.4619C192.378 31.7415 192.195 31.9603 191.956 32.1182C191.717 32.2716 191.433 32.3482 191.104 32.3482C190.603 32.3482 190.213 32.1813 189.933 31.8475C189.654 31.5138 189.514 31.0604 189.514 30.4876C189.514 30.1177 189.577 29.7929 189.703 29.5132C189.829 29.2291 190.012 29.0103 190.251 28.8569C190.49 28.6991 190.777 28.6201 191.11 28.6201ZM191.11 29.1208C190.493 29.1208 190.184 29.5764 190.184 30.4876C190.184 31.3942 190.49 31.8475 191.104 31.8475C191.717 31.8475 192.024 31.392 192.024 30.4808C192.024 29.5741 191.719 29.1208 191.11 29.1208Z" fill="white"/>
<path d="M187.182 27.6045V31.7048H189.097L189.022 32.2663H186.539V27.6045H187.182Z" fill="white"/>
<path d="M184.975 31.4072C185.11 31.4072 185.223 31.4523 185.313 31.5425C185.403 31.6328 185.448 31.7433 185.448 31.8741C185.448 32.0049 185.403 32.1177 185.313 32.2124C185.223 32.3026 185.11 32.3477 184.975 32.3477C184.844 32.3477 184.733 32.3026 184.643 32.2124C184.553 32.1177 184.508 32.0049 184.508 31.8741C184.508 31.7433 184.553 31.6328 184.643 31.5425C184.733 31.4523 184.844 31.4072 184.975 31.4072Z" fill="white"/>
<path d="M247.371 36.8545C247.669 37.2785 247.896 37.6281 248.054 37.9032C248.217 38.1739 248.352 38.5009 248.46 38.8843C248.573 39.2632 248.629 39.703 248.629 40.2037C248.629 40.7044 248.573 41.1465 248.46 41.5299C248.352 41.9088 248.217 42.2358 248.054 42.511C247.896 42.7816 247.669 43.1289 247.371 43.5529L246.979 43.2823C247.213 42.9395 247.398 42.6305 247.533 42.3553C247.673 42.0757 247.781 41.7622 247.858 41.4148C247.939 41.0675 247.98 40.6638 247.98 40.2037C247.98 39.7391 247.939 39.3331 247.858 38.9858C247.781 38.6385 247.673 38.3295 247.533 38.0589C247.398 37.7837 247.213 37.4725 246.979 37.1251L247.371 36.8545Z" fill="white"/>
<path d="M244.756 37.9775C245.257 37.9775 245.633 38.1783 245.886 38.5797C246.143 38.9767 246.271 39.554 246.271 40.3118C246.271 41.0696 246.143 41.6493 245.886 42.0507C245.633 42.4522 245.257 42.6529 244.756 42.6529C244.255 42.6529 243.876 42.4522 243.619 42.0507C243.367 41.6493 243.24 41.0696 243.24 40.3118C243.24 39.554 243.367 38.9767 243.619 38.5797C243.876 38.1783 244.255 37.9775 244.756 37.9775ZM244.756 38.4715C244.463 38.4715 244.244 38.6158 244.1 38.9045C243.96 39.1932 243.89 39.6623 243.89 40.3118C243.89 40.9614 243.96 41.4328 244.1 41.726C244.244 42.0146 244.463 42.159 244.756 42.159C245.045 42.159 245.261 42.0146 245.405 41.726C245.55 41.4328 245.622 40.9614 245.622 40.3118C245.622 39.6668 245.55 39.1999 245.405 38.9113C245.261 38.6181 245.045 38.4715 244.756 38.4715Z" fill="white"/>
<path d="M238.12 38.8438L240.603 40.0008V40.6368L238.12 41.7938L237.896 41.2931L240.109 40.3188L237.896 39.358L238.12 38.8438Z" fill="white"/>
<path d="M234.372 42.5919C234.232 43.0069 234.036 43.3339 233.783 43.573C233.535 43.8166 233.179 43.9632 232.714 44.0128L232.647 43.5256C232.881 43.485 233.068 43.4264 233.208 43.3497C233.348 43.273 233.458 43.1738 233.54 43.052C233.625 42.9347 233.704 42.7746 233.776 42.5716H233.567L232.369 39.0059H233.032L233.986 42.1183L234.92 39.0059H235.563L234.372 42.5919Z" fill="white"/>
<path d="M231.686 41.7129C231.821 41.7129 231.934 41.758 232.024 41.8482C232.114 41.9384 232.159 42.0489 232.159 42.1798C232.159 42.3106 232.114 42.4233 232.024 42.5181C231.934 42.6083 231.821 42.6534 231.686 42.6534C231.555 42.6534 231.444 42.6083 231.354 42.5181C231.264 42.4233 231.219 42.3106 231.219 42.1798C231.219 42.0489 231.264 41.9384 231.354 41.8482C231.444 41.758 231.555 41.7129 231.686 41.7129Z" fill="white"/>
<path d="M229.823 42.5919C229.683 43.0069 229.487 43.3339 229.234 43.573C228.986 43.8166 228.63 43.9632 228.165 44.0128L228.098 43.5256C228.332 43.485 228.519 43.4264 228.659 43.3497C228.799 43.273 228.91 43.1738 228.991 43.052C229.077 42.9347 229.155 42.7746 229.228 42.5716H229.018L227.82 39.0059H228.483L229.437 42.1183L230.371 39.0059H231.014L229.823 42.5919Z" fill="white"/>
<path d="M227.716 42.4099C227.481 42.5723 227.215 42.6535 226.917 42.6535C226.615 42.6535 226.378 42.5678 226.207 42.3964C226.04 42.2204 225.956 41.9678 225.956 41.6386V39.4869H225.334V39.0065H225.956V38.2014L226.579 38.127V39.0065H227.425L227.357 39.4869H226.579V41.6115C226.579 41.7964 226.611 41.9318 226.674 42.0175C226.741 42.0987 226.852 42.1393 227.005 42.1393C227.145 42.1393 227.303 42.0919 227.479 41.9972L227.716 42.4099Z" fill="white"/>
<path d="M224.562 39.0058V42.5715H223.939V39.0058H224.562ZM224.244 37.2939C224.374 37.2939 224.48 37.3345 224.562 37.4157C224.643 37.4969 224.683 37.5984 224.683 37.7202C224.683 37.842 224.643 37.9435 224.562 38.0247C224.48 38.1014 224.374 38.1397 224.244 38.1397C224.117 38.1397 224.014 38.1014 223.932 38.0247C223.851 37.9435 223.811 37.842 223.811 37.7202C223.811 37.5984 223.851 37.4969 223.932 37.4157C224.014 37.3345 224.117 37.2939 224.244 37.2939Z" fill="white"/>
<path d="M221.939 38.9248C222.151 38.9248 222.345 38.9564 222.521 39.0195C222.697 39.0782 222.866 39.1752 223.028 39.3105L222.731 39.7029C222.604 39.6127 222.48 39.5473 222.359 39.5067C222.241 39.4616 222.11 39.439 221.966 39.439C221.677 39.439 221.452 39.5541 221.289 39.7841C221.132 40.0141 221.053 40.3547 221.053 40.8058C221.053 41.2569 221.132 41.5907 221.289 41.8072C221.447 42.0192 221.673 42.1252 221.966 42.1252C222.106 42.1252 222.234 42.1049 222.352 42.0643C222.469 42.0192 222.6 41.9493 222.744 41.8545L223.028 42.2605C222.704 42.5221 222.34 42.6529 221.939 42.6529C221.456 42.6529 221.075 42.4905 220.796 42.1658C220.52 41.841 220.383 41.3922 220.383 40.8193C220.383 40.4404 220.446 40.1089 220.572 39.8247C220.699 39.5405 220.877 39.3195 221.107 39.1616C221.341 39.0037 221.619 38.9248 221.939 38.9248Z" fill="white"/>
<path d="M217.96 38.9248C218.461 38.9248 218.849 39.0917 219.124 39.4255C219.404 39.7593 219.543 40.2126 219.543 40.7855C219.543 41.1554 219.48 41.4824 219.354 41.7666C219.228 42.0462 219.045 42.265 218.806 42.4229C218.567 42.5762 218.283 42.6529 217.953 42.6529C217.453 42.6529 217.062 42.486 216.783 42.1522C216.503 41.8184 216.363 41.3651 216.363 40.7923C216.363 40.4224 216.426 40.0976 216.553 39.8179C216.679 39.5338 216.862 39.315 217.101 39.1616C217.34 39.0037 217.626 38.9248 217.96 38.9248ZM217.96 39.4255C217.342 39.4255 217.033 39.8811 217.033 40.7923C217.033 41.6989 217.34 42.1522 217.953 42.1522C218.567 42.1522 218.874 41.6967 218.874 40.7855C218.874 39.8788 218.569 39.4255 217.96 39.4255Z" fill="white"/>
<path d="M215.315 42.6528C215.085 42.6528 214.902 42.5852 214.767 42.4499C214.636 42.31 214.57 42.1161 214.57 41.868V37.5715L215.193 37.4971V41.8544C215.193 41.9537 215.209 42.0259 215.24 42.071C215.276 42.1161 215.335 42.1386 215.416 42.1386C215.502 42.1386 215.578 42.1251 215.646 42.098L215.809 42.5311C215.66 42.6122 215.495 42.6528 215.315 42.6528Z" fill="white"/>
<path d="M213.542 40.684C213.542 40.7877 213.537 40.8937 213.528 41.002H211.255C211.282 41.3944 211.381 41.6831 211.553 41.8681C211.724 42.053 211.945 42.1455 212.216 42.1455C212.387 42.1455 212.545 42.1207 212.689 42.071C212.834 42.0214 212.985 41.9425 213.143 41.8342L213.413 42.2064C213.034 42.5041 212.619 42.6529 212.168 42.6529C211.672 42.6529 211.284 42.4905 211.005 42.1658C210.729 41.841 210.592 41.3944 210.592 40.8261C210.592 40.4562 210.65 40.1292 210.768 39.845C210.89 39.5563 211.061 39.3308 211.282 39.1684C211.507 39.006 211.771 38.9248 212.074 38.9248C212.547 38.9248 212.91 39.0804 213.163 39.3917C213.416 39.7029 213.542 40.1337 213.542 40.684ZM212.926 40.5013C212.926 40.1495 212.856 39.8811 212.716 39.6961C212.577 39.5112 212.367 39.4187 212.087 39.4187C211.577 39.4187 211.3 39.7931 211.255 40.5419H212.926V40.5013Z" fill="white"/>
<path d="M210.096 39.0059L208.885 42.5716H208.134L206.902 39.0059H207.579L208.513 42.0168L209.44 39.0059H210.096Z" fill="white"/>
<path d="M206.219 41.7129C206.354 41.7129 206.467 41.758 206.557 41.8482C206.647 41.9384 206.692 42.0489 206.692 42.1798C206.692 42.3106 206.647 42.4233 206.557 42.5181C206.467 42.6083 206.354 42.6534 206.219 42.6534C206.088 42.6534 205.977 42.6083 205.887 42.5181C205.797 42.4233 205.752 42.3106 205.752 42.1798C205.752 42.0489 205.797 41.9384 205.887 41.8482C205.977 41.758 206.088 41.7129 206.219 41.7129Z" fill="white"/>
<path d="M204.356 42.5919C204.216 43.0069 204.02 43.3339 203.768 43.573C203.52 43.8166 203.163 43.9632 202.699 44.0128L202.631 43.5256C202.865 43.485 203.053 43.4264 203.193 43.3497C203.332 43.273 203.443 43.1738 203.524 43.052C203.61 42.9347 203.689 42.7746 203.761 42.5716H203.551L202.354 39.0059H203.017L203.971 42.1183L204.904 39.0059H205.547L204.356 42.5919Z" fill="white"/>
<path d="M201.578 37.5715V42.5717H201.03L200.969 42.0777C200.851 42.2582 200.705 42.4002 200.529 42.504C200.353 42.6032 200.157 42.6528 199.94 42.6528C199.516 42.6528 199.185 42.4859 198.946 42.1522C198.711 41.8184 198.594 41.3695 198.594 40.8057C198.594 40.4403 198.65 40.1156 198.763 39.8314C198.876 39.5472 199.038 39.3262 199.25 39.1683C199.462 39.0059 199.71 38.9247 199.994 38.9247C200.36 38.9247 200.68 39.0713 200.955 39.3645V37.4971L201.578 37.5715ZM200.076 42.1589C200.265 42.1589 200.427 42.1161 200.563 42.0304C200.698 41.9401 200.829 41.8071 200.955 41.6312V39.8855C200.838 39.7321 200.712 39.6171 200.576 39.5404C200.445 39.4592 200.297 39.4186 200.13 39.4186C199.854 39.4186 199.64 39.5337 199.487 39.7637C199.338 39.9938 199.264 40.3366 199.264 40.7922C199.264 41.2523 199.334 41.5951 199.473 41.8206C199.613 42.0461 199.814 42.1589 200.076 42.1589Z" fill="white"/>
<path d="M196.138 38.9248C196.639 38.9248 197.026 39.0917 197.302 39.4255C197.581 39.7593 197.721 40.2126 197.721 40.7855C197.721 41.1554 197.658 41.4824 197.532 41.7666C197.405 42.0462 197.223 42.265 196.984 42.4229C196.745 42.5762 196.46 42.6529 196.131 42.6529C195.63 42.6529 195.24 42.486 194.961 42.1522C194.681 41.8184 194.541 41.3651 194.541 40.7923C194.541 40.4224 194.604 40.0976 194.73 39.8179C194.857 39.5338 195.039 39.315 195.279 39.1616C195.518 39.0037 195.804 38.9248 196.138 38.9248ZM196.138 39.4255C195.52 39.4255 195.211 39.8811 195.211 40.7923C195.211 41.6989 195.518 42.1522 196.131 42.1522C196.745 42.1522 197.051 41.6967 197.051 40.7855C197.051 39.8788 196.747 39.4255 196.138 39.4255Z" fill="white"/>
<path d="M192.344 38.9247C192.749 38.9247 193.072 39.0894 193.311 39.4186C193.55 39.7434 193.67 40.199 193.67 40.7854C193.67 41.1553 193.613 41.4823 193.501 41.7665C193.388 42.0461 193.225 42.2649 193.013 42.4228C192.801 42.5762 192.553 42.6528 192.269 42.6528C191.895 42.6528 191.579 42.495 191.322 42.1792L191.261 42.5717H190.713V37.5715L191.335 37.4971V39.4525C191.592 39.1006 191.929 38.9247 192.344 38.9247ZM192.12 42.1589C192.395 42.1589 192.61 42.0484 192.763 41.8274C192.921 41.6018 193 41.2545 193 40.7854C193 40.3027 192.928 39.9554 192.783 39.7434C192.639 39.5269 192.434 39.4186 192.168 39.4186C191.852 39.4186 191.574 39.6036 191.335 39.9735V41.6785C191.43 41.8274 191.545 41.9447 191.68 42.0304C191.82 42.1161 191.967 42.1589 192.12 42.1589Z" fill="white"/>
<path d="M189.363 37.5715V42.5717H188.815L188.754 42.0777C188.637 42.2582 188.49 42.4002 188.314 42.504C188.138 42.6032 187.942 42.6528 187.725 42.6528C187.301 42.6528 186.97 42.4859 186.731 42.1522C186.496 41.8184 186.379 41.3695 186.379 40.8057C186.379 40.4403 186.435 40.1156 186.548 39.8314C186.661 39.5472 186.823 39.3262 187.035 39.1683C187.247 39.0059 187.495 38.9247 187.779 38.9247C188.145 38.9247 188.465 39.0713 188.74 39.3645V37.4971L189.363 37.5715ZM187.861 42.1589C188.05 42.1589 188.213 42.1161 188.348 42.0304C188.483 41.9401 188.614 41.8071 188.74 41.6312V39.8855C188.623 39.7321 188.497 39.6171 188.361 39.5404C188.231 39.4592 188.082 39.4186 187.915 39.4186C187.64 39.4186 187.425 39.5337 187.272 39.7637C187.123 39.9938 187.049 40.3366 187.049 40.7922C187.049 41.2523 187.119 41.5951 187.258 41.8206C187.398 42.0461 187.599 42.1589 187.861 42.1589Z" fill="white"/>
<path d="M185.247 39.0058V42.5715H184.625V39.0058H185.247ZM184.929 37.2939C185.06 37.2939 185.166 37.3345 185.247 37.4157C185.328 37.4969 185.369 37.5984 185.369 37.7202C185.369 37.842 185.328 37.9435 185.247 38.0247C185.166 38.1014 185.06 38.1397 184.929 38.1397C184.803 38.1397 184.699 38.1014 184.618 38.0247C184.537 37.9435 184.496 37.842 184.496 37.7202C184.496 37.5984 184.537 37.4969 184.618 37.4157C184.699 37.3345 184.803 37.2939 184.929 37.2939Z" fill="white"/>
<path d="M183.918 39.168C183.782 39.2131 183.633 39.2425 183.471 39.256C183.309 39.2695 183.11 39.2763 182.876 39.2763C183.295 39.4657 183.505 39.7657 183.505 40.1762C183.505 40.5325 183.383 40.8235 183.139 41.049C182.896 41.2745 182.564 41.3873 182.145 41.3873C181.982 41.3873 181.831 41.3648 181.692 41.3197C181.637 41.3557 181.595 41.4054 181.563 41.4685C181.531 41.5271 181.516 41.588 181.516 41.6512C181.516 41.8452 181.671 41.9421 181.982 41.9421H182.551C182.79 41.9421 183.002 41.985 183.187 42.0707C183.372 42.1564 183.514 42.2737 183.613 42.4225C183.717 42.5714 183.769 42.7405 183.769 42.93C183.769 43.2773 183.627 43.5434 183.342 43.7284C183.058 43.9178 182.643 44.0126 182.098 44.0126C181.714 44.0126 181.41 43.972 181.184 43.8908C180.963 43.8141 180.805 43.6968 180.71 43.5389C180.616 43.3811 180.568 43.1781 180.568 42.93H181.13C181.13 43.0743 181.157 43.1871 181.211 43.2683C181.265 43.354 181.362 43.4171 181.502 43.4577C181.642 43.5029 181.84 43.5254 182.098 43.5254C182.472 43.5254 182.738 43.478 182.896 43.3833C183.058 43.2931 183.139 43.1555 183.139 42.9706C183.139 42.8037 183.076 42.6774 182.95 42.5917C182.824 42.506 182.648 42.4631 182.422 42.4631H181.861C181.558 42.4631 181.328 42.4 181.171 42.2737C181.017 42.1429 180.94 41.9805 180.94 41.7865C180.94 41.6692 180.974 41.5565 181.042 41.4482C181.11 41.34 181.207 41.243 181.333 41.1573C181.125 41.049 180.972 40.9159 180.873 40.7581C180.778 40.5957 180.731 40.3995 180.731 40.1694C180.731 39.9303 180.789 39.7161 180.907 39.5266C181.028 39.3372 181.193 39.1906 181.401 39.0868C181.613 38.9786 181.847 38.9245 182.104 38.9245C182.384 38.929 182.618 38.9199 182.808 38.8974C182.997 38.8703 183.153 38.8365 183.275 38.7959C183.401 38.7508 183.554 38.6876 183.735 38.6064L183.918 39.168ZM182.104 39.371C181.87 39.371 181.687 39.4454 181.556 39.5943C181.43 39.7386 181.367 39.9303 181.367 40.1694C181.367 40.413 181.432 40.6092 181.563 40.7581C181.694 40.9024 181.879 40.9746 182.118 40.9746C182.361 40.9746 182.546 40.9047 182.673 40.7648C182.803 40.6205 182.869 40.4198 182.869 40.1626C182.869 39.6349 182.614 39.371 182.104 39.371Z" fill="white"/>
<path d="M179.687 39.0058V42.5715H179.064V39.0058H179.687ZM179.369 37.2939C179.499 37.2939 179.605 37.3345 179.687 37.4157C179.768 37.4969 179.808 37.5984 179.808 37.7202C179.808 37.842 179.768 37.9435 179.687 38.0247C179.605 38.1014 179.499 38.1397 179.369 38.1397C179.242 38.1397 179.139 38.1014 179.057 38.0247C178.976 37.9435 178.936 37.842 178.936 37.7202C178.936 37.5984 178.976 37.4969 179.057 37.4157C179.139 37.3345 179.242 37.2939 179.369 37.2939Z" fill="white"/>
<path d="M176.3 40.5963H175.576V42.572H174.934V37.9102H176.158C176.74 37.9102 177.18 38.0207 177.478 38.2417C177.78 38.4627 177.931 38.792 177.931 39.2295C177.931 39.5543 177.848 39.8182 177.681 40.0212C177.514 40.2242 177.261 40.3775 176.923 40.4813L178.181 42.572H177.417L176.3 40.5963ZM176.226 40.1024C176.564 40.1024 176.819 40.0347 176.99 39.8994C177.162 39.7596 177.248 39.5363 177.248 39.2295C177.248 38.9409 177.16 38.7334 176.984 38.6071C176.812 38.4763 176.535 38.4108 176.151 38.4108H175.576V40.1024H176.226Z" fill="white"/>
<path d="M170.789 43.5326V42.998H174.077V43.5326H170.789Z" fill="white"/>
<path d="M169.028 38.9248C169.322 38.9248 169.556 39.024 169.732 39.2225C169.908 39.4165 169.996 39.6804 169.996 40.0141V42.5717H169.374V40.1021C169.374 39.642 169.207 39.412 168.873 39.412C168.697 39.412 168.548 39.4638 168.426 39.5676C168.305 39.6668 168.174 39.8247 168.034 40.0412V42.5717H167.411V40.1021C167.411 39.642 167.244 39.412 166.911 39.412C166.73 39.412 166.579 39.4638 166.457 39.5676C166.336 39.6713 166.207 39.8292 166.072 40.0412V42.5717H165.449V39.006H165.984L166.038 39.527C166.304 39.1255 166.647 38.9248 167.066 38.9248C167.287 38.9248 167.475 38.9812 167.628 39.094C167.786 39.2067 167.899 39.3646 167.966 39.5676C168.106 39.3601 168.259 39.2022 168.426 39.094C168.598 38.9812 168.798 38.9248 169.028 38.9248Z" fill="white"/>
<path d="M159.993 37.8291C160.237 37.8291 160.451 37.8742 160.636 37.9644C160.826 38.0501 160.972 38.1719 161.076 38.3298C161.18 38.4877 161.232 38.6636 161.232 38.8575C161.232 39.1237 161.146 39.3537 160.974 39.5477C160.808 39.7371 160.575 39.9198 160.278 40.0957L161.468 41.2189C161.649 40.8536 161.784 40.4724 161.874 40.0754L162.456 40.2446C162.298 40.7678 162.098 41.2122 161.854 41.5775L162.612 42.288L162.165 42.6533L161.509 42.0173C161.315 42.2293 161.096 42.3895 160.853 42.4977C160.609 42.6015 160.329 42.6533 160.014 42.6533C159.716 42.6533 159.452 42.6015 159.222 42.4977C158.996 42.394 158.818 42.2474 158.688 42.0579C158.561 41.864 158.498 41.6407 158.498 41.3881C158.498 41.1084 158.577 40.8648 158.735 40.6573C158.893 40.4453 159.127 40.2401 159.439 40.0416C159.213 39.8251 159.046 39.6311 158.938 39.4597C158.834 39.2883 158.782 39.0944 158.782 38.8778C158.782 38.5711 158.888 38.3208 159.1 38.1268C159.317 37.9283 159.614 37.8291 159.993 37.8291ZM160 38.2892C159.811 38.2892 159.662 38.3433 159.554 38.4516C159.445 38.5598 159.391 38.6997 159.391 38.8711C159.391 39.0335 159.434 39.1801 159.52 39.3109C159.605 39.4372 159.741 39.5883 159.926 39.7642C160.156 39.6244 160.329 39.4868 160.447 39.3515C160.564 39.2116 160.623 39.0583 160.623 38.8914C160.623 38.7019 160.566 38.5553 160.453 38.4516C160.341 38.3433 160.19 38.2892 160 38.2892ZM159.797 40.3799C159.572 40.5288 159.405 40.6821 159.296 40.84C159.188 40.9934 159.134 41.1693 159.134 41.3678C159.134 41.6159 159.22 41.8098 159.391 41.9497C159.567 42.0895 159.797 42.1594 160.081 42.1594C160.293 42.1594 160.485 42.1188 160.656 42.0376C160.828 41.9564 160.992 41.8346 161.15 41.6723L159.797 40.3799Z" fill="white"/>
<path d="M154.997 37.8291C155.241 37.8291 155.455 37.8742 155.64 37.9644C155.829 38.0501 155.976 38.1719 156.08 38.3298C156.184 38.4877 156.235 38.6636 156.235 38.8575C156.235 39.1237 156.15 39.3537 155.978 39.5477C155.811 39.7371 155.579 39.9198 155.281 40.0957L156.472 41.2189C156.653 40.8536 156.788 40.4724 156.878 40.0754L157.46 40.2446C157.302 40.7678 157.102 41.2122 156.858 41.5775L157.616 42.288L157.169 42.6533L156.513 42.0173C156.319 42.2293 156.1 42.3895 155.857 42.4977C155.613 42.6015 155.333 42.6533 155.018 42.6533C154.72 42.6533 154.456 42.6015 154.226 42.4977C154 42.394 153.822 42.2474 153.691 42.0579C153.565 41.864 153.502 41.6407 153.502 41.3881C153.502 41.1084 153.581 40.8648 153.739 40.6573C153.897 40.4453 154.131 40.2401 154.442 40.0416C154.217 39.8251 154.05 39.6311 153.942 39.4597C153.838 39.2883 153.786 39.0944 153.786 38.8778C153.786 38.5711 153.892 38.3208 154.104 38.1268C154.321 37.9283 154.618 37.8291 154.997 37.8291ZM155.004 38.2892C154.815 38.2892 154.666 38.3433 154.557 38.4516C154.449 38.5598 154.395 38.6997 154.395 38.8711C154.395 39.0335 154.438 39.1801 154.524 39.3109C154.609 39.4372 154.745 39.5883 154.93 39.7642C155.16 39.6244 155.333 39.4868 155.451 39.3515C155.568 39.2116 155.627 39.0583 155.627 38.8914C155.627 38.7019 155.57 38.5553 155.457 38.4516C155.345 38.3433 155.193 38.2892 155.004 38.2892ZM154.801 40.3799C154.576 40.5288 154.409 40.6821 154.3 40.84C154.192 40.9934 154.138 41.1693 154.138 41.3678C154.138 41.6159 154.224 41.8098 154.395 41.9497C154.571 42.0895 154.801 42.1594 155.085 42.1594C155.297 42.1594 155.489 42.1188 155.66 42.0376C155.832 41.9564 155.996 41.8346 156.154 41.6723L154.801 40.3799Z" fill="white"/>
<path d="M150.677 40.684C150.677 40.7877 150.672 40.8937 150.663 41.002H148.39C148.417 41.3944 148.516 41.6831 148.687 41.8681C148.859 42.053 149.08 42.1455 149.35 42.1455C149.522 42.1455 149.68 42.1207 149.824 42.071C149.968 42.0214 150.12 41.9425 150.277 41.8342L150.548 42.2064C150.169 42.5041 149.754 42.6529 149.303 42.6529C148.807 42.6529 148.419 42.4905 148.139 42.1658C147.864 41.841 147.727 41.3944 147.727 40.8261C147.727 40.4562 147.785 40.1292 147.902 39.845C148.024 39.5563 148.196 39.3308 148.417 39.1684C148.642 39.006 148.906 38.9248 149.208 38.9248C149.682 38.9248 150.045 39.0804 150.298 39.3917C150.55 39.7029 150.677 40.1337 150.677 40.684ZM150.061 40.5013C150.061 40.1495 149.991 39.8811 149.851 39.6961C149.711 39.5112 149.502 39.4187 149.222 39.4187C148.712 39.4187 148.435 39.7931 148.39 40.5419H150.061V40.5013Z" fill="white"/>
<path d="M146.632 37.5715V42.5717H146.084L146.023 42.0777C145.906 42.2582 145.759 42.4002 145.584 42.504C145.408 42.6032 145.211 42.6528 144.995 42.6528C144.571 42.6528 144.239 42.4859 144 42.1522C143.766 41.8184 143.648 41.3695 143.648 40.8057C143.648 40.4403 143.705 40.1156 143.818 39.8314C143.93 39.5472 144.093 39.3262 144.305 39.1683C144.517 39.0059 144.765 38.9247 145.049 38.9247C145.414 38.9247 145.735 39.0713 146.01 39.3645V37.4971L146.632 37.5715ZM145.13 42.1589C145.32 42.1589 145.482 42.1161 145.617 42.0304C145.753 41.9401 145.884 41.8071 146.01 41.6312V39.8855C145.893 39.7321 145.766 39.6171 145.631 39.5404C145.5 39.4592 145.351 39.4186 145.184 39.4186C144.909 39.4186 144.695 39.5337 144.542 39.7637C144.393 39.9938 144.318 40.3366 144.318 40.7922C144.318 41.2523 144.388 41.5951 144.528 41.8206C144.668 42.0461 144.869 42.1589 145.13 42.1589Z" fill="white"/>
<path d="M142.518 42.5716H141.984L141.936 42.0168C141.801 42.2378 141.645 42.4002 141.469 42.5039C141.294 42.6032 141.079 42.6528 140.827 42.6528C140.515 42.6528 140.272 42.5581 140.096 42.3686C139.92 42.1792 139.832 41.9108 139.832 41.5634V39.0059H140.455V41.4958C140.455 41.7394 140.497 41.913 140.583 42.0168C140.669 42.116 140.809 42.1656 141.003 42.1656C141.35 42.1656 141.648 41.9604 141.896 41.5499V39.0059H142.518V42.5716Z" fill="white"/>
<path d="M139.153 42.4099C138.919 42.5723 138.652 42.6535 138.355 42.6535C138.053 42.6535 137.816 42.5678 137.644 42.3964C137.477 42.2204 137.394 41.9678 137.394 41.6386V39.4869H136.771V39.0065H137.394V38.2014L138.016 38.127V39.0065H138.862L138.795 39.4869H138.016V41.6115C138.016 41.7964 138.048 41.9318 138.111 42.0175C138.179 42.0987 138.289 42.1393 138.443 42.1393C138.583 42.1393 138.74 42.0919 138.916 41.9972L139.153 42.4099Z" fill="white"/>
<path d="M135.999 39.0058V42.5715H135.377V39.0058H135.999ZM135.681 37.2939C135.812 37.2939 135.918 37.3345 135.999 37.4157C136.08 37.4969 136.121 37.5984 136.121 37.7202C136.121 37.842 136.08 37.9435 135.999 38.0247C135.918 38.1014 135.812 38.1397 135.681 38.1397C135.555 38.1397 135.451 38.1014 135.37 38.0247C135.289 37.9435 135.248 37.842 135.248 37.7202C135.248 37.5984 135.289 37.4969 135.37 37.4157C135.451 37.3345 135.555 37.2939 135.681 37.2939Z" fill="white"/>
<path d="M134.665 42.4099C134.43 42.5723 134.164 42.6535 133.866 42.6535C133.564 42.6535 133.327 42.5678 133.156 42.3964C132.989 42.2204 132.906 41.9678 132.906 41.6386V39.4869H132.283V39.0065H132.906V38.2014L133.528 38.127V39.0065H134.374L134.306 39.4869H133.528V41.6115C133.528 41.7964 133.56 41.9318 133.623 42.0175C133.691 42.0987 133.801 42.1393 133.954 42.1393C134.094 42.1393 134.252 42.0919 134.428 41.9972L134.665 42.4099Z" fill="white"/>
<path d="M131.526 42.6528C131.295 42.6528 131.113 42.5852 130.977 42.4499C130.847 42.31 130.781 42.1161 130.781 41.868V37.5715L131.404 37.4971V41.8544C131.404 41.9537 131.42 42.0259 131.451 42.071C131.487 42.1161 131.546 42.1386 131.627 42.1386C131.713 42.1386 131.789 42.1251 131.857 42.098L132.019 42.5311C131.871 42.6122 131.706 42.6528 131.526 42.6528Z" fill="white"/>
<path d="M129.385 42.572L129.033 41.4015H127.267L126.915 42.572H126.266L127.761 37.9102H128.573L130.061 42.572H129.385ZM127.423 40.8805H128.877L128.153 38.4447L127.423 40.8805Z" fill="white"/>
<path d="M126.155 42.4099C125.921 42.5723 125.654 42.6535 125.357 42.6535C125.054 42.6535 124.818 42.5678 124.646 42.3964C124.479 42.2204 124.396 41.9678 124.396 41.6386V39.4869H123.773V39.0065H124.396V38.2014L125.018 38.127V39.0065H125.864L125.797 39.4869H125.018V41.6115C125.018 41.7964 125.05 41.9318 125.113 42.0175C125.181 42.0987 125.291 42.1393 125.445 42.1393C125.584 42.1393 125.742 42.0919 125.918 41.9972L126.155 42.4099Z" fill="white"/>
<path d="M122.926 42.572L122.574 41.4015H120.808L120.456 42.572H119.807L121.302 37.9102H122.114L123.602 42.572H122.926ZM120.964 40.8805H122.418L121.694 38.4447L120.964 40.8805Z" fill="white"/>
<path d="M119.348 40.684C119.348 40.7877 119.344 40.8937 119.335 41.002H117.062C117.089 41.3944 117.188 41.6831 117.359 41.8681C117.531 42.053 117.752 42.1455 118.022 42.1455C118.194 42.1455 118.352 42.1207 118.496 42.071C118.64 42.0214 118.791 41.9425 118.949 41.8342L119.22 42.2064C118.841 42.5041 118.426 42.6529 117.975 42.6529C117.479 42.6529 117.091 42.4905 116.811 42.1658C116.536 41.841 116.398 41.3944 116.398 40.8261C116.398 40.4562 116.457 40.1292 116.574 39.845C116.696 39.5563 116.868 39.3308 117.089 39.1684C117.314 39.006 117.578 38.9248 117.88 38.9248C118.354 38.9248 118.717 39.0804 118.97 39.3917C119.222 39.7029 119.348 40.1337 119.348 40.684ZM118.733 40.5013C118.733 40.1495 118.663 39.8811 118.523 39.6961C118.383 39.5112 118.173 39.4187 117.894 39.4187C117.384 39.4187 117.107 39.7931 117.062 40.5419H118.733V40.5013Z" fill="white"/>
<path d="M114.396 38.9248C114.64 38.9248 114.859 38.9586 115.053 39.0263C115.247 39.094 115.431 39.1954 115.607 39.3308L115.344 39.7232C115.181 39.6195 115.026 39.5428 114.877 39.4932C114.732 39.4435 114.579 39.4187 114.417 39.4187C114.214 39.4187 114.053 39.4616 113.936 39.5473C113.819 39.6285 113.76 39.7412 113.76 39.8856C113.76 40.0299 113.814 40.1427 113.923 40.2239C114.035 40.3051 114.236 40.384 114.525 40.4607C114.922 40.5599 115.217 40.6953 115.411 40.8667C115.61 41.0381 115.709 41.2726 115.709 41.5704C115.709 41.9222 115.571 42.1906 115.296 42.3755C115.026 42.5605 114.694 42.6529 114.302 42.6529C113.76 42.6529 113.311 42.4973 112.955 42.1861L113.287 41.8072C113.589 42.0372 113.923 42.1522 114.288 42.1522C114.523 42.1522 114.707 42.1049 114.843 42.0101C114.983 41.9109 115.053 41.7778 115.053 41.6109C115.053 41.4892 115.028 41.3922 114.978 41.32C114.929 41.2433 114.843 41.1779 114.721 41.1238C114.599 41.0651 114.421 41.0043 114.187 40.9411C113.808 40.8419 113.532 40.7088 113.361 40.5419C113.194 40.375 113.111 40.163 113.111 39.9059C113.111 39.7209 113.165 39.5541 113.273 39.4052C113.386 39.2518 113.539 39.1346 113.733 39.0534C113.932 38.9677 114.153 38.9248 114.396 38.9248Z" fill="white"/>
<path d="M112.073 39.0058V42.5715H111.451V39.0058H112.073ZM111.755 37.2939C111.886 37.2939 111.992 37.3345 112.073 37.4157C112.154 37.4969 112.195 37.5984 112.195 37.7202C112.195 37.842 112.154 37.9435 112.073 38.0247C111.992 38.1014 111.886 38.1397 111.755 38.1397C111.629 38.1397 111.525 38.1014 111.444 38.0247C111.363 37.9435 111.322 37.842 111.322 37.7202C111.322 37.5984 111.363 37.4969 111.444 37.4157C111.525 37.3345 111.629 37.2939 111.755 37.2939Z" fill="white"/>
<path d="M110.106 41.7395C110.106 41.8838 110.13 41.9921 110.18 42.0643C110.23 42.1319 110.304 42.1838 110.403 42.2199L110.261 42.6529C110.076 42.6304 109.927 42.5785 109.815 42.4973C109.702 42.4161 109.618 42.2898 109.564 42.1184C109.325 42.4748 108.971 42.6529 108.502 42.6529C108.15 42.6529 107.873 42.5537 107.67 42.3552C107.467 42.1567 107.365 41.8974 107.365 41.5771C107.365 41.1982 107.501 40.9073 107.771 40.7043C108.046 40.5013 108.434 40.3998 108.935 40.3998H109.483V40.1359C109.483 39.8833 109.422 39.7029 109.3 39.5946C109.179 39.4864 108.991 39.4323 108.739 39.4323C108.477 39.4323 108.157 39.4954 107.778 39.6217L107.622 39.1684C108.064 39.006 108.475 38.9248 108.854 38.9248C109.273 38.9248 109.587 39.0286 109.794 39.236C110.002 39.439 110.106 39.73 110.106 40.1089V41.7395ZM108.644 42.1861C109 42.1861 109.28 42.0011 109.483 41.6312V40.8125H109.016C108.358 40.8125 108.028 41.0561 108.028 41.5433C108.028 41.7553 108.08 41.9154 108.184 42.0237C108.288 42.1319 108.441 42.1861 108.644 42.1861Z" fill="white"/>
<path d="M106.813 38.9248C106.939 38.9248 107.057 38.9383 107.165 38.9654L107.05 39.5744C106.942 39.5473 106.838 39.5338 106.739 39.5338C106.518 39.5338 106.339 39.6149 106.204 39.7773C106.069 39.9397 105.963 40.1923 105.886 40.5351V42.5717H105.264V39.006H105.798L105.859 39.73C105.954 39.4638 106.082 39.2631 106.245 39.1278C106.407 38.9925 106.597 38.9248 106.813 38.9248Z" fill="white"/>
<path d="M106.969 44.4931C106.739 44.4931 106.574 44.5292 106.475 44.6013C106.376 44.669 106.326 44.7863 106.326 44.9532V46.5703C106.326 46.8003 106.285 46.9672 106.204 47.071C106.123 47.1702 105.994 47.2491 105.818 47.3078C105.999 47.3709 106.127 47.4499 106.204 47.5446C106.285 47.6393 106.326 47.8017 106.326 48.0318V49.6489C106.326 49.8158 106.376 49.933 106.475 50.0007C106.574 50.0729 106.739 50.109 106.969 50.109V50.5894C106.518 50.5894 106.2 50.5104 106.015 50.3525C105.83 50.1992 105.737 49.9421 105.737 49.5812V48.0791C105.737 47.8897 105.701 47.7566 105.629 47.6799C105.561 47.6032 105.44 47.5649 105.264 47.5649V47.0507C105.44 47.0507 105.561 47.0101 105.629 46.9289C105.701 46.8477 105.737 46.7124 105.737 46.5229V45.0208C105.737 44.66 105.83 44.4029 106.015 44.2495C106.2 44.0916 106.518 44.0127 106.969 44.0127V44.4931Z" fill="white"/>
<path d="M142.275 52.7007V52.1797H144.819V52.7007H142.275ZM142.275 54.0065V53.4855H144.819V54.0065H142.275Z" fill="white"/>
<path d="M138.824 52.7007V52.1797H141.368V52.7007H138.824ZM138.824 54.0065V53.4855H141.368V54.0065H138.824Z" fill="white"/>
<path d="M137.987 53.4447C137.987 53.5485 137.983 53.6545 137.974 53.7627H135.7C135.727 54.1552 135.826 54.4439 135.998 54.6288C136.169 54.8137 136.39 54.9062 136.661 54.9062C136.832 54.9062 136.99 54.8814 137.135 54.8318C137.279 54.7822 137.43 54.7032 137.588 54.595L137.859 54.9671C137.48 55.2648 137.065 55.4137 136.614 55.4137C136.117 55.4137 135.73 55.2513 135.45 54.9265C135.175 54.6017 135.037 54.1552 135.037 53.5868C135.037 53.2169 135.096 52.8899 135.213 52.6057C135.335 52.3171 135.506 52.0915 135.727 51.9291C135.953 51.7667 136.217 51.6855 136.519 51.6855C136.993 51.6855 137.356 51.8412 137.608 52.1524C137.861 52.4636 137.987 52.8944 137.987 53.4447ZM137.371 53.262C137.371 52.9102 137.301 52.6418 137.162 52.4569C137.022 52.2719 136.812 52.1795 136.532 52.1795C136.023 52.1795 135.745 52.5539 135.7 53.3026H137.371V53.262Z" fill="white"/>
<path d="M134.68 55.1706C134.446 55.333 134.18 55.4142 133.882 55.4142C133.58 55.4142 133.343 55.3285 133.172 55.1571C133.005 54.9812 132.921 54.7286 132.921 54.3993V52.2477H132.299V51.7673H132.921V50.9621L133.544 50.8877V51.7673H134.39L134.322 52.2477H133.544V54.3722C133.544 54.5572 133.575 54.6925 133.639 54.7782C133.706 54.8594 133.817 54.9 133.97 54.9C134.11 54.9 134.268 54.8526 134.444 54.7579L134.68 55.1706Z" fill="white"/>
<path d="M131.535 54.5002C131.535 54.6446 131.56 54.7528 131.61 54.825C131.659 54.8927 131.734 54.9446 131.833 54.9806L131.691 55.4137C131.506 55.3911 131.357 55.3392 131.244 55.2581C131.131 55.1769 131.048 55.0506 130.994 54.8791C130.755 55.2355 130.401 55.4137 129.932 55.4137C129.58 55.4137 129.302 55.3144 129.099 55.116C128.896 54.9175 128.795 54.6581 128.795 54.3379C128.795 53.959 128.93 53.668 129.201 53.465C129.476 53.262 129.864 53.1606 130.365 53.1606H130.913V52.8967C130.913 52.6441 130.852 52.4636 130.73 52.3554C130.608 52.2471 130.421 52.193 130.168 52.193C129.907 52.193 129.587 52.2562 129.208 52.3825L129.052 51.9291C129.494 51.7667 129.905 51.6855 130.283 51.6855C130.703 51.6855 131.016 51.7893 131.224 51.9968C131.431 52.1998 131.535 52.4907 131.535 52.8696V54.5002ZM130.074 54.9468C130.43 54.9468 130.71 54.7619 130.913 54.392V53.5733H130.446C129.787 53.5733 129.458 53.8169 129.458 54.304C129.458 54.516 129.51 54.6762 129.614 54.7844C129.717 54.8927 129.871 54.9468 130.074 54.9468Z" fill="white"/>
<path d="M128.466 55.1706C128.231 55.333 127.965 55.4142 127.667 55.4142C127.365 55.4142 127.128 55.3285 126.957 55.1571C126.79 54.9812 126.706 54.7286 126.706 54.3993V52.2477H126.084V51.7673H126.706V50.9621L127.329 50.8877V51.7673H128.175L128.107 52.2477H127.329V54.3722C127.329 54.5572 127.361 54.6925 127.424 54.7782C127.491 54.8594 127.602 54.9 127.755 54.9C127.895 54.9 128.053 54.8526 128.229 54.7579L128.466 55.1706Z" fill="white"/>
<path d="M124.095 50.5898C124.406 50.5898 124.673 50.635 124.894 50.7252C125.115 50.8109 125.329 50.9462 125.536 51.1311L125.185 51.5236C125.009 51.3837 124.835 51.2822 124.664 51.2191C124.497 51.1514 124.316 51.1176 124.122 51.1176C123.879 51.1176 123.678 51.174 123.52 51.2868C123.362 51.3995 123.283 51.5642 123.283 51.7807C123.283 51.916 123.31 52.031 123.364 52.1257C123.419 52.216 123.518 52.2994 123.662 52.3761C123.811 52.4528 124.025 52.534 124.305 52.6197C124.598 52.7099 124.842 52.8069 125.036 52.9106C125.23 53.0144 125.385 53.1587 125.503 53.3436C125.624 53.5241 125.685 53.7541 125.685 54.0338C125.685 54.3044 125.618 54.5435 125.482 54.751C125.351 54.9585 125.16 55.1209 124.907 55.2382C124.659 55.3554 124.364 55.4141 124.021 55.4141C123.376 55.4141 122.848 55.2133 122.438 54.8119L122.789 54.4195C122.979 54.5728 123.17 54.6901 123.364 54.7713C123.558 54.848 123.775 54.8863 124.014 54.8863C124.303 54.8863 124.542 54.8164 124.731 54.6766C124.921 54.5322 125.015 54.3247 125.015 54.0541C125.015 53.9007 124.986 53.7744 124.927 53.6752C124.869 53.5714 124.767 53.479 124.623 53.3978C124.483 53.3166 124.278 53.2354 124.007 53.1542C123.529 53.0099 123.18 52.8362 122.958 52.6332C122.737 52.4302 122.627 52.1551 122.627 51.8077C122.627 51.5732 122.688 51.3634 122.81 51.1785C122.936 50.9936 123.11 50.8492 123.331 50.7455C123.556 50.6417 123.811 50.5898 124.095 50.5898Z" fill="white"/>
<path d="M118.934 56.2933V55.7588H122.222V56.2933H118.934Z" fill="white"/>
<path d="M117.171 51.6855C117.464 51.6855 117.699 51.7848 117.875 51.9833C118.051 52.1772 118.139 52.4411 118.139 52.7749V55.3325H117.516V52.8628C117.516 52.4028 117.349 52.1727 117.015 52.1727C116.84 52.1727 116.691 52.2246 116.569 52.3283C116.447 52.4276 116.316 52.5854 116.176 52.802V55.3325H115.554V52.8628C115.554 52.4028 115.387 52.1727 115.053 52.1727C114.873 52.1727 114.722 52.2246 114.6 52.3283C114.478 52.4321 114.35 52.5899 114.214 52.802V55.3325H113.592V51.7667H114.126L114.18 52.2877C114.447 51.8863 114.789 51.6855 115.209 51.6855C115.43 51.6855 115.617 51.7419 115.77 51.8547C115.928 51.9675 116.041 52.1253 116.109 52.3283C116.249 52.1208 116.402 51.963 116.569 51.8547C116.74 51.7419 116.941 51.6855 117.171 51.6855Z" fill="white"/>
<rect width="31.8781" height="8.82423" transform="translate(147.941 50.5898)" fill="#A8650F"/>
<path d="M178.778 55.4447C178.778 55.5485 178.774 55.6545 178.765 55.7627H176.491C176.518 56.1552 176.618 56.4439 176.789 56.6288C176.96 56.8137 177.181 56.9062 177.452 56.9062C177.623 56.9062 177.781 56.8814 177.926 56.8318C178.07 56.7822 178.221 56.7032 178.379 56.595L178.65 56.9671C178.271 57.2648 177.856 57.4137 177.405 57.4137C176.908 57.4137 176.521 57.2513 176.241 56.9265C175.966 56.6017 175.828 56.1552 175.828 55.5868C175.828 55.2169 175.887 54.8899 176.004 54.6057C176.126 54.3171 176.297 54.0915 176.518 53.9291C176.744 53.7667 177.008 53.6855 177.31 53.6855C177.784 53.6855 178.147 53.8412 178.399 54.1524C178.652 54.4636 178.778 54.8944 178.778 55.4447ZM178.162 55.262C178.162 54.9102 178.093 54.6418 177.953 54.4569C177.813 54.2719 177.603 54.1795 177.323 54.1795C176.814 54.1795 176.536 54.5539 176.491 55.3026H178.162V55.262Z" fill="white"/>
<path d="M175.472 57.1706C175.237 57.333 174.971 57.4142 174.673 57.4142C174.371 57.4142 174.134 57.3285 173.963 57.1571C173.796 56.9812 173.712 56.7286 173.712 56.3993V54.2477H173.09V53.7673H173.712V52.9621L174.335 52.8877V53.7673H175.181L175.113 54.2477H174.335V56.3722C174.335 56.5572 174.366 56.6925 174.43 56.7782C174.497 56.8594 174.608 56.9 174.761 56.9C174.901 56.9 175.059 56.8526 175.235 56.7579L175.472 57.1706Z" fill="white"/>
<path d="M172.326 56.5002C172.326 56.6446 172.351 56.7528 172.401 56.825C172.45 56.8927 172.525 56.9446 172.624 56.9806L172.482 57.4137C172.297 57.3911 172.148 57.3392 172.035 57.2581C171.923 57.1769 171.839 57.0506 171.785 56.8791C171.546 57.2355 171.192 57.4137 170.723 57.4137C170.371 57.4137 170.093 57.3144 169.89 57.116C169.687 56.9175 169.586 56.6581 169.586 56.3379C169.586 55.959 169.721 55.668 169.992 55.465C170.267 55.262 170.655 55.1606 171.156 55.1606H171.704V54.8967C171.704 54.6441 171.643 54.4636 171.521 54.3554C171.399 54.2471 171.212 54.193 170.959 54.193C170.698 54.193 170.378 54.2562 169.999 54.3825L169.843 53.9291C170.285 53.7667 170.696 53.6855 171.074 53.6855C171.494 53.6855 171.807 53.7893 172.015 53.9968C172.222 54.1998 172.326 54.4907 172.326 54.8696V56.5002ZM170.865 56.9468C171.221 56.9468 171.501 56.7619 171.704 56.392V55.5733H171.237C170.578 55.5733 170.249 55.8169 170.249 56.304C170.249 56.516 170.301 56.6762 170.405 56.7844C170.508 56.8927 170.662 56.9468 170.865 56.9468Z" fill="white"/>
<path d="M169.259 57.1706C169.024 57.333 168.758 57.4142 168.46 57.4142C168.158 57.4142 167.921 57.3285 167.75 57.1571C167.583 56.9812 167.499 56.7286 167.499 56.3993V54.2477H166.877V53.7673H167.499V52.9621L168.122 52.8877V53.7673H168.968L168.9 54.2477H168.122V56.3722C168.122 56.5572 168.153 56.6925 168.217 56.7782C168.284 56.8594 168.395 56.9 168.548 56.9C168.688 56.9 168.846 56.8526 169.022 56.7579L169.259 57.1706Z" fill="white"/>
<path d="M164.888 52.5898C165.199 52.5898 165.466 52.635 165.687 52.7252C165.908 52.8109 166.122 52.9462 166.329 53.1311L165.978 53.5236C165.802 53.3837 165.628 53.2822 165.457 53.2191C165.29 53.1514 165.109 53.1176 164.915 53.1176C164.672 53.1176 164.471 53.174 164.313 53.2868C164.155 53.3995 164.076 53.5642 164.076 53.7807C164.076 53.916 164.103 54.031 164.157 54.1257C164.212 54.216 164.311 54.2994 164.455 54.3761C164.604 54.4528 164.818 54.534 165.098 54.6197C165.391 54.7099 165.635 54.8069 165.829 54.9106C166.023 55.0144 166.178 55.1587 166.296 55.3436C166.417 55.5241 166.478 55.7541 166.478 56.0338C166.478 56.3044 166.411 56.5435 166.275 56.751C166.144 56.9585 165.953 57.1209 165.7 57.2382C165.452 57.3554 165.157 57.4141 164.814 57.4141C164.169 57.4141 163.641 57.2133 163.23 56.8119L163.582 56.4195C163.772 56.5728 163.963 56.6901 164.157 56.7713C164.351 56.848 164.568 56.8863 164.807 56.8863C165.096 56.8863 165.335 56.8164 165.524 56.6766C165.714 56.5322 165.808 56.3247 165.808 56.0541C165.808 55.9007 165.779 55.7744 165.72 55.6752C165.662 55.5714 165.56 55.479 165.416 55.3978C165.276 55.3166 165.071 55.2354 164.8 55.1542C164.322 55.0099 163.972 54.8362 163.751 54.6332C163.53 54.4302 163.42 54.1551 163.42 53.8077C163.42 53.5732 163.481 53.3634 163.603 53.1785C163.729 52.9936 163.903 52.8492 164.124 52.7455C164.349 52.6417 164.604 52.5898 164.888 52.5898Z" fill="white"/>
<path d="M162.575 53.6855C162.701 53.6855 162.818 53.6991 162.927 53.7261L162.812 54.3351C162.703 54.308 162.6 54.2945 162.5 54.2945C162.279 54.2945 162.101 54.3757 161.966 54.5381C161.831 54.7005 161.725 54.9531 161.648 55.2959V57.3325H161.025V53.7667H161.56L161.621 54.4907C161.716 54.2246 161.844 54.0239 162.006 53.8885C162.169 53.7532 162.358 53.6855 162.575 53.6855Z" fill="white"/>
<path d="M159.68 56.5002C159.68 56.6446 159.705 56.7528 159.754 56.825C159.804 56.8927 159.878 56.9446 159.977 56.9806L159.835 57.4137C159.65 57.3911 159.502 57.3392 159.389 57.2581C159.276 57.1769 159.193 57.0506 159.138 56.8791C158.899 57.2355 158.545 57.4137 158.076 57.4137C157.724 57.4137 157.447 57.3144 157.244 57.116C157.041 56.9175 156.939 56.6581 156.939 56.3379C156.939 55.959 157.075 55.668 157.345 55.465C157.621 55.262 158.008 55.1606 158.509 55.1606H159.057V54.8967C159.057 54.6441 158.996 54.4636 158.875 54.3554C158.753 54.2471 158.566 54.193 158.313 54.193C158.051 54.193 157.731 54.2562 157.352 54.3825L157.197 53.9291C157.639 53.7667 158.049 53.6855 158.428 53.6855C158.847 53.6855 159.161 53.7893 159.368 53.9968C159.576 54.1998 159.68 54.4907 159.68 54.8696V56.5002ZM158.218 56.9468C158.575 56.9468 158.854 56.7619 159.057 56.392V55.5733H158.59C157.932 55.5733 157.603 55.8169 157.603 56.304C157.603 56.516 157.654 56.6762 157.758 56.7844C157.862 56.8927 158.015 56.9468 158.218 56.9468Z" fill="white"/>
<path d="M156.282 55.4447C156.282 55.5485 156.278 55.6545 156.269 55.7627H153.995C154.022 56.1552 154.121 56.4439 154.293 56.6288C154.464 56.8137 154.685 56.9062 154.956 56.9062C155.127 56.9062 155.285 56.8814 155.43 56.8318C155.574 56.7822 155.725 56.7032 155.883 56.595L156.153 56.9671C155.775 57.2648 155.36 57.4137 154.909 57.4137C154.412 57.4137 154.024 57.2513 153.745 56.9265C153.47 56.6017 153.332 56.1552 153.332 55.5868C153.332 55.2169 153.391 54.8899 153.508 54.6057C153.63 54.3171 153.801 54.0915 154.022 53.9291C154.248 53.7667 154.512 53.6855 154.814 53.6855C155.287 53.6855 155.651 53.8412 155.903 54.1524C156.156 54.4636 156.282 54.8944 156.282 55.4447ZM155.666 55.262C155.666 54.9102 155.596 54.6418 155.457 54.4569C155.317 54.2719 155.107 54.1795 154.827 54.1795C154.318 54.1795 154.04 54.5539 153.995 55.3026H155.666V55.262Z" fill="white"/>
<path d="M151.005 52.5898C151.299 52.5898 151.551 52.6327 151.763 52.7184C151.98 52.7996 152.194 52.9281 152.406 53.1041L152.027 53.4965C151.86 53.3612 151.7 53.2642 151.547 53.2056C151.393 53.1469 151.213 53.1176 151.005 53.1176C150.766 53.1176 150.545 53.183 150.342 53.3138C150.144 53.4401 149.982 53.6454 149.855 53.9295C149.729 54.2092 149.666 54.5655 149.666 54.9986C149.666 55.6526 149.772 56.1308 149.984 56.433C150.2 56.7352 150.518 56.8863 150.938 56.8863C151.281 56.8863 151.576 56.8164 151.824 56.6766V55.2692H150.999L150.924 54.7482H152.46V57.0013C151.978 57.2765 151.47 57.4141 150.938 57.4141C150.324 57.4141 149.844 57.2088 149.497 56.7984C149.154 56.3879 148.982 55.788 148.982 54.9986C148.982 54.4934 149.073 54.0603 149.253 53.6995C149.438 53.3341 149.684 53.059 149.991 52.874C150.302 52.6846 150.64 52.5898 151.005 52.5898Z" fill="white"/>
<path d="M206.019 55.0085C206.154 55.0085 206.267 55.0536 206.357 55.1438C206.447 55.234 206.492 55.3445 206.492 55.4753C206.492 55.6152 206.452 55.7753 206.371 55.9557L205.917 56.991H205.471L205.741 55.8678C205.683 55.8227 205.635 55.7663 205.599 55.6986C205.568 55.631 205.552 55.5565 205.552 55.4753C205.552 55.3445 205.597 55.234 205.687 55.1438C205.777 55.0536 205.888 55.0085 206.019 55.0085ZM206.019 52.5186C206.154 52.5186 206.267 52.5637 206.357 52.6539C206.447 52.7441 206.492 52.8546 206.492 52.9854C206.492 53.1162 206.447 53.229 206.357 53.3237C206.267 53.4139 206.154 53.459 206.019 53.459C205.888 53.459 205.777 53.4139 205.687 53.3237C205.597 53.229 205.552 53.1162 205.552 52.9854C205.552 52.8546 205.597 52.7441 205.687 52.6539C205.777 52.5637 205.888 52.5186 206.019 52.5186Z" fill="white"/>
<path d="M204.505 50.8674V55.8675H203.957L203.896 55.3736C203.779 55.5541 203.633 55.6961 203.457 55.7999C203.281 55.8991 203.084 55.9487 202.868 55.9487C202.444 55.9487 202.112 55.7818 201.873 55.4481C201.639 55.1143 201.521 54.6654 201.521 54.1016C201.521 53.7362 201.578 53.4115 201.691 53.1273C201.803 52.8431 201.966 52.6221 202.178 52.4642C202.39 52.3018 202.638 52.2206 202.922 52.2206C203.287 52.2206 203.608 52.3672 203.883 52.6604V50.793L204.505 50.8674ZM203.003 55.4548C203.193 55.4548 203.355 55.412 203.49 55.3263C203.626 55.236 203.757 55.103 203.883 54.9271V53.1814C203.766 53.028 203.639 52.913 203.504 52.8363C203.373 52.7551 203.224 52.7145 203.057 52.7145C202.782 52.7145 202.568 52.8296 202.415 53.0596C202.266 53.2897 202.191 53.6325 202.191 54.0881C202.191 54.5482 202.261 54.891 202.401 55.1165C202.541 55.342 202.742 55.4548 203.003 55.4548Z" fill="white"/>
<path d="M200.684 53.9799C200.684 54.0836 200.68 54.1896 200.671 54.2979H198.397C198.425 54.6903 198.524 54.979 198.695 55.164C198.867 55.3489 199.088 55.4414 199.358 55.4414C199.53 55.4414 199.688 55.4166 199.832 55.3669C199.976 55.3173 200.127 55.2384 200.285 55.1301L200.556 55.5023C200.177 55.8 199.762 55.9488 199.311 55.9488C198.815 55.9488 198.427 55.7864 198.147 55.4617C197.872 55.1369 197.734 54.6903 197.734 54.122C197.734 53.7521 197.793 53.4251 197.91 53.1409C198.032 52.8522 198.203 52.6267 198.425 52.4643C198.65 52.3019 198.914 52.2207 199.216 52.2207C199.69 52.2207 200.053 52.3763 200.305 52.6876C200.558 52.9988 200.684 53.4296 200.684 53.9799ZM200.069 53.7972C200.069 53.4454 199.999 53.177 199.859 52.992C199.719 52.8071 199.509 52.7146 199.23 52.7146C198.72 52.7146 198.443 53.089 198.397 53.8378H200.069V53.7972Z" fill="white"/>
<path d="M195.732 52.2207C195.976 52.2207 196.195 52.2545 196.389 52.3222C196.582 52.3899 196.767 52.4913 196.943 52.6267L196.679 53.0191C196.517 52.9154 196.361 52.8387 196.213 52.7891C196.068 52.7394 195.915 52.7146 195.752 52.7146C195.55 52.7146 195.389 52.7575 195.272 52.8432C195.155 52.9244 195.096 53.0371 195.096 53.1815C195.096 53.3258 195.15 53.4386 195.259 53.5198C195.371 53.601 195.572 53.6799 195.861 53.7566C196.258 53.8558 196.553 53.9912 196.747 54.1626C196.946 54.334 197.045 54.5685 197.045 54.8663C197.045 55.2181 196.907 55.4865 196.632 55.6714C196.361 55.8564 196.03 55.9488 195.637 55.9488C195.096 55.9488 194.647 55.7932 194.291 55.482L194.623 55.1031C194.925 55.3331 195.259 55.4481 195.624 55.4481C195.858 55.4481 196.043 55.4008 196.179 55.306C196.319 55.2068 196.389 55.0737 196.389 54.9068C196.389 54.7851 196.364 54.6881 196.314 54.6159C196.264 54.5392 196.179 54.4738 196.057 54.4197C195.935 54.361 195.757 54.3002 195.522 54.237C195.144 54.1378 194.868 54.0047 194.697 53.8378C194.53 53.6709 194.447 53.4589 194.447 53.2018C194.447 53.0168 194.501 52.85 194.609 52.7011C194.722 52.5477 194.875 52.4305 195.069 52.3493C195.268 52.2636 195.489 52.2207 195.732 52.2207Z" fill="white"/>
<path d="M193.409 52.3017V55.8674H192.787V52.3017H193.409ZM193.091 50.5898C193.222 50.5898 193.328 50.6304 193.409 50.7116C193.49 50.7928 193.531 50.8943 193.531 51.0161C193.531 51.1379 193.49 51.2394 193.409 51.3206C193.328 51.3973 193.222 51.4356 193.091 51.4356C192.965 51.4356 192.861 51.3973 192.78 51.3206C192.699 51.2394 192.658 51.1379 192.658 51.0161C192.658 50.8943 192.699 50.7928 192.78 50.7116C192.861 50.6304 192.965 50.5898 193.091 50.5898Z" fill="white"/>
<path d="M191.441 55.0354C191.441 55.1797 191.466 55.288 191.516 55.3602C191.565 55.4278 191.64 55.4797 191.739 55.5158L191.597 55.9488C191.412 55.9263 191.263 55.8744 191.151 55.7932C191.038 55.712 190.954 55.5857 190.9 55.4143C190.661 55.7707 190.307 55.9488 189.838 55.9488C189.486 55.9488 189.209 55.8496 189.006 55.6511C188.803 55.4526 188.701 55.1933 188.701 54.873C188.701 54.4941 188.836 54.2032 189.107 54.0002C189.382 53.7972 189.77 53.6957 190.271 53.6957H190.819V53.4318C190.819 53.1792 190.758 52.9988 190.636 52.8905C190.514 52.7823 190.327 52.7282 190.075 52.7282C189.813 52.7282 189.493 52.7913 189.114 52.9176L188.958 52.4643C189.4 52.3019 189.811 52.2207 190.19 52.2207C190.609 52.2207 190.923 52.3245 191.13 52.5319C191.338 52.7349 191.441 53.0259 191.441 53.4048V55.0354ZM189.98 55.482C190.336 55.482 190.616 55.297 190.819 54.9271V54.1084H190.352C189.694 54.1084 189.364 54.352 189.364 54.8392C189.364 55.0512 189.416 55.2113 189.52 55.3196C189.624 55.4278 189.777 55.482 189.98 55.482Z" fill="white"/>
<path d="M186.341 53.8912H185.617V55.8669H184.975V51.2051H186.199C186.781 51.2051 187.221 51.3156 187.519 51.5366C187.821 51.7576 187.972 52.0869 187.972 52.5245C187.972 52.8492 187.889 53.1131 187.722 53.3161C187.555 53.5191 187.302 53.6725 186.964 53.7762L188.222 55.8669H187.458L186.341 53.8912ZM186.267 53.3973C186.605 53.3973 186.86 53.3296 187.032 53.1943C187.203 53.0545 187.289 52.8312 187.289 52.5245C187.289 52.2358 187.201 52.0283 187.025 51.902C186.853 51.7712 186.576 51.7058 186.193 51.7058H185.617V53.3973H186.267Z" fill="white"/>
<path d="M183.41 55.0078C183.546 55.0078 183.658 55.0529 183.749 55.1431C183.839 55.2333 183.884 55.3439 183.884 55.4747C183.884 55.6055 183.839 55.7183 183.749 55.813C183.658 55.9032 183.546 55.9483 183.41 55.9483C183.279 55.9483 183.169 55.9032 183.079 55.813C182.988 55.7183 182.943 55.6055 182.943 55.4747C182.943 55.3439 182.988 55.2333 183.079 55.1431C183.169 55.0529 183.279 55.0078 183.41 55.0078Z" fill="white"/>
<path d="M105.264 59.4141C105.715 59.4141 106.033 59.493 106.218 59.6509C106.403 59.8042 106.495 60.0614 106.495 60.4222V61.9243C106.495 62.1137 106.529 62.2491 106.597 62.3303C106.669 62.4114 106.793 62.452 106.969 62.452V62.9663C106.793 62.9663 106.669 63.0046 106.597 63.0813C106.529 63.158 106.495 63.291 106.495 63.4805V64.9826C106.495 65.3434 106.403 65.6005 106.218 65.7539C106.033 65.9118 105.715 65.9907 105.264 65.9907V65.5103C105.494 65.5103 105.658 65.4742 105.758 65.4021C105.857 65.3344 105.906 65.2171 105.906 65.0502V63.4331C105.906 63.2031 105.945 63.0407 106.021 62.946C106.103 62.8512 106.233 62.7723 106.414 62.7092C106.238 62.6505 106.109 62.5716 106.028 62.4723C105.947 62.3686 105.906 62.2017 105.906 61.9717V60.3546C105.906 60.1877 105.857 60.0704 105.758 60.0027C105.658 59.9305 105.494 59.8945 105.264 59.8945V59.4141Z" fill="white"/>
</g>
<defs>
<linearGradient id="paint0_linear_1642_5489" x1="103.925" y1="50.2859" x2="-5.37919" y2="30.5025" gradientUnits="userSpaceOnUse">
<stop stop-color="#9A9A9A" stop-opacity="0"/>
<stop offset="0.5" stop-color="#9A9A9A"/>
<stop offset="1" stop-color="#9A9A9A" stop-opacity="0"/>
</linearGradient>
<linearGradient id="paint1_linear_1642_5489" x1="103.925" y1="50.2859" x2="-5.37919" y2="30.5025" gradientUnits="userSpaceOnUse">
<stop stop-color="#9A9A9A" stop-opacity="0"/>
<stop offset="0.5" stop-color="#9A9A9A"/>
<stop offset="1" stop-color="#9A9A9A" stop-opacity="0"/>
</linearGradient>
<linearGradient id="paint2_linear_1642_5489" x1="103.925" y1="50.2859" x2="-5.37919" y2="30.5025" gradientUnits="userSpaceOnUse">
<stop stop-color="#9A9A9A" stop-opacity="0"/>
<stop offset="0.5" stop-color="#9A9A9A"/>
<stop offset="1" stop-color="#9A9A9A" stop-opacity="0"/>
</linearGradient>
<linearGradient id="paint3_linear_1642_5489" x1="103.925" y1="50.2859" x2="-5.37919" y2="30.5025" gradientUnits="userSpaceOnUse">
<stop stop-color="#9A9A9A" stop-opacity="0"/>
<stop offset="0.5" stop-color="#9A9A9A"/>
<stop offset="1" stop-color="#9A9A9A" stop-opacity="0"/>
</linearGradient>
<linearGradient id="paint4_linear_1642_5489" x1="103.925" y1="50.2859" x2="-5.37919" y2="30.5025" gradientUnits="userSpaceOnUse">
<stop stop-color="#9A9A9A" stop-opacity="0"/>
<stop offset="0.5" stop-color="#9A9A9A"/>
<stop offset="1" stop-color="#9A9A9A" stop-opacity="0"/>
</linearGradient>
<linearGradient id="paint5_linear_1642_5489" x1="103.925" y1="50.2859" x2="-5.37919" y2="30.5025" gradientUnits="userSpaceOnUse">
<stop stop-color="#9A9A9A" stop-opacity="0"/>
<stop offset="0.5" stop-color="#9A9A9A"/>
<stop offset="1" stop-color="#9A9A9A" stop-opacity="0"/>
</linearGradient>
<linearGradient id="paint6_linear_1642_5489" x1="103.925" y1="50.2859" x2="-5.37919" y2="30.5025" gradientUnits="userSpaceOnUse">
<stop stop-color="#9A9A9A" stop-opacity="0"/>
<stop offset="0.5" stop-color="#9A9A9A"/>
<stop offset="1" stop-color="#9A9A9A" stop-opacity="0"/>
</linearGradient>
<linearGradient id="paint7_linear_1642_5489" x1="57.9079" y1="13.2775" x2="-0.569533" y2="3.30063" gradientUnits="userSpaceOnUse">
<stop stop-color="#9A9A9A"/>
<stop offset="1" stop-color="#9A9A9A" stop-opacity="0"/>
</linearGradient>
<linearGradient id="paint8_linear_1642_5489" x1="57.9079" y1="13.2775" x2="-0.569533" y2="3.30063" gradientUnits="userSpaceOnUse">
<stop stop-color="#9A9A9A"/>
<stop offset="1" stop-color="#9A9A9A" stop-opacity="0"/>
</linearGradient>
<linearGradient id="paint9_linear_1642_5489" x1="103.925" y1="50.2859" x2="-5.37919" y2="30.5025" gradientUnits="userSpaceOnUse">
<stop stop-color="#9A9A9A" stop-opacity="0"/>
<stop offset="0.5" stop-color="#9A9A9A"/>
<stop offset="1" stop-color="#9A9A9A" stop-opacity="0"/>
</linearGradient>
<linearGradient id="paint10_linear_1642_5489" x1="103.925" y1="50.2859" x2="-5.37919" y2="30.5025" gradientUnits="userSpaceOnUse">
<stop stop-color="#9A9A9A" stop-opacity="0"/>
<stop offset="0.5" stop-color="#9A9A9A"/>
<stop offset="1" stop-color="#9A9A9A" stop-opacity="0"/>
</linearGradient>
<linearGradient id="paint11_linear_1642_5489" x1="103.925" y1="50.2859" x2="-5.37919" y2="30.5025" gradientUnits="userSpaceOnUse">
<stop stop-color="#9A9A9A" stop-opacity="0"/>
<stop offset="0.5" stop-color="#9A9A9A"/>
<stop offset="1" stop-color="#9A9A9A" stop-opacity="0"/>
</linearGradient>
<linearGradient id="paint12_linear_1642_5489" x1="103.925" y1="50.2859" x2="-5.37919" y2="30.5025" gradientUnits="userSpaceOnUse">
<stop stop-color="#9A9A9A" stop-opacity="0"/>
<stop offset="0.5" stop-color="#9A9A9A"/>
<stop offset="1" stop-color="#9A9A9A" stop-opacity="0"/>
</linearGradient>
<linearGradient id="paint13_linear_1642_5489" x1="103.925" y1="50.2859" x2="-5.37919" y2="30.5025" gradientUnits="userSpaceOnUse">
<stop stop-color="#9A9A9A" stop-opacity="0"/>
<stop offset="0.5" stop-color="#9A9A9A"/>
<stop offset="1" stop-color="#9A9A9A" stop-opacity="0"/>
</linearGradient>
<clipPath id="clip0_1642_5489">
<rect width="285" height="102" fill="white"/>
</clipPath>
</defs>
</svg>
