<svg width="292" height="103" viewBox="0 0 292 103" fill="none" xmlns="http://www.w3.org/2000/svg">
<rect width="292" height="102.768" fill="#1D1D26"/>
<path d="M227.064 45.0092C226.268 45.0092 225.623 45.4542 225.623 46.003V46.9968C225.623 47.5456 224.978 47.9906 224.182 47.9906C223.386 47.9906 222.741 47.5456 222.741 46.9968L219.859 43.0218C219.859 43.5706 219.214 44.0156 218.418 44.0156C217.622 44.0156 216.977 43.5706 216.977 43.0218L214.095 44.0156C214.095 44.5644 213.45 45.0094 212.654 45.0094C211.859 45.0094 211.213 44.5644 211.213 44.0156L208.332 38.0529C208.332 38.6017 207.686 39.0467 206.891 39.0467C206.095 39.0467 205.449 38.6017 205.449 38.0529H202.568C202.568 38.6017 201.922 39.0467 201.127 39.0467C200.331 39.0467 199.686 38.6017 199.686 38.0529L196.804 33.0841C196.804 33.6329 196.159 34.0779 195.363 34.0779C194.567 34.0779 193.922 33.6329 193.922 33.0841L191.04 31.0966C191.04 31.6454 190.395 32.0904 189.599 32.0904C188.803 32.0904 188.158 31.6454 188.158 31.0966L185.276 28.1152C185.276 28.664 184.631 29.109 183.835 29.109C183.039 29.109 182.394 28.664 182.394 28.1152L179.512 38.0529C179.512 38.6017 178.867 39.0467 178.071 39.0467C177.275 39.0467 176.63 38.6017 176.63 38.0529L173.748 37.0591C173.748 37.6079 173.103 38.0529 172.307 38.0529C171.511 38.0529 170.866 37.6079 170.866 37.0591L167.984 43.0218C167.984 43.5706 167.339 44.0156 166.543 44.0156C165.747 44.0156 165.102 43.5706 165.102 43.0218L162.22 42.0279C162.22 42.5767 161.575 43.0218 160.779 43.0218C159.983 43.0218 159.338 42.5767 159.338 42.0279L156.456 44.0155C156.456 44.5643 155.811 45.0093 155.015 45.0093C154.219 45.0093 153.574 44.5643 153.574 44.0155L150.693 46.9967C150.693 47.5455 150.048 47.9905 149.252 47.9905C148.457 47.9905 147.811 47.5455 147.811 46.9967C147.811 46.4479 147.167 46.0029 146.37 46.0029C145.574 46.0029 144.93 46.4479 144.93 46.9967V50.9717C144.93 51.5205 145.574 51.9655 146.371 51.9655C147.167 51.9655 147.812 51.5205 147.812 50.9717C147.812 50.4228 148.457 49.9779 149.253 49.9779C150.049 49.9779 150.694 50.4228 150.694 50.9717L153.576 53.953C153.576 53.4041 154.221 52.9592 155.017 52.9592C155.813 52.9592 156.458 53.4041 156.458 53.953L159.34 55.9405C159.34 55.3916 159.985 54.9467 160.781 54.9467C161.577 54.9467 162.222 55.3916 162.222 55.9405L165.104 54.9467C165.104 54.3978 165.749 53.9529 166.545 53.9529C167.341 53.9529 167.986 54.3978 167.986 54.9467L170.868 60.9094C170.868 60.3605 171.513 59.9156 172.309 59.9156C173.105 59.9156 173.75 60.3605 173.75 60.9094L176.632 59.9156C176.632 59.3666 177.277 58.9218 178.073 58.9218C178.868 58.9218 179.514 59.3666 179.514 59.9156L182.395 69.8532C182.395 69.3043 183.041 68.8594 183.836 68.8594C184.632 68.8594 185.278 69.3043 185.278 69.8532L188.159 66.8719C188.159 66.323 188.805 65.8781 189.6 65.8781C190.396 65.8781 191.041 66.323 191.041 66.8719L193.923 64.8844C193.923 64.3355 194.568 63.8906 195.364 63.8906C196.16 63.8906 196.805 64.3355 196.805 64.8844L199.687 59.9156C199.687 59.3666 200.332 58.9218 201.128 58.9218C201.924 58.9218 202.569 59.3666 202.569 59.9156H205.451C205.451 59.3666 206.096 58.9218 206.892 58.9218C207.688 58.9218 208.333 59.3666 208.333 59.9156L211.215 53.9529C211.215 53.404 211.86 52.9591 212.656 52.9591C213.452 52.9591 214.097 53.404 214.097 53.9529L216.979 54.9467C216.979 54.3978 217.624 53.9529 218.42 53.9529C219.216 53.9529 219.861 54.3978 219.861 54.9467L222.743 50.9717C222.743 50.4228 223.388 49.9779 224.184 49.9779C224.98 49.9779 225.625 50.4228 225.625 50.9717V51.9655C225.625 52.5143 226.27 52.9593 227.066 52.9593C227.863 52.9593 228.507 52.5143 228.507 51.9655V46.0029C228.505 45.4541 227.861 45.0092 227.064 45.0092Z" fill="#8961FF"/>
<path d="M186.717 75.8158C185.921 75.8158 185.276 75.3708 185.276 74.822V23.1462C185.276 22.5974 185.921 22.1523 186.717 22.1523C187.514 22.1523 188.158 22.5974 188.158 23.1462V74.822C188.158 75.3708 187.514 75.8158 186.717 75.8158Z" fill="#6AEF97"/>
<path d="M192.482 67.8657C191.686 67.8657 191.041 67.4207 191.041 66.8719V31.0964C191.041 30.5475 191.685 30.1025 192.482 30.1025C193.278 30.1025 193.923 30.5475 193.923 31.0964V66.8719C193.923 67.4208 193.279 67.8657 192.482 67.8657Z" fill="#98DB7C"/>
<path d="M198.246 70.8468C197.449 70.8468 196.805 70.4018 196.805 69.853V28.1149C196.805 27.5661 197.449 27.1211 198.246 27.1211C199.042 27.1211 199.687 27.5661 199.687 28.1149V69.8531C199.687 70.4018 199.042 70.8468 198.246 70.8468Z" fill="#8DE386"/>
<path d="M169.426 67.8657C168.63 67.8657 167.985 67.4207 167.985 66.8719V31.0964C167.985 30.5475 168.63 30.1025 169.426 30.1025C170.223 30.1025 170.867 30.5475 170.867 31.0964V66.8719C170.867 67.4208 170.223 67.8657 169.426 67.8657Z" fill="#7AEAA0"/>
<path d="M204.009 61.9025C203.213 61.9025 202.568 61.4575 202.568 60.9087V37.0583C202.568 36.5095 203.213 36.0645 204.009 36.0645C204.806 36.0645 205.45 36.5095 205.45 37.0583V60.9087C205.45 61.4575 204.806 61.9025 204.009 61.9025Z" fill="#D5FF5F"/>
<path d="M175.19 61.9025C174.394 61.9025 173.749 61.4575 173.749 60.9087V37.0583C173.749 36.5095 174.393 36.0645 175.19 36.0645C175.986 36.0645 176.631 36.5095 176.631 37.0583V60.9087C176.631 61.4575 175.987 61.9025 175.19 61.9025Z" fill="#D5FF5F"/>
<path d="M157.899 60.91C157.103 60.91 156.458 60.4649 156.458 59.9161V38.0534C156.458 37.5046 157.102 37.0596 157.899 37.0596C158.696 37.0596 159.34 37.5046 159.34 38.0534V59.9163C159.34 60.465 158.696 60.91 157.899 60.91Z" fill="#79EB7E"/>
<path d="M209.773 65.8789C208.977 65.8789 208.332 65.4339 208.332 64.8851V33.0846C208.332 32.5358 208.976 32.0908 209.773 32.0908C210.569 32.0908 211.214 32.5358 211.214 33.0846V64.8852C211.214 65.4339 210.57 65.8789 209.773 65.8789Z" fill="#5FE2AB"/>
<path d="M215.537 55.9411C214.74 55.9411 214.096 55.4961 214.096 54.9473V43.0221C214.096 42.4733 214.74 42.0283 215.537 42.0283C216.333 42.0283 216.978 42.4733 216.978 43.0221V54.9473C216.978 55.4962 216.333 55.9411 215.537 55.9411Z" fill="#D5FF5F"/>
<path d="M163.663 56.9345C162.866 56.9345 162.222 56.4895 162.222 55.9407V42.028C162.222 41.4792 162.866 41.0342 163.663 41.0342C164.459 41.0342 165.104 41.4792 165.104 42.028V55.9407C165.104 56.4895 164.459 56.9345 163.663 56.9345Z" fill="#D5FF5F"/>
<path d="M152.134 54.9468C151.338 54.9468 150.693 54.5018 150.693 53.953V44.0153C150.693 43.4665 151.338 43.0215 152.134 43.0215C152.931 43.0215 153.575 43.4665 153.575 44.0153V53.953C153.575 54.5018 152.931 54.9468 152.134 54.9468Z" fill="#C7EE97"/>
<path d="M221.301 59.9156C220.505 59.9156 219.86 59.4706 219.86 58.9218V39.0465C219.86 38.4977 220.505 38.0527 221.301 38.0527C222.098 38.0527 222.742 38.4977 222.742 39.0465V58.9219C222.742 59.4707 222.098 59.9156 221.301 59.9156Z" fill="#B8EB7C"/>
<path d="M180.954 70.8468C180.157 70.8468 179.513 70.4018 179.513 69.853V28.1149C179.513 27.5661 180.157 27.1211 180.954 27.1211C181.75 27.1211 182.395 27.5661 182.395 28.1149V69.8531C182.395 70.4018 181.75 70.8468 180.954 70.8468Z" fill="#8DE386"/>
<path d="M150.694 46.003V46.9968C150.694 47.5456 150.049 47.9906 149.253 47.9906C148.457 47.9906 147.812 47.5456 147.812 46.9968L144.93 43.0218C144.93 43.5706 144.285 44.0156 143.489 44.0156C142.693 44.0156 142.048 43.5706 142.048 43.0218L139.166 44.0156C139.166 44.5644 138.521 45.0094 137.725 45.0094C136.929 45.0094 136.284 44.5644 136.284 44.0156L133.402 38.0529C133.402 38.6017 132.757 39.0467 131.961 39.0467C131.165 39.0467 130.52 38.6017 130.52 38.0529H127.638C127.638 38.6017 126.993 39.0467 126.197 39.0467C125.401 39.0467 124.756 38.6017 124.756 38.0529L121.874 33.0841C121.874 33.6329 121.229 34.0779 120.433 34.0779C119.637 34.0779 118.992 33.6329 118.992 33.0841L116.11 31.0966C116.11 31.6454 115.465 32.0904 114.669 32.0904C113.873 32.0904 113.228 31.6454 113.228 31.0966L110.346 28.1152C110.346 28.664 109.701 29.109 108.905 29.109C108.109 29.109 107.464 28.664 107.464 28.1152L104.582 38.0529C104.582 38.6017 103.937 39.0467 103.141 39.0467C102.345 39.0467 101.7 38.6017 101.7 38.0529L98.8181 37.0591C98.8181 37.6079 98.173 38.0529 97.3771 38.0529C96.5812 38.0529 95.9361 37.6079 95.9361 37.0591L93.0542 43.0218C93.0542 43.5706 92.4091 44.0156 91.6132 44.0156C90.8172 44.0156 90.1721 43.5706 90.1721 43.0218L87.2902 42.0279C87.2902 42.5767 86.6451 43.0218 85.8492 43.0218C85.0533 43.0218 84.4082 42.5767 84.4082 42.0279L81.5263 44.0155C81.5263 44.5643 80.8812 45.0093 80.0852 45.0093C79.2893 45.0093 78.6442 44.5643 78.6442 44.0155L75.7638 46.9967C75.7638 47.5455 75.1187 47.9905 74.3228 47.9905C73.5268 47.9905 72.8817 47.5455 72.8817 46.9967C72.8817 46.4479 72.2373 46.0029 71.4407 46.0029C70.6441 46.0029 70 46.4479 70 46.9967V50.9717C70 51.5205 70.6444 51.9655 71.441 51.9655C72.2376 51.9655 72.8821 51.5205 72.8821 50.9717C72.8821 50.4228 73.5272 49.9779 74.3231 49.9779C75.119 49.9779 75.7641 50.4228 75.7641 50.9717L78.646 53.953C78.646 53.4041 79.2911 52.9592 80.087 52.9592C80.883 52.9592 81.5281 53.4041 81.5281 53.953L84.41 55.9405C84.41 55.3916 85.0551 54.9467 85.851 54.9467C86.6469 54.9467 87.292 55.3916 87.292 55.9405L90.1739 54.9467C90.1739 54.3978 90.819 53.9529 91.6149 53.9529C92.4109 53.9529 93.056 54.3978 93.056 54.9467L95.9379 60.9094C95.9379 60.3605 96.583 59.9156 97.3789 59.9156C98.1748 59.9156 98.8199 60.3605 98.8199 60.9094L101.702 59.9156C101.702 59.3667 102.347 58.9218 103.143 58.9218C103.939 58.9218 104.584 59.3667 104.584 59.9156L107.466 69.8532C107.466 69.3043 108.111 68.8594 108.907 68.8594C109.703 68.8594 110.348 69.3043 110.348 69.8532L113.23 66.8719C113.23 66.323 113.875 65.8781 114.671 65.8781C115.467 65.8781 116.112 66.323 116.112 66.8719L118.994 64.8844C118.994 64.3355 119.639 63.8906 120.435 63.8906C121.231 63.8906 121.876 64.3355 121.876 64.8844L124.758 59.9156C124.758 59.3667 125.403 58.9218 126.199 58.9218C126.995 58.9218 127.64 59.3667 127.64 59.9156H130.522C130.522 59.3667 131.167 58.9218 131.963 58.9218C132.759 58.9218 133.404 59.3667 133.404 59.9156L136.286 53.9529C136.286 53.404 136.931 52.9591 137.727 52.9591C138.522 52.9591 139.168 53.404 139.168 53.9529L142.049 54.9467C142.049 54.3978 142.695 53.9529 143.491 53.9529C144.286 53.9529 144.932 54.3978 144.932 54.9467L147.813 50.9717C147.813 50.4228 148.459 49.9779 149.254 49.9779C150.05 49.9779 150.696 50.4228 150.696 50.9717V51.9655C150.696 54.8665 150.694 41.5 150.694 46.003Z" fill="#8961FF"/>
<path d="M111.788 75.8158C110.991 75.8158 110.347 75.3708 110.347 74.822V23.1462C110.347 22.5974 110.991 22.1523 111.788 22.1523C112.584 22.1523 113.229 22.5974 113.229 23.1462V74.822C113.229 75.3708 112.584 75.8158 111.788 75.8158Z" fill="#6AEF97"/>
<path d="M117.551 67.8657C116.755 67.8657 116.11 67.4207 116.11 66.8719V31.0964C116.11 30.5475 116.755 30.1025 117.551 30.1025C118.348 30.1025 118.992 30.5475 118.992 31.0964V66.8719C118.992 67.4208 118.348 67.8657 117.551 67.8657Z" fill="#98DB7C"/>
<path d="M123.316 70.8468C122.52 70.8468 121.875 70.4018 121.875 69.853V28.1149C121.875 27.5661 122.519 27.1211 123.316 27.1211C124.113 27.1211 124.757 27.5661 124.757 28.1149V69.8531C124.757 70.4018 124.112 70.8468 123.316 70.8468Z" fill="#8DE386"/>
<path d="M94.4967 67.8657C93.7003 67.8657 93.0557 67.4207 93.0557 66.8719V31.0964C93.0557 30.5475 93.7001 30.1025 94.4967 30.1025C95.2931 30.1025 95.9377 30.5475 95.9377 31.0964V66.8719C95.9377 67.4208 95.2931 67.8657 94.4967 67.8657Z" fill="#5FE2AB"/>
<path d="M129.08 61.9025C128.283 61.9025 127.639 61.4575 127.639 60.9087V37.0583C127.639 36.5095 128.283 36.0645 129.08 36.0645C129.876 36.0645 130.521 36.5095 130.521 37.0583V60.9087C130.521 61.4575 129.876 61.9025 129.08 61.9025Z" fill="#B8EB7C"/>
<path d="M100.26 61.9025C99.4639 61.9025 98.8193 61.4575 98.8193 60.9087V37.0583C98.8193 36.5095 99.4638 36.0645 100.26 36.0645C101.057 36.0645 101.701 36.5095 101.701 37.0583V60.9087C101.701 61.4575 101.057 61.9025 100.26 61.9025Z" fill="#D5FF5F"/>
<path d="M82.9684 60.91C82.172 60.91 81.5273 60.4649 81.5273 59.9161V38.0534C81.5273 37.5046 82.1718 37.0596 82.9684 37.0596C83.765 37.0596 84.4094 37.5046 84.4094 38.0534V59.9163C84.4094 60.465 83.765 60.91 82.9684 60.91Z" fill="#98E68C"/>
<path d="M134.843 65.8789C134.047 65.8789 133.402 65.4339 133.402 64.8851V33.0846C133.402 32.5358 134.047 32.0908 134.843 32.0908C135.64 32.0908 136.284 32.5358 136.284 33.0846V64.8852C136.284 65.4339 135.64 65.8789 134.843 65.8789Z" fill="#7AEAA0"/>
<path d="M140.607 55.9411C139.811 55.9411 139.166 55.4961 139.166 54.9473V43.0221C139.166 42.4733 139.81 42.0283 140.607 42.0283C141.404 42.0283 142.048 42.4733 142.048 43.0221V54.9473C142.048 55.4962 141.403 55.9411 140.607 55.9411Z" fill="#D5FF5F"/>
<path d="M88.732 56.9345C87.9356 56.9345 87.291 56.4895 87.291 55.9407V42.028C87.291 41.4792 87.9355 41.0342 88.732 41.0342C89.5286 41.0342 90.1731 41.4792 90.1731 42.028V55.9407C90.1729 56.4895 89.5285 56.9345 88.732 56.9345Z" fill="#D5FF5F"/>
<path d="M77.2047 54.9468C76.4083 54.9468 75.7637 54.5018 75.7637 53.953V44.0153C75.7637 43.4665 76.4081 43.0215 77.2047 43.0215C78.0013 43.0215 78.6457 43.4665 78.6457 44.0153V53.953C78.6457 54.5018 78.0011 54.9468 77.2047 54.9468Z" fill="#D5FF5F"/>
<path d="M146.371 59.9156C145.574 59.9156 144.93 59.4706 144.93 58.9218V39.0465C144.93 38.4977 145.574 38.0527 146.371 38.0527C147.167 38.0527 147.812 38.4977 147.812 39.0465V58.9219C147.812 59.4707 147.167 59.9156 146.371 59.9156Z" fill="#5FE2AB"/>
<path d="M106.024 70.8468C105.228 70.8468 104.583 70.4018 104.583 69.853V28.1149C104.583 27.5661 105.227 27.1211 106.024 27.1211C106.82 27.1211 107.465 27.5661 107.465 28.1149V69.8531C107.465 70.4018 106.82 70.8468 106.024 70.8468Z" fill="#8DE386"/>
<g clip-path="url(#clip0_1668_7193)">
<circle cx="38.5672" cy="48.644" r="14.9419" transform="rotate(19.4698 38.5672 48.644)" fill="white"/>
<path fill-rule="evenodd" clip-rule="evenodd" d="M38.497 32C29.4005 32 22 39.4005 22 48.497C22 57.5936 29.4005 64.994 38.497 64.994C47.5935 64.994 54.994 57.5936 54.994 48.497C54.994 39.4005 47.5936 32 38.497 32ZM40.7402 41.5934C40.87 41.6776 40.9764 41.7932 41.0497 41.9295C41.1229 42.0658 41.1605 42.2184 41.1591 42.3731V54.6209C41.1605 54.7757 41.1227 54.9285 41.0494 55.0649C40.9761 55.2013 40.8695 55.317 40.7396 55.4013C40.5991 55.4926 40.4351 55.5412 40.2676 55.5411C40.1 55.541 39.9361 55.4922 39.7958 55.4006L35.1984 52.4408L31.5446 52.4312C31.5166 52.4312 31.4886 52.4292 31.4608 52.4254C30.5127 52.2991 29.7974 51.451 29.7974 50.4528V46.4155C29.7974 45.4174 30.5127 44.5693 31.4612 44.443C31.489 44.4391 31.517 44.4372 31.545 44.4372L35.394 44.4275L39.7961 41.5934C39.9365 41.5016 40.1006 41.4528 40.2683 41.4528C40.436 41.4528 40.6001 41.5016 40.7405 41.5934H40.7402ZM39.8703 53.9159L35.7376 51.2551C35.6341 51.1885 35.5136 51.1529 35.3905 51.1526L31.5984 51.1423C31.3084 51.085 31.0863 50.7892 31.0863 50.4528V46.4155C31.0863 46.0791 31.3086 45.7834 31.5984 45.726L35.5857 45.7157C35.7089 45.7155 35.8293 45.6799 35.9329 45.6133L39.8703 43.0781V53.9159ZM44.7556 48.3533C44.7547 48.8963 44.6422 49.4334 44.4253 49.9312C44.2084 50.429 43.8916 50.877 43.4945 51.2474C43.4329 51.307 43.3601 51.3538 43.2802 51.385C43.2003 51.4161 43.1151 51.431 43.0294 51.4288C42.9437 51.4266 42.8593 51.4073 42.7811 51.372C42.703 51.3368 42.6326 51.2863 42.5742 51.2235C42.5158 51.1608 42.4706 51.087 42.441 51.0065C42.4115 50.926 42.3984 50.8404 42.4023 50.7548C42.4063 50.6692 42.4273 50.5852 42.4641 50.5078C42.501 50.4303 42.5529 50.361 42.6168 50.3039C42.885 50.0546 43.0988 49.7527 43.2451 49.417C43.3913 49.0813 43.4668 48.7191 43.4668 48.353C43.4668 47.9868 43.3913 47.6246 43.2451 47.2889C43.0988 46.9533 42.885 46.6513 42.6168 46.402C42.5529 46.3449 42.501 46.2756 42.4641 46.1982C42.4273 46.1208 42.4063 46.0368 42.4023 45.9512C42.3984 45.8655 42.4115 45.78 42.441 45.6995C42.4706 45.619 42.5158 45.5452 42.5742 45.4824C42.6326 45.4197 42.703 45.3692 42.7811 45.3339C42.8593 45.2987 42.9437 45.2794 43.0294 45.2772C43.1151 45.2749 43.2003 45.2898 43.2802 45.321C43.3601 45.3522 43.4329 45.3989 43.4945 45.4586C43.8916 45.8291 44.2085 46.2772 44.4254 46.7751C44.6423 47.273 44.7547 47.8102 44.7556 48.3533ZM47.1967 48.3533C47.1961 49.1099 47.0365 49.8578 46.7284 50.5488C46.4202 51.2397 45.9703 51.8582 45.4078 52.3641C45.3452 52.4225 45.2715 52.4678 45.1912 52.4974C45.1109 52.5269 45.0255 52.5402 44.94 52.5365C44.8545 52.5327 44.7706 52.5119 44.6932 52.4753C44.6158 52.4388 44.5465 52.3872 44.4893 52.3235C44.432 52.2599 44.3881 52.1855 44.3599 52.1047C44.3318 52.0238 44.32 51.9382 44.3253 51.8528C44.3306 51.7673 44.3529 51.6838 44.3908 51.6071C44.4287 51.5304 44.4815 51.462 44.5462 51.4059C44.9747 51.0211 45.3174 50.5504 45.552 50.0244C45.7866 49.4984 45.9078 48.9289 45.9078 48.353C45.9078 47.777 45.7866 47.2076 45.552 46.6816C45.3174 46.1556 44.9747 45.6849 44.5462 45.3001C44.4226 45.1849 44.3492 45.0258 44.3417 44.8571C44.3342 44.6883 44.3933 44.5234 44.5063 44.3977C44.6192 44.2721 44.777 44.1959 44.9456 44.1854C45.1142 44.175 45.2802 44.2311 45.4078 44.3418C45.9702 44.8479 46.4201 45.4665 46.7282 46.1576C47.0364 46.8486 47.1959 47.5967 47.1966 48.3533H47.1967Z" fill="#C059F0"/>
</g>
<path d="M255.738 44.3825C255.834 44.7522 256.211 44.9736 256.581 44.8775C256.951 44.7814 257.172 44.4044 257.076 44.0347L255.115 36.4894L253.545 35.9453L255.738 44.3825Z" fill="#6CD604"/>
<path d="M248.318 49.1683C248.414 49.538 248.791 49.7595 249.161 49.6633C249.531 49.5672 249.752 49.1903 249.656 48.8205L247.347 39.9374L246.473 42.069L248.318 49.1683Z" fill="#6CD604"/>
<path d="M247.501 51.5231C248.979 51.1389 249.943 49.929 249.655 48.8207C249.367 47.7124 247.936 47.1253 246.458 47.5095C244.98 47.8937 244.016 49.1035 244.304 50.2119C244.592 51.3202 246.024 51.9072 247.501 51.5231Z" fill="#A0E65C"/>
<path d="M253.879 42.7235C253.068 42.9345 252.384 43.3936 252.004 43.9352C251.683 44.3947 251.547 44.9209 251.681 45.4375C251.815 45.954 252.191 46.3471 252.695 46.5919C253.29 46.8803 254.111 46.948 254.923 46.7371C256.423 46.3472 257.369 45.1602 257.077 44.0347C256.784 42.9092 255.379 42.3336 253.879 42.7235Z" fill="#A0E65C"/>
<path d="M253.597 34.265L250.08 36.5322L246.176 39.0506C245.926 39.2124 245.809 39.5157 245.883 39.8038L246.472 42.0695L250.794 39.2798L255.115 36.4901L254.642 34.6704C254.523 34.2128 253.987 34.0069 253.597 34.265Z" fill="#46B486"/>
<path d="M262.158 57.1434C261.672 57.2698 261.381 57.7656 261.507 58.2518L264.251 68.8091C264.378 69.2953 264.874 69.5865 265.36 69.4601C265.846 69.3337 266.137 68.8379 266.011 68.3516L263.537 58.8363C264.654 58.935 265.643 59.7106 265.941 60.8561L266.398 62.6156C266.525 63.1019 267.021 63.3931 267.507 63.2667C267.993 63.1403 268.284 62.6445 268.158 62.1582L267.7 60.3987C267.07 57.9733 264.584 56.5126 262.158 57.1434Z" fill="#6BD604"/>
<path d="M261.806 66.6272C259.834 67.14 258.588 68.701 258.973 70.1813C259.358 71.6616 261.206 72.4186 263.178 71.9058C265.151 71.393 264.763 70.2566 264.378 68.7763C263.993 67.296 263.779 66.1144 261.806 66.6272Z" fill="#A0E65C"/>
<path d="M266.011 68.3514C265.626 66.8711 263.778 66.1142 261.806 66.627L263.178 71.9056C265.15 71.3928 266.396 69.8317 266.011 68.3514Z" fill="#A0E65C"/>
<path d="M159.735 74.921C158.311 74.0983 157.821 72.27 158.643 70.8451C158.918 70.369 158.755 69.7613 158.279 69.4865C157.803 69.2116 157.196 69.3744 156.921 69.8505C156.098 71.2754 154.27 71.7653 152.845 70.9426C152.369 70.6678 151.761 70.8306 151.486 71.3067C151.211 71.7828 151.374 72.3904 151.85 72.6653C153.275 73.488 153.765 75.3163 152.942 76.7412C152.667 77.2173 152.83 77.8249 153.306 78.0998C153.782 78.3747 154.39 78.2118 154.665 77.7358C155.488 76.3109 157.316 75.821 158.741 76.6436C159.217 76.9185 159.825 76.7557 160.1 76.2796C160.374 75.8035 160.212 75.1958 159.735 74.921Z" fill="#FFDB5A"/>
<path d="M228.443 29.0534C227.466 29.3075 226.464 28.719 226.21 27.7415C226.125 27.4149 225.792 27.2193 225.465 27.3042C225.139 27.3891 224.943 27.7221 225.028 28.0487C225.282 29.0262 224.694 30.0281 223.716 30.2822C223.389 30.3672 223.194 30.7001 223.279 31.0268C223.364 31.3534 223.697 31.549 224.023 31.464C225.001 31.2099 226.003 31.7984 226.257 32.7759C226.342 33.1025 226.675 33.2981 227.001 33.2132C227.328 33.1283 227.524 32.7953 227.439 32.4687C227.185 31.4912 227.773 30.4893 228.75 30.2352C229.077 30.1503 229.273 29.8173 229.188 29.4907C229.103 29.1641 228.77 28.9685 228.443 29.0534Z" fill="#FFCA40"/>
<path d="M89.4316 20.6013C87.2563 21.1668 85.0267 19.8572 84.4612 17.6819C84.2722 16.9551 83.5312 16.5198 82.8044 16.7088C82.0775 16.8977 81.6423 17.6388 81.8312 18.3656C82.3967 20.5409 81.0871 22.7705 78.9118 23.336C78.185 23.525 77.7497 24.266 77.9387 24.9928C78.1276 25.7197 78.8687 26.1549 79.5955 25.966C81.7708 25.4005 84.0004 26.7101 84.5659 28.8854C84.7549 29.6122 85.4959 30.0474 86.2227 29.8585C86.9496 29.6696 87.3848 28.9285 87.1959 28.2017C86.6304 26.0264 87.94 23.7967 90.1153 23.2313C90.8421 23.0423 91.2774 22.3013 91.0884 21.5744C90.8995 20.8476 90.1584 20.4124 89.4316 20.6013Z" fill="#FFBE40"/>
<defs>
<clipPath id="clip0_1668_7193">
<rect width="32.994" height="32.994" fill="white" transform="translate(22 32)"/>
</clipPath>
</defs>
</svg>
