<svg width="292" height="103" viewBox="0 0 292 103" fill="none" xmlns="http://www.w3.org/2000/svg">
<rect width="292" height="102.768" fill="#1D1D26"/>
<g filter="url(#filter0_f_1629_965)">
<ellipse cx="152.263" cy="94.5287" rx="70.3507" ry="1.4027" fill="#270B31" fill-opacity="0.2"/>
</g>
<path d="M84.9943 76.0613C78.9626 81.3492 83.7424 86.0825 83.3441 87.5282H211.318C208.586 87.2906 216.325 86.9935 214.39 78.8538C212.456 70.7141 203.067 66.971 202.953 65.3074C202.839 63.6438 208.302 57.4647 204.148 53.3652C199.994 49.2656 200.279 50.4539 200.051 43.9777C199.823 37.5016 196.239 24.6682 181.785 22.4104C167.332 20.1527 164.146 26.0941 159.707 30.7878C155.269 35.4815 155.155 38.7493 152.253 39.5217C149.351 40.2941 145.937 38.0363 142.181 39.5217C138.426 41.007 138.539 43.0865 136.32 43.0865C134.101 43.0865 131.142 40.1752 124.428 43.0865C119.056 45.4155 117.561 54.7119 117.486 59.0689C115.153 57.1676 111.852 55.7417 107.812 55.5041C103.772 55.2664 99.6751 57.8212 96.0902 64.1191C92.5054 70.417 93.7003 73.0312 92.2209 73.9818C90.7414 74.9325 87.257 74.0776 84.9943 76.0613Z" fill="url(#paint0_radial_1629_965)"/>
<path d="M77.8968 78.0029C71.4201 83.6173 76.5525 88.6429 76.1248 90.1779H224.939C222.006 89.9256 230.316 89.6102 228.238 80.9678C226.161 72.3254 204.682 68.3511 204.56 66.5848C204.437 64.8184 210.303 58.2578 205.843 53.905C201.382 49.5523 201.688 50.814 201.444 43.9379C201.199 37.0618 197.35 23.4358 181.83 21.0386C166.31 18.6415 162.889 24.9498 158.123 29.9334C153.357 34.917 153.235 38.3865 150.118 39.2066C147.002 40.0267 143.336 37.6295 139.304 39.2066C135.271 40.7837 135.393 42.9916 133.01 42.9916C130.627 42.9916 127.45 39.9005 120.24 42.9916C114.472 45.4645 112.867 55.3349 112.786 59.961C110.28 57.9424 106.737 56.4284 102.398 56.176C98.0602 55.9237 93.6609 58.6363 89.8115 65.3231C85.9621 72.0099 87.2453 74.7856 85.6566 75.7949C84.068 76.8043 80.3265 75.8967 77.8968 78.0029Z" fill="url(#paint1_linear_1629_965)"/>
<path d="M64 92.5154C64.4274 90.9916 63.0518 84.0631 69.2954 78.1816C73.9075 73.837 82.3452 74.8389 83.9325 73.837C85.5198 72.835 84.2377 70.0797 88.0839 63.4418C91.9302 56.8039 96.3258 54.1112 100.66 54.3617C104.995 54.6122 108.536 56.1151 111.039 58.119C111.121 53.5267 112.724 43.7285 118.487 41.2738C125.691 38.2053 126.815 39.5809 129.196 39.5809C131.577 39.5809 131.202 36.4314 135.232 34.8658C139.261 33.3003 142.253 36.6229 145.367 35.8088C148.481 34.9948 151.577 33.2582 156.339 28.3111C161.101 23.364 167.574 20.6722 179.36 22.4809C194.867 24.8606 197.621 32.8181 197.866 39.6438C198.11 46.4695 202.195 45.8764 204.02 52.1073C205.78 58.1189 202.616 62.9408 202.738 64.6942C202.86 66.4476 216.573 70.0425 218.649 78.6217C220.081 84.5405 217.423 89.5048 217.095 91.1471L218.649 91.1332C217.271 91.9522 216.948 91.8852 217.095 91.1471L64 92.5154Z" fill="url(#paint2_linear_1629_965)" fill-opacity="0.4"/>
<path d="M180.975 26.8375C180.996 26.7532 181.061 26.6968 181.12 26.7117C181.178 26.7265 181.208 26.8069 181.187 26.8912C181.166 26.9756 181.101 27.0319 181.042 27.0171C180.984 27.0022 180.954 26.9218 180.975 26.8375Z" fill="#D1FEF9"/>
<path d="M184.535 25.9435C184.558 25.8514 184.629 25.7899 184.693 25.8061C184.757 25.8223 184.79 25.9101 184.767 26.0022C184.744 26.0943 184.673 26.1558 184.609 26.1396C184.545 26.1234 184.512 26.0356 184.535 25.9435Z" fill="#D1FEF9"/>
<path d="M185.143 26.6014C185.174 26.4773 185.27 26.3944 185.356 26.4162C185.442 26.4381 185.487 26.5564 185.455 26.6805C185.424 26.8047 185.329 26.8876 185.242 26.8657C185.156 26.8439 185.112 26.7255 185.143 26.6014Z" fill="#D1FEF9"/>
<path d="M187.117 25.8526C187.131 25.7964 187.174 25.7588 187.213 25.7687C187.252 25.7786 187.272 25.8322 187.258 25.8884C187.244 25.9447 187.201 25.9822 187.162 25.9723C187.123 25.9624 187.102 25.9088 187.117 25.8526Z" fill="#D1FEF9"/>
<path d="M189.227 24.4391C189.272 24.2598 189.41 24.1401 189.535 24.1716C189.659 24.2032 189.723 24.3741 189.678 24.5533C189.633 24.7326 189.495 24.8524 189.37 24.8208C189.246 24.7893 189.181 24.6184 189.227 24.4391Z" fill="#D1FEF9"/>
<path d="M189.8 25.0576C189.815 24.9974 189.861 24.9571 189.903 24.9677C189.945 24.9783 189.967 25.0358 189.951 25.096C189.936 25.1562 189.89 25.1965 189.848 25.1859C189.806 25.1753 189.785 25.1179 189.8 25.0576Z" fill="#D1FEF9"/>
<path d="M186.436 28.2017C186.459 28.1077 186.532 28.045 186.597 28.0615C186.662 28.078 186.696 28.1676 186.672 28.2615C186.648 28.3555 186.576 28.4182 186.511 28.4017C186.445 28.3852 186.412 28.2956 186.436 28.2017Z" fill="#D1FEF9"/>
<path d="M182.181 28.0253C182.188 28.0006 182.207 27.9841 182.224 27.9884C182.241 27.9928 182.25 28.0164 182.244 28.0411C182.238 28.0659 182.218 28.0824 182.201 28.0781C182.184 28.0737 182.175 28.0501 182.181 28.0253Z" fill="#D1FEF9"/>
<path d="M180.573 27.8108C180.598 27.7104 180.675 27.6434 180.745 27.661C180.815 27.6787 180.851 27.7744 180.825 27.8748C180.8 27.9752 180.723 28.0423 180.653 28.0246C180.583 28.007 180.547 27.9113 180.573 27.8108Z" fill="#D1FEF9"/>
<path d="M182.555 26.8076C182.591 26.6684 182.698 26.5754 182.794 26.5999C182.891 26.6244 182.941 26.7571 182.906 26.8964C182.87 27.0356 182.763 27.1286 182.667 27.1041C182.57 27.0796 182.52 26.9469 182.555 26.8076Z" fill="#D1FEF9"/>
<path d="M183.695 27.445C183.705 27.403 183.738 27.3749 183.767 27.3823C183.796 27.3897 183.811 27.4298 183.801 27.4718C183.79 27.5138 183.758 27.5419 183.728 27.5345C183.699 27.5271 183.684 27.487 183.695 27.445Z" fill="#D1FEF9"/>
<path d="M184.761 22.7638C184.797 22.619 184.909 22.5223 185.009 22.5478C185.11 22.5733 185.162 22.7113 185.125 22.856C185.088 23.0008 184.977 23.0975 184.876 23.072C184.776 23.0466 184.724 22.9086 184.761 22.7638Z" fill="#D1FEF9"/>
<path d="M197.228 32.2228C197.28 32.0185 197.437 31.8821 197.579 31.9181C197.721 31.954 197.794 32.1487 197.742 32.3529C197.69 32.5571 197.533 32.6935 197.392 32.6576C197.25 32.6216 197.177 32.427 197.228 32.2228Z" fill="#D1FEF9"/>
<path d="M186.886 23.4332C186.903 23.3653 186.955 23.3199 187.002 23.3318C187.049 23.3438 187.074 23.4086 187.057 23.4766C187.039 23.5445 186.987 23.5899 186.94 23.578C186.893 23.566 186.868 23.5012 186.886 23.4332Z" fill="#D1FEF9"/>
<path d="M184.456 23.2937C184.473 23.2297 184.522 23.187 184.566 23.1982C184.611 23.2095 184.633 23.2705 184.617 23.3344C184.601 23.3984 184.552 23.4411 184.507 23.4298C184.463 23.4186 184.44 23.3576 184.456 23.2937Z" fill="#D1FEF9"/>
<path d="M186.028 23.8093C186.044 23.7481 186.091 23.7072 186.133 23.718C186.176 23.7288 186.198 23.7871 186.182 23.8482C186.167 23.9094 186.12 23.9503 186.077 23.9395C186.035 23.9287 186.013 23.8704 186.028 23.8093Z" fill="#D1FEF9"/>
<path d="M183.201 24.0046C183.224 23.9104 183.297 23.8474 183.362 23.864C183.428 23.8806 183.462 23.9704 183.438 24.0647C183.414 24.1589 183.341 24.2219 183.276 24.2053C183.21 24.1887 183.177 24.0989 183.201 24.0046Z" fill="#D1FEF9"/>
<path d="M193.886 25.5764C193.915 25.4612 194.004 25.3842 194.084 25.4045C194.164 25.4248 194.205 25.5346 194.176 25.6498C194.147 25.765 194.058 25.842 193.978 25.8217C193.898 25.8014 193.857 25.6916 193.886 25.5764Z" fill="#D1FEF9"/>
<path d="M195.254 26.0376C195.269 25.978 195.315 25.9382 195.357 25.9487C195.398 25.9592 195.419 26.016 195.404 26.0756C195.389 26.1353 195.343 26.1751 195.302 26.1646C195.261 26.1541 195.239 26.0973 195.254 26.0376Z" fill="#D1FEF9"/>
<path d="M196.425 27.9678C196.442 27.8979 196.496 27.8513 196.545 27.8636C196.593 27.8759 196.618 27.9424 196.6 28.0123C196.583 28.0821 196.529 28.1287 196.481 28.1164C196.432 28.1041 196.407 28.0376 196.425 27.9678Z" fill="#D1FEF9"/>
<path d="M194.119 27.3598C194.14 27.2771 194.203 27.2217 194.261 27.2363C194.318 27.2509 194.348 27.3298 194.327 27.4126C194.306 27.4954 194.242 27.5507 194.185 27.5361C194.127 27.5215 194.098 27.4426 194.119 27.3598Z" fill="#D1FEF9"/>
<path d="M192.066 27.5246C192.086 27.4477 192.145 27.3963 192.198 27.4098C192.252 27.4234 192.279 27.4967 192.26 27.5736C192.24 27.6505 192.181 27.7019 192.128 27.6884C192.074 27.6748 192.047 27.6015 192.066 27.5246Z" fill="#D1FEF9"/>
<path d="M196.029 32.9516C196.048 32.8743 196.108 32.8227 196.161 32.8363C196.215 32.8499 196.242 32.9235 196.223 33.0008C196.203 33.078 196.144 33.1296 196.09 33.116C196.037 33.1024 196.009 33.0288 196.029 32.9516Z" fill="#D1FEF9"/>
<path d="M198.736 32.7852C198.759 32.6919 198.831 32.6295 198.896 32.646C198.961 32.6624 198.994 32.7514 198.971 32.8447C198.947 32.938 198.875 33.0004 198.81 32.9839C198.745 32.9675 198.712 32.8785 198.736 32.7852Z" fill="#D1FEF9"/>
<path d="M192.613 32.3536C192.646 32.2224 192.747 32.1347 192.838 32.1578C192.929 32.1809 192.976 32.306 192.943 32.4372C192.91 32.5684 192.809 32.6561 192.718 32.633C192.627 32.6099 192.58 32.4848 192.613 32.3536Z" fill="#D1FEF9"/>
<path d="M192.696 30.9826C192.708 30.9344 192.745 30.9022 192.778 30.9107C192.812 30.9192 192.829 30.9651 192.817 31.0133C192.805 31.0615 192.768 31.0937 192.734 31.0852C192.701 31.0767 192.684 31.0308 192.696 30.9826Z" fill="#D1FEF9"/>
<path d="M195.364 32.527C195.378 32.4714 195.421 32.4342 195.46 32.444C195.498 32.4538 195.518 32.5068 195.504 32.5624C195.49 32.618 195.447 32.6552 195.409 32.6454C195.37 32.6356 195.35 32.5826 195.364 32.527Z" fill="#D1FEF9"/>
<path d="M196.458 33.6049C196.476 33.5372 196.528 33.492 196.575 33.504C196.622 33.5159 196.646 33.5804 196.629 33.648C196.612 33.7157 196.56 33.7609 196.513 33.749C196.466 33.737 196.441 33.6726 196.458 33.6049Z" fill="#D1FEF9"/>
<path d="M191.139 26.396C191.162 26.4858 191.114 26.5595 191.031 26.5606C190.948 26.5617 190.862 26.4898 190.839 26.4C190.816 26.3101 190.864 26.2364 190.947 26.2353C191.03 26.2342 191.116 26.3061 191.139 26.396Z" fill="#D1FEF9"/>
<path d="M187.178 28.2533C187.204 28.3514 187.151 28.4319 187.06 28.4331C186.97 28.4344 186.876 28.3558 186.851 28.2577C186.825 28.1596 186.878 28.0791 186.968 28.0779C187.059 28.0767 187.153 28.1552 187.178 28.2533Z" fill="#D1FEF9"/>
<path d="M186.017 27.7618C186.051 27.894 185.98 28.0025 185.858 28.0042C185.736 28.0058 185.61 27.8999 185.576 27.7677C185.541 27.6355 185.612 27.527 185.734 27.5254C185.856 27.5237 185.983 27.6296 186.017 27.7618Z" fill="#D1FEF9"/>
<path d="M183.972 29.0433C183.988 29.1031 183.955 29.1523 183.9 29.153C183.845 29.1538 183.788 29.1058 183.772 29.0459C183.757 28.986 183.789 28.9369 183.844 28.9362C183.899 28.9354 183.957 28.9834 183.972 29.0433Z" fill="#D1FEF9"/>
<path d="M182.151 31.0247C182.2 31.2157 182.098 31.3724 181.922 31.3747C181.746 31.3771 181.563 31.2242 181.513 31.0332C181.464 30.8423 181.567 30.6856 181.743 30.6832C181.919 30.6809 182.101 30.8338 182.151 31.0247Z" fill="#D1FEF9"/>
<path d="M181.059 30.5635C181.075 30.6277 181.041 30.6803 180.982 30.6811C180.923 30.6819 180.861 30.6305 180.845 30.5664C180.828 30.5022 180.862 30.4496 180.922 30.4488C180.981 30.448 181.042 30.4993 181.059 30.5635Z" fill="#D1FEF9"/>
<path d="M183.434 26.5185C183.46 26.6186 183.406 26.7007 183.314 26.7019C183.221 26.7032 183.126 26.6231 183.1 26.523C183.074 26.4229 183.128 26.3408 183.22 26.3396C183.312 26.3383 183.408 26.4185 183.434 26.5185Z" fill="#D1FEF9"/>
<path d="M188.907 25.5407C188.914 25.5671 188.9 25.5887 188.875 25.589C188.851 25.5894 188.826 25.5682 188.819 25.5419C188.812 25.5155 188.826 25.4939 188.851 25.4936C188.875 25.4932 188.9 25.5143 188.907 25.5407Z" fill="#D1FEF9"/>
<path d="M191.067 25.3168C191.095 25.4238 191.038 25.5115 190.939 25.5129C190.84 25.5142 190.738 25.4285 190.71 25.3216C190.683 25.2146 190.74 25.1269 190.839 25.1255C190.937 25.1242 191.04 25.2099 191.067 25.3168Z" fill="#D1FEF9"/>
<path d="M189.16 26.8547C189.199 27.003 189.119 27.1247 188.982 27.1265C188.846 27.1283 188.704 27.0096 188.665 26.8613C188.627 26.713 188.707 26.5913 188.843 26.5895C188.98 26.5876 189.122 26.7064 189.16 26.8547Z" fill="#D1FEF9"/>
<path d="M187.344 26.5283C187.356 26.573 187.332 26.6097 187.29 26.6103C187.249 26.6108 187.206 26.575 187.195 26.5303C187.183 26.4855 187.207 26.4488 187.249 26.4482C187.29 26.4477 187.333 26.4835 187.344 26.5283Z" fill="#D1FEF9"/>
<path d="M188.786 31.4823C188.826 31.6365 188.743 31.763 188.601 31.7649C188.459 31.7668 188.311 31.6434 188.272 31.4892C188.232 31.335 188.314 31.2084 188.457 31.2065C188.599 31.2046 188.746 31.3281 188.786 31.4823Z" fill="#D1FEF9"/>
<path d="M167.416 25.4379C167.472 25.6554 167.355 25.8339 167.155 25.8366C166.954 25.8392 166.746 25.6651 166.69 25.4476C166.634 25.23 166.75 25.0515 166.951 25.0489C167.151 25.0462 167.36 25.2203 167.416 25.4379Z" fill="#D1FEF9"/>
<path d="M185.705 31.3925C185.724 31.4649 185.685 31.5243 185.618 31.5252C185.552 31.5261 185.482 31.4681 185.464 31.3957C185.445 31.3233 185.484 31.2639 185.551 31.263C185.617 31.2621 185.687 31.3201 185.705 31.3925Z" fill="#D1FEF9"/>
<path d="M188.855 30.8713C188.873 30.9394 188.836 30.9953 188.773 30.9961C188.71 30.997 188.645 30.9424 188.628 30.8743C188.61 30.8062 188.647 30.7503 188.709 30.7495C188.772 30.7486 188.837 30.8032 188.855 30.8713Z" fill="#D1FEF9"/>
<path d="M186.564 30.783C186.581 30.8482 186.546 30.9016 186.486 30.9024C186.426 30.9032 186.364 30.8511 186.347 30.7859C186.33 30.7208 186.365 30.6673 186.425 30.6665C186.485 30.6657 186.548 30.7179 186.564 30.783Z" fill="#D1FEF9"/>
<path d="M190.017 29.8228C190.043 29.9232 189.989 30.0056 189.896 30.0068C189.804 30.0081 189.708 29.9277 189.682 29.8273C189.656 29.7269 189.71 29.6445 189.802 29.6433C189.895 29.642 189.991 29.7224 190.017 29.8228Z" fill="#D1FEF9"/>
<path d="M175.592 31.1552C175.624 31.2779 175.558 31.3786 175.445 31.3801C175.332 31.3816 175.214 31.2834 175.183 31.1607C175.151 31.0379 175.217 30.9373 175.33 30.9357C175.443 30.9342 175.56 31.0325 175.592 31.1552Z" fill="#D1FEF9"/>
<path d="M173.591 31.0672C173.608 31.1307 173.574 31.1829 173.515 31.1836C173.457 31.1844 173.396 31.1336 173.379 31.0701C173.363 31.0066 173.397 30.9544 173.456 30.9537C173.514 30.9529 173.575 31.0037 173.591 31.0672Z" fill="#D1FEF9"/>
<path d="M170.963 29.4604C170.982 29.5348 170.942 29.5958 170.874 29.5967C170.805 29.5977 170.734 29.5381 170.715 29.4638C170.695 29.3894 170.735 29.3284 170.804 29.3274C170.872 29.3265 170.944 29.3861 170.963 29.4604Z" fill="#D1FEF9"/>
<path d="M174.238 29.4409C174.261 29.5291 174.214 29.6014 174.132 29.6025C174.051 29.6036 173.967 29.533 173.944 29.4448C173.921 29.3566 173.968 29.2843 174.05 29.2832C174.131 29.2821 174.215 29.3527 174.238 29.4409Z" fill="#D1FEF9"/>
<path d="M176.73 28.7189C176.751 28.8008 176.707 28.8681 176.632 28.8691C176.556 28.8701 176.478 28.8045 176.456 28.7226C176.435 28.6406 176.479 28.5734 176.555 28.5724C176.63 28.5714 176.709 28.637 176.73 28.7189Z" fill="#D1FEF9"/>
<path d="M168.497 24.3865C168.518 24.4688 168.474 24.5363 168.398 24.5373C168.322 24.5383 168.243 24.4724 168.222 24.3902C168.201 24.3079 168.245 24.2404 168.321 24.2394C168.397 24.2384 168.475 24.3042 168.497 24.3865Z" fill="#D1FEF9"/>
<path d="M165.177 25.2869C165.203 25.3863 165.15 25.4679 165.058 25.4691C164.966 25.4703 164.871 25.3907 164.845 25.2913C164.82 25.1919 164.873 25.1103 164.965 25.1091C165.056 25.1079 165.152 25.1875 165.177 25.2869Z" fill="#D1FEF9"/>
<path d="M173.165 24.0564C173.201 24.1962 173.126 24.3109 172.997 24.3126C172.868 24.3143 172.735 24.2024 172.698 24.0626C172.662 23.9229 172.737 23.8082 172.866 23.8065C172.995 23.8047 173.129 23.9166 173.165 24.0564Z" fill="#D1FEF9"/>
<path d="M173.875 25.4451C173.888 25.4965 173.861 25.5386 173.814 25.5392C173.766 25.5399 173.717 25.4988 173.704 25.4474C173.69 25.3961 173.718 25.354 173.765 25.3533C173.813 25.3527 173.862 25.3938 173.875 25.4451Z" fill="#D1FEF9"/>
<path d="M169.589 24.629C169.604 24.6882 169.572 24.7368 169.518 24.7376C169.463 24.7383 169.406 24.6909 169.391 24.6317C169.376 24.5724 169.408 24.5238 169.462 24.5231C169.517 24.5224 169.573 24.5698 169.589 24.629Z" fill="#D1FEF9"/>
<path d="M167.565 23.8528C167.584 23.9249 167.545 23.9841 167.479 23.9849C167.412 23.9858 167.343 23.9281 167.325 23.8561C167.306 23.784 167.345 23.7249 167.411 23.724C167.478 23.7231 167.547 23.7808 167.565 23.8528Z" fill="#D1FEF9"/>
<path d="M169.428 23.8784C169.457 23.9554 169.538 23.9963 169.611 23.9697C169.684 23.943 169.72 23.859 169.692 23.782C169.663 23.705 169.582 23.6642 169.509 23.6908C169.436 23.7174 169.4 23.8014 169.428 23.8784Z" fill="#D1FEF9"/>
<path d="M172.161 22.7394C172.214 22.8836 172.367 22.9601 172.503 22.9103C172.639 22.8604 172.707 22.7031 172.654 22.5589C172.601 22.4147 172.448 22.3383 172.312 22.3881C172.176 22.4379 172.108 22.5952 172.161 22.7394Z" fill="#D1FEF9"/>
<path d="M171.352 23.6618C171.391 23.7686 171.505 23.8252 171.606 23.7883C171.706 23.7514 171.756 23.635 171.717 23.5282C171.678 23.4215 171.565 23.3649 171.464 23.4018C171.363 23.4387 171.313 23.5551 171.352 23.6618Z" fill="#D1FEF9"/>
<path d="M172.037 21.0867C172.057 21.1421 172.116 21.1715 172.168 21.1523C172.221 21.1332 172.246 21.0727 172.226 21.0173C172.206 20.9619 172.147 20.9325 172.095 20.9517C172.042 20.9708 172.016 21.0313 172.037 21.0867Z" fill="#D1FEF9"/>
<path d="M174.065 20.7249C174.081 20.7709 174.13 20.7953 174.174 20.7794C174.217 20.7635 174.239 20.7133 174.222 20.6673C174.205 20.6213 174.156 20.5969 174.113 20.6128C174.069 20.6287 174.048 20.6789 174.065 20.7249Z" fill="#D1FEF9"/>
<path d="M175.056 25.8841C175.113 26.0417 175.281 26.1253 175.43 26.0708C175.579 26.0163 175.652 25.8444 175.595 25.6868C175.537 25.5291 175.37 25.4455 175.221 25.5C175.072 25.5545 174.998 25.7264 175.056 25.8841Z" fill="#D1FEF9"/>
<path d="M173.985 25.5796C174.013 25.656 174.094 25.6965 174.166 25.6701C174.238 25.6437 174.274 25.5604 174.246 25.484C174.218 25.4076 174.137 25.3671 174.065 25.3935C173.993 25.4199 173.957 25.5032 173.985 25.5796Z" fill="#D1FEF9"/>
<path d="M175.964 25.9833C175.984 26.0359 176.04 26.0638 176.089 26.0456C176.139 26.0275 176.163 25.9701 176.144 25.9175C176.125 25.8649 176.069 25.837 176.019 25.8552C175.97 25.8734 175.945 25.9307 175.964 25.9833Z" fill="#D1FEF9"/>
<path d="M170.703 26.8093C170.78 27.019 171.003 27.1303 171.201 27.0578C171.399 26.9853 171.497 26.7565 171.42 26.5468C171.343 26.337 171.121 26.2258 170.923 26.2983C170.725 26.3708 170.626 26.5996 170.703 26.8093Z" fill="#D1FEF9"/>
<path d="M163.571 30.6017C163.619 30.7319 163.757 30.8009 163.88 30.7559C164.003 30.7109 164.064 30.5689 164.016 30.4388C163.968 30.3086 163.83 30.2396 163.707 30.2846C163.584 30.3296 163.523 30.4716 163.571 30.6017Z" fill="#D1FEF9"/>
<path d="M165.864 30.6569C165.885 30.7142 165.945 30.7446 165.999 30.7247C166.054 30.7049 166.08 30.6425 166.059 30.5852C166.038 30.5279 165.978 30.4975 165.924 30.5173C165.869 30.5371 165.843 30.5996 165.864 30.6569Z" fill="#D1FEF9"/>
<path d="M164.873 27.2667C164.927 27.4119 165.081 27.4888 165.218 27.4387C165.355 27.3885 165.423 27.2302 165.37 27.0851C165.317 26.9399 165.162 26.8629 165.025 26.9131C164.888 26.9633 164.82 27.1216 164.873 27.2667Z" fill="#D1FEF9"/>
<path d="M161.484 30.2822C161.543 30.4439 161.715 30.5297 161.868 30.4738C162.02 30.4179 162.096 30.2415 162.037 30.0799C161.978 29.9182 161.806 29.8324 161.653 29.8883C161.501 29.9442 161.425 30.1205 161.484 30.2822Z" fill="#D1FEF9"/>
<path d="M165.579 26.2633C165.6 26.3212 165.661 26.3519 165.716 26.3319C165.771 26.3119 165.798 26.2487 165.777 26.1908C165.755 26.1329 165.694 26.1022 165.639 26.1222C165.585 26.1422 165.557 26.2054 165.579 26.2633Z" fill="#D1FEF9"/>
<path d="M182.65 21.9145C182.666 21.9586 182.713 21.982 182.755 21.9668C182.796 21.9515 182.817 21.9034 182.801 21.8592C182.785 21.8151 182.738 21.7917 182.696 21.8069C182.654 21.8222 182.634 21.8703 182.65 21.9145Z" fill="#D1FEF9"/>
<path d="M179.544 24.0921C179.59 24.2195 179.725 24.287 179.846 24.243C179.966 24.199 180.026 24.0601 179.979 23.9327C179.932 23.8054 179.797 23.7378 179.677 23.7818C179.557 23.8259 179.497 23.9648 179.544 24.0921Z" fill="#D1FEF9"/>
<path d="M177.504 23.1241C177.547 23.2408 177.671 23.3027 177.781 23.2624C177.892 23.222 177.946 23.0947 177.904 22.978C177.861 22.8612 177.737 22.7993 177.627 22.8397C177.516 22.88 177.462 23.0073 177.504 23.1241Z" fill="#D1FEF9"/>
<path d="M178.633 21.8978C178.649 21.9432 178.698 21.9673 178.74 21.9516C178.783 21.9359 178.805 21.8864 178.788 21.841C178.771 21.7956 178.723 21.7715 178.68 21.7872C178.637 21.8029 178.616 21.8524 178.633 21.8978Z" fill="#D1FEF9"/>
<path d="M177.177 20.452C177.21 20.5431 177.307 20.5914 177.393 20.5599C177.479 20.5284 177.522 20.429 177.488 20.3379C177.455 20.2467 177.358 20.1984 177.272 20.2299C177.186 20.2614 177.143 20.3608 177.177 20.452Z" fill="#D1FEF9"/>
<path d="M175.4 22.5249C175.461 22.6932 175.64 22.7824 175.799 22.7243C175.958 22.6661 176.036 22.4826 175.975 22.3144C175.913 22.1461 175.735 22.0569 175.576 22.1151C175.417 22.1732 175.338 22.3567 175.4 22.5249Z" fill="#D1FEF9"/>
<path d="M185.627 23.6536C185.673 23.7813 185.809 23.849 185.93 23.8049C186.05 23.7607 186.11 23.6215 186.063 23.4938C186.016 23.3662 185.881 23.2985 185.76 23.3426C185.64 23.3867 185.58 23.526 185.627 23.6536Z" fill="#D1FEF9"/>
<path d="M184.044 27.4083C184.102 27.5681 184.272 27.6529 184.423 27.5977C184.574 27.5424 184.649 27.3681 184.59 27.2083C184.532 27.0485 184.362 26.9637 184.211 27.019C184.06 27.0742 183.985 27.2485 184.044 27.4083Z" fill="#D1FEF9"/>
<path d="M179.558 27.7555C179.585 27.8309 179.665 27.8709 179.737 27.8449C179.808 27.8188 179.843 27.7365 179.816 27.661C179.788 27.5856 179.708 27.5456 179.637 27.5716C179.565 27.5977 179.53 27.68 179.558 27.7555Z" fill="#D1FEF9"/>
<path d="M181.19 26.5137C181.221 26.5985 181.311 26.6435 181.391 26.6142C181.471 26.5849 181.511 26.4924 181.48 26.4075C181.449 26.3227 181.359 26.2777 181.279 26.307C181.199 26.3363 181.159 26.4289 181.19 26.5137Z" fill="#D1FEF9"/>
<path d="M169.557 20.7719C169.579 20.8335 169.645 20.8662 169.703 20.8449C169.761 20.8236 169.79 20.7563 169.767 20.6947C169.745 20.633 169.679 20.6003 169.621 20.6216C169.563 20.6429 169.534 20.7102 169.557 20.7719Z" fill="#D1FEF9"/>
<path d="M183.5 24.4671C183.536 24.5654 183.641 24.6176 183.734 24.5836C183.827 24.5496 183.873 24.4424 183.837 24.344C183.801 24.2457 183.696 24.1936 183.603 24.2275C183.511 24.2615 183.465 24.3688 183.5 24.4671Z" fill="#D1FEF9"/>
<path d="M169.352 21.6356C169.401 21.7701 169.544 21.8415 169.671 21.795C169.798 21.7485 169.861 21.6017 169.812 21.4672C169.763 21.3327 169.62 21.2613 169.493 21.3078C169.366 21.3543 169.303 21.5011 169.352 21.6356Z" fill="#D1FEF9"/>
<path d="M204.809 58.2468C204.86 58.2145 204.882 58.1598 204.86 58.1248C204.837 58.0899 204.778 58.0877 204.728 58.1201C204.678 58.1525 204.655 58.2071 204.677 58.2421C204.7 58.2771 204.759 58.2792 204.809 58.2468Z" fill="#D1FEF9"/>
<path d="M204.615 55.7279C204.67 55.6925 204.695 55.6327 204.67 55.5943C204.646 55.556 204.581 55.5537 204.526 55.5891C204.471 55.6246 204.446 55.6844 204.47 55.7227C204.495 55.7611 204.56 55.7634 204.615 55.7279Z" fill="#D1FEF9"/>
<path d="M204.052 55.4746C204.126 55.4268 204.159 55.3462 204.126 55.2945C204.093 55.2429 204.006 55.2397 203.931 55.2875C203.857 55.3353 203.824 55.4159 203.857 55.4676C203.89 55.5192 203.977 55.5224 204.052 55.4746Z" fill="#D1FEF9"/>
<path d="M204.109 54.023C204.143 54.0014 204.158 53.965 204.143 53.9416C204.128 53.9183 204.089 53.9169 204.055 53.9385C204.021 53.96 204.006 53.9965 204.021 54.0198C204.036 54.0431 204.076 54.0445 204.109 54.023Z" fill="#D1FEF9"/>
<path d="M204.57 52.3372C204.677 52.2684 204.725 52.1523 204.677 52.0779C204.63 52.0035 204.504 51.999 204.397 52.0678C204.29 52.1366 204.242 52.2527 204.29 52.3271C204.337 52.4015 204.463 52.406 204.57 52.3372Z" fill="#D1FEF9"/>
<path d="M204.041 52.0975C204.077 52.0744 204.093 52.0354 204.077 52.0104C204.061 51.9854 204.019 51.9838 203.983 52.007C203.947 52.0301 203.931 52.0691 203.947 52.0941C203.963 52.1191 204.005 52.1206 204.041 52.0975Z" fill="#D1FEF9"/>
<path d="M202.726 54.9804C202.782 54.9442 202.808 54.8832 202.782 54.8441C202.757 54.805 202.691 54.8026 202.635 54.8388C202.579 54.875 202.554 54.936 202.579 54.9751C202.604 55.0142 202.67 55.0166 202.726 54.9804Z" fill="#D1FEF9"/>
<path d="M203.772 57.7183C203.786 57.7088 203.793 57.6927 203.786 57.6824C203.78 57.6721 203.762 57.6715 203.748 57.681C203.733 57.6905 203.726 57.7066 203.733 57.7169C203.739 57.7272 203.757 57.7278 203.772 57.7183Z" fill="#D1FEF9"/>
<path d="M204.263 58.722C204.323 58.6833 204.35 58.6181 204.323 58.5763C204.296 58.5345 204.226 58.532 204.166 58.5706C204.105 58.6093 204.078 58.6745 204.105 58.7163C204.132 58.7581 204.203 58.7606 204.263 58.722Z" fill="#D1FEF9"/>
<path d="M204.482 57.2072C204.565 57.1537 204.603 57.0636 204.566 57.0058C204.528 56.948 204.431 56.9445 204.348 56.998C204.265 57.0514 204.227 57.1416 204.264 57.1993C204.302 57.2571 204.399 57.2606 204.482 57.2072Z" fill="#D1FEF9"/>
<path d="M203.818 56.6041C203.843 56.5881 203.854 56.5609 203.843 56.5436C203.832 56.5262 203.803 56.5251 203.778 56.5412C203.753 56.5573 203.741 56.5844 203.753 56.6018C203.764 56.6192 203.793 56.6202 203.818 56.6041Z" fill="#D1FEF9"/>
<path d="M206.64 54.8855C206.727 54.8299 206.765 54.7362 206.727 54.6761C206.688 54.616 206.587 54.6124 206.5 54.6679C206.414 54.7235 206.375 54.8173 206.414 54.8773C206.452 54.9374 206.554 54.941 206.64 54.8855Z" fill="#D1FEF9"/>
<path d="M197.742 48.8173C197.864 48.7389 197.919 48.6067 197.864 48.5219C197.81 48.4372 197.667 48.432 197.545 48.5104C197.423 48.5888 197.368 48.721 197.423 48.8058C197.477 48.8905 197.62 48.8957 197.742 48.8173Z" fill="#D1FEF9"/>
<path d="M205.739 53.6447C205.779 53.6187 205.798 53.5746 205.779 53.5464C205.761 53.5182 205.714 53.5165 205.673 53.5426C205.633 53.5687 205.614 53.6127 205.632 53.6409C205.651 53.6691 205.698 53.6708 205.739 53.6447Z" fill="#D1FEF9"/>
<path d="M206.361 55.2001C206.4 55.1755 206.417 55.1341 206.4 55.1076C206.383 55.0811 206.338 55.0795 206.3 55.104C206.261 55.1285 206.244 55.1699 206.261 55.1965C206.278 55.223 206.323 55.2246 206.361 55.2001Z" fill="#D1FEF9"/>
<path d="M205.68 54.2867C205.716 54.2632 205.733 54.2236 205.717 54.1982C205.7 54.1729 205.657 54.1713 205.621 54.1948C205.584 54.2183 205.568 54.2579 205.584 54.2833C205.601 54.3086 205.643 54.3102 205.68 54.2867Z" fill="#D1FEF9"/>
<path d="M206.172 56.175C206.228 56.1387 206.254 56.0775 206.229 56.0383C206.203 55.999 206.137 55.9967 206.081 56.0329C206.024 56.0692 205.999 56.1304 206.024 56.1697C206.049 56.2089 206.116 56.2113 206.172 56.175Z" fill="#D1FEF9"/>
<path d="M202.811 49.5445C202.88 49.5001 202.911 49.4253 202.88 49.3774C202.849 49.3294 202.768 49.3265 202.699 49.3709C202.63 49.4152 202.599 49.49 202.63 49.538C202.661 49.5859 202.742 49.5888 202.811 49.5445Z" fill="#D1FEF9"/>
<path d="M202.21 48.7532C202.246 48.7304 202.262 48.6917 202.246 48.667C202.23 48.6423 202.188 48.6408 202.152 48.6636C202.117 48.6865 202.101 48.7251 202.117 48.7499C202.133 48.7746 202.174 48.7761 202.21 48.7532Z" fill="#D1FEF9"/>
<path d="M200.696 48.4109C200.737 48.3841 200.756 48.3389 200.737 48.3099C200.719 48.2809 200.67 48.2792 200.628 48.306C200.587 48.3328 200.568 48.378 200.586 48.4069C200.605 48.4359 200.654 48.4377 200.696 48.4109Z" fill="#D1FEF9"/>
<path d="M201.597 49.7837C201.647 49.7519 201.669 49.6983 201.647 49.6639C201.625 49.6296 201.567 49.6275 201.517 49.6593C201.468 49.691 201.446 49.7446 201.468 49.779C201.49 49.8134 201.548 49.8155 201.597 49.7837Z" fill="#D1FEF9"/>
<path d="M201.937 51.1588C201.983 51.1293 202.003 51.0795 201.983 51.0476C201.962 51.0156 201.908 51.0137 201.862 51.0432C201.817 51.0727 201.796 51.1226 201.816 51.1545C201.837 51.1864 201.891 51.1883 201.937 51.1588Z" fill="#D1FEF9"/>
<path d="M197.529 49.7596C197.575 49.73 197.596 49.68 197.575 49.6479C197.555 49.6159 197.501 49.6139 197.455 49.6436C197.408 49.6732 197.388 49.7232 197.408 49.7553C197.429 49.7873 197.483 49.7893 197.529 49.7596Z" fill="#D1FEF9"/>
<path d="M197.047 47.9565C197.103 47.9205 197.128 47.8599 197.103 47.8211C197.078 47.7822 197.013 47.7799 196.957 47.8158C196.901 47.8517 196.876 47.9123 196.901 47.9512C196.926 47.99 196.991 47.9924 197.047 47.9565Z" fill="#D1FEF9"/>
<path d="M198.667 51.857C198.745 51.8066 198.781 51.7216 198.746 51.6672C198.711 51.6127 198.619 51.6094 198.54 51.6598C198.462 51.7101 198.427 51.7951 198.462 51.8496C198.497 51.904 198.589 51.9073 198.667 51.857Z" fill="#D1FEF9"/>
<path d="M199.542 51.5038C199.571 51.4853 199.584 51.4541 199.571 51.4341C199.558 51.4141 199.524 51.4129 199.495 51.4314C199.467 51.4499 199.454 51.4811 199.467 51.5011C199.479 51.5211 199.513 51.5223 199.542 51.5038Z" fill="#D1FEF9"/>
<path d="M197.952 50.1006C197.985 50.0792 198 50.0432 197.985 50.0202C197.97 49.9971 197.931 49.9957 197.898 50.017C197.865 50.0384 197.85 50.0744 197.865 50.0974C197.88 50.1205 197.919 50.1219 197.952 50.1006Z" fill="#D1FEF9"/>
<path d="M197.01 49.622C197.05 49.5961 197.068 49.5523 197.05 49.5242C197.032 49.4961 196.985 49.4944 196.944 49.5204C196.904 49.5463 196.886 49.5901 196.904 49.6182C196.922 49.6463 196.969 49.648 197.01 49.622Z" fill="#D1FEF9"/>
<path d="M150.282 45.5535C150.332 45.5211 150.355 45.4665 150.332 45.4315C150.31 45.3965 150.251 45.3944 150.201 45.4267C150.15 45.4591 150.128 45.5137 150.15 45.5487C150.173 45.5837 150.232 45.5858 150.282 45.5535Z" fill="#D1FEF9"/>
<path d="M150.088 43.0355C150.143 43.0001 150.167 42.9403 150.143 42.9019C150.118 42.8636 150.053 42.8613 149.998 42.8967C149.943 42.9322 149.918 42.992 149.943 43.0303C149.968 43.0687 150.032 43.071 150.088 43.0355Z" fill="#D1FEF9"/>
<path d="M149.526 42.7832C149.601 42.7354 149.634 42.6548 149.601 42.6031C149.568 42.5515 149.48 42.5483 149.406 42.5961C149.332 42.6439 149.298 42.7245 149.332 42.7762C149.365 42.8278 149.452 42.831 149.526 42.7832Z" fill="#D1FEF9"/>
<path d="M149.582 41.3306C149.615 41.309 149.631 41.2726 149.616 41.2493C149.601 41.2259 149.561 41.2245 149.528 41.2461C149.494 41.2677 149.479 41.3041 149.494 41.3274C149.509 41.3507 149.548 41.3522 149.582 41.3306Z" fill="#D1FEF9"/>
<path d="M150.045 39.6448C150.152 39.576 150.2 39.4599 150.152 39.3855C150.104 39.3111 149.979 39.3066 149.872 39.3754C149.765 39.4442 149.716 39.5603 149.764 39.6347C149.812 39.7091 149.938 39.7136 150.045 39.6448Z" fill="#D1FEF9"/>
<path d="M149.514 39.4051C149.55 39.382 149.566 39.343 149.55 39.318C149.534 39.293 149.492 39.2915 149.456 39.3146C149.42 39.3377 149.404 39.3767 149.42 39.4017C149.436 39.4267 149.478 39.4282 149.514 39.4051Z" fill="#D1FEF9"/>
<path d="M148.199 42.289C148.255 42.2528 148.28 42.1918 148.255 42.1527C148.23 42.1136 148.164 42.1112 148.108 42.1474C148.051 42.1836 148.026 42.2446 148.051 42.2837C148.076 42.3228 148.142 42.3252 148.199 42.289Z" fill="#D1FEF9"/>
<path d="M149.244 45.0249C149.259 45.0154 149.266 44.9993 149.259 44.989C149.252 44.9787 149.235 44.9781 149.22 44.9876C149.205 44.9972 149.199 45.0132 149.205 45.0235C149.212 45.0338 149.229 45.0345 149.244 45.0249Z" fill="#D1FEF9"/>
<path d="M149.735 46.0296C149.796 45.9909 149.823 45.9257 149.796 45.8839C149.769 45.8421 149.698 45.8396 149.638 45.8783C149.578 45.9169 149.551 45.9821 149.578 46.0239C149.605 46.0657 149.675 46.0682 149.735 46.0296Z" fill="#D1FEF9"/>
<path d="M149.957 44.5158C150.04 44.4623 150.077 44.3722 150.04 44.3144C150.003 44.2566 149.906 44.2531 149.822 44.3066C149.739 44.36 149.702 44.4502 149.739 44.5079C149.776 44.5657 149.874 44.5692 149.957 44.5158Z" fill="#D1FEF9"/>
<path d="M149.291 43.9108C149.316 43.8947 149.327 43.8676 149.316 43.8502C149.305 43.8328 149.275 43.8318 149.25 43.8478C149.225 43.8639 149.214 43.891 149.225 43.9084C149.236 43.9258 149.266 43.9269 149.291 43.9108Z" fill="#D1FEF9"/>
<path d="M152.113 42.1931C152.199 42.1375 152.238 42.0438 152.199 41.9837C152.161 41.9236 152.059 41.92 151.973 41.9756C151.886 42.0311 151.848 42.1249 151.886 42.1849C151.925 42.245 152.026 42.2487 152.113 42.1931Z" fill="#D1FEF9"/>
<path d="M143.215 36.1249C143.337 36.0465 143.392 35.9143 143.337 35.8296C143.283 35.7448 143.14 35.7397 143.018 35.818C142.896 35.8964 142.841 36.0287 142.895 36.1134C142.95 36.1981 143.093 36.2033 143.215 36.1249Z" fill="#D1FEF9"/>
<path d="M151.211 40.9524C151.252 40.9263 151.27 40.8823 151.252 40.8541C151.234 40.8259 151.186 40.8241 151.146 40.8502C151.105 40.8763 151.087 40.9203 151.105 40.9485C151.123 40.9767 151.171 40.9784 151.211 40.9524Z" fill="#D1FEF9"/>
<path d="M151.834 42.5077C151.872 42.4832 151.889 42.4418 151.872 42.4152C151.855 42.3887 151.81 42.3871 151.772 42.4116C151.734 42.4362 151.717 42.4776 151.734 42.5041C151.751 42.5306 151.796 42.5323 151.834 42.5077Z" fill="#D1FEF9"/>
<path d="M151.155 41.5953C151.191 41.5718 151.207 41.5322 151.191 41.5068C151.175 41.4815 151.132 41.4799 151.095 41.5034C151.059 41.5269 151.043 41.5665 151.059 41.5919C151.075 41.6172 151.118 41.6188 151.155 41.5953Z" fill="#D1FEF9"/>
<path d="M151.645 43.4826C151.701 43.4463 151.726 43.3851 151.701 43.3459C151.676 43.3067 151.61 43.3043 151.553 43.3406C151.497 43.3768 151.472 43.438 151.497 43.4773C151.522 43.5165 151.588 43.5189 151.645 43.4826Z" fill="#D1FEF9"/>
<path d="M148.283 36.8531C148.352 36.8087 148.383 36.7339 148.353 36.686C148.322 36.638 148.241 36.6351 148.172 36.6795C148.103 36.7238 148.072 36.7986 148.103 36.8466C148.133 36.8945 148.214 36.8974 148.283 36.8531Z" fill="#D1FEF9"/>
<path d="M147.685 36.0618C147.72 36.0389 147.736 36.0003 147.72 35.9756C147.704 35.9509 147.663 35.9494 147.627 35.9722C147.591 35.9951 147.575 36.0337 147.591 36.0585C147.607 36.0832 147.649 36.0847 147.685 36.0618Z" fill="#D1FEF9"/>
<path d="M146.168 35.7185C146.21 35.6917 146.229 35.6465 146.21 35.6175C146.191 35.5886 146.143 35.5868 146.101 35.6136C146.059 35.6404 146.04 35.6856 146.059 35.7146C146.078 35.7435 146.127 35.7453 146.168 35.7185Z" fill="#D1FEF9"/>
<path d="M147.07 37.0913C147.119 37.0595 147.141 37.0059 147.119 36.9716C147.097 36.9372 147.039 36.9351 146.99 36.9669C146.94 36.9987 146.918 37.0523 146.94 37.0866C146.962 37.121 147.02 37.1231 147.07 37.0913Z" fill="#D1FEF9"/>
<path d="M147.409 38.4664C147.455 38.4369 147.476 38.3871 147.455 38.3552C147.435 38.3233 147.381 38.3213 147.335 38.3508C147.289 38.3804 147.269 38.4302 147.289 38.4621C147.31 38.494 147.363 38.496 147.409 38.4664Z" fill="#D1FEF9"/>
<path d="M143.002 37.0673C143.048 37.0376 143.069 36.9876 143.048 36.9556C143.027 36.9235 142.973 36.9216 142.927 36.9512C142.881 36.9809 142.86 37.0309 142.881 37.0629C142.902 37.095 142.956 37.0969 143.002 37.0673Z" fill="#D1FEF9"/>
<path d="M142.52 35.2631C142.576 35.2272 142.601 35.1666 142.576 35.1277C142.551 35.0889 142.485 35.0865 142.429 35.1224C142.373 35.1584 142.348 35.219 142.373 35.2578C142.398 35.2967 142.464 35.299 142.52 35.2631Z" fill="#D1FEF9"/>
<path d="M144.14 39.1656C144.218 39.1152 144.253 39.0302 144.218 38.9758C144.183 38.9213 144.091 38.918 144.013 38.9684C143.935 39.0187 143.899 39.1037 143.934 39.1582C143.969 39.2126 144.061 39.2159 144.14 39.1656Z" fill="#D1FEF9"/>
<path d="M145.015 38.8104C145.043 38.7919 145.056 38.7607 145.044 38.7407C145.031 38.7207 144.997 38.7195 144.968 38.738C144.939 38.7565 144.926 38.7877 144.939 38.8077C144.952 38.8277 144.986 38.8289 145.015 38.8104Z" fill="#D1FEF9"/>
<path d="M143.424 37.4082C143.458 37.3869 143.472 37.3508 143.458 37.3278C143.443 37.3047 143.404 37.3033 143.371 37.3246C143.337 37.346 143.323 37.382 143.337 37.4051C143.352 37.4281 143.391 37.4295 143.424 37.4082Z" fill="#D1FEF9"/>
<path d="M142.482 36.9296C142.523 36.9037 142.541 36.8599 142.523 36.8318C142.505 36.8037 142.457 36.802 142.417 36.828C142.377 36.854 142.358 36.8978 142.376 36.9258C142.394 36.9539 142.442 36.9556 142.482 36.9296Z" fill="#D1FEF9"/>
<path d="M202.71 69.7177C202.715 69.6541 202.764 69.6174 202.817 69.6358C202.871 69.6542 202.91 69.7207 202.905 69.7843C202.899 69.8479 202.851 69.8845 202.797 69.8661C202.743 69.8478 202.704 69.7813 202.71 69.7177Z" fill="#D1FEF9"/>
<path d="M205.704 69.4279C205.71 69.3583 205.763 69.3181 205.822 69.3383C205.881 69.3584 205.924 69.4312 205.917 69.5008C205.911 69.5705 205.858 69.6106 205.799 69.5905C205.74 69.5704 205.697 69.4976 205.704 69.4279Z" fill="#D1FEF9"/>
<path d="M206.343 70.0128C206.351 69.9192 206.422 69.8653 206.502 69.8923C206.581 69.9194 206.639 70.0172 206.63 70.1108C206.622 70.2044 206.551 70.2583 206.472 70.2313C206.392 70.2043 206.335 70.1064 206.343 70.0128Z" fill="#D1FEF9"/>
<path d="M207.965 69.6543C207.968 69.6119 208.001 69.5874 208.036 69.5997C208.072 69.6119 208.099 69.6562 208.095 69.6986C208.091 69.741 208.059 69.7655 208.023 69.7532C207.987 69.741 207.961 69.6967 207.965 69.6543Z" fill="#D1FEF9"/>
<path d="M209.601 68.7895C209.613 68.6544 209.716 68.5764 209.83 68.6155C209.945 68.6546 210.028 68.7958 210.016 68.931C210.004 69.0662 209.901 69.1441 209.787 69.1051C209.672 69.066 209.589 68.9247 209.601 68.7895Z" fill="#D1FEF9"/>
<path d="M210.204 69.3409C210.208 69.2955 210.242 69.2693 210.281 69.2824C210.319 69.2956 210.347 69.343 210.343 69.3885C210.339 69.4339 210.305 69.4601 210.266 69.4469C210.228 69.4338 210.2 69.3863 210.204 69.3409Z" fill="#D1FEF9"/>
<path d="M207.729 71.4152C207.735 71.3441 207.789 71.3031 207.849 71.3237C207.91 71.3442 207.953 71.4185 207.947 71.4895C207.941 71.5606 207.887 71.6015 207.826 71.581C207.766 71.5605 207.723 71.4862 207.729 71.4152Z" fill="#D1FEF9"/>
<path d="M203.957 70.7869C203.958 70.768 203.973 70.7571 203.989 70.7625C204.005 70.768 204.016 70.7877 204.015 70.8066C204.013 70.8255 203.999 70.8364 203.983 70.8309C203.967 70.8255 203.955 70.8057 203.957 70.7869Z" fill="#D1FEF9"/>
<path d="M202.506 70.4334C202.512 70.3575 202.57 70.3137 202.635 70.3356C202.699 70.3576 202.746 70.4369 202.739 70.5129C202.732 70.5888 202.674 70.6326 202.61 70.6107C202.546 70.5887 202.499 70.5094 202.506 70.4334Z" fill="#D1FEF9"/>
<path d="M204.097 69.8768C204.106 69.7718 204.186 69.7113 204.275 69.7416C204.364 69.772 204.429 69.8817 204.419 69.9867C204.41 70.0916 204.33 70.1522 204.241 70.1218C204.152 70.0915 204.088 69.9818 204.097 69.8768Z" fill="#D1FEF9"/>
<path d="M205.199 70.5071C205.202 70.4755 205.226 70.4572 205.253 70.4663C205.279 70.4755 205.299 70.5086 205.296 70.5403C205.293 70.572 205.269 70.5902 205.242 70.5811C205.216 70.5719 205.196 70.5388 205.199 70.5071Z" fill="#D1FEF9"/>
<path d="M205.409 66.9635C205.419 66.8543 205.502 66.7914 205.594 66.8229C205.687 66.8545 205.754 66.9686 205.744 67.0777C205.734 67.1869 205.652 67.2498 205.559 67.2183C205.466 67.1867 205.399 67.0727 205.409 66.9635Z" fill="#D1FEF9"/>
<path d="M217.859 75.809C217.872 75.6551 217.989 75.5663 218.12 75.6108C218.251 75.6553 218.345 75.8162 218.331 75.9702C218.318 76.1242 218.201 76.213 218.07 76.1685C217.94 76.124 217.845 75.963 217.859 75.809Z" fill="#D1FEF9"/>
<path d="M207.384 67.7325C207.389 67.6812 207.428 67.6517 207.471 67.6665C207.515 67.6813 207.546 67.7349 207.541 67.7861C207.537 67.8374 207.498 67.8669 207.455 67.8521C207.411 67.8373 207.38 67.7837 207.384 67.7325Z" fill="#D1FEF9"/>
<path d="M205.223 67.3437C205.227 67.2955 205.264 67.2677 205.305 67.2816C205.346 67.2955 205.375 67.3459 205.371 67.3941C205.367 67.4424 205.33 67.4701 205.289 67.4562C205.248 67.4423 205.219 67.3919 205.223 67.3437Z" fill="#D1FEF9"/>
<path d="M206.686 67.9288C206.69 67.8826 206.725 67.8561 206.764 67.8694C206.804 67.8827 206.832 67.9309 206.828 67.977C206.824 68.0232 206.789 68.0497 206.75 68.0364C206.71 68.0231 206.682 67.9749 206.686 67.9288Z" fill="#D1FEF9"/>
<path d="M204.228 67.7543C204.235 67.683 204.289 67.642 204.349 67.6626C204.41 67.6832 204.453 67.7576 204.447 67.8289C204.441 67.9002 204.387 67.9413 204.326 67.9207C204.266 67.9001 204.222 67.8256 204.228 67.7543Z" fill="#D1FEF9"/>
<path d="M213.881 70.2169C213.889 70.1298 213.955 70.0795 214.029 70.1047C214.103 70.1299 214.157 70.2209 214.149 70.3081C214.141 70.3952 214.075 70.4454 214.001 70.4202C213.927 70.3951 213.874 70.304 213.881 70.2169Z" fill="#D1FEF9"/>
<path d="M215.156 70.7358C215.16 70.6908 215.194 70.6649 215.233 70.6779C215.271 70.6909 215.298 70.7379 215.294 70.7829C215.29 70.8278 215.256 70.8537 215.218 70.8407C215.18 70.8277 215.152 70.7808 215.156 70.7358Z" fill="#D1FEF9"/>
<path d="M216.489 72.3838C216.494 72.3311 216.534 72.3008 216.579 72.316C216.623 72.3312 216.656 72.3862 216.651 72.4389C216.646 72.4915 216.606 72.5218 216.562 72.5066C216.517 72.4914 216.485 72.4364 216.489 72.3838Z" fill="#D1FEF9"/>
<path d="M214.363 71.641C214.369 71.5785 214.416 71.5426 214.469 71.5606C214.522 71.5786 214.561 71.6439 214.555 71.7063C214.549 71.7687 214.502 71.8047 214.449 71.7867C214.396 71.7686 214.358 71.7034 214.363 71.641Z" fill="#D1FEF9"/>
<path d="M212.581 71.5345C212.586 71.4765 212.631 71.443 212.68 71.4598C212.729 71.4766 212.765 71.5372 212.759 71.5952C212.754 71.6532 212.71 71.6866 212.661 71.6698C212.612 71.6531 212.576 71.5925 212.581 71.5345Z" fill="#D1FEF9"/>
<path d="M216.917 76.2418C216.922 76.1836 216.966 76.15 217.015 76.1668C217.065 76.1836 217.101 76.2445 217.095 76.3027C217.09 76.361 217.046 76.3946 216.997 76.3777C216.947 76.3609 216.911 76.3 216.917 76.2418Z" fill="#D1FEF9"/>
<path d="M219.275 76.4223C219.281 76.3518 219.335 76.3111 219.395 76.3315C219.455 76.3519 219.498 76.4256 219.492 76.4962C219.486 76.5668 219.432 76.6075 219.372 76.5871C219.312 76.5667 219.269 76.4929 219.275 76.4223Z" fill="#D1FEF9"/>
<path d="M213.816 75.3794C213.825 75.2805 213.9 75.2234 213.984 75.252C214.067 75.2806 214.128 75.384 214.119 75.483C214.111 75.5819 214.036 75.6389 213.952 75.6103C213.868 75.5818 213.807 75.4784 213.816 75.3794Z" fill="#D1FEF9"/>
<path d="M213.676 74.3151C213.679 74.2788 213.706 74.2578 213.737 74.2683C213.768 74.2788 213.79 74.3168 213.787 74.3531C213.784 74.3895 213.756 74.4104 213.725 74.3999C213.695 74.3894 213.672 74.3515 213.676 74.3151Z" fill="#D1FEF9"/>
<path d="M216.265 75.8333C216.269 75.7914 216.3 75.7672 216.336 75.7793C216.371 75.7915 216.397 75.8353 216.393 75.8772C216.39 75.9191 216.358 75.9433 216.322 75.9312C216.287 75.9191 216.261 75.8753 216.265 75.8333Z" fill="#D1FEF9"/>
<path d="M217.397 76.8035C217.401 76.7524 217.44 76.723 217.483 76.7378C217.526 76.7525 217.558 76.8058 217.553 76.8568C217.549 76.9079 217.51 76.9373 217.467 76.9225C217.423 76.9078 217.392 76.8545 217.397 76.8035Z" fill="#D1FEF9"/>
<path d="M119.086 52.5404C119.034 52.5036 119.026 52.4434 119.069 52.406C119.112 52.3686 119.189 52.3682 119.241 52.405C119.294 52.4418 119.301 52.502 119.258 52.5394C119.215 52.5768 119.138 52.5773 119.086 52.5404Z" fill="#D1FEF9"/>
<path d="M120.338 49.8048C120.28 49.7644 120.272 49.6985 120.319 49.6576C120.366 49.6166 120.451 49.6161 120.508 49.6565C120.565 49.6968 120.573 49.7627 120.526 49.8037C120.479 49.8446 120.395 49.8451 120.338 49.8048Z" fill="#D1FEF9"/>
<path d="M121.165 49.5465C121.088 49.4923 121.078 49.4037 121.141 49.3487C121.204 49.2936 121.317 49.293 121.394 49.3472C121.471 49.4014 121.482 49.4899 121.419 49.545C121.356 49.6 121.242 49.6007 121.165 49.5465Z" fill="#D1FEF9"/>
<path d="M121.669 47.9638C121.635 47.9393 121.63 47.8991 121.658 47.8742C121.687 47.8493 121.738 47.849 121.773 47.8735C121.808 47.8981 121.813 47.9382 121.784 47.9631C121.755 47.988 121.704 47.9884 121.669 47.9638Z" fill="#D1FEF9"/>
<path d="M121.742 46.1139C121.631 46.0356 121.615 45.9077 121.707 45.8282C121.798 45.7487 121.962 45.7477 122.073 45.826C122.184 45.9043 122.199 46.0322 122.108 46.1117C122.017 46.1912 121.853 46.1922 121.742 46.1139Z" fill="#D1FEF9"/>
<path d="M122.521 45.8704C122.483 45.8441 122.478 45.8011 122.509 45.7744C122.539 45.7477 122.595 45.7474 122.632 45.7737C122.669 45.8 122.674 45.8429 122.644 45.8697C122.613 45.8964 122.558 45.8967 122.521 45.8704Z" fill="#D1FEF9"/>
<path d="M123.074 49.0504C123.016 49.0093 123.008 48.9421 123.056 48.9003C123.104 48.8585 123.19 48.858 123.248 48.8991C123.306 48.9403 123.315 49.0075 123.267 49.0493C123.219 49.0911 123.132 49.0916 123.074 49.0504Z" fill="#D1FEF9"/>
<path d="M120.637 51.998C120.621 51.987 120.619 51.9691 120.632 51.958C120.645 51.9469 120.667 51.9468 120.683 51.9577C120.698 51.9687 120.701 51.9865 120.688 51.9977C120.675 52.0088 120.652 52.0089 120.637 51.998Z" fill="#D1FEF9"/>
<path d="M119.602 53.0753C119.54 53.0313 119.531 52.9594 119.582 52.9148C119.633 52.8701 119.725 52.8696 119.788 52.9135C119.85 52.9575 119.859 53.0294 119.808 53.074C119.756 53.1187 119.664 53.1192 119.602 53.0753Z" fill="#D1FEF9"/>
<path d="M119.919 51.4201C119.833 51.3593 119.821 51.26 119.892 51.1983C119.963 51.1365 120.09 51.1358 120.176 51.1966C120.262 51.2574 120.275 51.3567 120.204 51.4184C120.133 51.4802 120.005 51.4809 119.919 51.4201Z" fill="#D1FEF9"/>
<path d="M121.018 50.7833C120.992 50.7649 120.988 50.7349 121.01 50.7163C121.031 50.6977 121.07 50.6975 121.096 50.7158C121.122 50.7341 121.125 50.7641 121.104 50.7828C121.082 50.8014 121.044 50.8016 121.018 50.7833Z" fill="#D1FEF9"/>
<path d="M118.059 48.8241C117.97 48.7608 117.957 48.6576 118.031 48.5934C118.104 48.5292 118.237 48.5284 118.326 48.5916C118.416 48.6548 118.429 48.7581 118.355 48.8223C118.281 48.8865 118.149 48.8873 118.059 48.8241Z" fill="#D1FEF9"/>
<path d="M131.959 42.4956C131.833 42.4064 131.815 42.2607 131.919 42.1701C132.023 42.0796 132.209 42.0785 132.336 42.1676C132.462 42.2568 132.48 42.4025 132.376 42.4931C132.272 42.5836 132.085 42.5847 131.959 42.4956Z" fill="#D1FEF9"/>
<path d="M119.715 47.5007C119.673 47.471 119.667 47.4225 119.701 47.3924C119.736 47.3623 119.798 47.3619 119.84 47.3916C119.882 47.4213 119.888 47.4697 119.853 47.4999C119.819 47.53 119.757 47.5304 119.715 47.5007Z" fill="#D1FEF9"/>
<path d="M118.293 49.1752C118.253 49.1473 118.248 49.1016 118.28 49.0733C118.313 49.0449 118.371 49.0446 118.411 49.0725C118.45 49.1004 118.456 49.146 118.423 49.1744C118.391 49.2028 118.332 49.2031 118.293 49.1752Z" fill="#D1FEF9"/>
<path d="M119.535 48.2022C119.498 48.1755 119.492 48.1319 119.523 48.1047C119.555 48.0776 119.61 48.0773 119.648 48.104C119.686 48.1307 119.692 48.1743 119.66 48.2015C119.629 48.2286 119.573 48.2289 119.535 48.2022Z" fill="#D1FEF9"/>
<path d="M118.149 50.2421C118.091 50.2008 118.083 50.1334 118.131 50.0914C118.179 50.0495 118.265 50.049 118.324 50.0903C118.382 50.1316 118.391 50.199 118.343 50.2409C118.294 50.2829 118.208 50.2834 118.149 50.2421Z" fill="#D1FEF9"/>
<path d="M125.124 43.1284C125.053 43.0779 125.043 42.9955 125.101 42.9442C125.16 42.893 125.266 42.8924 125.337 42.9428C125.409 42.9933 125.419 43.0757 125.36 43.1269C125.301 43.1782 125.196 43.1788 125.124 43.1284Z" fill="#D1FEF9"/>
<path d="M126.216 42.2859C126.179 42.2599 126.174 42.2173 126.204 42.1909C126.234 42.1645 126.289 42.1641 126.326 42.1902C126.363 42.2162 126.368 42.2587 126.338 42.2852C126.307 42.3116 126.253 42.3119 126.216 42.2859Z" fill="#D1FEF9"/>
<path d="M128.309 41.9612C128.265 41.9307 128.259 41.8809 128.295 41.85C128.33 41.819 128.394 41.8186 128.437 41.8491C128.481 41.8796 128.487 41.9294 128.451 41.9604C128.416 41.9913 128.352 41.9917 128.309 41.9612Z" fill="#D1FEF9"/>
<path d="M126.598 43.4269C126.547 43.3907 126.54 43.3316 126.582 43.2949C126.624 43.2582 126.7 43.2578 126.751 43.2939C126.802 43.3301 126.81 43.3891 126.767 43.4259C126.725 43.4626 126.65 43.463 126.598 43.4269Z" fill="#D1FEF9"/>
<path d="M125.614 44.9133C125.566 44.8797 125.559 44.8248 125.599 44.7907C125.638 44.7566 125.708 44.7562 125.756 44.7898C125.803 44.8234 125.81 44.8782 125.771 44.9124C125.732 44.9465 125.661 44.9469 125.614 44.9133Z" fill="#D1FEF9"/>
<path d="M131.859 43.5278C131.811 43.4941 131.804 43.439 131.844 43.4047C131.883 43.3705 131.954 43.37 132.001 43.4038C132.049 43.4375 132.056 43.4926 132.017 43.5269C131.977 43.5611 131.907 43.5615 131.859 43.5278Z" fill="#D1FEF9"/>
<path d="M133.201 41.5792C133.143 41.5384 133.135 41.4716 133.183 41.4301C133.23 41.3885 133.316 41.388 133.374 41.4289C133.432 41.4698 133.44 41.5366 133.392 41.5781C133.345 41.6196 133.259 41.6201 133.201 41.5792Z" fill="#D1FEF9"/>
<path d="M129.558 45.7769C129.477 45.7196 129.466 45.626 129.532 45.5678C129.599 45.5096 129.719 45.5089 129.8 45.5662C129.881 45.6235 129.893 45.7171 129.826 45.7753C129.759 45.8335 129.639 45.8342 129.558 45.7769Z" fill="#D1FEF9"/>
<path d="M128.566 45.3635C128.536 45.3425 128.532 45.3081 128.557 45.2867C128.581 45.2653 128.625 45.2651 128.655 45.2861C128.685 45.3072 128.689 45.3415 128.665 45.3629C128.64 45.3843 128.596 45.3846 128.566 45.3635Z" fill="#D1FEF9"/>
<path d="M131.179 43.8862C131.145 43.8619 131.14 43.8222 131.168 43.7975C131.196 43.7729 131.247 43.7726 131.281 43.7969C131.316 43.8211 131.321 43.8608 131.292 43.8855C131.264 43.9101 131.213 43.9104 131.179 43.8862Z" fill="#D1FEF9"/>
<path d="M132.587 43.394C132.545 43.3645 132.539 43.3162 132.573 43.2862C132.608 43.2562 132.67 43.2558 132.711 43.2854C132.753 43.3149 132.759 43.3632 132.725 43.3932C132.69 43.4232 132.628 43.4236 132.587 43.394Z" fill="#D1FEF9"/>
<path d="M83.3454 88.775C83.744 87.2434 78.96 82.229 84.997 76.6272C87.2618 74.5257 90.7493 75.4313 92.2301 74.4242C93.7109 73.4171 92.5149 70.6477 96.1029 63.9758C99.691 57.3039 103.792 54.5974 107.835 54.8492C111.879 55.101 115.182 56.6116 117.517 58.6257C117.593 54.0099 119.089 44.1616 124.466 41.6943C131.186 38.6101 134.148 41.6943 136.369 41.6943C138.59 41.6943 138.476 39.4913 142.235 37.9177C145.994 36.3442 149.411 38.736 152.316 37.9177C155.22 37.0995 155.334 33.6377 159.777 28.6652C164.219 23.6928 167.408 17.3986 181.875 19.7904C196.341 22.1822 201.694 33.6377 201.922 40.4984C202.15 47.3591 202.093 46.7296 206.251 51.0727C210.408 55.4157 206.137 62.2134 206.251 63.9758C206.364 65.7382 222.653 67.1859 222.653 88.6491" stroke="#5EE1EA" stroke-width="0.155848"/>
<path d="M193.299 41.0847C184.844 41.0847 181.412 45.4425 179.719 49.582C180.481 50.3761 183.109 51.8443 187.628 50.8823C192.148 49.9204 193.3 43.9096 193.299 41.0847Z" fill="#D9D9D9"/>
<mask id="mask0_1629_965" style="mask-type:alpha" maskUnits="userSpaceOnUse" x="181" y="44" width="8" height="9">
<path d="M181.434 47.941C181.224 50.2203 182.47 52.1987 184.536 52.3892C186.602 52.5797 188.189 50.8625 188.399 48.5832C188.609 46.3038 187.232 44.3133 185.297 44.1349C183.362 43.9566 181.644 45.6616 181.434 47.941Z" fill="black"/>
</mask>
<g mask="url(#mask0_1629_965)">
<path d="M193.418 41.2146C185.688 38.3241 181.144 45.6751 179.839 49.7119C180.6 50.506 183.253 51.8536 187.773 50.8917C192.292 49.9297 193.419 44.0395 193.418 41.2146Z" fill="black"/>
</g>
<path d="M163.029 33.7861C169.236 36.8946 171.383 43.8239 170.476 47.9685C169.418 48.2707 166.448 48.098 163.029 44.9896C159.609 41.8811 161.604 36.2254 163.029 33.7861Z" fill="#D9D9D9"/>
<mask id="mask1_1629_965" style="mask-type:alpha" maskUnits="userSpaceOnUse" x="163" y="39" width="8" height="10">
<path d="M170.336 44.0499C170.336 46.3389 168.913 48.1945 166.839 48.1945C164.764 48.1945 163.342 46.3389 163.342 44.0499C163.342 41.7609 164.896 39.9053 166.839 39.9053C168.782 39.9053 170.336 41.7609 170.336 44.0499Z" fill="#4A36C3"/>
</mask>
<g mask="url(#mask1_1629_965)">
<path d="M163.148 33.915C171.282 35.3139 171.502 43.9528 170.595 48.0974C169.537 48.3996 166.567 48.2269 163.148 45.1185C159.728 42.01 161.723 36.3543 163.148 33.915Z" fill="#4A36C3"/>
</g>
<path d="M167.449 41.8867C167.474 41.8612 167.518 41.8733 167.527 41.9084L167.883 43.3166C167.887 43.33 167.896 43.3412 167.908 43.3472L169.25 43.9982C169.284 44.0145 169.286 44.0619 169.254 44.0807L167.99 44.8137C167.978 44.8209 167.97 44.8335 167.968 44.8477L167.768 46.2696C167.763 46.306 167.72 46.3225 167.692 46.299L166.551 45.3452C166.54 45.3366 166.527 45.3329 166.513 45.3349L165.044 45.5641C165.008 45.5697 164.98 45.5333 164.994 45.4996L165.556 44.1782C165.561 44.165 165.561 44.1499 165.554 44.1373L164.849 42.8581C164.831 42.8253 164.857 42.7856 164.894 42.789L166.38 42.9229C166.394 42.9242 166.407 42.9193 166.417 42.9096L167.449 41.8867Z" fill="#2D1D8E"/>
<path d="M162.677 81.1924C163.174 82.5723 165.492 86.3808 164.499 93.1699L161.463 94.329" stroke="#CF0A80" stroke-width="0.647399" stroke-linecap="round"/>
<path d="M168.361 82.627C168.803 83.5653 170.624 87.429 171.011 93.6109L174.047 94.3837" stroke="#CF0A80" stroke-width="0.647399" stroke-linecap="round"/>
<path d="M160.027 78.708C159.769 80.0695 159.409 83.8412 160.027 88.0361" stroke="#CF0A80" stroke-width="0.647399" stroke-linecap="round"/>
<path d="M169.411 68.7181C164.222 67.3382 161.628 73.7409 161.573 75.0104C157.709 75.0104 157.995 78.4465 158.813 79.5917C159.365 80.3644 160.745 81.6891 163.836 82.7378C166.927 83.7866 170.294 84.2281 171.232 84.1177C172.17 84.0073 173.385 84.1177 174.268 82.0203C174.974 80.3423 173.753 79.0029 173.164 78.5429C173.826 75.452 174.599 70.098 169.411 68.7181Z" fill="url(#paint3_linear_1629_965)"/>
<ellipse cx="163.701" cy="75.6211" rx="0.717546" ry="0.772742" transform="rotate(23.8851 163.701 75.6211)" fill="#3B314F"/>
<ellipse cx="168.558" cy="77.0557" rx="0.717546" ry="0.772742" transform="rotate(23.8851 168.558 77.0557)" fill="#3B314F"/>
<path d="M173.053 79.4258C173.789 81.284 175.117 85.8947 174.543 89.4714" stroke="#CF0A80" stroke-width="0.647399" stroke-linecap="round"/>
<path d="M116.801 85.1504C117.058 86.9167 117.419 91.2661 116.801 94.5337H119.837" stroke="#CF0A80" stroke-width="0.647399" stroke-linecap="round"/>
<path d="M121.381 84.4883C122.135 86.181 123.699 90.1735 123.92 92.6021H127.563" stroke="#CF0A80" stroke-width="0.647399" stroke-linecap="round"/>
<path d="M123.535 78.6371C125.357 78.0115 129.121 75.6013 129.607 70.9648" stroke="#CF0A80" stroke-width="0.647399" stroke-linecap="round"/>
<path d="M116.635 70.4683C121.878 69.3644 124.086 76.8158 124.086 79.0236C124.804 79.0236 126.184 79.962 126.404 81.0107C126.625 82.0594 126.018 83.5206 124.638 84.1017C124.001 84.3701 121.492 85.2056 119.45 85.6471C117.408 86.0887 114.813 86.0335 113.378 86.0335C111.943 86.0335 110.453 85.0952 110.398 83.4393C110.354 82.1146 111.557 81.1947 112.164 80.9003C111.17 76.595 111.391 71.5722 116.635 70.4683Z" fill="url(#paint4_linear_1629_965)"/>
<ellipse cx="121.856" cy="78.1552" rx="0.717546" ry="0.772742" transform="rotate(-17.4862 121.856 78.1552)" fill="#3B314F"/>
<ellipse cx="117.993" cy="79.1484" rx="0.717546" ry="0.772742" transform="rotate(-17.4862 117.993 79.1484)" fill="#3B314F"/>
<path d="M112.938 80.4043C113.618 83.0537 114.571 88.9707 112.938 91.4435" stroke="#CF0A80" stroke-width="0.647399" stroke-linecap="round"/>
<path d="M170.065 16.6291C168.754 17.4106 164.86 18.3935 159.766 16.0726" stroke="#CF0A80" stroke-width="0.647399" stroke-linecap="round"/>
<path d="M172.666 20.8911C171.414 21.6206 169.157 24.5255 169.446 26.9881C169.677 28.9582 172.092 29.6476 173.271 29.746L172.122 33.3534" stroke="#CF0A80" stroke-width="0.647399" stroke-linecap="round"/>
<path d="M170.883 7.33867C165.98 9.52624 167.986 16.1368 168.741 17.1589C165.736 19.5873 168.118 22.0802 169.474 22.4568C170.389 22.711 172.295 22.8741 175.358 21.7472C178.422 20.6202 181.318 18.8476 181.978 18.172C182.639 17.4964 183.653 16.8191 183.021 14.6326C182.516 12.8834 180.724 12.6094 179.977 12.6217C178.55 9.80118 175.786 5.15109 170.883 7.33867Z" fill="url(#paint5_linear_1629_965)"/>
<ellipse cx="170.78" cy="16.2962" rx="0.717546" ry="0.772742" transform="rotate(-15.0539 170.78 16.2962)" fill="#3B314F"/>
<ellipse cx="175.46" cy="14.3597" rx="0.717546" ry="0.772742" transform="rotate(-15.0539 175.46 14.3597)" fill="#3B314F"/>
<path d="M179.513 18.7354C177.829 18.6717 175.532 19.3265 174.626 21.1775C173.901 22.6583 175.86 24.9912 176.931 25.9725L174.096 27.7288" stroke="#CF0A80" stroke-width="0.647399" stroke-linecap="round"/>
<path d="M179.253 13.9214C180.761 14.4139 183.932 16.8273 184.553 22.5403" stroke="#CF0A80" stroke-width="0.647399" stroke-linecap="round"/>
<path d="M152.139 46.4104C152.563 43.809 150.523 42.1407 150.523 42.1407L148.058 43.0732L148.098 42.8271L150.556 41.881C152.896 43.795 152.39 46.3154 152.39 46.3154L151.974 48.9135L151.711 49.0072L152.139 46.4104Z" fill="url(#paint6_linear_1629_965)"/>
<path d="M150.521 42.1399C150.521 42.1399 152.562 43.8085 152.137 46.4097C151.712 49.0114 151.712 49.0114 151.712 49.0114L149.247 49.9437L149.671 47.3425C149.671 47.3425 150.096 44.7414 148.056 43.0724L150.521 42.1399Z" fill="url(#paint7_linear_1629_965)"/>
<path d="M128.344 85.3361L129.107 85.0476C129.107 85.0476 130.479 87.1675 132.652 87.9476L132.552 88.6457C132.552 88.6457 129.684 87.4816 128.344 85.3361Z" fill="url(#paint8_linear_1629_965)"/>
<path d="M154.606 45.475L149.505 76.6916L127.317 85.0854L127.373 84.7415L132.418 53.8701L154.279 45.5994L154.284 45.5977L154.599 45.4778L154.604 45.4752L154.606 45.475Z" fill="#9C7AF3"/>
<path d="M159.222 49.2506L159.773 49.7009L154.672 80.9178L132.485 89.3116L131.347 88.7108C130.161 88.0849 129.109 87.2332 128.25 86.2034L127.319 85.0861L149.417 76.6192L154.606 45.4755L155.139 45.9114L155.081 46.2633L155.029 46.5836L150.039 77.1285L128.345 85.3357L128.685 85.7398C129.514 86.7245 130.521 87.5443 131.652 88.1575L132.553 88.6452C132.771 88.5634 154.159 80.498 154.159 80.498L159.222 49.2506Z" fill="url(#paint9_linear_1629_965)"/>
<path d="M154.604 45.4764L154.604 45.4786L149.416 76.6194L127.318 85.0866L127.373 84.7426L149.152 76.4001L154.283 45.5999L154.284 45.5989L154.6 45.479L154.604 45.4764Z" fill="url(#paint10_linear_1629_965)"/>
<path d="M158.011 49.1782C158.219 49.2964 158.416 49.3987 158.599 49.4892L153.608 80.0292L153.585 80.029C153.115 79.8494 152.457 79.5433 151.772 79.0194C151.722 78.9814 151.671 78.9425 151.621 78.9007C151.546 78.8403 151.47 78.7771 151.394 78.7102C151.079 78.4336 150.809 78.1475 150.584 77.8763C150.358 77.6061 150.178 77.3485 150.038 77.128L155.03 46.5709C155.134 46.7059 155.251 46.8498 155.38 47.0021C155.412 47.0379 155.443 47.0756 155.478 47.1126C155.681 47.3425 155.915 47.585 156.179 47.8287C156.211 47.86 156.244 47.8904 156.278 47.9204C156.391 48.0232 156.51 48.1255 156.633 48.2263C156.682 48.2669 156.733 48.308 156.784 48.3487L156.788 48.3521C156.846 48.398 156.905 48.4433 156.964 48.4869L157.065 48.5632C157.356 48.7776 157.638 48.9599 157.907 49.1175C157.942 49.1387 157.977 49.1591 158.011 49.1782Z" fill="url(#paint11_linear_1629_965)"/>
<path d="M151.395 78.7099C150.765 78.1562 150.318 77.5689 150.039 77.128L129.108 85.0466C129.418 85.5168 129.914 86.159 130.664 86.7712C131.41 87.3805 132.134 87.7382 132.655 87.948L151.838 80.6905L153.332 80.1251L153.586 80.0291C153.031 79.8172 152.212 79.4271 151.395 78.7099Z" fill="url(#paint12_linear_1629_965)"/>
<path d="M132.553 88.6447C132.771 88.5633 154.159 80.4976 154.159 80.4976L159.222 49.2501L158.579 49.4721L153.572 80.0178L132.653 87.9467L132.553 88.6447Z" fill="url(#paint13_linear_1629_965)"/>
<path d="M156.784 48.3492L151.772 79.0198C151.722 78.9818 151.671 78.9429 151.621 78.9011L156.632 48.2271C156.682 48.2677 156.732 48.3088 156.784 48.3492Z" fill="url(#paint14_linear_1629_965)"/>
<path d="M147.555 60.0699L134.439 65.0316L134.507 64.6455L147.623 59.6839L147.555 60.0699Z" fill="#422D97"/>
<path d="M147.866 58.0806L134.75 63.0423L134.818 62.6563L147.933 57.6949L147.866 58.0806Z" fill="#422D97"/>
<path d="M148.207 56.1109L135.092 61.0726L135.16 60.6865L148.275 55.7252L148.207 56.1109Z" fill="#422D97"/>
<path d="M148.534 54.1461L135.418 59.1077L135.486 58.7217L148.601 53.7604L148.534 54.1461Z" fill="#422D97"/>
<path d="M135.905 46.567C134.745 47.0638 129.226 51.0931 124.424 44.8008" stroke="#CF0A80" stroke-width="0.647399" stroke-linecap="round"/>
<path d="M137.063 35.7474C132.559 38.0877 134.008 44.1188 135.296 46.8418C133.144 48.4424 134.303 53.4101 137.725 52.7478C141.147 52.0854 146.998 49.6568 148.764 48.1113C150.53 46.5658 150.641 44.8547 149.868 43.4197C149.25 42.2716 147.513 41.911 146.722 41.8742C146.391 40.6047 142.693 32.822 137.063 35.7474Z" fill="url(#paint15_linear_1629_965)"/>
<ellipse cx="137.891" cy="47.9689" rx="0.717546" ry="0.772742" transform="rotate(-27.358 137.891 47.9689)" fill="#3B314F"/>
<ellipse cx="143.19" cy="46.6437" rx="0.717546" ry="0.772742" transform="rotate(-27.358 143.19 46.6437)" fill="#3B314F"/>
<path d="M137.67 52.3623C136.235 53.2454 134.69 55.0669 134.966 57.1091C135.187 58.7429 138.112 59.593 139.547 59.8137L138.167 62.8495" stroke="#CF0A80" stroke-width="0.647399" stroke-linecap="round"/>
<path d="M144.018 50.3193C142.914 51.2577 141.203 54.5142 141.92 56.8876C142.495 58.7864 144.993 59.0403 146.171 58.9299L145.674 62.6832" stroke="#CF0A80" stroke-width="0.647399" stroke-linecap="round"/>
<path d="M145.895 41.985C148.82 40.9915 152.297 40.3843 150.752 32.2705" stroke="#CF0A80" stroke-width="0.647399" stroke-linecap="round"/>
<defs>
<filter id="filter0_f_1629_965" x="78.2435" y="89.4574" width="148.038" height="10.1428" filterUnits="userSpaceOnUse" color-interpolation-filters="sRGB">
<feFlood flood-opacity="0" result="BackgroundImageFix"/>
<feBlend mode="normal" in="SourceGraphic" in2="BackgroundImageFix" result="shape"/>
<feGaussianBlur stdDeviation="1.8343" result="effect1_foregroundBlur_1629_965"/>
</filter>
<radialGradient id="paint0_radial_1629_965" cx="0" cy="0" r="1" gradientUnits="userSpaceOnUse" gradientTransform="translate(177.062 20.4498) rotate(92.148) scale(65.2825 132.132)">
<stop stop-color="#51DCFA" stop-opacity="0.79"/>
<stop offset="0.760998" stop-color="#58DFFC" stop-opacity="0.0655291"/>
<stop offset="1" stop-color="#59DFFC" stop-opacity="0"/>
</radialGradient>
<linearGradient id="paint1_linear_1629_965" x1="179.567" y1="16.0172" x2="185.691" y2="105.174" gradientUnits="userSpaceOnUse">
<stop stop-color="#8CFFEA" stop-opacity="0.36"/>
<stop offset="0.78125" stop-color="#CDFF8C" stop-opacity="0"/>
</linearGradient>
<linearGradient id="paint2_linear_1629_965" x1="177.766" y1="14.4968" x2="195.534" y2="71.4066" gradientUnits="userSpaceOnUse">
<stop stop-color="#CDFF8C" stop-opacity="0.36"/>
<stop offset="0.78125" stop-color="#CDFF8C" stop-opacity="0"/>
</linearGradient>
<linearGradient id="paint3_linear_1629_965" x1="166.393" y1="68.5244" x2="166.393" y2="84.1342" gradientUnits="userSpaceOnUse">
<stop stop-color="#F783F2"/>
<stop offset="1" stop-color="#E040DA"/>
</linearGradient>
<linearGradient id="paint4_linear_1629_965" x1="118.423" y1="70.3574" x2="118.423" y2="86.0357" gradientUnits="userSpaceOnUse">
<stop stop-color="#F783F2"/>
<stop offset="1" stop-color="#E040DA"/>
</linearGradient>
<linearGradient id="paint5_linear_1629_965" x1="168.414" y1="9.08446" x2="178.225" y2="21.226" gradientUnits="userSpaceOnUse">
<stop stop-color="#F783F2"/>
<stop offset="1" stop-color="#E040DA"/>
</linearGradient>
<linearGradient id="paint6_linear_1629_965" x1="152.199" y1="43.2251" x2="149.17" y2="46.9291" gradientUnits="userSpaceOnUse">
<stop offset="2.1e-07" stop-color="#4E5FA8"/>
<stop offset="0.0911" stop-color="#5B6BAF"/>
<stop offset="0.3189" stop-color="#7883BE"/>
<stop offset="0.5473" stop-color="#8C94C9"/>
<stop offset="0.7747" stop-color="#989FCF"/>
<stop offset="1" stop-color="#9CA2D1"/>
</linearGradient>
<linearGradient id="paint7_linear_1629_965" x1="151.37" y1="49.1409" x2="148.947" y2="42.7358" gradientUnits="userSpaceOnUse">
<stop offset="2.1e-07" stop-color="#95D6DE"/>
<stop offset="0.2852" stop-color="#CFEBEB"/>
<stop offset="0.2982" stop-color="#D2ECEC"/>
<stop offset="0.5193" stop-color="#C3E6E9"/>
<stop offset="0.9456" stop-color="#9BD8E1"/>
<stop offset="1" stop-color="#95D6E0"/>
</linearGradient>
<linearGradient id="paint8_linear_1629_965" x1="132.793" y1="87.1673" x2="128.168" y2="86.4119" gradientUnits="userSpaceOnUse">
<stop offset="1e-07" stop-color="#43499D"/>
<stop offset="0.3238" stop-color="#726FB3"/>
<stop offset="0.6107" stop-color="#958BC3"/>
<stop offset="0.8459" stop-color="#AA9CCD"/>
<stop offset="1" stop-color="#B2A2D1"/>
</linearGradient>
<linearGradient id="paint9_linear_1629_965" x1="161.367" y1="65.6078" x2="125.725" y2="69.1796" gradientUnits="userSpaceOnUse">
<stop offset="1.1e-07" stop-color="#33224E"/>
<stop offset="0.1989" stop-color="#392453"/>
<stop offset="0.4452" stop-color="#2F2A63"/>
<stop offset="0.7164" stop-color="#50357C"/>
<stop offset="1" stop-color="#50439E"/>
</linearGradient>
<linearGradient id="paint10_linear_1629_965" x1="139.131" y1="47.0271" x2="142.79" y2="83.536" gradientUnits="userSpaceOnUse">
<stop offset="1e-07" stop-color="#43499D"/>
<stop offset="0.5971" stop-color="#777DBB"/>
<stop offset="1" stop-color="#9CA2D1"/>
</linearGradient>
<linearGradient id="paint11_linear_1629_965" x1="156.29" y1="63.6236" x2="152.349" y2="62.9799" gradientUnits="userSpaceOnUse">
<stop offset="1.1e-07" stop-color="#CFE0EF"/>
<stop offset="0.3105" stop-color="#C7D5EA"/>
<stop offset="0.8534" stop-color="#B0B8DC"/>
<stop offset="1" stop-color="#A9AFD8"/>
</linearGradient>
<linearGradient id="paint12_linear_1629_965" x1="142.05" y1="84.3937" x2="140.645" y2="80.6818" gradientUnits="userSpaceOnUse">
<stop stop-color="#FFFDF7"/>
<stop offset="0.3511" stop-color="#E8EFF3"/>
<stop offset="0.7303" stop-color="#D6E4F0"/>
<stop offset="1" stop-color="#CFE0EF"/>
</linearGradient>
<linearGradient id="paint13_linear_1629_965" x1="141.031" y1="56.1108" x2="150.745" y2="81.7889" gradientUnits="userSpaceOnUse">
<stop offset="1e-07" stop-color="#43499D"/>
<stop offset="0.3185" stop-color="#454B9E"/>
<stop offset="0.4941" stop-color="#4D51A2"/>
<stop offset="0.635" stop-color="#5B5CA8"/>
<stop offset="0.7574" stop-color="#6F6CB1"/>
<stop offset="0.8678" stop-color="#8880BD"/>
<stop offset="0.9681" stop-color="#A799CC"/>
<stop offset="1" stop-color="#B2A2D1"/>
</linearGradient>
<linearGradient id="paint14_linear_1629_965" x1="162.722" y1="53.2058" x2="145.681" y2="74.0431" gradientUnits="userSpaceOnUse">
<stop offset="2.1e-07" stop-color="#9DA3C9"/>
<stop offset="0.0387" stop-color="#9397BB"/>
<stop offset="0.1977" stop-color="#9FA5C5"/>
<stop offset="0.7287" stop-color="#C2D0E3"/>
<stop offset="1" stop-color="#CFE0EF"/>
</linearGradient>
<linearGradient id="paint15_linear_1629_965" x1="142.165" y1="35.0947" x2="142.165" y2="52.8082" gradientUnits="userSpaceOnUse">
<stop stop-color="#F783F2"/>
<stop offset="1" stop-color="#E040DA"/>
</linearGradient>
</defs>
</svg>
