<svg width="292" height="103" viewBox="0 0 292 103" fill="none" xmlns="http://www.w3.org/2000/svg">
<rect width="292" height="102.768" fill="#1D1D26"/>
<line x1="120" y1="25.9" x2="238" y2="25.9" stroke="white" stroke-width="0.2"/>
<line x1="120" y1="33.9" x2="238" y2="33.9" stroke="white" stroke-width="0.2"/>
<line x1="120" y1="41.9" x2="238" y2="41.9" stroke="white" stroke-width="0.2"/>
<line x1="120" y1="49.9" x2="238" y2="49.9" stroke="white" stroke-width="0.2"/>
<line x1="120" y1="57.9" x2="238" y2="57.9" stroke="white" stroke-width="0.2"/>
<path d="M92.0843 68.3882C92.4235 69.9893 90.7186 70.9273 89.7684 71.071C88.8182 71.2146 87.4554 70.9663 85.4847 69.0942C84.6902 68.3396 83.4527 66.5828 83.4527 66.5828C83.4527 66.5828 84.4995 65.5776 85.4173 64.1475C86.5126 62.4408 86.8349 61.309 86.8349 61.309C86.8349 61.309 87.3885 63.3083 88.711 64.7188C90.0553 66.1524 91.8298 67.187 92.0843 68.3882Z" fill="url(#paint0_linear_1654_6565)"/>
<path d="M92.0843 68.3882C92.4235 69.9893 90.7186 70.9273 89.7684 71.071C88.8182 71.2146 87.4554 70.9663 85.4847 69.0942C84.6902 68.3396 83.4527 66.5828 83.4527 66.5828C83.4527 66.5828 84.4995 65.5776 85.4173 64.1475C86.5126 62.4408 86.8349 61.309 86.8349 61.309C86.8349 61.309 87.3885 63.3083 88.711 64.7188C90.0553 66.1524 91.8298 67.187 92.0843 68.3882Z" fill="url(#paint1_linear_1654_6565)"/>
<path d="M87.6543 63.2395C87.6543 63.2395 87.0581 65.3574 86.6029 66.2038C86.1476 67.0502 85.0077 68.5886 85.0077 68.5886C84.8603 68.4486 85.1748 68.7799 85.0077 68.5886C84.2738 67.7484 83.4527 66.5828 83.4527 66.5828C83.4527 66.5828 84.4995 65.5776 85.4173 64.1475C86.5126 62.4408 86.8349 61.309 86.8349 61.309C86.8349 61.309 87.0861 62.2162 87.6543 63.2395Z" fill="#007156"/>
<path d="M87.6543 63.2395C87.6543 63.2395 87.0581 65.3574 86.6029 66.2038C86.1476 67.0502 85.0077 68.5886 85.0077 68.5886C84.8603 68.4486 85.1748 68.7799 85.0077 68.5886C84.2738 67.7484 83.4527 66.5828 83.4527 66.5828C83.4527 66.5828 84.4995 65.5776 85.4173 64.1475C86.5126 62.4408 86.8349 61.309 86.8349 61.309C86.8349 61.309 87.0861 62.2162 87.6543 63.2395Z" fill="#007156"/>
<path d="M54.6222 74.5365L57.0265 66.0088C57.676 66.2703 58.1831 65.9782 59.1225 66.3723C60.1292 66.7946 61.4326 67.4129 61.6616 67.738C62.1566 68.4407 64.2648 66.9557 65.0195 66.1613L70.7484 68.6971C70.6965 68.9965 68.6281 72.0306 65.5697 73.6593C63.7267 74.3266 61.009 73.2795 59.8805 72.6726C58.9126 73.9852 55.9716 74.4621 54.6222 74.5365Z" fill="url(#paint2_linear_1654_6565)"/>
<path d="M65.0194 66.161L70.7483 68.6968C70.7163 68.8818 69.9148 70.1102 68.5859 71.4062C68.5859 71.4062 66.851 70.3014 65.9972 69.415C65.1434 68.5286 64.2131 66.8665 64.2131 66.8665C64.5382 66.6184 64.8241 66.3666 65.0194 66.161Z" fill="#007156"/>
<circle cx="74.8186" cy="57.6823" r="13.9795" transform="rotate(9.83929 74.8186 57.6823)" fill="url(#paint3_linear_1654_6565)"/>
<path d="M62.5823 64.5258L63.2721 65.5708C63.2721 65.5708 63.7276 64.1151 64.5339 63.6305C64.5339 63.6305 65.1512 63.0539 65.6435 62.5676C66.8021 61.4233 68.6388 60.7292 68.6388 60.7292C67.1009 61.2781 65.652 60.5521 63.8989 61.9565C63.1603 62.5483 62.7381 63.6275 62.5823 64.5258Z" fill="#007156"/>
<path d="M61.0728 67.2822C60.228 68.8625 58.654 68.7357 57.5571 67.9211C56.4601 67.1065 56.5729 65.5652 57.4965 62.9158C58.4202 60.2664 61.4 57.6614 62.2063 57.1769C64.6252 55.7234 66.1517 55.9881 67.3824 55.8894C67.3824 55.8894 68.9707 55.6541 69.9817 56.9646C70.9926 58.275 69.7566 60.0473 69.7566 60.0473C68.2918 61.3541 66.6151 60.7488 64.3704 62.5471C62.5816 63.9802 61.9892 65.568 61.0728 67.2822Z" fill="url(#paint4_linear_1654_6565)"/>
<rect x="75.4648" y="57.5166" width="8.81751" height="9.09832" rx="1.122" transform="rotate(-36.8176 75.4648 57.5166)" fill="black"/>
<path fill-rule="evenodd" clip-rule="evenodd" d="M77.1961 56.2208L79.2868 54.6557C79.4923 54.6501 79.7046 54.665 79.9199 54.7024C81.2429 54.9318 82.1759 55.9222 82.0038 56.9144C81.8317 57.9066 80.6197 58.525 79.2967 58.2956C78.0348 58.0767 77.1277 57.1655 77.1961 56.2208Z" fill="white"/>
<path d="M84.8543 81.6298C83.3052 81.6696 78.0591 81.6851 75.2603 81.8165C75.2661 80.939 75.1945 77.8662 74.3068 74.8655L72.1175 69.9135C71.9219 69.5057 71.7578 69.1445 71.6484 68.8525L79.4337 70.2028C80.8148 72.9098 81.5838 74.9966 81.6368 77.0621C82.793 77.5094 84.5111 80.645 84.8543 81.6298Z" fill="url(#paint5_linear_1654_6565)"/>
<rect x="75" y="14" width="8.83095" height="11.9316" rx="4.41548" fill="white"/>
<path d="M78.6719 18.5762H79.2852V16.373L78.5508 16.7266V16.3477L79.2812 16H79.6758V18.5762H80.2812V18.9062H78.6719V18.5762Z" fill="black"/>
<line x1="82.0446" y1="18.1206" x2="77.0446" y2="21.1206" stroke="black" stroke-width="0.5"/>
<path d="M80.2441 22.3145C80.4355 22.3652 80.582 22.4557 80.6836 22.5859C80.7852 22.7148 80.8359 22.8763 80.8359 23.0703C80.8359 23.3385 80.7454 23.5495 80.5645 23.7031C80.3848 23.8555 80.1354 23.9316 79.8164 23.9316C79.6823 23.9316 79.5456 23.9193 79.4062 23.8945C79.2669 23.8698 79.1302 23.834 78.9961 23.7871V23.3945C79.1289 23.4635 79.2598 23.515 79.3887 23.5488C79.5176 23.5827 79.6458 23.5996 79.7734 23.5996C79.9896 23.5996 80.1556 23.5508 80.2715 23.4531C80.3874 23.3555 80.4453 23.2148 80.4453 23.0312C80.4453 22.862 80.3874 22.7279 80.2715 22.6289C80.1556 22.5286 79.9987 22.4785 79.8008 22.4785H79.5V22.1543H79.8008C79.9818 22.1543 80.123 22.1146 80.2246 22.0352C80.3262 21.9557 80.377 21.8451 80.377 21.7031C80.377 21.5534 80.3294 21.4388 80.2344 21.3594C80.1406 21.2786 80.0065 21.2383 79.832 21.2383C79.7161 21.2383 79.5964 21.2513 79.4727 21.2773C79.349 21.3034 79.2194 21.3424 79.084 21.3945V21.0312C79.2415 20.9896 79.3815 20.9583 79.5039 20.9375C79.6276 20.9167 79.737 20.9062 79.832 20.9062C80.1159 20.9062 80.3424 20.9779 80.5117 21.1211C80.6823 21.263 80.7676 21.4518 80.7676 21.6875C80.7676 21.8477 80.7227 21.9811 80.6328 22.0879C80.5443 22.1947 80.4147 22.2702 80.2441 22.3145Z" fill="black"/>
<rect x="89.832" y="19" width="8.83095" height="11.9941" rx="4.41548" fill="white"/>
<path d="M93.793 23.6367H95.1328V23.9688H93.3613V23.6367C93.6048 23.3802 93.8177 23.1536 94 22.957C94.1823 22.7604 94.3079 22.6217 94.377 22.541C94.5072 22.3822 94.5951 22.2539 94.6406 22.1562C94.6862 22.0573 94.709 21.9564 94.709 21.8535C94.709 21.6908 94.6608 21.5632 94.5645 21.4707C94.4694 21.3783 94.3385 21.332 94.1719 21.332C94.0534 21.332 93.929 21.3535 93.7988 21.3965C93.6686 21.4395 93.5306 21.5046 93.3848 21.5918V21.1934C93.5189 21.1296 93.6504 21.0814 93.7793 21.0488C93.9095 21.0163 94.0378 21 94.1641 21C94.4492 21 94.6784 21.0762 94.8516 21.2285C95.026 21.3796 95.1133 21.5781 95.1133 21.8242C95.1133 21.9492 95.084 22.0742 95.0254 22.1992C94.9681 22.3242 94.8743 22.4622 94.7441 22.6133C94.6712 22.6979 94.5651 22.8151 94.4258 22.9648C94.2878 23.1146 94.0768 23.3385 93.793 23.6367Z" fill="black"/>
<line x1="96.8767" y1="23.1831" x2="91.8767" y2="26.1831" stroke="black" stroke-width="0.5"/>
<path d="M95.0762 27.377C95.2676 27.4277 95.4141 27.5182 95.5156 27.6484C95.6172 27.7773 95.668 27.9388 95.668 28.1328C95.668 28.401 95.5775 28.612 95.3965 28.7656C95.2168 28.918 94.9674 28.9941 94.6484 28.9941C94.5143 28.9941 94.3776 28.9818 94.2383 28.957C94.099 28.9323 93.9622 28.8965 93.8281 28.8496V28.457C93.9609 28.526 94.0918 28.5775 94.2207 28.6113C94.3496 28.6452 94.4779 28.6621 94.6055 28.6621C94.8216 28.6621 94.9876 28.6133 95.1035 28.5156C95.2194 28.418 95.2773 28.2773 95.2773 28.0938C95.2773 27.9245 95.2194 27.7904 95.1035 27.6914C94.9876 27.5911 94.8307 27.541 94.6328 27.541H94.332V27.2168H94.6328C94.8138 27.2168 94.9551 27.1771 95.0566 27.0977C95.1582 27.0182 95.209 26.9076 95.209 26.7656C95.209 26.6159 95.1615 26.5013 95.0664 26.4219C94.9727 26.3411 94.8385 26.3008 94.6641 26.3008C94.5482 26.3008 94.4284 26.3138 94.3047 26.3398C94.181 26.3659 94.0514 26.4049 93.916 26.457V26.0938C94.0736 26.0521 94.2135 26.0208 94.3359 26C94.4596 25.9792 94.569 25.9688 94.6641 25.9688C94.9479 25.9688 95.1745 26.0404 95.3438 26.1836C95.5143 26.3255 95.5996 26.5143 95.5996 26.75C95.5996 26.9102 95.5547 27.0436 95.4648 27.1504C95.3763 27.2572 95.2467 27.3327 95.0762 27.377Z" fill="black"/>
<rect x="104.662" y="28" width="8.83095" height="11.832" rx="4.41548" fill="white"/>
<path d="M109.305 30.3594L108.385 31.9004H109.305V30.3594ZM109.24 30H109.697V31.9004H110.086V32.2207H109.697V32.916H109.305V32.2207H108.068V31.8477L109.24 30Z" fill="black"/>
<line x1="111.707" y1="32.1304" x2="106.707" y2="35.1304" stroke="black" stroke-width="0.5"/>
<path d="M109.805 35.2754L108.885 36.8164H109.805V35.2754ZM109.74 34.916H110.197V36.8164H110.586V37.1367H110.197V37.832H109.805V37.1367H108.568V36.7637L109.74 34.916Z" fill="black"/>
<path d="M142.498 51.8848C143.365 49.6652 143.095 47.2216 141.793 45.5076C140.514 43.8217 138.498 42.8748 136.398 42.9894C136.367 42.9904 136.337 42.9928 136.307 42.9943V39.6038C139.931 36.8916 142.264 34.3626 142.264 30.902V27.8822C142.264 25.7417 140.546 24 138.435 24C136.323 24 134.605 25.7417 134.605 27.8822V38.7276C133.445 39.5638 132.144 40.443 130.729 41.3998C127.671 43.4663 126.004 47.577 126.766 51.1739C127.406 54.1961 129.592 56.2369 132.763 56.7725C133.408 56.8816 134.022 56.9355 134.605 56.9409V62.3919C134.605 64.533 132.887 66.2746 130.775 66.2746C129.246 66.2746 127.905 65.3712 127.292 63.9895C128.405 63.5141 129.188 62.3974 129.188 61.098C129.188 59.3682 127.801 57.9613 126.094 57.9613C124.388 57.9613 123 59.3682 123 61.098C123 62.6348 124.098 63.9115 125.539 64.178C126.298 66.4672 128.38 68 130.775 68C133.825 68 136.306 65.4843 136.306 62.3919V56.8115C139.611 56.2577 141.661 54.0283 142.498 51.8848ZM136.306 27.8822C136.306 26.693 137.261 25.7254 138.434 25.7254C139.608 25.7254 140.562 26.693 140.562 27.8822V30.902C140.562 33.351 138.98 35.3119 136.306 37.4435V27.8822ZM124.702 61.098C124.702 60.32 125.327 59.6867 126.094 59.6867C126.862 59.6867 127.486 60.32 127.486 61.098C127.486 61.8761 126.862 62.5094 126.094 62.5094C125.327 62.5094 124.702 61.8761 124.702 61.098ZM134.604 43.3522C132.332 44.1742 130.627 46.2762 130.381 48.7944C130.297 49.6578 130.378 50.5104 130.623 51.3289C130.759 51.7845 131.232 52.0427 131.684 51.9045C132.134 51.7663 132.388 51.2845 132.251 50.8288C132.072 50.2285 132.013 49.6015 132.076 48.9642C132.231 47.3682 133.237 45.9696 134.604 45.2415V55.2121C134.113 55.2081 133.592 55.1632 133.042 55.0709C129.693 54.5051 128.716 52.1597 128.43 50.812C127.809 47.8796 129.172 44.5252 131.672 42.8358C132.702 42.1403 133.684 41.4768 134.604 40.8316V43.3522ZM136.306 55.0462V44.7251C136.365 44.7202 136.425 44.7157 136.484 44.7123C138.027 44.6259 139.505 45.3224 140.445 46.5596C141.382 47.7952 141.563 49.5922 140.916 51.2494C140.287 52.8583 138.766 54.5244 136.306 55.0462Z" fill="white"/>
<circle cx="148" cy="74" r="9" fill="#076ADF"/>
<path d="M148.369 79.1682C147.52 79.1682 146.768 78.9676 146.115 78.5662C145.462 78.1556 144.953 77.5769 144.589 76.8302C144.225 76.0742 144.043 75.1782 144.043 74.1422C144.043 73.1436 144.225 72.2616 144.589 71.4962C144.962 70.7216 145.485 70.1196 146.157 69.6902C146.838 69.2516 147.632 69.0322 148.537 69.0322C149.004 69.0322 149.428 69.0789 149.811 69.1722C150.194 69.2562 150.553 69.3776 150.889 69.5362L150.483 70.6562C150.194 70.5162 149.895 70.4042 149.587 70.3202C149.288 70.2362 148.934 70.1942 148.523 70.1942C147.926 70.1942 147.389 70.3482 146.913 70.6562C146.446 70.9642 146.078 71.4076 145.807 71.9862C145.536 72.5649 145.401 73.2649 145.401 74.0862C145.401 74.8702 145.532 75.5562 145.793 76.1442C146.064 76.7322 146.432 77.1896 146.899 77.5162C147.375 77.8429 147.916 78.0062 148.523 78.0062C148.98 78.0062 149.377 77.9502 149.713 77.8382C150.049 77.7262 150.376 77.5816 150.693 77.4042L151.099 78.5102C150.754 78.6969 150.357 78.8556 149.909 78.9862C149.47 79.1076 148.957 79.1682 148.369 79.1682Z" fill="#1D1D26"/>
<circle cx="173" cy="69" r="9" fill="#DF5407"/>
<path d="M172.064 74.1119C171.532 74.1119 171.066 74.0979 170.664 74.0699C170.272 74.0419 169.88 74.0092 169.488 73.9719V64.2279C169.927 64.1812 170.356 64.1486 170.776 64.1299C171.196 64.1019 171.677 64.0879 172.218 64.0879C173.058 64.0879 173.782 64.2186 174.388 64.4799C175.004 64.7412 175.508 65.1006 175.9 65.5579C176.302 66.0152 176.596 66.5472 176.782 67.1539C176.978 67.7512 177.076 68.3952 177.076 69.0859C177.076 69.7672 176.978 70.4112 176.782 71.0179C176.586 71.6246 176.283 72.1612 175.872 72.6279C175.471 73.0852 174.953 73.4492 174.318 73.7199C173.693 73.9812 172.942 74.1119 172.064 74.1119ZM172.106 72.9499C172.946 72.9499 173.632 72.7866 174.164 72.4599C174.696 72.1332 175.088 71.6806 175.34 71.1019C175.592 70.5139 175.718 69.8419 175.718 69.0859C175.718 68.4139 175.592 67.7839 175.34 67.1959C175.088 66.6079 174.701 66.1366 174.178 65.7819C173.656 65.4179 172.988 65.2359 172.176 65.2359C171.906 65.2359 171.658 65.2452 171.434 65.2639C171.21 65.2732 171.005 65.2872 170.818 65.3059V72.8799C171.014 72.9079 171.22 72.9266 171.434 72.9359C171.649 72.9452 171.873 72.9499 172.106 72.9499Z" fill="#1D1D26"/>
<circle cx="198" cy="64" r="9" fill="#C050F5"/>
<path d="M195.377 69.0002V59.2002H201.257V60.3482H196.707V63.3302H200.627V64.4502H196.707V67.8522H201.257V69.0002H195.377Z" fill="#1D1D26"/>
<circle cx="223" cy="57" r="9" fill="#1AA975"/>
<path d="M220.514 62.0002V52.2002H226.324V53.3482H221.844V56.3442H225.582V57.4362H221.844V62.0002H220.514Z" fill="#1D1D26"/>
<path d="M208.388 18.7379L208.07 18.5579C208.222 18.2139 208.35 17.8359 208.454 17.4239C208.558 17.0119 208.61 16.5639 208.61 16.0799C208.61 15.5919 208.558 15.1419 208.454 14.7299C208.35 14.3139 208.222 13.9379 208.07 13.6019L208.388 13.4219C208.636 13.8419 208.83 14.2659 208.97 14.6939C209.11 15.1179 209.18 15.5799 209.18 16.0799C209.18 16.5439 209.11 16.9939 208.97 17.4299C208.83 17.8619 208.636 18.2979 208.388 18.7379Z" fill="white"/>
<path d="M205.154 18.0716C204.894 18.0716 204.658 18.0056 204.446 17.8736C204.234 17.7416 204.064 17.5556 203.936 17.3156C203.812 17.0716 203.75 16.7856 203.75 16.4576C203.75 16.1456 203.812 15.8656 203.936 15.6176C204.064 15.3696 204.238 15.1736 204.458 15.0296C204.682 14.8816 204.938 14.8076 205.226 14.8076C205.406 14.8076 205.568 14.8396 205.712 14.9036C205.86 14.9636 205.988 15.0396 206.096 15.1316V14.8796H206.588V17.2436C206.588 17.3956 206.624 17.4956 206.696 17.5436C206.772 17.5876 206.854 17.6096 206.942 17.6096L206.828 18.0296C206.444 18.0296 206.212 17.8736 206.132 17.5616C206.04 17.6896 205.914 17.8076 205.754 17.9156C205.598 18.0196 205.398 18.0716 205.154 18.0716ZM205.274 17.5916C205.426 17.5916 205.57 17.5556 205.706 17.4836C205.842 17.4076 205.956 17.3136 206.048 17.2016V15.5276C205.94 15.4516 205.82 15.3916 205.688 15.3476C205.56 15.2996 205.424 15.2756 205.28 15.2756C205.088 15.2756 204.918 15.3256 204.77 15.4256C204.626 15.5216 204.512 15.6576 204.428 15.8336C204.344 16.0056 204.302 16.2076 204.302 16.4396C204.302 16.6636 204.344 16.8636 204.428 17.0396C204.512 17.2116 204.628 17.3476 204.776 17.4476C204.924 17.5436 205.09 17.5916 205.274 17.5916Z" fill="white"/>
<path d="M219.818 18.7379L219.5 18.5579C219.652 18.2139 219.78 17.8359 219.884 17.4239C219.988 17.0119 220.04 16.5639 220.04 16.0799C220.04 15.5919 219.988 15.1419 219.884 14.7299C219.78 14.3139 219.652 13.9379 219.5 13.6019L219.818 13.4219C220.066 13.8419 220.26 14.2659 220.4 14.6939C220.54 15.1179 220.61 15.5799 220.61 16.0799C220.61 16.5439 220.54 16.9939 220.4 17.4299C220.26 17.8619 220.066 18.2979 219.818 18.7379Z" fill="white"/>
<path d="M216.933 18.0716C216.753 18.0716 216.583 18.0396 216.423 17.9756C216.267 17.9076 216.137 17.8296 216.033 17.7416V17.9996H215.529V13.5596H216.069V15.2036C216.149 15.1116 216.265 15.0236 216.417 14.9396C216.573 14.8516 216.757 14.8076 216.969 14.8076C217.209 14.8076 217.433 14.8716 217.641 14.9996C217.853 15.1236 218.023 15.3056 218.151 15.5456C218.279 15.7816 218.343 16.0696 218.343 16.4096C218.343 16.6576 218.303 16.8836 218.223 17.0876C218.143 17.2916 218.035 17.4676 217.899 17.6156C217.767 17.7596 217.617 17.8716 217.449 17.9516C217.281 18.0316 217.109 18.0716 216.933 18.0716ZM216.789 17.5916C216.985 17.5916 217.157 17.5436 217.305 17.4476C217.457 17.3516 217.575 17.2156 217.659 17.0396C217.747 16.8636 217.791 16.6596 217.791 16.4276C217.791 16.1876 217.747 15.9816 217.659 15.8096C217.575 15.6376 217.461 15.5056 217.317 15.4136C217.177 15.3216 217.021 15.2756 216.849 15.2756C216.677 15.2756 216.521 15.3196 216.381 15.4076C216.245 15.4916 216.141 15.5836 216.069 15.6836V17.3516C216.161 17.4236 216.269 17.4816 216.393 17.5256C216.517 17.5696 216.649 17.5916 216.789 17.5916Z" fill="white"/>
<path d="M230.451 18.7379L230.133 18.5579C230.285 18.2139 230.413 17.8359 230.517 17.4239C230.621 17.0119 230.673 16.5639 230.673 16.0799C230.673 15.5919 230.621 15.1419 230.517 14.7299C230.413 14.3139 230.285 13.9379 230.133 13.6019L230.451 13.4219C230.699 13.8419 230.893 14.2659 231.033 14.6939C231.173 15.1179 231.243 15.5799 231.243 16.0799C231.243 16.5439 231.173 16.9939 231.033 17.4299C230.893 17.8619 230.699 18.2979 230.451 18.7379Z" fill="white"/>
<path d="M228.156 18.0716C227.86 18.0716 227.6 18.0036 227.376 17.8676C227.156 17.7276 226.986 17.5356 226.866 17.2916C226.746 17.0436 226.686 16.7596 226.686 16.4396C226.686 16.1396 226.746 15.8656 226.866 15.6176C226.99 15.3696 227.166 15.1736 227.394 15.0296C227.622 14.8816 227.89 14.8076 228.198 14.8076C228.374 14.8076 228.528 14.8236 228.66 14.8556C228.796 14.8876 228.926 14.9336 229.05 14.9936L228.888 15.4496C228.776 15.3936 228.668 15.3536 228.564 15.3296C228.464 15.3016 228.352 15.2876 228.228 15.2876C227.948 15.2876 227.712 15.3896 227.52 15.5936C227.332 15.7936 227.238 16.0716 227.238 16.4276C227.238 16.6436 227.278 16.8396 227.358 17.0156C227.438 17.1916 227.548 17.3316 227.688 17.4356C227.832 17.5396 228 17.5916 228.192 17.5916C228.344 17.5916 228.474 17.5756 228.582 17.5436C228.69 17.5076 228.806 17.4576 228.93 17.3936L229.098 17.8496C228.974 17.9176 228.834 17.9716 228.678 18.0116C228.526 18.0516 228.352 18.0716 228.156 18.0716Z" fill="white"/>
<path d="M242.377 18.7379L242.059 18.5579C242.211 18.2139 242.339 17.8359 242.443 17.4239C242.547 17.0119 242.599 16.5639 242.599 16.0799C242.599 15.5919 242.547 15.1419 242.443 14.7299C242.339 14.3139 242.211 13.9379 242.059 13.6019L242.377 13.4219C242.625 13.8419 242.819 14.2659 242.959 14.6939C243.099 15.1179 243.169 15.5799 243.169 16.0799C243.169 16.5439 243.099 16.9939 242.959 17.4299C242.819 17.8619 242.625 18.2979 242.377 18.7379Z" fill="white"/>
<path d="M239.154 18.0716C238.898 18.0716 238.664 18.0056 238.452 17.8736C238.24 17.7416 238.072 17.5556 237.948 17.3156C237.824 17.0716 237.762 16.7856 237.762 16.4576C237.762 16.1416 237.824 15.8596 237.948 15.6116C238.076 15.3636 238.244 15.1676 238.452 15.0236C238.664 14.8796 238.896 14.8076 239.148 14.8076C239.356 14.8076 239.534 14.8496 239.682 14.9336C239.834 15.0176 239.952 15.1036 240.036 15.1916V13.5596H240.576V17.2436C240.576 17.3956 240.612 17.4956 240.684 17.5436C240.76 17.5876 240.842 17.6096 240.93 17.6096L240.816 18.0296C240.436 18.0296 240.204 17.8776 240.12 17.5736C240.032 17.6976 239.908 17.8116 239.748 17.9156C239.592 18.0196 239.394 18.0716 239.154 18.0716ZM239.274 17.5916C239.422 17.5916 239.562 17.5576 239.694 17.4896C239.83 17.4176 239.944 17.3256 240.036 17.2136V15.6656C239.96 15.5696 239.854 15.4816 239.718 15.4016C239.582 15.3176 239.432 15.2756 239.268 15.2756C239.076 15.2756 238.908 15.3276 238.764 15.4316C238.62 15.5356 238.508 15.6756 238.428 15.8516C238.352 16.0236 238.314 16.2196 238.314 16.4396C238.314 16.6596 238.356 16.8576 238.44 17.0336C238.524 17.2056 238.638 17.3416 238.782 17.4416C238.93 17.5416 239.094 17.5916 239.274 17.5916Z" fill="white"/>
<defs>
<linearGradient id="paint0_linear_1654_6565" x1="84.8704" y1="63.7442" x2="91.7208" y2="70.4843" gradientUnits="userSpaceOnUse">
<stop stop-color="#01AD6C"/>
<stop offset="1" stop-color="#1FF073"/>
</linearGradient>
<linearGradient id="paint1_linear_1654_6565" x1="84.8704" y1="63.7442" x2="91.7208" y2="70.4843" gradientUnits="userSpaceOnUse">
<stop stop-color="#01AD6C"/>
<stop offset="1" stop-color="#1FF073"/>
</linearGradient>
<linearGradient id="paint2_linear_1654_6565" x1="66.1929" y1="70.0661" x2="57.0143" y2="67.8573" gradientUnits="userSpaceOnUse">
<stop stop-color="#01AD6C"/>
<stop offset="1" stop-color="#1FF073"/>
</linearGradient>
<linearGradient id="paint3_linear_1654_6565" x1="78.4654" y1="44.9184" x2="71.7796" y2="70.4462" gradientUnits="userSpaceOnUse">
<stop stop-color="#1FF073"/>
<stop offset="1" stop-color="#04795D"/>
</linearGradient>
<linearGradient id="paint4_linear_1654_6565" x1="65.2639" y1="57.395" x2="66.7145" y2="61.6894" gradientUnits="userSpaceOnUse">
<stop stop-color="#20AD78"/>
<stop offset="0.929244" stop-color="#1FF073"/>
</linearGradient>
<linearGradient id="paint5_linear_1654_6565" x1="79.1342" y1="70.1508" x2="77.0569" y2="82.1281" gradientUnits="userSpaceOnUse">
<stop stop-color="#06805E"/>
<stop offset="1" stop-color="#1FF073"/>
</linearGradient>
</defs>
</svg>
