<svg width="292" height="103" viewBox="0 0 292 103" fill="none" xmlns="http://www.w3.org/2000/svg">
<g clip-path="url(#clip0_1677_8144)">
<rect width="292" height="102.768" fill="#1D1D26"/>
<path d="M97.4762 77.3293L54.4817 86.947C54.4624 86.947 54.4237 86.9668 54.4044 86.9668C51.6232 87.5459 48.8995 85.7889 48.3012 83.0067C48.2818 82.9879 48.2818 82.9879 48.2818 82.969L39.5322 41.4802L44.0907 33.3488C44.8438 32.0361 46.1184 31.0892 47.625 30.7997L57.9005 28.8107L69.0257 26.6472L82.1786 24.0971C83.6272 23.8075 85.1532 24.1744 86.3122 25.0826L92.6475 29.9499L101.416 71.1869C101.996 73.9681 100.257 76.7106 97.4762 77.3293Z" fill="#FA990E"/>
<path d="M97.4699 77.3346L54.4731 86.9423C54.4556 86.9423 54.4206 86.9594 54.403 86.9594C51.6204 87.537 48.8904 85.7871 48.2957 83.0049C48.2782 82.9869 48.2782 82.9869 48.2782 82.9698L39.5283 41.4782L92.6396 29.9453L101.407 71.1926C102.002 73.9748 100.252 76.7048 97.4699 77.3346Z" fill="#FBAD3E"/>
<path d="M59.0039 37.3398L71.5164 34.4494L82.1955 80.678L69.683 83.5684L59.0039 37.3398Z" fill="#B53016"/>
<path d="M56.1088 68.3465L-2.49951 34.5005C-4.16913 33.5534 -6.26665 34.5968 -6.51863 36.4997L-9.30553 57.5456C-9.46858 58.7769 -8.77275 59.9612 -7.61777 60.4182L30.5444 80.2931C34.9982 82.055 39.7448 82.9598 44.5345 82.9598H51.0684L56.1088 68.3465Z" fill="#51504F"/>
<path d="M197.448 41.6385L191.838 57.1999C191.222 58.9095 189.331 59.8019 187.63 59.1861L158.166 48.5156C156.465 47.8998 155.58 46.0018 156.196 44.2922L161.806 28.7308C162.428 27.0042 164.313 26.1288 166.014 26.7446L195.478 37.4151C197.179 38.0309 198.07 39.9119 197.448 41.6385Z" fill="#617F4D"/>
<path d="M193.966 43.3162L190.231 53.677C188.753 53.1418 187.117 53.9148 186.582 55.4L161.387 46.2758C161.922 44.7907 161.157 43.1482 159.68 42.6131L163.415 32.2523C164.892 32.7874 166.528 32.0154 167.064 30.5293L192.258 39.6534C191.722 41.1395 192.488 42.781 193.966 43.3162Z" fill="#3D5E2A"/>
<path d="M168.017 39.2093C168.194 38.331 167.628 37.4764 166.753 37.3006C165.879 37.1248 165.027 37.6943 164.85 38.5727C164.673 39.451 165.239 40.3056 166.114 40.4814C166.988 40.6572 167.84 40.0877 168.017 39.2093Z" fill="#255299"/>
<path d="M189.528 47.0091C189.704 46.1308 189.139 45.2762 188.264 45.1004C187.389 44.9246 186.537 45.4941 186.361 46.3725C186.184 47.2508 186.75 48.1054 187.625 48.2812C188.499 48.457 189.351 47.8875 189.528 47.0091Z" fill="#255299"/>
<path d="M182.087 44.8132C183.228 41.5815 181.793 38.1282 178.882 37.1003C175.971 36.0723 172.686 37.8589 171.545 41.0907C170.404 44.3225 171.838 47.7757 174.749 48.8037C177.66 49.8316 180.945 48.045 182.087 44.8132Z" fill="#8A9BEA"/>
<path d="M178.266 44.4435C178.254 43.6405 177.696 42.8912 176.945 42.624C176.453 42.4585 176.089 41.9798 176.062 41.4565C176.015 40.9324 176.318 40.3934 176.802 40.138C177.282 39.8777 177.934 39.9207 178.394 40.2932C178.866 40.6499 179.11 41.3206 178.956 41.9686C179.267 41.3758 179.147 40.5535 178.635 40.0295C178.51 39.9013 178.365 39.7926 178.207 39.7051C178.255 39.6731 178.298 39.6394 178.336 39.6041C178.423 39.5174 178.484 39.4209 178.523 39.3161C178.561 39.2115 178.576 39.0981 178.564 38.9751C178.547 38.8508 178.514 38.7201 178.409 38.5635C178.229 38.6168 178.12 38.696 178.028 38.7812C177.94 38.8681 177.879 38.9646 177.842 39.0696C177.805 39.1747 177.79 39.288 177.802 39.4109C177.808 39.4563 177.818 39.5032 177.831 39.5512C177.78 39.5359 177.73 39.518 177.678 39.5068C177.31 39.4302 176.917 39.4762 176.564 39.6237C175.844 39.9123 175.352 40.6904 175.377 41.4886C175.391 42.2914 175.947 43.0416 176.699 43.3081C177.192 43.4727 177.555 43.9522 177.583 44.4756C177.63 44.9995 177.327 45.5397 176.843 45.795C176.362 46.0553 175.71 46.0124 175.249 45.6395C174.778 45.2824 174.534 44.6113 174.688 43.9635C174.378 44.5564 174.498 45.3782 175.01 45.9019C175.133 46.0319 175.277 46.1407 175.435 46.2275C175.388 46.259 175.345 46.2924 175.308 46.3275C175.22 46.4144 175.159 46.5107 175.122 46.6159C175.084 46.721 175.07 46.8342 175.082 46.9572C175.098 47.0818 175.131 47.2122 175.235 47.3685C175.415 47.3149 175.523 47.2357 175.615 47.1504C175.703 47.0635 175.764 46.9672 175.802 46.8624C175.841 46.7576 175.855 46.6444 175.843 46.5214C175.837 46.4754 175.827 46.4281 175.814 46.3795C176.222 46.4984 176.675 46.4875 177.08 46.3074C177.8 46.0189 178.292 45.2415 178.266 44.4435Z" fill="white"/>
<path d="M167.637 39.4027C167.814 38.5243 167.248 37.6698 166.373 37.494C165.499 37.3182 164.647 37.8877 164.47 38.766C164.294 39.6444 164.859 40.499 165.734 40.6748C166.608 40.8506 167.461 40.281 167.637 39.4027Z" fill="#8A9BEA"/>
<path d="M189.151 47.2025C189.327 46.3241 188.762 45.4696 187.887 45.2938C187.012 45.118 186.16 45.6875 185.984 46.5658C185.807 47.4442 186.373 48.2988 187.248 48.4746C188.122 48.6504 188.974 48.0809 189.151 47.2025Z" fill="#8A9BEA"/>
<path d="M200.292 42.0747L191.835 56.2252C190.906 57.7797 188.879 58.29 187.325 57.361L160.389 41.2644C158.835 40.3354 158.324 38.3083 159.253 36.7538L167.709 22.6033C168.647 21.0333 170.665 20.5385 172.22 21.4675L199.155 37.5641C200.71 38.4931 201.23 40.5047 200.292 42.0747Z" fill="#AEC46E"/>
<path d="M196.552 43.0487L190.922 52.4701C189.571 51.6628 187.817 52.1052 187.01 53.4557L163.978 39.6918C164.785 38.3413 164.344 36.5873 162.993 35.78L168.623 26.3586C169.974 27.166 171.727 26.7244 172.535 25.373L195.567 39.1369C194.759 40.4882 195.201 42.2414 196.552 43.0487Z" fill="#617F4D"/>
<path d="M190.017 46.7925C190.91 46.7925 191.634 46.0686 191.634 45.1756C191.634 44.2825 190.91 43.5586 190.017 43.5586C189.124 43.5586 188.4 44.2825 188.4 45.1756C188.4 46.0686 189.124 46.7925 190.017 46.7925Z" fill="#255299"/>
<path d="M184.567 42.3087C186.319 39.3782 185.59 35.7172 182.938 34.1316C180.286 32.546 176.716 33.6363 174.964 36.5668C173.211 39.4974 173.941 43.1584 176.593 44.744C179.245 46.3296 182.815 45.2393 184.567 42.3087Z" fill="white"/>
<path d="M180.912 41.1374C181.052 40.3492 180.646 39.5091 179.959 39.1035C179.506 38.847 179.239 38.3088 179.312 37.7915C179.364 37.2696 179.764 36.8004 180.288 36.6434C180.809 36.4808 181.441 36.648 181.823 37.1008C182.219 37.5404 182.332 38.2435 182.059 38.8481C182.476 38.3277 182.513 37.5 182.109 36.8889C182.011 36.7395 181.889 36.6053 181.751 36.4895C181.804 36.4673 181.852 36.4425 181.896 36.4153C181.999 36.3473 182.077 36.2646 182.134 36.1694C182.192 36.0743 182.228 35.9662 182.239 35.8435C182.247 35.7188 182.239 35.5845 182.165 35.4111C181.978 35.4286 181.856 35.4852 181.75 35.551C181.647 35.6192 181.569 35.7019 181.512 35.7975C181.456 35.8931 181.42 36.0013 181.408 36.1238C181.406 36.1694 181.407 36.2172 181.41 36.2667C181.363 36.242 181.317 36.2148 181.268 36.1938C180.921 36.0483 180.527 36.0179 180.151 36.0944C179.389 36.2385 178.758 36.9055 178.632 37.6914C178.494 38.4797 178.899 39.3204 179.587 39.7256C180.04 39.9813 180.306 40.5201 180.235 41.0377C180.182 41.5594 179.782 42.0298 179.258 42.1866C178.737 42.3491 178.104 42.182 177.722 41.7286C177.326 41.2887 177.213 40.5852 177.487 39.9809C177.07 40.5015 177.033 41.3289 177.437 41.9395C177.533 42.0903 177.654 42.2244 177.793 42.3397C177.74 42.3614 177.693 42.386 177.649 42.4131C177.546 42.4813 177.468 42.5638 177.411 42.6595C177.355 42.7552 177.319 42.8632 177.308 42.9859C177.3 43.111 177.308 43.2449 177.381 43.4177C177.567 43.3998 177.689 43.3431 177.795 43.2774C177.898 43.2092 177.976 43.1266 178.034 43.0314C178.091 42.9362 178.127 42.8282 178.138 42.7056C178.141 42.6595 178.14 42.6112 178.136 42.5611C178.515 42.7559 178.963 42.8321 179.394 42.7336C180.156 42.5894 180.787 41.9232 180.912 41.1374Z" fill="#617F4D"/>
<path d="M169.938 35.1539C170.831 35.1539 171.555 34.4299 171.555 33.5369C171.555 32.6439 170.831 31.9199 169.938 31.9199C169.045 31.9199 168.321 32.6439 168.321 33.5369C168.321 34.4299 169.045 35.1539 169.938 35.1539Z" fill="white"/>
<path d="M189.608 46.9058C190.501 46.9058 191.225 46.1819 191.225 45.2888C191.225 44.3958 190.501 43.6719 189.608 43.6719C188.715 43.6719 187.991 44.3958 187.991 45.2888C187.991 46.1819 188.715 46.9058 189.608 46.9058Z" fill="white"/>
<path d="M296.607 32.6446C296.663 33.1797 296.312 33.6787 295.795 33.8267C240 56 221.099 53.4039 221.099 53.4039V38.8603C226.218 38.8603 290.048 14.22 293.319 12.15C294.021 11.707 294.945 12.169 295 13L296.607 32.6446Z" fill="#4269C4"/>
<path d="M216.035 40.4482L215.277 49.965L205.113 51.111C201.879 51.4809 198.609 50.889 195.689 49.448L191.198 47.2301C189.79 46.5345 188.293 46.0341 186.75 45.7427L182.494 44.939C181.012 44.6592 180.339 42.9032 181.264 41.7122C182.523 40.0935 184.698 39.2857 186.837 39.9492L187.946 40.2821C192.12 41.4597 194.846 41.5509 196.626 41.1775C198.798 40.7217 199.301 37.8476 197.419 36.6689L191.919 33.2223C193.785 31.6893 196.447 31.6153 198.387 33.0373L207.7 39.8012C208.791 40.5961 210.121 40.9652 211.452 40.8551L216.035 40.4482Z" fill="#FFCECF"/>
<path d="M223.994 55.2739C224.046 56.0438 223.398 56.6744 222.629 56.6043L217.029 56.0797C216.451 56.0267 215.979 55.5721 215.909 54.9945L213.914 39.1568C213.844 38.5621 214.211 37.9844 214.789 37.8093L221.176 35.8491C221.946 35.6047 222.733 36.1473 222.786 36.9522L223.994 55.2739Z" fill="#8A9BEA"/>
<path d="M218.564 53.6884C219.433 53.6884 220.138 52.9841 220.138 52.1152C220.138 51.2463 219.433 50.542 218.564 50.542C217.696 50.542 216.991 51.2463 216.991 52.1152C216.991 52.9841 217.696 53.6884 218.564 53.6884Z" fill="white"/>
<path d="M90.4832 78.8934C90.1937 84.1861 86.8909 83.8579 86.5434 83.8579H86.5236C86.4081 84.1276 86.2921 84.3794 86.1567 84.5916C85.0948 86.4646 83.8391 86.5617 83.5877 86.5617C83.5689 86.5617 83.5495 86.5617 83.5495 86.5617C83.4529 86.8126 83.2982 87.0446 83.1049 87.2568C81.8303 88.6667 78.9137 89.0921 78.9137 89.0921C78.9137 89.1109 78.8944 89.1109 78.8944 89.1307C78.7402 89.4014 78.5469 89.6325 78.3347 89.8447C78.3149 89.8447 78.3149 89.8447 78.3149 89.8447C77.6391 90.5595 76.6541 90.9651 75.669 90.9651C75.1088 90.9651 74.5486 90.8302 74.0275 90.5595L69.1602 88.0679C66.3979 86.6579 63.5394 85.48 60.5842 84.5143L55.9102 82.9695L59.2709 71.1487L62.4388 72.5388C64.1962 73.2923 66.1857 73.2735 67.9045 72.3841L74.9348 68.7919C76.4994 68.0006 78.2762 67.8846 79.9181 68.4448L88.8031 71.4957C89.4981 71.7475 89.9037 72.4237 89.9037 73.0801C89.9037 73.2923 89.8461 73.563 89.7495 73.7752C89.1119 75.1078 87.7793 75.9 86.3501 75.9C85.9445 75.9 85.5579 75.8415 85.1523 75.7067C82.97 74.9918 80.5943 75.436 78.7789 76.8271V76.8469L90.4832 78.8934Z" fill="#FFCECF"/>
<path d="M64.5535 71.245L58.8836 86.4871C58.5157 87.4151 57.5711 87.8876 56.626 87.6073L52.0935 86.3299C51.1134 86.0676 50.5537 85.1225 50.7985 84.1424L54.4736 68.3227C54.7535 67.3075 55.7861 66.6949 56.8008 66.9922L63.311 68.7952C64.3432 69.0925 64.9034 70.1948 64.5535 71.245Z" fill="#3A3A3A"/>
<path d="M55.9094 84.3539C56.6797 84.3539 57.3041 83.7295 57.3041 82.9592C57.3041 82.1889 56.6797 81.5645 55.9094 81.5645C55.1391 81.5645 54.5146 82.1889 54.5146 82.9592C54.5146 83.7295 55.1391 84.3539 55.9094 84.3539Z" fill="white"/>
<path d="M86.5233 83.859C86.4077 84.1288 86.2917 84.3806 86.1564 84.5928C85.6349 84.4381 85.1133 84.2259 84.6116 83.9939C83.3559 83.3564 82.1775 82.468 81.3857 81.29C82.0426 81.5796 82.6217 81.9276 83.2399 82.2171L85.036 83.1253L86.5233 83.859Z" fill="#FEA9AD"/>
<path d="M83.5871 86.5622C83.5683 86.5622 83.5489 86.5622 83.5489 86.5622C83.4523 86.813 83.2976 87.045 83.1043 87.2572C82.5832 87.1026 82.1003 86.9102 81.6175 86.6782C80.3617 86.0406 79.2031 85.1711 78.3916 83.9932C79.0485 84.2638 79.6473 84.6109 80.2457 84.9202L82.0423 85.8086L83.5871 86.5622Z" fill="#FEA9AD"/>
<path d="M78.8935 89.1318C78.7393 89.4025 78.546 89.6335 78.3338 89.8457C78.314 89.8457 78.314 89.8457 78.314 89.8457C77.9858 89.7307 77.6382 89.576 77.3294 89.4213C76.0736 88.8027 74.915 87.9143 74.1035 86.7363C74.7604 87.0259 75.3592 87.3739 75.9581 87.6634L77.7542 88.5716L78.8935 89.1318Z" fill="#FEA9AD"/>
<path d="M71.5545 34.4507L59.0387 37.3478L57.8994 28.8109L69.0247 26.6475L71.5545 34.4507Z" fill="#912010"/>
</g>
<defs>
<clipPath id="clip0_1677_8144">
<rect width="292" height="102.768" fill="white"/>
</clipPath>
</defs>
</svg>
