<svg width="263" height="154" viewBox="0 0 263 154" fill="none" xmlns="http://www.w3.org/2000/svg">
<rect width="253.001" height="149.162" transform="translate(10)" fill="#1D1D26"/>
<path d="M209.715 135.157C210.427 137.358 211.201 137.79 211.412 137.684L196.376 84.4048L195.528 83.1415L209.715 135.157Z" fill="url(#paint0_linear_1679_8939)" fill-opacity="0.7"/>
<path d="M241.35 62.8622C240.998 54.4423 236.603 46.4171 234.449 43.457L196.119 68.537L197 71.4971L241.35 62.8622Z" fill="url(#paint1_linear_1679_8939)" fill-opacity="0.2"/>
<path d="M255.677 41.672C257.779 40.4094 256.566 39.5782 255.838 39.4148L199.339 67.9735L199.258 69.1019L255.677 41.672Z" fill="url(#paint2_linear_1679_8939)" fill-opacity="0.2"/>
<path d="M257.559 97.2165C260.139 98.0253 261.479 97.9199 261.675 97.7789L202.092 77.2864L200.034 77.0052L257.559 97.2165Z" fill="url(#paint3_linear_1679_8939)" fill-opacity="0.4"/>
<path d="M213.904 45.0825C214.424 44.1957 214.337 43.6581 214.239 43.5611L200.982 63.7795L200.814 64.54L213.904 45.0825Z" fill="url(#paint4_linear_1679_8939)" fill-opacity="0.7"/>
<path d="M203.925 16.3817C204.267 14.1822 204.098 13.0786 203.99 12.9264L194.89 63.8655L194.857 65.5929L203.925 16.3817Z" fill="url(#paint5_linear_1679_8939)" fill-opacity="0.2"/>
<path d="M224.466 120.364C231.531 115.693 236.196 106.86 237.646 103.028L196.5 73.9971L194.402 76.4563L224.466 120.364Z" fill="url(#paint6_linear_1679_8939)" fill-opacity="0.2"/>
<path d="M214.219 9.17581C207.375 5.6524 198.326 7.56704 194.657 8.96479L192.122 68.2425L194.999 68.4977L214.219 9.17581Z" fill="url(#paint7_linear_1679_8939)" fill-opacity="0.2"/>
<path d="M178.285 134.353C177.573 136.554 176.799 136.987 176.588 136.88L191.624 83.6011L192.472 82.3378L178.285 134.353Z" fill="url(#paint8_linear_1679_8939)" fill-opacity="0.7"/>
<path d="M146.65 62.2743C147.002 53.8544 151.397 45.8293 153.551 42.8691L191.5 67.999L190.619 70.9591L146.65 62.2743Z" fill="url(#paint9_linear_1679_8939)" fill-opacity="0.2"/>
<path d="M132.323 41.0841C130.221 39.8215 131.434 38.9903 132.162 38.8269L188.661 67.3856L188.742 68.514L132.323 41.0841Z" fill="url(#paint10_linear_1679_8939)" fill-opacity="0.2"/>
<path d="M130.442 96.6286C127.862 97.4374 126.522 97.332 126.326 97.191L185.909 76.6985L187.967 76.4173L130.442 96.6286Z" fill="url(#paint11_linear_1679_8939)" fill-opacity="0.4"/>
<path d="M174.096 44.4946C173.576 43.6078 173.663 43.0702 173.761 42.9732L187.018 63.1916L187.186 63.9521L174.096 44.4946Z" fill="url(#paint12_linear_1679_8939)" fill-opacity="0.7"/>
<path d="M163.534 119.777C156.469 115.106 151.803 106.273 150.354 102.44L190.5 73.4971L192.598 75.9563L163.534 119.777Z" fill="url(#paint13_linear_1679_8939)" fill-opacity="0.2"/>
<g filter="url(#filter0_f_1679_8939)">
<circle cx="193.938" cy="75.1699" r="25" fill="url(#paint14_radial_1679_8939)" fill-opacity="0.1"/>
</g>
<g filter="url(#filter1_f_1679_8939)">
<path d="M168.879 123.898C151.754 117.499 148.768 102.707 155.991 92.9397C165.122 80.5923 164.841 69.3239 162.609 62.5426C159.822 54.0755 152.507 42.7785 130.214 44.0336C107.866 45.2919 100.367 56.0871 96.5998 62.5426C83.7847 66.1634 74.2908 75.2572 72.6598 84.2669C71.0288 93.2766 66.0193 95.8026 62.1747 96.3921C58.3302 96.9815 36.0141 95.9484 28.6746 107.737C22.8029 117.167 11.2579 115.341 13.5221 131.9C6.38123 138.49 11.6062 143.04 15.9603 143.04L251.434 143.04C249.337 133.189 231.405 129.703 223.568 123.898C217.136 119.134 220.322 115.675 218.691 107.423C217.06 99.1711 210.814 95.7358 205.106 94.5569C199.397 93.3781 199.995 99.2641 199.995 102.034C199.995 108.919 186.005 130.297 168.879 123.898Z" fill="url(#paint15_linear_1679_8939)" fill-opacity="0.15"/>
</g>
<path d="M162.918 127.584C148.46 121.587 145.94 107.726 152.038 98.5729C159.746 87.002 159.509 76.4422 157.625 70.0874C155.272 62.1528 149.097 51.5662 130.276 52.7424C111.409 53.9216 105.078 64.0379 101.898 70.0874C91.0792 73.4804 83.0642 82.0024 81.6872 90.4455C80.3103 98.8885 76.0811 101.256 72.8354 101.808C69.5898 102.36 50.7499 101.392 44.5537 112.439C39.5967 121.277 29.8501 119.565 31.7615 135.083C25.733 141.259 30.144 145.523 33.82 145.523L232.614 145.523C230.843 136.291 215.704 133.024 209.088 127.584C203.658 123.12 206.348 119.878 204.971 112.145C203.594 104.412 198.321 101.193 193.502 100.088C188.683 98.9837 189.187 104.499 189.187 107.095C189.187 113.547 177.376 133.581 162.918 127.584Z" fill="url(#paint16_linear_1679_8939)" fill-opacity="0.6"/>
<path d="M17.9404 143.758C21.1752 138.906 25.8804 134.348 31.9089 134.054C31.3208 132.093 30.7326 127.319 33.0852 123.908C36.026 119.644 40.5841 118.762 44.4071 116.556C48.23 114.351 45.2893 105.087 54.4056 99.794C61.6986 95.5594 70.6776 99.1079 74.2555 101.411C74.6476 91.707 79.7841 71.8276 97.1933 69.9455C104.006 58.3786 123.336 39.2148 146.157 55.0948C174.682 74.9447 143.804 109.204 142.628 110.822C141.451 112.439 137.334 122.732 148.362 123.908C150.323 122.83 155.655 120.997 161.301 122.291C168.359 123.908 174.976 126.26 177.328 125.084C179.681 123.908 187.474 125.379 188.209 116.556C188.944 107.734 184.533 104.646 188.209 99.794C191.885 94.9417 197.178 97.0004 201.589 101.411C206.001 105.822 209.382 121.556 209.823 123.908C216.979 124.055 232.055 128.437 235.114 144.787" stroke="#5EE1EA" stroke-width="0.294074"/>
<path d="M162.937 121.413C148.479 115.416 142.999 108.315 149.097 99.1616C156.806 87.5907 156.569 77.0309 154.685 70.6762C152.332 62.7415 149.097 53.0371 127.825 50.9494C107.896 48.9935 96.4832 64.6266 93.3031 70.6762C82.4843 74.0692 80.1238 82.5911 78.7468 91.0342C77.3699 99.4772 73.1407 101.844 69.8951 102.397C66.6494 102.949 56.7157 101.608 50.5195 112.655C45.5625 121.492 50.3555 130.435 53.3717 133.802C47.7853 136.895 48.0934 143.297 48.9458 146.111H251.435C249.664 136.879 236.878 125.998 224.527 121.413C217.937 118.967 209.163 121.413 207.786 113.681C206.409 105.948 197.656 100.266 192.837 99.1616C188.017 98.0569 185.362 101.292 186.247 107.684C187.132 114.075 177.395 127.41 162.937 121.413Z" fill="url(#paint17_linear_1679_8939)" fill-opacity="0.73"/>
<path d="M118.866 72.001C126.903 72.001 130.827 78.3213 130.827 84.943C123.773 87.046 118.866 83.0017 118.099 80.4133C117.486 78.3425 116.859 73.9125 118.866 72.001Z" fill="#D9D9D9"/>
<path d="M129.843 79.6735C129.843 82.3533 128.228 84.5257 125.873 84.5257C123.518 84.5257 121.903 82.3533 121.903 79.6735C121.903 76.9937 123.668 74.8213 125.873 74.8213C128.079 74.8213 129.843 76.9937 129.843 79.6735Z" fill="#4A36C3"/>
<path d="M126.538 77.4243C126.573 77.3897 126.632 77.4061 126.644 77.4538L127.028 78.9656C127.033 78.9838 127.045 78.999 127.062 79.0072L128.507 79.7056C128.553 79.7278 128.556 79.7924 128.511 79.818L127.153 80.6038C127.136 80.6136 127.124 80.6307 127.121 80.6501L126.906 82.175C126.899 82.2245 126.841 82.2472 126.802 82.2152L125.573 81.1911C125.559 81.1794 125.54 81.1743 125.522 81.1771L123.939 81.4232C123.89 81.4309 123.851 81.3813 123.871 81.3354L124.475 79.9183C124.483 79.9002 124.482 79.8797 124.472 79.8625L123.715 78.4913C123.69 78.4466 123.725 78.3924 123.776 78.397L125.376 78.5407C125.394 78.5424 125.413 78.5357 125.426 78.5225L126.538 77.4243Z" fill="#2D1D8E"/>
<path d="M140.129 87.0028C142.5 75.5015 149.245 76.3671 151.598 76.1221C151.598 84.5032 147.922 87.2969 145.716 87.738C143.952 88.0909 141.452 87.836 140.129 87.0028Z" fill="#D9D9D9"/>
<mask id="mask0_1679_8939" style="mask-type:alpha" maskUnits="userSpaceOnUse" x="140" y="75" width="13" height="13">
<path d="M140.13 87.0025C141.001 75.001 149.687 75.9257 152.04 75.6807C152.04 84.0618 147.923 87.2966 145.717 87.7377C143.953 88.0906 141.453 87.8357 140.13 87.0025Z" fill="#D9D9D9"/>
</mask>
<g mask="url(#mask0_1679_8939)">
<ellipse cx="146.503" cy="82.0198" rx="3.59506" ry="4.61266" transform="rotate(7.04524 146.503 82.0198)" fill="black"/>
</g>
<path d="M113.325 58.7553C113.283 58.6331 113.34 58.5234 113.452 58.5105C113.564 58.4975 113.689 58.5861 113.731 58.7083C113.773 58.8306 113.717 58.9402 113.605 58.9532C113.493 58.9662 113.368 58.8776 113.325 58.7553Z" fill="#FDFFFF"/>
<path d="M118.486 55.605C118.439 55.471 118.501 55.351 118.624 55.3367C118.747 55.3225 118.884 55.4195 118.93 55.5534C118.976 55.6873 118.914 55.8074 118.791 55.8217C118.669 55.8359 118.532 55.7389 118.486 55.605Z" fill="#FDFFFF"/>
<path d="M120.121 56.1323C120.059 55.9518 120.142 55.79 120.308 55.7708C120.473 55.7516 120.658 55.8824 120.72 56.0629C120.782 56.2434 120.699 56.4052 120.534 56.4244C120.368 56.4435 120.183 56.3128 120.121 56.1323Z" fill="#FDFFFF"/>
<path d="M122.748 54.0537C122.72 53.9722 122.757 53.8991 122.832 53.8905C122.907 53.8818 122.99 53.9409 123.018 54.0224C123.047 54.1039 123.009 54.1769 122.934 54.1856C122.859 54.1943 122.776 54.1352 122.748 54.0537Z" fill="#FDFFFF"/>
<path d="M124.984 51.0258C124.894 50.7651 125.014 50.5314 125.253 50.5037C125.492 50.476 125.759 50.6649 125.849 50.9255C125.939 51.1862 125.818 51.4199 125.579 51.4476C125.34 51.4753 125.074 51.2864 124.984 51.0258Z" fill="#FDFFFF"/>
<path d="M126.525 51.52C126.495 51.4327 126.535 51.3544 126.615 51.3451C126.695 51.3358 126.784 51.3991 126.815 51.4864C126.845 51.5737 126.804 51.6521 126.724 51.6613C126.644 51.6706 126.555 51.6073 126.525 51.52Z" fill="#FDFFFF"/>
<path d="M123.78 57.5162C123.732 57.3796 123.796 57.2571 123.921 57.2426C124.046 57.2281 124.186 57.327 124.233 57.4636C124.28 57.6002 124.217 57.7227 124.092 57.7372C123.967 57.7517 123.827 57.6528 123.78 57.5162Z" fill="#FDFFFF"/>
<path d="M116.459 59.645C116.446 59.609 116.463 59.5767 116.496 59.5729C116.529 59.5691 116.566 59.5951 116.578 59.6311C116.591 59.6671 116.574 59.6994 116.541 59.7032C116.508 59.707 116.471 59.681 116.459 59.645Z" fill="#FDFFFF"/>
<path d="M113.552 60.2567C113.502 60.1107 113.569 59.9798 113.703 59.9643C113.837 59.9487 113.986 60.0545 114.037 60.2005C114.087 60.3465 114.019 60.4774 113.886 60.4929C113.752 60.5084 113.603 60.4027 113.552 60.2567Z" fill="#FDFFFF"/>
<path d="M115.958 57.8393C115.889 57.6369 115.982 57.4553 116.168 57.4338C116.353 57.4123 116.56 57.559 116.63 57.7614C116.7 57.9638 116.606 58.1454 116.421 58.1669C116.235 58.1884 116.028 58.0417 115.958 57.8393Z" fill="#FDFFFF"/>
<path d="M118.467 58.044C118.446 57.9831 118.474 57.9285 118.53 57.922C118.586 57.9155 118.648 57.9597 118.669 58.0206C118.69 58.0815 118.662 58.1361 118.606 58.1426C118.55 58.149 118.488 58.1049 118.467 58.044Z" fill="#FDFFFF"/>
<path d="M115.914 51.3044C115.841 51.0939 115.939 50.9051 116.132 50.8827C116.324 50.8604 116.54 51.0129 116.613 51.2234C116.685 51.4339 116.588 51.6226 116.395 51.645C116.202 51.6673 115.987 51.5148 115.914 51.3044Z" fill="#FDFFFF"/>
<path d="M145.673 56.81C145.57 56.5131 145.708 56.2468 145.98 56.2153C146.252 56.1838 146.556 56.3989 146.658 56.6958C146.761 56.9927 146.623 57.259 146.351 57.2905C146.079 57.3221 145.775 57.1069 145.673 56.81Z" fill="#FDFFFF"/>
<path d="M120.112 51.0031C120.078 50.9046 120.124 50.8162 120.214 50.8057C120.305 50.7953 120.405 50.8666 120.439 50.9652C120.473 51.0637 120.428 51.152 120.337 51.1625C120.247 51.173 120.146 51.1016 120.112 51.0031Z" fill="#FDFFFF"/>
<path d="M115.893 52.1696C115.861 52.0769 115.904 51.9937 115.989 51.9839C116.074 51.974 116.169 52.0412 116.201 52.1339C116.233 52.2266 116.19 52.3097 116.105 52.3196C116.02 52.3294 115.925 52.2623 115.893 52.1696Z" fill="#FDFFFF"/>
<path d="M119.017 51.9751C118.987 51.8865 119.028 51.8069 119.109 51.7975C119.19 51.7881 119.281 51.8524 119.312 51.941C119.342 52.0297 119.301 52.1092 119.22 52.1186C119.139 52.128 119.048 52.0638 119.017 51.9751Z" fill="#FDFFFF"/>
<path d="M114.44 53.7997C114.393 53.6627 114.456 53.5398 114.582 53.5252C114.707 53.5107 114.847 53.6099 114.895 53.747C114.942 53.884 114.879 54.0069 114.753 54.0215C114.627 54.036 114.487 53.9367 114.44 53.7997Z" fill="#FDFFFF"/>
<path d="M133.878 49.933C133.821 49.7655 133.898 49.6153 134.052 49.5975C134.205 49.5797 134.376 49.7011 134.434 49.8686C134.492 50.0361 134.415 50.1863 134.261 50.2041C134.108 50.2219 133.936 50.1005 133.878 49.933Z" fill="#FDFFFF"/>
<path d="M136.609 49.7801C136.579 49.6936 136.619 49.6161 136.699 49.607C136.778 49.5978 136.866 49.6604 136.896 49.7468C136.926 49.8333 136.886 49.9108 136.807 49.9199C136.728 49.9291 136.639 49.8665 136.609 49.7801Z" fill="#FDFFFF"/>
<path d="M140.373 51.6662C140.338 51.565 140.385 51.4743 140.478 51.4635C140.571 51.4528 140.674 51.5261 140.709 51.6273C140.744 51.7285 140.697 51.8193 140.605 51.83C140.512 51.8408 140.408 51.7674 140.373 51.6662Z" fill="#FDFFFF"/>
<path d="M135.925 52.1472C135.884 52.0272 135.939 51.9196 136.049 51.9068C136.159 51.8941 136.282 51.9811 136.323 52.1011C136.365 52.2211 136.309 52.3287 136.199 52.3414C136.089 52.3542 135.967 52.2672 135.925 52.1472Z" fill="#FDFFFF"/>
<path d="M132.627 53.5041C132.588 53.3926 132.64 53.2926 132.742 53.2808C132.844 53.2689 132.958 53.3497 132.997 53.4612C133.035 53.5727 132.984 53.6727 132.881 53.6845C132.779 53.6964 132.665 53.6156 132.627 53.5041Z" fill="#FDFFFF"/>
<path d="M144.332 58.4331C144.293 58.3211 144.345 58.2207 144.448 58.2088C144.55 58.1969 144.665 58.2781 144.703 58.39C144.742 58.502 144.69 58.6024 144.588 58.6143C144.485 58.6262 144.371 58.5451 144.332 58.4331Z" fill="#FDFFFF"/>
<path d="M148.733 56.7108C148.686 56.5751 148.749 56.4534 148.874 56.439C148.998 56.4246 149.137 56.5229 149.184 56.6586C149.231 56.7943 149.168 56.916 149.043 56.9304C148.919 56.9448 148.78 56.8465 148.733 56.7108Z" fill="#FDFFFF"/>
<path d="M138.028 59.5414C137.962 59.3507 138.05 59.1796 138.225 59.1593C138.4 59.139 138.595 59.2773 138.661 59.468C138.727 59.6588 138.639 59.8299 138.464 59.8502C138.289 59.8704 138.094 59.7322 138.028 59.5414Z" fill="#FDFFFF"/>
<path d="M136.897 57.6953C136.873 57.6254 136.906 57.5628 136.97 57.5554C137.034 57.548 137.105 57.5986 137.129 57.6684C137.153 57.7383 137.121 57.8009 137.057 57.8084C136.993 57.8158 136.921 57.7652 136.897 57.6953Z" fill="#FDFFFF"/>
<path d="M142.82 58.2444C142.792 58.1638 142.829 58.0915 142.903 58.083C142.977 58.0744 143.059 58.1328 143.087 58.2134C143.115 58.294 143.078 58.3663 143.004 58.3749C142.93 58.3834 142.848 58.325 142.82 58.2444Z" fill="#FDFFFF"/>
<path d="M145.661 59.0516C145.627 58.9535 145.673 58.8655 145.762 58.8551C145.852 58.8447 145.953 58.9158 145.987 59.0138C146.02 59.1119 145.975 59.1999 145.885 59.2103C145.795 59.2207 145.695 59.1496 145.661 59.0516Z" fill="#FDFFFF"/>
<path d="M118.248 60.3957C118.201 60.2754 118.086 60.2289 117.993 60.2919C117.899 60.355 117.862 60.5036 117.909 60.6239C117.957 60.7442 118.071 60.7907 118.165 60.7277C118.258 60.6647 118.295 60.5161 118.248 60.3957Z" fill="#FDFFFF"/>
<path d="M112.28 61.3591C112.228 61.2273 112.103 61.1764 112 61.2454C111.898 61.3144 111.857 61.4772 111.909 61.609C111.961 61.7408 112.086 61.7917 112.188 61.7227C112.291 61.6537 112.332 61.4909 112.28 61.3591Z" fill="#FDFFFF"/>
<path d="M111.38 62.823C111.31 62.6454 111.141 62.5768 111.003 62.6698C110.865 62.7628 110.81 62.9822 110.88 63.1598C110.95 63.3375 111.119 63.406 111.257 63.313C111.395 63.22 111.45 63.0006 111.38 62.823Z" fill="#FDFFFF"/>
<path d="M108.034 62.9517C108.002 62.8714 107.926 62.8405 107.864 62.8825C107.801 62.9245 107.776 63.0236 107.808 63.1038C107.84 63.184 107.916 63.215 107.978 63.173C108.041 63.131 108.065 63.0319 108.034 62.9517Z" fill="#FDFFFF"/>
<path d="M104.365 62.1057C104.264 61.8491 104.021 61.7501 103.821 61.8844C103.622 62.0187 103.542 62.3356 103.643 62.5921C103.744 62.8487 103.988 62.9477 104.187 62.8134C104.387 62.6791 104.466 62.3622 104.365 62.1057Z" fill="#FDFFFF"/>
<path d="M103.518 63.4841C103.484 63.3982 103.402 63.365 103.335 63.41C103.268 63.455 103.242 63.5612 103.276 63.6471C103.309 63.7331 103.391 63.7662 103.458 63.7212C103.525 63.6762 103.551 63.5701 103.518 63.4841Z" fill="#FDFFFF"/>
<path d="M109.501 66.2536C109.448 66.1192 109.321 66.0672 109.216 66.1376C109.112 66.208 109.07 66.3741 109.123 66.5085C109.176 66.643 109.303 66.6949 109.408 66.6245C109.513 66.5541 109.554 66.388 109.501 66.2536Z" fill="#FDFFFF"/>
<path d="M116.447 63.1089C116.433 63.0735 116.399 63.0598 116.371 63.0784C116.344 63.0969 116.333 63.1407 116.347 63.1761C116.361 63.2115 116.394 63.2252 116.422 63.2067C116.449 63.1881 116.46 63.1444 116.447 63.1089Z" fill="#FDFFFF"/>
<path d="M119.053 61.6832C118.996 61.5395 118.86 61.484 118.748 61.5592C118.636 61.6345 118.592 61.812 118.648 61.9556C118.705 62.0993 118.842 62.1548 118.953 62.0796C119.065 62.0043 119.11 61.8269 119.053 61.6832Z" fill="#FDFFFF"/>
<path d="M115.652 61.4119C115.574 61.2126 115.384 61.1357 115.229 61.24C115.075 61.3443 115.013 61.5904 115.091 61.7896C115.17 61.9889 115.359 62.0658 115.514 61.9615C115.669 61.8572 115.731 61.6111 115.652 61.4119Z" fill="#FDFFFF"/>
<path d="M113.88 63.1987C113.856 63.1387 113.799 63.1156 113.753 63.147C113.706 63.1784 113.687 63.2524 113.711 63.3124C113.735 63.3723 113.792 63.3955 113.838 63.3641C113.885 63.3327 113.904 63.2586 113.88 63.1987Z" fill="#FDFFFF"/>
<path d="M111.435 56.4196C111.354 56.2124 111.157 56.1324 110.996 56.2409C110.835 56.3493 110.77 56.6052 110.852 56.8124C110.934 57.0196 111.131 57.0996 111.292 56.9911C111.453 56.8826 111.517 56.6267 111.435 56.4196Z" fill="#FDFFFF"/>
<path d="M92.4121 79.9558C92.2968 79.6635 92.0193 79.5507 91.792 79.7037C91.5648 79.8567 91.474 80.2177 91.5892 80.5099C91.7045 80.8022 91.982 80.915 92.2093 80.762C92.4365 80.609 92.5273 80.248 92.4121 79.9558Z" fill="#FDFFFF"/>
<path d="M108.051 58.9208C108.013 58.8238 107.921 58.7864 107.846 58.8372C107.77 58.888 107.74 59.0077 107.778 59.1047C107.817 59.2017 107.909 59.2391 107.984 59.1883C108.06 59.1376 108.09 59.0178 108.051 58.9208Z" fill="#FDFFFF"/>
<path d="M112.015 57.0632C111.979 56.9719 111.892 56.9367 111.821 56.9845C111.75 57.0322 111.722 57.1449 111.758 57.2362C111.794 57.3274 111.881 57.3626 111.952 57.3149C112.023 57.2671 112.051 57.1544 112.015 57.0632Z" fill="#FDFFFF"/>
<path d="M109.515 58.947C109.481 58.8597 109.398 58.826 109.33 58.8717C109.262 58.9174 109.235 59.0252 109.27 59.1125C109.304 59.1998 109.387 59.2335 109.455 59.1878C109.523 59.1421 109.55 59.0343 109.515 58.947Z" fill="#FDFFFF"/>
<path d="M114.178 57.3555C114.125 57.2206 113.997 57.1685 113.892 57.2392C113.787 57.3098 113.745 57.4764 113.798 57.6112C113.851 57.7461 113.98 57.7982 114.084 57.7276C114.189 57.657 114.231 57.4904 114.178 57.3555Z" fill="#FDFFFF"/>
<path d="M96.8982 67.0618C96.8332 66.8969 96.6766 66.8332 96.5485 66.9196C96.4203 67.0059 96.3691 67.2095 96.4341 67.3744C96.4991 67.5392 96.6557 67.6029 96.7838 67.5166C96.912 67.4302 96.9632 67.2266 96.8982 67.0618Z" fill="#FDFFFF"/>
<path d="M94.7257 68.7208C94.6921 68.6357 94.6113 68.6029 94.5452 68.6474C94.479 68.692 94.4526 68.797 94.4862 68.8821C94.5197 68.9672 94.6005 69 94.6666 68.9555C94.7328 68.9109 94.7592 68.8059 94.7257 68.7208Z" fill="#FDFFFF"/>
<path d="M93.0922 72.6024C93.0529 72.5028 92.9583 72.4643 92.8808 72.5165C92.8034 72.5687 92.7724 72.6917 92.8117 72.7913C92.851 72.8909 92.9456 72.9294 93.023 72.8772C93.1005 72.8251 93.1315 72.702 93.0922 72.6024Z" fill="#FDFFFF"/>
<path d="M96.7834 70.0748C96.7369 69.9567 96.6247 69.9111 96.5328 69.9729C96.441 70.0348 96.4043 70.1807 96.4508 70.2988C96.4974 70.4169 96.6096 70.4626 96.7015 70.4007C96.7933 70.3388 96.83 70.1929 96.7834 70.0748Z" fill="#FDFFFF"/>
<path d="M100.172 68.9604C100.129 68.8506 100.025 68.8082 99.9392 68.8657C99.8539 68.9232 99.8198 69.0587 99.8631 69.1685C99.9063 69.2782 100.011 69.3206 100.096 69.2631C100.181 69.2057 100.215 69.0701 100.172 68.9604Z" fill="#FDFFFF"/>
<path d="M94.4865 80.3161C94.443 80.2059 94.3384 80.1634 94.2527 80.2211C94.167 80.2788 94.1328 80.4149 94.1762 80.5251C94.2197 80.6353 94.3243 80.6778 94.41 80.6201C94.4957 80.5624 94.5299 80.4263 94.4865 80.3161Z" fill="#FDFFFF"/>
<path d="M90.0229 81.8711C89.9702 81.7376 89.8434 81.686 89.7395 81.7559C89.6357 81.8259 89.5942 81.9908 89.6468 82.1244C89.6995 82.2579 89.8264 82.3095 89.9302 82.2396C90.034 82.1697 90.0755 82.0047 90.0229 81.8711Z" fill="#FDFFFF"/>
<path d="M99.9952 77.0588C99.9212 76.8711 99.7428 76.7986 99.5969 76.8969C99.4509 76.9952 99.3925 77.2271 99.4666 77.4149C99.5406 77.6027 99.7189 77.6752 99.8649 77.5769C100.011 77.4785 100.069 77.2466 99.9952 77.0588Z" fill="#FDFFFF"/>
<path d="M99.6543 74.9209C99.6272 74.8521 99.5619 74.8256 99.5084 74.8616C99.4549 74.8976 99.4336 74.9825 99.4607 75.0513C99.4878 75.12 99.5531 75.1466 99.6066 75.1106C99.66 75.0746 99.6814 74.9897 99.6543 74.9209Z" fill="#FDFFFF"/>
<path d="M95.5125 79.1903C95.4812 79.1109 95.4058 79.0803 95.3441 79.1219C95.2824 79.1634 95.2578 79.2614 95.2891 79.3407C95.3204 79.4201 95.3957 79.4507 95.4574 79.4092C95.5191 79.3676 95.5437 79.2696 95.5125 79.1903Z" fill="#FDFFFF"/>
<path d="M93.8787 81.6519C93.8406 81.5554 93.7489 81.5181 93.6739 81.5687C93.5988 81.6192 93.5688 81.7385 93.6069 81.835C93.6449 81.9315 93.7366 81.9688 93.8117 81.9182C93.8867 81.8677 93.9167 81.7485 93.8787 81.6519Z" fill="#FDFFFF"/>
<path d="M53.6435 121.129C53.5961 121.009 53.4818 120.962 53.3882 121.025C53.2947 121.088 53.2573 121.237 53.3047 121.357C53.3522 121.478 53.4665 121.524 53.56 121.461C53.6536 121.398 53.691 121.249 53.6435 121.129Z" fill="#FDFFFF"/>
<path d="M47.6744 122.093C47.6225 121.961 47.4973 121.91 47.3948 121.979C47.2924 122.048 47.2514 122.211 47.3034 122.342C47.3553 122.474 47.4805 122.525 47.583 122.456C47.6855 122.387 47.7264 122.224 47.6744 122.093Z" fill="#FDFFFF"/>
<path d="M46.7757 123.556C46.7057 123.379 46.5369 123.31 46.3988 123.403C46.2607 123.496 46.2055 123.716 46.2755 123.893C46.3456 124.071 46.5143 124.139 46.6524 124.046C46.7905 123.953 46.8457 123.734 46.7757 123.556Z" fill="#FDFFFF"/>
<path d="M43.4284 123.685C43.3967 123.605 43.3205 123.574 43.2582 123.616C43.1958 123.658 43.1709 123.757 43.2025 123.837C43.2341 123.917 43.3103 123.948 43.3727 123.906C43.4351 123.864 43.46 123.765 43.4284 123.685Z" fill="#FDFFFF"/>
<path d="M39.7608 122.839C39.6597 122.583 39.416 122.483 39.2166 122.618C39.0171 122.752 38.9374 123.069 39.0386 123.326C39.1397 123.582 39.3834 123.681 39.5828 123.547C39.7823 123.412 39.862 123.096 39.7608 122.839Z" fill="#FDFFFF"/>
<path d="M38.9121 124.218C38.8782 124.132 38.7966 124.098 38.7297 124.143C38.6629 124.188 38.6362 124.295 38.6701 124.381C38.704 124.466 38.7856 124.5 38.8524 124.455C38.9193 124.41 38.946 124.303 38.9121 124.218Z" fill="#FDFFFF"/>
<path d="M44.8968 126.987C44.8438 126.853 44.7161 126.801 44.6116 126.871C44.5071 126.941 44.4653 127.107 44.5183 127.242C44.5713 127.376 44.699 127.428 44.8035 127.358C44.908 127.287 44.9498 127.121 44.8968 126.987Z" fill="#FDFFFF"/>
<path d="M51.842 123.842C51.8281 123.807 51.7944 123.793 51.7669 123.812C51.7393 123.83 51.7283 123.874 51.7423 123.91C51.7563 123.945 51.7899 123.959 51.8174 123.94C51.845 123.922 51.856 123.878 51.842 123.842Z" fill="#FDFFFF"/>
<path d="M54.4485 122.417C54.3919 122.273 54.2554 122.217 54.1436 122.293C54.0319 122.368 53.9873 122.545 54.0439 122.689C54.1006 122.833 54.2371 122.888 54.3488 122.813C54.4605 122.738 54.5051 122.56 54.4485 122.417Z" fill="#FDFFFF"/>
<path d="M51.0476 122.145C50.9691 121.946 50.7798 121.869 50.6249 121.973C50.47 122.078 50.4081 122.324 50.4867 122.523C50.5652 122.722 50.7545 122.799 50.9094 122.695C51.0643 122.591 51.1262 122.344 51.0476 122.145Z" fill="#FDFFFF"/>
<path d="M49.2754 123.932C49.2518 123.872 49.1948 123.849 49.1482 123.88C49.1016 123.912 49.083 123.986 49.1066 124.046C49.1303 124.106 49.1872 124.129 49.2338 124.097C49.2804 124.066 49.299 123.992 49.2754 123.932Z" fill="#FDFFFF"/>
<path d="M46.8309 117.153C46.7492 116.946 46.5525 116.866 46.3914 116.974C46.2303 117.083 46.166 117.339 46.2476 117.546C46.3293 117.753 46.5261 117.833 46.6871 117.724C46.8482 117.616 46.9126 117.36 46.8309 117.153Z" fill="#FDFFFF"/>
<path d="M27.8076 140.689C27.6924 140.397 27.4148 140.284 27.1876 140.437C26.9603 140.59 26.8695 140.951 26.9848 141.243C27.1 141.536 27.3776 141.648 27.6048 141.495C27.832 141.342 27.9228 140.981 27.8076 140.689Z" fill="#FDFFFF"/>
<path d="M43.447 119.654C43.4088 119.557 43.3166 119.52 43.2412 119.571C43.1659 119.621 43.1357 119.741 43.1739 119.838C43.2122 119.935 43.3043 119.973 43.3797 119.922C43.4551 119.871 43.4852 119.751 43.447 119.654Z" fill="#FDFFFF"/>
<path d="M47.4095 117.797C47.3736 117.705 47.2869 117.67 47.216 117.718C47.145 117.766 47.1167 117.878 47.1526 117.97C47.1886 118.061 47.2753 118.096 47.3462 118.048C47.4172 118 47.4455 117.888 47.4095 117.797Z" fill="#FDFFFF"/>
<path d="M44.911 119.68C44.8766 119.593 44.7937 119.559 44.7258 119.605C44.658 119.651 44.6308 119.759 44.6652 119.846C44.6996 119.933 44.7825 119.967 44.8504 119.921C44.9183 119.875 44.9454 119.768 44.911 119.68Z" fill="#FDFFFF"/>
<path d="M49.5735 118.089C49.5203 117.954 49.3922 117.902 49.2874 117.973C49.1825 118.043 49.1406 118.21 49.1938 118.345C49.2469 118.48 49.3751 118.532 49.4799 118.461C49.5848 118.39 49.6267 118.224 49.5735 118.089Z" fill="#FDFFFF"/>
<path d="M32.2937 127.795C32.2287 127.63 32.0722 127.567 31.944 127.653C31.8158 127.739 31.7646 127.943 31.8296 128.108C31.8946 128.273 32.0512 128.336 32.1793 128.25C32.3075 128.164 32.3587 127.96 32.2937 127.795Z" fill="#FDFFFF"/>
<path d="M30.1202 129.454C30.0867 129.369 30.0059 129.336 29.9397 129.381C29.8736 129.425 29.8471 129.53 29.8807 129.616C29.9142 129.701 29.995 129.733 30.0612 129.689C30.1273 129.644 30.1537 129.539 30.1202 129.454Z" fill="#FDFFFF"/>
<path d="M28.4877 133.336C28.4484 133.236 28.3538 133.198 28.2763 133.25C28.1989 133.302 28.1679 133.425 28.2072 133.525C28.2465 133.624 28.3411 133.663 28.4186 133.611C28.496 133.558 28.527 133.435 28.4877 133.336Z" fill="#FDFFFF"/>
<path d="M32.1789 130.808C32.1324 130.69 32.0202 130.644 31.9283 130.706C31.8365 130.768 31.7998 130.914 31.8463 131.032C31.8929 131.15 32.0051 131.196 32.097 131.134C32.1888 131.072 32.2255 130.926 32.1789 130.808Z" fill="#FDFFFF"/>
<path d="M35.5666 129.694C35.5234 129.584 35.4191 129.542 35.3338 129.599C35.2484 129.657 35.2143 129.792 35.2576 129.902C35.3009 130.012 35.4051 130.054 35.4904 129.997C35.5758 129.939 35.6099 129.804 35.5666 129.694Z" fill="#FDFFFF"/>
<path d="M29.882 141.05C29.8385 140.939 29.7339 140.897 29.6482 140.954C29.5625 141.012 29.5283 141.148 29.5717 141.258C29.6152 141.369 29.7198 141.411 29.8055 141.354C29.8912 141.296 29.9254 141.16 29.882 141.05Z" fill="#FDFFFF"/>
<path d="M25.4184 142.605C25.3657 142.471 25.2389 142.419 25.135 142.489C25.0312 142.559 24.9897 142.724 25.0424 142.858C25.095 142.991 25.2219 143.043 25.3257 142.973C25.4296 142.903 25.471 142.738 25.4184 142.605Z" fill="#FDFFFF"/>
<path d="M35.3907 137.792C35.3167 137.604 35.1384 137.532 34.9924 137.63C34.8464 137.729 34.788 137.961 34.8621 138.148C34.9361 138.336 35.1144 138.409 35.2604 138.31C35.4064 138.212 35.4648 137.98 35.3907 137.792Z" fill="#FDFFFF"/>
<path d="M35.0498 135.654C35.0227 135.586 34.9574 135.559 34.9039 135.595C34.8504 135.631 34.8291 135.716 34.8562 135.785C34.8833 135.853 34.9486 135.88 35.0021 135.844C35.0555 135.808 35.0769 135.723 35.0498 135.654Z" fill="#FDFFFF"/>
<path d="M30.908 139.924C30.8767 139.844 30.8013 139.814 30.7396 139.855C30.678 139.897 30.6533 139.995 30.6846 140.074C30.7159 140.153 30.7912 140.184 30.8529 140.143C30.9146 140.101 30.9392 140.003 30.908 139.924Z" fill="#FDFFFF"/>
<path d="M29.2742 142.385C29.2361 142.289 29.1444 142.252 29.0694 142.302C28.9943 142.353 28.9643 142.472 29.0024 142.568C29.0404 142.665 29.1321 142.702 29.2072 142.652C29.2822 142.601 29.3122 142.482 29.2742 142.385Z" fill="#FDFFFF"/>
<path d="M79.7977 87.5853C79.7186 87.5498 79.693 87.4715 79.7406 87.4104C79.7882 87.3494 79.8909 87.3288 79.97 87.3643C80.0491 87.3999 80.0747 87.4782 80.0271 87.5392C79.9796 87.6003 79.8769 87.6209 79.7977 87.5853Z" fill="#EEFFFD"/>
<path d="M80.7599 83.5993C80.6732 83.5603 80.6452 83.4746 80.6973 83.4077C80.7494 83.3409 80.8619 83.3183 80.9485 83.3572C81.0352 83.3962 81.0632 83.4819 81.0111 83.5488C80.959 83.6156 80.8465 83.6382 80.7599 83.5993Z" fill="#EEFFFD"/>
<path d="M81.7989 83.0388C81.682 82.9863 81.6443 82.8707 81.7145 82.7806C81.7847 82.6905 81.9363 82.6601 82.0532 82.7126C82.17 82.7651 82.2077 82.8807 82.1375 82.9708C82.0673 83.0609 81.9157 83.0913 81.7989 83.0388Z" fill="#EEFFFD"/>
<path d="M82.0602 80.7909C82.0074 80.7672 81.9903 80.715 82.0221 80.6743C82.0538 80.6337 82.1222 80.6199 82.175 80.6436C82.2277 80.6673 82.2448 80.7195 82.2131 80.7602C82.1814 80.8009 82.1129 80.8147 82.0602 80.7909Z" fill="#EEFFFD"/>
<path d="M81.6769 78.2968C81.5082 78.221 81.4537 78.0541 81.5551 77.9239C81.6565 77.7938 81.8755 77.7498 82.0442 77.8256C82.2129 77.9014 82.2674 78.0684 82.166 78.1985C82.0646 78.3286 81.8456 78.3726 81.6769 78.2968Z" fill="#EEFFFD"/>
<path d="M82.6555 77.7681C82.599 77.7427 82.5807 77.6868 82.6147 77.6432C82.6486 77.5996 82.722 77.5849 82.7785 77.6103C82.835 77.6357 82.8533 77.6916 82.8193 77.7352C82.7854 77.7788 82.712 77.7935 82.6555 77.7681Z" fill="#EEFFFD"/>
<path d="M84.2227 81.8781C84.1343 81.8384 84.1057 81.7509 84.1588 81.6827C84.212 81.6145 84.3267 81.5914 84.4151 81.6312C84.5035 81.6709 84.5321 81.7584 84.479 81.8266C84.4258 81.8948 84.3111 81.9179 84.2227 81.8781Z" fill="#EEFFFD"/>
<path d="M81.7313 86.4553C81.708 86.4448 81.7005 86.4218 81.7145 86.4038C81.7285 86.3858 81.7588 86.3798 81.782 86.3902C81.8053 86.4007 81.8129 86.4237 81.7989 86.4417C81.7849 86.4597 81.7546 86.4658 81.7313 86.4553Z" fill="#EEFFFD"/>
<path d="M80.6291 88.1665C80.5346 88.1241 80.504 88.0306 80.5608 87.9577C80.6176 87.8848 80.7403 87.8601 80.8348 87.9026C80.9293 87.9451 80.9598 88.0386 80.903 88.1115C80.8462 88.1844 80.7235 88.209 80.6291 88.1665Z" fill="#EEFFFD"/>
<path d="M80.6211 85.8697C80.4901 85.8108 80.4478 85.6812 80.5265 85.5801C80.6053 85.479 80.7753 85.4449 80.9063 85.5037C81.0373 85.5626 81.0797 85.6923 81.0009 85.7933C80.9222 85.8944 80.7521 85.9286 80.6211 85.8697Z" fill="#EEFFFD"/>
<path d="M81.9248 84.7314C81.8854 84.7136 81.8727 84.6746 81.8964 84.6442C81.9201 84.6138 81.9712 84.6035 82.0107 84.6212C82.0501 84.639 82.0628 84.678 82.0391 84.7084C82.0154 84.7388 81.9642 84.7491 81.9248 84.7314Z" fill="#EEFFFD"/>
<path d="M77.4548 82.882C77.3186 82.8207 77.2745 82.6859 77.3564 82.5808C77.4383 82.4758 77.6152 82.4402 77.7514 82.5014C77.8876 82.5627 77.9317 82.6975 77.8498 82.8026C77.7679 82.9076 77.591 82.9432 77.4548 82.882Z" fill="#EEFFFD"/>
<path d="M94.3987 70.7964C94.2066 70.7101 94.1444 70.5199 94.26 70.3716C94.3755 70.2234 94.6249 70.1733 94.8171 70.2596C95.0093 70.346 95.0714 70.5362 94.9559 70.6844C94.8403 70.8326 94.5909 70.8828 94.3987 70.7964Z" fill="#EEFFFD"/>
<path d="M79.3268 80.6799C79.263 80.6513 79.2424 80.5882 79.2807 80.539C79.3191 80.4898 79.4018 80.4732 79.4656 80.5018C79.5294 80.5305 79.55 80.5936 79.5116 80.6428C79.4733 80.692 79.3905 80.7086 79.3268 80.6799Z" fill="#EEFFFD"/>
<path d="M77.8613 83.2906C77.8013 83.2637 77.7819 83.2043 77.818 83.158C77.8541 83.1117 77.932 83.0961 77.992 83.1231C78.052 83.15 78.0713 83.2094 78.0353 83.2557C77.9992 83.302 77.9213 83.3176 77.8613 83.2906Z" fill="#EEFFFD"/>
<path d="M79.2682 81.6663C79.2108 81.6406 79.1923 81.5838 79.2268 81.5395C79.2613 81.4952 79.3358 81.4802 79.3932 81.506C79.4505 81.5318 79.4691 81.5886 79.4346 81.6329C79.4001 81.6772 79.3256 81.6921 79.2682 81.6663Z" fill="#EEFFFD"/>
<path d="M77.9471 84.7547C77.8584 84.7148 77.8297 84.627 77.883 84.5586C77.9364 84.4902 78.0515 84.4671 78.1402 84.5069C78.2289 84.5468 78.2576 84.6346 78.2042 84.703C78.1509 84.7714 78.0358 84.7945 77.9471 84.7547Z" fill="#EEFFFD"/>
<path d="M85.4242 73.4226C85.3157 73.3739 85.2807 73.2666 85.3459 73.183C85.411 73.0994 85.5518 73.0711 85.6602 73.1198C85.7686 73.1685 85.8036 73.2758 85.7384 73.3594C85.6733 73.443 85.5326 73.4713 85.4242 73.4226Z" fill="#EEFFFD"/>
<path d="M86.6617 72.0111C86.6058 71.986 86.5877 71.9306 86.6213 71.8875C86.6549 71.8443 86.7275 71.8297 86.7835 71.8549C86.8394 71.88 86.8575 71.9354 86.8239 71.9785C86.7902 72.0217 86.7176 72.0363 86.6617 72.0111Z" fill="#EEFFFD"/>
<path d="M89.3775 71.031C89.312 71.0016 89.2908 70.9368 89.3302 70.8862C89.3695 70.8357 89.4546 70.8186 89.5201 70.8481C89.5856 70.8775 89.6067 70.9423 89.5674 70.9929C89.528 71.0434 89.443 71.0605 89.3775 71.031Z" fill="#EEFFFD"/>
<path d="M87.4735 73.438C87.3958 73.403 87.3707 73.3262 87.4174 73.2663C87.4641 73.2063 87.5649 73.1861 87.6426 73.221C87.7202 73.2559 87.7453 73.3328 87.6986 73.3927C87.6519 73.4526 87.5511 73.4729 87.4735 73.438Z" fill="#EEFFFD"/>
<path d="M86.5413 75.6829C86.4691 75.6505 86.4458 75.5791 86.4892 75.5234C86.5326 75.4677 86.6263 75.4489 86.6984 75.4813C86.7706 75.5137 86.7939 75.5852 86.7505 75.6408C86.7071 75.6965 86.6135 75.7153 86.5413 75.6829Z" fill="#EEFFFD"/>
<path d="M94.5362 72.202C94.4638 72.1695 94.4403 72.0977 94.4839 72.0419C94.5275 71.986 94.6215 71.9671 94.694 71.9996C94.7664 72.0322 94.7899 72.1039 94.7463 72.1598C94.7028 72.2157 94.6087 72.2346 94.5362 72.202Z" fill="#EEFFFD"/>
<path d="M95.8216 69.2461C95.7338 69.2066 95.7054 69.1197 95.7582 69.052C95.811 68.9842 95.925 68.9613 96.0129 69.0008C96.1007 69.0403 96.1291 69.1272 96.0763 69.1949C96.0235 69.2627 95.9095 69.2856 95.8216 69.2461Z" fill="#EEFFFD"/>
<path d="M92.0418 75.8099C91.9183 75.7544 91.8784 75.6322 91.9526 75.5369C92.0269 75.4417 92.1871 75.4095 92.3106 75.4649C92.4341 75.5204 92.474 75.6426 92.3998 75.7379C92.3255 75.8331 92.1653 75.8653 92.0418 75.8099Z" fill="#EEFFFD"/>
<path d="M90.6097 75.5153C90.5645 75.495 90.5499 75.4502 90.5771 75.4153C90.6043 75.3805 90.663 75.3687 90.7082 75.389C90.7534 75.4093 90.768 75.4541 90.7408 75.4889C90.7136 75.5238 90.6549 75.5356 90.6097 75.5153Z" fill="#EEFFFD"/>
<path d="M93.7197 72.8582C93.6675 72.8347 93.6507 72.7831 93.682 72.7428C93.7134 72.7026 93.7811 72.689 93.8333 72.7124C93.8854 72.7359 93.9023 72.7875 93.8709 72.8278C93.8396 72.868 93.7719 72.8816 93.7197 72.8582Z" fill="#EEFFFD"/>
<path d="M95.4725 71.8337C95.409 71.8051 95.3885 71.7423 95.4266 71.6934C95.4648 71.6444 95.5472 71.6278 95.6107 71.6564C95.6741 71.6849 95.6946 71.7477 95.6565 71.7967C95.6183 71.8456 95.5359 71.8622 95.4725 71.8337Z" fill="#EEFFFD"/>
<path d="M48.6494 112.652C48.5779 112.588 48.5718 112.497 48.6359 112.447C48.6999 112.398 48.8098 112.409 48.8813 112.473C48.9528 112.536 48.9588 112.628 48.8948 112.677C48.8308 112.727 48.7209 112.715 48.6494 112.652Z" fill="#EEFFFD"/>
<path d="M50.6472 108.726C50.5689 108.657 50.5622 108.556 50.6324 108.502C50.7025 108.448 50.8228 108.461 50.9012 108.53C50.9795 108.6 50.9861 108.7 50.916 108.754C50.8459 108.808 50.7255 108.796 50.6472 108.726Z" fill="#EEFFFD"/>
<path d="M51.8484 108.468C51.7429 108.374 51.7339 108.239 51.8284 108.166C51.923 108.093 52.0851 108.11 52.1907 108.204C52.2963 108.298 52.3052 108.433 52.2107 108.506C52.1162 108.579 51.954 108.562 51.8484 108.468Z" fill="#EEFFFD"/>
<path d="M52.6888 106.163C52.6411 106.12 52.6371 106.059 52.6798 106.026C52.7225 105.993 52.7957 106.001 52.8434 106.043C52.891 106.086 52.8951 106.147 52.8524 106.18C52.8097 106.213 52.7365 106.205 52.6888 106.163Z" fill="#EEFFFD"/>
<path d="M52.9347 103.386C52.7823 103.251 52.7693 103.055 52.9058 102.95C53.0423 102.845 53.2766 102.869 53.429 103.005C53.5815 103.14 53.5944 103.335 53.4579 103.441C53.3214 103.546 53.0872 103.522 52.9347 103.386Z" fill="#EEFFFD"/>
<path d="M54.0661 103.141C54.015 103.096 54.0107 103.03 54.0564 102.995C54.1022 102.96 54.1807 102.968 54.2317 103.013C54.2828 103.059 54.2871 103.124 54.2414 103.16C54.1957 103.195 54.1172 103.187 54.0661 103.141Z" fill="#EEFFFD"/>
<path d="M54.6129 108.023C54.533 107.952 54.5262 107.849 54.5978 107.794C54.6693 107.739 54.7921 107.752 54.8719 107.823C54.9518 107.894 54.9586 107.996 54.8871 108.051C54.8155 108.106 54.6928 108.094 54.6129 108.023Z" fill="#EEFFFD"/>
<path d="M50.9063 112.079C50.8853 112.061 50.8835 112.034 50.9023 112.019C50.9212 112.005 50.9535 112.008 50.9746 112.027C50.9956 112.045 50.9974 112.072 50.9786 112.087C50.9597 112.101 50.9274 112.098 50.9063 112.079Z" fill="#EEFFFD"/>
<path d="M49.3478 113.54C49.2624 113.464 49.2552 113.355 49.3316 113.296C49.4081 113.237 49.5393 113.251 49.6247 113.326C49.7101 113.402 49.7173 113.512 49.6408 113.571C49.5644 113.63 49.4332 113.616 49.3478 113.54Z" fill="#EEFFFD"/>
<path d="M49.9261 111.095C49.8077 110.99 49.7977 110.838 49.9037 110.756C50.0097 110.674 50.1916 110.693 50.31 110.799C50.4284 110.904 50.4385 111.056 50.3325 111.137C50.2264 111.219 50.0445 111.2 49.9261 111.095Z" fill="#EEFFFD"/>
<path d="M51.5446 110.309C51.509 110.277 51.506 110.232 51.5378 110.207C51.5697 110.183 51.6245 110.188 51.6601 110.22C51.6957 110.252 51.6988 110.297 51.6669 110.322C51.635 110.347 51.5802 110.341 51.5446 110.309Z" fill="#EEFFFD"/>
<path d="M47.4638 106.887C47.3407 106.778 47.3303 106.62 47.4405 106.535C47.5508 106.45 47.7399 106.47 47.863 106.579C47.9861 106.689 47.9966 106.846 47.8863 106.931C47.7761 107.017 47.5869 106.997 47.4638 106.887Z" fill="#EEFFFD"/>
<path d="M67.806 99.5487C67.6324 99.3943 67.6176 99.1719 67.7731 99.0518C67.9286 98.9318 68.1955 98.9596 68.3692 99.114C68.5428 99.2684 68.5575 99.4909 68.402 99.6109C68.2465 99.7309 67.9797 99.7031 67.806 99.5487Z" fill="#EEFFFD"/>
<path d="M49.9324 105.156C49.8748 105.105 49.8699 105.031 49.9215 104.991C49.9731 104.951 50.0617 104.961 50.1193 105.012C50.1769 105.063 50.1818 105.137 50.1302 105.177C50.0786 105.216 49.9901 105.207 49.9324 105.156Z" fill="#EEFFFD"/>
<path d="M47.7739 107.455C47.7196 107.406 47.715 107.337 47.7636 107.3C47.8121 107.262 47.8955 107.271 47.9497 107.319C48.0039 107.367 48.0085 107.437 47.9599 107.474C47.9114 107.512 47.8281 107.503 47.7739 107.455Z" fill="#EEFFFD"/>
<path d="M49.6217 106.185C49.5699 106.139 49.5655 106.072 49.6119 106.037C49.6583 106.001 49.738 106.009 49.7899 106.055C49.8417 106.101 49.8461 106.168 49.7997 106.204C49.7533 106.239 49.6736 106.231 49.6217 106.185Z" fill="#EEFFFD"/>
<path d="M47.4875 109.04C47.4074 108.969 47.4006 108.866 47.4724 108.811C47.5441 108.756 47.6673 108.768 47.7474 108.84C47.8276 108.911 47.8344 109.014 47.7626 109.069C47.6909 109.124 47.5677 109.112 47.4875 109.04Z" fill="#EEFFFD"/>
<path d="M57.9952 99.4225C57.8972 99.3354 57.8889 99.2099 57.9766 99.1422C58.0644 99.0745 58.2149 99.0902 58.3128 99.1773C58.4108 99.2644 58.4191 99.3899 58.3314 99.4576C58.2437 99.5253 58.0932 99.5096 57.9952 99.4225Z" fill="#EEFFFD"/>
<path d="M59.6166 98.3245C59.5661 98.2795 59.5618 98.2148 59.607 98.1798C59.6523 98.1449 59.73 98.153 59.7805 98.1979C59.8311 98.2429 59.8354 98.3076 59.7901 98.3426C59.7448 98.3775 59.6672 98.3694 59.6166 98.3245Z" fill="#EEFFFD"/>
<path d="M62.6325 98.1652C62.5733 98.1126 62.5683 98.0367 62.6213 97.9958C62.6743 97.9549 62.7653 97.9644 62.8245 98.017C62.8837 98.0696 62.8887 98.1455 62.8357 98.1864C62.7827 98.2273 62.6917 98.2178 62.6325 98.1652Z" fill="#EEFFFD"/>
<path d="M60.0779 100.105C60.0077 100.042 60.0017 99.9524 60.0646 99.9039C60.1275 99.8553 60.2353 99.8666 60.3055 99.929C60.3757 99.9914 60.3817 100.081 60.3188 100.13C60.2559 100.178 60.1481 100.167 60.0779 100.105Z" fill="#EEFFFD"/>
<path d="M58.5562 102.189C58.4909 102.131 58.4854 102.048 58.5438 102.003C58.6022 101.957 58.7024 101.968 58.7677 102.026C58.8329 102.084 58.8384 102.167 58.78 102.212C58.7216 102.258 58.6214 102.247 58.5562 102.189Z" fill="#EEFFFD"/>
<path d="M67.5861 101.09C67.5206 101.032 67.515 100.948 67.5737 100.902C67.6323 100.857 67.7329 100.868 67.7984 100.926C67.8639 100.984 67.8695 101.068 67.8108 101.113C67.7522 101.158 67.6516 101.148 67.5861 101.09Z" fill="#EEFFFD"/>
<path d="M69.6507 98.3639C69.5713 98.2933 69.5646 98.1916 69.6357 98.1368C69.7067 98.0819 69.8287 98.0946 69.908 98.1652C69.9874 98.2358 69.9941 98.3374 69.9231 98.3923C69.852 98.4472 69.7301 98.4344 69.6507 98.3639Z" fill="#EEFFFD"/>
<path d="M64.1256 104.114C64.014 104.015 64.0045 103.872 64.1045 103.795C64.2044 103.718 64.3758 103.736 64.4874 103.835C64.599 103.934 64.6085 104.077 64.5085 104.154C64.4086 104.231 64.2372 104.214 64.1256 104.114Z" fill="#EEFFFD"/>
<path d="M62.7427 103.335C62.7019 103.299 62.6984 103.247 62.735 103.218C62.7716 103.19 62.8344 103.197 62.8752 103.233C62.9161 103.269 62.9196 103.322 62.883 103.35C62.8464 103.378 62.7836 103.372 62.7427 103.335Z" fill="#EEFFFD"/>
<path d="M66.5869 101.522C66.5398 101.48 66.5358 101.419 66.578 101.387C66.6202 101.354 66.6927 101.362 66.7398 101.404C66.787 101.446 66.791 101.506 66.7488 101.539C66.7065 101.571 66.6341 101.564 66.5869 101.522Z" fill="#EEFFFD"/>
<path d="M68.6349 101.002C68.5776 100.951 68.5727 100.878 68.6241 100.838C68.6754 100.799 68.7636 100.808 68.8209 100.859C68.8783 100.91 68.8832 100.983 68.8318 101.023C68.7804 101.063 68.6923 101.053 68.6349 101.002Z" fill="#EEFFFD"/>
<path d="M210.633 127.304C210.657 127.209 210.741 127.168 210.82 127.214C210.899 127.259 210.943 127.374 210.919 127.469C210.895 127.565 210.811 127.606 210.732 127.56C210.653 127.514 210.609 127.4 210.633 127.304Z" fill="#EEFFFD"/>
<path d="M215.354 127.83C215.38 127.725 215.472 127.68 215.558 127.73C215.645 127.78 215.694 127.906 215.667 128.011C215.641 128.115 215.549 128.16 215.462 128.11C215.376 128.06 215.327 127.934 215.354 127.83Z" fill="#EEFFFD"/>
<path d="M216.203 128.936C216.239 128.795 216.362 128.735 216.479 128.802C216.595 128.87 216.661 129.039 216.625 129.18C216.589 129.321 216.466 129.381 216.349 129.314C216.233 129.246 216.167 129.077 216.203 128.936Z" fill="#EEFFFD"/>
<path d="M218.808 128.91C218.824 128.846 218.88 128.819 218.933 128.85C218.985 128.88 219.015 128.957 218.999 129.02C218.983 129.084 218.927 129.111 218.874 129.081C218.822 129.05 218.792 128.974 218.808 128.91Z" fill="#EEFFFD"/>
<path d="M221.56 128.112C221.611 127.908 221.789 127.821 221.958 127.919C222.126 128.016 222.221 128.26 222.17 128.464C222.118 128.668 221.94 128.754 221.771 128.657C221.603 128.56 221.508 128.316 221.56 128.112Z" fill="#EEFFFD"/>
<path d="M222.36 129.154C222.377 129.086 222.437 129.057 222.494 129.089C222.55 129.122 222.582 129.203 222.564 129.272C222.547 129.34 222.487 129.369 222.431 129.337C222.375 129.304 222.343 129.222 222.36 129.154Z" fill="#EEFFFD"/>
<path d="M218.015 131.541C218.042 131.434 218.136 131.389 218.224 131.44C218.312 131.491 218.362 131.619 218.335 131.725C218.308 131.832 218.215 131.878 218.126 131.827C218.038 131.776 217.988 131.648 218.015 131.541Z" fill="#EEFFFD"/>
<path d="M212.31 129.353C212.318 129.324 212.342 129.312 212.365 129.326C212.389 129.339 212.402 129.373 212.395 129.401C212.388 129.429 212.363 129.441 212.34 129.428C212.316 129.414 212.303 129.381 212.31 129.353Z" fill="#EEFFFD"/>
<path d="M210.144 128.339C210.173 128.225 210.273 128.177 210.367 128.231C210.462 128.285 210.515 128.422 210.486 128.536C210.457 128.651 210.357 128.699 210.263 128.645C210.168 128.59 210.115 128.453 210.144 128.339Z" fill="#EEFFFD"/>
<path d="M212.749 127.999C212.789 127.84 212.928 127.773 213.059 127.848C213.189 127.924 213.263 128.113 213.223 128.272C213.183 128.43 213.044 128.497 212.914 128.422C212.783 128.346 212.709 128.157 212.749 127.999Z" fill="#EEFFFD"/>
<path d="M214.307 129.325C214.319 129.277 214.361 129.257 214.4 129.279C214.439 129.302 214.462 129.359 214.45 129.407C214.437 129.455 214.396 129.475 214.356 129.452C214.317 129.429 214.295 129.372 214.307 129.325Z" fill="#EEFFFD"/>
<path d="M215.493 123.945C215.535 123.78 215.679 123.71 215.815 123.789C215.951 123.867 216.027 124.065 215.986 124.229C215.944 124.394 215.8 124.464 215.664 124.385C215.528 124.307 215.451 124.11 215.493 123.945Z" fill="#EEFFFD"/>
<path d="M232.675 141.579C232.734 141.347 232.937 141.248 233.129 141.359C233.321 141.469 233.429 141.748 233.37 141.98C233.311 142.212 233.108 142.311 232.916 142.2C232.724 142.089 232.616 141.811 232.675 141.579Z" fill="#EEFFFD"/>
<path d="M218.374 125.767C218.394 125.69 218.461 125.658 218.525 125.694C218.588 125.731 218.624 125.823 218.605 125.9C218.585 125.978 218.518 126.01 218.454 125.974C218.39 125.937 218.355 125.845 218.374 125.767Z" fill="#EEFFFD"/>
<path d="M215.111 124.469C215.13 124.397 215.193 124.366 215.253 124.4C215.313 124.435 215.346 124.522 215.328 124.594C215.31 124.667 215.246 124.698 215.186 124.663C215.127 124.628 215.093 124.542 215.111 124.469Z" fill="#EEFFFD"/>
<path d="M217.243 125.844C217.261 125.774 217.321 125.745 217.379 125.778C217.436 125.811 217.468 125.894 217.451 125.963C217.433 126.033 217.372 126.062 217.315 126.029C217.258 125.996 217.226 125.913 217.243 125.844Z" fill="#EEFFFD"/>
<path d="M213.467 124.78C213.494 124.673 213.588 124.627 213.676 124.678C213.765 124.73 213.814 124.858 213.787 124.965C213.76 125.072 213.666 125.118 213.578 125.067C213.489 125.016 213.44 124.887 213.467 124.78Z" fill="#EEFFFD"/>
<path d="M227.857 131.694C227.891 131.563 228.005 131.507 228.113 131.57C228.222 131.632 228.283 131.789 228.249 131.92C228.216 132.051 228.102 132.107 227.993 132.044C227.885 131.982 227.824 131.825 227.857 131.694Z" fill="#EEFFFD"/>
<path d="M229.713 132.905C229.731 132.838 229.79 132.809 229.846 132.841C229.901 132.874 229.933 132.954 229.916 133.022C229.899 133.09 229.839 133.118 229.784 133.086C229.728 133.054 229.696 132.973 229.713 132.905Z" fill="#EEFFFD"/>
<path d="M231.38 135.869C231.4 135.79 231.47 135.757 231.535 135.794C231.601 135.832 231.637 135.927 231.617 136.006C231.597 136.085 231.528 136.119 231.463 136.081C231.397 136.043 231.36 135.949 231.38 135.869Z" fill="#EEFFFD"/>
<path d="M228.26 134.039C228.284 133.945 228.366 133.905 228.444 133.95C228.521 133.995 228.565 134.107 228.541 134.201C228.517 134.295 228.435 134.335 228.358 134.29C228.28 134.245 228.236 134.133 228.26 134.039Z" fill="#EEFFFD"/>
<path d="M225.521 133.298C225.543 133.211 225.62 133.174 225.692 133.215C225.764 133.257 225.804 133.361 225.782 133.448C225.76 133.536 225.684 133.573 225.612 133.531C225.54 133.49 225.499 133.385 225.521 133.298Z" fill="#EEFFFD"/>
<path d="M231.107 141.939C231.129 141.852 231.206 141.814 231.278 141.856C231.351 141.898 231.391 142.003 231.369 142.09C231.347 142.178 231.27 142.215 231.198 142.173C231.126 142.132 231.085 142.027 231.107 141.939Z" fill="#EEFFFD"/>
<path d="M234.725 142.982C234.752 142.876 234.845 142.831 234.933 142.881C235.02 142.932 235.07 143.059 235.043 143.165C235.016 143.271 234.923 143.316 234.835 143.266C234.748 143.215 234.698 143.088 234.725 142.982Z" fill="#EEFFFD"/>
<path d="M226.502 139.608C226.539 139.459 226.67 139.395 226.793 139.466C226.917 139.538 226.986 139.716 226.948 139.866C226.91 140.015 226.78 140.078 226.657 140.007C226.533 139.936 226.464 139.757 226.502 139.608Z" fill="#EEFFFD"/>
<path d="M226.544 137.927C226.558 137.872 226.606 137.849 226.651 137.875C226.696 137.901 226.721 137.967 226.708 138.021C226.694 138.076 226.646 138.099 226.601 138.073C226.556 138.047 226.53 137.981 226.544 137.927Z" fill="#EEFFFD"/>
<path d="M230.195 141.099C230.211 141.036 230.266 141.009 230.318 141.039C230.37 141.07 230.399 141.145 230.383 141.208C230.367 141.271 230.312 141.298 230.26 141.268C230.208 141.238 230.179 141.162 230.195 141.099Z" fill="#EEFFFD"/>
<path d="M231.717 142.957C231.736 142.88 231.803 142.848 231.867 142.884C231.93 142.921 231.966 143.013 231.946 143.09C231.927 143.166 231.86 143.199 231.796 143.162C231.733 143.126 231.697 143.034 231.717 142.957Z" fill="#EEFFFD"/>
<path d="M189.989 101.159C190.028 101.072 190.114 101.039 190.18 101.086C190.246 101.132 190.268 101.241 190.228 101.328C190.188 101.415 190.103 101.448 190.037 101.401C189.97 101.354 189.949 101.246 189.989 101.159Z" fill="#F5FFFE"/>
<path d="M194.329 101.912C194.373 101.817 194.467 101.781 194.539 101.832C194.611 101.883 194.635 102.002 194.591 102.097C194.548 102.192 194.454 102.228 194.382 102.177C194.309 102.126 194.286 102.007 194.329 101.912Z" fill="#F5FFFE"/>
<path d="M194.93 102.984C194.989 102.855 195.116 102.807 195.213 102.876C195.311 102.945 195.342 103.105 195.284 103.233C195.225 103.362 195.099 103.41 195.001 103.341C194.903 103.272 194.872 103.112 194.93 102.984Z" fill="#F5FFFE"/>
<path d="M197.38 103.107C197.407 103.049 197.464 103.027 197.508 103.058C197.552 103.089 197.567 103.161 197.54 103.219C197.514 103.277 197.456 103.299 197.412 103.268C197.368 103.237 197.354 103.165 197.38 103.107Z" fill="#F5FFFE"/>
<path d="M200.106 102.524C200.19 102.338 200.373 102.268 200.514 102.368C200.655 102.467 200.701 102.698 200.616 102.884C200.531 103.069 200.349 103.139 200.208 103.04C200.067 102.94 200.021 102.709 200.106 102.524Z" fill="#F5FFFE"/>
<path d="M200.673 103.533C200.702 103.471 200.763 103.448 200.81 103.481C200.857 103.514 200.873 103.592 200.844 103.654C200.816 103.716 200.755 103.74 200.707 103.706C200.66 103.673 200.645 103.596 200.673 103.533Z" fill="#F5FFFE"/>
<path d="M196.17 105.495C196.215 105.397 196.31 105.361 196.384 105.413C196.458 105.465 196.482 105.586 196.438 105.683C196.393 105.781 196.298 105.817 196.224 105.765C196.15 105.713 196.126 105.592 196.17 105.495Z" fill="#F5FFFE"/>
<path d="M191.201 103.148C191.212 103.122 191.238 103.113 191.257 103.126C191.277 103.14 191.283 103.172 191.271 103.198C191.259 103.223 191.234 103.233 191.215 103.219C191.195 103.206 191.189 103.174 191.201 103.148Z" fill="#F5FFFE"/>
<path d="M189.346 102.089C189.393 101.985 189.496 101.946 189.575 102.001C189.653 102.057 189.679 102.186 189.632 102.29C189.584 102.394 189.482 102.433 189.403 102.378C189.324 102.322 189.298 102.193 189.346 102.089Z" fill="#F5FFFE"/>
<path d="M191.853 101.92C191.918 101.776 192.06 101.722 192.17 101.799C192.279 101.876 192.315 102.056 192.249 102.2C192.183 102.344 192.041 102.398 191.932 102.321C191.822 102.244 191.787 102.065 191.853 101.92Z" fill="#F5FFFE"/>
<path d="M193.081 103.235C193.1 103.191 193.143 103.175 193.176 103.198C193.209 103.222 193.22 103.276 193.2 103.319C193.18 103.362 193.137 103.379 193.104 103.355C193.072 103.332 193.061 103.278 193.081 103.235Z" fill="#F5FFFE"/>
<path d="M195.148 98.3276C195.216 98.1777 195.364 98.1212 195.478 98.2015C195.592 98.2818 195.629 98.4683 195.56 98.6182C195.492 98.7681 195.344 98.8246 195.23 98.7443C195.117 98.6641 195.08 98.4775 195.148 98.3276Z" fill="#F5FFFE"/>
<path d="M208.156 115.605C208.252 115.393 208.46 115.314 208.621 115.427C208.781 115.54 208.833 115.803 208.737 116.015C208.641 116.226 208.432 116.306 208.272 116.192C208.111 116.079 208.059 115.816 208.156 115.605Z" fill="#F5FFFE"/>
<path d="M197.531 100.176C197.563 100.106 197.632 100.08 197.685 100.117C197.739 100.155 197.756 100.242 197.724 100.312C197.692 100.383 197.623 100.409 197.57 100.371C197.516 100.334 197.499 100.247 197.531 100.176Z" fill="#F5FFFE"/>
<path d="M194.698 98.7905C194.728 98.7245 194.793 98.6997 194.843 98.735C194.894 98.7704 194.91 98.8525 194.88 98.9186C194.85 98.9846 194.785 99.0094 194.734 98.9741C194.684 98.9387 194.668 98.8566 194.698 98.7905Z" fill="#F5FFFE"/>
<path d="M196.456 100.182C196.484 100.119 196.547 100.095 196.595 100.129C196.642 100.163 196.658 100.241 196.629 100.305C196.6 100.368 196.538 100.392 196.49 100.358C196.442 100.324 196.427 100.245 196.456 100.182Z" fill="#F5FFFE"/>
<path d="M193.098 98.9846C193.143 98.887 193.239 98.8503 193.313 98.9026C193.387 98.9548 193.411 99.0763 193.367 99.1739C193.322 99.2715 193.226 99.3082 193.152 99.256C193.078 99.2037 193.054 99.0822 193.098 98.9846Z" fill="#F5FFFE"/>
<path d="M205.386 106.191C205.44 106.072 205.558 106.027 205.648 106.091C205.739 106.155 205.768 106.303 205.714 106.423C205.659 106.542 205.542 106.587 205.451 106.523C205.361 106.459 205.331 106.311 205.386 106.191Z" fill="#F5FFFE"/>
<path d="M206.913 107.417C206.941 107.355 207.001 107.332 207.048 107.365C207.095 107.398 207.11 107.474 207.082 107.536C207.054 107.598 206.993 107.621 206.947 107.588C206.9 107.555 206.885 107.478 206.913 107.417Z" fill="#F5FFFE"/>
<path d="M207.953 110.252C207.986 110.18 208.057 110.153 208.112 110.192C208.166 110.23 208.184 110.32 208.151 110.392C208.118 110.464 208.047 110.491 207.993 110.453C207.938 110.414 207.92 110.324 207.953 110.252Z" fill="#F5FFFE"/>
<path d="M205.347 108.383C205.386 108.297 205.47 108.265 205.535 108.311C205.6 108.357 205.621 108.463 205.582 108.548C205.543 108.634 205.459 108.666 205.394 108.62C205.329 108.574 205.308 108.468 205.347 108.383Z" fill="#F5FFFE"/>
<path d="M202.907 107.543C202.943 107.464 203.021 107.434 203.081 107.476C203.142 107.519 203.161 107.618 203.125 107.697C203.089 107.776 203.011 107.806 202.95 107.764C202.89 107.721 202.871 107.622 202.907 107.543Z" fill="#F5FFFE"/>
<path d="M206.618 115.848C206.654 115.769 206.733 115.739 206.793 115.781C206.854 115.824 206.874 115.923 206.837 116.003C206.801 116.083 206.722 116.113 206.662 116.07C206.601 116.027 206.582 115.928 206.618 115.848Z" fill="#F5FFFE"/>
<path d="M209.832 117.018C209.876 116.921 209.971 116.884 210.044 116.936C210.118 116.988 210.141 117.108 210.097 117.205C210.053 117.302 209.958 117.338 209.885 117.286C209.811 117.234 209.788 117.114 209.832 117.018Z" fill="#F5FFFE"/>
<path d="M202.708 113.433C202.77 113.297 202.904 113.246 203.007 113.319C203.11 113.391 203.144 113.561 203.082 113.696C203.02 113.832 202.886 113.883 202.783 113.811C202.68 113.738 202.646 113.569 202.708 113.433Z" fill="#F5FFFE"/>
<path d="M203.045 111.881C203.068 111.831 203.117 111.812 203.154 111.839C203.192 111.866 203.204 111.928 203.182 111.977C203.159 112.027 203.11 112.046 203.072 112.019C203.034 111.993 203.022 111.931 203.045 111.881Z" fill="#F5FFFE"/>
<path d="M205.912 115.02C205.938 114.963 205.995 114.941 206.038 114.972C206.082 115.003 206.096 115.074 206.07 115.131C206.044 115.189 205.987 115.21 205.944 115.18C205.9 115.149 205.886 115.078 205.912 115.02Z" fill="#F5FFFE"/>
<path d="M207.01 116.824C207.042 116.754 207.111 116.728 207.164 116.765C207.217 116.803 207.234 116.89 207.202 116.959C207.17 117.029 207.102 117.056 207.049 117.018C206.995 116.981 206.978 116.894 207.01 116.824Z" fill="#F5FFFE"/>
<rect x="184.316" y="56.1133" width="19.8909" height="34.406" rx="9.94547" fill="url(#paint18_linear_1679_8939)"/>
<path d="M184.327 93.083C184.4 91.9852 185.419 87.7343 185.919 85.7461L190.219 87.4112C189.816 89.314 188.887 93.3319 188.389 94.1809C187.767 95.2421 186.632 95.7178 185.827 95.3884C185.022 95.0591 184.236 94.4553 184.327 93.083Z" fill="#E05346"/>
<path d="M203.739 93.083C203.666 91.9852 202.647 87.7343 202.147 85.7461L197.848 87.4112C198.25 89.314 199.18 93.3319 199.677 94.1809C200.3 95.2421 201.434 95.7178 202.239 95.3884C203.044 95.0591 203.831 94.4553 203.739 93.083Z" fill="#E05346"/>
<path d="M180.702 72.7815C182.108 73.6837 183.388 74.5369 184.853 75.0385V80.3051C183.47 79.8035 181.63 78.4493 179.481 77.045C176.794 75.2895 177.283 73.7849 177.527 73.2833C177.771 72.7817 178.748 71.5276 180.702 72.7815Z" fill="#F0675F"/>
<path d="M207.821 72.7815C206.415 73.6837 205.134 74.5369 203.669 75.0385V80.3051C205.053 79.8035 206.893 78.4493 209.042 77.045C211.728 75.2895 211.24 73.7849 210.996 73.2833C210.751 72.7817 209.775 71.5276 207.821 72.7815Z" fill="#F0675F"/>
<path d="M194.53 63.5996C199.091 63.5996 202.527 67.9484 202.527 67.9484C202.527 67.9484 198.999 72.2973 194.53 72.2973C190.061 72.2973 186.533 67.9484 186.533 67.9484C186.533 67.9484 189.97 63.5997 194.53 63.5996Z" fill="white"/>
<mask id="mask1_1679_8939" style="mask-type:alpha" maskUnits="userSpaceOnUse" x="186" y="63" width="17" height="10">
<path d="M194.53 63.5996C199.091 63.5996 202.527 67.9484 202.527 67.9484C202.527 67.9484 198.999 72.2973 194.53 72.2973C190.061 72.2973 186.533 67.9484 186.533 67.9484C186.533 67.9484 189.97 63.5997 194.53 63.5996Z" fill="white"/>
</mask>
<g mask="url(#mask1_1679_8939)">
<circle cx="194.532" cy="68.0237" r="3.96999" fill="#240521"/>
</g>
<path d="M195.191 53.501L189.274 46.1682L195.012 44.0678L195.191 53.501Z" fill="#FFDAA4"/>
<path d="M194.943 38.189L200.868 45.9812L195.012 44.0683L194.943 38.189Z" fill="#FFA929"/>
<path d="M195.191 53.5004L195.012 44.0674L200.868 45.9802L195.191 53.5004Z" fill="#FFBC57"/>
<path d="M194.944 38.189L195.012 44.0682L189.274 46.1687L194.944 38.189Z" fill="#FFBC57"/>
<path d="M197.817 47.7738C197.868 47.7375 197.877 47.6636 197.838 47.6088C197.799 47.5539 197.726 47.5388 197.675 47.575C197.624 47.6112 197.615 47.6851 197.654 47.74C197.693 47.7949 197.766 47.81 197.817 47.7738Z" fill="#FEFAD1"/>
<path d="M196.738 44.1028C196.794 44.0631 196.804 43.9822 196.762 43.9221C196.719 43.862 196.639 43.8455 196.583 43.8852C196.528 43.9249 196.517 44.0058 196.56 44.0659C196.603 44.126 196.683 44.1425 196.738 44.1028Z" fill="#FEFAD1"/>
<path d="M195.964 43.6233C196.039 43.5698 196.053 43.4607 195.995 43.3797C195.938 43.2987 195.83 43.2764 195.755 43.3299C195.68 43.3834 195.666 43.4924 195.724 43.5735C195.781 43.6545 195.889 43.6768 195.964 43.6233Z" fill="#FEFAD1"/>
<path d="M195.55 41.5429C195.584 41.5187 195.591 41.4695 195.564 41.4329C195.538 41.3963 195.49 41.3862 195.456 41.4104C195.422 41.4345 195.416 41.4838 195.442 41.5204C195.468 41.5569 195.516 41.567 195.55 41.5429Z" fill="#FEFAD1"/>
<path d="M195.555 39.2076C195.663 39.1304 195.684 38.9729 195.6 38.8559C195.517 38.7389 195.361 38.7067 195.253 38.7839C195.144 38.8612 195.124 39.0187 195.208 39.1357C195.291 39.2527 195.447 39.2849 195.555 39.2076Z" fill="#FEFAD1"/>
<path d="M194.826 38.7543C194.862 38.7284 194.869 38.6756 194.841 38.6364C194.813 38.5972 194.761 38.5864 194.725 38.6123C194.689 38.6382 194.682 38.691 194.71 38.7302C194.738 38.7694 194.79 38.7802 194.826 38.7543Z" fill="#FEFAD1"/>
<path d="M194.173 42.6409C194.23 42.6004 194.241 42.5179 194.197 42.4566C194.153 42.3953 194.072 42.3784 194.015 42.4189C193.958 42.4594 193.948 42.5419 193.991 42.6032C194.035 42.6645 194.116 42.6814 194.173 42.6409Z" fill="#FEFAD1"/>
<path d="M196.367 46.799C196.382 46.7883 196.384 46.7665 196.373 46.7504C196.361 46.7342 196.34 46.7298 196.325 46.7405C196.31 46.7511 196.307 46.7729 196.319 46.789C196.33 46.8052 196.352 46.8096 196.367 46.799Z" fill="#FEFAD1"/>
<path d="M197.304 48.3465C197.364 48.3032 197.376 48.215 197.329 48.1495C197.282 48.0839 197.195 48.0659 197.134 48.1091C197.074 48.1524 197.062 48.2406 197.109 48.3062C197.156 48.3717 197.243 48.3898 197.304 48.3465Z" fill="#FEFAD1"/>
<path d="M197.071 46.2097C197.155 46.1497 197.17 46.0274 197.106 45.9365C197.041 45.8456 196.92 45.8206 196.836 45.8806C196.752 45.9406 196.736 46.0629 196.801 46.1538C196.866 46.2447 196.986 46.2697 197.071 46.2097Z" fill="#FEFAD1"/>
<path d="M196.054 45.203C196.079 45.185 196.084 45.1482 196.064 45.1208C196.045 45.0935 196.009 45.086 195.983 45.104C195.958 45.1221 195.953 45.1589 195.973 45.1862C195.992 45.2136 196.029 45.2211 196.054 45.203Z" fill="#FEFAD1"/>
<path d="M198.941 43.3044C199.029 43.242 199.045 43.1148 198.978 43.0203C198.911 42.9259 198.785 42.8998 198.698 42.9622C198.61 43.0246 198.594 43.1518 198.661 43.2463C198.728 43.3408 198.854 43.3668 198.941 43.3044Z" fill="#FEFAD1"/>
<path d="M197.423 41.3309C197.464 41.3017 197.471 41.2422 197.44 41.198C197.408 41.1537 197.349 41.1416 197.309 41.1708C197.268 41.2 197.26 41.2595 197.291 41.3037C197.323 41.3479 197.382 41.3601 197.423 41.3309Z" fill="#FEFAD1"/>
<path d="M198.705 43.7006C198.743 43.6731 198.75 43.6171 198.721 43.5755C198.691 43.5338 198.636 43.5224 198.597 43.5499C198.559 43.5773 198.551 43.6333 198.581 43.675C198.611 43.7166 198.666 43.728 198.705 43.7006Z" fill="#FEFAD1"/>
<path d="M197.565 42.246C197.602 42.2197 197.609 42.1661 197.58 42.1263C197.552 42.0865 197.499 42.0755 197.462 42.1018C197.425 42.1281 197.419 42.1817 197.447 42.2215C197.475 42.2613 197.528 42.2723 197.565 42.246Z" fill="#FEFAD1"/>
<path d="M198.797 45.0662C198.854 45.0256 198.865 44.9428 198.821 44.8813C198.777 44.8198 198.695 44.8028 198.638 44.8434C198.581 44.8841 198.571 44.9669 198.615 45.0284C198.658 45.0899 198.74 45.1068 198.797 45.0662Z" fill="#FEFAD1"/>
<defs>
<filter id="filter0_f_1679_8939" x="158.939" y="40.1714" width="69.997" height="69.997" filterUnits="userSpaceOnUse" color-interpolation-filters="sRGB">
<feFlood flood-opacity="0" result="BackgroundImageFix"/>
<feBlend mode="normal" in="SourceGraphic" in2="BackgroundImageFix" result="shape"/>
<feGaussianBlur stdDeviation="4.99925" result="effect1_foregroundBlur_1679_8939"/>
</filter>
<filter id="filter1_f_1679_8939" x="0.00149822" y="33.939" width="261.432" height="119.1" filterUnits="userSpaceOnUse" color-interpolation-filters="sRGB">
<feFlood flood-opacity="0" result="BackgroundImageFix"/>
<feBlend mode="normal" in="SourceGraphic" in2="BackgroundImageFix" result="shape"/>
<feGaussianBlur stdDeviation="4.99925" result="effect1_foregroundBlur_1679_8939"/>
</filter>
<linearGradient id="paint0_linear_1679_8939" x1="191.25" y1="77.9226" x2="174.2" y2="92.1986" gradientUnits="userSpaceOnUse">
<stop stop-color="white"/>
<stop offset="1" stop-color="#CFFF68" stop-opacity="0"/>
</linearGradient>
<linearGradient id="paint1_linear_1679_8939" x1="200.386" y1="72.4003" x2="238.608" y2="57.6394" gradientUnits="userSpaceOnUse">
<stop stop-color="#FCFF68"/>
<stop offset="1" stop-color="#FCFF68" stop-opacity="0"/>
</linearGradient>
<linearGradient id="paint2_linear_1679_8939" x1="200.909" y1="74.474" x2="259.054" y2="54.3701" gradientUnits="userSpaceOnUse">
<stop stop-color="#FFD568"/>
<stop offset="1" stop-color="#FFDE68" stop-opacity="0"/>
</linearGradient>
<linearGradient id="paint3_linear_1679_8939" x1="190.517" y1="76.1662" x2="189.26" y2="91.3054" gradientUnits="userSpaceOnUse">
<stop stop-color="white"/>
<stop offset="1" stop-color="#CFFF68" stop-opacity="0"/>
</linearGradient>
<linearGradient id="paint4_linear_1679_8939" x1="200.353" y1="68.1246" x2="210.841" y2="69.3756" gradientUnits="userSpaceOnUse">
<stop stop-color="white"/>
<stop offset="1" stop-color="#CFFF68" stop-opacity="0"/>
</linearGradient>
<linearGradient id="paint5_linear_1679_8939" x1="195.013" y1="73.547" x2="205.111" y2="73.3088" gradientUnits="userSpaceOnUse">
<stop stop-color="white"/>
<stop offset="1" stop-color="#CFFF68" stop-opacity="0"/>
</linearGradient>
<linearGradient id="paint6_linear_1679_8939" x1="195.386" y1="81.0097" x2="232.621" y2="107.682" gradientUnits="userSpaceOnUse">
<stop stop-color="#FCFF68"/>
<stop offset="1" stop-color="#FCFF68" stop-opacity="0"/>
</linearGradient>
<linearGradient id="paint7_linear_1679_8939" x1="196.228" y1="66.8994" x2="194.649" y2="10.6547" gradientUnits="userSpaceOnUse">
<stop stop-color="#FCFF68"/>
<stop offset="1" stop-color="#FCFF68" stop-opacity="0"/>
</linearGradient>
<linearGradient id="paint8_linear_1679_8939" x1="196.75" y1="77.1189" x2="213.8" y2="91.3949" gradientUnits="userSpaceOnUse">
<stop stop-color="white"/>
<stop offset="1" stop-color="#CFFF68" stop-opacity="0"/>
</linearGradient>
<linearGradient id="paint9_linear_1679_8939" x1="187.614" y1="71.8124" x2="149.392" y2="57.0515" gradientUnits="userSpaceOnUse">
<stop stop-color="#FCFF68"/>
<stop offset="1" stop-color="#FCFF68" stop-opacity="0"/>
</linearGradient>
<linearGradient id="paint10_linear_1679_8939" x1="187.091" y1="73.8861" x2="128.946" y2="53.7822" gradientUnits="userSpaceOnUse">
<stop stop-color="#FFD568"/>
<stop offset="1" stop-color="#FFDE68" stop-opacity="0"/>
</linearGradient>
<linearGradient id="paint11_linear_1679_8939" x1="197.484" y1="75.5783" x2="198.741" y2="90.7175" gradientUnits="userSpaceOnUse">
<stop stop-color="white"/>
<stop offset="1" stop-color="#CFFF68" stop-opacity="0"/>
</linearGradient>
<linearGradient id="paint12_linear_1679_8939" x1="187.647" y1="67.5367" x2="177.159" y2="68.7877" gradientUnits="userSpaceOnUse">
<stop stop-color="white"/>
<stop offset="1" stop-color="#CFFF68" stop-opacity="0"/>
</linearGradient>
<linearGradient id="paint13_linear_1679_8939" x1="192.614" y1="80.4218" x2="155.379" y2="107.094" gradientUnits="userSpaceOnUse">
<stop stop-color="#FCFF68"/>
<stop offset="1" stop-color="#FCFF68" stop-opacity="0"/>
</linearGradient>
<radialGradient id="paint14_radial_1679_8939" cx="0" cy="0" r="1" gradientUnits="userSpaceOnUse" gradientTransform="translate(193.938 75.1699) rotate(90) scale(25)">
<stop stop-color="#FCD266"/>
<stop offset="1" stop-color="#FFF621" stop-opacity="0"/>
</radialGradient>
<linearGradient id="paint15_linear_1679_8939" x1="130.717" y1="43.9375" x2="130.717" y2="143.04" gradientUnits="userSpaceOnUse">
<stop stop-color="#5AFFC4"/>
<stop offset="1" stop-color="#2BDA9B" stop-opacity="0"/>
</linearGradient>
<linearGradient id="paint16_linear_1679_8939" x1="142.48" y1="50.1926" x2="142.48" y2="145.523" gradientUnits="userSpaceOnUse">
<stop offset="0.161458" stop-color="#8CFFEA" stop-opacity="0.72"/>
<stop offset="0.541667" stop-color="#9FDCFF" stop-opacity="0.3"/>
<stop offset="1" stop-color="#ADFFAB" stop-opacity="0"/>
</linearGradient>
<linearGradient id="paint17_linear_1679_8939" x1="139.54" y1="50.7812" x2="139.54" y2="146.111" gradientUnits="userSpaceOnUse">
<stop stop-color="#8CFFEA" stop-opacity="0.72"/>
<stop offset="0.390625" stop-color="#9FFFC5" stop-opacity="0.3"/>
<stop offset="1" stop-color="#ADFFAB" stop-opacity="0"/>
</linearGradient>
<linearGradient id="paint18_linear_1679_8939" x1="194.262" y1="56.1133" x2="194.262" y2="90.5192" gradientUnits="userSpaceOnUse">
<stop stop-color="#FF7A77"/>
<stop offset="1" stop-color="#DE5043"/>
</linearGradient>
</defs>
</svg>
