<svg width="265" height="138" viewBox="0 0 265 138" fill="none" xmlns="http://www.w3.org/2000/svg">
<path d="M211.138 96.731C211.85 98.1684 212.626 98.451 212.837 98.3815L197.779 63.5829L196.93 62.7578L211.138 96.731Z" fill="url(#paint0_linear_1679_9257)" fill-opacity="0.7"/>
<g filter="url(#filter0_f_1679_9257)">
<circle cx="194.884" cy="49.2303" r="25.2903" fill="url(#paint1_radial_1679_9257)" fill-opacity="0.1"/>
</g>
<g filter="url(#filter1_f_1679_9257)">
<circle cx="194.884" cy="49.23" r="16.7622" fill="url(#paint2_radial_1679_9257)" fill-opacity="0.2"/>
</g>
<path d="M242.818 44.8191C242.465 37.2908 238.064 30.1154 235.908 27.4688L200.472 49.2302L201.354 51.8769L242.818 44.8191Z" fill="url(#paint3_linear_1679_9257)" fill-opacity="0.2"/>
<path d="M257.165 25.8719C259.27 24.7431 258.055 23.9999 257.326 23.8537L200.746 49.3884L200.666 50.3973L257.165 25.8719Z" fill="url(#paint4_linear_1679_9257)" fill-opacity="0.2"/>
<path d="M205.339 3.26027C205.682 1.29365 205.512 0.306859 205.404 0.17078L196.291 45.716L196.258 47.2604L205.339 3.26027Z" fill="url(#paint5_linear_1679_9257)" fill-opacity="0.2"/>
<path d="M169.17 26.7029C168.207 25.7691 167.594 25.4905 167.478 25.4991L189.346 47.7804L190.192 48.3822L169.17 26.7029Z" fill="url(#paint6_linear_1679_9257)" fill-opacity="0.4"/>
<path d="M259.05 75.5352C261.634 76.2583 262.976 76.164 263.173 76.038L203.503 57.7155L201.443 57.4641L259.05 75.5352Z" fill="url(#paint7_linear_1679_9257)" fill-opacity="0.4"/>
<path d="M215.333 28.9217C215.854 28.1288 215.767 27.6481 215.669 27.5614L202.393 45.6389L202.225 46.3189L215.333 28.9217Z" fill="url(#paint8_linear_1679_9257)" fill-opacity="0.7"/>
<path d="M159.16 75.4544C157.945 76.1144 157.816 76.8226 157.917 77.0134L187.7 63.0275L188.321 62.2481L159.16 75.4544Z" fill="url(#paint9_linear_1679_9257)" fill-opacity="0.7"/>
<path d="M165.392 77.0417C167.066 81.1407 170.912 84.2492 172.626 85.291L187.973 66.2813L186.964 64.9892L165.392 77.0417Z" fill="url(#paint10_linear_1679_9257)" fill-opacity="0.2"/>
<path d="M209.316 8.61745C202.516 5.3688 194.112 5.85428 190.76 6.5031L193.18 48.017L195.929 48.4911L209.316 8.61745Z" fill="url(#paint11_linear_1679_9257)" fill-opacity="0.2"/>
<path d="M163.526 32.0557C159.694 35.8813 158.006 41.6888 157.641 44.1143L186.335 52.4379L187.316 50.6899L163.526 32.0557Z" fill="url(#paint12_linear_1679_9257)" fill-opacity="0.2"/>
<path d="M225.91 96.2326C232.985 92.0564 237.657 84.1587 239.109 80.7319L200.081 57.6723L197.98 59.8711L225.91 96.2326Z" fill="url(#paint13_linear_1679_9257)" fill-opacity="0.2"/>
<g filter="url(#filter2_f_1679_9257)">
<path d="M169.379 107.897C152.254 101.498 149.268 86.7068 156.491 76.9393C165.622 64.5918 165.341 53.3234 163.109 46.5422C160.322 38.075 153.007 26.778 130.714 28.0332C108.366 29.2914 100.867 40.0866 97.0998 46.5422C84.2847 50.1629 74.7908 59.2567 73.1598 68.2664C71.5288 77.2761 66.5193 79.8021 62.6747 80.3916C58.8302 80.981 36.5141 79.9479 29.1746 91.7363C23.3029 101.167 11.7579 99.34 14.0221 115.9C6.88123 122.49 12.1062 127.04 16.4603 127.04L251.934 127.04C249.837 117.188 231.905 113.703 224.068 107.897C217.636 103.134 220.822 99.6743 219.191 91.4225C217.56 83.1706 211.314 79.7353 205.606 78.5564C199.897 77.3776 200.495 83.2636 200.495 86.0331C200.495 92.9186 186.505 114.297 169.379 107.897Z" fill="url(#paint14_linear_1679_9257)" fill-opacity="0.15"/>
</g>
<path d="M163.418 111.584C148.96 105.587 146.44 91.7256 152.538 82.5724C160.246 71.0015 160.009 60.4417 158.125 54.0869C155.772 46.1523 149.597 35.5657 130.776 36.742C111.909 37.9211 105.578 48.0374 102.398 54.0869C91.5792 57.48 83.5642 66.0019 82.1872 74.445C80.8103 82.888 76.5811 85.2552 73.3354 85.8076C70.0898 86.3599 51.2499 85.3919 45.0537 96.4389C40.0967 105.276 30.3501 103.564 32.2615 119.083C26.233 125.258 30.644 129.522 34.32 129.522L233.114 129.522C231.343 120.29 216.204 117.024 209.588 111.584C204.158 107.119 206.848 103.878 205.471 96.1448C204.094 88.4119 198.821 85.1926 194.002 84.0879C189.183 82.9832 189.687 88.499 189.687 91.0944C189.687 97.5469 177.876 117.581 163.418 111.584Z" fill="url(#paint15_linear_1679_9257)" fill-opacity="0.6"/>
<path d="M18.4404 127.758C21.6752 122.905 26.3804 118.347 32.4089 118.053C31.8208 116.093 31.2326 111.319 33.5852 107.908C36.526 103.644 41.0841 102.761 44.9071 100.556C48.73 98.3502 45.7893 89.0869 54.9056 83.7936C62.1986 79.5589 71.1776 83.1074 74.7555 85.411C75.1476 75.7065 80.2841 55.8271 97.6933 53.945C104.506 42.3781 123.836 23.2143 146.657 39.0943C175.182 58.9443 144.304 93.2038 143.128 94.8212C141.951 96.4386 137.834 106.731 148.862 107.908C150.823 106.829 156.155 104.996 161.801 106.29C168.859 107.908 175.476 110.26 177.828 109.084C180.181 107.908 187.974 109.378 188.709 100.556C189.444 91.7335 185.033 88.6459 188.709 83.7936C192.385 78.9413 197.678 80.9999 202.089 85.411C206.501 89.822 209.882 105.555 210.323 107.908C217.479 108.055 232.555 112.436 235.614 128.787" stroke="#5EE1EA" stroke-width="0.294074"/>
<path d="M163.437 105.412C148.979 99.415 143.499 92.3134 149.597 83.1602C157.306 71.5893 157.069 61.0294 155.185 54.6747C152.832 46.74 149.597 37.0356 128.325 34.9479C108.396 32.992 96.9832 48.6251 93.8031 54.6747C82.9843 58.0677 80.6238 66.5897 79.2468 75.0327C77.8699 83.4758 73.6407 85.843 70.3951 86.3953C67.1494 86.9477 57.2157 85.6063 51.0195 96.6533C46.0625 105.491 50.8555 114.434 53.8717 117.8C48.2853 120.894 48.5934 127.296 49.4458 130.11H251.935C250.164 120.878 237.378 109.997 225.027 105.412C218.437 102.966 209.663 105.412 208.286 97.6791C206.909 89.9462 198.156 84.2649 193.337 83.1602C188.517 82.0555 185.862 85.2906 186.747 91.6821C187.632 98.0736 177.895 111.409 163.437 105.412Z" fill="url(#paint16_linear_1679_9257)" fill-opacity="0.73"/>
<path d="M119.366 56C127.403 56 131.327 62.3203 131.327 68.942C124.273 71.045 119.366 67.0007 118.599 64.4123C117.986 62.3416 117.359 57.9115 119.366 56Z" fill="#D9D9D9"/>
<path d="M130.343 63.6725C130.343 66.3523 128.728 68.5247 126.373 68.5247C124.018 68.5247 122.403 66.3523 122.403 63.6725C122.403 60.9927 124.168 58.8203 126.373 58.8203C128.579 58.8203 130.343 60.9927 130.343 63.6725Z" fill="#4A36C3"/>
<path d="M127.038 61.4239C127.073 61.3892 127.132 61.4056 127.144 61.4533L127.528 62.9652C127.533 62.9833 127.545 62.9986 127.562 63.0067L129.007 63.7051C129.053 63.7273 129.056 63.7919 129.011 63.8175L127.653 64.6033C127.636 64.6131 127.624 64.6302 127.621 64.6496L127.406 66.1746C127.399 66.224 127.341 66.2467 127.302 66.2147L126.073 65.1906C126.059 65.1789 126.04 65.1738 126.022 65.1766L124.439 65.4227C124.39 65.4304 124.351 65.3809 124.371 65.3349L124.975 63.9178C124.983 63.8997 124.982 63.8792 124.972 63.862L124.215 62.4908C124.19 62.4461 124.225 62.3919 124.276 62.3965L125.876 62.5402C125.894 62.5419 125.913 62.5352 125.926 62.522L127.038 61.4239Z" fill="#2D1D8E"/>
<path d="M140.629 71.0013C143 59.5 149.745 60.3657 152.098 60.1206C152.098 68.5017 148.422 71.2954 146.216 71.7365C144.452 72.0894 141.952 71.8345 140.629 71.0013Z" fill="#D9D9D9"/>
<mask id="mask0_1679_9257" style="mask-type:alpha" maskUnits="userSpaceOnUse" x="140" y="59" width="13" height="13">
<path d="M140.63 71.0015C141.501 59 150.187 59.9247 152.54 59.6797C152.54 68.0608 148.423 71.2956 146.217 71.7367C144.453 72.0896 141.953 71.8347 140.63 71.0015Z" fill="#D9D9D9"/>
</mask>
<g mask="url(#mask0_1679_9257)">
<ellipse cx="147.003" cy="66.0188" rx="3.59506" ry="4.61266" transform="rotate(7.04524 147.003 66.0188)" fill="black"/>
</g>
<path d="M113.825 42.7544C113.783 42.6321 113.84 42.5225 113.952 42.5095C114.064 42.4965 114.189 42.5851 114.231 42.7073C114.273 42.8296 114.217 42.9392 114.105 42.9522C113.993 42.9652 113.868 42.8766 113.825 42.7544Z" fill="#FDFFFF"/>
<path d="M118.986 39.6045C118.939 39.4706 119.001 39.3505 119.124 39.3362C119.247 39.322 119.384 39.419 119.43 39.553C119.476 39.6869 119.414 39.8069 119.291 39.8212C119.169 39.8354 119.032 39.7384 118.986 39.6045Z" fill="#FDFFFF"/>
<path d="M120.621 40.1313C120.559 39.9509 120.642 39.789 120.808 39.7698C120.973 39.7507 121.158 39.8814 121.22 40.0619C121.282 40.2424 121.199 40.4042 121.034 40.4234C120.868 40.4426 120.683 40.3118 120.621 40.1313Z" fill="#FDFFFF"/>
<path d="M123.248 38.0527C123.22 37.9712 123.257 37.8981 123.332 37.8895C123.407 37.8808 123.49 37.9399 123.518 38.0214C123.547 38.1029 123.509 38.176 123.434 38.1846C123.359 38.1933 123.276 38.1342 123.248 38.0527Z" fill="#FDFFFF"/>
<path d="M125.484 35.0248C125.394 34.7642 125.514 34.5304 125.753 34.5027C125.992 34.4751 126.259 34.6639 126.349 34.9245C126.439 35.1852 126.318 35.4189 126.079 35.4466C125.84 35.4743 125.574 35.2855 125.484 35.0248Z" fill="#FDFFFF"/>
<path d="M127.025 35.5195C126.995 35.4322 127.035 35.3539 127.115 35.3446C127.195 35.3353 127.284 35.3986 127.315 35.4859C127.345 35.5733 127.304 35.6516 127.224 35.6608C127.144 35.6701 127.055 35.6068 127.025 35.5195Z" fill="#FDFFFF"/>
<path d="M124.28 41.5157C124.232 41.3791 124.296 41.2566 124.421 41.2421C124.546 41.2276 124.686 41.3265 124.733 41.4631C124.78 41.5997 124.717 41.7222 124.592 41.7367C124.467 41.7512 124.327 41.6523 124.28 41.5157Z" fill="#FDFFFF"/>
<path d="M116.959 43.644C116.946 43.608 116.963 43.5757 116.996 43.5719C117.029 43.5681 117.066 43.5942 117.078 43.6302C117.091 43.6661 117.074 43.6984 117.041 43.7022C117.008 43.7061 116.971 43.68 116.959 43.644Z" fill="#FDFFFF"/>
<path d="M114.052 44.2562C114.002 44.1102 114.069 43.9793 114.203 43.9638C114.337 43.9483 114.486 44.054 114.537 44.2C114.587 44.346 114.519 44.4769 114.386 44.4924C114.252 44.5079 114.103 44.4022 114.052 44.2562Z" fill="#FDFFFF"/>
<path d="M116.458 41.8378C116.389 41.6354 116.482 41.4539 116.668 41.4324C116.853 41.4109 117.06 41.5575 117.13 41.7599C117.2 41.9624 117.106 42.1439 116.921 42.1654C116.735 42.1869 116.528 42.0402 116.458 41.8378Z" fill="#FDFFFF"/>
<path d="M118.967 42.0425C118.946 41.9816 118.974 41.927 119.03 41.9206C119.086 41.9141 119.148 41.9582 119.169 42.0191C119.19 42.08 119.162 42.1346 119.106 42.1411C119.05 42.1476 118.988 42.1034 118.967 42.0425Z" fill="#FDFFFF"/>
<path d="M116.414 35.3034C116.341 35.0929 116.439 34.9041 116.632 34.8818C116.824 34.8594 117.04 35.0119 117.113 35.2224C117.185 35.4329 117.088 35.6216 116.895 35.644C116.702 35.6664 116.487 35.5139 116.414 35.3034Z" fill="#FDFFFF"/>
<path d="M146.173 40.8085C146.07 40.5116 146.208 40.2454 146.48 40.2138C146.752 40.1823 147.056 40.3974 147.158 40.6943C147.261 40.9912 147.123 41.2575 146.851 41.289C146.579 41.3206 146.275 41.1055 146.173 40.8085Z" fill="#FDFFFF"/>
<path d="M120.612 35.0026C120.578 34.9041 120.624 34.8157 120.714 34.8053C120.805 34.7948 120.905 34.8662 120.939 34.9647C120.973 35.0632 120.928 35.1516 120.837 35.162C120.747 35.1725 120.646 35.1011 120.612 35.0026Z" fill="#FDFFFF"/>
<path d="M116.393 36.1686C116.361 36.0759 116.404 35.9928 116.489 35.9829C116.574 35.9731 116.669 36.0402 116.701 36.1329C116.733 36.2256 116.69 36.3088 116.605 36.3186C116.52 36.3285 116.425 36.2613 116.393 36.1686Z" fill="#FDFFFF"/>
<path d="M119.517 35.9742C119.487 35.8855 119.528 35.806 119.609 35.7966C119.69 35.7871 119.781 35.8514 119.812 35.94C119.842 36.0287 119.801 36.1082 119.72 36.1176C119.639 36.1271 119.548 36.0628 119.517 35.9742Z" fill="#FDFFFF"/>
<path d="M114.94 37.7982C114.893 37.6612 114.956 37.5383 115.082 37.5238C115.207 37.5092 115.347 37.6085 115.395 37.7455C115.442 37.8826 115.379 38.0055 115.253 38.02C115.127 38.0346 114.987 37.9353 114.94 37.7982Z" fill="#FDFFFF"/>
<path d="M134.378 33.9321C134.321 33.7646 134.398 33.6144 134.552 33.5966C134.705 33.5788 134.876 33.7001 134.934 33.8676C134.992 34.0351 134.915 34.1853 134.761 34.2031C134.608 34.2209 134.436 34.0996 134.378 33.9321Z" fill="#FDFFFF"/>
<path d="M137.109 33.7796C137.079 33.6932 137.119 33.6156 137.199 33.6065C137.278 33.5973 137.366 33.6599 137.396 33.7463C137.426 33.8328 137.386 33.9103 137.307 33.9195C137.228 33.9286 137.139 33.866 137.109 33.7796Z" fill="#FDFFFF"/>
<path d="M140.873 35.6657C140.838 35.5645 140.885 35.4738 140.978 35.463C141.071 35.4523 141.174 35.5256 141.209 35.6268C141.244 35.728 141.197 35.8188 141.105 35.8295C141.012 35.8403 140.908 35.7669 140.873 35.6657Z" fill="#FDFFFF"/>
<path d="M136.425 36.1467C136.384 36.0267 136.439 35.9191 136.549 35.9064C136.659 35.8936 136.782 35.9806 136.823 36.1006C136.865 36.2206 136.809 36.3282 136.699 36.341C136.589 36.3537 136.467 36.2668 136.425 36.1467Z" fill="#FDFFFF"/>
<path d="M133.127 37.5031C133.088 37.3916 133.14 37.2916 133.242 37.2798C133.344 37.2679 133.458 37.3487 133.497 37.4602C133.535 37.5717 133.484 37.6717 133.381 37.6836C133.279 37.6954 133.165 37.6146 133.127 37.5031Z" fill="#FDFFFF"/>
<path d="M144.832 42.4316C144.793 42.3197 144.845 42.2193 144.948 42.2074C145.05 42.1955 145.165 42.2766 145.203 42.3886C145.242 42.5005 145.19 42.601 145.088 42.6128C144.985 42.6247 144.871 42.5436 144.832 42.4316Z" fill="#FDFFFF"/>
<path d="M149.233 40.7093C149.186 40.5736 149.249 40.4519 149.374 40.4375C149.498 40.4231 149.637 40.5214 149.684 40.6571C149.731 40.7928 149.668 40.9145 149.543 40.9289C149.419 40.9433 149.28 40.845 149.233 40.7093Z" fill="#FDFFFF"/>
<path d="M138.528 43.541C138.462 43.3502 138.55 43.1791 138.725 43.1588C138.9 43.1386 139.095 43.2768 139.161 43.4676C139.227 43.6583 139.139 43.8294 138.964 43.8497C138.789 43.87 138.594 43.7317 138.528 43.541Z" fill="#FDFFFF"/>
<path d="M137.397 41.6943C137.373 41.6245 137.406 41.5618 137.47 41.5544C137.534 41.547 137.605 41.5976 137.629 41.6675C137.653 41.7373 137.621 41.8 137.557 41.8074C137.493 41.8148 137.421 41.7642 137.397 41.6943Z" fill="#FDFFFF"/>
<path d="M143.32 42.2435C143.292 42.1629 143.329 42.0906 143.403 42.082C143.477 42.0734 143.559 42.1318 143.587 42.2125C143.615 42.2931 143.578 42.3653 143.504 42.3739C143.43 42.3825 143.348 42.3241 143.32 42.2435Z" fill="#FDFFFF"/>
<path d="M146.161 43.0506C146.127 42.9525 146.173 42.8646 146.262 42.8541C146.352 42.8437 146.453 42.9148 146.487 43.0129C146.52 43.1109 146.475 43.1989 146.385 43.2093C146.295 43.2197 146.195 43.1487 146.161 43.0506Z" fill="#FDFFFF"/>
<path d="M118.748 44.3943C118.701 44.2739 118.586 44.2275 118.493 44.2905C118.399 44.3535 118.362 44.5021 118.409 44.6224C118.457 44.7428 118.571 44.7893 118.665 44.7262C118.758 44.6632 118.795 44.5146 118.748 44.3943Z" fill="#FDFFFF"/>
<path d="M112.78 45.3572C112.728 45.2254 112.603 45.1745 112.5 45.2435C112.398 45.3125 112.357 45.4753 112.409 45.6071C112.461 45.7389 112.586 45.7898 112.688 45.7207C112.791 45.6517 112.832 45.489 112.78 45.3572Z" fill="#FDFFFF"/>
<path d="M111.88 46.821C111.81 46.6434 111.641 46.5748 111.503 46.6678C111.365 46.7608 111.31 46.9802 111.38 47.1579C111.45 47.3355 111.619 47.4041 111.757 47.3111C111.895 47.2181 111.95 46.9987 111.88 46.821Z" fill="#FDFFFF"/>
<path d="M108.534 46.9507C108.502 46.8705 108.426 46.8395 108.364 46.8815C108.301 46.9235 108.276 47.0226 108.308 47.1028C108.34 47.183 108.416 47.214 108.478 47.172C108.541 47.13 108.565 47.0309 108.534 46.9507Z" fill="#FDFFFF"/>
<path d="M104.865 46.1047C104.764 45.8482 104.521 45.7491 104.321 45.8834C104.122 46.0178 104.042 46.3346 104.143 46.5912C104.244 46.8477 104.488 46.9468 104.687 46.8124C104.887 46.6781 104.966 46.3612 104.865 46.1047Z" fill="#FDFFFF"/>
<path d="M104.018 47.4827C103.984 47.3967 103.902 47.3635 103.835 47.4085C103.768 47.4535 103.742 47.5597 103.776 47.6456C103.809 47.7316 103.891 47.7648 103.958 47.7198C104.025 47.6748 104.051 47.5686 104.018 47.4827Z" fill="#FDFFFF"/>
<path d="M110.001 50.2521C109.948 50.1177 109.821 50.0658 109.716 50.1362C109.612 50.2066 109.57 50.3726 109.623 50.5071C109.676 50.6415 109.803 50.6934 109.908 50.623C110.013 50.5526 110.054 50.3866 110.001 50.2521Z" fill="#FDFFFF"/>
<path d="M116.947 47.108C116.933 47.0725 116.899 47.0589 116.871 47.0774C116.844 47.096 116.833 47.1397 116.847 47.1751C116.861 47.2105 116.894 47.2242 116.922 47.2057C116.949 47.1871 116.96 47.1434 116.947 47.108Z" fill="#FDFFFF"/>
<path d="M119.553 45.6817C119.496 45.538 119.36 45.4825 119.248 45.5578C119.136 45.633 119.092 45.8105 119.148 45.9542C119.205 46.0979 119.342 46.1534 119.453 46.0781C119.565 46.0029 119.61 45.8254 119.553 45.6817Z" fill="#FDFFFF"/>
<path d="M116.152 45.4104C116.074 45.2112 115.884 45.1342 115.729 45.2386C115.575 45.3429 115.513 45.5889 115.591 45.7882C115.67 45.9874 115.859 46.0644 116.014 45.96C116.169 45.8557 116.231 45.6096 116.152 45.4104Z" fill="#FDFFFF"/>
<path d="M114.38 47.1972C114.356 47.1373 114.299 47.1141 114.253 47.1455C114.206 47.1769 114.187 47.2509 114.211 47.3109C114.235 47.3708 114.292 47.394 114.338 47.3626C114.385 47.3312 114.404 47.2572 114.38 47.1972Z" fill="#FDFFFF"/>
<path d="M111.935 40.4181C111.854 40.2109 111.657 40.1309 111.496 40.2394C111.335 40.3479 111.27 40.6038 111.352 40.8109C111.434 41.0181 111.631 41.0981 111.792 40.9896C111.953 40.8811 112.017 40.6253 111.935 40.4181Z" fill="#FDFFFF"/>
<path d="M92.9121 63.9538C92.7968 63.6616 92.5193 63.5487 92.292 63.7018C92.0648 63.8548 91.974 64.2157 92.0892 64.508C92.2045 64.8002 92.482 64.9131 92.7093 64.76C92.9365 64.607 93.0273 64.2461 92.9121 63.9538Z" fill="#FDFFFF"/>
<path d="M108.551 42.9198C108.513 42.8229 108.421 42.7854 108.346 42.8362C108.27 42.887 108.24 43.0068 108.278 43.1037C108.317 43.2007 108.409 43.2381 108.484 43.1874C108.56 43.1366 108.59 43.0168 108.551 42.9198Z" fill="#FDFFFF"/>
<path d="M112.515 41.0617C112.479 40.9705 112.392 40.9352 112.321 40.983C112.25 41.0308 112.222 41.1435 112.258 41.2347C112.294 41.3259 112.381 41.3612 112.452 41.3134C112.523 41.2656 112.551 41.1529 112.515 41.0617Z" fill="#FDFFFF"/>
<path d="M110.015 42.9455C109.981 42.8583 109.898 42.8246 109.83 42.8703C109.762 42.916 109.735 43.0238 109.77 43.111C109.804 43.1983 109.887 43.232 109.955 43.1863C110.023 43.1406 110.05 43.0328 110.015 42.9455Z" fill="#FDFFFF"/>
<path d="M114.678 41.3545C114.625 41.2196 114.497 41.1675 114.392 41.2382C114.287 41.3088 114.245 41.4754 114.298 41.6103C114.351 41.7451 114.48 41.7972 114.584 41.7266C114.689 41.656 114.731 41.4894 114.678 41.3545Z" fill="#FDFFFF"/>
<path d="M97.3982 51.0603C97.3332 50.8954 97.1766 50.8318 97.0485 50.9181C96.9203 51.0044 96.8691 51.208 96.9341 51.3729C96.9991 51.5377 97.1557 51.6014 97.2838 51.5151C97.412 51.4288 97.4632 51.2251 97.3982 51.0603Z" fill="#FDFFFF"/>
<path d="M95.2257 52.7198C95.1921 52.6347 95.1113 52.6019 95.0452 52.6464C94.979 52.691 94.9526 52.7961 94.9862 52.8811C95.0197 52.9662 95.1005 52.999 95.1666 52.9545C95.2328 52.91 95.2592 52.8049 95.2257 52.7198Z" fill="#FDFFFF"/>
<path d="M93.5922 56.601C93.5529 56.5013 93.4583 56.4629 93.3808 56.515C93.3034 56.5672 93.2724 56.6902 93.3117 56.7898C93.351 56.8895 93.4456 56.9279 93.523 56.8758C93.6005 56.8236 93.6315 56.7006 93.5922 56.601Z" fill="#FDFFFF"/>
<path d="M97.2834 54.0734C97.2369 53.9552 97.1247 53.9096 97.0328 53.9715C96.941 54.0333 96.9043 54.1792 96.9508 54.2974C96.9974 54.4155 97.1096 54.4611 97.2015 54.3992C97.2933 54.3374 97.33 54.1915 97.2834 54.0734Z" fill="#FDFFFF"/>
<path d="M100.672 52.9584C100.629 52.8487 100.525 52.8063 100.439 52.8638C100.354 52.9212 100.32 53.0568 100.363 53.1665C100.406 53.2763 100.511 53.3186 100.596 53.2612C100.681 53.2037 100.715 53.0682 100.672 52.9584Z" fill="#FDFFFF"/>
<path d="M94.9865 64.3151C94.943 64.2049 94.8384 64.1624 94.7527 64.2201C94.667 64.2778 94.6328 64.4139 94.6762 64.5241C94.7197 64.6343 94.8243 64.6769 94.91 64.6192C94.9957 64.5615 95.0299 64.4253 94.9865 64.3151Z" fill="#FDFFFF"/>
<path d="M90.5229 65.8697C90.4702 65.7361 90.3434 65.6845 90.2395 65.7545C90.1357 65.8244 90.0942 65.9894 90.1468 66.1229C90.1995 66.2565 90.3264 66.3081 90.4302 66.2381C90.534 66.1682 90.5755 66.0032 90.5229 65.8697Z" fill="#FDFFFF"/>
<path d="M100.495 61.0579C100.421 60.8701 100.243 60.7976 100.097 60.8959C99.9509 60.9942 99.8925 61.2262 99.9666 61.4139C100.041 61.6017 100.219 61.6742 100.365 61.5759C100.511 61.4776 100.569 61.2456 100.495 61.0579Z" fill="#FDFFFF"/>
<path d="M100.154 58.9194C100.127 58.8507 100.062 58.8241 100.008 58.8601C99.9549 58.8961 99.9336 58.9811 99.9607 59.0498C99.9878 59.1186 100.053 59.1451 100.107 59.1091C100.16 59.0731 100.181 58.9882 100.154 58.9194Z" fill="#FDFFFF"/>
<path d="M96.0125 63.1883C95.9812 63.109 95.9058 63.0784 95.8441 63.1199C95.7824 63.1614 95.7578 63.2594 95.7891 63.3388C95.8204 63.4181 95.8957 63.4487 95.9574 63.4072C96.0191 63.3657 96.0437 63.2677 96.0125 63.1883Z" fill="#FDFFFF"/>
<path d="M94.3787 65.65C94.3406 65.5535 94.2489 65.5162 94.1739 65.5667C94.0988 65.6173 94.0688 65.7365 94.1069 65.833C94.1449 65.9296 94.2366 65.9668 94.3117 65.9163C94.3867 65.8657 94.4167 65.7465 94.3787 65.65Z" fill="#FDFFFF"/>
<path d="M54.1425 105.128C54.0951 105.008 53.9808 104.961 53.8873 105.024C53.7937 105.087 53.7563 105.236 53.8037 105.356C53.8512 105.477 53.9655 105.523 54.059 105.46C54.1526 105.397 54.19 105.248 54.1425 105.128Z" fill="#FDFFFF"/>
<path d="M48.1735 106.091C48.1215 105.959 47.9963 105.908 47.8939 105.977C47.7914 106.046 47.7504 106.209 47.8024 106.341C47.8544 106.473 47.9796 106.524 48.082 106.455C48.1845 106.386 48.2254 106.223 48.1735 106.091Z" fill="#FDFFFF"/>
<path d="M47.2747 107.555C47.2047 107.377 47.0359 107.309 46.8978 107.402C46.7597 107.495 46.7045 107.714 46.7746 107.892C46.8446 108.069 47.0133 108.138 47.1514 108.045C47.2895 107.952 47.3447 107.733 47.2747 107.555Z" fill="#FDFFFF"/>
<path d="M43.9274 107.685C43.8958 107.604 43.8196 107.573 43.7572 107.615C43.6948 107.657 43.6699 107.756 43.7015 107.837C43.7332 107.917 43.8093 107.948 43.8717 107.906C43.9341 107.864 43.959 107.765 43.9274 107.685Z" fill="#FDFFFF"/>
<path d="M40.2599 106.839C40.1587 106.582 39.915 106.483 39.7156 106.617C39.5161 106.752 39.4364 107.069 39.5376 107.325C39.6387 107.582 39.8824 107.681 40.0818 107.546C40.2813 107.412 40.361 107.095 40.2599 106.839Z" fill="#FDFFFF"/>
<path d="M39.4111 108.217C39.3772 108.131 39.2956 108.097 39.2288 108.142C39.1619 108.187 39.1352 108.294 39.1691 108.38C39.203 108.465 39.2846 108.499 39.3515 108.454C39.4183 108.409 39.445 108.303 39.4111 108.217Z" fill="#FDFFFF"/>
<path d="M45.3958 110.986C45.3428 110.852 45.2151 110.8 45.1106 110.87C45.0061 110.94 44.9643 111.107 45.0173 111.241C45.0703 111.375 45.198 111.427 45.3025 111.357C45.4071 111.287 45.4488 111.12 45.3958 110.986Z" fill="#FDFFFF"/>
<path d="M52.3411 107.842C52.3271 107.806 52.2934 107.793 52.2659 107.811C52.2384 107.83 52.2274 107.874 52.2413 107.909C52.2553 107.944 52.2889 107.958 52.3165 107.94C52.344 107.921 52.355 107.877 52.3411 107.842Z" fill="#FDFFFF"/>
<path d="M54.9475 106.416C54.8909 106.272 54.7544 106.216 54.6427 106.292C54.5309 106.367 54.4863 106.544 54.5429 106.688C54.5996 106.832 54.7361 106.887 54.8478 106.812C54.9595 106.737 55.0042 106.559 54.9475 106.416Z" fill="#FDFFFF"/>
<path d="M51.5467 106.144C51.4681 105.945 51.2789 105.868 51.124 105.972C50.9691 106.076 50.9072 106.322 50.9857 106.522C51.0643 106.721 51.2535 106.798 51.4084 106.693C51.5633 106.589 51.6252 106.343 51.5467 106.144Z" fill="#FDFFFF"/>
<path d="M49.7744 107.931C49.7508 107.871 49.6939 107.848 49.6472 107.879C49.6006 107.911 49.582 107.985 49.6056 108.045C49.6293 108.105 49.6862 108.128 49.7328 108.096C49.7794 108.065 49.7981 107.991 49.7744 107.931Z" fill="#FDFFFF"/>
<path d="M47.3299 101.152C47.2483 100.945 47.0515 100.865 46.8904 100.973C46.7293 101.082 46.665 101.338 46.7467 101.545C46.8283 101.752 47.0251 101.832 47.1862 101.724C47.3472 101.615 47.4116 101.359 47.3299 101.152Z" fill="#FDFFFF"/>
<path d="M28.3066 124.688C28.1914 124.395 27.9138 124.283 27.6866 124.436C27.4594 124.589 27.3686 124.95 27.4838 125.242C27.599 125.534 27.8766 125.647 28.1038 125.494C28.331 125.341 28.4218 124.98 28.3066 124.688Z" fill="#FDFFFF"/>
<path d="M43.946 103.654C43.9078 103.557 43.8157 103.519 43.7403 103.57C43.6649 103.621 43.6347 103.741 43.673 103.838C43.7112 103.935 43.8033 103.972 43.8787 103.921C43.9541 103.87 43.9842 103.751 43.946 103.654Z" fill="#FDFFFF"/>
<path d="M47.9086 101.796C47.8726 101.704 47.7859 101.669 47.715 101.717C47.644 101.765 47.6157 101.877 47.6517 101.969C47.6876 102.06 47.7743 102.095 47.8452 102.047C47.9162 102 47.9445 101.887 47.9086 101.796Z" fill="#FDFFFF"/>
<path d="M45.41 103.679C45.3756 103.592 45.2927 103.558 45.2248 103.604C45.157 103.65 45.1299 103.758 45.1643 103.845C45.1987 103.932 45.2816 103.966 45.3494 103.92C45.4173 103.874 45.4444 103.767 45.41 103.679Z" fill="#FDFFFF"/>
<path d="M50.0725 102.088C50.0194 101.954 49.8912 101.901 49.7864 101.972C49.6815 102.043 49.6396 102.209 49.6928 102.344C49.746 102.479 49.8741 102.531 49.9789 102.46C50.0838 102.39 50.1257 102.223 50.0725 102.088Z" fill="#FDFFFF"/>
<path d="M32.7928 111.794C32.7278 111.629 32.5712 111.566 32.443 111.652C32.3148 111.738 32.2636 111.942 32.3286 112.107C32.3936 112.272 32.5502 112.335 32.6784 112.249C32.8065 112.163 32.8578 111.959 32.7928 111.794Z" fill="#FDFFFF"/>
<path d="M30.6192 113.454C30.5857 113.369 30.5049 113.336 30.4387 113.38C30.3726 113.425 30.3462 113.53 30.3797 113.615C30.4132 113.7 30.494 113.733 30.5602 113.688C30.6263 113.644 30.6528 113.539 30.6192 113.454Z" fill="#FDFFFF"/>
<path d="M28.9867 117.335C28.9474 117.235 28.8528 117.197 28.7754 117.249C28.6979 117.301 28.667 117.424 28.7062 117.524C28.7455 117.623 28.8401 117.662 28.9176 117.61C28.995 117.557 29.026 117.434 28.9867 117.335Z" fill="#FDFFFF"/>
<path d="M32.678 114.807C32.6314 114.689 32.5192 114.644 32.4274 114.705C32.3355 114.767 32.2988 114.913 32.3454 115.031C32.3919 115.149 32.5041 115.195 32.596 115.133C32.6878 115.071 32.7245 114.925 32.678 114.807Z" fill="#FDFFFF"/>
<path d="M36.0656 113.692C36.0224 113.583 35.9181 113.54 35.8328 113.598C35.7475 113.655 35.7134 113.791 35.7566 113.9C35.7999 114.01 35.9041 114.053 35.9895 113.995C36.0748 113.938 36.1089 113.802 36.0656 113.692Z" fill="#FDFFFF"/>
<path d="M30.381 125.049C30.3376 124.939 30.2329 124.896 30.1472 124.954C30.0615 125.012 30.0273 125.148 30.0707 125.258C30.1142 125.368 30.2189 125.411 30.3045 125.353C30.3902 125.295 30.4245 125.159 30.381 125.049Z" fill="#FDFFFF"/>
<path d="M25.9174 126.604C25.8648 126.47 25.7379 126.418 25.6341 126.488C25.5302 126.558 25.4887 126.723 25.5414 126.857C25.594 126.99 25.7209 127.042 25.8247 126.972C25.9286 126.902 25.9701 126.737 25.9174 126.604Z" fill="#FDFFFF"/>
<path d="M35.8898 121.792C35.8157 121.604 35.6374 121.531 35.4914 121.63C35.3454 121.728 35.2871 121.96 35.3611 122.148C35.4351 122.336 35.6135 122.408 35.7595 122.31C35.9054 122.211 35.9638 121.98 35.8898 121.792Z" fill="#FDFFFF"/>
<path d="M35.5488 119.653C35.5217 119.585 35.4564 119.558 35.4029 119.594C35.3495 119.63 35.3281 119.715 35.3552 119.784C35.3823 119.852 35.4476 119.879 35.5011 119.843C35.5546 119.807 35.5759 119.722 35.5488 119.653Z" fill="#FDFFFF"/>
<path d="M31.407 123.922C31.3757 123.843 31.3004 123.812 31.2387 123.854C31.177 123.895 31.1523 123.993 31.1836 124.073C31.2149 124.152 31.2902 124.183 31.3519 124.141C31.4136 124.1 31.4383 124.002 31.407 123.922Z" fill="#FDFFFF"/>
<path d="M29.7732 126.384C29.7351 126.287 29.6434 126.25 29.5684 126.301C29.4933 126.351 29.4634 126.47 29.5014 126.567C29.5395 126.663 29.6312 126.701 29.7062 126.65C29.7813 126.6 29.8113 126.48 29.7732 126.384Z" fill="#FDFFFF"/>
<path d="M80.2977 71.5839C80.2186 71.5483 80.193 71.47 80.2406 71.409C80.2882 71.3479 80.3909 71.3273 80.47 71.3628C80.5491 71.3984 80.5747 71.4767 80.5271 71.5378C80.4796 71.5988 80.3769 71.6194 80.2977 71.5839Z" fill="#EEFFFD"/>
<path d="M81.2599 67.5978C81.1732 67.5589 81.1452 67.4731 81.1973 67.4062C81.2494 67.3394 81.3619 67.3168 81.4485 67.3557C81.5352 67.3947 81.5632 67.4805 81.5111 67.5473C81.459 67.6142 81.3465 67.6368 81.2599 67.5978Z" fill="#EEFFFD"/>
<path d="M82.2989 67.0374C82.182 66.9849 82.1443 66.8693 82.2145 66.7792C82.2847 66.6891 82.4363 66.6586 82.5532 66.7111C82.67 66.7636 82.7077 66.8792 82.6375 66.9693C82.5673 67.0594 82.4157 67.0899 82.2989 67.0374Z" fill="#EEFFFD"/>
<path d="M82.5602 64.789C82.5074 64.7653 82.4903 64.7131 82.5221 64.6724C82.5538 64.6317 82.6222 64.6179 82.675 64.6416C82.7277 64.6654 82.7448 64.7176 82.7131 64.7582C82.6814 64.7989 82.6129 64.8127 82.5602 64.789Z" fill="#EEFFFD"/>
<path d="M82.1769 62.2958C82.0082 62.22 81.9537 62.0531 82.0551 61.923C82.1565 61.7928 82.3755 61.7488 82.5442 61.8246C82.7129 61.9004 82.7674 62.0674 82.666 62.1975C82.5646 62.3276 82.3456 62.3717 82.1769 62.2958Z" fill="#EEFFFD"/>
<path d="M83.1555 61.7667C83.099 61.7413 83.0807 61.6853 83.1147 61.6417C83.1486 61.5981 83.222 61.5834 83.2785 61.6088C83.335 61.6342 83.3533 61.6901 83.3193 61.7337C83.2854 61.7773 83.212 61.7921 83.1555 61.7667Z" fill="#EEFFFD"/>
<path d="M84.7227 65.8771C84.6343 65.8374 84.6057 65.7499 84.6588 65.6817C84.712 65.6135 84.8267 65.5905 84.9151 65.6302C85.0035 65.6699 85.0321 65.7574 84.979 65.8256C84.9258 65.8938 84.8111 65.9169 84.7227 65.8771Z" fill="#EEFFFD"/>
<path d="M82.2313 70.4543C82.208 70.4438 82.2005 70.4208 82.2145 70.4028C82.2285 70.3849 82.2588 70.3788 82.282 70.3892C82.3053 70.3997 82.3129 70.4228 82.2989 70.4407C82.2849 70.4587 82.2546 70.4648 82.2313 70.4543Z" fill="#EEFFFD"/>
<path d="M81.1291 72.1646C81.0346 72.1221 81.004 72.0286 81.0608 71.9557C81.1176 71.8828 81.2403 71.8582 81.3348 71.9006C81.4293 71.9431 81.4598 72.0366 81.403 72.1095C81.3462 72.1824 81.2235 72.2071 81.1291 72.1646Z" fill="#EEFFFD"/>
<path d="M81.1211 69.8682C80.9901 69.8093 80.9478 69.6797 81.0265 69.5786C81.1053 69.4776 81.2753 69.4434 81.4063 69.5023C81.5373 69.5612 81.5797 69.6908 81.5009 69.7919C81.4222 69.8929 81.2521 69.9271 81.1211 69.8682Z" fill="#EEFFFD"/>
<path d="M82.4248 68.7299C82.3854 68.7122 82.3727 68.6732 82.3964 68.6428C82.4201 68.6123 82.4712 68.6021 82.5107 68.6198C82.5501 68.6375 82.5628 68.6765 82.5391 68.7069C82.5154 68.7373 82.4642 68.7476 82.4248 68.7299Z" fill="#EEFFFD"/>
<path d="M77.9548 66.8805C77.8186 66.8193 77.7745 66.6845 77.8564 66.5794C77.9383 66.4743 78.1152 66.4387 78.2514 66.5C78.3876 66.5612 78.4317 66.696 78.3498 66.8011C78.2679 66.9062 78.091 66.9417 77.9548 66.8805Z" fill="#EEFFFD"/>
<path d="M94.8987 54.7945C94.7066 54.7081 94.6444 54.5179 94.76 54.3697C94.8755 54.2215 95.1249 54.1713 95.3171 54.2577C95.5093 54.344 95.5714 54.5342 95.4559 54.6825C95.3403 54.8307 95.0909 54.8808 94.8987 54.7945Z" fill="#EEFFFD"/>
<path d="M79.8268 64.679C79.763 64.6503 79.7424 64.5872 79.7807 64.538C79.8191 64.4888 79.9018 64.4722 79.9656 64.5008C80.0294 64.5295 80.05 64.5926 80.0116 64.6418C79.9733 64.691 79.8905 64.7076 79.8268 64.679Z" fill="#EEFFFD"/>
<path d="M78.3613 67.2892C78.3013 67.2622 78.2819 67.2028 78.318 67.1566C78.3541 67.1103 78.432 67.0946 78.492 67.1216C78.552 67.1486 78.5713 67.2079 78.5353 67.2542C78.4992 67.3005 78.4213 67.3161 78.3613 67.2892Z" fill="#EEFFFD"/>
<path d="M79.7682 65.6644C79.7108 65.6386 79.6923 65.5818 79.7268 65.5375C79.7613 65.4933 79.8358 65.4783 79.8932 65.5041C79.9505 65.5299 79.9691 65.5867 79.9346 65.6309C79.9001 65.6752 79.8256 65.6902 79.7682 65.6644Z" fill="#EEFFFD"/>
<path d="M78.4471 68.7537C78.3584 68.7138 78.3297 68.6261 78.383 68.5576C78.4364 68.4892 78.5515 68.4661 78.6402 68.5059C78.7289 68.5458 78.7576 68.6336 78.7042 68.702C78.6509 68.7704 78.5358 68.7936 78.4471 68.7537Z" fill="#EEFFFD"/>
<path d="M85.9242 57.4216C85.8157 57.3729 85.7807 57.2656 85.8459 57.182C85.911 57.0984 86.0518 57.0701 86.1602 57.1188C86.2686 57.1675 86.3036 57.2748 86.2384 57.3584C86.1733 57.4421 86.0326 57.4703 85.9242 57.4216Z" fill="#EEFFFD"/>
<path d="M87.1617 56.0102C87.1058 55.985 87.0877 55.9296 87.1213 55.8865C87.1549 55.8433 87.2275 55.8287 87.2835 55.8539C87.3394 55.879 87.3575 55.9344 87.3239 55.9775C87.2902 56.0207 87.2176 56.0353 87.1617 56.0102Z" fill="#EEFFFD"/>
<path d="M89.8775 55.0296C89.812 55.0001 89.7908 54.9353 89.8302 54.8848C89.8695 54.8343 89.9546 54.8172 90.0201 54.8466C90.0856 54.876 90.1067 54.9409 90.0674 54.9914C90.028 55.0419 89.943 55.059 89.8775 55.0296Z" fill="#EEFFFD"/>
<path d="M87.9735 57.436C87.8958 57.4011 87.8707 57.3242 87.9174 57.2643C87.9641 57.2044 88.0649 57.1841 88.1426 57.219C88.2202 57.2539 88.2453 57.3308 88.1986 57.3907C88.1519 57.4506 88.0511 57.4709 87.9735 57.436Z" fill="#EEFFFD"/>
<path d="M87.0413 59.6819C86.9691 59.6495 86.9458 59.5781 86.9892 59.5224C87.0326 59.4667 87.1263 59.4479 87.1984 59.4803C87.2706 59.5128 87.2939 59.5842 87.2505 59.6399C87.2071 59.6955 87.1135 59.7144 87.0413 59.6819Z" fill="#EEFFFD"/>
<path d="M95.0362 56.2011C94.9638 56.1685 94.9403 56.0968 94.9839 56.0409C95.0275 55.985 95.1215 55.9661 95.194 55.9986C95.2664 56.0312 95.2899 56.1029 95.2463 56.1588C95.2028 56.2147 95.1087 56.2336 95.0362 56.2011Z" fill="#EEFFFD"/>
<path d="M96.3216 53.2446C96.2338 53.2052 96.2054 53.1183 96.2582 53.0505C96.311 52.9828 96.425 52.9599 96.5129 52.9993C96.6007 53.0388 96.6291 53.1257 96.5763 53.1935C96.5235 53.2612 96.4095 53.2841 96.3216 53.2446Z" fill="#EEFFFD"/>
<path d="M92.5418 59.8089C92.4183 59.7534 92.3784 59.6312 92.4526 59.5359C92.5269 59.4407 92.6871 59.4085 92.8106 59.464C92.9341 59.5195 92.974 59.6417 92.8998 59.7369C92.8255 59.8321 92.6653 59.8644 92.5418 59.8089Z" fill="#EEFFFD"/>
<path d="M91.1097 59.5138C91.0645 59.4935 91.0499 59.4488 91.0771 59.4139C91.1043 59.379 91.163 59.3672 91.2082 59.3875C91.2534 59.4078 91.268 59.4526 91.2408 59.4875C91.2136 59.5223 91.1549 59.5341 91.1097 59.5138Z" fill="#EEFFFD"/>
<path d="M94.2197 56.8572C94.1675 56.8337 94.1507 56.7821 94.182 56.7419C94.2134 56.7016 94.2811 56.688 94.3333 56.7115C94.3854 56.7349 94.4023 56.7865 94.3709 56.8268C94.3396 56.867 94.2719 56.8806 94.2197 56.8572Z" fill="#EEFFFD"/>
<path d="M95.9725 55.8327C95.909 55.8042 95.8885 55.7413 95.9266 55.6924C95.9648 55.6434 96.0472 55.6268 96.1107 55.6554C96.1741 55.6839 96.1946 55.7467 96.1565 55.7957C96.1183 55.8447 96.0359 55.8612 95.9725 55.8327Z" fill="#EEFFFD"/>
<path d="M49.1494 96.6498C49.0779 96.5862 49.0718 96.4946 49.1359 96.4452C49.1999 96.3958 49.3098 96.4073 49.3813 96.4708C49.4528 96.5344 49.4588 96.626 49.3948 96.6754C49.3308 96.7249 49.2209 96.7134 49.1494 96.6498Z" fill="#EEFFFD"/>
<path d="M51.1472 92.7238C51.0689 92.6541 51.0622 92.5538 51.1324 92.4997C51.2025 92.4455 51.3228 92.4581 51.4012 92.5277C51.4795 92.5974 51.4861 92.6977 51.416 92.7518C51.3459 92.806 51.2255 92.7934 51.1472 92.7238Z" fill="#EEFFFD"/>
<path d="M52.3484 92.4654C52.2429 92.3716 52.2339 92.2363 52.3284 92.1634C52.423 92.0904 52.5851 92.1073 52.6907 92.2012C52.7963 92.295 52.8052 92.4302 52.7107 92.5032C52.6162 92.5762 52.454 92.5592 52.3484 92.4654Z" fill="#EEFFFD"/>
<path d="M53.1888 90.1598C53.1411 90.1174 53.1371 90.0563 53.1798 90.0234C53.2225 89.9904 53.2957 89.9981 53.3434 90.0405C53.391 90.0828 53.3951 90.1439 53.3524 90.1768C53.3097 90.2098 53.2365 90.2022 53.1888 90.1598Z" fill="#EEFFFD"/>
<path d="M53.4347 87.3842C53.2823 87.2487 53.2693 87.0534 53.4058 86.948C53.5423 86.8427 53.7766 86.8671 53.929 87.0026C54.0815 87.1382 54.0944 87.3335 53.9579 87.4388C53.8214 87.5442 53.5872 87.5198 53.4347 87.3842Z" fill="#EEFFFD"/>
<path d="M54.5661 87.1394C54.515 87.094 54.5107 87.0285 54.5564 86.9932C54.6022 86.9579 54.6807 86.9661 54.7317 87.0115C54.7828 87.0569 54.7871 87.1224 54.7414 87.1577C54.6957 87.193 54.6172 87.1848 54.5661 87.1394Z" fill="#EEFFFD"/>
<path d="M55.1129 92.0206C55.033 91.9496 55.0262 91.8472 55.0978 91.792C55.1693 91.7368 55.2921 91.7496 55.3719 91.8206C55.4518 91.8916 55.4586 91.994 55.3871 92.0492C55.3155 92.1044 55.1928 92.0916 55.1129 92.0206Z" fill="#EEFFFD"/>
<path d="M51.4063 96.0774C51.3853 96.0587 51.3835 96.0317 51.4023 96.0172C51.4212 96.0026 51.4535 96.006 51.4746 96.0247C51.4956 96.0434 51.4974 96.0704 51.4786 96.0849C51.4597 96.0995 51.4274 96.0961 51.4063 96.0774Z" fill="#EEFFFD"/>
<path d="M49.8478 97.5377C49.7624 97.4618 49.7552 97.3524 49.8316 97.2934C49.9081 97.2344 50.0393 97.2481 50.1247 97.324C50.2101 97.3999 50.2173 97.5093 50.1408 97.5683C50.0644 97.6273 49.9332 97.6136 49.8478 97.5377Z" fill="#EEFFFD"/>
<path d="M50.4261 95.0926C50.3077 94.9873 50.2977 94.8357 50.4037 94.7538C50.5097 94.672 50.6916 94.691 50.81 94.7962C50.9284 94.9015 50.9385 95.0532 50.8325 95.135C50.7264 95.2168 50.5445 95.1978 50.4261 95.0926Z" fill="#EEFFFD"/>
<path d="M52.0446 94.3067C52.009 94.2751 52.006 94.2294 52.0378 94.2048C52.0697 94.1802 52.1245 94.1859 52.1601 94.2176C52.1957 94.2492 52.1988 94.2949 52.1669 94.3195C52.135 94.3441 52.0802 94.3384 52.0446 94.3067Z" fill="#EEFFFD"/>
<path d="M47.9638 90.8849C47.8407 90.7754 47.8303 90.6177 47.9405 90.5326C48.0508 90.4475 48.2399 90.4673 48.363 90.5767C48.4861 90.6862 48.4966 90.8439 48.3863 90.929C48.2761 91.0141 48.0869 90.9943 47.9638 90.8849Z" fill="#EEFFFD"/>
<path d="M68.306 83.5467C68.1324 83.3924 68.1176 83.1699 68.2731 83.0499C68.4286 82.9298 68.6955 82.9577 68.8692 83.1121C69.0428 83.2664 69.0575 83.4889 68.902 83.6089C68.7465 83.729 68.4797 83.7011 68.306 83.5467Z" fill="#EEFFFD"/>
<path d="M50.4324 89.153C50.3748 89.1018 50.3699 89.028 50.4215 88.9882C50.4731 88.9483 50.5617 88.9576 50.6193 89.0088C50.6769 89.06 50.6818 89.1339 50.6302 89.1737C50.5786 89.2135 50.4901 89.2043 50.4324 89.153Z" fill="#EEFFFD"/>
<path d="M48.2739 91.4523C48.2196 91.4041 48.215 91.3346 48.2636 91.2971C48.3121 91.2596 48.3955 91.2683 48.4497 91.3165C48.5039 91.3647 48.5085 91.4342 48.4599 91.4717C48.4114 91.5091 48.3281 91.5005 48.2739 91.4523Z" fill="#EEFFFD"/>
<path d="M50.1217 90.1826C50.0699 90.1365 50.0655 90.07 50.1119 90.0342C50.1583 89.9983 50.238 90.0066 50.2899 90.0528C50.3417 90.0989 50.3461 90.1653 50.2997 90.2011C50.2533 90.237 50.1736 90.2287 50.1217 90.1826Z" fill="#EEFFFD"/>
<path d="M47.9875 93.0374C47.9074 92.9662 47.9006 92.8635 47.9724 92.8081C48.0441 92.7527 48.1673 92.7655 48.2474 92.8368C48.3276 92.9081 48.3344 93.0107 48.2626 93.0661C48.1909 93.1215 48.0677 93.1087 47.9875 93.0374Z" fill="#EEFFFD"/>
<path d="M58.4952 83.4195C58.3972 83.3325 58.3889 83.207 58.4766 83.1392C58.5644 83.0715 58.7149 83.0872 58.8128 83.1743C58.9108 83.2614 58.9191 83.3869 58.8314 83.4546C58.7437 83.5223 58.5932 83.5066 58.4952 83.4195Z" fill="#EEFFFD"/>
<path d="M60.1166 82.3215C60.0661 82.2766 60.0618 82.2118 60.107 82.1769C60.1523 82.1419 60.23 82.1501 60.2805 82.195C60.3311 82.2399 60.3354 82.3047 60.2901 82.3396C60.2448 82.3746 60.1672 82.3665 60.1166 82.3215Z" fill="#EEFFFD"/>
<path d="M63.1325 82.1623C63.0733 82.1096 63.0683 82.0338 63.1213 81.9929C63.1743 81.952 63.2653 81.9615 63.3245 82.0141C63.3837 82.0667 63.3887 82.1425 63.3357 82.1835C63.2827 82.2244 63.1917 82.2149 63.1325 82.1623Z" fill="#EEFFFD"/>
<path d="M60.5779 84.1018C60.5077 84.0394 60.5017 83.9495 60.5646 83.9009C60.6275 83.8524 60.7353 83.8637 60.8055 83.9261C60.8757 83.9885 60.8817 84.0784 60.8188 84.1269C60.7559 84.1754 60.6481 84.1642 60.5779 84.1018Z" fill="#EEFFFD"/>
<path d="M59.0562 86.1867C58.9909 86.1287 58.9854 86.0452 59.0438 86.0001C59.1022 85.955 59.2024 85.9655 59.2677 86.0234C59.3329 86.0814 59.3384 86.165 59.28 86.21C59.2216 86.2551 59.1214 86.2447 59.0562 86.1867Z" fill="#EEFFFD"/>
<path d="M68.0861 85.0873C68.0206 85.0291 68.015 84.9452 68.0737 84.8999C68.1323 84.8547 68.2329 84.8652 68.2984 84.9234C68.3639 84.9816 68.3695 85.0655 68.3108 85.1108C68.2522 85.156 68.1516 85.1455 68.0861 85.0873Z" fill="#EEFFFD"/>
<path d="M70.1507 82.3619C70.0713 82.2914 70.0646 82.1897 70.1357 82.1348C70.2067 82.08 70.3287 82.0927 70.408 82.1633C70.4874 82.2338 70.4941 82.3355 70.4231 82.3903C70.352 82.4452 70.2301 82.4325 70.1507 82.3619Z" fill="#EEFFFD"/>
<path d="M64.6256 88.1119C64.514 88.0127 64.5045 87.8698 64.6045 87.7926C64.7044 87.7155 64.8758 87.7334 64.9874 87.8326C65.099 87.9318 65.1085 88.0747 65.0085 88.1519C64.9086 88.229 64.7372 88.2111 64.6256 88.1119Z" fill="#EEFFFD"/>
<path d="M63.2427 87.3329C63.2019 87.2966 63.1984 87.2442 63.235 87.216C63.2716 87.1877 63.3344 87.1943 63.3752 87.2306C63.4161 87.2669 63.4196 87.3193 63.383 87.3475C63.3464 87.3758 63.2836 87.3692 63.2427 87.3329Z" fill="#EEFFFD"/>
<path d="M67.0869 85.5187C67.0398 85.4768 67.0358 85.4164 67.078 85.3838C67.1202 85.3512 67.1927 85.3588 67.2398 85.4007C67.287 85.4426 67.291 85.503 67.2488 85.5356C67.2065 85.5682 67.1341 85.5606 67.0869 85.5187Z" fill="#EEFFFD"/>
<path d="M69.1349 85.0005C69.0776 84.9495 69.0727 84.876 69.1241 84.8363C69.1754 84.7967 69.2636 84.8059 69.3209 84.8569C69.3783 84.9079 69.3832 84.9814 69.3318 85.021C69.2804 85.0607 69.1923 85.0515 69.1349 85.0005Z" fill="#EEFFFD"/>
<path d="M211.132 111.303C211.156 111.208 211.24 111.167 211.319 111.213C211.398 111.258 211.442 111.373 211.418 111.468C211.394 111.564 211.31 111.605 211.231 111.559C211.152 111.513 211.108 111.399 211.132 111.303Z" fill="#EEFFFD"/>
<path d="M215.853 111.828C215.879 111.723 215.971 111.679 216.057 111.728C216.144 111.778 216.193 111.904 216.166 112.009C216.14 112.113 216.048 112.158 215.961 112.108C215.875 112.058 215.826 111.933 215.853 111.828Z" fill="#EEFFFD"/>
<path d="M216.702 112.935C216.738 112.794 216.861 112.734 216.978 112.801C217.094 112.869 217.16 113.038 217.124 113.179C217.089 113.32 216.965 113.38 216.848 113.313C216.732 113.245 216.666 113.076 216.702 112.935Z" fill="#EEFFFD"/>
<path d="M219.307 112.909C219.323 112.845 219.379 112.818 219.432 112.849C219.484 112.879 219.514 112.956 219.498 113.019C219.482 113.083 219.426 113.11 219.373 113.08C219.321 113.049 219.291 112.973 219.307 112.909Z" fill="#EEFFFD"/>
<path d="M222.059 112.11C222.11 111.906 222.288 111.82 222.457 111.917C222.625 112.014 222.72 112.258 222.669 112.462C222.617 112.666 222.439 112.753 222.27 112.656C222.102 112.558 222.007 112.314 222.059 112.11Z" fill="#EEFFFD"/>
<path d="M222.859 113.153C222.876 113.085 222.936 113.056 222.993 113.088C223.049 113.121 223.081 113.203 223.063 113.271C223.046 113.339 222.986 113.368 222.93 113.336C222.874 113.303 222.842 113.221 222.859 113.153Z" fill="#EEFFFD"/>
<path d="M218.514 115.54C218.541 115.433 218.635 115.388 218.723 115.439C218.811 115.49 218.861 115.618 218.834 115.724C218.807 115.831 218.714 115.877 218.625 115.826C218.537 115.775 218.487 115.647 218.514 115.54Z" fill="#EEFFFD"/>
<path d="M212.81 113.351C212.817 113.323 212.841 113.311 212.865 113.324C212.888 113.338 212.901 113.372 212.894 113.4C212.887 113.428 212.862 113.44 212.839 113.426C212.815 113.413 212.802 113.379 212.81 113.351Z" fill="#EEFFFD"/>
<path d="M210.643 112.338C210.672 112.224 210.772 112.176 210.866 112.23C210.961 112.284 211.014 112.421 210.985 112.535C210.956 112.65 210.856 112.698 210.762 112.644C210.667 112.589 210.614 112.452 210.643 112.338Z" fill="#EEFFFD"/>
<path d="M213.248 111.997C213.288 111.839 213.427 111.772 213.558 111.847C213.688 111.922 213.762 112.112 213.722 112.27C213.682 112.429 213.543 112.496 213.413 112.42C213.282 112.345 213.208 112.155 213.248 111.997Z" fill="#EEFFFD"/>
<path d="M214.806 113.324C214.818 113.276 214.86 113.256 214.899 113.279C214.938 113.301 214.961 113.358 214.949 113.406C214.937 113.454 214.895 113.474 214.855 113.451C214.816 113.428 214.794 113.371 214.806 113.324Z" fill="#EEFFFD"/>
<path d="M215.992 107.943C216.034 107.779 216.178 107.709 216.314 107.787C216.45 107.866 216.526 108.063 216.485 108.228C216.443 108.392 216.299 108.462 216.163 108.384C216.027 108.305 215.95 108.108 215.992 107.943Z" fill="#EEFFFD"/>
<path d="M233.174 125.577C233.233 125.345 233.436 125.246 233.628 125.357C233.82 125.468 233.928 125.746 233.869 125.978C233.81 126.21 233.607 126.309 233.415 126.198C233.223 126.087 233.115 125.809 233.174 125.577Z" fill="#EEFFFD"/>
<path d="M218.873 109.766C218.893 109.689 218.96 109.657 219.024 109.693C219.087 109.73 219.123 109.822 219.104 109.9C219.084 109.977 219.017 110.009 218.953 109.973C218.889 109.936 218.854 109.844 218.873 109.766Z" fill="#EEFFFD"/>
<path d="M215.61 108.468C215.629 108.395 215.692 108.364 215.752 108.399C215.812 108.433 215.845 108.52 215.827 108.593C215.809 108.665 215.745 108.696 215.685 108.662C215.626 108.627 215.592 108.54 215.61 108.468Z" fill="#EEFFFD"/>
<path d="M217.742 109.842C217.76 109.773 217.82 109.743 217.878 109.776C217.935 109.809 217.967 109.892 217.95 109.962C217.932 110.031 217.872 110.061 217.814 110.028C217.757 109.994 217.725 109.911 217.742 109.842Z" fill="#EEFFFD"/>
<path d="M213.966 108.778C213.993 108.671 214.087 108.625 214.175 108.676C214.264 108.728 214.313 108.856 214.286 108.963C214.259 109.07 214.166 109.116 214.077 109.065C213.988 109.014 213.939 108.885 213.966 108.778Z" fill="#EEFFFD"/>
<path d="M228.357 115.692C228.39 115.561 228.504 115.505 228.612 115.568C228.721 115.63 228.782 115.787 228.748 115.918C228.715 116.049 228.601 116.105 228.493 116.042C228.384 115.98 228.323 115.823 228.357 115.692Z" fill="#EEFFFD"/>
<path d="M230.212 116.903C230.23 116.836 230.289 116.807 230.345 116.839C230.4 116.872 230.432 116.953 230.415 117.02C230.398 117.088 230.339 117.116 230.283 117.084C230.227 117.052 230.195 116.971 230.212 116.903Z" fill="#EEFFFD"/>
<path d="M231.88 119.868C231.9 119.789 231.97 119.756 232.035 119.793C232.101 119.831 232.137 119.926 232.117 120.005C232.097 120.084 232.028 120.118 231.963 120.08C231.897 120.042 231.86 119.948 231.88 119.868Z" fill="#EEFFFD"/>
<path d="M228.759 118.037C228.783 117.943 228.865 117.903 228.943 117.948C229.02 117.993 229.064 118.105 229.04 118.199C229.016 118.293 228.934 118.333 228.857 118.288C228.779 118.243 228.735 118.131 228.759 118.037Z" fill="#EEFFFD"/>
<path d="M226.02 117.296C226.042 117.209 226.119 117.172 226.191 117.214C226.263 117.255 226.303 117.36 226.281 117.447C226.259 117.534 226.183 117.571 226.111 117.53C226.039 117.488 225.998 117.384 226.02 117.296Z" fill="#EEFFFD"/>
<path d="M231.606 125.937C231.628 125.85 231.705 125.813 231.777 125.854C231.85 125.896 231.89 126.001 231.868 126.088C231.846 126.176 231.769 126.213 231.697 126.171C231.625 126.13 231.584 126.025 231.606 125.937Z" fill="#EEFFFD"/>
<path d="M235.224 126.98C235.251 126.874 235.344 126.829 235.432 126.88C235.519 126.93 235.569 127.058 235.542 127.164C235.515 127.27 235.422 127.315 235.334 127.264C235.247 127.214 235.197 127.087 235.224 126.98Z" fill="#EEFFFD"/>
<path d="M227.001 123.606C227.039 123.457 227.169 123.394 227.292 123.465C227.416 123.536 227.485 123.715 227.447 123.864C227.409 124.013 227.279 124.077 227.156 124.005C227.032 123.934 226.963 123.756 227.001 123.606Z" fill="#EEFFFD"/>
<path d="M227.043 121.925C227.057 121.871 227.105 121.848 227.15 121.874C227.195 121.9 227.22 121.965 227.207 122.02C227.193 122.074 227.145 122.098 227.1 122.071C227.055 122.045 227.029 121.98 227.043 121.925Z" fill="#EEFFFD"/>
<path d="M230.695 125.097C230.711 125.034 230.766 125.007 230.818 125.038C230.87 125.068 230.899 125.143 230.883 125.206C230.867 125.269 230.812 125.296 230.76 125.266C230.708 125.236 230.679 125.16 230.695 125.097Z" fill="#EEFFFD"/>
<path d="M232.216 126.956C232.235 126.879 232.302 126.846 232.366 126.883C232.429 126.92 232.465 127.011 232.445 127.088C232.426 127.165 232.359 127.197 232.295 127.161C232.232 127.124 232.196 127.032 232.216 126.956Z" fill="#EEFFFD"/>
<path d="M190.489 85.1569C190.528 85.0698 190.614 85.0371 190.68 85.0837C190.746 85.1303 190.768 85.2387 190.728 85.3257C190.688 85.4128 190.603 85.4456 190.537 85.399C190.47 85.3524 190.449 85.244 190.489 85.1569Z" fill="#F5FFFE"/>
<path d="M194.829 85.909C194.873 85.8137 194.967 85.7777 195.039 85.8288C195.111 85.8799 195.135 85.9986 195.091 86.0939C195.048 86.1893 194.954 86.2252 194.882 86.1741C194.809 86.1231 194.786 86.0044 194.829 85.909Z" fill="#F5FFFE"/>
<path d="M195.43 86.9809C195.489 86.8524 195.616 86.804 195.713 86.8728C195.811 86.9417 195.842 87.1017 195.784 87.2302C195.725 87.3587 195.599 87.4071 195.501 87.3383C195.403 87.2695 195.372 87.1095 195.43 86.9809Z" fill="#F5FFFE"/>
<path d="M197.88 87.1041C197.907 87.0461 197.964 87.0242 198.008 87.0553C198.052 87.0864 198.067 87.1586 198.04 87.2167C198.014 87.2747 197.956 87.2966 197.912 87.2655C197.868 87.2344 197.854 87.1622 197.88 87.1041Z" fill="#F5FFFE"/>
<path d="M200.606 86.5213C200.69 86.3356 200.873 86.2657 201.014 86.3651C201.155 86.4645 201.201 86.6956 201.116 86.8812C201.031 87.0668 200.849 87.1367 200.708 87.0373C200.567 86.9379 200.521 86.7069 200.606 86.5213Z" fill="#F5FFFE"/>
<path d="M201.173 87.5305C201.202 87.4683 201.263 87.4449 201.31 87.4782C201.357 87.5115 201.373 87.5889 201.344 87.6511C201.316 87.7133 201.255 87.7367 201.207 87.7034C201.16 87.6701 201.145 87.5927 201.173 87.5305Z" fill="#F5FFFE"/>
<path d="M196.67 89.4917C196.715 89.3944 196.81 89.3578 196.884 89.4099C196.958 89.462 196.982 89.583 196.938 89.6803C196.893 89.7776 196.798 89.8142 196.724 89.7621C196.65 89.71 196.626 89.589 196.67 89.4917Z" fill="#F5FFFE"/>
<path d="M191.701 87.1451C191.712 87.1195 191.738 87.1098 191.757 87.1236C191.777 87.1373 191.783 87.1692 191.771 87.1948C191.759 87.2204 191.734 87.2301 191.715 87.2164C191.695 87.2026 191.689 87.1707 191.701 87.1451Z" fill="#F5FFFE"/>
<path d="M189.846 86.0862C189.893 85.9822 189.996 85.9431 190.075 85.9988C190.153 86.0544 190.179 86.1839 190.132 86.2878C190.084 86.3918 189.982 86.4309 189.903 86.3753C189.824 86.3196 189.798 86.1902 189.846 86.0862Z" fill="#F5FFFE"/>
<path d="M192.353 85.9179C192.418 85.7738 192.56 85.7195 192.67 85.7967C192.779 85.8739 192.815 86.0533 192.749 86.1975C192.683 86.3416 192.541 86.3959 192.432 86.3187C192.322 86.2415 192.287 86.0621 192.353 85.9179Z" fill="#F5FFFE"/>
<path d="M193.581 87.2329C193.6 87.1895 193.643 87.1732 193.676 87.1964C193.709 87.2196 193.72 87.2736 193.7 87.317C193.68 87.3603 193.637 87.3767 193.604 87.3535C193.572 87.3302 193.561 87.2762 193.581 87.2329Z" fill="#F5FFFE"/>
<path d="M195.648 82.3256C195.716 82.1757 195.864 82.1193 195.978 82.1995C196.092 82.2798 196.129 82.4664 196.06 82.6163C195.992 82.7662 195.844 82.8226 195.73 82.7424C195.617 82.6621 195.58 82.4755 195.648 82.3256Z" fill="#F5FFFE"/>
<path d="M208.656 99.6016C208.752 99.3902 208.96 99.3106 209.121 99.4238C209.281 99.537 209.333 99.8002 209.237 100.012C209.141 100.223 208.932 100.303 208.772 100.19C208.611 100.076 208.559 99.8131 208.656 99.6016Z" fill="#F5FFFE"/>
<path d="M198.031 84.1739C198.063 84.1038 198.132 84.0773 198.185 84.1149C198.239 84.1525 198.256 84.2398 198.224 84.31C198.192 84.3801 198.123 84.4066 198.07 84.369C198.016 84.3314 197.999 84.2441 198.031 84.1739Z" fill="#F5FFFE"/>
<path d="M195.198 82.7886C195.228 82.7226 195.293 82.6977 195.343 82.7331C195.394 82.7684 195.41 82.8506 195.38 82.9166C195.35 82.9826 195.285 83.0075 195.234 82.9721C195.184 82.9368 195.168 82.8546 195.198 82.7886Z" fill="#F5FFFE"/>
<path d="M196.956 84.1802C196.984 84.1171 197.047 84.0933 197.095 84.1271C197.142 84.1609 197.158 84.2395 197.129 84.3027C197.1 84.3658 197.038 84.3896 196.99 84.3558C196.942 84.322 196.927 84.2434 196.956 84.1802Z" fill="#F5FFFE"/>
<path d="M193.598 82.9827C193.643 82.8851 193.739 82.8483 193.813 82.9006C193.887 82.9529 193.911 83.0743 193.867 83.1719C193.822 83.2695 193.726 83.3063 193.652 83.254C193.578 83.2018 193.554 83.0803 193.598 82.9827Z" fill="#F5FFFE"/>
<path d="M205.886 90.1894C205.94 90.0702 206.058 90.0252 206.148 90.0891C206.239 90.153 206.268 90.3015 206.214 90.4207C206.159 90.54 206.042 90.5849 205.951 90.5211C205.861 90.4572 205.831 90.3087 205.886 90.1894Z" fill="#F5FFFE"/>
<path d="M207.413 91.4147C207.441 91.3532 207.501 91.33 207.548 91.3629C207.595 91.3959 207.61 91.4725 207.582 91.5341C207.554 91.5956 207.493 91.6188 207.447 91.5858C207.4 91.5529 207.385 91.4763 207.413 91.4147Z" fill="#F5FFFE"/>
<path d="M208.453 94.2502C208.486 94.1782 208.557 94.151 208.612 94.1896C208.666 94.2282 208.684 94.3179 208.651 94.39C208.618 94.4621 208.547 94.4892 208.493 94.4506C208.438 94.412 208.42 94.3223 208.453 94.2502Z" fill="#F5FFFE"/>
<path d="M205.847 92.3807C205.886 92.2952 205.97 92.263 206.035 92.3088C206.1 92.3546 206.121 92.461 206.082 92.5464C206.043 92.6319 205.959 92.6641 205.894 92.6183C205.829 92.5725 205.808 92.4661 205.847 92.3807Z" fill="#F5FFFE"/>
<path d="M203.407 91.5406C203.443 91.4612 203.521 91.4313 203.581 91.4738C203.642 91.5164 203.661 91.6152 203.625 91.6946C203.589 91.774 203.511 91.8039 203.45 91.7614C203.39 91.7189 203.371 91.62 203.407 91.5406Z" fill="#F5FFFE"/>
<path d="M207.118 99.846C207.154 99.7663 207.233 99.7363 207.293 99.779C207.354 99.8217 207.374 99.9209 207.337 100.001C207.301 100.08 207.222 100.11 207.162 100.068C207.101 100.025 207.082 99.9258 207.118 99.846Z" fill="#F5FFFE"/>
<path d="M210.332 101.015C210.376 100.918 210.471 100.882 210.544 100.934C210.618 100.986 210.641 101.106 210.597 101.202C210.553 101.299 210.458 101.335 210.385 101.284C210.311 101.232 210.288 101.112 210.332 101.015Z" fill="#F5FFFE"/>
<path d="M203.208 97.43C203.27 97.2941 203.404 97.243 203.507 97.3157C203.61 97.3885 203.644 97.5576 203.582 97.6935C203.52 97.8293 203.386 97.8805 203.283 97.8077C203.18 97.735 203.146 97.5659 203.208 97.43Z" fill="#F5FFFE"/>
<path d="M203.545 95.8784C203.568 95.8286 203.617 95.8099 203.654 95.8365C203.692 95.8632 203.704 95.9251 203.682 95.9749C203.659 96.0246 203.61 96.0433 203.572 96.0167C203.534 95.9901 203.522 95.9281 203.545 95.8784Z" fill="#F5FFFE"/>
<path d="M206.412 99.0181C206.438 98.9607 206.495 98.9391 206.538 98.9699C206.582 99.0006 206.596 99.0721 206.57 99.1295C206.544 99.1869 206.487 99.2085 206.444 99.1777C206.4 99.147 206.386 99.0755 206.412 99.0181Z" fill="#F5FFFE"/>
<path d="M207.51 100.822C207.542 100.752 207.611 100.726 207.664 100.763C207.717 100.801 207.734 100.888 207.702 100.958C207.67 101.027 207.602 101.054 207.549 101.016C207.495 100.979 207.478 100.892 207.51 100.822Z" fill="#F5FFFE"/>
<rect x="184.816" y="40.1138" width="19.8909" height="34.406" rx="9.94547" fill="url(#paint17_linear_1679_9257)"/>
<path d="M184.827 77.083C184.9 75.9852 185.919 71.7343 186.419 69.7461L190.719 71.4112C190.316 73.314 189.387 77.3319 188.889 78.1809C188.267 79.2421 187.132 79.7178 186.327 79.3884C185.522 79.0591 184.736 78.4553 184.827 77.083Z" fill="#E05346"/>
<path d="M204.239 77.083C204.166 75.9852 203.147 71.7343 202.647 69.7461L198.348 71.4112C198.75 73.314 199.68 77.3319 200.177 78.1809C200.8 79.2421 201.934 79.7178 202.739 79.3884C203.544 79.0591 204.331 78.4553 204.239 77.083Z" fill="#E05346"/>
<path d="M181.202 56.782C182.608 57.6842 183.888 58.5374 185.353 59.039V64.3056C183.97 63.804 182.13 62.4498 179.981 61.0455C177.294 59.29 177.783 57.7853 178.027 57.2838C178.271 56.7822 179.248 55.5281 181.202 56.782Z" fill="#F0675F"/>
<path d="M208.321 56.782C206.915 57.6842 205.634 58.5374 204.169 59.039V64.3056C205.553 63.804 207.393 62.4498 209.542 61.0455C212.228 59.29 211.74 57.7853 211.496 57.2838C211.251 56.7822 210.275 55.5281 208.321 56.782Z" fill="#F0675F"/>
<path d="M195.03 47.5996C199.591 47.5996 203.027 51.9484 203.027 51.9484C203.027 51.9484 199.499 56.2973 195.03 56.2973C190.561 56.2973 187.033 51.9484 187.033 51.9484C187.033 51.9484 190.47 47.5997 195.03 47.5996Z" fill="white"/>
<mask id="mask1_1679_9257" style="mask-type:alpha" maskUnits="userSpaceOnUse" x="187" y="47" width="17" height="10">
<path d="M195.03 47.5996C199.591 47.5996 203.027 51.9484 203.027 51.9484C203.027 51.9484 199.499 56.2973 195.03 56.2973C190.561 56.2973 187.033 51.9484 187.033 51.9484C187.033 51.9484 190.47 47.5997 195.03 47.5996Z" fill="white"/>
</mask>
<g mask="url(#mask1_1679_9257)">
<circle cx="195.032" cy="52.0237" r="3.96999" fill="#240521"/>
</g>
<path d="M195.691 37.5015L189.774 30.1687L195.512 28.0683L195.691 37.5015Z" fill="#FFDAA4"/>
<path d="M195.443 22.189L201.368 29.9812L195.512 28.0683L195.443 22.189Z" fill="#FFA929"/>
<path d="M195.691 37.5004L195.512 28.0674L201.368 29.9802L195.691 37.5004Z" fill="#FFBC57"/>
<path d="M195.444 22.189L195.512 28.0682L189.774 30.1687L195.444 22.189Z" fill="#FFBC57"/>
<path d="M198.317 31.7723C198.368 31.7361 198.377 31.6622 198.338 31.6073C198.299 31.5524 198.226 31.5373 198.175 31.5735C198.124 31.6098 198.115 31.6837 198.154 31.7385C198.193 31.7934 198.266 31.8085 198.317 31.7723Z" fill="#FEFAD1"/>
<path d="M197.238 28.1024C197.294 28.0627 197.304 27.9818 197.262 27.9216C197.219 27.8615 197.139 27.845 197.083 27.8847C197.028 27.9244 197.017 28.0053 197.06 28.0654C197.103 28.1255 197.183 28.142 197.238 28.1024Z" fill="#FEFAD1"/>
<path d="M196.464 27.6223C196.539 27.5688 196.553 27.4598 196.495 27.3788C196.438 27.2977 196.33 27.2754 196.255 27.3289C196.18 27.3824 196.166 27.4915 196.224 27.5725C196.281 27.6535 196.389 27.6758 196.464 27.6223Z" fill="#FEFAD1"/>
<path d="M196.05 25.5414C196.084 25.5172 196.091 25.468 196.064 25.4314C196.038 25.3948 195.99 25.3847 195.956 25.4089C195.922 25.4331 195.916 25.4823 195.942 25.5189C195.968 25.5555 196.016 25.5656 196.05 25.5414Z" fill="#FEFAD1"/>
<path d="M196.055 23.2067C196.163 23.1294 196.184 22.9719 196.1 22.8549C196.017 22.7379 195.861 22.7057 195.753 22.783C195.644 22.8602 195.624 23.0177 195.708 23.1347C195.791 23.2517 195.947 23.2839 196.055 23.2067Z" fill="#FEFAD1"/>
<path d="M195.326 22.7533C195.362 22.7274 195.369 22.6746 195.341 22.6354C195.313 22.5962 195.261 22.5854 195.225 22.6113C195.189 22.6372 195.182 22.69 195.21 22.7292C195.238 22.7684 195.29 22.7792 195.326 22.7533Z" fill="#FEFAD1"/>
<path d="M194.673 26.6395C194.73 26.599 194.741 26.5164 194.697 26.4551C194.653 26.3938 194.572 26.3769 194.515 26.4174C194.458 26.4579 194.448 26.5404 194.491 26.6017C194.535 26.6631 194.616 26.6799 194.673 26.6395Z" fill="#FEFAD1"/>
<path d="M196.867 30.7985C196.882 30.7878 196.884 30.7661 196.873 30.7499C196.861 30.7337 196.84 30.7293 196.825 30.74C196.81 30.7506 196.807 30.7724 196.819 30.7885C196.83 30.8047 196.852 30.8091 196.867 30.7985Z" fill="#FEFAD1"/>
<path d="M197.804 32.3455C197.864 32.3022 197.876 32.214 197.829 32.1485C197.782 32.0829 197.695 32.0649 197.634 32.1082C197.574 32.1514 197.562 32.2397 197.609 32.3052C197.656 32.3707 197.743 32.3888 197.804 32.3455Z" fill="#FEFAD1"/>
<path d="M197.571 30.2092C197.655 30.1492 197.67 30.0269 197.606 29.936C197.541 29.8452 197.42 29.8201 197.336 29.8801C197.252 29.9401 197.236 30.0624 197.301 30.1533C197.366 30.2442 197.486 30.2692 197.571 30.2092Z" fill="#FEFAD1"/>
<path d="M196.554 29.2021C196.579 29.184 196.584 29.1472 196.564 29.1199C196.545 29.0925 196.509 29.085 196.483 29.1031C196.458 29.1211 196.453 29.1579 196.473 29.1852C196.492 29.2126 196.529 29.2201 196.554 29.2021Z" fill="#FEFAD1"/>
<path d="M199.441 27.3029C199.529 27.2405 199.545 27.1134 199.478 27.0189C199.411 26.9244 199.285 26.8984 199.198 26.9608C199.11 27.0232 199.094 27.1503 199.161 27.2448C199.228 27.3393 199.354 27.3653 199.441 27.3029Z" fill="#FEFAD1"/>
<path d="M197.923 25.3299C197.964 25.3007 197.971 25.2412 197.94 25.197C197.908 25.1528 197.849 25.1406 197.809 25.1698C197.768 25.199 197.76 25.2585 197.791 25.3027C197.823 25.347 197.882 25.3591 197.923 25.3299Z" fill="#FEFAD1"/>
<path d="M199.205 27.6996C199.243 27.6721 199.25 27.6161 199.221 27.5745C199.191 27.5329 199.136 27.5214 199.097 27.5489C199.059 27.5764 199.051 27.6324 199.081 27.674C199.111 27.7156 199.166 27.7271 199.205 27.6996Z" fill="#FEFAD1"/>
<path d="M198.065 26.2445C198.102 26.2182 198.109 26.1647 198.08 26.1248C198.052 26.085 197.999 26.0741 197.962 26.1004C197.925 26.1266 197.919 26.1802 197.947 26.22C197.975 26.2598 198.028 26.2708 198.065 26.2445Z" fill="#FEFAD1"/>
<path d="M199.297 29.0657C199.354 29.0251 199.365 28.9423 199.321 28.8808C199.277 28.8193 199.195 28.8023 199.138 28.843C199.081 28.8836 199.071 28.9664 199.115 29.0279C199.158 29.0894 199.24 29.1063 199.297 29.0657Z" fill="#FEFAD1"/>
<defs>
<filter id="filter0_f_1679_9257" x="159.595" y="13.9414" width="70.5781" height="70.5776" filterUnits="userSpaceOnUse" color-interpolation-filters="sRGB">
<feFlood flood-opacity="0" result="BackgroundImageFix"/>
<feBlend mode="normal" in="SourceGraphic" in2="BackgroundImageFix" result="shape"/>
<feGaussianBlur stdDeviation="4.99925" result="effect1_foregroundBlur_1679_9257"/>
</filter>
<filter id="filter1_f_1679_9257" x="168.124" y="22.4693" width="53.5214" height="53.5214" filterUnits="userSpaceOnUse" color-interpolation-filters="sRGB">
<feFlood flood-opacity="0" result="BackgroundImageFix"/>
<feBlend mode="normal" in="SourceGraphic" in2="BackgroundImageFix" result="shape"/>
<feGaussianBlur stdDeviation="4.99925" result="effect1_foregroundBlur_1679_9257"/>
</filter>
<filter id="filter2_f_1679_9257" x="0.501498" y="17.9385" width="261.432" height="119.1" filterUnits="userSpaceOnUse" color-interpolation-filters="sRGB">
<feFlood flood-opacity="0" result="BackgroundImageFix"/>
<feBlend mode="normal" in="SourceGraphic" in2="BackgroundImageFix" result="shape"/>
<feGaussianBlur stdDeviation="4.99925" result="effect1_foregroundBlur_1679_9257"/>
</filter>
<linearGradient id="paint0_linear_1679_9257" x1="192.647" y1="59.3491" x2="181.678" y2="73.4301" gradientUnits="userSpaceOnUse">
<stop stop-color="white"/>
<stop offset="1" stop-color="#CFFF68" stop-opacity="0"/>
</linearGradient>
<radialGradient id="paint1_radial_1679_9257" cx="0" cy="0" r="1" gradientUnits="userSpaceOnUse" gradientTransform="translate(194.884 49.2303) rotate(90) scale(25.2903)">
<stop stop-color="#FFF621" stop-opacity="0"/>
<stop offset="1" stop-color="#FCD266"/>
</radialGradient>
<radialGradient id="paint2_radial_1679_9257" cx="0" cy="0" r="1" gradientUnits="userSpaceOnUse" gradientTransform="translate(194.884 49.23) rotate(90) scale(16.7622)">
<stop stop-color="#FFF621" stop-opacity="0"/>
<stop offset="1" stop-color="#FCD266"/>
</radialGradient>
<linearGradient id="paint3_linear_1679_9257" x1="201.795" y1="53.3472" x2="238.848" y2="37.3202" gradientUnits="userSpaceOnUse">
<stop stop-color="#FCFF68"/>
<stop offset="1" stop-color="#FCFF68" stop-opacity="0"/>
</linearGradient>
<linearGradient id="paint4_linear_1679_9257" x1="202.319" y1="55.2005" x2="259.007" y2="33.2479" gradientUnits="userSpaceOnUse">
<stop stop-color="#FFD568"/>
<stop offset="1" stop-color="#FFDE68" stop-opacity="0"/>
</linearGradient>
<linearGradient id="paint5_linear_1679_9257" x1="196.414" y1="54.3723" x2="206.525" y2="54.1052" gradientUnits="userSpaceOnUse">
<stop stop-color="white"/>
<stop offset="1" stop-color="#CFFF68" stop-opacity="0"/>
</linearGradient>
<linearGradient id="paint6_linear_1679_9257" x1="194.203" y1="50.984" x2="197.877" y2="45.2637" gradientUnits="userSpaceOnUse">
<stop stop-color="white"/>
<stop offset="1" stop-color="#CFFF68" stop-opacity="0"/>
</linearGradient>
<linearGradient id="paint7_linear_1679_9257" x1="191.913" y1="56.7139" x2="190.907" y2="70.2688" gradientUnits="userSpaceOnUse">
<stop stop-color="white"/>
<stop offset="1" stop-color="#CFFF68" stop-opacity="0"/>
</linearGradient>
<linearGradient id="paint8_linear_1679_9257" x1="201.763" y1="49.5239" x2="212.228" y2="50.922" gradientUnits="userSpaceOnUse">
<stop stop-color="white"/>
<stop offset="1" stop-color="#CFFF68" stop-opacity="0"/>
</linearGradient>
<linearGradient id="paint9_linear_1679_9257" x1="190.754" y1="58.3234" x2="175.393" y2="49.0643" gradientUnits="userSpaceOnUse">
<stop stop-color="white"/>
<stop offset="1" stop-color="#CFFF68" stop-opacity="0"/>
</linearGradient>
<linearGradient id="paint10_linear_1679_9257" x1="186.431" y1="64.2617" x2="169.063" y2="80.4139" gradientUnits="userSpaceOnUse">
<stop stop-color="#FCFF68"/>
<stop offset="1" stop-color="#FCFF68" stop-opacity="0"/>
</linearGradient>
<linearGradient id="paint11_linear_1679_9257" x1="197.434" y1="48.7976" x2="200.831" y2="8.56993" gradientUnits="userSpaceOnUse">
<stop stop-color="#FCFF68"/>
<stop offset="1" stop-color="#FCFF68" stop-opacity="0"/>
</linearGradient>
<linearGradient id="paint12_linear_1679_9257" x1="187.885" y1="49.7448" x2="161.458" y2="37.7902" gradientUnits="userSpaceOnUse">
<stop stop-color="#FCFF68"/>
<stop offset="1" stop-color="#FCFF68" stop-opacity="0"/>
</linearGradient>
<linearGradient id="paint13_linear_1679_9257" x1="196.788" y1="61.0454" x2="231.114" y2="88.5857" gradientUnits="userSpaceOnUse">
<stop stop-color="#FCFF68"/>
<stop offset="1" stop-color="#FCFF68" stop-opacity="0"/>
</linearGradient>
<linearGradient id="paint14_linear_1679_9257" x1="131.217" y1="27.937" x2="131.217" y2="127.04" gradientUnits="userSpaceOnUse">
<stop stop-color="#5AFFC4"/>
<stop offset="1" stop-color="#2BDA9B" stop-opacity="0"/>
</linearGradient>
<linearGradient id="paint15_linear_1679_9257" x1="142.98" y1="34.1921" x2="142.98" y2="129.522" gradientUnits="userSpaceOnUse">
<stop offset="0.161458" stop-color="#8CFFEA" stop-opacity="0.72"/>
<stop offset="0.541667" stop-color="#9FDCFF" stop-opacity="0.3"/>
<stop offset="1" stop-color="#ADFFAB" stop-opacity="0"/>
</linearGradient>
<linearGradient id="paint16_linear_1679_9257" x1="140.04" y1="34.7798" x2="140.04" y2="130.11" gradientUnits="userSpaceOnUse">
<stop stop-color="#8CFFEA" stop-opacity="0.72"/>
<stop offset="0.390625" stop-color="#9FFFC5" stop-opacity="0.3"/>
<stop offset="1" stop-color="#ADFFAB" stop-opacity="0"/>
</linearGradient>
<linearGradient id="paint17_linear_1679_9257" x1="194.762" y1="40.1138" x2="194.762" y2="74.5197" gradientUnits="userSpaceOnUse">
<stop stop-color="#FF7A77"/>
<stop offset="1" stop-color="#DE5043"/>
</linearGradient>
</defs>
</svg>
