<svg width="292" height="103" viewBox="0 0 292 103" fill="none" xmlns="http://www.w3.org/2000/svg">
<rect width="292" height="102.768" fill="#1D1D26"/>
<rect x="108.231" y="21.5862" width="17.0705" height="18.6852" rx="2.5375" stroke="#67EEAD" stroke-opacity="0.4" stroke-width="0.461364"/>
<path d="M179.927 21.9135C179.662 22.9897 178.129 24.8357 177.396 25.6242C177.086 25.4831 174.272 23.5156 172.904 22.5496L173.82 21.564C172.726 21.1593 170.454 20.1245 170.116 19.2225C169.694 18.0951 170.013 16.3694 171.894 15.7297C173.775 15.09 176.317 16.9022 178.261 17.9744C180.204 19.0465 180.259 20.5682 179.927 21.9135Z" fill="url(#paint0_linear_1703_1225)"/>
<path d="M176.047 22.5092L175.999 22.4887C175.465 22.2957 174.533 22.9956 173.008 22.5619L173.622 21.4794L175.999 22.4887C176.015 22.4947 176.031 22.5015 176.047 22.5092Z" fill="#DB422A"/>
<path d="M184.71 25.6351C184.273 26.0831 181.123 29.0574 179.604 30.4886L180.698 38.7023C183.373 36.5244 188.978 31.758 190 30.1152C191.277 28.0618 190.729 25.6351 188.905 24.7017C187.082 23.7683 185.258 25.075 184.71 25.6351Z" fill="url(#paint1_linear_1703_1225)"/>
<path d="M182.608 36.3924C182.377 43.0938 177.062 47.9466 173.596 50.2575C155.109 62.274 146.328 57.1899 141.013 53.0304C135.698 48.8709 134.542 43.3248 134.774 37.3166C135.005 31.3084 140.32 25.7624 146.328 25.5313C151.134 25.3464 155.109 27.7652 156.496 28.9977C156.958 27.6111 164.121 19.7543 171.978 22.0651C179.835 24.376 182.839 29.6909 182.608 36.3924Z" fill="url(#paint2_linear_1703_1225)"/>
<path d="M141.397 59.3763C141.841 59.0859 143.973 56.8745 145.098 55.6329C143.48 54.7085 141.394 53.3257 140.551 52.5669C140.551 51.6426 139.164 50.2705 137.813 50.2705C135.904 50.2705 135.282 52.1331 135.072 52.9608C134.861 53.7886 134.65 55.4442 134.861 57.0998C135.072 58.7554 136.758 59.3763 137.813 59.7902C138.867 60.2041 140.765 59.7902 141.397 59.3763Z" fill="url(#paint3_linear_1703_1225)"/>
<path d="M152.825 60.2971C153.534 59.323 154.535 58.1673 154.951 57.3749C156.976 57.0534 161.456 55.9369 163.442 55.4188C162.278 59.2527 158.357 63.6761 156.15 65.1415C153.942 66.6069 151.465 66.3921 150.781 64.6761C150.098 62.96 152.217 61.1323 152.825 60.2971Z" fill="url(#paint4_linear_1703_1225)"/>
<path d="M140.551 54.9398V52.6289L143.555 54.7087C142.631 55.1708 140.551 55.1708 140.551 54.9398Z" fill="#EB6338"/>
<path d="M162.735 34.0809C161.811 33.8961 158.191 30.6147 156.496 28.9971C162.966 32.6944 165.508 32.0012 165.508 32.4633C165.508 32.9255 163.891 34.312 162.735 34.0809Z" fill="#E84F37"/>
<path d="M143.48 48.7094C140.892 48.5245 139.166 46.1675 138.627 45.0121C139.32 43.6255 140.476 39.0038 146.022 39.2349C150.459 39.4198 152.954 42.8553 153.647 44.5499C150.643 48.0162 146.715 48.9405 143.48 48.7094Z" fill="#FEF9F5"/>
<mask id="mask0_1703_1225" style="mask-type:alpha" maskUnits="userSpaceOnUse" x="138" y="39" width="16" height="10">
<path d="M143.48 48.7104C140.892 48.5255 139.166 46.1685 138.627 45.013C139.32 43.6265 140.476 39.0048 146.022 39.2359C150.459 39.4208 152.954 42.8562 153.647 44.5509C150.643 48.0171 146.715 48.9415 143.48 48.7104Z" fill="#FEF9F5"/>
</mask>
<g mask="url(#mask0_1703_1225)">
<ellipse cx="145.388" cy="45.4423" rx="4.58862" ry="4.89453" transform="rotate(-17.2428 145.388 45.4423)" fill="black"/>
</g>
<path d="M130.276 57.186L161.093 70.9205L145.984 84.0688L115.168 70.3342L130.276 57.186Z" fill="url(#paint5_linear_1703_1225)"/>
<path d="M145.902 84.0078L161.154 70.8359L160.923 72.4535L145.902 85.6254V84.0078Z" fill="#606972"/>
<path d="M145.901 84.0078L116.322 70.8359V72.4535L145.901 85.6254V84.0078Z" fill="#49525B"/>
<path d="M131.89 60.4687C132.169 60.2256 132.564 60.1665 132.903 60.3173L155.572 70.4211C156.208 70.7044 156.335 71.5521 155.81 72.009L145.339 81.1212C145.06 81.3644 144.665 81.4234 144.326 81.2726L121.656 71.1689C121.021 70.8855 120.894 70.0379 121.419 69.5809L131.89 60.4687Z" fill="url(#paint6_linear_1703_1225)" fill-opacity="0.6"/>
<path d="M113.923 70.9863L144.786 84.6152L144.395 61.3551L113.531 47.7262L113.923 70.9863Z" fill="url(#paint7_linear_1703_1225)"/>
<path d="M145.249 60.4355L144.324 61.3599L144.786 84.6995L145.711 83.7751L145.249 60.4355Z" fill="#677079"/>
<path d="M145.248 60.4361L144.324 61.3605L113.59 47.7265L114.514 47.0332L145.248 60.4361Z" fill="#9AA2A9"/>
<g filter="url(#filter0_f_1703_1225)">
<path d="M122.138 22.7529L114.045 48.4616L145.943 60.8398V84.6441L165.938 66.5528C163.875 58.7768 157.845 41.3203 150.227 33.7029C142.61 26.0855 128.327 23.229 122.138 22.7529Z" fill="url(#paint8_linear_1703_1225)" fill-opacity="0.3"/>
</g>
<rect x="165.068" y="70.068" width="27.8641" height="14.2718" rx="3.3301" fill="#ACFF58" fill-opacity="0.2" stroke="#FFF500" stroke-width="0.135922"/>
<path d="M173.504 75.8246H175.394V76.1066H174.619V78.3018H174.282V76.1066H173.504V75.8246ZM176.801 76.6575C176.646 76.6575 176.529 76.7178 176.45 76.8383C176.37 76.9589 176.33 77.1375 176.33 77.3743C176.33 77.6099 176.37 77.7885 176.45 77.9102C176.529 78.0308 176.646 78.091 176.801 78.091C176.957 78.091 177.075 78.0308 177.155 77.9102C177.234 77.7885 177.274 77.6099 177.274 77.3743C177.274 77.1375 177.234 76.9589 177.155 76.8383C177.075 76.7178 176.957 76.6575 176.801 76.6575ZM176.801 76.3986C177.059 76.3986 177.256 76.4822 177.392 76.6492C177.529 76.8162 177.598 77.0579 177.598 77.3743C177.598 77.6917 177.53 77.934 177.394 78.101C177.258 78.2669 177.06 78.3499 176.801 78.3499C176.544 78.3499 176.347 78.2669 176.211 78.101C176.075 77.934 176.007 77.6917 176.007 77.3743C176.007 77.0579 176.075 76.8162 176.211 76.6492C176.347 76.4822 176.544 76.3986 176.801 76.3986ZM179.155 76.6575C179 76.6575 178.882 76.7178 178.803 76.8383C178.723 76.9589 178.683 77.1375 178.683 77.3743C178.683 77.6099 178.723 77.7885 178.803 77.9102C178.882 78.0308 179 78.091 179.155 78.091C179.311 78.091 179.428 78.0308 179.508 77.9102C179.588 77.7885 179.627 77.6099 179.627 77.3743C179.627 77.1375 179.588 76.9589 179.508 76.8383C179.428 76.7178 179.311 76.6575 179.155 76.6575ZM179.155 76.3986C179.412 76.3986 179.609 76.4822 179.745 76.6492C179.882 76.8162 179.951 77.0579 179.951 77.3743C179.951 77.6917 179.883 77.934 179.747 78.101C179.611 78.2669 179.413 78.3499 179.155 78.3499C178.897 78.3499 178.7 78.2669 178.564 78.101C178.428 77.934 178.36 77.6917 178.36 77.3743C178.36 77.0579 178.428 76.8162 178.564 76.6492C178.7 76.4822 178.897 76.3986 179.155 76.3986ZM181.679 77.6298C181.679 77.7669 181.704 77.8704 181.753 77.9401C181.804 78.0097 181.879 78.0446 181.977 78.0446H182.334V78.3018H181.948C181.765 78.3018 181.623 78.2437 181.523 78.1275C181.423 78.0103 181.373 77.8444 181.373 77.6298V75.949H180.884V75.7101H181.679V77.6298ZM184.454 76.5082V76.8068C184.366 76.7559 184.278 76.7178 184.19 76.6923C184.101 76.6669 184.011 76.6542 183.919 76.6542C183.781 76.6542 183.678 76.6768 183.609 76.7222C183.541 76.7664 183.508 76.8345 183.508 76.9263C183.508 77.0092 183.533 77.0712 183.584 77.1121C183.635 77.153 183.762 77.1929 183.964 77.2316L184.087 77.2548C184.238 77.2836 184.353 77.3411 184.43 77.4274C184.509 77.5136 184.548 77.6259 184.548 77.7642C184.548 77.9478 184.483 78.0916 184.352 78.1956C184.222 78.2984 184.04 78.3499 183.808 78.3499C183.716 78.3499 183.62 78.3399 183.519 78.32C183.419 78.3012 183.31 78.2724 183.193 78.2337V77.9185C183.306 77.9771 183.415 78.0214 183.519 78.0512C183.623 78.08 183.722 78.0944 183.815 78.0944C183.95 78.0944 184.054 78.0673 184.128 78.0131C184.202 77.9577 184.239 77.8809 184.239 77.7824C184.239 77.6408 184.104 77.5429 183.833 77.4887L183.82 77.4854L183.705 77.4622C183.529 77.4279 183.401 77.3704 183.32 77.2896C183.24 77.2078 183.199 77.0966 183.199 76.9561C183.199 76.7781 183.259 76.6409 183.38 76.5447C183.501 76.4473 183.673 76.3986 183.896 76.3986C183.996 76.3986 184.091 76.408 184.183 76.4269C184.275 76.4446 184.365 76.4717 184.454 76.5082Z" fill="#76FF9C"/>
<line x1="192.34" y1="44.3659" x2="192.34" y2="58.0244" stroke="#E27526" stroke-opacity="0.3" stroke-width="0.731707" stroke-linecap="round"/>
<circle cx="192.341" cy="50.4635" r="1.34146" fill="#F57600"/>
<line x1="195.999" y1="44.3659" x2="195.999" y2="58.0244" stroke="#E27526" stroke-opacity="0.3" stroke-width="0.731707" stroke-linecap="round"/>
<circle cx="196" cy="53.8776" r="1.34146" fill="#F57600"/>
<line x1="199.657" y1="44.3659" x2="199.657" y2="58.0244" stroke="#E27526" stroke-opacity="0.3" stroke-width="0.731707" stroke-linecap="round"/>
<circle cx="199.658" cy="47.2926" r="1.34146" fill="#F57600"/>
<rect x="62.7746" y="44.0871" width="32.9051" height="2.08922" rx="1.04461" fill="#32F28B" fill-opacity="0.2" stroke="#49FF92" stroke-width="0.174101"/>
<rect x="62.6875" y="44" width="12.1871" height="2.26332" rx="1.13166" fill="#32F296" fill-opacity="0.7"/>
<rect x="75.339" y="51.6251" width="32.9051" height="2.08922" rx="1.04461" fill="#F2A632" fill-opacity="0.2" stroke="#FFAB49" stroke-width="0.174101"/>
<rect x="75.252" y="51.5381" width="22.2417" height="2.26332" rx="1.13166" fill="#F2A632" fill-opacity="0.7"/>
<defs>
<filter id="filter0_f_1703_1225" x="113.093" y="21.8008" width="53.7969" height="63.7959" filterUnits="userSpaceOnUse" color-interpolation-filters="sRGB">
<feFlood flood-opacity="0" result="BackgroundImageFix"/>
<feBlend mode="normal" in="SourceGraphic" in2="BackgroundImageFix" result="shape"/>
<feGaussianBlur stdDeviation="0.476086" result="effect1_foregroundBlur_1703_1225"/>
</filter>
<linearGradient id="paint0_linear_1703_1225" x1="174.871" y1="15.517" x2="175.242" y2="25.7024" gradientUnits="userSpaceOnUse">
<stop stop-color="#FE6F6D"/>
<stop offset="1" stop-color="#F3514F"/>
</linearGradient>
<linearGradient id="paint1_linear_1703_1225" x1="185.15" y1="24.375" x2="185.15" y2="38.7023" gradientUnits="userSpaceOnUse">
<stop stop-color="#FE6F6D"/>
<stop offset="1" stop-color="#F3514F"/>
</linearGradient>
<linearGradient id="paint2_linear_1703_1225" x1="171.176" y1="19.4202" x2="139.755" y2="52.7462" gradientUnits="userSpaceOnUse">
<stop stop-color="#FE6F6D"/>
<stop offset="0.532636" stop-color="#F45351"/>
<stop offset="1" stop-color="#FA987A"/>
</linearGradient>
<linearGradient id="paint3_linear_1703_1225" x1="140.088" y1="50.2705" x2="135.47" y2="59.411" gradientUnits="userSpaceOnUse">
<stop stop-color="#FE6F6D"/>
<stop offset="0.09375" stop-color="#FD8D6A"/>
<stop offset="1" stop-color="#F3514F"/>
</linearGradient>
<linearGradient id="paint4_linear_1703_1225" x1="158.322" y1="56.5549" x2="150.705" y2="65.6005" gradientUnits="userSpaceOnUse">
<stop offset="0.0998039" stop-color="#F45351"/>
<stop offset="1" stop-color="#F38A4F"/>
</linearGradient>
<linearGradient id="paint5_linear_1703_1225" x1="141.827" y1="62.3338" x2="134.434" y2="78.921" gradientUnits="userSpaceOnUse">
<stop stop-color="#818B94"/>
<stop offset="1" stop-color="#858C92"/>
</linearGradient>
<linearGradient id="paint6_linear_1703_1225" x1="141.564" y1="64.1775" x2="135.665" y2="77.4124" gradientUnits="userSpaceOnUse">
<stop stop-color="#677179"/>
<stop offset="1" stop-color="#6A747B"/>
</linearGradient>
<linearGradient id="paint7_linear_1703_1225" x1="124.893" y1="75.8305" x2="133.425" y2="56.5109" gradientUnits="userSpaceOnUse">
<stop stop-color="#8E9092"/>
<stop offset="1" stop-color="#BCC6CF"/>
</linearGradient>
<linearGradient id="paint8_linear_1703_1225" x1="147.847" y1="42.7485" x2="128.327" y2="74.6463" gradientUnits="userSpaceOnUse">
<stop stop-color="#F4FFB4" stop-opacity="0"/>
<stop offset="0.651042" stop-color="#CF80FF"/>
</linearGradient>
</defs>
</svg>
