<svg width="292" height="103" viewBox="0 0 292 103" fill="none" xmlns="http://www.w3.org/2000/svg">
<rect width="292" height="102.768" fill="#1D1D26"/>
<path d="M187.202 80.6667H139.281C135.209 80.6667 131.908 77.3659 131.908 73.2942V67.1504H194.575V73.2942C194.575 77.3659 191.274 80.6667 187.202 80.6667Z" fill="#D3DCFB"/>
<path d="M139.279 78.2092C136.569 78.2092 134.364 76.0043 134.364 73.2942V67.1504H192.116V73.2942C192.116 76.0043 189.911 78.2092 187.201 78.2092H139.279Z" fill="#6A0DB4"/>
<path d="M187.202 22.915H139.281C135.216 22.915 131.908 26.2224 131.908 30.2876V68.379C131.908 72.4442 135.216 75.7515 139.281 75.7515H187.202C191.267 75.7515 194.575 72.4442 194.575 68.379C194.575 67.5223 194.575 31.3917 194.575 30.2876C194.575 26.2224 191.267 22.915 187.202 22.915Z" fill="#EBF5FC"/>
<path d="M139.279 73.2946C136.565 73.2946 134.364 71.094 134.364 68.3796V57.3208C134.364 55.9635 135.464 54.8633 136.822 54.8633H189.658C191.016 54.8633 192.116 55.9635 192.116 57.3208V68.3796C192.116 71.094 189.915 73.2946 187.201 73.2946H139.279Z" fill="#A12BFF"/>
<path d="M145.424 30.2881C146.782 30.2881 147.882 29.1878 147.882 27.8306C147.882 26.4733 146.782 25.373 145.424 25.373C144.067 25.373 142.967 26.4733 142.967 27.8306C142.967 29.1878 144.067 30.2881 145.424 30.2881Z" fill="#AAB9E5"/>
<path d="M145.425 29.0588C144.407 29.0588 143.582 28.2336 143.582 27.2157V19.8431C143.582 18.8252 144.407 18 145.425 18C146.443 18 147.268 18.8252 147.268 19.8431V27.2157C147.268 28.2336 146.443 29.0588 145.425 29.0588Z" fill="#D3DCFB"/>
<path d="M181.057 30.2881C182.414 30.2881 183.515 29.1878 183.515 27.8306C183.515 26.4733 182.414 25.373 181.057 25.373C179.7 25.373 178.6 26.4733 178.6 27.8306C178.6 29.1878 179.7 30.2881 181.057 30.2881Z" fill="#AAB9E5"/>
<path d="M181.059 29.0588C180.041 29.0588 179.216 28.2336 179.216 27.2157V19.8431C179.216 18.8252 180.041 18 181.059 18C182.077 18 182.902 18.8252 182.902 19.8431V27.2157C182.902 28.2336 182.077 29.0588 181.059 29.0588Z" fill="#D3DCFB"/>
<path d="M163.243 30.2881C164.6 30.2881 165.7 29.1878 165.7 27.8306C165.7 26.4733 164.6 25.373 163.243 25.373C161.885 25.373 160.785 26.4733 160.785 27.8306C160.785 29.1878 161.885 30.2881 163.243 30.2881Z" fill="#AAB9E5"/>
<path d="M163.242 29.0588C162.224 29.0588 161.398 28.2336 161.398 27.2157V19.8431C161.398 18.8252 162.224 18 163.242 18C164.259 18 165.085 18.8252 165.085 19.8431V27.2157C165.085 28.2336 164.259 29.0588 163.242 29.0588Z" fill="#D3DCFB"/>
<path d="M168.156 49.9475C170.866 49.9475 173.071 47.7426 173.071 45.0324V38.8887C173.071 36.1785 170.866 33.9736 168.156 33.9736C165.446 33.9736 163.241 36.1785 163.241 38.8887V45.0324C163.241 47.7426 165.446 49.9475 168.156 49.9475ZM165.699 38.8887C165.699 37.5336 166.801 36.4311 168.156 36.4311C169.511 36.4311 170.614 37.5336 170.614 38.8887V45.0324C170.614 46.3875 169.511 47.4899 168.156 47.4899C166.801 47.4899 165.699 46.3875 165.699 45.0324V38.8887Z" fill="#252A3F"/>
<path d="M155.376 39.8703L158.325 37.6585V48.7173C158.325 49.3958 158.875 49.9461 159.554 49.9461C160.232 49.9461 160.783 49.3958 160.783 48.7173V35.201C160.783 34.1908 159.626 33.6111 158.817 34.218L153.902 37.9043C153.359 38.3114 153.249 39.0817 153.656 39.6245C154.063 40.1673 154.833 40.2774 155.376 39.8703Z" fill="#252A3F"/>
<path d="M175.726 66.3469C175.718 66.4862 175.697 66.6336 175.664 66.7893C175.64 66.9449 175.562 67.0719 175.431 67.1702C175.333 67.2521 175.222 67.3012 175.099 67.3176C174.976 67.334 174.854 67.3258 174.731 67.293C174.616 67.2685 174.505 67.2275 174.399 67.1702C174.292 67.1046 174.206 67.0268 174.141 66.9367C173.862 66.5927 173.604 66.2404 173.367 65.88C173.137 65.5114 172.904 65.1427 172.666 64.7741L171.634 63.2136C171.495 62.9924 171.347 62.7467 171.192 62.4763C171.036 62.1978 170.876 61.9398 170.713 61.7022L170.676 66.3961V66.5066C170.676 66.6377 170.651 66.7688 170.602 66.8998C170.561 67.0227 170.487 67.1292 170.381 67.2193C170.299 67.2849 170.192 67.3299 170.061 67.3545C169.857 67.3954 169.685 67.3832 169.545 67.3176C169.414 67.2521 169.308 67.162 169.226 67.0473C169.152 66.9326 169.099 66.8015 169.066 66.6541C169.041 66.4985 169.037 66.3469 169.054 66.1995V65.9906L169.078 65.0321L169.091 63.2504C169.099 62.9883 169.103 62.7221 169.103 62.4517C169.103 62.1732 169.103 61.8906 169.103 61.6039C169.095 61.2517 169.095 60.8789 169.103 60.4857C169.119 60.0925 169.136 59.7239 169.152 59.3799C169.168 59.1915 169.214 59.0317 169.287 58.9006C169.32 58.786 169.406 58.6877 169.545 58.6057C169.635 58.5484 169.75 58.5115 169.889 58.4952C170.037 58.4788 170.164 58.4829 170.27 58.5074C170.311 58.5238 170.352 58.5443 170.393 58.5689C170.434 58.5853 170.475 58.6057 170.516 58.6303C170.557 58.6631 170.594 58.6959 170.627 58.7286C170.668 58.7614 170.704 58.7982 170.737 58.8392C170.778 58.8802 170.815 58.9252 170.848 58.9744C170.881 59.0153 170.913 59.0563 170.946 59.0972C170.971 59.1464 170.995 59.1914 171.02 59.2324C171.044 59.2734 171.073 59.3143 171.106 59.3553L171.241 59.5519L174.079 64.0246V63.2136C174.079 62.9514 174.075 62.6852 174.067 62.4149C174.067 62.1364 174.063 61.8497 174.055 61.5548C174.055 61.2107 174.055 60.8421 174.055 60.4489C174.063 60.0557 174.075 59.687 174.092 59.343C174.092 59.2037 174.133 59.044 174.215 58.8638C174.256 58.7573 174.325 58.6713 174.423 58.6057C174.522 58.5402 174.632 58.4952 174.755 58.4706C174.878 58.446 175.001 58.446 175.124 58.4706C175.247 58.4952 175.353 58.5443 175.443 58.618C175.468 58.6426 175.492 58.6713 175.517 58.704C175.542 58.7368 175.562 58.7737 175.578 58.8146C175.619 58.9211 175.644 59.0153 175.652 59.0972C175.677 59.2119 175.689 59.3143 175.689 59.4044C175.689 60.4284 175.689 61.4728 175.689 62.5378C175.697 63.6027 175.705 64.6471 175.714 65.6711C175.714 65.7858 175.718 65.9005 175.726 66.0151C175.734 66.1216 175.734 66.2322 175.726 66.3469Z" fill="white"/>
<path d="M166.925 66.4451C166.933 66.4942 166.937 66.5434 166.937 66.5925C166.946 66.6335 166.95 66.6827 166.95 66.74C166.95 66.8383 166.921 66.9284 166.864 67.0103C166.839 67.0513 166.806 67.0922 166.765 67.1332C166.724 67.166 166.675 67.1946 166.618 67.2192C166.413 67.3339 166.196 67.3749 165.967 67.3421C165.852 67.3093 165.75 67.2561 165.66 67.1823C165.643 67.166 165.631 67.1578 165.623 67.1578C165.615 67.1496 165.606 67.1373 165.598 67.1209C165.59 67.1127 165.582 67.1045 165.574 67.0963C165.565 67.08 165.553 67.0677 165.537 67.0595C165.496 67.0185 165.463 66.9817 165.438 66.9489C165.414 66.9079 165.389 66.867 165.365 66.826C165.348 66.785 165.328 66.7482 165.303 66.7154C165.287 66.6745 165.266 66.6335 165.242 66.5925C165.225 66.5598 165.209 66.5311 165.193 66.5065C165.176 66.4738 165.164 66.441 165.156 66.4082C165.123 66.3345 165.103 66.269 165.094 66.2116L164.836 65.6095C164.271 65.6095 163.706 65.6136 163.141 65.6218C162.584 65.6218 162.022 65.6177 161.457 65.6095L161.199 66.2116C161.183 66.2444 161.171 66.2772 161.162 66.3099C161.162 66.3427 161.154 66.3755 161.138 66.4082C161.121 66.441 161.105 66.4738 161.089 66.5065C161.08 66.5311 161.068 66.5598 161.052 66.5925C161.027 66.6335 161.003 66.6745 160.978 66.7154C160.962 66.7482 160.941 66.785 160.917 66.826C160.9 66.867 160.88 66.9079 160.855 66.9489C160.831 66.9817 160.798 67.0185 160.757 67.0595C160.74 67.0677 160.728 67.08 160.72 67.0963C160.712 67.1045 160.704 67.1127 160.695 67.1209C160.687 67.1373 160.679 67.1496 160.671 67.1578C160.663 67.1578 160.65 67.166 160.634 67.1823C160.544 67.2561 160.441 67.3093 160.327 67.3421C160.097 67.3749 159.88 67.3339 159.676 67.2192C159.618 67.1946 159.569 67.166 159.528 67.1332C159.487 67.0922 159.454 67.0513 159.43 67.0103C159.372 66.9284 159.344 66.8383 159.344 66.74C159.344 66.6827 159.344 66.6335 159.344 66.5925C159.352 66.5434 159.36 66.4942 159.368 66.4451C159.385 66.3714 159.405 66.2976 159.43 66.2239C159.454 66.1502 159.467 66.1133 159.467 66.1133L162.022 59.8221L162.096 59.6255C162.113 59.5763 162.133 59.5313 162.158 59.4903C162.182 59.4494 162.203 59.4002 162.219 59.3429C162.26 59.2364 162.305 59.1422 162.354 59.0603C162.379 59.0111 162.407 58.9661 162.44 58.9251C162.473 58.8841 162.506 58.8432 162.539 58.8022C162.588 58.7367 162.657 58.6835 162.747 58.6425C162.862 58.6015 162.993 58.5811 163.141 58.5811C163.296 58.5811 163.431 58.6015 163.546 58.6425C163.636 58.6835 163.706 58.7367 163.755 58.8022C163.812 58.876 163.874 58.962 163.939 59.0603C163.988 59.1422 164.034 59.2364 164.074 59.3429C164.091 59.4002 164.111 59.4494 164.136 59.4903C164.16 59.5313 164.181 59.5763 164.197 59.6255L164.271 59.8221L166.827 66.1133C166.827 66.1133 166.839 66.1502 166.864 66.2239C166.888 66.2976 166.909 66.3714 166.925 66.4451ZM164.013 63.4346C163.907 63.1971 163.796 62.9513 163.681 62.6974C163.575 62.4434 163.46 62.1854 163.337 61.9233C163.304 61.8495 163.272 61.7758 163.239 61.7021C163.206 61.6202 163.173 61.5424 163.141 61.4686C163.116 61.5424 163.087 61.6202 163.055 61.7021C163.022 61.7758 162.989 61.8495 162.956 61.9233C162.833 62.1854 162.715 62.4434 162.6 62.6974C162.493 62.9513 162.387 63.1971 162.28 63.4346L162.059 63.9753H164.234L164.013 63.4346Z" fill="white"/>
<path d="M158.417 58.888C158.499 58.9945 158.54 59.101 158.54 59.2075C158.548 59.2566 158.548 59.3181 158.54 59.3918C158.54 59.4655 158.536 59.5229 158.527 59.5638C158.503 59.6457 158.445 59.7276 158.355 59.8096C158.331 59.8341 158.302 59.8587 158.269 59.8833C158.237 59.8997 158.196 59.9161 158.146 59.9324C158.097 59.9488 158.048 59.9611 157.999 59.9693C157.95 59.9693 157.897 59.9734 157.839 59.9816C157.782 59.9898 157.729 59.998 157.68 60.0062C157.63 60.0062 157.577 60.0062 157.52 60.0062H156.819V60.2151C156.811 60.9523 156.824 61.6896 156.856 62.4268C156.897 63.1641 156.893 63.9013 156.844 64.6386C156.819 64.8843 156.783 65.1383 156.733 65.4004C156.684 65.6543 156.602 65.896 156.488 66.1254C156.381 66.3465 156.238 66.5513 156.058 66.7397C155.877 66.9282 155.648 67.0756 155.369 67.1821C155.107 67.2804 154.821 67.35 154.509 67.391C154.198 67.4319 153.883 67.436 153.563 67.4033C153.252 67.3705 152.953 67.3009 152.666 67.1944C152.38 67.0879 152.138 66.9404 151.941 66.752C151.835 66.6537 151.736 66.535 151.646 66.3957C151.556 66.2482 151.495 66.0967 151.462 65.9411C151.429 65.7772 151.437 65.6216 151.487 65.4741C151.536 65.3185 151.65 65.1915 151.831 65.0932C151.986 65.0031 152.126 64.9826 152.248 65.0318C152.38 65.0809 152.502 65.1587 152.617 65.2652C152.74 65.3717 152.863 65.4823 152.986 65.597C153.117 65.7117 153.26 65.7854 153.416 65.8182C153.752 65.9001 154.026 65.9042 154.239 65.8305C154.452 65.7486 154.62 65.6216 154.743 65.4496C154.866 65.2775 154.952 65.0686 155.001 64.8229C155.058 64.5771 155.091 64.3273 155.099 64.0733C155.116 63.8194 155.12 63.5737 155.111 63.3361C155.103 63.0985 155.103 62.8978 155.111 62.734C155.12 62.2998 155.12 61.8739 155.111 61.4561C155.103 61.0383 155.099 60.6124 155.099 60.1782V60.129C155.107 60.1127 155.111 60.0881 155.111 60.0553H155.075C155.025 60.0471 154.923 60.043 154.767 60.043C154.612 60.0348 154.444 60.0307 154.264 60.0307C154.083 60.0307 153.911 60.0307 153.748 60.0307C153.592 60.0225 153.489 60.0185 153.44 60.0185H153.268V60.0062C153.203 59.998 153.137 59.9857 153.072 59.9693C153.006 59.9529 152.941 59.9365 152.875 59.9202C152.719 59.871 152.601 59.7932 152.519 59.6867C152.478 59.6457 152.445 59.5802 152.42 59.4901C152.404 59.4 152.396 59.3222 152.396 59.2566C152.396 59.2157 152.396 59.1706 152.396 59.1215C152.396 59.0723 152.404 59.0273 152.42 58.9863C152.437 58.8962 152.494 58.8143 152.592 58.7405C152.658 58.6914 152.736 58.6545 152.826 58.63C152.883 58.6136 152.941 58.6013 152.998 58.5931C153.055 58.5849 153.117 58.5767 153.182 58.5685C153.24 58.5603 153.297 58.5562 153.354 58.5562C153.412 58.5562 153.473 58.5562 153.539 58.5562H154.718C154.767 58.5562 154.825 58.5562 154.89 58.5562C154.956 58.5562 155.03 58.5521 155.111 58.5439C155.431 58.5439 155.746 58.5439 156.058 58.5439C156.369 58.5439 156.672 58.548 156.967 58.5562H157.041C157.131 58.5562 157.217 58.5603 157.299 58.5685C157.389 58.5685 157.479 58.5685 157.569 58.5685C157.757 58.5767 157.933 58.6136 158.097 58.6791C158.228 58.7119 158.335 58.7815 158.417 58.888Z" fill="white"/>
<path d="M114 32.5C112.619 32.5 111.5 33.6193 111.5 35C111.5 36.3807 112.619 37.5 114 37.5L114 32.5ZM127 32.5L114 32.5L114 37.5L127 37.5L127 32.5Z" fill="#D9046A"/>
<path d="M101 49.5C99.6193 49.5 98.5 50.6193 98.5 52C98.5 53.3807 99.6193 54.5 101 54.5L101 49.5ZM127 49.5L101 49.5L101 54.5L127 54.5L127 49.5Z" fill="#D9046A"/>
<path d="M80 67.5C78.6193 67.5 77.5 68.6193 77.5 70C77.5 71.3807 78.6193 72.5 80 72.5L80 67.5ZM127 67.5L80 67.5L80 72.5L127 72.5L127 67.5Z" fill="#D9046A"/>
</svg>
