<svg width="292" height="103" viewBox="0 0 292 103" fill="none" xmlns="http://www.w3.org/2000/svg">
<rect width="292" height="102.768" fill="#1D1D26"/>
<path d="M109.689 60.8738H79.9621C77.4363 60.8738 75.3887 58.8262 75.3887 56.3004V52.4893H114.262V56.3004C114.262 58.8262 112.215 60.8738 109.689 60.8738Z" fill="#D3DCFB"/>
<path d="M79.962 59.3493C78.2808 59.3493 76.9131 57.9816 76.9131 56.3004V52.4893H112.738V56.3004C112.738 57.9816 111.37 59.3493 109.689 59.3493H79.962Z" fill="#6A0DB4"/>
<path d="M109.689 25.0488H79.9621C77.4403 25.0488 75.3887 27.1004 75.3887 29.6222V53.2514C75.3887 55.7731 77.4403 57.8248 79.9621 57.8248H109.689C112.211 57.8248 114.262 55.7731 114.262 53.2514C114.262 52.7199 114.262 30.3072 114.262 29.6222C114.262 27.1004 112.211 25.0488 109.689 25.0488Z" fill="#EBF5FC"/>
<path d="M79.962 56.3007C78.2782 56.3007 76.9131 54.9356 76.9131 53.2517V46.3916C76.9131 45.5497 77.5956 44.8672 78.4375 44.8672H111.213C112.055 44.8672 112.738 45.5497 112.738 46.3916V53.2517C112.738 54.9356 111.373 56.3007 109.689 56.3007H79.962Z" fill="#A12BFF"/>
<path d="M83.7735 29.6222C84.6154 29.6222 85.2979 28.9396 85.2979 28.0977C85.2979 27.2558 84.6154 26.5732 83.7735 26.5732C82.9315 26.5732 82.249 27.2558 82.249 28.0977C82.249 28.9396 82.9315 29.6222 83.7735 29.6222Z" fill="#AAB9E5"/>
<path d="M83.7732 28.8601C83.1418 28.8601 82.6299 28.3482 82.6299 27.7167V23.1433C82.6299 22.5119 83.1418 22 83.7732 22C84.4047 22 84.9166 22.5119 84.9166 23.1433V27.7167C84.9166 28.3482 84.4047 28.8601 83.7732 28.8601Z" fill="#D3DCFB"/>
<path d="M105.878 29.6222C106.72 29.6222 107.402 28.9396 107.402 28.0977C107.402 27.2558 106.72 26.5732 105.878 26.5732C105.036 26.5732 104.354 27.2558 104.354 28.0977C104.354 28.9396 105.036 29.6222 105.878 29.6222Z" fill="#AAB9E5"/>
<path d="M105.878 28.8601C105.246 28.8601 104.734 28.3482 104.734 27.7167V23.1433C104.734 22.5119 105.246 22 105.878 22C106.509 22 107.021 22.5119 107.021 23.1433V27.7167C107.021 28.3482 106.509 28.8601 105.878 28.8601Z" fill="#D3DCFB"/>
<path d="M94.8252 29.6222C95.6672 29.6222 96.3497 28.9396 96.3497 28.0977C96.3497 27.2558 95.6672 26.5732 94.8252 26.5732C93.9833 26.5732 93.3008 27.2558 93.3008 28.0977C93.3008 28.9396 93.9833 29.6222 94.8252 29.6222Z" fill="#AAB9E5"/>
<path d="M94.825 28.8601C94.1936 28.8601 93.6816 28.3482 93.6816 27.7167V23.1433C93.6816 22.5119 94.1936 22 94.825 22C95.4564 22 95.9683 22.5119 95.9683 23.1433V27.7167C95.9683 28.3482 95.4564 28.8601 94.825 28.8601Z" fill="#D3DCFB"/>
<path d="M97.8741 41.8182C99.5553 41.8182 100.923 40.4504 100.923 38.7693V34.9581C100.923 33.2769 99.5553 31.9092 97.8741 31.9092C96.1929 31.9092 94.8252 33.2769 94.8252 34.9581V38.7693C94.8252 40.4504 96.1929 41.8182 97.8741 41.8182ZM96.3497 34.9581C96.3497 34.1175 97.0335 33.4336 97.8741 33.4336C98.7147 33.4336 99.3986 34.1175 99.3986 34.9581V38.7693C99.3986 39.6098 98.7147 40.2937 97.8741 40.2937C97.0335 40.2937 96.3497 39.6098 96.3497 38.7693V34.9581Z" fill="#252A3F"/>
<path d="M89.9471 35.5679L91.7765 34.1959V41.0559C91.7765 41.4768 92.1178 41.8182 92.5387 41.8182C92.9596 41.8182 93.3009 41.4768 93.3009 41.0559V32.6714C93.3009 32.0448 92.5835 31.6851 92.0814 32.0616L89.0324 34.3483C88.6957 34.6008 88.6275 35.0787 88.88 35.4154C89.1326 35.7521 89.6103 35.8204 89.9471 35.5679Z" fill="#252A3F"/>
<path d="M102.571 51.9921C102.566 52.0784 102.553 52.1699 102.533 52.2665C102.517 52.363 102.469 52.4418 102.388 52.5028C102.327 52.5536 102.258 52.5841 102.182 52.5942C102.106 52.6044 102.03 52.5993 101.953 52.579C101.882 52.5637 101.814 52.5383 101.748 52.5028C101.682 52.4621 101.628 52.4138 101.588 52.3579C101.415 52.1445 101.255 51.926 101.107 51.7024C100.965 51.4737 100.82 51.2451 100.673 51.0164L100.033 50.0484C99.9462 49.9112 99.8547 49.7587 99.7582 49.591C99.6616 49.4183 99.5625 49.2582 99.4609 49.1108L99.438 52.0226V52.0912C99.438 52.1725 99.4228 52.2538 99.3923 52.3351C99.3669 52.4113 99.3211 52.4773 99.2551 52.5332C99.2043 52.5739 99.1382 52.6018 99.0569 52.6171C98.9299 52.6425 98.8232 52.6349 98.7368 52.5942C98.6555 52.5536 98.5894 52.4977 98.5386 52.4265C98.4929 52.3554 98.4598 52.2741 98.4395 52.1826C98.4243 52.0861 98.4217 51.9921 98.4319 51.9006V51.771L98.4471 51.1765L98.4547 50.0712C98.4598 49.9086 98.4624 49.7435 98.4624 49.5758C98.4624 49.403 98.4624 49.2277 98.4624 49.0498C98.4573 48.8313 98.4573 48.6001 98.4624 48.3562C98.4725 48.1123 98.4827 47.8836 98.4929 47.6702C98.503 47.5533 98.531 47.4542 98.5767 47.3729C98.597 47.3018 98.6504 47.2408 98.7368 47.19C98.7927 47.1544 98.8638 47.1316 98.9502 47.1214C99.0417 47.1112 99.1204 47.1138 99.1865 47.129C99.2119 47.1392 99.2373 47.1519 99.2627 47.1671C99.2881 47.1773 99.3135 47.19 99.3389 47.2052C99.3643 47.2256 99.3872 47.2459 99.4075 47.2662C99.4329 47.2866 99.4558 47.3094 99.4761 47.3348C99.5015 47.3602 99.5244 47.3882 99.5447 47.4187C99.5651 47.4441 99.5854 47.4695 99.6057 47.4949C99.621 47.5254 99.6362 47.5533 99.6515 47.5787C99.6667 47.6042 99.6845 47.6296 99.7048 47.655L99.7887 47.7769L101.549 50.5514V50.0484C101.549 49.8858 101.547 49.7206 101.542 49.5529C101.542 49.3801 101.539 49.2023 101.534 49.0194C101.534 48.8059 101.534 48.5773 101.534 48.3334C101.539 48.0894 101.547 47.8608 101.557 47.6473C101.557 47.561 101.582 47.4619 101.633 47.3501C101.659 47.284 101.702 47.2307 101.763 47.19C101.824 47.1494 101.892 47.1214 101.969 47.1062C102.045 47.0909 102.121 47.0909 102.197 47.1062C102.274 47.1214 102.34 47.1519 102.395 47.1976C102.411 47.2129 102.426 47.2307 102.441 47.251C102.456 47.2713 102.469 47.2942 102.479 47.3196C102.505 47.3856 102.52 47.4441 102.525 47.4949C102.54 47.566 102.548 47.6296 102.548 47.6855C102.548 48.3206 102.548 48.9685 102.548 49.6291C102.553 50.2897 102.558 50.9376 102.563 51.5728C102.563 51.644 102.566 51.7151 102.571 51.7863C102.576 51.8523 102.576 51.9209 102.571 51.9921Z" fill="white"/>
<path d="M97.1121 52.0531C97.1172 52.0836 97.1198 52.1141 97.1198 52.1446C97.1248 52.17 97.1274 52.2004 97.1274 52.236C97.1274 52.297 97.1096 52.3529 97.074 52.4037C97.0588 52.4291 97.0385 52.4545 97.0131 52.4799C96.9876 52.5003 96.9572 52.518 96.9216 52.5333C96.7945 52.6044 96.6599 52.6298 96.5176 52.6095C96.4465 52.5892 96.3829 52.5562 96.327 52.5104C96.3169 52.5003 96.3093 52.4952 96.3042 52.4952C96.2991 52.4901 96.294 52.4825 96.2889 52.4723C96.2839 52.4672 96.2788 52.4621 96.2737 52.4571C96.2686 52.4469 96.261 52.4393 96.2508 52.4342C96.2254 52.4088 96.2051 52.3859 96.1898 52.3656C96.1746 52.3402 96.1594 52.3148 96.1441 52.2894C96.1339 52.264 96.1212 52.2411 96.106 52.2208C96.0958 52.1954 96.0831 52.17 96.0679 52.1446C96.0577 52.1242 96.0476 52.1064 96.0374 52.0912C96.0272 52.0709 96.0196 52.0505 96.0145 52.0302C95.9942 51.9845 95.9815 51.9438 95.9764 51.9083L95.8164 51.5348C95.4657 51.5348 95.1151 51.5373 94.7645 51.5424C94.4189 51.5424 94.0708 51.5398 93.7202 51.5348L93.5601 51.9083C93.55 51.9286 93.5424 51.9489 93.5373 51.9692C93.5373 51.9896 93.5322 52.0099 93.522 52.0302C93.5119 52.0505 93.5017 52.0709 93.4915 52.0912C93.4865 52.1064 93.4788 52.1242 93.4687 52.1446C93.4534 52.17 93.4382 52.1954 93.4229 52.2208C93.4128 52.2411 93.4001 52.264 93.3848 52.2894C93.3747 52.3148 93.362 52.3402 93.3467 52.3656C93.3315 52.3859 93.3112 52.4088 93.2857 52.4342C93.2756 52.4393 93.268 52.4469 93.2629 52.4571C93.2578 52.4621 93.2527 52.4672 93.2476 52.4723C93.2426 52.4825 93.2375 52.4901 93.2324 52.4952C93.2273 52.4952 93.2197 52.5003 93.2095 52.5104C93.1536 52.5562 93.0901 52.5892 93.019 52.6095C92.8767 52.6298 92.742 52.6044 92.615 52.5333C92.5794 52.518 92.5489 52.5003 92.5235 52.4799C92.4981 52.4545 92.4778 52.4291 92.4625 52.4037C92.427 52.3529 92.4092 52.297 92.4092 52.236C92.4092 52.2004 92.4092 52.17 92.4092 52.1446C92.4143 52.1141 92.4193 52.0836 92.4244 52.0531C92.4346 52.0073 92.4473 51.9616 92.4625 51.9159C92.4778 51.8701 92.4854 51.8473 92.4854 51.8473L94.0708 47.9447L94.1166 47.8227C94.1267 47.7922 94.1394 47.7643 94.1547 47.7389C94.1699 47.7134 94.1826 47.683 94.1928 47.6474C94.2182 47.5813 94.2462 47.5229 94.2766 47.4721C94.2919 47.4416 94.3097 47.4136 94.33 47.3882C94.3503 47.3628 94.3707 47.3374 94.391 47.312C94.4215 47.2714 94.4647 47.2383 94.5206 47.2129C94.5917 47.1875 94.673 47.1748 94.7645 47.1748C94.861 47.1748 94.9449 47.1875 95.016 47.2129C95.0719 47.2383 95.1151 47.2714 95.1456 47.312C95.1812 47.3577 95.2193 47.4111 95.2599 47.4721C95.2904 47.5229 95.3184 47.5813 95.3438 47.6474C95.3539 47.683 95.3666 47.7134 95.3819 47.7389C95.3971 47.7643 95.4098 47.7922 95.42 47.8227L95.4657 47.9447L97.0512 51.8473C97.0512 51.8473 97.0588 51.8701 97.074 51.9159C97.0893 51.9616 97.102 52.0073 97.1121 52.0531ZM95.3057 50.1856C95.2396 50.0383 95.171 49.8858 95.0999 49.7283C95.0338 49.5708 94.9627 49.4107 94.8864 49.2481C94.8661 49.2023 94.8458 49.1566 94.8255 49.1109C94.8051 49.0601 94.7848 49.0118 94.7645 48.966C94.7492 49.0118 94.7314 49.0601 94.7111 49.1109C94.6908 49.1566 94.6705 49.2023 94.6501 49.2481C94.5739 49.4107 94.5002 49.5708 94.4291 49.7283C94.363 49.8858 94.297 50.0383 94.2309 50.1856L94.0937 50.521H95.4429L95.3057 50.1856Z" fill="white"/>
<path d="M91.8342 47.3648C91.8851 47.4309 91.9105 47.4969 91.9105 47.563C91.9155 47.5935 91.9155 47.6316 91.9105 47.6773C91.9105 47.723 91.9079 47.7586 91.9028 47.784C91.8876 47.8348 91.852 47.8856 91.7961 47.9365C91.7809 47.9517 91.7631 47.967 91.7428 47.9822C91.7224 47.9924 91.697 48.0025 91.6665 48.0127C91.6361 48.0229 91.6056 48.0305 91.5751 48.0356C91.5446 48.0356 91.5116 48.0381 91.476 48.0432C91.4404 48.0483 91.4074 48.0533 91.3769 48.0584C91.3464 48.0584 91.3134 48.0584 91.2778 48.0584H90.8433V48.188C90.8383 48.6453 90.8459 49.1027 90.8662 49.56C90.8916 50.0174 90.8891 50.4747 90.8586 50.932C90.8433 51.0845 90.8205 51.242 90.79 51.4046C90.7595 51.5621 90.7087 51.7121 90.6375 51.8543C90.5715 51.9915 90.4825 52.1186 90.3708 52.2354C90.259 52.3523 90.1167 52.4438 89.9439 52.5099C89.7813 52.5708 89.6034 52.614 89.4103 52.6394C89.2172 52.6648 89.0216 52.6674 88.8234 52.6471C88.6303 52.6267 88.4448 52.5835 88.267 52.5175C88.0891 52.4514 87.9392 52.3599 87.8173 52.2431C87.7512 52.1821 87.6902 52.1084 87.6343 52.022C87.5784 51.9306 87.5403 51.8365 87.52 51.74C87.4997 51.6384 87.5048 51.5418 87.5353 51.4504C87.5657 51.3538 87.6369 51.275 87.7487 51.2141C87.8452 51.1582 87.9316 51.1455 88.0078 51.1759C88.0891 51.2064 88.1654 51.2547 88.2365 51.3208C88.3127 51.3868 88.389 51.4554 88.4652 51.5266C88.5465 51.5977 88.6354 51.6434 88.732 51.6638C88.9403 51.7146 89.1105 51.7171 89.2427 51.6714C89.3748 51.6206 89.4789 51.5418 89.5552 51.4351C89.6314 51.3284 89.6847 51.1988 89.7152 51.0464C89.7508 50.8939 89.7711 50.7389 89.7762 50.5814C89.7864 50.4239 89.7889 50.2714 89.7838 50.1241C89.7788 49.9767 89.7788 49.8522 89.7838 49.7506C89.7889 49.4813 89.7889 49.217 89.7838 48.9579C89.7788 48.6987 89.7762 48.4345 89.7762 48.1651V48.1346C89.7813 48.1245 89.7838 48.1092 89.7838 48.0889H89.761C89.7305 48.0838 89.667 48.0813 89.5704 48.0813C89.4739 48.0762 89.3697 48.0737 89.2579 48.0737C89.1461 48.0737 89.0394 48.0737 88.9378 48.0737C88.8412 48.0686 88.7777 48.066 88.7472 48.066H88.6405V48.0584C88.5998 48.0533 88.5592 48.0457 88.5185 48.0356C88.4779 48.0254 88.4372 48.0152 88.3966 48.0051C88.3 47.9746 88.2263 47.9263 88.1755 47.8602C88.1501 47.8348 88.1298 47.7942 88.1145 47.7383C88.1044 47.6824 88.0993 47.6341 88.0993 47.5935C88.0993 47.5681 88.0993 47.5401 88.0993 47.5096C88.0993 47.4791 88.1044 47.4512 88.1145 47.4258C88.1247 47.3699 88.1603 47.3191 88.2213 47.2733C88.2619 47.2428 88.3102 47.22 88.3661 47.2047C88.4017 47.1946 88.4372 47.1869 88.4728 47.1819C88.5084 47.1768 88.5465 47.1717 88.5871 47.1666C88.6227 47.1615 88.6583 47.159 88.6938 47.159C88.7294 47.159 88.7675 47.159 88.8082 47.159H89.5399C89.5704 47.159 89.606 47.159 89.6466 47.159C89.6873 47.159 89.733 47.1564 89.7838 47.1514C89.982 47.1514 90.1777 47.1514 90.3708 47.1514C90.5639 47.1514 90.7519 47.1539 90.9348 47.159H90.9805C91.0364 47.159 91.0898 47.1615 91.1406 47.1666C91.1965 47.1666 91.2524 47.1666 91.3083 47.1666C91.4252 47.1717 91.5344 47.1946 91.6361 47.2352C91.7174 47.2555 91.7834 47.2987 91.8342 47.3648Z" fill="white"/>
<path d="M158.281 60.8738H128.554C126.028 60.8738 123.98 58.8262 123.98 56.3004V52.4893H162.854V56.3004C162.854 58.8262 160.807 60.8738 158.281 60.8738Z" fill="#D3DCFB"/>
<path d="M128.554 59.3493C126.873 59.3493 125.505 57.9816 125.505 56.3004V52.4893H161.33V56.3004C161.33 57.9816 159.962 59.3493 158.281 59.3493H128.554Z" fill="#6A0DB4"/>
<path d="M158.281 25.0488H128.554C126.032 25.0488 123.98 27.1004 123.98 29.6222V53.2514C123.98 55.7731 126.032 57.8248 128.554 57.8248H158.281C160.803 57.8248 162.854 55.7731 162.854 53.2514C162.854 52.7199 162.854 30.3072 162.854 29.6222C162.854 27.1004 160.803 25.0488 158.281 25.0488Z" fill="#EBF5FC"/>
<path d="M128.554 56.3007C126.87 56.3007 125.505 54.9356 125.505 53.2517V46.3916C125.505 45.5497 126.187 44.8672 127.029 44.8672H159.805C160.647 44.8672 161.33 45.5497 161.33 46.3916V53.2517C161.33 54.9356 159.965 56.3007 158.281 56.3007H128.554Z" fill="#A12BFF"/>
<path d="M132.365 29.6222C133.207 29.6222 133.89 28.9396 133.89 28.0977C133.89 27.2558 133.207 26.5732 132.365 26.5732C131.523 26.5732 130.841 27.2558 130.841 28.0977C130.841 28.9396 131.523 29.6222 132.365 29.6222Z" fill="#AAB9E5"/>
<path d="M132.365 28.8601C131.734 28.8601 131.222 28.3482 131.222 27.7167V23.1433C131.222 22.5119 131.734 22 132.365 22C132.996 22 133.508 22.5119 133.508 23.1433V27.7167C133.508 28.3482 132.996 28.8601 132.365 28.8601Z" fill="#D3DCFB"/>
<path d="M154.47 29.6222C155.312 29.6222 155.994 28.9396 155.994 28.0977C155.994 27.2558 155.312 26.5732 154.47 26.5732C153.628 26.5732 152.945 27.2558 152.945 28.0977C152.945 28.9396 153.628 29.6222 154.47 29.6222Z" fill="#AAB9E5"/>
<path d="M154.47 28.8601C153.838 28.8601 153.326 28.3482 153.326 27.7167V23.1433C153.326 22.5119 153.838 22 154.47 22C155.101 22 155.613 22.5119 155.613 23.1433V27.7167C155.613 28.3482 155.101 28.8601 154.47 28.8601Z" fill="#D3DCFB"/>
<path d="M143.417 29.6222C144.259 29.6222 144.942 28.9396 144.942 28.0977C144.942 27.2558 144.259 26.5732 143.417 26.5732C142.575 26.5732 141.893 27.2558 141.893 28.0977C141.893 28.9396 142.575 29.6222 143.417 29.6222Z" fill="#AAB9E5"/>
<path d="M143.417 28.8601C142.785 28.8601 142.273 28.3482 142.273 27.7167V23.1433C142.273 22.5119 142.785 22 143.417 22C144.048 22 144.56 22.5119 144.56 23.1433V27.7167C144.56 28.3482 144.048 28.8601 143.417 28.8601Z" fill="#D3DCFB"/>
<path d="M146.466 41.8182C148.147 41.8182 149.515 40.4504 149.515 38.7693V34.9581C149.515 33.2769 148.147 31.9092 146.466 31.9092C144.785 31.9092 143.417 33.2769 143.417 34.9581V38.7693C143.417 40.4504 144.785 41.8182 146.466 41.8182ZM144.941 34.9581C144.941 34.1175 145.625 33.4336 146.466 33.4336C147.307 33.4336 147.99 34.1175 147.99 34.9581V38.7693C147.99 39.6098 147.307 40.2937 146.466 40.2937C145.625 40.2937 144.941 39.6098 144.941 38.7693V34.9581Z" fill="#252A3F"/>
<path d="M138.539 35.5679L140.368 34.1959V41.0559C140.368 41.4768 140.71 41.8182 141.131 41.8182C141.551 41.8182 141.893 41.4768 141.893 41.0559V32.6714C141.893 32.0448 141.175 31.6851 140.673 32.0616L137.624 34.3483C137.287 34.6008 137.219 35.0787 137.472 35.4154C137.724 35.7521 138.202 35.8204 138.539 35.5679Z" fill="#252A3F"/>
<path d="M150.475 49.7583C150.622 49.8548 150.747 49.9692 150.848 50.1013C150.955 50.2283 151.039 50.3858 151.1 50.5739C151.166 50.7822 151.199 50.9931 151.199 51.2065C151.204 51.4148 151.166 51.6105 151.085 51.7934C151.008 51.9713 150.884 52.1288 150.711 52.266C150.543 52.3981 150.322 52.4921 150.048 52.548C149.901 52.5836 149.728 52.6116 149.53 52.6319C149.332 52.6522 149.154 52.6624 148.996 52.6624C148.798 52.6674 148.592 52.6674 148.379 52.6624C148.17 52.6624 147.967 52.642 147.769 52.6014C147.683 52.576 147.619 52.5328 147.578 52.4718C147.543 52.4058 147.517 52.3321 147.502 52.2508C147.482 52.205 147.472 52.1593 147.472 52.1136V47.7841C147.472 47.6418 147.5 47.5326 147.556 47.4563C147.617 47.375 147.695 47.3166 147.792 47.281C147.888 47.2404 147.998 47.2175 148.12 47.2124C148.242 47.2023 148.369 47.1972 148.501 47.1972C148.602 47.1972 148.704 47.1972 148.806 47.1972C148.912 47.1921 149.019 47.1921 149.126 47.1972C149.293 47.2023 149.466 47.2175 149.644 47.2429C149.827 47.2632 150 47.3039 150.162 47.3649C150.239 47.3903 150.32 47.4258 150.406 47.4716C150.493 47.5122 150.561 47.563 150.612 47.624C150.775 47.7714 150.894 47.9442 150.97 48.1423C151.052 48.3354 151.087 48.5336 151.077 48.7369C151.067 48.9351 151.011 49.1256 150.909 49.3086C150.813 49.4915 150.668 49.6414 150.475 49.7583ZM149.141 51.7782C149.298 51.768 149.459 51.7502 149.621 51.7248C149.784 51.6994 149.896 51.6511 149.957 51.58C150.023 51.4987 150.068 51.4047 150.094 51.298C150.124 51.1862 150.132 51.0744 150.117 50.9626C150.106 50.8457 150.073 50.7365 150.018 50.6348C149.967 50.5281 149.898 50.4443 149.812 50.3833C149.695 50.2918 149.56 50.2334 149.408 50.208C149.255 50.1775 149.105 50.1622 148.958 50.1622C148.887 50.1622 148.821 50.1648 148.76 50.1699C148.704 50.1699 148.653 50.1775 148.607 50.1927C148.567 50.2029 148.536 50.2258 148.516 50.2613C148.496 50.2969 148.485 50.3503 148.485 50.4214C148.496 50.5535 148.496 50.6856 148.485 50.8178C148.475 50.9499 148.47 51.0769 148.47 51.1989C148.47 51.27 148.468 51.3488 148.463 51.4352C148.463 51.5165 148.491 51.5851 148.546 51.641C148.602 51.6969 148.684 51.735 148.79 51.7553C148.897 51.7756 149.014 51.7833 149.141 51.7782ZM149.293 48.1195C149.136 48.1144 149.004 48.1118 148.897 48.1118C148.795 48.1068 148.714 48.1144 148.653 48.1347C148.597 48.15 148.557 48.1881 148.531 48.249C148.511 48.3049 148.503 48.3913 148.508 48.5082C148.508 48.6048 148.506 48.7013 148.501 48.7979C148.501 48.8893 148.501 48.9808 148.501 49.0723C148.501 49.1739 148.534 49.2501 148.6 49.3009C148.666 49.3467 148.747 49.3746 148.844 49.3848C148.945 49.3949 149.049 49.3949 149.156 49.3848C149.268 49.3746 149.365 49.3619 149.446 49.3467C149.629 49.3162 149.769 49.2552 149.865 49.1637C149.967 49.0672 150.025 48.9274 150.04 48.7445C150.061 48.5158 150 48.3583 149.857 48.2719C149.72 48.1804 149.532 48.1296 149.293 48.1195Z" fill="white"/>
<path d="M143.647 48.0895L143.632 49.2862H143.936C144.145 49.2811 144.33 49.2786 144.493 49.2786C144.655 49.2786 144.836 49.2811 145.034 49.2862H145.072C145.133 49.2862 145.192 49.2887 145.247 49.2938C145.308 49.2938 145.367 49.2938 145.423 49.2938C145.484 49.2989 145.542 49.3091 145.598 49.3243C145.654 49.3345 145.71 49.3472 145.766 49.3624C145.852 49.3929 145.923 49.4386 145.979 49.4996C146.03 49.5657 146.055 49.6394 146.055 49.7207C146.055 49.7461 146.055 49.7766 146.055 49.8121C146.055 49.8426 146.05 49.8706 146.04 49.896C146.03 49.9519 145.997 50.0027 145.941 50.0484C145.916 50.084 145.867 50.1094 145.796 50.1246C145.73 50.145 145.664 50.1577 145.598 50.1628C145.527 50.178 145.456 50.1856 145.385 50.1856H145.026L143.616 50.1932L143.601 51.6872L145.118 51.7025H145.476C145.517 51.7025 145.555 51.7025 145.59 51.7025C145.626 51.7025 145.659 51.705 145.69 51.7101C145.73 51.7202 145.766 51.7279 145.796 51.7329C145.832 51.7329 145.865 51.738 145.895 51.7482C145.956 51.7685 146.007 51.7965 146.048 51.832C146.099 51.8829 146.132 51.9362 146.147 51.9921C146.152 52.0175 146.155 52.0455 146.155 52.076C146.16 52.1014 146.16 52.1293 146.155 52.1598C146.155 52.2411 146.129 52.3148 146.078 52.3808C146.017 52.452 145.946 52.4977 145.865 52.518C145.758 52.5638 145.641 52.5866 145.514 52.5866C145.458 52.5917 145.4 52.5943 145.339 52.5943C145.278 52.5943 145.22 52.5968 145.164 52.6019H145.118C144.722 52.6121 144.31 52.6121 143.883 52.6019C143.781 52.6019 143.7 52.5993 143.639 52.5943C143.578 52.5943 143.522 52.5943 143.471 52.5943C143.426 52.5943 143.377 52.5943 143.327 52.5943C143.276 52.5943 143.21 52.5943 143.128 52.5943C143.012 52.6044 142.915 52.5841 142.839 52.5333C142.783 52.4977 142.74 52.4494 142.709 52.3885C142.694 52.3732 142.686 52.358 142.686 52.3427C142.681 52.3326 142.676 52.3249 142.671 52.3199C142.666 52.3148 142.661 52.3072 142.656 52.297C142.646 52.2716 142.638 52.2462 142.633 52.2208C142.628 52.1903 142.625 52.1623 142.625 52.1369C142.62 52.1115 142.615 52.0861 142.61 52.0607C142.61 52.0353 142.608 52.0099 142.603 51.9845V51.8625C142.603 51.8422 142.603 51.8219 142.603 51.8015C142.608 51.7812 142.61 51.7609 142.61 51.7406V51.146L142.625 50.0484V49.0346C142.625 48.8517 142.625 48.6891 142.625 48.5468C142.63 48.4045 142.636 48.2496 142.641 48.0819V48.0437C142.646 47.9879 142.648 47.937 142.648 47.8913C142.653 47.8405 142.656 47.7897 142.656 47.7389C142.661 47.6372 142.689 47.5381 142.74 47.4416C142.76 47.4009 142.78 47.3654 142.801 47.3349C142.826 47.3044 142.859 47.279 142.9 47.2586C142.976 47.2129 143.055 47.19 143.136 47.19C143.177 47.19 143.207 47.1926 143.228 47.1977V47.19C143.319 47.19 143.393 47.19 143.449 47.19C143.505 47.19 143.558 47.19 143.609 47.19C143.665 47.19 143.723 47.19 143.784 47.19C143.845 47.185 143.929 47.1824 144.036 47.1824C144.239 47.1773 144.432 47.1748 144.615 47.1748C144.798 47.1748 144.986 47.1773 145.179 47.1824H145.209C145.265 47.1875 145.324 47.19 145.385 47.19C145.446 47.19 145.504 47.1926 145.56 47.1977C145.616 47.1977 145.672 47.2053 145.728 47.2205C145.784 47.2307 145.839 47.2459 145.895 47.2663C145.982 47.2917 146.053 47.3349 146.109 47.3959C146.155 47.467 146.177 47.5381 146.177 47.6093C146.177 47.6398 146.177 47.6703 146.177 47.7007C146.177 47.7262 146.172 47.7516 146.162 47.777C146.157 47.8278 146.127 47.8811 146.071 47.937C146.05 47.9472 146.027 47.9599 146.002 47.9751C145.982 47.9904 145.956 48.0031 145.926 48.0133C145.895 48.0234 145.862 48.031 145.827 48.0361C145.796 48.0361 145.766 48.0387 145.735 48.0437C145.695 48.0539 145.657 48.059 145.621 48.059C145.59 48.059 145.555 48.059 145.514 48.059H145.171L143.647 48.0666V48.0895Z" fill="white"/>
<path d="M141.33 47.4028C141.376 47.4638 141.404 47.5349 141.414 47.6162C141.414 47.6467 141.412 47.6772 141.406 47.7077C141.406 47.7331 141.404 47.7585 141.399 47.7839C141.394 47.8398 141.361 47.8932 141.3 47.944C141.264 47.9694 141.218 47.9948 141.163 48.0202C141.132 48.0304 141.099 48.038 141.063 48.0431C141.033 48.0431 140.997 48.0456 140.957 48.0507C140.926 48.0608 140.893 48.0659 140.858 48.0659C140.822 48.0659 140.786 48.0659 140.751 48.0659H140.408L138.815 48.0735V48.0964L138.807 49.3388C138.848 49.3388 138.891 49.3388 138.937 49.3388C138.988 49.3388 139.049 49.3363 139.12 49.3312C139.323 49.3312 139.503 49.3312 139.661 49.3312C139.824 49.3312 140.001 49.3338 140.194 49.3388H140.24C140.296 49.3388 140.352 49.3414 140.408 49.3465C140.469 49.3465 140.53 49.3465 140.591 49.3465C140.647 49.3516 140.703 49.3592 140.759 49.3693C140.814 49.3744 140.87 49.3871 140.926 49.4075C141.018 49.4379 141.084 49.4862 141.124 49.5523C141.18 49.6183 141.208 49.6869 141.208 49.7581C141.208 49.7886 141.208 49.8191 141.208 49.8495C141.208 49.875 141.203 49.9029 141.193 49.9334C141.188 49.974 141.155 50.0249 141.094 50.0858C141.053 50.1214 141.005 50.1443 140.949 50.1544C140.924 50.1646 140.893 50.1748 140.858 50.1849C140.827 50.19 140.794 50.1951 140.759 50.2002C140.723 50.2053 140.687 50.2103 140.652 50.2154C140.621 50.2154 140.586 50.2154 140.545 50.2154H140.194L138.792 50.223L138.769 51.9914V52.0524C138.769 52.0778 138.767 52.1032 138.762 52.1286C138.762 52.1489 138.759 52.1718 138.754 52.1972C138.744 52.2226 138.734 52.2506 138.723 52.2811C138.718 52.3065 138.711 52.3319 138.701 52.3573C138.665 52.4284 138.632 52.4767 138.601 52.5021C138.546 52.5428 138.477 52.5707 138.396 52.586C138.258 52.6164 138.129 52.6012 138.007 52.5402C137.981 52.525 137.956 52.5072 137.931 52.4869C137.91 52.4615 137.893 52.431 137.877 52.3954C137.867 52.3751 137.862 52.3598 137.862 52.3497L137.839 52.3039C137.824 52.2785 137.814 52.2531 137.809 52.2277C137.804 52.1972 137.799 52.1693 137.793 52.1439C137.793 52.1185 137.791 52.093 137.786 52.0676C137.786 52.0422 137.783 52.0168 137.778 51.9914C137.773 51.9508 137.773 51.9101 137.778 51.8695V51.7475L137.786 51.153L137.793 50.0553C137.799 49.8927 137.801 49.7276 137.801 49.5599C137.801 49.3922 137.801 49.2194 137.801 49.0416C137.796 48.8586 137.793 48.696 137.793 48.5538C137.799 48.4115 137.806 48.2565 137.816 48.0888V48.0507C137.821 47.9948 137.824 47.944 137.824 47.8982C137.824 47.8474 137.829 47.7966 137.839 47.7458C137.849 47.634 137.875 47.5349 137.915 47.4485C137.951 47.3621 138.002 47.3012 138.068 47.2656C138.144 47.2198 138.225 47.197 138.312 47.197C138.352 47.197 138.385 47.1995 138.411 47.2046V47.197C138.502 47.197 138.576 47.197 138.632 47.197C138.688 47.197 138.741 47.197 138.792 47.197C138.843 47.197 138.899 47.197 138.96 47.197C139.021 47.1919 139.102 47.1894 139.204 47.1894C139.61 47.1843 140.012 47.1843 140.408 47.1894H140.446C140.502 47.1944 140.558 47.197 140.614 47.197C140.675 47.197 140.736 47.1995 140.797 47.2046C140.853 47.2046 140.908 47.2122 140.964 47.2275C141.02 47.2376 141.076 47.2529 141.132 47.2732C141.218 47.2986 141.284 47.3418 141.33 47.4028Z" fill="white"/>
<path d="M206.873 60.8738H177.146C174.62 60.8738 172.572 58.8262 172.572 56.3004V52.4893H211.446V56.3004C211.446 58.8262 209.398 60.8738 206.873 60.8738Z" fill="#D3DCFB"/>
<path d="M177.146 59.3493C175.464 59.3493 174.097 57.9816 174.097 56.3004V52.4893H209.922V56.3004C209.922 57.9816 208.554 59.3493 206.873 59.3493H177.146Z" fill="#6A0DB4"/>
<path d="M206.873 25.0488H177.146C174.624 25.0488 172.572 27.1004 172.572 29.6222V53.2514C172.572 55.7731 174.624 57.8248 177.146 57.8248H206.873C209.394 57.8248 211.446 55.7731 211.446 53.2514C211.446 52.7199 211.446 30.3072 211.446 29.6222C211.446 27.1004 209.394 25.0488 206.873 25.0488Z" fill="#EBF5FC"/>
<path d="M177.146 56.3007C175.462 56.3007 174.097 54.9356 174.097 53.2517V46.3916C174.097 45.5497 174.779 44.8672 175.621 44.8672H208.397C209.239 44.8672 209.922 45.5497 209.922 46.3916V53.2517C209.922 54.9356 208.556 56.3007 206.873 56.3007H177.146Z" fill="#A12BFF"/>
<path d="M180.957 29.6222C181.799 29.6222 182.482 28.9396 182.482 28.0977C182.482 27.2558 181.799 26.5732 180.957 26.5732C180.115 26.5732 179.433 27.2558 179.433 28.0977C179.433 28.9396 180.115 29.6222 180.957 29.6222Z" fill="#AAB9E5"/>
<path d="M180.957 28.8601C180.325 28.8601 179.813 28.3482 179.813 27.7167V23.1433C179.813 22.5119 180.325 22 180.957 22C181.588 22 182.1 22.5119 182.1 23.1433V27.7167C182.1 28.3482 181.588 28.8601 180.957 28.8601Z" fill="#D3DCFB"/>
<path d="M203.062 29.6222C203.904 29.6222 204.586 28.9396 204.586 28.0977C204.586 27.2558 203.904 26.5732 203.062 26.5732C202.22 26.5732 201.537 27.2558 201.537 28.0977C201.537 28.9396 202.22 29.6222 203.062 29.6222Z" fill="#AAB9E5"/>
<path d="M203.061 28.8601C202.43 28.8601 201.918 28.3482 201.918 27.7167V23.1433C201.918 22.5119 202.43 22 203.061 22C203.693 22 204.205 22.5119 204.205 23.1433V27.7167C204.205 28.3482 203.693 28.8601 203.061 28.8601Z" fill="#D3DCFB"/>
<path d="M192.009 29.6222C192.851 29.6222 193.533 28.9396 193.533 28.0977C193.533 27.2558 192.851 26.5732 192.009 26.5732C191.167 26.5732 190.484 27.2558 190.484 28.0977C190.484 28.9396 191.167 29.6222 192.009 29.6222Z" fill="#AAB9E5"/>
<path d="M192.009 28.8601C191.377 28.8601 190.865 28.3482 190.865 27.7167V23.1433C190.865 22.5119 191.377 22 192.009 22C192.64 22 193.152 22.5119 193.152 23.1433V27.7167C193.152 28.3482 192.64 28.8601 192.009 28.8601Z" fill="#D3DCFB"/>
<path d="M195.058 41.8182C196.739 41.8182 198.107 40.4504 198.107 38.7693V34.9581C198.107 33.2769 196.739 31.9092 195.058 31.9092C193.377 31.9092 192.009 33.2769 192.009 34.9581V38.7693C192.009 40.4504 193.377 41.8182 195.058 41.8182ZM193.533 34.9581C193.533 34.1175 194.217 33.4336 195.058 33.4336C195.898 33.4336 196.582 34.1175 196.582 34.9581V38.7693C196.582 39.6098 195.898 40.2937 195.058 40.2937C194.217 40.2937 193.533 39.6098 193.533 38.7693V34.9581Z" fill="#252A3F"/>
<path d="M187.131 35.5679L188.96 34.1959V41.0559C188.96 41.4768 189.301 41.8182 189.722 41.8182C190.143 41.8182 190.485 41.4768 190.485 41.0559V32.6714C190.485 32.0448 189.767 31.6851 189.265 32.0616L186.216 34.3483C185.879 34.6008 185.811 35.0787 186.064 35.4154C186.316 35.7521 186.794 35.8204 187.131 35.5679Z" fill="#252A3F"/>
<path d="M200.283 52.2365C200.288 52.2873 200.283 52.3356 200.267 52.3813C200.257 52.4118 200.242 52.4372 200.222 52.4576C200.206 52.4779 200.186 52.4982 200.161 52.5185C200.115 52.549 200.059 52.577 199.993 52.6024C199.952 52.6125 199.912 52.6202 199.871 52.6252C199.836 52.6354 199.797 52.6354 199.757 52.6252C199.675 52.6202 199.604 52.5897 199.543 52.5338C199.457 52.4626 199.386 52.3839 199.33 52.2975C199.305 52.2568 199.277 52.2111 199.246 52.1603C199.216 52.1095 199.188 52.0561 199.162 52.0002L198.316 50.3919C198.276 50.3919 198.235 50.3944 198.194 50.3995C198.154 50.3995 198.113 50.4021 198.072 50.4071C197.966 50.4173 197.864 50.4199 197.767 50.4148C197.676 50.4097 197.579 50.4097 197.478 50.4148H197.333V51.7944C197.333 51.8351 197.33 51.8732 197.325 51.9087C197.325 51.9443 197.325 51.9824 197.325 52.0231C197.325 52.0485 197.323 52.0815 197.318 52.1222C197.318 52.1628 197.315 52.2009 197.31 52.2365C197.3 52.2924 197.277 52.3508 197.241 52.4118C197.206 52.4677 197.158 52.516 197.097 52.5566C196.99 52.6227 196.86 52.6405 196.708 52.61C196.642 52.5948 196.578 52.5693 196.517 52.5338C196.497 52.5185 196.479 52.5007 196.464 52.4804C196.449 52.455 196.436 52.4296 196.426 52.4042C196.416 52.3788 196.406 52.3534 196.395 52.328C196.39 52.2975 196.383 52.2695 196.372 52.2441C196.357 52.1933 196.35 52.145 196.35 52.0993V47.7698C196.35 47.7393 196.35 47.7089 196.35 47.6784C196.355 47.6428 196.36 47.6123 196.365 47.5869C196.37 47.531 196.388 47.4751 196.418 47.4192C196.433 47.3582 196.459 47.315 196.494 47.2896C196.525 47.2591 196.571 47.2337 196.632 47.2134C196.698 47.188 196.792 47.1778 196.914 47.1829C197.142 47.188 197.368 47.1905 197.592 47.1905C197.816 47.1905 198.039 47.1956 198.263 47.2058C198.41 47.2159 198.565 47.2337 198.728 47.2591C198.895 47.2795 199.05 47.3176 199.193 47.3735C199.284 47.409 199.368 47.4446 199.444 47.4802C199.541 47.5361 199.617 47.5894 199.673 47.6402C199.851 47.8029 199.985 47.9985 200.077 48.2272C200.168 48.4558 200.214 48.687 200.214 48.9208C200.214 49.1952 200.148 49.4467 200.016 49.6754C199.889 49.9041 199.683 50.0743 199.399 50.1861C199.388 50.1963 199.373 50.2039 199.353 50.209C199.338 50.209 199.325 50.2115 199.315 50.2166L200.016 51.6267L200.085 51.7487C200.095 51.769 200.107 51.7919 200.123 51.8173C200.138 51.8427 200.151 51.8681 200.161 51.8935C200.176 51.9189 200.189 51.9469 200.199 51.9773C200.214 52.0078 200.229 52.0358 200.245 52.0612C200.26 52.1323 200.273 52.1908 200.283 52.2365ZM198.377 49.523C198.469 49.523 198.555 49.5077 198.636 49.4772C198.723 49.4417 198.799 49.3959 198.865 49.34C198.936 49.2841 198.995 49.2206 199.04 49.1495C199.086 49.0732 199.111 48.9919 199.117 48.9056C199.137 48.6515 199.071 48.4635 198.918 48.3415C198.766 48.2145 198.565 48.1459 198.316 48.1357C198.169 48.1255 198.006 48.1205 197.828 48.1205C197.656 48.1205 197.49 48.1205 197.333 48.1205C197.338 48.3288 197.338 48.5422 197.333 48.7607C197.333 48.9742 197.333 49.2282 197.333 49.523H198.377Z" fill="white"/>
<path d="M195.036 52.0531C195.041 52.0836 195.044 52.1141 195.044 52.1446C195.049 52.17 195.051 52.2004 195.051 52.236C195.051 52.297 195.033 52.3529 194.998 52.4037C194.983 52.4291 194.962 52.4545 194.937 52.4799C194.911 52.5003 194.881 52.518 194.845 52.5333C194.718 52.6044 194.584 52.6298 194.441 52.6095C194.37 52.5892 194.307 52.5562 194.251 52.5104C194.241 52.5003 194.233 52.4952 194.228 52.4952C194.223 52.4901 194.218 52.4825 194.213 52.4723C194.208 52.4672 194.203 52.4621 194.198 52.4571C194.192 52.4469 194.185 52.4393 194.175 52.4342C194.149 52.4088 194.129 52.3859 194.114 52.3656C194.098 52.3402 194.083 52.3148 194.068 52.2894C194.058 52.264 194.045 52.2411 194.03 52.2208C194.02 52.1954 194.007 52.17 193.992 52.1446C193.982 52.1242 193.971 52.1064 193.961 52.0912C193.951 52.0709 193.943 52.0505 193.938 52.0302C193.918 51.9845 193.905 51.9438 193.9 51.9083L193.74 51.5348C193.39 51.5348 193.039 51.5373 192.688 51.5424C192.343 51.5424 191.995 51.5398 191.644 51.5348L191.484 51.9083C191.474 51.9286 191.466 51.9489 191.461 51.9692C191.461 51.9896 191.456 52.0099 191.446 52.0302C191.436 52.0505 191.426 52.0709 191.415 52.0912C191.41 52.1064 191.403 52.1242 191.393 52.1446C191.377 52.17 191.362 52.1954 191.347 52.2208C191.337 52.2411 191.324 52.264 191.309 52.2894C191.299 52.3148 191.286 52.3402 191.271 52.3656C191.255 52.3859 191.235 52.4088 191.21 52.4342C191.199 52.4393 191.192 52.4469 191.187 52.4571C191.182 52.4621 191.177 52.4672 191.171 52.4723C191.166 52.4825 191.161 52.4901 191.156 52.4952C191.151 52.4952 191.144 52.5003 191.133 52.5104C191.077 52.5562 191.014 52.5892 190.943 52.6095C190.801 52.6298 190.666 52.6044 190.539 52.5333C190.503 52.518 190.473 52.5003 190.447 52.4799C190.422 52.4545 190.402 52.4291 190.386 52.4037C190.351 52.3529 190.333 52.297 190.333 52.236C190.333 52.2004 190.333 52.17 190.333 52.1446C190.338 52.1141 190.343 52.0836 190.348 52.0531C190.358 52.0073 190.371 51.9616 190.386 51.9159C190.402 51.8701 190.409 51.8473 190.409 51.8473L191.995 47.9447L192.04 47.8227C192.051 47.7922 192.063 47.7643 192.079 47.7389C192.094 47.7134 192.106 47.683 192.117 47.6474C192.142 47.5813 192.17 47.5229 192.2 47.4721C192.216 47.4416 192.234 47.4136 192.254 47.3882C192.274 47.3628 192.294 47.3374 192.315 47.312C192.345 47.2714 192.388 47.2383 192.444 47.2129C192.516 47.1875 192.597 47.1748 192.688 47.1748C192.785 47.1748 192.869 47.1875 192.94 47.2129C192.996 47.2383 193.039 47.2714 193.069 47.312C193.105 47.3577 193.143 47.4111 193.184 47.4721C193.214 47.5229 193.242 47.5813 193.268 47.6474C193.278 47.683 193.29 47.7134 193.306 47.7389C193.321 47.7643 193.334 47.7922 193.344 47.8227L193.39 47.9447L194.975 51.8473C194.975 51.8473 194.983 51.8701 194.998 51.9159C195.013 51.9616 195.026 52.0073 195.036 52.0531ZM193.229 50.1856C193.163 50.0383 193.095 49.8858 193.024 49.7283C192.958 49.5708 192.886 49.4107 192.81 49.2481C192.79 49.2023 192.77 49.1566 192.749 49.1109C192.729 49.0601 192.709 49.0118 192.688 48.966C192.673 49.0118 192.655 49.0601 192.635 49.1109C192.615 49.1566 192.594 49.2023 192.574 49.2481C192.498 49.4107 192.424 49.5708 192.353 49.7283C192.287 49.8858 192.221 50.0383 192.155 50.1856L192.018 50.521H193.367L193.229 50.1856Z" fill="white"/>
<path d="M189.027 52.0226C189.022 52.0836 189.014 52.1471 189.004 52.2132C188.994 52.2792 188.976 52.3402 188.951 52.3961C188.925 52.4571 188.892 52.5028 188.851 52.5333C188.796 52.5841 188.729 52.6121 188.653 52.6172C188.582 52.6426 188.514 52.6502 188.447 52.64C188.381 52.6299 188.32 52.6121 188.265 52.5867C188.193 52.5409 188.14 52.4876 188.104 52.4266C188.074 52.3605 188.051 52.2919 188.036 52.2208C188.021 52.1497 188.013 52.076 188.013 51.9998C188.013 51.9235 188.013 51.8524 188.013 51.7863V51.1918L188.005 50.0256C188.005 49.9443 188.005 49.8808 188.005 49.835C188.005 49.7893 188.005 49.7486 188.005 49.7131C188.005 49.6724 188.003 49.6292 187.998 49.5835C187.998 49.5327 187.998 49.4615 187.998 49.3701C187.998 49.3548 187.998 49.3294 187.998 49.2938C188.003 49.2532 188 49.149 187.99 48.9813C187.792 49.3116 187.627 49.5784 187.495 49.7817C187.368 49.9798 187.258 50.1348 187.167 50.2466C187.081 50.3533 187.004 50.427 186.938 50.4677C186.872 50.5032 186.804 50.5236 186.732 50.5286C186.692 50.5337 186.651 50.5261 186.61 50.5058C186.57 50.4855 186.529 50.46 186.489 50.4296C186.453 50.3991 186.417 50.3686 186.382 50.3381C186.351 50.3025 186.326 50.2695 186.306 50.239C186.184 50.0866 186.046 49.9036 185.894 49.6902C185.742 49.4768 185.584 49.2176 185.421 48.9127C185.421 48.9178 185.419 49.0016 185.414 49.1643C185.414 49.3269 185.414 49.5301 185.414 49.774C185.414 50.0129 185.411 50.272 185.406 50.5515C185.406 50.8259 185.404 51.0825 185.399 51.3214C185.399 51.5602 185.396 51.7609 185.391 51.9235C185.386 52.0811 185.381 52.1598 185.376 52.1598C185.376 52.2462 185.355 52.3275 185.315 52.4037C185.274 52.4749 185.218 52.5333 185.147 52.579C185.081 52.6248 185.002 52.6502 184.911 52.6553C184.819 52.6604 184.72 52.6349 184.613 52.579C184.547 52.5384 184.497 52.48 184.461 52.4037C184.43 52.3275 184.41 52.2564 184.4 52.1903C184.395 52.1192 184.39 52.0506 184.385 51.9845C184.385 51.9184 184.385 51.8498 184.385 51.7787L184.392 51.1842L184.4 50.0103V48.9889C184.4 48.5468 184.415 48.1124 184.446 47.6855C184.446 47.6296 184.451 47.5788 184.461 47.5331C184.476 47.4823 184.494 47.434 184.514 47.3883C184.555 47.307 184.608 47.246 184.674 47.2053C184.751 47.1596 184.832 47.1367 184.918 47.1367C184.954 47.1367 184.987 47.1393 185.017 47.1443C185.053 47.1443 185.086 47.1469 185.117 47.152C185.218 47.1723 185.305 47.2333 185.376 47.3349C185.452 47.4314 185.523 47.5153 185.589 47.5864C185.63 47.6322 185.673 47.6881 185.719 47.7541C185.764 47.8202 185.81 47.8888 185.856 47.9599C185.902 48.0311 185.945 48.0997 185.985 48.1657C186.026 48.2318 186.062 48.2902 186.092 48.341C186.224 48.5545 186.341 48.7501 186.443 48.928C186.55 49.1058 186.649 49.2583 186.74 49.3853C186.755 49.3701 186.773 49.3497 186.793 49.3243C186.814 49.2938 186.834 49.2633 186.854 49.2329C186.88 49.1973 186.9 49.1643 186.915 49.1338C186.936 49.1033 186.951 49.0779 186.961 49.0575C187.012 48.9762 187.063 48.8975 187.114 48.8212C187.164 48.7399 187.218 48.6561 187.274 48.5697C187.335 48.4782 187.396 48.3792 187.457 48.2724C187.523 48.1657 187.599 48.0438 187.685 47.9066C187.721 47.8456 187.767 47.7719 187.822 47.6855C187.878 47.5991 187.942 47.5153 188.013 47.434C188.084 47.3527 188.158 47.2841 188.234 47.2282C188.315 47.1672 188.397 47.1367 188.478 47.1367C188.519 47.1367 188.554 47.1393 188.585 47.1443C188.615 47.1443 188.646 47.1469 188.676 47.152C188.737 47.157 188.796 47.185 188.851 47.2358C188.892 47.2765 188.923 47.3197 188.943 47.3654C188.963 47.4314 188.976 47.4873 188.981 47.5331C188.986 47.5687 188.989 47.6017 188.989 47.6322C188.994 47.6627 188.996 47.6931 188.996 47.7236C188.996 48.0082 188.999 48.2902 189.004 48.5697C189.009 48.8492 189.012 49.1312 189.012 49.4158C189.012 49.7613 189.012 50.117 189.012 50.4829C189.017 50.8488 189.019 51.2045 189.019 51.55C189.019 51.6212 189.022 51.6974 189.027 51.7787C189.032 51.86 189.032 51.9413 189.027 52.0226Z" fill="white"/>
<line x1="78" y1="75.5" x2="210" y2="75.5" stroke="url(#paint0_linear_1671_7646)" stroke-dasharray="2 2"/>
<circle cx="77.5" cy="75.5" r="3.5" fill="#6ED904"/>
<circle cx="213.5" cy="75.5" r="3.5" fill="#FC2CDB"/>
<defs>
<linearGradient id="paint0_linear_1671_7646" x1="78" y1="76" x2="210" y2="76" gradientUnits="userSpaceOnUse">
<stop stop-color="#31FF2D"/>
<stop offset="1" stop-color="#E11690"/>
</linearGradient>
</defs>
</svg>
