<svg width="292" height="103" viewBox="0 0 292 103" fill="none" xmlns="http://www.w3.org/2000/svg">
<rect width="292" height="102.768" fill="#1D1D26"/>
<path d="M122.443 78.7125C128.807 79.2602 128.982 64.1328 128.589 61.9415C124.924 56.2575 120.757 58.915 119.131 60.9542C120.856 69.3036 116.079 78.1647 122.443 78.7125Z" fill="url(#paint0_linear_1671_7938)"/>
<path d="M142.506 65.4346C138.703 71.2704 132.425 71.6241 125.352 70.3862C122.699 69.5315 116.669 66.2657 113.768 60.0408C110.143 52.2596 120.11 28.9274 127.739 20.2508C136.758 9.99382 149.253 11.6738 155.089 18.7476C160.925 25.8214 158.51 34.5752 152.762 43.5942C147.015 52.6133 146.308 59.5987 142.506 65.4346Z" fill="url(#paint1_linear_1671_7938)"/>
<path d="M129.978 45.7178L128.652 48.7241C128.298 47.7338 128.151 46.7494 128.121 46.5136C128.263 46.3721 129.418 45.9241 129.978 45.7178Z" fill="#DB422A"/>
<path d="M152.702 29.0056C154.824 30.9509 154.47 35.4604 153.232 38.6436C143.541 42.9586 139.703 34.7236 138.996 30.0666C145.451 25.2919 150.226 26.7361 152.702 29.0056Z" fill="#FEF9F5"/>
<mask id="mask0_1671_7938" style="mask-type:alpha" maskUnits="userSpaceOnUse" x="141" y="30" width="12" height="11">
<path d="M150.724 38.6307C149.048 40.9858 145.856 41.5905 143.596 39.9812C141.335 38.372 141.097 35.2518 142.774 32.8967C144.45 30.5416 147.814 29.3598 150.152 30.7704C153.378 32.7172 152.401 36.2756 150.724 38.6307Z" fill="black"/>
</mask>
<g mask="url(#mask0_1671_7938)">
<path d="M152.877 27.503C155 29.4482 154.469 35.461 153.231 38.6442C143.54 42.9592 139.702 34.7242 138.995 30.0673C146.599 24.2314 150.791 25.5901 152.877 27.503Z" fill="black"/>
</g>
<path d="M146.011 87.2807L120.023 69.6151C117.815 68.1141 117.242 65.1073 118.743 62.8992L121.008 59.5674L154.992 82.6685L152.727 86.0003C151.226 88.2084 148.219 88.7817 146.011 87.2807Z" fill="#D3DCFB"/>
<path d="M120.929 68.2807C119.459 67.2817 119.076 65.2732 120.075 63.8035L122.34 60.4717L153.659 81.761L151.394 85.0928C150.395 86.5625 148.386 86.9454 146.916 85.9463L120.929 68.2807Z" fill="#6A0DB4"/>
<path d="M167.301 55.9615L141.314 38.2959C139.109 36.7973 136.096 37.3717 134.598 39.5763L120.556 60.2333C119.057 62.4379 119.632 65.4506 121.836 66.9492L147.824 84.6148C150.029 86.1134 153.041 85.539 154.54 83.3344C154.856 82.8699 168.175 63.2762 168.582 62.6774C170.08 60.4728 169.506 57.4601 167.301 55.9615Z" fill="#EBF5FC"/>
<path d="M159.253 62.1242C159.265 62.2376 159.244 62.333 159.192 62.4106C159.169 62.4438 159.142 62.4779 159.11 62.5129C159.087 62.5462 159.064 62.5748 159.04 62.5987C158.981 62.6483 158.906 62.682 158.813 62.6997C158.746 62.7028 158.668 62.6863 158.579 62.6503C158.533 62.635 158.489 62.6169 158.446 62.5961C158.404 62.5753 158.356 62.5554 158.305 62.5363C158.262 62.5155 158.221 62.4919 158.183 62.4656C158.144 62.4392 158.102 62.411 158.058 62.3809L157.634 62.0928C157.531 62.0306 157.429 61.9656 157.33 61.8979C157.235 61.8338 157.141 61.7698 157.047 61.7058C156.936 61.8813 156.813 62.0687 156.677 62.2681C156.545 62.462 156.388 62.6872 156.206 62.9437C156.029 63.204 155.821 63.504 155.582 63.8436C155.348 64.187 155.077 64.5858 154.768 65.0399L154.339 65.6713C154.302 65.7267 154.276 65.7701 154.263 65.8016C154.248 65.8238 154.233 65.8459 154.218 65.8681C154.206 65.8847 154.189 65.905 154.164 65.9289C154.119 65.9712 154.071 66.0237 154.021 66.0864C154.002 66.1141 153.98 66.1399 153.956 66.1638C153.935 66.1822 153.91 66.2015 153.88 66.2217C153.843 66.2288 153.821 66.2378 153.813 66.2489L153.754 66.2818C153.689 66.3184 153.601 66.3352 153.489 66.3324C153.326 66.3105 153.181 66.2321 153.054 66.0972C152.967 66.0221 152.912 65.9482 152.889 65.8756C152.873 65.7919 152.871 65.7175 152.882 65.6526C152.89 65.5691 152.911 65.4978 152.943 65.4386C152.96 65.3775 152.987 65.3192 153.025 65.2638L155.928 60.9936C155.895 60.971 155.825 60.924 155.72 60.8524C155.615 60.7809 155.501 60.7037 155.379 60.6209C155.267 60.5363 155.16 60.4555 155.058 60.3784C154.957 60.3013 154.889 60.2468 154.854 60.2149C154.824 60.1868 154.777 60.1427 154.713 60.0827C154.654 60.0265 154.606 59.9777 154.569 59.9365C154.476 59.8242 154.42 59.7095 154.402 59.5923C154.39 59.4789 154.415 59.3779 154.475 59.2893C154.497 59.256 154.52 59.2228 154.543 59.1896C154.565 59.1564 154.591 59.1297 154.621 59.1095C154.683 59.0543 154.765 59.0291 154.867 59.0337C154.901 59.0321 154.947 59.0353 155.006 59.0433C155.075 59.0495 155.135 59.0621 155.187 59.0812C155.269 59.1042 155.363 59.144 155.47 59.2007C155.518 59.2253 155.565 59.2527 155.609 59.2828C155.653 59.3129 155.7 59.3449 155.75 59.3788C155.944 59.5106 156.127 59.6348 156.298 59.7515C156.476 59.872 156.663 59.9953 156.861 60.1216C157.186 60.3344 157.504 60.5509 157.816 60.771C158.137 60.9894 158.452 61.2114 158.76 61.4371C158.828 61.4916 158.892 61.5469 158.951 61.6032C159.01 61.6594 159.063 61.724 159.111 61.7969C159.149 61.8474 159.181 61.9015 159.207 61.9594C159.236 62.0116 159.251 62.0666 159.253 62.1242Z" fill="#252A3F"/>
<path d="M151.32 61.4212C151.295 61.5176 151.254 61.6194 151.197 61.7266C151.15 61.8321 151.092 61.9347 151.024 62.0343C150.957 62.134 150.881 62.2281 150.796 62.3165C150.721 62.4031 150.648 62.4749 150.577 62.5318C150.277 62.7818 149.923 62.9216 149.514 62.9513C149.109 62.9756 148.703 62.918 148.296 62.7788C147.894 62.6433 147.519 62.4374 147.173 62.1612C146.832 61.8888 146.572 61.5791 146.395 61.232C146.286 61.0118 146.216 60.7864 146.187 60.5558C146.157 60.3252 146.159 60.0912 146.19 59.8537C146.199 59.7702 146.224 59.6859 146.265 59.6009C146.316 59.514 146.377 59.4421 146.448 59.3852C146.523 59.3227 146.604 59.2807 146.692 59.2592C146.783 59.2322 146.88 59.2377 146.984 59.2758C147.047 59.3024 147.112 59.3382 147.178 59.3834C147.25 59.4323 147.312 59.4905 147.363 59.5578C147.419 59.6196 147.459 59.6915 147.484 59.7734C147.513 59.8499 147.52 59.9354 147.504 60.03C147.486 60.1877 147.498 60.354 147.541 60.529C147.594 60.7023 147.663 60.8626 147.749 61.0101C147.89 61.1953 148.056 61.3445 148.246 61.4576C148.442 61.5746 148.639 61.6479 148.838 61.6775C149.042 61.7109 149.232 61.6987 149.409 61.6409C149.59 61.5775 149.735 61.4655 149.844 61.3049C149.934 61.1719 149.988 61.0508 150.006 60.9413C150.028 60.8264 150.021 60.7167 149.987 60.6124C149.962 60.5063 149.913 60.3999 149.839 60.2934C149.771 60.1906 149.689 60.0859 149.591 59.9791C149.477 59.8611 149.355 59.7494 149.224 59.6442C149.098 59.5428 148.972 59.4367 148.845 59.326C148.718 59.2152 148.597 59.1009 148.483 58.9828C148.369 58.8647 148.267 58.7347 148.177 58.5928C147.994 58.3143 147.909 58.0219 147.923 57.7156C147.937 57.4092 148.015 57.122 148.157 56.854C148.304 56.5897 148.502 56.3639 148.751 56.1767C149.003 55.9839 149.281 55.861 149.584 55.8081C149.871 55.7679 150.158 55.7974 150.447 55.8966C150.745 55.994 151.048 56.1389 151.354 56.3311C151.524 56.4385 151.687 56.557 151.842 56.6866C152.002 56.8199 152.147 56.9586 152.275 57.1028C152.41 57.2508 152.522 57.4004 152.614 57.5517C152.711 57.7067 152.781 57.8597 152.824 58.0105C152.859 58.1148 152.88 58.2386 152.888 58.3817C152.9 58.5192 152.889 58.6538 152.856 58.7854C152.827 58.9114 152.773 59.0159 152.692 59.0987C152.617 59.1854 152.504 59.2261 152.354 59.2211C152.227 59.2162 152.125 59.1828 152.045 59.1208C151.975 59.057 151.918 58.9812 151.872 58.8935C151.83 58.8003 151.795 58.7034 151.766 58.6028C151.737 58.5022 151.71 58.411 151.685 58.329C151.61 58.1166 151.476 57.9157 151.281 57.7263C151.085 57.537 150.883 57.3875 150.674 57.2779C150.541 57.2117 150.409 57.1622 150.277 57.1294C150.146 57.0966 150.019 57.0871 149.896 57.1009C149.779 57.1184 149.664 57.162 149.552 57.2315C149.449 57.2993 149.362 57.3979 149.29 57.5273C149.236 57.6197 149.21 57.7114 149.213 57.8024C149.221 57.8972 149.245 57.9866 149.285 58.0706C149.331 58.1583 149.388 58.2415 149.456 58.3201C149.524 58.3987 149.596 58.4718 149.671 58.5394C149.898 58.742 150.13 58.9363 150.368 59.1224C150.606 59.3084 150.812 59.5295 150.986 59.7855C151.166 60.0453 151.287 60.3139 151.349 60.5912C151.412 60.8685 151.402 61.1452 151.32 61.4212Z" fill="#252A3F"/>
<path d="M144.524 53.1945L143.621 54.4875L143.953 54.7134C144.184 54.8622 144.388 54.9969 144.565 55.1173C144.742 55.2378 144.937 55.3742 145.149 55.5266L145.191 55.5548C145.257 55.6 145.319 55.6461 145.376 55.693C145.443 55.7382 145.506 55.7815 145.567 55.8229C145.63 55.8736 145.686 55.928 145.736 55.986C145.789 56.0385 145.841 56.0938 145.89 56.1518C145.962 56.2491 146.006 56.3516 146.021 56.4595C146.028 56.5691 146.001 56.6683 145.941 56.7569C145.922 56.7846 145.899 56.8178 145.873 56.8566C145.85 56.8898 145.824 56.9165 145.794 56.9367C145.742 56.9901 145.668 57.021 145.573 57.0294C145.519 57.0494 145.448 57.0413 145.359 57.0052C145.272 56.9784 145.19 56.9433 145.115 56.8999C145.026 56.8638 144.943 56.8194 144.865 56.7667L144.475 56.5013L142.932 55.4648L141.809 57.0819L143.451 58.2223L143.841 58.4877C143.885 58.5179 143.927 58.5461 143.966 58.5724C144.004 58.5988 144.039 58.626 144.068 58.6542C144.105 58.6954 144.138 58.73 144.167 58.7582C144.206 58.7845 144.238 58.8145 144.264 58.8482C144.315 58.9155 144.35 58.9836 144.368 59.0525C144.386 59.1456 144.382 59.2282 144.357 59.3004C144.344 59.3319 144.326 59.3642 144.304 59.3974C144.29 59.4289 144.27 59.4593 144.242 59.4888C144.181 59.5774 144.099 59.6389 143.995 59.6733C143.876 59.7056 143.764 59.7028 143.66 59.6647C143.51 59.6355 143.366 59.5738 143.227 59.4797C143.163 59.4438 143.097 59.4033 143.031 59.3581C142.964 59.3129 142.899 59.2724 142.834 59.2365L142.784 59.2026C142.345 58.92 141.896 58.6151 141.438 58.2878C141.328 58.2125 141.241 58.1495 141.178 58.0987C141.112 58.0536 141.051 58.0121 140.995 57.9745C140.945 57.9406 140.893 57.9048 140.837 57.8672C140.782 57.8295 140.71 57.7806 140.621 57.7204C140.487 57.6448 140.396 57.5512 140.351 57.4393C140.316 57.3591 140.305 57.2745 140.317 57.1854C140.312 57.1575 140.315 57.1353 140.326 57.1187C140.328 57.1038 140.328 57.0917 140.326 57.0824C140.325 57.0731 140.325 57.0611 140.327 57.0462C140.334 57.011 140.345 56.9777 140.358 56.9462C140.375 56.9092 140.393 56.8769 140.412 56.8492C140.425 56.8177 140.439 56.7863 140.452 56.7548C140.471 56.7271 140.487 56.6975 140.5 56.6661L140.59 56.5331C140.605 56.511 140.62 56.4888 140.636 56.4667C140.656 56.4483 140.674 56.428 140.689 56.4059L141.13 55.7579L141.959 54.5728L142.71 53.4679C142.846 53.2685 142.966 53.0913 143.072 52.9362C143.183 52.7849 143.303 52.6197 143.433 52.4407L143.461 52.3992C143.508 52.342 143.549 52.2885 143.582 52.2386C143.626 52.187 143.666 52.1335 143.704 52.0781C143.785 51.9711 143.888 51.8838 144.015 51.8163C144.068 51.787 144.116 51.7633 144.161 51.7451C144.211 51.7307 144.266 51.7275 144.325 51.7355C144.442 51.7421 144.545 51.7755 144.634 51.8358C144.678 51.8659 144.709 51.8912 144.728 51.9118L144.733 51.9035C144.833 51.9713 144.913 52.0259 144.974 52.0673C145.035 52.1087 145.093 52.1482 145.149 52.1859C145.21 52.2273 145.273 52.2706 145.34 52.3158C145.41 52.3554 145.503 52.4148 145.62 52.4938C145.845 52.6389 146.057 52.7792 146.257 52.9147C146.456 53.0503 146.659 53.1923 146.866 53.3409L146.899 53.3635C146.956 53.4105 147.018 53.4565 147.085 53.5017C147.151 53.5469 147.213 53.593 147.27 53.6399C147.331 53.6813 147.386 53.7311 147.436 53.7891C147.489 53.8416 147.539 53.8996 147.585 53.9632C147.66 54.0549 147.706 54.1547 147.721 54.2625C147.718 54.374 147.691 54.4684 147.638 54.546C147.615 54.5792 147.593 54.6124 147.57 54.6457C147.551 54.6734 147.527 54.6973 147.497 54.7175C147.454 54.7691 147.381 54.8046 147.279 54.8242C147.249 54.8202 147.215 54.8171 147.176 54.8149C147.142 54.8164 147.105 54.8114 147.064 54.7999C147.024 54.7884 146.982 54.7723 146.94 54.7514C146.906 54.7289 146.871 54.709 146.834 54.692C146.782 54.6729 146.737 54.6502 146.698 54.6239C146.665 54.6013 146.626 54.5749 146.582 54.5448L146.208 54.2907L144.541 53.1695L144.524 53.1945Z" fill="#252A3F"/>
<path d="M140.051 52.8136C140.14 53.028 140.191 53.2449 140.204 53.4642C140.226 53.6817 140.2 53.9155 140.128 54.1656C140.045 54.4417 139.925 54.696 139.767 54.9286C139.618 55.1594 139.432 55.3444 139.207 55.4836C138.993 55.621 138.74 55.7004 138.45 55.722C138.17 55.7417 137.859 55.6804 137.519 55.538C137.332 55.4676 137.123 55.3701 136.891 55.2454C136.66 55.1207 136.459 55 136.287 54.8833C136.068 54.742 135.843 54.5895 135.614 54.4259C135.387 54.2715 135.181 54.0988 134.995 53.9076C134.92 53.8159 134.882 53.7218 134.883 53.6252C134.893 53.5268 134.92 53.4277 134.964 53.3278C134.976 53.2629 134.998 53.2055 135.032 53.1557L138.24 48.4368C138.345 48.2817 138.457 48.1834 138.574 48.1417C138.701 48.0983 138.83 48.0929 138.962 48.1257C139.097 48.1529 139.233 48.2089 139.37 48.2938C139.51 48.373 139.652 48.4616 139.796 48.5595C139.907 48.6348 140.018 48.7101 140.129 48.7854C140.249 48.8589 140.365 48.938 140.478 49.0226C140.657 49.1524 140.834 49.297 141.009 49.4565C141.193 49.6142 141.351 49.7865 141.483 49.9734C141.548 50.0576 141.61 50.1566 141.67 50.2704C141.734 50.3787 141.771 50.485 141.781 50.5891C141.85 50.8702 141.852 51.147 141.788 51.4194C141.733 51.6901 141.625 51.9325 141.464 52.1465C141.306 52.355 141.104 52.5213 140.857 52.6453C140.617 52.7732 140.348 52.8293 140.051 52.8136ZM137.1 54.0269C137.279 54.1325 137.467 54.2317 137.663 54.3245C137.859 54.4173 138.017 54.4475 138.136 54.4152C138.268 54.3755 138.388 54.3069 138.495 54.2094C138.611 54.1102 138.702 53.994 138.768 53.8608C138.843 53.7259 138.888 53.5824 138.903 53.4302C138.926 53.2762 138.914 53.134 138.865 53.0035C138.805 52.8172 138.702 52.6538 138.554 52.5131C138.411 52.367 138.259 52.2393 138.098 52.1301C138.021 52.0774 137.947 52.0312 137.876 51.9916C137.816 51.9502 137.755 51.9208 137.693 51.9036C137.642 51.8845 137.591 51.8868 137.543 51.9106C137.494 51.9343 137.444 51.9849 137.391 52.0624C137.304 52.214 137.206 52.358 137.097 52.4944C136.988 52.6309 136.889 52.7656 136.798 52.8985C136.746 52.9761 136.685 53.06 136.615 53.1504C136.555 53.239 136.534 53.3345 136.554 53.4369C136.573 53.5392 136.634 53.641 136.735 53.7422C136.836 53.8434 136.958 53.9383 137.1 54.0269ZM139.977 50.1521C139.809 50.0298 139.667 49.9292 139.551 49.8501C139.444 49.7693 139.35 49.7174 139.268 49.6943C139.196 49.6695 139.123 49.6809 139.05 49.7286C138.987 49.7744 138.914 49.863 138.833 49.9941C138.762 50.0993 138.688 50.2027 138.611 50.3042C138.543 50.4039 138.475 50.5035 138.407 50.6032C138.332 50.714 138.311 50.8216 138.346 50.9259C138.384 51.0247 138.452 51.1154 138.55 51.198C138.653 51.2844 138.766 51.3615 138.89 51.4295C139.02 51.5013 139.134 51.559 139.234 51.6026C139.456 51.7049 139.654 51.742 139.827 51.7138C140.009 51.6839 140.176 51.5749 140.328 51.3868C140.52 51.1526 140.57 50.9357 140.479 50.7361C140.397 50.5348 140.23 50.3401 139.977 50.1521Z" fill="#252A3F"/>
<path d="M122.74 65.6158C121.268 64.6151 120.886 62.6106 121.887 61.1385L125.963 55.1413C126.464 54.4052 127.466 54.2142 128.202 54.7145L156.855 74.192C157.591 74.6923 157.782 75.6945 157.282 76.4306L153.205 82.4278C152.205 83.8998 150.2 84.282 148.728 83.2814L122.74 65.6158Z" fill="#A12BFF"/>
<path d="M148.685 79.1637C148.653 79.2229 148.612 79.2717 148.561 79.3103C148.528 79.336 148.492 79.3524 148.455 79.3595C148.423 79.3704 148.386 79.3774 148.343 79.3808C148.271 79.3801 148.189 79.3692 148.098 79.3479C148.047 79.3289 147.997 79.3071 147.949 79.2825C147.902 79.2672 147.861 79.239 147.824 79.1978C147.739 79.132 147.684 79.0461 147.659 78.94C147.618 78.7984 147.599 78.6599 147.602 78.5243C147.604 78.4612 147.607 78.3906 147.612 78.3126C147.616 78.2347 147.625 78.1558 147.639 78.076L147.908 75.6962C147.864 75.6661 147.818 75.6388 147.77 75.6142C147.726 75.5841 147.679 75.5567 147.631 75.5321C147.508 75.4641 147.395 75.3916 147.293 75.3145C147.197 75.2412 147.092 75.1697 146.978 75.0999L146.82 74.9926L145.798 76.4964C145.768 76.5407 145.737 76.5803 145.705 76.6153C145.678 76.6541 145.65 76.6956 145.62 76.74C145.601 76.7676 145.574 76.8018 145.538 76.8423C145.508 76.8866 145.477 76.9263 145.445 76.9613C145.393 77.0147 145.324 77.0614 145.241 77.1015C145.16 77.1361 145.072 77.153 144.975 77.1521C144.81 77.145 144.656 77.0684 144.512 76.9222C144.451 76.8567 144.401 76.7819 144.361 76.698C144.35 76.6663 144.344 76.6337 144.342 76.6003C144.345 76.5613 144.35 76.5242 144.357 76.489C144.365 76.4537 144.373 76.4185 144.38 76.3833C144.398 76.3463 144.41 76.3102 144.418 76.275C144.439 76.2083 144.466 76.15 144.5 76.1002L147.708 71.3813C147.73 71.3481 147.753 71.3149 147.776 71.2816C147.807 71.2466 147.836 71.2172 147.86 71.1932C147.907 71.1361 147.968 71.0883 148.042 71.05C148.104 70.9948 148.164 70.9666 148.221 70.9652C148.277 70.9546 148.346 70.9608 148.427 70.9838C148.518 71.0051 148.628 71.0636 148.757 71.1595C149.003 71.3345 149.247 71.5048 149.491 71.6704C149.735 71.8361 149.975 72.0073 150.211 72.184C150.364 72.3043 150.52 72.4385 150.678 72.5867C150.846 72.7331 150.987 72.8894 151.1 73.0558C151.174 73.1623 151.239 73.2632 151.295 73.3585C151.359 73.4909 151.403 73.6055 151.426 73.7023C151.499 74.0113 151.501 74.3243 151.431 74.6413C151.362 74.9584 151.24 75.2442 151.067 75.499C150.864 75.7981 150.605 76.0233 150.292 76.1747C149.984 76.3298 149.634 76.3628 149.241 76.2738C149.222 76.2774 149.2 76.2744 149.174 76.2649C149.157 76.2536 149.142 76.2469 149.127 76.245L148.846 78.3015L148.831 78.4852C148.827 78.5149 148.824 78.5492 148.821 78.5882C148.819 78.6272 148.814 78.6643 148.806 78.6995C148.804 78.7385 148.797 78.7784 148.786 78.8192C148.78 78.8637 148.776 78.9054 148.774 78.9444C148.738 79.0333 148.708 79.1064 148.685 79.1637ZM148.619 74.7943C148.718 74.8621 148.824 74.9095 148.935 74.9365C149.056 74.9617 149.173 74.9683 149.286 74.9564C149.405 74.9481 149.516 74.9222 149.618 74.8786C149.725 74.8294 149.813 74.7596 149.882 74.6692C150.092 74.4073 150.16 74.1534 150.084 73.9076C150.012 73.6562 149.844 73.4327 149.58 73.2371C149.427 73.1169 149.254 72.9908 149.06 72.8591C148.871 72.7311 148.691 72.6087 148.52 72.492C148.371 72.7228 148.213 72.9555 148.045 73.1898C147.887 73.4225 147.699 73.6994 147.481 74.0206L148.619 74.7943Z" fill="white"/>
<path d="M143.104 75.0768C143.087 75.1138 143.068 75.1489 143.045 75.1822C143.032 75.2136 143.012 75.2487 142.985 75.2875C142.94 75.354 142.88 75.4017 142.803 75.4307C142.768 75.4471 142.727 75.4598 142.68 75.4686C142.637 75.472 142.591 75.4688 142.541 75.459C142.35 75.4424 142.184 75.3704 142.044 75.2428C141.982 75.1679 141.937 75.0849 141.91 74.9936C141.906 74.975 141.902 74.9638 141.896 74.9601C141.894 74.9508 141.895 74.9387 141.897 74.9238C141.895 74.9145 141.893 74.9052 141.891 74.8959C141.893 74.8811 141.891 74.8671 141.883 74.8541C141.874 74.8075 141.869 74.7676 141.868 74.7341C141.87 74.6951 141.872 74.6561 141.874 74.6171C141.882 74.5819 141.885 74.5476 141.884 74.5141C141.891 74.4789 141.896 74.4418 141.898 74.4028C141.902 74.3731 141.905 74.3462 141.905 74.3221C141.909 74.2924 141.915 74.2646 141.925 74.2387C141.937 74.1738 141.953 74.12 141.974 74.0775L142.076 73.5518C141.694 73.2921 141.31 73.0351 140.924 72.7808C140.547 72.5248 140.17 72.2641 139.791 71.9988L139.34 72.2873C139.314 72.3019 139.291 72.3184 139.27 72.3368C139.255 72.359 139.234 72.3774 139.208 72.392C139.182 72.4066 139.156 72.4212 139.13 72.4359C139.113 72.4487 139.092 72.4625 139.065 72.4771C139.03 72.4935 138.995 72.5099 138.959 72.5263C138.933 72.5409 138.902 72.5564 138.867 72.5728C138.837 72.593 138.804 72.6112 138.769 72.6276C138.737 72.6385 138.698 72.6484 138.652 72.6572C138.637 72.6552 138.623 72.6579 138.61 72.6652C138.6 72.667 138.591 72.6688 138.582 72.6705C138.569 72.6779 138.557 72.6824 138.548 72.6842C138.543 72.6804 138.531 72.6803 138.512 72.6838C138.417 72.6923 138.323 72.6812 138.231 72.6507C138.061 72.5674 137.933 72.4399 137.847 72.2683C137.82 72.2253 137.799 72.1833 137.787 72.1424C137.778 72.0958 137.775 72.0531 137.777 72.0141C137.776 71.9324 137.798 71.8583 137.843 71.7918C137.869 71.753 137.892 71.7198 137.911 71.6921C137.939 71.6626 137.967 71.6332 137.995 71.6037C138.04 71.5614 138.088 71.5209 138.138 71.4824C138.189 71.4438 138.214 71.4246 138.214 71.4246L142.833 68.3456L142.974 68.2466C143.007 68.2209 143.042 68.1998 143.077 68.1834C143.113 68.167 143.149 68.1432 143.187 68.112C143.263 68.0588 143.337 68.0158 143.408 67.983C143.447 67.9611 143.487 67.9438 143.528 67.9311C143.569 67.9185 143.61 67.9059 143.651 67.8932C143.715 67.8715 143.786 67.8675 143.866 67.8812C143.962 67.9063 144.06 67.9527 144.16 68.0204C144.265 68.092 144.347 68.1679 144.406 68.2483C144.448 68.3174 144.471 68.3854 144.474 68.4523C144.479 68.5285 144.481 68.6149 144.48 68.7115C144.475 68.7895 144.462 68.8739 144.441 68.9647C144.426 69.011 144.417 69.0537 144.415 69.0926C144.413 69.1316 144.406 69.1715 144.394 69.2123L144.354 69.3791L143.19 74.8073C143.19 74.8073 143.182 74.8379 143.165 74.899C143.147 74.9602 143.127 75.0194 143.104 75.0768ZM142.519 71.703C142.556 71.4934 142.594 71.2764 142.634 71.052C142.678 70.8314 142.719 70.6042 142.757 70.3705C142.768 70.3056 142.78 70.2407 142.792 70.1758C142.807 70.1053 142.821 70.0377 142.833 69.9728C142.782 70.0113 142.727 70.0508 142.667 70.0911C142.611 70.1259 142.555 70.1607 142.499 70.1954C142.296 70.3162 142.097 70.4361 141.902 70.5551C141.714 70.6778 141.529 70.795 141.348 70.9067L140.95 71.1706L142.42 72.1702L142.519 71.703Z" fill="white"/>
<path d="M136.745 64.4386L135.841 65.7316L136.174 65.9575C136.405 66.1063 136.609 66.241 136.786 66.3615C136.963 66.482 137.158 66.6184 137.37 66.7707L137.412 66.799C137.478 66.8442 137.54 66.8902 137.597 66.9372C137.663 66.9824 137.727 67.0257 137.788 67.0671C137.851 67.1178 137.907 67.1722 137.957 67.2302C138.01 67.2827 138.062 67.3379 138.111 67.396C138.183 67.4932 138.226 67.5958 138.242 67.7036C138.249 67.8133 138.222 67.9124 138.161 68.001C138.143 68.0287 138.12 68.062 138.094 68.1007C138.071 68.134 138.045 68.1607 138.015 68.1808C137.962 68.2342 137.889 68.2651 137.794 68.2736C137.74 68.2935 137.668 68.2854 137.58 68.2493C137.493 68.2226 137.411 68.1875 137.335 68.144C137.247 68.108 137.163 68.0636 137.086 68.0108L136.695 67.7454L135.153 66.709L134.029 68.326L135.671 69.4664L136.062 69.7319C136.106 69.762 136.148 69.7902 136.186 69.8166C136.225 69.8429 136.259 69.8702 136.289 69.8983C136.325 69.9395 136.359 69.9742 136.388 70.0023C136.427 70.0286 136.459 70.0587 136.485 70.0923C136.536 70.1597 136.571 70.2278 136.589 70.2967C136.607 70.3897 136.603 70.4723 136.578 70.5445C136.565 70.576 136.547 70.6083 136.524 70.6416C136.511 70.673 136.49 70.7035 136.462 70.733C136.402 70.8216 136.32 70.8831 136.215 70.9174C136.096 70.9498 135.985 70.9469 135.881 70.9088C135.731 70.8796 135.587 70.8179 135.448 70.7238C135.383 70.6879 135.318 70.6474 135.251 70.6022C135.185 70.5571 135.119 70.5165 135.055 70.4807L135.005 70.4468C134.565 70.1642 134.117 69.8592 133.659 69.5319C133.548 69.4566 133.461 69.3936 133.399 69.3429C133.332 69.2977 133.271 69.2563 133.216 69.2186C133.166 69.1848 133.114 69.149 133.058 69.1113C133.003 69.0737 132.931 69.0247 132.842 68.9645C132.707 68.889 132.617 68.7953 132.572 68.6834C132.537 68.6033 132.526 68.5186 132.538 68.4296C132.532 68.4017 132.535 68.3794 132.547 68.3628C132.549 68.348 132.549 68.3359 132.547 68.3266C132.545 68.3173 132.545 68.3052 132.547 68.2904C132.555 68.2551 132.566 68.2218 132.579 68.1903C132.596 68.1533 132.614 68.121 132.633 68.0933C132.646 68.0619 132.659 68.0304 132.673 67.9989C132.691 67.9712 132.707 67.9417 132.721 67.9102L132.811 67.7773C132.826 67.7551 132.841 67.733 132.856 67.7108C132.877 67.6924 132.895 67.6722 132.91 67.65L133.35 67.002L134.18 65.817L134.931 64.712C135.067 64.5126 135.187 64.3354 135.293 64.1803C135.404 64.029 135.524 63.8638 135.654 63.6848L135.682 63.6433C135.729 63.5861 135.769 63.5326 135.803 63.4828C135.846 63.4312 135.887 63.3777 135.924 63.3223C136.005 63.2153 136.109 63.128 136.236 63.0604C136.288 63.0311 136.337 63.0074 136.382 62.9893C136.432 62.9749 136.487 62.9716 136.546 62.9796C136.663 62.9862 136.766 63.0197 136.854 63.0799C136.899 63.11 136.93 63.1354 136.948 63.156L136.954 63.1477C137.054 63.2154 137.134 63.27 137.195 63.3114C137.256 63.3529 137.314 63.3924 137.37 63.43C137.43 63.4714 137.494 63.5147 137.561 63.5599C137.631 63.5996 137.724 63.6589 137.84 63.738C138.066 63.883 138.278 64.0233 138.477 64.1589C138.677 64.2944 138.88 64.4365 139.087 64.5851L139.12 64.6077C139.177 64.6546 139.239 64.7007 139.305 64.7459C139.372 64.791 139.434 64.8371 139.491 64.8841C139.552 64.9255 139.607 64.9752 139.657 65.0332C139.71 65.0857 139.76 65.1438 139.805 65.2073C139.881 65.299 139.926 65.3988 139.942 65.5067C139.939 65.6181 139.911 65.7126 139.859 65.7901C139.836 65.8234 139.813 65.8566 139.791 65.8898C139.772 65.9175 139.748 65.9414 139.718 65.9616C139.675 66.0132 139.602 66.0488 139.5 66.0683C139.47 66.0643 139.435 66.0612 139.397 66.059C139.363 66.0606 139.326 66.0556 139.285 66.0441C139.244 66.0326 139.203 66.0164 139.16 65.9956C139.127 65.973 139.092 65.9532 139.055 65.9361C139.003 65.9171 138.958 65.8944 138.919 65.868C138.886 65.8454 138.847 65.8191 138.803 65.789L138.429 65.5348L136.762 64.4137L136.745 64.4386Z" fill="white"/>
<path d="M134.62 62.0593C134.607 62.0907 134.588 62.1184 134.564 62.1424C134.545 62.17 134.516 62.1949 134.477 62.2168C134.402 62.2793 134.33 62.3316 134.261 62.3737C134.175 62.4286 134.088 62.4668 134.001 62.4883C133.956 62.5065 133.911 62.5247 133.866 62.5429C133.831 62.5593 133.795 62.5757 133.76 62.5921L133.556 62.6599L131.448 63.474L131.093 63.585L129.591 65.7949C129.561 65.815 129.536 65.839 129.518 65.8667C129.499 65.8944 129.475 65.9229 129.447 65.9524C129.417 65.9726 129.39 65.9946 129.366 66.0185C129.345 66.0369 129.32 66.0562 129.29 66.0764C129.264 66.091 129.247 66.1038 129.24 66.1149C129.227 66.1222 129.215 66.1268 129.206 66.1285C129.202 66.1341 129.194 66.1405 129.181 66.1478C129.11 66.1806 129.029 66.1985 128.938 66.2014C128.775 66.1795 128.627 66.0992 128.494 65.9605C128.413 65.8892 128.366 65.8163 128.351 65.7419C128.335 65.7065 128.326 65.672 128.324 65.6386C128.323 65.6051 128.323 65.5689 128.325 65.5299C128.337 65.4892 128.347 65.4512 128.354 65.416C128.362 65.3807 128.373 65.3474 128.386 65.3159C128.394 65.2807 128.405 65.252 128.42 65.2299C128.439 65.2022 128.456 65.1773 128.471 65.1551L130.013 62.8871L130.022 62.4804L129.981 60.2176L129.991 60.0059C129.992 59.9335 129.99 59.8471 129.985 59.7467C129.982 59.6557 129.989 59.5629 130.004 59.4683C130.005 59.42 130.008 59.3736 130.014 59.329C130.029 59.2827 130.045 59.2364 130.06 59.1901C130.081 59.1235 130.116 59.0662 130.164 59.0183C130.23 58.9576 130.305 58.9193 130.388 58.9033C130.478 58.8911 130.562 58.8919 130.642 58.9056C130.757 58.9029 130.861 58.941 130.953 59.0199C131.014 59.0613 131.059 59.1081 131.088 59.1604C131.117 59.2127 131.145 59.2677 131.17 59.3255C131.194 59.3982 131.213 59.4717 131.227 59.5462C131.247 59.6243 131.259 59.7015 131.264 59.7777C131.27 59.8633 131.276 59.9441 131.281 60.0203C131.29 60.091 131.293 60.1699 131.29 60.2572L131.292 60.3074C131.305 60.575 131.313 60.8314 131.316 61.0766C131.323 61.3163 131.327 61.5736 131.326 61.8485C131.329 61.8671 131.331 61.9005 131.331 61.9488C131.33 61.9971 131.329 62.0528 131.326 62.116C131.375 62.0923 131.417 62.0722 131.452 62.0558C131.497 62.0376 131.529 62.0268 131.547 62.0232C131.803 61.9215 132.045 61.8271 132.274 61.74C132.503 61.6529 132.745 61.5659 132.998 61.4791L133.037 61.4571C133.116 61.4374 133.188 61.4139 133.255 61.3866C133.332 61.3576 133.411 61.3305 133.493 61.3052C133.633 61.2544 133.788 61.2345 133.959 61.2453C134.089 61.2446 134.207 61.268 134.312 61.3154C134.425 61.3758 134.501 61.4601 134.541 61.5682C134.559 61.6129 134.576 61.653 134.593 61.6885C134.615 61.7277 134.629 61.7659 134.636 61.8031C134.647 61.8831 134.641 61.9685 134.62 62.0593Z" fill="white"/>
<path d="M141.927 44.5587C142.663 45.059 143.665 44.8679 144.166 44.1319C144.666 43.3958 144.475 42.3936 143.739 41.8932C143.003 41.3929 142.001 41.584 141.5 42.32C141 43.0561 141.191 44.0583 141.927 44.5587Z" fill="#AAB9E5"/>
<path d="M142.381 43.8925C141.829 43.5172 141.686 42.7655 142.061 42.2135L144.779 38.2154C145.154 37.6633 145.906 37.52 146.458 37.8953C147.01 38.2705 147.153 39.0222 146.778 39.5742L144.06 43.5724C143.685 44.1244 142.933 44.2677 142.381 43.8925Z" fill="#D3DCFB"/>
<path d="M161.25 57.6944C161.986 58.1947 162.989 58.0036 163.489 57.2676C163.989 56.5316 163.798 55.5293 163.062 55.029C162.326 54.5286 161.324 54.7197 160.824 55.4558C160.323 56.1918 160.514 57.1941 161.25 57.6944Z" fill="#AAB9E5"/>
<path d="M161.704 57.0282C161.152 56.653 161.009 55.9012 161.384 55.3492L164.102 51.3511C164.477 50.7991 165.229 50.6558 165.781 51.031C166.333 51.4062 166.476 52.158 166.101 52.71L163.383 56.7081C163.008 57.2601 162.256 57.4034 161.704 57.0282Z" fill="#D3DCFB"/>
<path d="M151.59 51.128C152.326 51.6283 153.329 51.4372 153.829 50.7012C154.329 49.9652 154.138 48.9629 153.402 48.4626C152.666 47.9622 151.664 48.1533 151.163 48.8894C150.663 49.6254 150.854 50.6277 151.59 51.128Z" fill="#AAB9E5"/>
<path d="M152.042 50.4599C151.49 50.0846 151.347 49.3329 151.722 48.7809L154.44 44.7827C154.815 44.2307 155.567 44.0874 156.119 44.4626C156.671 44.8379 156.814 45.5896 156.439 46.1416L153.721 50.1398C153.346 50.6918 152.594 50.8351 152.042 50.4599Z" fill="#D3DCFB"/>
<path d="M129.889 62.695C123.965 65.0824 119.367 50.6695 119.102 48.459C120.941 41.9511 125.704 43.2715 127.855 44.7452C128.651 53.2338 135.813 60.3076 129.889 62.695Z" fill="url(#paint2_linear_1671_7938)"/>
<path d="M122.285 61.4577C119.951 58.4867 118.857 49.8449 119.19 48.1943C119.898 52.7923 122.253 57.3625 123.598 59.3355L122.285 61.4577Z" fill="#DB422A"/>
<path d="M159.542 54C156.705 54 155 52.2952 155 50.3211C155 48.3469 157.984 46.9584 159.542 47.001C161.916 47.0658 164 48.6163 164 50.3211C164 52.026 162.15 54 159.542 54Z" fill="url(#paint3_linear_1671_7938)"/>
<defs>
<linearGradient id="paint0_linear_1671_7938" x1="124.914" y1="78.3256" x2="124.205" y2="58.1978" gradientUnits="userSpaceOnUse">
<stop stop-color="#E04D40"/>
<stop offset="1" stop-color="#F15F56"/>
</linearGradient>
<linearGradient id="paint1_linear_1671_7938" x1="153.381" y1="14.4149" x2="119.427" y2="68.4409" gradientUnits="userSpaceOnUse">
<stop stop-color="#FF7171"/>
<stop offset="1" stop-color="#E85345"/>
</linearGradient>
<linearGradient id="paint2_linear_1671_7938" x1="127.413" y1="63.0486" x2="122.196" y2="43.5957" gradientUnits="userSpaceOnUse">
<stop stop-color="#E04D40"/>
<stop offset="1" stop-color="#F15F56"/>
</linearGradient>
<linearGradient id="paint3_linear_1671_7938" x1="159.5" y1="47" x2="159.5" y2="54" gradientUnits="userSpaceOnUse">
<stop stop-color="#FA6B68"/>
<stop offset="1" stop-color="#F1463F"/>
</linearGradient>
</defs>
</svg>
