<svg width="292" height="103" viewBox="0 0 292 103" fill="none" xmlns="http://www.w3.org/2000/svg">
<rect width="292" height="102.768" fill="#1D1D26"/>
<path d="M62.096 60.512H34.9396C32.6322 60.512 30.7617 58.6415 30.7617 56.3341V52.8525H66.2739V56.3341C66.2739 58.6415 64.4034 60.512 62.096 60.512Z" fill="#D3DCFB"/>
<path d="M34.9396 59.1194C33.4038 59.1194 32.1543 57.8699 32.1543 56.3341V52.8525H64.8812V56.3341C64.8812 57.8699 63.6318 59.1194 62.096 59.1194H34.9396Z" fill="#6A0DB4"/>
<path d="M62.096 27.7852H34.9396C32.6359 27.7852 30.7617 29.6594 30.7617 31.9631V53.5489C30.7617 55.8526 32.6359 57.7268 34.9396 57.7268H62.096C64.3997 57.7268 66.2739 55.8526 66.2739 53.5489C66.2739 53.0634 66.2739 32.5888 66.2739 31.9631C66.2739 29.6594 64.3997 27.7852 62.096 27.7852Z" fill="#EBF5FC"/>
<path d="M34.9396 56.3334C33.4013 56.3334 32.1543 55.0864 32.1543 53.5482V47.2813C32.1543 46.5122 32.7778 45.8887 33.5469 45.8887H63.4886C64.2577 45.8887 64.8812 46.5122 64.8812 47.2813V53.5482C64.8812 55.0864 63.6342 56.3334 62.096 56.3334H34.9396Z" fill="#A12BFF"/>
<path d="M38.421 31.963C39.1901 31.963 39.8136 31.3395 39.8136 30.5704C39.8136 29.8012 39.1901 29.1777 38.421 29.1777C37.6518 29.1777 37.0283 29.8012 37.0283 30.5704C37.0283 31.3395 37.6518 31.963 38.421 31.963Z" fill="#AAB9E5"/>
<path d="M38.4214 31.2669C37.8446 31.2669 37.377 30.7992 37.377 30.2224V26.0445C37.377 25.4676 37.8446 25 38.4214 25C38.9983 25 39.4659 25.4676 39.4659 26.0445V30.2224C39.4659 30.7992 38.9983 31.2669 38.4214 31.2669Z" fill="#D3DCFB"/>
<path d="M58.6143 31.963C59.3834 31.963 60.007 31.3395 60.007 30.5704C60.007 29.8012 59.3834 29.1777 58.6143 29.1777C57.8452 29.1777 57.2217 29.8012 57.2217 30.5704C57.2217 31.3395 57.8452 31.963 58.6143 31.963Z" fill="#AAB9E5"/>
<path d="M58.6138 31.2669C58.037 31.2669 57.5693 30.7992 57.5693 30.2224V26.0445C57.5693 25.4676 58.037 25 58.6138 25C59.1906 25 59.6583 25.4676 59.6583 26.0445V30.2224C59.6583 30.7992 59.1906 31.2669 58.6138 31.2669Z" fill="#D3DCFB"/>
<path d="M48.5176 31.963C49.2868 31.963 49.9103 31.3395 49.9103 30.5704C49.9103 29.8012 49.2868 29.1777 48.5176 29.1777C47.7485 29.1777 47.125 29.8012 47.125 30.5704C47.125 31.3395 47.7485 31.963 48.5176 31.963Z" fill="#AAB9E5"/>
<path d="M48.5171 31.2669C47.9403 31.2669 47.4727 30.7992 47.4727 30.2224V26.0445C47.4727 25.4676 47.9403 25 48.5171 25C49.094 25 49.5616 25.4676 49.5616 26.0445V30.2224C49.5616 30.7992 49.094 31.2669 48.5171 31.2669Z" fill="#D3DCFB"/>
<path d="M51.3019 43.1039C52.8377 43.1039 54.0871 41.8544 54.0871 40.3186V36.837C54.0871 35.3012 52.8377 34.0518 51.3019 34.0518C49.7661 34.0518 48.5166 35.3012 48.5166 36.837V40.3186C48.5166 41.8544 49.7661 43.1039 51.3019 43.1039ZM49.9092 36.837C49.9092 36.0691 50.534 35.4444 51.3019 35.4444C52.0698 35.4444 52.6945 36.0691 52.6945 36.837V40.3186C52.6945 41.0865 52.0698 41.7113 51.3019 41.7113C50.534 41.7113 49.9092 41.0865 49.9092 40.3186V36.837Z" fill="#252A3F"/>
<path d="M44.0604 37.394L45.7316 36.1406V42.4075C45.7316 42.792 46.0434 43.1038 46.4279 43.1038C46.8124 43.1038 47.1242 42.792 47.1242 42.4075V34.748C47.1242 34.1755 46.4688 33.847 46.0101 34.1909L43.2248 36.2799C42.9172 36.5106 42.8549 36.9471 43.0856 37.2547C43.3163 37.5623 43.7527 37.6247 44.0604 37.394Z" fill="#252A3F"/>
<path d="M55.5932 52.3996C55.5886 52.4785 55.577 52.5621 55.5584 52.6503C55.5445 52.7385 55.5004 52.8105 55.4261 52.8662C55.3704 52.9126 55.3077 52.9404 55.2381 52.9497C55.1685 52.959 55.0988 52.9544 55.0292 52.9358C54.9642 52.9219 54.9015 52.8987 54.8412 52.8662C54.7808 52.829 54.7321 52.7849 54.695 52.7339C54.5371 52.5389 54.3909 52.3393 54.2563 52.135C54.1263 51.9261 53.994 51.7172 53.8594 51.5083L53.2745 50.624C53.1956 50.4987 53.112 50.3594 53.0238 50.2062C52.9356 50.0484 52.8451 49.9022 52.7522 49.7675L52.7314 52.4275V52.4901C52.7314 52.5644 52.7174 52.6387 52.6896 52.713C52.6664 52.7826 52.6246 52.8429 52.5642 52.894C52.5178 52.9311 52.4575 52.9567 52.3832 52.9706C52.2671 52.9938 52.1697 52.9869 52.0907 52.9497C52.0165 52.9126 51.9561 52.8615 51.9097 52.7965C51.8679 52.7315 51.8377 52.6573 51.8192 52.5737C51.8052 52.4855 51.8029 52.3996 51.8122 52.3161V52.1977L51.8261 51.6546L51.8331 50.6449C51.8377 50.4964 51.8401 50.3455 51.8401 50.1923C51.8401 50.0345 51.8401 49.8743 51.8401 49.7118C51.8354 49.5122 51.8354 49.301 51.8401 49.0782C51.8493 48.8554 51.8586 48.6465 51.8679 48.4515C51.8772 48.3447 51.9027 48.2542 51.9445 48.1799C51.9631 48.1149 52.0118 48.0592 52.0907 48.0128C52.1418 47.9803 52.2068 47.9594 52.2857 47.9502C52.3693 47.9409 52.4412 47.9432 52.5016 47.9571C52.5248 47.9664 52.548 47.978 52.5712 47.9919C52.5944 48.0012 52.6176 48.0128 52.6408 48.0267C52.664 48.0453 52.6849 48.0639 52.7035 48.0825C52.7267 48.101 52.7476 48.1219 52.7662 48.1451C52.7894 48.1683 52.8103 48.1939 52.8288 48.2217C52.8474 48.2449 52.866 48.2681 52.8845 48.2913C52.8985 48.3192 52.9124 48.3447 52.9263 48.3679C52.9402 48.3912 52.9565 48.4144 52.9751 48.4376L53.0517 48.549L54.6602 51.0836V50.624C54.6602 50.4755 54.6578 50.3246 54.6532 50.1714C54.6532 50.0136 54.6509 49.8511 54.6462 49.684C54.6462 49.489 54.6462 49.2801 54.6462 49.0573C54.6509 48.8345 54.6578 48.6256 54.6671 48.4306C54.6671 48.3517 54.6903 48.2612 54.7367 48.159C54.76 48.0987 54.7994 48.05 54.8551 48.0128C54.9108 47.9757 54.9735 47.9502 55.0431 47.9362C55.1128 47.9223 55.1824 47.9223 55.252 47.9362C55.3217 47.9502 55.382 47.978 55.4331 48.0198C55.447 48.0337 55.4609 48.05 55.4748 48.0685C55.4888 48.0871 55.5004 48.108 55.5097 48.1312C55.5329 48.1915 55.5468 48.2449 55.5514 48.2913C55.5654 48.3563 55.5723 48.4144 55.5723 48.4654C55.5723 49.0457 55.5723 49.6376 55.5723 50.241C55.577 50.8445 55.5816 51.4364 55.5863 52.0166C55.5863 52.0816 55.5886 52.1466 55.5932 52.2116C55.5979 52.272 55.5979 52.3346 55.5932 52.3996Z" fill="white"/>
<path d="M50.6068 52.4555C50.6115 52.4833 50.6138 52.5112 50.6138 52.539C50.6184 52.5622 50.6208 52.5901 50.6208 52.6226C50.6208 52.6783 50.6045 52.7293 50.572 52.7758C50.5581 52.799 50.5395 52.8222 50.5163 52.8454C50.4931 52.864 50.4652 52.8802 50.4327 52.8941C50.3167 52.9591 50.1937 52.9823 50.0637 52.9638C49.9987 52.9452 49.9407 52.915 49.8896 52.8732C49.8803 52.864 49.8734 52.8593 49.8687 52.8593C49.8641 52.8547 49.8594 52.8477 49.8548 52.8384C49.8502 52.8338 49.8455 52.8291 49.8409 52.8245C49.8362 52.8152 49.8293 52.8083 49.82 52.8036C49.7968 52.7804 49.7782 52.7595 49.7643 52.7409C49.7504 52.7177 49.7364 52.6945 49.7225 52.6713C49.7132 52.6481 49.7016 52.6272 49.6877 52.6086C49.6784 52.5854 49.6668 52.5622 49.6529 52.539C49.6436 52.5204 49.6343 52.5042 49.625 52.4903C49.6157 52.4717 49.6088 52.4531 49.6041 52.4346C49.5856 52.3928 49.574 52.3557 49.5693 52.3232L49.4231 51.982C49.1028 51.982 48.7825 51.9843 48.4622 51.9889C48.1465 51.9889 47.8285 51.9866 47.5082 51.982L47.362 52.3232C47.3527 52.3417 47.3457 52.3603 47.3411 52.3789C47.3411 52.3974 47.3365 52.416 47.3272 52.4346C47.3179 52.4531 47.3086 52.4717 47.2993 52.4903C47.2947 52.5042 47.2877 52.5204 47.2784 52.539C47.2645 52.5622 47.2506 52.5854 47.2366 52.6086C47.2274 52.6272 47.2158 52.6481 47.2018 52.6713C47.1925 52.6945 47.1809 52.7177 47.167 52.7409C47.1531 52.7595 47.1345 52.7804 47.1113 52.8036C47.102 52.8083 47.0951 52.8152 47.0904 52.8245C47.0858 52.8291 47.0811 52.8338 47.0765 52.8384C47.0719 52.8477 47.0672 52.8547 47.0626 52.8593C47.0579 52.8593 47.051 52.864 47.0417 52.8732C46.9906 52.915 46.9326 52.9452 46.8676 52.9638C46.7376 52.9823 46.6146 52.9591 46.4986 52.8941C46.4661 52.8802 46.4382 52.864 46.415 52.8454C46.3918 52.8222 46.3732 52.799 46.3593 52.7758C46.3268 52.7293 46.3105 52.6783 46.3105 52.6226C46.3105 52.5901 46.3105 52.5622 46.3105 52.539C46.3152 52.5112 46.3198 52.4833 46.3245 52.4555C46.3338 52.4137 46.3454 52.3719 46.3593 52.3301C46.3732 52.2883 46.3802 52.2675 46.3802 52.2675L47.8285 48.7023L47.8703 48.5909C47.8796 48.563 47.8912 48.5375 47.9051 48.5143C47.919 48.4911 47.9306 48.4632 47.9399 48.4307C47.9631 48.3704 47.9887 48.317 48.0165 48.2706C48.0305 48.2427 48.0467 48.2172 48.0653 48.194C48.0838 48.1708 48.1024 48.1476 48.121 48.1244C48.1488 48.0872 48.1883 48.057 48.2393 48.0338C48.3043 48.0106 48.3786 47.999 48.4622 47.999C48.5504 47.999 48.627 48.0106 48.692 48.0338C48.743 48.057 48.7825 48.0872 48.8103 48.1244C48.8428 48.1661 48.8776 48.2149 48.9148 48.2706C48.9426 48.317 48.9682 48.3704 48.9914 48.4307C49.0007 48.4632 49.0123 48.4911 49.0262 48.5143C49.0401 48.5375 49.0517 48.563 49.061 48.5909L49.1028 48.7023L50.5511 52.2675C50.5511 52.2675 50.5581 52.2883 50.572 52.3301C50.5859 52.3719 50.5975 52.4137 50.6068 52.4555ZM48.9566 50.7495C48.8962 50.6149 48.8335 50.4756 48.7685 50.3317C48.7082 50.1878 48.6432 50.0416 48.5736 49.893C48.555 49.8512 48.5364 49.8094 48.5179 49.7677C48.4993 49.7212 48.4807 49.6771 48.4622 49.6354C48.4482 49.6771 48.432 49.7212 48.4134 49.7677C48.3949 49.8094 48.3763 49.8512 48.3577 49.893C48.2881 50.0416 48.2208 50.1878 48.1558 50.3317C48.0954 50.4756 48.0351 50.6149 47.9747 50.7495L47.8494 51.0559H49.0819L48.9566 50.7495Z" fill="white"/>
<path d="M45.7853 48.1725C45.8317 48.2329 45.8549 48.2932 45.8549 48.3536C45.8596 48.3814 45.8596 48.4162 45.8549 48.458C45.8549 48.4998 45.8526 48.5323 45.848 48.5555C45.8341 48.6019 45.8016 48.6483 45.7505 48.6947C45.7366 48.7087 45.7203 48.7226 45.7017 48.7365C45.6832 48.7458 45.66 48.7551 45.6321 48.7644C45.6043 48.7737 45.5764 48.7806 45.5486 48.7853C45.5207 48.7853 45.4905 48.7876 45.458 48.7922C45.4255 48.7969 45.3954 48.8015 45.3675 48.8062C45.3397 48.8062 45.3095 48.8062 45.277 48.8062H44.8801V48.9245C44.8755 49.3423 44.8824 49.7601 44.901 50.1779C44.9242 50.5957 44.9219 51.0135 44.894 51.4313C44.8801 51.5705 44.8592 51.7144 44.8314 51.863C44.8035 52.0069 44.7571 52.1438 44.6921 52.2738C44.6317 52.3992 44.5505 52.5152 44.4484 52.622C44.3463 52.7287 44.2163 52.8123 44.0584 52.8727C43.9099 52.9284 43.7474 52.9678 43.571 52.991C43.3946 53.0142 43.2159 53.0166 43.0349 52.998C42.8585 52.9794 42.689 52.94 42.5265 52.8796C42.3641 52.8193 42.2271 52.7357 42.1157 52.6289C42.0554 52.5732 41.9997 52.5059 41.9486 52.427C41.8975 52.3435 41.8627 52.2576 41.8441 52.1694C41.8256 52.0765 41.8302 51.9883 41.8581 51.9048C41.8859 51.8166 41.9509 51.7446 42.053 51.6889C42.1412 51.6379 42.2202 51.6262 42.2898 51.6541C42.3641 51.682 42.4337 51.7261 42.4987 51.7864C42.5683 51.8467 42.638 51.9094 42.7076 51.9744C42.7819 52.0394 42.8631 52.0812 42.9513 52.0997C43.1416 52.1462 43.2971 52.1485 43.4178 52.1067C43.5385 52.0603 43.6337 51.9883 43.7033 51.8908C43.7729 51.7934 43.8217 51.675 43.8495 51.5357C43.882 51.3965 43.9006 51.2549 43.9052 51.111C43.9145 50.9671 43.9169 50.8278 43.9122 50.6932C43.9076 50.5586 43.9076 50.4448 43.9122 50.352C43.9169 50.106 43.9169 49.8646 43.9122 49.6278C43.9076 49.3911 43.9052 49.1497 43.9052 48.9036V48.8758C43.9099 48.8665 43.9122 48.8526 43.9122 48.834H43.8913C43.8635 48.8294 43.8054 48.827 43.7172 48.827C43.629 48.8224 43.5339 48.8201 43.4318 48.8201C43.3296 48.8201 43.2321 48.8201 43.1393 48.8201C43.0511 48.8154 42.9931 48.8131 42.9652 48.8131H42.8677V48.8062C42.8306 48.8015 42.7935 48.7946 42.7563 48.7853C42.7192 48.776 42.6821 48.7667 42.6449 48.7574C42.5567 48.7296 42.4894 48.6855 42.443 48.6251C42.4198 48.6019 42.4012 48.5648 42.3873 48.5137C42.378 48.4626 42.3734 48.4185 42.3734 48.3814C42.3734 48.3582 42.3734 48.3327 42.3734 48.3048C42.3734 48.277 42.378 48.2514 42.3873 48.2282C42.3966 48.1772 42.4291 48.1307 42.4848 48.0889C42.5219 48.0611 42.566 48.0402 42.6171 48.0263C42.6496 48.017 42.6821 48.01 42.7145 48.0054C42.747 48.0007 42.7819 47.9961 42.819 47.9915C42.8515 47.9868 42.884 47.9845 42.9165 47.9845C42.949 47.9845 42.9838 47.9845 43.0209 47.9845H43.6894C43.7172 47.9845 43.7497 47.9845 43.7869 47.9845C43.824 47.9845 43.8658 47.9822 43.9122 47.9775C44.0933 47.9775 44.272 47.9775 44.4484 47.9775C44.6248 47.9775 44.7965 47.9799 44.9637 47.9845H45.0054C45.0565 47.9845 45.1052 47.9868 45.1517 47.9915C45.2027 47.9915 45.2538 47.9915 45.3048 47.9915C45.4116 47.9961 45.5114 48.017 45.6043 48.0541C45.6785 48.0727 45.7389 48.1122 45.7853 48.1725Z" fill="white"/>
<path d="M106.485 60.512H79.3283C77.0209 60.512 75.1504 58.6415 75.1504 56.3341V52.8525H110.663V56.3341C110.663 58.6415 108.792 60.512 106.485 60.512Z" fill="#D3DCFB"/>
<path d="M79.3292 59.1194C77.7934 59.1194 76.5439 57.8699 76.5439 56.3341V52.8525H109.271V56.3341C109.271 57.8699 108.021 59.1194 106.486 59.1194H79.3292Z" fill="#6A0DB4"/>
<path d="M106.485 27.7852H79.3283C77.0246 27.7852 75.1504 29.6594 75.1504 31.9631V53.5489C75.1504 55.8526 77.0246 57.7268 79.3283 57.7268H106.485C108.788 57.7268 110.663 55.8526 110.663 53.5489C110.663 53.0634 110.663 32.5888 110.663 31.9631C110.663 29.6594 108.788 27.7852 106.485 27.7852Z" fill="#EBF5FC"/>
<path d="M79.3292 56.3334C77.791 56.3334 76.5439 55.0864 76.5439 53.5482V47.2813C76.5439 46.5122 77.1674 45.8887 77.9366 45.8887H107.878C108.647 45.8887 109.271 46.5122 109.271 47.2813V53.5482C109.271 55.0864 108.024 56.3334 106.486 56.3334H79.3292Z" fill="#A12BFF"/>
<path d="M82.8106 31.963C83.5797 31.963 84.2032 31.3395 84.2032 30.5704C84.2032 29.8012 83.5797 29.1777 82.8106 29.1777C82.0415 29.1777 81.418 29.8012 81.418 30.5704C81.418 31.3395 82.0415 31.963 82.8106 31.963Z" fill="#AAB9E5"/>
<path d="M82.8101 31.2669C82.2333 31.2669 81.7656 30.7992 81.7656 30.2224V26.0445C81.7656 25.4676 82.2333 25 82.8101 25C83.3869 25 83.8546 25.4676 83.8546 26.0445V30.2224C83.8546 30.7992 83.3869 31.2669 82.8101 31.2669Z" fill="#D3DCFB"/>
<path d="M103.004 31.963C103.773 31.963 104.397 31.3395 104.397 30.5704C104.397 29.8012 103.773 29.1777 103.004 29.1777C102.235 29.1777 101.611 29.8012 101.611 30.5704C101.611 31.3395 102.235 31.963 103.004 31.963Z" fill="#AAB9E5"/>
<path d="M103.003 31.2669C102.427 31.2669 101.959 30.7992 101.959 30.2224V26.0445C101.959 25.4676 102.427 25 103.003 25C103.58 25 104.048 25.4676 104.048 26.0445V30.2224C104.048 30.7992 103.58 31.2669 103.003 31.2669Z" fill="#D3DCFB"/>
<path d="M92.9073 31.963C93.6764 31.963 94.2999 31.3395 94.2999 30.5704C94.2999 29.8012 93.6764 29.1777 92.9073 29.1777C92.1382 29.1777 91.5146 29.8012 91.5146 30.5704C91.5146 31.3395 92.1382 31.963 92.9073 31.963Z" fill="#AAB9E5"/>
<path d="M92.9068 31.2669C92.33 31.2669 91.8623 30.7992 91.8623 30.2224V26.0445C91.8623 25.4676 92.33 25 92.9068 25C93.4836 25 93.9513 25.4676 93.9513 26.0445V30.2224C93.9513 30.7992 93.4836 31.2669 92.9068 31.2669Z" fill="#D3DCFB"/>
<path d="M95.6925 43.1039C97.2283 43.1039 98.4778 41.8544 98.4778 40.3186V36.837C98.4778 35.3012 97.2283 34.0518 95.6925 34.0518C94.1567 34.0518 92.9072 35.3012 92.9072 36.837V40.3186C92.9072 41.8544 94.1567 43.1039 95.6925 43.1039ZM94.2999 36.837C94.2999 36.0691 94.9246 35.4444 95.6925 35.4444C96.4604 35.4444 97.0851 36.0691 97.0851 36.837V40.3186C97.0851 41.0865 96.4604 41.7113 95.6925 41.7113C94.9246 41.7113 94.2999 41.0865 94.2999 40.3186V36.837Z" fill="#252A3F"/>
<path d="M88.451 37.394L90.1222 36.1406V42.4075C90.1222 42.792 90.434 43.1038 90.8185 43.1038C91.203 43.1038 91.5148 42.792 91.5148 42.4075V34.748C91.5148 34.1755 90.8595 33.847 90.4007 34.1909L87.6155 36.2799C87.3078 36.5106 87.2455 36.9471 87.4762 37.2547C87.707 37.5623 88.1433 37.6247 88.451 37.394Z" fill="#252A3F"/>
<path d="M99.3538 50.3568C99.4885 50.445 99.6022 50.5494 99.695 50.6701C99.7925 50.7862 99.8691 50.9301 99.9248 51.1018C99.9852 51.2922 100.015 51.4848 100.015 51.6798C100.02 51.8701 99.9852 52.0488 99.9109 52.216C99.8413 52.3784 99.7275 52.5223 99.5697 52.6477C99.4165 52.7684 99.2146 52.8542 98.9639 52.9053C98.8293 52.9378 98.6715 52.9633 98.4904 52.9819C98.3094 53.0005 98.1469 53.0098 98.003 53.0098C97.8219 53.0144 97.6339 53.0144 97.439 53.0098C97.2486 53.0098 97.063 52.9912 96.8819 52.954C96.803 52.9308 96.745 52.8914 96.7078 52.8357C96.6753 52.7753 96.6521 52.708 96.6382 52.6337C96.6196 52.592 96.6104 52.5502 96.6104 52.5084V48.5533C96.6104 48.4233 96.6359 48.3235 96.6869 48.2539C96.7427 48.1796 96.8146 48.1262 96.9028 48.0937C96.991 48.0566 97.0908 48.0357 97.2022 48.0311C97.3136 48.0218 97.4297 48.0172 97.5504 48.0172C97.6432 48.0172 97.7361 48.0172 97.8289 48.0172C97.9264 48.0125 98.0239 48.0125 98.1214 48.0172C98.2746 48.0218 98.4324 48.0357 98.5949 48.0589C98.762 48.0775 98.9198 48.1146 99.0684 48.1703C99.138 48.1936 99.2123 48.226 99.2912 48.2678C99.3701 48.305 99.4328 48.3514 99.4792 48.4071C99.6277 48.5417 99.7368 48.6995 99.8065 48.8806C99.8807 49.057 99.9132 49.238 99.9039 49.4237C99.8947 49.6048 99.8436 49.7788 99.7507 49.946C99.6625 50.1131 99.5302 50.25 99.3538 50.3568ZM98.1353 52.202C98.2792 52.1927 98.4254 52.1765 98.574 52.1533C98.7225 52.1301 98.8246 52.086 98.8803 52.021C98.9407 51.9467 98.9825 51.8608 99.0057 51.7633C99.0335 51.6612 99.0405 51.5591 99.0266 51.457C99.0173 51.3502 98.9871 51.2504 98.9361 51.1575C98.8896 51.0601 98.827 50.9835 98.748 50.9278C98.6413 50.8442 98.5183 50.7908 98.379 50.7676C98.2397 50.7398 98.1028 50.7258 97.9682 50.7258C97.9032 50.7258 97.8428 50.7282 97.7871 50.7328C97.7361 50.7328 97.6896 50.7398 97.6479 50.7537C97.6107 50.763 97.5829 50.7839 97.5643 50.8164C97.5457 50.8488 97.5365 50.8976 97.5365 50.9626C97.5457 51.0833 97.5457 51.204 97.5365 51.3247C97.5272 51.4454 97.5225 51.5614 97.5225 51.6728C97.5225 51.7378 97.5202 51.8098 97.5156 51.8887C97.5156 51.963 97.5411 52.0256 97.5922 52.0767C97.6432 52.1277 97.7175 52.1626 97.815 52.1811C97.9125 52.1997 98.0192 52.2067 98.1353 52.202ZM98.2746 48.8597C98.1306 48.8551 98.01 48.8527 97.9125 48.8527C97.8196 48.8481 97.7453 48.8551 97.6896 48.8736C97.6386 48.8876 97.6014 48.9224 97.5782 48.9781C97.5597 49.0291 97.5527 49.1081 97.5573 49.2148C97.5573 49.303 97.555 49.3912 97.5504 49.4794C97.5504 49.563 97.5504 49.6465 97.5504 49.7301C97.5504 49.8229 97.5806 49.8926 97.6409 49.939C97.7012 49.9808 97.7755 50.0063 97.8637 50.0156C97.9566 50.0249 98.0517 50.0249 98.1492 50.0156C98.2513 50.0063 98.3395 49.9947 98.4138 49.9808C98.5809 49.9529 98.7086 49.8972 98.7968 49.8137C98.8896 49.7255 98.943 49.5978 98.9569 49.4307C98.9755 49.2218 98.9198 49.0779 98.7898 48.999C98.6645 48.9154 98.4927 48.869 98.2746 48.8597Z" fill="white"/>
<path d="M93.117 48.8327L93.1031 49.9259H93.3816C93.572 49.9212 93.7414 49.9189 93.89 49.9189C94.0385 49.9189 94.2033 49.9212 94.3843 49.9259H94.4192C94.4749 49.9259 94.5282 49.9282 94.5793 49.9328C94.635 49.9328 94.6884 49.9328 94.7395 49.9328C94.7952 49.9375 94.8486 49.9468 94.8996 49.9607C94.9507 49.97 95.0017 49.9816 95.0528 49.9955C95.1317 50.0234 95.1967 50.0651 95.2478 50.1208C95.2942 50.1812 95.3174 50.2485 95.3174 50.3228C95.3174 50.346 95.3174 50.3738 95.3174 50.4063C95.3174 50.4342 95.3128 50.4597 95.3035 50.4829C95.2942 50.534 95.264 50.5804 95.213 50.6222C95.1897 50.6547 95.1456 50.6779 95.0807 50.6918C95.0203 50.7104 94.96 50.722 94.8996 50.7266C94.8346 50.7406 94.7696 50.7475 94.7046 50.7475H94.3774L93.0892 50.7545L93.0753 52.1193L94.4609 52.1332H94.7882C94.8253 52.1332 94.8602 52.1332 94.8927 52.1332C94.9251 52.1332 94.9553 52.1355 94.9832 52.1402C95.0203 52.1494 95.0528 52.1564 95.0807 52.1611C95.1132 52.1611 95.1433 52.1657 95.1712 52.175C95.2269 52.1935 95.2733 52.2191 95.3104 52.2516C95.3569 52.298 95.387 52.3467 95.401 52.3978C95.4056 52.421 95.4079 52.4465 95.4079 52.4744C95.4126 52.4976 95.4126 52.5231 95.4079 52.551C95.4079 52.6253 95.3847 52.6926 95.3383 52.7529C95.2826 52.8179 95.2176 52.8597 95.1433 52.8783C95.0458 52.92 94.9391 52.9409 94.823 52.9409C94.772 52.9456 94.7186 52.9479 94.6629 52.9479C94.6072 52.9479 94.5538 52.9502 94.5027 52.9549H94.4609C94.0988 52.9641 93.7228 52.9641 93.3329 52.9549C93.2401 52.9549 93.1658 52.9525 93.1101 52.9479C93.0544 52.9479 93.0033 52.9479 92.9569 52.9479C92.9151 52.9479 92.871 52.9479 92.8246 52.9479C92.7782 52.9479 92.7178 52.9479 92.6435 52.9479C92.5368 52.9572 92.4486 52.9386 92.3789 52.8922C92.3279 52.8597 92.2884 52.8156 92.2606 52.7599C92.2466 52.746 92.2397 52.732 92.2397 52.7181C92.235 52.7088 92.2304 52.7019 92.2258 52.6972C92.2211 52.6926 92.2165 52.6856 92.2118 52.6763C92.2025 52.6531 92.1956 52.6299 92.1909 52.6067C92.1863 52.5788 92.184 52.5533 92.184 52.5301C92.1793 52.5069 92.1747 52.4837 92.17 52.4605C92.17 52.4373 92.1677 52.414 92.1631 52.3908V52.2794C92.1631 52.2609 92.1631 52.2423 92.1631 52.2237C92.1677 52.2052 92.17 52.1866 92.17 52.168V51.6249L92.184 50.6222V49.6961C92.184 49.529 92.184 49.3804 92.184 49.2504C92.1886 49.1205 92.1933 48.9789 92.1979 48.8257V48.7909C92.2025 48.7398 92.2049 48.6934 92.2049 48.6516C92.2095 48.6052 92.2118 48.5588 92.2118 48.5123C92.2165 48.4195 92.242 48.329 92.2884 48.2408C92.307 48.2036 92.3256 48.1711 92.3441 48.1433C92.3673 48.1154 92.3975 48.0922 92.4346 48.0737C92.5043 48.0319 92.5762 48.011 92.6505 48.011C92.6876 48.011 92.7155 48.0133 92.7341 48.018V48.011C92.8176 48.011 92.8849 48.011 92.936 48.011C92.9871 48.011 93.0358 48.011 93.0822 48.011C93.1333 48.011 93.1867 48.011 93.2424 48.011C93.2981 48.0064 93.3747 48.004 93.4722 48.004C93.6578 47.9994 93.8342 47.9971 94.0014 47.9971C94.1685 47.9971 94.3402 47.9994 94.5166 48.004H94.5445C94.5956 48.0087 94.6489 48.011 94.7046 48.011C94.7604 48.011 94.8137 48.0133 94.8648 48.018C94.9159 48.018 94.9669 48.0249 95.018 48.0388C95.0691 48.0481 95.1201 48.0621 95.1712 48.0806C95.2501 48.1038 95.3151 48.1433 95.3661 48.199C95.4079 48.264 95.4288 48.329 95.4288 48.394C95.4288 48.4218 95.4288 48.4497 95.4288 48.4775C95.4288 48.5007 95.4242 48.524 95.4149 48.5472C95.4102 48.5936 95.3824 48.6423 95.3313 48.6934C95.3128 48.7027 95.2919 48.7143 95.2687 48.7282C95.2501 48.7421 95.2269 48.7537 95.199 48.763C95.1712 48.7723 95.141 48.7793 95.1085 48.7839C95.0807 48.7839 95.0528 48.7862 95.025 48.7909C94.9878 48.8002 94.953 48.8048 94.9205 48.8048C94.8927 48.8048 94.8602 48.8048 94.823 48.8048H94.5097L93.117 48.8118V48.8327Z" fill="white"/>
<path d="M91.0003 48.2053C91.0421 48.261 91.0676 48.326 91.0769 48.4003C91.0769 48.4281 91.0745 48.456 91.0699 48.4838C91.0699 48.507 91.0676 48.5302 91.0629 48.5534C91.0583 48.6045 91.0281 48.6533 90.9724 48.6997C90.9399 48.7229 90.8981 48.7461 90.8471 48.7693C90.8192 48.7786 90.7891 48.7856 90.7566 48.7902C90.7287 48.7902 90.6962 48.7925 90.6591 48.7972C90.6312 48.8064 90.6011 48.8111 90.5686 48.8111C90.5361 48.8111 90.5036 48.8111 90.4711 48.8111H90.1577L88.7024 48.818V48.8389L88.6955 49.9739C88.7326 49.9739 88.7721 49.9739 88.8138 49.9739C88.8603 49.9739 88.916 49.9716 88.981 49.967C89.1666 49.967 89.3314 49.967 89.4753 49.967C89.6239 49.967 89.7864 49.9693 89.9628 49.9739H90.0045C90.0556 49.9739 90.1067 49.9763 90.1577 49.9809C90.2134 49.9809 90.2691 49.9809 90.3248 49.9809C90.3759 49.9855 90.427 49.9925 90.478 50.0018C90.5291 50.0064 90.5802 50.018 90.6312 50.0366C90.7148 50.0645 90.7751 50.1086 90.8123 50.1689C90.8633 50.2293 90.8889 50.2919 90.8889 50.3569C90.8889 50.3848 90.8889 50.4126 90.8889 50.4405C90.8889 50.4637 90.8842 50.4892 90.8749 50.5171C90.8703 50.5542 90.8401 50.6006 90.7844 50.6563C90.7473 50.6888 90.7032 50.7097 90.6521 50.719C90.6289 50.7283 90.6011 50.7376 90.5686 50.7468C90.5407 50.7515 90.5105 50.7561 90.478 50.7608C90.4455 50.7654 90.413 50.7701 90.3806 50.7747C90.3527 50.7747 90.3202 50.7747 90.2831 50.7747H89.9628L88.6815 50.7817L88.6606 52.3971V52.4528C88.6606 52.476 88.6583 52.4992 88.6537 52.5225C88.6537 52.541 88.6514 52.5619 88.6467 52.5851C88.6374 52.6083 88.6282 52.6339 88.6189 52.6617C88.6142 52.6849 88.6073 52.7081 88.598 52.7314C88.5655 52.7963 88.5353 52.8404 88.5075 52.8637C88.4564 52.9008 88.3937 52.9263 88.3195 52.9402C88.1941 52.9681 88.0757 52.9542 87.9643 52.8985C87.9411 52.8845 87.9179 52.8683 87.8947 52.8497C87.8761 52.8265 87.8599 52.7987 87.846 52.7662C87.8367 52.7476 87.832 52.7337 87.832 52.7244L87.8111 52.6826C87.7972 52.6594 87.7879 52.6362 87.7833 52.613C87.7786 52.5851 87.774 52.5596 87.7694 52.5364C87.7694 52.5132 87.767 52.49 87.7624 52.4668C87.7624 52.4435 87.7601 52.4203 87.7554 52.3971C87.7508 52.36 87.7508 52.3228 87.7554 52.2857V52.1743L87.7624 51.6312L87.7694 50.6285C87.774 50.4799 87.7763 50.3291 87.7763 50.1759C87.7763 50.0227 87.7763 49.8648 87.7763 49.7024C87.7717 49.5353 87.7694 49.3867 87.7694 49.2567C87.774 49.1267 87.781 48.9852 87.7903 48.832V48.7972C87.7949 48.7461 87.7972 48.6997 87.7972 48.6579C87.7972 48.6115 87.8019 48.5651 87.8111 48.5186C87.8204 48.4165 87.8436 48.326 87.8808 48.2471C87.9133 48.1681 87.9597 48.1124 88.02 48.0799C88.0897 48.0382 88.1639 48.0173 88.2429 48.0173C88.28 48.0173 88.3102 48.0196 88.3334 48.0242V48.0173C88.4169 48.0173 88.4842 48.0173 88.5353 48.0173C88.5864 48.0173 88.6351 48.0173 88.6815 48.0173C88.728 48.0173 88.779 48.0173 88.8347 48.0173C88.8904 48.0126 88.9647 48.0103 89.0575 48.0103C89.4289 48.0057 89.7956 48.0057 90.1577 48.0103H90.1925C90.2436 48.015 90.2947 48.0173 90.3457 48.0173C90.4014 48.0173 90.4571 48.0196 90.5129 48.0242C90.5639 48.0242 90.615 48.0312 90.666 48.0451C90.7171 48.0544 90.7682 48.0683 90.8192 48.0869C90.8981 48.1101 90.9585 48.1496 91.0003 48.2053Z" fill="white"/>
<path d="M150.875 60.512H123.719C121.412 60.512 119.541 58.6415 119.541 56.3341V52.8525H155.053V56.3341C155.053 58.6415 153.183 60.512 150.875 60.512Z" fill="#D3DCFB"/>
<path d="M123.719 59.1194C122.183 59.1194 120.934 57.8699 120.934 56.3341V52.8525H153.661V56.3341C153.661 57.8699 152.411 59.1194 150.875 59.1194H123.719Z" fill="#6A0DB4"/>
<path d="M150.875 27.7852H123.719C121.415 27.7852 119.541 29.6594 119.541 31.9631V53.5489C119.541 55.8526 121.415 57.7268 123.719 57.7268H150.875C153.179 57.7268 155.053 55.8526 155.053 53.5489C155.053 53.0634 155.053 32.5888 155.053 31.9631C155.053 29.6594 153.179 27.7852 150.875 27.7852Z" fill="#EBF5FC"/>
<path d="M123.719 56.3334C122.181 56.3334 120.934 55.0864 120.934 53.5482V47.2813C120.934 46.5122 121.557 45.8887 122.326 45.8887H152.268C153.037 45.8887 153.661 46.5122 153.661 47.2813V53.5482C153.661 55.0864 152.413 56.3334 150.875 56.3334H123.719Z" fill="#A12BFF"/>
<path d="M127.2 31.963C127.969 31.963 128.593 31.3395 128.593 30.5704C128.593 29.8012 127.969 29.1777 127.2 29.1777C126.431 29.1777 125.808 29.8012 125.808 30.5704C125.808 31.3395 126.431 31.963 127.2 31.963Z" fill="#AAB9E5"/>
<path d="M127.201 31.2669C126.624 31.2669 126.156 30.7992 126.156 30.2224V26.0445C126.156 25.4676 126.624 25 127.201 25C127.778 25 128.245 25.4676 128.245 26.0445V30.2224C128.245 30.7992 127.778 31.2669 127.201 31.2669Z" fill="#D3DCFB"/>
<path d="M147.394 31.963C148.163 31.963 148.786 31.3395 148.786 30.5704C148.786 29.8012 148.163 29.1777 147.394 29.1777C146.624 29.1777 146.001 29.8012 146.001 30.5704C146.001 31.3395 146.624 31.963 147.394 31.963Z" fill="#AAB9E5"/>
<path d="M147.394 31.2669C146.817 31.2669 146.35 30.7992 146.35 30.2224V26.0445C146.35 25.4676 146.817 25 147.394 25C147.971 25 148.439 25.4676 148.439 26.0445V30.2224C148.439 30.7992 147.971 31.2669 147.394 31.2669Z" fill="#D3DCFB"/>
<path d="M137.297 31.963C138.066 31.963 138.69 31.3395 138.69 30.5704C138.69 29.8012 138.066 29.1777 137.297 29.1777C136.528 29.1777 135.904 29.8012 135.904 30.5704C135.904 31.3395 136.528 31.963 137.297 31.963Z" fill="#AAB9E5"/>
<path d="M137.297 31.2669C136.721 31.2669 136.253 30.7992 136.253 30.2224V26.0445C136.253 25.4676 136.721 25 137.297 25C137.874 25 138.342 25.4676 138.342 26.0445V30.2224C138.342 30.7992 137.874 31.2669 137.297 31.2669Z" fill="#D3DCFB"/>
<path d="M140.081 43.1039C141.617 43.1039 142.866 41.8544 142.866 40.3186V36.837C142.866 35.3012 141.617 34.0518 140.081 34.0518C138.545 34.0518 137.296 35.3012 137.296 36.837V40.3186C137.296 41.8544 138.545 43.1039 140.081 43.1039ZM138.689 36.837C138.689 36.0691 139.313 35.4444 140.081 35.4444C140.849 35.4444 141.474 36.0691 141.474 36.837V40.3186C141.474 41.0865 140.849 41.7113 140.081 41.7113C139.313 41.7113 138.689 41.0865 138.689 40.3186V36.837Z" fill="#252A3F"/>
<path d="M132.841 37.394L134.512 36.1406V42.4075C134.512 42.792 134.824 43.1038 135.208 43.1038C135.593 43.1038 135.904 42.792 135.904 42.4075V34.748C135.904 34.1755 135.249 33.847 134.79 34.1909L132.005 36.2799C131.697 36.5106 131.635 36.9471 131.866 37.2547C132.097 37.5623 132.533 37.6247 132.841 37.394Z" fill="#252A3F"/>
<path d="M144.855 52.6226C144.859 52.6691 144.855 52.7132 144.841 52.7549C144.832 52.7828 144.818 52.806 144.799 52.8246C144.785 52.8431 144.767 52.8617 144.743 52.8803C144.702 52.9081 144.65 52.9337 144.59 52.9569C144.553 52.9661 144.516 52.9731 144.479 52.9778C144.446 52.987 144.411 52.987 144.374 52.9778C144.3 52.9731 144.235 52.9453 144.179 52.8942C144.1 52.8292 144.035 52.7573 143.984 52.6783C143.961 52.6412 143.936 52.5994 143.908 52.553C143.88 52.5066 143.854 52.4578 143.831 52.4068L143.058 50.9375C143.021 50.9375 142.984 50.9399 142.947 50.9445C142.91 50.9445 142.873 50.9468 142.835 50.9515C142.738 50.9608 142.645 50.9631 142.557 50.9584C142.473 50.9538 142.385 50.9538 142.292 50.9584H142.16V52.2188C142.16 52.2559 142.158 52.2907 142.153 52.3232C142.153 52.3557 142.153 52.3905 142.153 52.4277C142.153 52.4509 142.151 52.481 142.146 52.5182C142.146 52.5553 142.144 52.5901 142.139 52.6226C142.13 52.6737 142.109 52.7271 142.076 52.7828C142.044 52.8338 142 52.8779 141.944 52.9151C141.847 52.9754 141.728 52.9917 141.589 52.9638C141.529 52.9499 141.471 52.9267 141.415 52.8942C141.396 52.8803 141.38 52.864 141.366 52.8455C141.352 52.8222 141.341 52.799 141.331 52.7758C141.322 52.7526 141.313 52.7294 141.303 52.7062C141.299 52.6783 141.292 52.6528 141.283 52.6296C141.269 52.5832 141.262 52.5391 141.262 52.4973V48.5422C141.262 48.5144 141.262 48.4865 141.262 48.4586C141.266 48.4262 141.271 48.3983 141.276 48.3751C141.28 48.324 141.297 48.273 141.324 48.2219C141.338 48.1662 141.362 48.1267 141.394 48.1035C141.422 48.0757 141.464 48.0525 141.519 48.0339C141.58 48.0107 141.666 48.0014 141.777 48.006C141.986 48.0107 142.192 48.013 142.397 48.013C142.601 48.013 142.805 48.0176 143.009 48.0269C143.144 48.0362 143.286 48.0525 143.434 48.0757C143.587 48.0942 143.729 48.1291 143.859 48.1801C143.943 48.2126 144.019 48.2451 144.089 48.2776C144.177 48.3287 144.247 48.3774 144.298 48.4238C144.46 48.5724 144.583 48.7511 144.667 48.96C144.75 49.1689 144.792 49.3801 144.792 49.5936C144.792 49.8443 144.732 50.0741 144.611 50.283C144.495 50.4919 144.307 50.6474 144.047 50.7495C144.038 50.7588 144.024 50.7658 144.005 50.7704C143.991 50.7704 143.98 50.7727 143.97 50.7774L144.611 52.0656L144.674 52.177C144.683 52.1956 144.695 52.2164 144.708 52.2397C144.722 52.2629 144.734 52.2861 144.743 52.3093C144.757 52.3325 144.769 52.358 144.778 52.3859C144.792 52.4137 144.806 52.4393 144.82 52.4625C144.834 52.5275 144.845 52.5809 144.855 52.6226ZM143.114 50.1437C143.197 50.1437 143.276 50.1298 143.351 50.102C143.43 50.0695 143.499 50.0277 143.56 49.9766C143.625 49.9256 143.678 49.8675 143.72 49.8025C143.761 49.7329 143.785 49.6586 143.789 49.5797C143.808 49.3476 143.748 49.1759 143.608 49.0644C143.469 48.9484 143.286 48.8857 143.058 48.8764C142.924 48.8672 142.775 48.8625 142.613 48.8625C142.455 48.8625 142.304 48.8625 142.16 48.8625C142.165 49.0528 142.165 49.2478 142.16 49.4474C142.16 49.6424 142.16 49.8745 142.16 50.1437H143.114Z" fill="white"/>
<path d="M140.062 52.4555C140.067 52.4833 140.069 52.5112 140.069 52.539C140.074 52.5622 140.076 52.5901 140.076 52.6226C140.076 52.6783 140.06 52.7293 140.027 52.7758C140.013 52.799 139.995 52.8222 139.971 52.8454C139.948 52.864 139.92 52.8802 139.888 52.8941C139.772 52.9591 139.649 52.9823 139.519 52.9638C139.454 52.9452 139.396 52.915 139.345 52.8732C139.335 52.864 139.328 52.8593 139.324 52.8593C139.319 52.8547 139.315 52.8477 139.31 52.8384C139.305 52.8338 139.301 52.8291 139.296 52.8245C139.291 52.8152 139.284 52.8083 139.275 52.8036C139.252 52.7804 139.233 52.7595 139.219 52.7409C139.205 52.7177 139.192 52.6945 139.178 52.6713C139.168 52.6481 139.157 52.6272 139.143 52.6086C139.133 52.5854 139.122 52.5622 139.108 52.539C139.099 52.5204 139.089 52.5042 139.08 52.4903C139.071 52.4717 139.064 52.4531 139.059 52.4346C139.041 52.3928 139.029 52.3557 139.024 52.3232L138.878 51.982C138.558 51.982 138.238 51.9843 137.917 51.9889C137.602 51.9889 137.284 51.9866 136.963 51.982L136.817 52.3232C136.808 52.3417 136.801 52.3603 136.796 52.3789C136.796 52.3974 136.792 52.416 136.782 52.4346C136.773 52.4531 136.764 52.4717 136.754 52.4903C136.75 52.5042 136.743 52.5204 136.734 52.539C136.72 52.5622 136.706 52.5854 136.692 52.6086C136.682 52.6272 136.671 52.6481 136.657 52.6713C136.648 52.6945 136.636 52.7177 136.622 52.7409C136.608 52.7595 136.59 52.7804 136.566 52.8036C136.557 52.8083 136.55 52.8152 136.546 52.8245C136.541 52.8291 136.536 52.8338 136.532 52.8384C136.527 52.8477 136.522 52.8547 136.518 52.8593C136.513 52.8593 136.506 52.864 136.497 52.8732C136.446 52.915 136.388 52.9452 136.323 52.9638C136.193 52.9823 136.07 52.9591 135.954 52.8941C135.921 52.8802 135.893 52.864 135.87 52.8454C135.847 52.8222 135.828 52.799 135.814 52.7758C135.782 52.7293 135.766 52.6783 135.766 52.6226C135.766 52.5901 135.766 52.5622 135.766 52.539C135.77 52.5112 135.775 52.4833 135.78 52.4555C135.789 52.4137 135.8 52.3719 135.814 52.3301C135.828 52.2883 135.835 52.2675 135.835 52.2675L137.284 48.7023L137.325 48.5909C137.335 48.563 137.346 48.5375 137.36 48.5143C137.374 48.4911 137.386 48.4632 137.395 48.4307C137.418 48.3704 137.444 48.317 137.472 48.2706C137.486 48.2427 137.502 48.2172 137.52 48.194C137.539 48.1708 137.557 48.1476 137.576 48.1244C137.604 48.0872 137.643 48.057 137.694 48.0338C137.759 48.0106 137.834 47.999 137.917 47.999C138.005 47.999 138.082 48.0106 138.147 48.0338C138.198 48.057 138.238 48.0872 138.265 48.1244C138.298 48.1661 138.333 48.2149 138.37 48.2706C138.398 48.317 138.423 48.3704 138.446 48.4307C138.456 48.4632 138.467 48.4911 138.481 48.5143C138.495 48.5375 138.507 48.563 138.516 48.5909L138.558 48.7023L140.006 52.2675C140.006 52.2675 140.013 52.2883 140.027 52.3301C140.041 52.3719 140.053 52.4137 140.062 52.4555ZM138.412 50.7495C138.351 50.6149 138.289 50.4756 138.224 50.3317C138.163 50.1878 138.098 50.0416 138.029 49.893C138.01 49.8512 137.992 49.8094 137.973 49.7677C137.954 49.7212 137.936 49.6771 137.917 49.6354C137.903 49.6771 137.887 49.7212 137.869 49.7677C137.85 49.8094 137.831 49.8512 137.813 49.893C137.743 50.0416 137.676 50.1878 137.611 50.3317C137.551 50.4756 137.49 50.6149 137.43 50.7495L137.304 51.0559H138.537L138.412 50.7495Z" fill="white"/>
<path d="M134.573 52.4273C134.568 52.483 134.561 52.541 134.552 52.6013C134.542 52.6617 134.526 52.7174 134.503 52.7685C134.48 52.8242 134.45 52.8659 134.412 52.8938C134.361 52.9402 134.301 52.9658 134.231 52.9704C134.166 52.9936 134.104 53.0006 134.043 52.9913C133.983 52.982 133.927 52.9658 133.876 52.9425C133.811 52.9008 133.763 52.852 133.73 52.7963C133.702 52.736 133.681 52.6733 133.667 52.6083C133.653 52.5433 133.647 52.476 133.647 52.4064C133.647 52.3367 133.647 52.2718 133.647 52.2114V51.6683L133.64 50.6029C133.64 50.5286 133.64 50.4706 133.64 50.4288C133.64 50.3871 133.64 50.3499 133.64 50.3174C133.64 50.2803 133.637 50.2408 133.633 50.199C133.633 50.1526 133.633 50.0876 133.633 50.0041C133.633 49.9902 133.633 49.9669 133.633 49.9344C133.637 49.8973 133.635 49.8021 133.626 49.649C133.445 49.9507 133.294 50.1944 133.173 50.3801C133.057 50.5611 132.957 50.7027 132.874 50.8048C132.795 50.9023 132.725 50.9696 132.665 51.0068C132.604 51.0393 132.542 51.0578 132.477 51.0625C132.44 51.0671 132.402 51.0602 132.365 51.0416C132.328 51.023 132.291 50.9998 132.254 50.972C132.221 50.9441 132.189 50.9163 132.156 50.8884C132.129 50.8559 132.105 50.8257 132.087 50.7979C131.975 50.6586 131.85 50.4915 131.711 50.2965C131.571 50.1016 131.428 49.8648 131.279 49.5863C131.279 49.5909 131.277 49.6675 131.272 49.8161C131.272 49.9646 131.272 50.1503 131.272 50.3731C131.272 50.5913 131.27 50.8281 131.265 51.0834C131.265 51.334 131.263 51.5685 131.258 51.7867C131.258 52.0048 131.256 52.1882 131.251 52.3367C131.247 52.4806 131.242 52.5526 131.237 52.5526C131.237 52.6315 131.219 52.7058 131.182 52.7754C131.144 52.8404 131.093 52.8938 131.028 52.9356C130.968 52.9774 130.896 53.0006 130.812 53.0052C130.729 53.0099 130.638 52.9866 130.541 52.9356C130.481 52.8984 130.434 52.8451 130.402 52.7754C130.374 52.7058 130.355 52.6408 130.346 52.5805C130.341 52.5155 130.337 52.4528 130.332 52.3924C130.332 52.3321 130.332 52.2694 130.332 52.2044L130.339 51.6613L130.346 50.589V49.6559C130.346 49.2521 130.36 48.8552 130.388 48.4652C130.388 48.4142 130.392 48.3677 130.402 48.326C130.416 48.2795 130.432 48.2354 130.45 48.1937C130.488 48.1194 130.536 48.0637 130.597 48.0265C130.666 47.9848 130.741 47.9639 130.819 47.9639C130.852 47.9639 130.882 47.9662 130.91 47.9708C130.942 47.9708 130.973 47.9732 131 47.9778C131.093 47.9964 131.172 48.0521 131.237 48.1449C131.307 48.2331 131.372 48.3097 131.432 48.3747C131.469 48.4165 131.509 48.4675 131.551 48.5279C131.592 48.5882 131.634 48.6509 131.676 48.7159C131.718 48.7809 131.757 48.8435 131.794 48.9039C131.831 48.9642 131.864 49.0176 131.892 49.064C132.012 49.259 132.119 49.4377 132.212 49.6002C132.31 49.7627 132.4 49.902 132.484 50.018C132.498 50.0041 132.514 49.9855 132.532 49.9623C132.551 49.9344 132.57 49.9066 132.588 49.8787C132.611 49.8462 132.63 49.8161 132.644 49.7882C132.662 49.7604 132.676 49.7372 132.686 49.7186C132.732 49.6443 132.778 49.5724 132.825 49.5027C132.871 49.4285 132.92 49.3519 132.971 49.2729C133.027 49.1894 133.082 49.0989 133.138 49.0014C133.199 48.9039 133.268 48.7925 133.347 48.6671C133.38 48.6114 133.421 48.5441 133.472 48.4652C133.523 48.3863 133.582 48.3097 133.647 48.2354C133.711 48.1612 133.779 48.0985 133.848 48.0474C133.923 47.9917 133.997 47.9639 134.071 47.9639C134.108 47.9639 134.141 47.9662 134.169 47.9708C134.197 47.9708 134.224 47.9732 134.252 47.9778C134.308 47.9824 134.361 48.008 134.412 48.0544C134.45 48.0915 134.477 48.131 134.496 48.1728C134.515 48.2331 134.526 48.2842 134.531 48.326C134.535 48.3584 134.538 48.3886 134.538 48.4165C134.542 48.4443 134.545 48.4722 134.545 48.5C134.545 48.76 134.547 49.0176 134.552 49.2729C134.556 49.5283 134.559 49.7859 134.559 50.0459C134.559 50.3615 134.559 50.6865 134.559 51.0207C134.563 51.3549 134.566 51.6799 134.566 51.9955C134.566 52.0605 134.568 52.1302 134.573 52.2044C134.577 52.2787 134.577 52.353 134.573 52.4273Z" fill="white"/>
<path d="M212.938 60.512H185.781C183.474 60.512 181.604 58.6415 181.604 56.3341V52.8525H217.116V56.3341C217.116 58.6415 215.245 60.512 212.938 60.512Z" fill="#D3DCFB"/>
<path d="M185.781 59.1194C184.246 59.1194 182.996 57.8699 182.996 56.3341V52.8525H215.723V56.3341C215.723 57.8699 214.474 59.1194 212.938 59.1194H185.781Z" fill="#6A0DB4"/>
<path d="M212.938 27.7852H185.781C183.478 27.7852 181.604 29.6594 181.604 31.9631V53.5489C181.604 55.8526 183.478 57.7268 185.781 57.7268H212.938C215.242 57.7268 217.116 55.8526 217.116 53.5489C217.116 53.0634 217.116 32.5888 217.116 31.9631C217.116 29.6594 215.242 27.7852 212.938 27.7852Z" fill="#EBF5FC"/>
<path d="M185.781 56.3334C184.243 56.3334 182.996 55.0864 182.996 53.5482V47.2813C182.996 46.5122 183.62 45.8887 184.389 45.8887H214.33C215.1 45.8887 215.723 46.5122 215.723 47.2813V53.5482C215.723 55.0864 214.476 56.3334 212.938 56.3334H185.781Z" fill="#A12BFF"/>
<path d="M189.263 31.963C190.032 31.963 190.655 31.3395 190.655 30.5704C190.655 29.8012 190.032 29.1777 189.263 29.1777C188.494 29.1777 187.87 29.8012 187.87 30.5704C187.87 31.3395 188.494 31.963 189.263 31.963Z" fill="#AAB9E5"/>
<path d="M189.263 31.2669C188.686 31.2669 188.219 30.7992 188.219 30.2224V26.0445C188.219 25.4676 188.686 25 189.263 25C189.84 25 190.308 25.4676 190.308 26.0445V30.2224C190.308 30.7992 189.84 31.2669 189.263 31.2669Z" fill="#D3DCFB"/>
<path d="M209.456 31.963C210.225 31.963 210.849 31.3395 210.849 30.5704C210.849 29.8012 210.225 29.1777 209.456 29.1777C208.687 29.1777 208.063 29.8012 208.063 30.5704C208.063 31.3395 208.687 31.963 209.456 31.963Z" fill="#AAB9E5"/>
<path d="M209.457 31.2669C208.88 31.2669 208.412 30.7992 208.412 30.2224V26.0445C208.412 25.4676 208.88 25 209.457 25C210.033 25 210.501 25.4676 210.501 26.0445V30.2224C210.501 30.7992 210.033 31.2669 209.457 31.2669Z" fill="#D3DCFB"/>
<path d="M199.358 31.963C200.128 31.963 200.751 31.3395 200.751 30.5704C200.751 29.8012 200.128 29.1777 199.358 29.1777C198.589 29.1777 197.966 29.8012 197.966 30.5704C197.966 31.3395 198.589 31.963 199.358 31.963Z" fill="#AAB9E5"/>
<path d="M199.359 31.2669C198.782 31.2669 198.314 30.7992 198.314 30.2224V26.0445C198.314 25.4676 198.782 25 199.359 25C199.936 25 200.403 25.4676 200.403 26.0445V30.2224C200.403 30.7992 199.936 31.2669 199.359 31.2669Z" fill="#D3DCFB"/>
<path d="M202.145 43.1039C203.68 43.1039 204.93 41.8544 204.93 40.3186V36.837C204.93 35.3012 203.68 34.0518 202.145 34.0518C200.609 34.0518 199.359 35.3012 199.359 36.837V40.3186C199.359 41.8544 200.609 43.1039 202.145 43.1039ZM200.752 36.837C200.752 36.0691 201.377 35.4444 202.145 35.4444C202.913 35.4444 203.537 36.0691 203.537 36.837V40.3186C203.537 41.0865 202.913 41.7113 202.145 41.7113C201.377 41.7113 200.752 41.0865 200.752 40.3186V36.837Z" fill="#252A3F"/>
<path d="M194.903 37.394L196.574 36.1406V42.4075C196.574 42.792 196.886 43.1038 197.271 43.1038C197.655 43.1038 197.967 42.792 197.967 42.4075V34.748C197.967 34.1755 197.312 33.847 196.853 34.1909L194.068 36.2799C193.76 36.5106 193.698 36.9471 193.928 37.2547C194.159 37.5623 194.595 37.6247 194.903 37.394Z" fill="#252A3F"/>
<path d="M206.55 52.6207C206.555 52.6671 206.55 52.7112 206.536 52.753C206.527 52.7808 206.513 52.804 206.494 52.8226C206.48 52.8412 206.462 52.8597 206.439 52.8783C206.397 52.9062 206.346 52.9317 206.285 52.9549C206.248 52.9642 206.211 52.9712 206.174 52.9758C206.142 52.9851 206.107 52.9851 206.07 52.9758C205.995 52.9712 205.93 52.9433 205.875 52.8922C205.796 52.8273 205.731 52.7553 205.68 52.6764C205.656 52.6392 205.631 52.5975 205.603 52.551C205.575 52.5046 205.55 52.4559 205.526 52.4048L204.754 50.9356C204.716 50.9356 204.679 50.9379 204.642 50.9426C204.605 50.9426 204.568 50.9449 204.531 50.9495C204.433 50.9588 204.34 50.9611 204.252 50.9565C204.169 50.9518 204.08 50.9518 203.988 50.9565H203.855V52.2168C203.855 52.254 203.853 52.2888 203.848 52.3213C203.848 52.3538 203.848 52.3886 203.848 52.4257C203.848 52.4489 203.846 52.4791 203.841 52.5162C203.841 52.5534 203.839 52.5882 203.834 52.6207C203.825 52.6717 203.804 52.7251 203.772 52.7808C203.739 52.8319 203.695 52.876 203.639 52.9131C203.542 52.9735 203.424 52.9897 203.284 52.9619C203.224 52.9479 203.166 52.9247 203.11 52.8922C203.092 52.8783 203.075 52.8621 203.061 52.8435C203.048 52.8203 203.036 52.7971 203.027 52.7739C203.017 52.7507 203.008 52.7274 202.999 52.7042C202.994 52.6764 202.987 52.6509 202.978 52.6276C202.964 52.5812 202.957 52.5371 202.957 52.4953V48.5403C202.957 48.5124 202.957 48.4845 202.957 48.4567C202.962 48.4242 202.966 48.3963 202.971 48.3731C202.976 48.3221 202.992 48.271 203.02 48.2199C203.034 48.1642 203.057 48.1248 203.089 48.1016C203.117 48.0737 203.159 48.0505 203.215 48.0319C203.275 48.0087 203.361 47.9994 203.472 48.0041C203.681 48.0087 203.888 48.0111 204.092 48.0111C204.296 48.0111 204.501 48.0157 204.705 48.025C204.839 48.0343 204.981 48.0505 205.13 48.0737C205.283 48.0923 205.424 48.1271 205.554 48.1782C205.638 48.2107 205.714 48.2432 205.784 48.2757C205.872 48.3267 205.942 48.3755 205.993 48.4219C206.155 48.5704 206.278 48.7492 206.362 48.958C206.446 49.1669 206.487 49.3782 206.487 49.5917C206.487 49.8424 206.427 50.0722 206.306 50.281C206.19 50.4899 206.002 50.6455 205.742 50.7476C205.733 50.7569 205.719 50.7638 205.701 50.7685C205.687 50.7685 205.675 50.7708 205.666 50.7754L206.306 52.0636L206.369 52.175C206.378 52.1936 206.39 52.2145 206.404 52.2377C206.418 52.2609 206.429 52.2841 206.439 52.3073C206.453 52.3305 206.464 52.3561 206.473 52.3839C206.487 52.4118 206.501 52.4373 206.515 52.4605C206.529 52.5255 206.541 52.5789 206.55 52.6207ZM204.809 50.1418C204.893 50.1418 204.972 50.1279 205.046 50.1C205.125 50.0675 205.195 50.0257 205.255 49.9747C205.32 49.9236 205.373 49.8656 205.415 49.8006C205.457 49.731 205.48 49.6567 205.485 49.5778C205.503 49.3457 205.443 49.1739 205.304 49.0625C205.164 48.9464 204.981 48.8838 204.754 48.8745C204.619 48.8652 204.47 48.8606 204.308 48.8606C204.15 48.8606 203.999 48.8606 203.855 48.8606C203.86 49.0509 203.86 49.2459 203.855 49.4455C203.855 49.6404 203.855 49.8725 203.855 50.1418H204.809Z" fill="white"/>
<path d="M201.273 48.4353C201.449 48.5978 201.579 48.7928 201.663 49.0202C201.746 49.2431 201.779 49.4659 201.76 49.6887C201.742 49.9022 201.674 50.0995 201.558 50.2806C201.442 50.457 201.266 50.5916 201.029 50.6844C200.843 50.7634 200.66 50.8191 200.479 50.8516C200.298 50.8841 200.098 50.9096 199.88 50.9282C199.783 50.9374 199.699 50.9444 199.63 50.949C199.565 50.949 199.488 50.9514 199.4 50.956C199.381 50.956 199.349 50.956 199.302 50.956C199.261 50.956 199.23 50.9583 199.212 50.963V52.4043C199.198 52.4925 199.179 52.5831 199.156 52.6759C199.137 52.7688 199.084 52.8407 198.996 52.8918C198.945 52.9196 198.882 52.9359 198.808 52.9405C198.734 52.9452 198.666 52.9428 198.606 52.9335C198.541 52.9243 198.485 52.908 198.439 52.8848C198.397 52.857 198.362 52.8105 198.334 52.7455C198.316 52.7038 198.297 52.6573 198.279 52.6063C198.265 52.5506 198.258 52.4833 198.258 52.4043V48.5537C198.258 48.5212 198.26 48.491 198.265 48.4632C198.269 48.4353 198.274 48.4075 198.279 48.3796C198.288 48.3564 198.295 48.3309 198.3 48.303C198.304 48.2752 198.311 48.2496 198.32 48.2264C198.33 48.2032 198.339 48.1823 198.348 48.1638C198.362 48.1452 198.379 48.129 198.397 48.115C198.42 48.0918 198.455 48.0709 198.502 48.0524C198.553 48.0338 198.627 48.0245 198.724 48.0245H198.738C198.882 48.0152 199.042 48.0083 199.219 48.0036C199.395 47.9943 199.541 47.9967 199.657 48.0106C199.722 48.0199 199.783 48.0268 199.838 48.0315C199.894 48.0315 199.948 48.0338 199.999 48.0384C200.054 48.0431 200.11 48.0477 200.166 48.0524C200.221 48.057 200.277 48.064 200.333 48.0732C200.379 48.0825 200.421 48.0895 200.458 48.0941C200.5 48.0988 200.542 48.1057 200.584 48.115C200.621 48.1243 200.66 48.1336 200.702 48.1429C200.748 48.1522 200.79 48.1684 200.827 48.1916C200.925 48.2195 201.006 48.2543 201.071 48.2961C201.136 48.3379 201.203 48.3843 201.273 48.4353ZM200.855 49.5843C200.86 49.4728 200.837 49.3754 200.785 49.2918C200.739 49.2082 200.672 49.1386 200.584 49.0829C200.495 49.0272 200.396 48.9831 200.284 48.9506C200.173 48.9181 200.061 48.8949 199.95 48.881C199.922 48.881 199.883 48.881 199.831 48.881C199.785 48.8763 199.734 48.874 199.678 48.874C199.623 48.8694 199.569 48.8671 199.518 48.8671C199.472 48.8624 199.435 48.8601 199.407 48.8601C199.384 48.8554 199.356 48.8531 199.323 48.8531C199.291 48.8531 199.254 48.8531 199.212 48.8531C199.216 48.997 199.219 49.1363 199.219 49.2709C199.219 49.4009 199.219 49.5425 199.219 49.6957C199.214 49.7792 199.212 49.8628 199.212 49.9463C199.212 50.0299 199.212 50.1111 199.212 50.1901L199.643 50.1831C199.755 50.1831 199.878 50.1761 200.013 50.1622C200.147 50.1483 200.275 50.1204 200.396 50.0786C200.516 50.0369 200.618 49.9765 200.702 49.8976C200.79 49.8187 200.841 49.7142 200.855 49.5843Z" fill="white"/>
<path d="M197.058 52.4535C197.063 52.4814 197.065 52.5092 197.065 52.5371C197.07 52.5603 197.072 52.5881 197.072 52.6206C197.072 52.6763 197.056 52.7274 197.023 52.7738C197.009 52.797 196.991 52.8202 196.967 52.8434C196.944 52.862 196.916 52.8783 196.884 52.8922C196.768 52.9572 196.645 52.9804 196.515 52.9618C196.45 52.9432 196.392 52.9131 196.341 52.8713C196.332 52.862 196.325 52.8574 196.32 52.8574C196.315 52.8527 196.311 52.8458 196.306 52.8365C196.301 52.8318 196.297 52.8272 196.292 52.8226C196.287 52.8133 196.28 52.8063 196.271 52.8017C196.248 52.7785 196.229 52.7576 196.215 52.739C196.202 52.7158 196.188 52.6926 196.174 52.6694C196.164 52.6462 196.153 52.6253 196.139 52.6067C196.13 52.5835 196.118 52.5603 196.104 52.5371C196.095 52.5185 196.085 52.5022 196.076 52.4883C196.067 52.4698 196.06 52.4512 196.055 52.4326C196.037 52.3908 196.025 52.3537 196.02 52.3212L195.874 51.98C195.554 51.98 195.234 51.9823 194.913 51.987C194.598 51.987 194.28 51.9847 193.959 51.98L193.813 52.3212C193.804 52.3398 193.797 52.3583 193.792 52.3769C193.792 52.3955 193.788 52.414 193.778 52.4326C193.769 52.4512 193.76 52.4698 193.75 52.4883C193.746 52.5022 193.739 52.5185 193.73 52.5371C193.716 52.5603 193.702 52.5835 193.688 52.6067C193.679 52.6253 193.667 52.6462 193.653 52.6694C193.644 52.6926 193.632 52.7158 193.618 52.739C193.604 52.7576 193.586 52.7785 193.562 52.8017C193.553 52.8063 193.546 52.8133 193.542 52.8226C193.537 52.8272 193.532 52.8318 193.528 52.8365C193.523 52.8458 193.518 52.8527 193.514 52.8574C193.509 52.8574 193.502 52.862 193.493 52.8713C193.442 52.9131 193.384 52.9432 193.319 52.9618C193.189 52.9804 193.066 52.9572 192.95 52.8922C192.917 52.8783 192.889 52.862 192.866 52.8434C192.843 52.8202 192.824 52.797 192.81 52.7738C192.778 52.7274 192.762 52.6763 192.762 52.6206C192.762 52.5881 192.762 52.5603 192.762 52.5371C192.766 52.5092 192.771 52.4814 192.776 52.4535C192.785 52.4117 192.797 52.3699 192.81 52.3282C192.824 52.2864 192.831 52.2655 192.831 52.2655L194.28 48.7004L194.321 48.5889C194.331 48.5611 194.342 48.5356 194.356 48.5123C194.37 48.4891 194.382 48.4613 194.391 48.4288C194.414 48.3684 194.44 48.3151 194.468 48.2686C194.482 48.2408 194.498 48.2152 194.516 48.192C194.535 48.1688 194.554 48.1456 194.572 48.1224C194.6 48.0853 194.639 48.0551 194.691 48.0319C194.756 48.0087 194.83 47.9971 194.913 47.9971C195.002 47.9971 195.078 48.0087 195.143 48.0319C195.194 48.0551 195.234 48.0853 195.261 48.1224C195.294 48.1642 195.329 48.2129 195.366 48.2686C195.394 48.3151 195.419 48.3684 195.443 48.4288C195.452 48.4613 195.463 48.4891 195.477 48.5123C195.491 48.5356 195.503 48.5611 195.512 48.5889L195.554 48.7004L197.002 52.2655C197.002 52.2655 197.009 52.2864 197.023 52.3282C197.037 52.3699 197.049 52.4117 197.058 52.4535ZM195.408 50.7475C195.347 50.6129 195.285 50.4736 195.22 50.3297C195.159 50.1858 195.094 50.0396 195.025 49.8911C195.006 49.8493 194.988 49.8075 194.969 49.7657C194.95 49.7193 194.932 49.6752 194.913 49.6334C194.899 49.6752 194.883 49.7193 194.865 49.7657C194.846 49.8075 194.827 49.8493 194.809 49.8911C194.739 50.0396 194.672 50.1858 194.607 50.3297C194.547 50.4736 194.486 50.6129 194.426 50.7475L194.301 51.0539H195.533L195.408 50.7475Z" fill="white"/>
<path d="M257.328 60.512H230.172C227.865 60.512 225.994 58.6415 225.994 56.3341V52.8525H261.506V56.3341C261.506 58.6415 259.636 60.512 257.328 60.512Z" fill="#D3DCFB"/>
<path d="M230.172 59.1194C228.636 59.1194 227.387 57.8699 227.387 56.3341V52.8525H260.114V56.3341C260.114 57.8699 258.864 59.1194 257.328 59.1194H230.172Z" fill="#6A0DB4"/>
<path d="M257.328 27.7852H230.172C227.868 27.7852 225.994 29.6594 225.994 31.9631V53.5489C225.994 55.8526 227.868 57.7268 230.172 57.7268H257.328C259.632 57.7268 261.506 55.8526 261.506 53.5489C261.506 53.0634 261.506 32.5888 261.506 31.9631C261.506 29.6594 259.632 27.7852 257.328 27.7852Z" fill="#EBF5FC"/>
<path d="M230.172 56.3334C228.634 56.3334 227.387 55.0864 227.387 53.5482V47.2813C227.387 46.5122 228.01 45.8887 228.779 45.8887H258.721C259.49 45.8887 260.114 46.5122 260.114 47.2813V53.5482C260.114 55.0864 258.867 56.3334 257.328 56.3334H230.172Z" fill="#A12BFF"/>
<path d="M233.654 31.963C234.423 31.963 235.047 31.3395 235.047 30.5704C235.047 29.8012 234.423 29.1777 233.654 29.1777C232.885 29.1777 232.262 29.8012 232.262 30.5704C232.262 31.3395 232.885 31.963 233.654 31.963Z" fill="#AAB9E5"/>
<path d="M233.654 31.2669C233.077 31.2669 232.609 30.7992 232.609 30.2224V26.0445C232.609 25.4676 233.077 25 233.654 25C234.231 25 234.698 25.4676 234.698 26.0445V30.2224C234.698 30.7992 234.231 31.2669 233.654 31.2669Z" fill="#D3DCFB"/>
<path d="M253.847 31.963C254.616 31.963 255.239 31.3395 255.239 30.5704C255.239 29.8012 254.616 29.1777 253.847 29.1777C253.078 29.1777 252.454 29.8012 252.454 30.5704C252.454 31.3395 253.078 31.963 253.847 31.963Z" fill="#AAB9E5"/>
<path d="M253.846 31.2669C253.269 31.2669 252.802 30.7992 252.802 30.2224V26.0445C252.802 25.4676 253.269 25 253.846 25C254.423 25 254.891 25.4676 254.891 26.0445V30.2224C254.891 30.7992 254.423 31.2669 253.846 31.2669Z" fill="#D3DCFB"/>
<path d="M243.75 31.963C244.519 31.963 245.143 31.3395 245.143 30.5704C245.143 29.8012 244.519 29.1777 243.75 29.1777C242.981 29.1777 242.357 29.8012 242.357 30.5704C242.357 31.3395 242.981 31.963 243.75 31.963Z" fill="#AAB9E5"/>
<path d="M243.75 31.2669C243.173 31.2669 242.705 30.7992 242.705 30.2224V26.0445C242.705 25.4676 243.173 25 243.75 25C244.326 25 244.794 25.4676 244.794 26.0445V30.2224C244.794 30.7992 244.326 31.2669 243.75 31.2669Z" fill="#D3DCFB"/>
<path d="M246.535 43.1039C248.071 43.1039 249.321 41.8544 249.321 40.3186V36.837C249.321 35.3012 248.071 34.0518 246.535 34.0518C244.999 34.0518 243.75 35.3012 243.75 36.837V40.3186C243.75 41.8544 244.999 43.1039 246.535 43.1039ZM245.143 36.837C245.143 36.0691 245.767 35.4444 246.535 35.4444C247.303 35.4444 247.928 36.0691 247.928 36.837V40.3186C247.928 41.0865 247.303 41.7113 246.535 41.7113C245.767 41.7113 245.143 41.0865 245.143 40.3186V36.837Z" fill="#252A3F"/>
<path d="M239.294 37.394L240.965 36.1406V42.4075C240.965 42.792 241.277 43.1038 241.661 43.1038C242.046 43.1038 242.358 42.792 242.358 42.4075V34.748C242.358 34.1755 241.702 33.847 241.243 34.1909L238.458 36.2799C238.151 36.5106 238.088 36.9471 238.319 37.2547C238.55 37.5623 238.986 37.6247 239.294 37.394Z" fill="#252A3F"/>
<path d="M251.036 48.2971C251.04 48.3203 251.04 48.3435 251.036 48.3667C251.036 48.39 251.029 48.4155 251.015 48.4433C250.996 48.5083 250.975 48.5664 250.952 48.6174C250.924 48.6824 250.89 48.7381 250.848 48.7845C250.829 48.8124 250.811 48.8402 250.792 48.8681C250.778 48.8913 250.764 48.9145 250.75 48.9377L250.66 49.0561L249.769 50.3443L249.608 50.5462V52.3984C249.599 52.4216 249.594 52.4448 249.594 52.4681C249.594 52.4913 249.592 52.5168 249.587 52.5446C249.578 52.5679 249.571 52.5911 249.567 52.6143C249.562 52.6328 249.555 52.6537 249.546 52.6769C249.536 52.6955 249.532 52.7094 249.532 52.7187C249.527 52.728 249.522 52.735 249.518 52.7396C249.518 52.7443 249.516 52.7512 249.511 52.7605C249.483 52.8069 249.444 52.8487 249.393 52.8858C249.29 52.9369 249.174 52.9485 249.044 52.9207C248.97 52.9114 248.914 52.8882 248.877 52.851C248.854 52.8371 248.835 52.8209 248.822 52.8023C248.808 52.7837 248.794 52.7628 248.78 52.7396C248.77 52.7118 248.761 52.6862 248.752 52.663C248.743 52.6398 248.736 52.6166 248.731 52.5934C248.722 52.5702 248.717 52.5493 248.717 52.5307C248.717 52.5075 248.717 52.4866 248.717 52.4681V50.5671L248.564 50.3304L247.659 49.0491L247.582 48.9238C247.554 48.882 247.519 48.8333 247.478 48.7776C247.44 48.7265 247.408 48.6708 247.38 48.6105C247.362 48.5826 247.345 48.5547 247.331 48.5269C247.322 48.4944 247.313 48.4619 247.304 48.4294C247.29 48.383 247.287 48.3366 247.297 48.2901C247.311 48.2298 247.338 48.1787 247.38 48.137C247.427 48.0952 247.475 48.0627 247.526 48.0395C247.591 47.9931 247.666 47.9745 247.749 47.9838C247.8 47.9838 247.844 47.9931 247.881 48.0116C247.919 48.0302 247.956 48.0511 247.993 48.0743C248.035 48.1068 248.074 48.1416 248.111 48.1787C248.153 48.2159 248.19 48.2553 248.223 48.2971C248.26 48.3435 248.295 48.3876 248.327 48.4294C248.36 48.4665 248.392 48.5106 248.425 48.5617L248.446 48.5896C248.557 48.7381 248.661 48.882 248.759 49.0213C248.856 49.1559 248.958 49.3021 249.065 49.46C249.075 49.4692 249.088 49.4878 249.107 49.5157C249.126 49.5435 249.146 49.576 249.17 49.6132C249.188 49.5807 249.204 49.5528 249.218 49.5296C249.237 49.5017 249.251 49.4832 249.26 49.4739C249.367 49.3161 249.469 49.1675 249.567 49.0282C249.664 48.889 249.769 48.7451 249.88 48.5965L249.894 48.5687C249.931 48.5269 249.963 48.4851 249.991 48.4433C250.024 48.3969 250.059 48.3505 250.096 48.3041C250.156 48.2205 250.237 48.1486 250.339 48.0882C250.414 48.0372 250.49 48.0047 250.569 47.9907C250.657 47.9814 250.734 48 250.799 48.0464C250.827 48.065 250.852 48.0813 250.876 48.0952C250.904 48.1091 250.927 48.1254 250.945 48.1439C250.982 48.1857 251.013 48.2368 251.036 48.2971Z" fill="white"/>
<path d="M246.784 52.4555C246.788 52.4833 246.791 52.5112 246.791 52.539C246.795 52.5622 246.798 52.5901 246.798 52.6226C246.798 52.6783 246.781 52.7293 246.749 52.7758C246.735 52.799 246.716 52.8222 246.693 52.8454C246.67 52.864 246.642 52.8802 246.61 52.8941C246.493 52.9591 246.37 52.9823 246.24 52.9638C246.175 52.9452 246.117 52.915 246.066 52.8732C246.057 52.864 246.05 52.8593 246.045 52.8593C246.041 52.8547 246.036 52.8477 246.032 52.8384C246.027 52.8338 246.022 52.8291 246.018 52.8245C246.013 52.8152 246.006 52.8083 245.997 52.8036C245.974 52.7804 245.955 52.7595 245.941 52.7409C245.927 52.7177 245.913 52.6945 245.899 52.6713C245.89 52.6481 245.878 52.6272 245.864 52.6086C245.855 52.5854 245.844 52.5622 245.83 52.539C245.82 52.5204 245.811 52.5042 245.802 52.4903C245.792 52.4717 245.786 52.4531 245.781 52.4346C245.762 52.3928 245.751 52.3557 245.746 52.3232L245.6 51.982C245.28 51.982 244.959 51.9843 244.639 51.9889C244.323 51.9889 244.005 51.9866 243.685 51.982L243.539 52.3232C243.529 52.3417 243.522 52.3603 243.518 52.3789C243.518 52.3974 243.513 52.416 243.504 52.4346C243.495 52.4531 243.485 52.4717 243.476 52.4903C243.471 52.5042 243.464 52.5204 243.455 52.539C243.441 52.5622 243.427 52.5854 243.413 52.6086C243.404 52.6272 243.393 52.6481 243.379 52.6713C243.369 52.6945 243.358 52.7177 243.344 52.7409C243.33 52.7595 243.311 52.7804 243.288 52.8036C243.279 52.8083 243.272 52.8152 243.267 52.8245C243.263 52.8291 243.258 52.8338 243.253 52.8384C243.249 52.8477 243.244 52.8547 243.239 52.8593C243.235 52.8593 243.228 52.864 243.218 52.8732C243.167 52.915 243.109 52.9452 243.044 52.9638C242.914 52.9823 242.791 52.9591 242.675 52.8941C242.643 52.8802 242.615 52.864 242.592 52.8454C242.569 52.8222 242.55 52.799 242.536 52.7758C242.504 52.7293 242.487 52.6783 242.487 52.6226C242.487 52.5901 242.487 52.5622 242.487 52.539C242.492 52.5112 242.497 52.4833 242.501 52.4555C242.511 52.4137 242.522 52.3719 242.536 52.3301C242.55 52.2883 242.557 52.2675 242.557 52.2675L244.005 48.7023L244.047 48.5909C244.056 48.563 244.068 48.5375 244.082 48.5143C244.096 48.4911 244.107 48.4632 244.117 48.4307C244.14 48.3704 244.165 48.317 244.193 48.2706C244.207 48.2427 244.223 48.2172 244.242 48.194C244.261 48.1708 244.279 48.1476 244.298 48.1244C244.326 48.0872 244.365 48.057 244.416 48.0338C244.481 48.0106 244.555 47.999 244.639 47.999C244.727 47.999 244.804 48.0106 244.869 48.0338C244.92 48.057 244.959 48.0872 244.987 48.1244C245.02 48.1661 245.054 48.2149 245.092 48.2706C245.119 48.317 245.145 48.3704 245.168 48.4307C245.177 48.4632 245.189 48.4911 245.203 48.5143C245.217 48.5375 245.228 48.563 245.238 48.5909L245.28 48.7023L246.728 52.2675C246.728 52.2675 246.735 52.2883 246.749 52.3301C246.763 52.3719 246.774 52.4137 246.784 52.4555ZM245.133 50.7495C245.073 50.6149 245.01 50.4756 244.945 50.3317C244.885 50.1878 244.82 50.0416 244.75 49.893C244.732 49.8512 244.713 49.8094 244.695 49.7677C244.676 49.7212 244.657 49.6771 244.639 49.6354C244.625 49.6771 244.609 49.7212 244.59 49.7677C244.572 49.8094 244.553 49.8512 244.534 49.893C244.465 50.0416 244.398 50.1878 244.333 50.3317C244.272 50.4756 244.212 50.6149 244.152 50.7495L244.026 51.0559H245.259L245.133 50.7495Z" fill="white"/>
<path d="M241.294 52.4273C241.29 52.483 241.283 52.541 241.273 52.6013C241.264 52.6617 241.248 52.7174 241.225 52.7685C241.201 52.8242 241.171 52.8659 241.134 52.8938C241.083 52.9402 241.023 52.9658 240.953 52.9704C240.888 52.9936 240.825 53.0006 240.765 52.9913C240.705 52.982 240.649 52.9658 240.598 52.9425C240.533 52.9008 240.484 52.852 240.452 52.7963C240.424 52.736 240.403 52.6733 240.389 52.6083C240.375 52.5433 240.368 52.476 240.368 52.4064C240.368 52.3367 240.368 52.2718 240.368 52.2114V51.6683L240.361 50.6029C240.361 50.5286 240.361 50.4706 240.361 50.4288C240.361 50.3871 240.361 50.3499 240.361 50.3174C240.361 50.2803 240.359 50.2408 240.354 50.199C240.354 50.1526 240.354 50.0876 240.354 50.0041C240.354 49.9902 240.354 49.9669 240.354 49.9344C240.359 49.8973 240.357 49.8021 240.347 49.649C240.166 49.9507 240.015 50.1944 239.895 50.3801C239.779 50.5611 239.679 50.7027 239.595 50.8048C239.516 50.9023 239.447 50.9696 239.386 51.0068C239.326 51.0393 239.263 51.0578 239.198 51.0625C239.161 51.0671 239.124 51.0602 239.087 51.0416C239.05 51.023 239.013 50.9998 238.976 50.972C238.943 50.9441 238.911 50.9163 238.878 50.8884C238.85 50.8559 238.827 50.8257 238.808 50.7979C238.697 50.6586 238.572 50.4915 238.432 50.2965C238.293 50.1016 238.149 49.8648 238.001 49.5863C238.001 49.5909 237.998 49.6675 237.994 49.8161C237.994 49.9646 237.994 50.1503 237.994 50.3731C237.994 50.5913 237.991 50.8281 237.987 51.0834C237.987 51.334 237.984 51.5685 237.98 51.7867C237.98 52.0048 237.977 52.1882 237.973 52.3367C237.968 52.4806 237.964 52.5526 237.959 52.5526C237.959 52.6315 237.94 52.7058 237.903 52.7754C237.866 52.8404 237.815 52.8938 237.75 52.9356C237.69 52.9774 237.618 53.0006 237.534 53.0052C237.451 53.0099 237.36 52.9866 237.263 52.9356C237.202 52.8984 237.156 52.8451 237.123 52.7754C237.095 52.7058 237.077 52.6408 237.068 52.5805C237.063 52.5155 237.058 52.4528 237.054 52.3924C237.054 52.3321 237.054 52.2694 237.054 52.2044L237.061 51.6613L237.068 50.589V49.6559C237.068 49.2521 237.082 48.8552 237.109 48.4652C237.109 48.4142 237.114 48.3677 237.123 48.326C237.137 48.2795 237.154 48.2354 237.172 48.1937C237.209 48.1194 237.258 48.0637 237.318 48.0265C237.388 47.9848 237.462 47.9639 237.541 47.9639C237.574 47.9639 237.604 47.9662 237.632 47.9708C237.664 47.9708 237.694 47.9732 237.722 47.9778C237.815 47.9964 237.894 48.0521 237.959 48.1449C238.029 48.2331 238.094 48.3097 238.154 48.3747C238.191 48.4165 238.23 48.4675 238.272 48.5279C238.314 48.5882 238.356 48.6509 238.398 48.7159C238.439 48.7809 238.479 48.8435 238.516 48.9039C238.553 48.9642 238.586 49.0176 238.613 49.064C238.734 49.259 238.841 49.4377 238.934 49.6002C239.031 49.7627 239.122 49.902 239.205 50.018C239.219 50.0041 239.236 49.9855 239.254 49.9623C239.273 49.9344 239.291 49.9066 239.31 49.8787C239.333 49.8462 239.352 49.8161 239.365 49.7882C239.384 49.7604 239.398 49.7372 239.407 49.7186C239.454 49.6443 239.5 49.5724 239.547 49.5027C239.593 49.4285 239.642 49.3519 239.693 49.2729C239.748 49.1894 239.804 49.0989 239.86 49.0014C239.92 48.9039 239.99 48.7925 240.069 48.6671C240.101 48.6114 240.143 48.5441 240.194 48.4652C240.245 48.3863 240.303 48.3097 240.368 48.2354C240.433 48.1612 240.5 48.0985 240.57 48.0474C240.644 47.9917 240.719 47.9639 240.793 47.9639C240.83 47.9639 240.863 47.9662 240.89 47.9708C240.918 47.9708 240.946 47.9732 240.974 47.9778C241.03 47.9824 241.083 48.008 241.134 48.0544C241.171 48.0915 241.199 48.131 241.218 48.1728C241.236 48.2331 241.248 48.2842 241.253 48.326C241.257 48.3584 241.259 48.3886 241.259 48.4165C241.264 48.4443 241.266 48.4722 241.266 48.5C241.266 48.76 241.269 49.0176 241.273 49.2729C241.278 49.5283 241.28 49.7859 241.28 50.0459C241.28 50.3615 241.28 50.6865 241.28 51.0207C241.285 51.3549 241.287 51.6799 241.287 51.9955C241.287 52.0605 241.29 52.1302 241.294 52.2044C241.299 52.2787 241.299 52.353 241.294 52.4273Z" fill="white"/>
<line x1="31" y1="74.5" x2="153" y2="74.5" stroke="url(#paint0_linear_1671_7531)"/>
<line x1="149" y1="74.5" x2="260" y2="74.5" stroke="url(#paint1_linear_1671_7531)" stroke-dasharray="2 2"/>
<circle cx="33" cy="74" r="3" fill="#6ED904"/>
<ellipse cx="259.5" cy="74" rx="2.5" ry="3" fill="#FC2CDB"/>
<defs>
<linearGradient id="paint0_linear_1671_7531" x1="31" y1="75" x2="298.897" y2="75" gradientUnits="userSpaceOnUse">
<stop stop-color="#31FF2D"/>
<stop offset="1" stop-color="#E11690"/>
</linearGradient>
<linearGradient id="paint1_linear_1671_7531" x1="38.5187" y1="75.0001" x2="260" y2="74.9999" gradientUnits="userSpaceOnUse">
<stop stop-color="#31FF2D"/>
<stop offset="1" stop-color="#E11690"/>
</linearGradient>
</defs>
</svg>
