<svg width="292" height="103" viewBox="0 0 292 103" fill="none" xmlns="http://www.w3.org/2000/svg">
<g clip-path="url(#clip0_1671_7742)">
<rect width="292" height="102.768" fill="#1D1D26"/>
<path d="M44.1577 57.3025H21.7501C19.8462 57.3025 18.3027 55.7591 18.3027 53.8552V50.9824H47.6051V53.8552C47.6051 55.7591 46.0616 57.3025 44.1577 57.3025Z" fill="#D3DCFB"/>
<path d="M21.7504 56.1534C20.4831 56.1534 19.4521 55.1224 19.4521 53.8552V50.9824H46.4563V53.8552C46.4563 55.1224 45.4253 56.1534 44.158 56.1534H21.7504Z" fill="#6A0DB4"/>
<path d="M44.1577 30.2988H21.7501C19.8492 30.2988 18.3027 31.8453 18.3027 33.7462V51.5574C18.3027 53.4582 19.8492 55.0047 21.7501 55.0047H44.1577C46.0586 55.0047 47.6051 53.4582 47.6051 51.5574C47.6051 51.1568 47.6051 34.2625 47.6051 33.7462C47.6051 31.8453 46.0586 30.2988 44.1577 30.2988Z" fill="#EBF5FC"/>
<path d="M21.7504 53.8547C20.4811 53.8547 19.4521 52.8257 19.4521 51.5564V46.3854C19.4521 45.7508 19.9666 45.2363 20.6013 45.2363H45.3071C45.9418 45.2363 46.4563 45.7508 46.4563 46.3854V51.5564C46.4563 52.8257 45.4273 53.8547 44.158 53.8547H21.7504Z" fill="#A12BFF"/>
<path d="M24.6227 33.7455C25.2574 33.7455 25.7719 33.231 25.7719 32.5964C25.7719 31.9617 25.2574 31.4473 24.6227 31.4473C23.9881 31.4473 23.4736 31.9617 23.4736 32.5964C23.4736 33.231 23.9881 33.7455 24.6227 33.7455Z" fill="#AAB9E5"/>
<path d="M24.6236 33.171C24.1476 33.171 23.7617 32.7851 23.7617 32.3092V28.8618C23.7617 28.3859 24.1476 28 24.6236 28C25.0995 28 25.4854 28.3859 25.4854 28.8618V32.3092C25.4854 32.7851 25.0995 33.171 24.6236 33.171Z" fill="#D3DCFB"/>
<path d="M41.2849 33.7455C41.9195 33.7455 42.434 33.231 42.434 32.5964C42.434 31.9617 41.9195 31.4473 41.2849 31.4473C40.6502 31.4473 40.1357 31.9617 40.1357 32.5964C40.1357 33.231 40.6502 33.7455 41.2849 33.7455Z" fill="#AAB9E5"/>
<path d="M41.2847 33.171C40.8087 33.171 40.4229 32.7851 40.4229 32.3092V28.8618C40.4229 28.3859 40.8087 28 41.2847 28C41.7606 28 42.1465 28.3859 42.1465 28.8618V32.3092C42.1465 32.7851 41.7606 33.171 41.2847 33.171Z" fill="#D3DCFB"/>
<path d="M32.9538 33.7455C33.5884 33.7455 34.1029 33.231 34.1029 32.5964C34.1029 31.9617 33.5884 31.4473 32.9538 31.4473C32.3192 31.4473 31.8047 31.9617 31.8047 32.5964C31.8047 33.231 32.3192 33.7455 32.9538 33.7455Z" fill="#AAB9E5"/>
<path d="M32.9536 33.171C32.4777 33.171 32.0918 32.7851 32.0918 32.3092V28.8618C32.0918 28.3859 32.4777 28 32.9536 28C33.4296 28 33.8155 28.3859 33.8155 28.8618V32.3092C33.8155 32.7851 33.4296 33.171 32.9536 33.171Z" fill="#D3DCFB"/>
<path d="M35.2523 42.9389C36.5196 42.9389 37.5505 41.908 37.5505 40.6407V37.7679C37.5505 36.5007 36.5196 35.4697 35.2523 35.4697C33.9851 35.4697 32.9541 36.5007 32.9541 37.7679V40.6407C32.9541 41.908 33.9851 42.9389 35.2523 42.9389ZM34.1032 37.7679C34.1032 37.1343 34.6187 36.6188 35.2523 36.6188C35.8859 36.6188 36.4014 37.1343 36.4014 37.7679V40.6407C36.4014 41.2743 35.8859 41.7898 35.2523 41.7898C34.6187 41.7898 34.1032 41.2743 34.1032 40.6407V37.7679Z" fill="#252A3F"/>
<path d="M29.2767 38.2273L30.6557 37.1931V42.3641C30.6557 42.6814 30.9129 42.9387 31.2302 42.9387C31.5475 42.9387 31.8048 42.6814 31.8048 42.3641V36.044C31.8048 35.5717 31.264 35.3006 30.8855 35.5844L28.5873 37.308C28.3334 37.4984 28.282 37.8586 28.4723 38.1124C28.6628 38.3662 29.0228 38.4177 29.2767 38.2273Z" fill="#252A3F"/>
<path d="M38.7914 50.6075C38.7876 50.6727 38.778 50.7416 38.7627 50.8144C38.7512 50.8872 38.7148 50.9465 38.6535 50.9925C38.6076 51.0308 38.5559 51.0538 38.4984 51.0614C38.4409 51.0691 38.3835 51.0653 38.326 51.0499C38.2724 51.0385 38.2207 51.0193 38.1709 50.9925C38.1211 50.9618 38.0809 50.9255 38.0502 50.8833C37.92 50.7224 37.7994 50.5577 37.6883 50.3892C37.581 50.2168 37.4719 50.0445 37.3608 49.8721L36.8782 49.1424C36.813 49.039 36.7441 48.9241 36.6713 48.7977C36.5985 48.6675 36.5238 48.5468 36.4472 48.4357L36.43 50.6305V50.6822C36.43 50.7435 36.4185 50.8048 36.3955 50.8661C36.3764 50.9235 36.3419 50.9733 36.2921 51.0155C36.2538 51.0461 36.204 51.0672 36.1427 51.0787C36.047 51.0978 35.9665 51.0921 35.9014 51.0614C35.8401 51.0308 35.7903 50.9887 35.752 50.935C35.7176 50.8814 35.6927 50.8201 35.6773 50.7512C35.6658 50.6784 35.6639 50.6075 35.6716 50.5386V50.4409L35.6831 49.9928L35.6888 49.1597C35.6927 49.0371 35.6946 48.9126 35.6946 48.7862C35.6946 48.656 35.6946 48.5238 35.6946 48.3898C35.6907 48.225 35.6907 48.0508 35.6946 47.8669C35.7022 47.683 35.7099 47.5107 35.7176 47.3498C35.7252 47.2617 35.7463 47.187 35.7808 47.1257C35.7961 47.0721 35.8363 47.0261 35.9014 46.9878C35.9435 46.961 35.9972 46.9438 36.0623 46.9361C36.1312 46.9285 36.1906 46.9304 36.2404 46.9419C36.2596 46.9495 36.2787 46.9591 36.2979 46.9706C36.317 46.9783 36.3362 46.9878 36.3553 46.9993C36.3745 47.0146 36.3917 47.03 36.407 47.0453C36.4262 47.0606 36.4434 47.0778 36.4587 47.097C36.4779 47.1162 36.4951 47.1372 36.5104 47.1602C36.5258 47.1794 36.5411 47.1985 36.5564 47.2177C36.5679 47.2406 36.5794 47.2617 36.5909 47.2809C36.6024 47.3 36.6158 47.3192 36.6311 47.3383L36.6943 47.4302L38.0215 49.5216V49.1424C38.0215 49.0198 38.0196 48.8954 38.0158 48.769C38.0158 48.6387 38.0139 48.5047 38.01 48.3668C38.01 48.2059 38.01 48.0335 38.01 47.8497C38.0139 47.6658 38.0196 47.4934 38.0273 47.3326C38.0273 47.2675 38.0464 47.1928 38.0847 47.1085C38.1039 47.0587 38.1364 47.0185 38.1824 46.9878C38.2284 46.9572 38.2801 46.9361 38.3375 46.9246C38.395 46.9131 38.4524 46.9131 38.5099 46.9246C38.5673 46.9361 38.6171 46.9591 38.6593 46.9936C38.6708 47.0051 38.6823 47.0185 38.6938 47.0338C38.7052 47.0491 38.7148 47.0664 38.7225 47.0855C38.7416 47.1353 38.7531 47.1794 38.757 47.2177C38.7684 47.2713 38.7742 47.3192 38.7742 47.3613C38.7742 47.8401 38.7742 48.3285 38.7742 48.8264C38.778 49.3244 38.7818 49.8127 38.7857 50.2915C38.7857 50.3452 38.7876 50.3988 38.7914 50.4524C38.7953 50.5022 38.7953 50.5539 38.7914 50.6075Z" fill="white"/>
<path d="M34.6768 50.6537C34.6807 50.6767 34.6826 50.6997 34.6826 50.7227C34.6864 50.7418 34.6883 50.7648 34.6883 50.7916C34.6883 50.8376 34.6749 50.8797 34.6481 50.918C34.6366 50.9372 34.6213 50.9563 34.6022 50.9755C34.583 50.9908 34.56 51.0042 34.5332 51.0157C34.4374 51.0693 34.3359 51.0885 34.2287 51.0731C34.1751 51.0578 34.1272 51.0329 34.0851 50.9985C34.0774 50.9908 34.0716 50.987 34.0678 50.987C34.064 50.9831 34.0602 50.9774 34.0563 50.9697C34.0525 50.9659 34.0487 50.9621 34.0448 50.9582C34.041 50.9506 34.0353 50.9448 34.0276 50.941C34.0084 50.9218 33.9931 50.9046 33.9816 50.8893C33.9701 50.8701 33.9586 50.851 33.9472 50.8318C33.9395 50.8127 33.9299 50.7954 33.9184 50.7801C33.9108 50.761 33.9012 50.7418 33.8897 50.7227C33.882 50.7073 33.8744 50.6939 33.8667 50.6824C33.8591 50.6671 33.8533 50.6518 33.8495 50.6365C33.8342 50.602 33.8246 50.5714 33.8208 50.5446L33.7001 50.263C33.4358 50.263 33.1715 50.2649 32.9072 50.2688C32.6467 50.2688 32.3844 50.2668 32.1201 50.263L31.9994 50.5446C31.9918 50.5599 31.986 50.5752 31.9822 50.5905C31.9822 50.6058 31.9783 50.6212 31.9707 50.6365C31.963 50.6518 31.9554 50.6671 31.9477 50.6824C31.9439 50.6939 31.9381 50.7073 31.9305 50.7227C31.919 50.7418 31.9075 50.761 31.896 50.7801C31.8883 50.7954 31.8788 50.8127 31.8673 50.8318C31.8596 50.851 31.85 50.8701 31.8385 50.8893C31.827 50.9046 31.8117 50.9218 31.7926 50.941C31.7849 50.9448 31.7792 50.9506 31.7753 50.9582C31.7715 50.9621 31.7677 50.9659 31.7638 50.9697C31.76 50.9774 31.7562 50.9831 31.7524 50.987C31.7485 50.987 31.7428 50.9908 31.7351 50.9985C31.693 51.0329 31.6451 51.0578 31.5915 51.0731C31.4842 51.0885 31.3827 51.0693 31.287 51.0157C31.2602 51.0042 31.2372 50.9908 31.218 50.9755C31.1989 50.9563 31.1835 50.9372 31.1721 50.918C31.1452 50.8797 31.1318 50.8376 31.1318 50.7916C31.1318 50.7648 31.1318 50.7418 31.1318 50.7227C31.1357 50.6997 31.1395 50.6767 31.1433 50.6537C31.151 50.6192 31.1606 50.5848 31.1721 50.5503C31.1835 50.5158 31.1893 50.4986 31.1893 50.4986L32.3844 47.5569L32.4188 47.4649C32.4265 47.442 32.4361 47.4209 32.4476 47.4017C32.4591 47.3826 32.4686 47.3596 32.4763 47.3328C32.4954 47.283 32.5165 47.2389 32.5395 47.2006C32.551 47.1777 32.5644 47.1566 32.5797 47.1374C32.595 47.1183 32.6104 47.0991 32.6257 47.08C32.6487 47.0493 32.6812 47.0244 32.7234 47.0053C32.777 46.9861 32.8383 46.9766 32.9072 46.9766C32.98 46.9766 33.0432 46.9861 33.0968 47.0053C33.1389 47.0244 33.1715 47.0493 33.1945 47.08C33.2213 47.1145 33.25 47.1547 33.2807 47.2006C33.3037 47.2389 33.3247 47.283 33.3439 47.3328C33.3515 47.3596 33.3611 47.3826 33.3726 47.4017C33.3841 47.4209 33.3937 47.442 33.4013 47.4649L33.4358 47.5569L34.6309 50.4986C34.6309 50.4986 34.6366 50.5158 34.6481 50.5503C34.6596 50.5848 34.6692 50.6192 34.6768 50.6537ZM33.3151 49.2461C33.2654 49.135 33.2136 49.0201 33.16 48.9013C33.1102 48.7826 33.0566 48.6619 32.9991 48.5394C32.9838 48.5049 32.9685 48.4704 32.9532 48.4359C32.9379 48.3976 32.9225 48.3612 32.9072 48.3268C32.8957 48.3612 32.8823 48.3976 32.867 48.4359C32.8517 48.4704 32.8364 48.5049 32.821 48.5394C32.7636 48.6619 32.708 48.7826 32.6544 48.9013C32.6046 49.0201 32.5548 49.135 32.505 49.2461L32.4016 49.4989H33.4186L33.3151 49.2461Z" fill="white"/>
<path d="M30.6987 47.1199C30.737 47.1697 30.7561 47.2194 30.7561 47.2692C30.76 47.2922 30.76 47.321 30.7561 47.3554C30.7561 47.3899 30.7542 47.4167 30.7504 47.4359C30.7389 47.4742 30.7121 47.5125 30.6699 47.5508C30.6585 47.5623 30.6451 47.5738 30.6297 47.5852C30.6144 47.5929 30.5953 47.6006 30.5723 47.6082C30.5493 47.6159 30.5263 47.6216 30.5033 47.6255C30.4803 47.6255 30.4554 47.6274 30.4286 47.6312C30.4018 47.635 30.3769 47.6389 30.3539 47.6427C30.331 47.6427 30.3061 47.6427 30.2793 47.6427H29.9518V47.7404C29.9479 48.0851 29.9537 48.4298 29.969 48.7746C29.9881 49.1193 29.9862 49.464 29.9632 49.8088C29.9518 49.9237 29.9345 50.0424 29.9115 50.165C29.8886 50.2837 29.8502 50.3967 29.7966 50.504C29.7468 50.6074 29.6798 50.7032 29.5955 50.7913C29.5113 50.8794 29.404 50.9483 29.2738 50.9981C29.1512 51.0441 29.0171 51.0766 28.8716 51.0958C28.726 51.1149 28.5786 51.1169 28.4292 51.1015C28.2836 51.0862 28.1438 51.0536 28.0098 51.0039C27.8757 50.9541 27.7627 50.8851 27.6708 50.797C27.621 50.7511 27.575 50.6955 27.5329 50.6304C27.4907 50.5614 27.462 50.4906 27.4467 50.4178C27.4314 50.3412 27.4352 50.2684 27.4582 50.1995C27.4812 50.1267 27.5348 50.0673 27.6191 50.0214C27.6918 49.9792 27.757 49.9697 27.8144 49.9926C27.8757 50.0156 27.9331 50.052 27.9868 50.1018C28.0442 50.1516 28.1017 50.2033 28.1591 50.2569C28.2204 50.3106 28.2875 50.345 28.3602 50.3604C28.5173 50.3987 28.6456 50.4006 28.7452 50.3661C28.8448 50.3278 28.9233 50.2684 28.9808 50.188C29.0382 50.1075 29.0784 50.0099 29.1014 49.895C29.1282 49.7801 29.1435 49.6632 29.1474 49.5445C29.155 49.4257 29.157 49.3108 29.1531 49.1998C29.1493 49.0887 29.1493 48.9948 29.1531 48.9182C29.157 48.7152 29.157 48.516 29.1531 48.3207C29.1493 48.1253 29.1474 47.9262 29.1474 47.7231V47.7002C29.1512 47.6925 29.1531 47.681 29.1531 47.6657H29.1359C29.1129 47.6619 29.065 47.6599 28.9922 47.6599C28.9195 47.6561 28.8409 47.6542 28.7567 47.6542C28.6724 47.6542 28.592 47.6542 28.5154 47.6542C28.4426 47.6504 28.3947 47.6485 28.3717 47.6485H28.2913V47.6427C28.2606 47.6389 28.23 47.6331 28.1994 47.6255C28.1687 47.6178 28.1381 47.6101 28.1074 47.6025C28.0347 47.5795 27.9791 47.5431 27.9408 47.4933C27.9217 47.4742 27.9063 47.4435 27.8948 47.4014C27.8872 47.3593 27.8834 47.3229 27.8834 47.2922C27.8834 47.2731 27.8834 47.252 27.8834 47.229C27.8834 47.206 27.8872 47.185 27.8948 47.1658C27.9025 47.1237 27.9293 47.0854 27.9753 47.0509C28.0059 47.0279 28.0423 47.0107 28.0844 46.9992C28.1113 46.9915 28.1381 46.9858 28.1649 46.982C28.1917 46.9781 28.2204 46.9743 28.2511 46.9705C28.2779 46.9666 28.3047 46.9647 28.3315 46.9647C28.3583 46.9647 28.387 46.9647 28.4177 46.9647H28.9693C28.9922 46.9647 29.0191 46.9647 29.0497 46.9647C29.0803 46.9647 29.1148 46.9628 29.1531 46.959C29.3025 46.959 29.45 46.959 29.5955 46.959C29.7411 46.959 29.8828 46.9609 30.0207 46.9647H30.0552C30.0973 46.9647 30.1375 46.9666 30.1758 46.9705C30.218 46.9705 30.2601 46.9705 30.3022 46.9705C30.3903 46.9743 30.4727 46.9915 30.5493 47.0222C30.6106 47.0375 30.6604 47.0701 30.6987 47.1199Z" fill="white"/>
<g opacity="0.45">
<path d="M263.925 57.3025H241.518C239.614 57.3025 238.07 55.7591 238.07 53.8552V50.9824H267.373V53.8552C267.373 55.7591 265.829 57.3025 263.925 57.3025Z" fill="#D3DCFB"/>
<path d="M241.518 56.1534C240.251 56.1534 239.22 55.1224 239.22 53.8552V50.9824H266.224V53.8552C266.224 55.1224 265.193 56.1534 263.926 56.1534H241.518Z" fill="#6A0DB4"/>
<path d="M263.925 30.2988H241.518C239.617 30.2988 238.07 31.8453 238.07 33.7462V51.5574C238.07 53.4582 239.617 55.0047 241.518 55.0047H263.925C265.826 55.0047 267.373 53.4582 267.373 51.5574C267.373 51.1568 267.373 34.2625 267.373 33.7462C267.373 31.8453 265.826 30.2988 263.925 30.2988Z" fill="#EBF5FC"/>
<path d="M241.518 53.8547C240.249 53.8547 239.22 52.8257 239.22 51.5564V46.3854C239.22 45.7508 239.734 45.2363 240.369 45.2363H265.075C265.709 45.2363 266.224 45.7508 266.224 46.3854V51.5564C266.224 52.8257 265.195 53.8547 263.926 53.8547H241.518Z" fill="#A12BFF"/>
<path d="M244.39 33.7455C245.025 33.7455 245.539 33.231 245.539 32.5964C245.539 31.9617 245.025 31.4473 244.39 31.4473C243.756 31.4473 243.241 31.9617 243.241 32.5964C243.241 33.231 243.756 33.7455 244.39 33.7455Z" fill="#AAB9E5"/>
<path d="M244.39 33.171C243.914 33.171 243.528 32.7851 243.528 32.3092V28.8618C243.528 28.3859 243.914 28 244.39 28C244.866 28 245.252 28.3859 245.252 28.8618V32.3092C245.252 32.7851 244.866 33.171 244.39 33.171Z" fill="#D3DCFB"/>
<path d="M261.052 33.7455C261.687 33.7455 262.202 33.231 262.202 32.5964C262.202 31.9617 261.687 31.4473 261.052 31.4473C260.418 31.4473 259.903 31.9617 259.903 32.5964C259.903 33.231 260.418 33.7455 261.052 33.7455Z" fill="#AAB9E5"/>
<path d="M261.052 33.171C260.576 33.171 260.19 32.7851 260.19 32.3092V28.8618C260.19 28.3859 260.576 28 261.052 28C261.528 28 261.914 28.3859 261.914 28.8618V32.3092C261.914 32.7851 261.528 33.171 261.052 33.171Z" fill="#D3DCFB"/>
<path d="M252.721 33.7455C253.356 33.7455 253.87 33.231 253.87 32.5964C253.87 31.9617 253.356 31.4473 252.721 31.4473C252.087 31.4473 251.572 31.9617 251.572 32.5964C251.572 33.231 252.087 33.7455 252.721 33.7455Z" fill="#AAB9E5"/>
<path d="M252.721 33.171C252.245 33.171 251.859 32.7851 251.859 32.3092V28.8618C251.859 28.3859 252.245 28 252.721 28C253.197 28 253.583 28.3859 253.583 28.8618V32.3092C253.583 32.7851 253.197 33.171 252.721 33.171Z" fill="#D3DCFB"/>
<path d="M255.02 42.9389C256.287 42.9389 257.318 41.908 257.318 40.6407V37.7679C257.318 36.5007 256.287 35.4697 255.02 35.4697C253.753 35.4697 252.722 36.5007 252.722 37.7679V40.6407C252.722 41.908 253.753 42.9389 255.02 42.9389ZM253.871 37.7679C253.871 37.1343 254.386 36.6188 255.02 36.6188C255.654 36.6188 256.169 37.1343 256.169 37.7679V40.6407C256.169 41.2743 255.654 41.7898 255.02 41.7898C254.386 41.7898 253.871 41.2743 253.871 40.6407V37.7679Z" fill="#252A3F"/>
<path d="M249.044 38.2273L250.423 37.1931V42.3641C250.423 42.6814 250.681 42.9387 250.998 42.9387C251.315 42.9387 251.572 42.6814 251.572 42.3641V36.044C251.572 35.5717 251.032 35.3006 250.653 35.5844L248.355 37.308C248.101 37.4984 248.05 37.8586 248.24 38.1124C248.43 38.3662 248.79 38.4177 249.044 38.2273Z" fill="#252A3F"/>
<path d="M259 50.6061C259.008 50.6253 259.012 50.654 259.012 50.6923C259.012 50.7268 259.012 50.7555 259.012 50.7785C259.012 50.8092 259.006 50.8379 258.995 50.8647C258.983 50.8915 258.968 50.9164 258.949 50.9394C258.914 50.9853 258.864 51.0198 258.799 51.0428C258.707 51.0734 258.621 51.0888 258.541 51.0888C258.499 51.0926 258.454 51.0945 258.409 51.0945C258.363 51.0945 258.317 51.0983 258.271 51.106H258.248C257.953 51.1098 257.648 51.1098 257.334 51.106C257.258 51.1022 257.171 51.1022 257.076 51.106C256.98 51.1137 256.886 51.1117 256.794 51.1003C256.702 51.0926 256.618 51.0715 256.541 51.0371C256.468 50.9988 256.417 50.9394 256.386 50.8589C256.378 50.8398 256.373 50.8226 256.369 50.8072C256.365 50.7881 256.363 50.7689 256.363 50.7498C256.348 50.6195 256.342 50.4912 256.346 50.3648C256.35 50.2384 256.352 50.1139 256.352 49.9914L256.363 49.1583V48.3884C256.363 48.2505 256.363 48.1279 256.363 48.0206C256.367 47.9134 256.371 47.7946 256.375 47.6644V47.6357C256.378 47.5974 256.38 47.5591 256.38 47.5208C256.384 47.4825 256.386 47.4442 256.386 47.4059C256.394 47.3178 256.415 47.2431 256.449 47.1818C256.472 47.1243 256.512 47.0784 256.57 47.0439C256.62 47.0094 256.679 46.9922 256.748 46.9922C256.775 46.9922 256.8 46.9941 256.823 46.9979C256.85 46.9979 256.874 46.9998 256.897 47.0037C256.92 47.0075 256.941 47.0152 256.961 47.0267C256.984 47.0382 257.007 47.0535 257.03 47.0726C257.053 47.0994 257.074 47.132 257.093 47.1703C257.108 47.2124 257.118 47.2546 257.122 47.2967C257.125 47.3235 257.129 47.3484 257.133 47.3714C257.137 47.3944 257.139 47.4174 257.139 47.4403C257.131 47.4633 257.127 47.4863 257.127 47.5093C257.127 47.5323 257.127 47.5533 257.127 47.5725V47.6759L257.104 50.3821L258.242 50.3936H258.512C258.535 50.3936 258.56 50.3955 258.587 50.3993C258.613 50.3993 258.64 50.4012 258.667 50.405C258.698 50.4089 258.725 50.4127 258.748 50.4165C258.77 50.4204 258.793 50.4261 258.816 50.4338C258.859 50.4453 258.893 50.4644 258.92 50.4912C258.962 50.5295 258.989 50.5678 259 50.6061Z" fill="white"/>
<path d="M255.211 47.2918C255.234 47.4756 255.248 47.6901 255.252 47.9353C255.255 48.1766 255.252 48.4217 255.24 48.6707C255.232 48.9158 255.215 49.1495 255.188 49.3717C255.161 49.59 255.129 49.7662 255.091 49.9003C255.064 49.9807 255.031 50.065 254.993 50.1531C254.958 50.2373 254.92 50.3139 254.878 50.3829C254.817 50.4863 254.742 50.5782 254.654 50.6587C254.566 50.7353 254.468 50.8023 254.361 50.8598C254.258 50.9134 254.146 50.9555 254.028 50.9862C253.913 51.0168 253.798 51.034 253.683 51.0379C253.48 51.0455 253.287 51.0168 253.103 50.9517C252.923 50.8827 252.756 50.7755 252.603 50.6299C252.488 50.5189 252.396 50.4001 252.327 50.2737C252.258 50.1473 252.204 50.0152 252.166 49.8773C252.128 49.7355 252.103 49.59 252.091 49.4406C252.084 49.2912 252.08 49.138 252.08 48.981C252.08 48.9082 252.078 48.8182 252.074 48.7109C252.074 48.5998 252.074 48.4868 252.074 48.3719C252.074 48.2532 252.074 48.1383 252.074 48.0272C252.074 47.9161 252.076 47.8223 252.08 47.7457C252.08 47.6959 252.08 47.6423 252.08 47.5848C252.08 47.5235 252.082 47.4641 252.086 47.4067C252.093 47.3454 252.105 47.2879 252.12 47.2343C252.136 47.1769 252.158 47.1252 252.189 47.0792C252.224 47.0294 252.271 46.993 252.333 46.97C252.394 46.947 252.457 46.9355 252.522 46.9355C252.591 46.9355 252.656 46.949 252.718 46.9758C252.779 47.0026 252.829 47.0409 252.867 47.0907C252.886 47.1213 252.9 47.152 252.907 47.1826C252.915 47.2132 252.921 47.2477 252.925 47.286C252.932 47.4124 252.936 47.5561 252.936 47.7169C252.94 47.8778 252.94 48.0349 252.936 48.1881C252.936 48.3375 252.934 48.4754 252.93 48.6018C252.926 48.7282 252.925 48.822 252.925 48.8833C252.925 49.1131 252.936 49.3219 252.959 49.5096C252.982 49.6934 253.036 49.8466 253.12 49.9692C253.197 50.0803 253.287 50.1511 253.39 50.1818C253.493 50.2124 253.597 50.222 253.7 50.2105C253.796 50.199 253.892 50.1645 253.987 50.1071C254.087 50.0458 254.166 49.9577 254.223 49.8428C254.246 49.8007 254.265 49.7528 254.281 49.6992C254.296 49.6455 254.307 49.5957 254.315 49.5498C254.33 49.4042 254.344 49.2357 254.355 49.0442C254.367 48.8488 254.376 48.6496 254.384 48.4466C254.392 48.2436 254.395 48.0444 254.395 47.8491C254.395 47.6537 254.394 47.4775 254.39 47.3205C254.397 47.2516 254.418 47.1884 254.453 47.1309C254.484 47.0811 254.528 47.0371 254.585 46.9987C254.642 46.9604 254.721 46.9413 254.821 46.9413C254.901 46.9451 254.966 46.9662 255.016 47.0045C255.066 47.039 255.106 47.0773 255.137 47.1194C255.171 47.1692 255.196 47.2267 255.211 47.2918Z" fill="white"/>
<path d="M251.069 47.1189C251.107 47.1687 251.126 47.2185 251.126 47.2683C251.13 47.2912 251.13 47.32 251.126 47.3545C251.126 47.3889 251.124 47.4157 251.121 47.4349C251.109 47.4732 251.082 47.5115 251.04 47.5498C251.029 47.5613 251.015 47.5728 251 47.5843C250.985 47.5919 250.965 47.5996 250.942 47.6073C250.919 47.6149 250.896 47.6207 250.873 47.6245C250.85 47.6245 250.826 47.6264 250.799 47.6302C250.772 47.6341 250.747 47.6379 250.724 47.6417C250.701 47.6417 250.676 47.6417 250.649 47.6417H250.322V47.7394C250.318 48.0841 250.324 48.4289 250.339 48.7736C250.358 49.1183 250.356 49.4631 250.333 49.8078C250.322 49.9227 250.305 50.0415 250.282 50.164C250.259 50.2828 250.22 50.3958 250.167 50.503C250.117 50.6064 250.05 50.7022 249.966 50.7903C249.881 50.8784 249.774 50.9473 249.644 50.9971C249.521 51.0431 249.387 51.0757 249.242 51.0948C249.096 51.114 248.949 51.1159 248.799 51.1006C248.654 51.0852 248.514 51.0527 248.38 51.0029C248.246 50.9531 248.133 50.8841 248.041 50.796C247.991 50.7501 247.945 50.6945 247.903 50.6294C247.861 50.5605 247.832 50.4896 247.817 50.4168C247.801 50.3402 247.805 50.2674 247.828 50.1985C247.851 50.1257 247.905 50.0664 247.989 50.0204C248.062 49.9783 248.127 49.9687 248.185 49.9917C248.246 50.0146 248.303 50.051 248.357 50.1008C248.414 50.1506 248.472 50.2023 248.529 50.256C248.591 50.3096 248.658 50.3441 248.73 50.3594C248.887 50.3977 249.016 50.3996 249.115 50.3651C249.215 50.3268 249.293 50.2674 249.351 50.187C249.408 50.1066 249.449 50.0089 249.472 49.894C249.498 49.7791 249.514 49.6622 249.517 49.5435C249.525 49.4248 249.527 49.3099 249.523 49.1988C249.519 49.0877 249.519 48.9938 249.523 48.9172C249.527 48.7142 249.527 48.5151 249.523 48.3197C249.519 48.1244 249.517 47.9252 249.517 47.7222V47.6992C249.521 47.6915 249.523 47.68 249.523 47.6647H249.506C249.483 47.6609 249.435 47.659 249.362 47.659C249.29 47.6551 249.211 47.6532 249.127 47.6532C249.043 47.6532 248.962 47.6532 248.885 47.6532C248.813 47.6494 248.765 47.6475 248.742 47.6475H248.661V47.6417C248.631 47.6379 248.6 47.6322 248.569 47.6245C248.539 47.6168 248.508 47.6092 248.478 47.6015C248.405 47.5785 248.349 47.5421 248.311 47.4923C248.292 47.4732 248.276 47.4425 248.265 47.4004C248.257 47.3583 248.253 47.3219 248.253 47.2912C248.253 47.2721 248.253 47.251 248.253 47.228C248.253 47.2051 248.257 47.184 248.265 47.1648C248.273 47.1227 248.299 47.0844 248.345 47.0499C248.376 47.027 248.412 47.0097 248.455 46.9982C248.481 46.9906 248.508 46.9848 248.535 46.981C248.562 46.9772 248.591 46.9733 248.621 46.9695C248.648 46.9657 248.675 46.9638 248.702 46.9638C248.728 46.9638 248.757 46.9638 248.788 46.9638H249.339C249.362 46.9638 249.389 46.9638 249.42 46.9638C249.45 46.9638 249.485 46.9618 249.523 46.958C249.673 46.958 249.82 46.958 249.966 46.958C250.111 46.958 250.253 46.9599 250.391 46.9638H250.425C250.467 46.9638 250.508 46.9657 250.546 46.9695C250.588 46.9695 250.63 46.9695 250.672 46.9695C250.76 46.9733 250.843 46.9906 250.919 47.0212C250.981 47.0365 251.03 47.0691 251.069 47.1189Z" fill="white"/>
</g>
<g opacity="0.3">
<path d="M300.552 57.3025H278.145C276.241 57.3025 274.697 55.7591 274.697 53.8552V50.9824H304V53.8552C304 55.7591 302.456 57.3025 300.552 57.3025Z" fill="#D3DCFB"/>
<path d="M278.145 56.1534C276.878 56.1534 275.847 55.1224 275.847 53.8552V50.9824H302.851V53.8552C302.851 55.1224 301.82 56.1534 300.553 56.1534H278.145Z" fill="#6A0DB4"/>
<path d="M300.552 30.2988H278.145C276.244 30.2988 274.697 31.8453 274.697 33.7462V51.5574C274.697 53.4582 276.244 55.0047 278.145 55.0047H300.552C302.453 55.0047 304 53.4582 304 51.5574C304 51.1568 304 34.2625 304 33.7462C304 31.8453 302.453 30.2988 300.552 30.2988Z" fill="#EBF5FC"/>
<path d="M278.145 53.8547C276.876 53.8547 275.847 52.8257 275.847 51.5564V46.3854C275.847 45.7508 276.361 45.2363 276.996 45.2363H301.702C302.336 45.2363 302.851 45.7508 302.851 46.3854V51.5564C302.851 52.8257 301.822 53.8547 300.553 53.8547H278.145Z" fill="#A12BFF"/>
<path d="M281.017 33.7455C281.652 33.7455 282.166 33.231 282.166 32.5964C282.166 31.9617 281.652 31.4473 281.017 31.4473C280.383 31.4473 279.868 31.9617 279.868 32.5964C279.868 33.231 280.383 33.7455 281.017 33.7455Z" fill="#AAB9E5"/>
<path d="M281.017 33.171C280.541 33.171 280.155 32.7851 280.155 32.3092V28.8618C280.155 28.3859 280.541 28 281.017 28C281.493 28 281.879 28.3859 281.879 28.8618V32.3092C281.879 32.7851 281.493 33.171 281.017 33.171Z" fill="#D3DCFB"/>
<path d="M289.348 33.7455C289.983 33.7455 290.497 33.231 290.497 32.5964C290.497 31.9617 289.983 31.4473 289.348 31.4473C288.714 31.4473 288.199 31.9617 288.199 32.5964C288.199 33.231 288.714 33.7455 289.348 33.7455Z" fill="#AAB9E5"/>
<path d="M289.348 33.171C288.872 33.171 288.486 32.7851 288.486 32.3092V28.8618C288.486 28.3859 288.872 28 289.348 28C289.824 28 290.21 28.3859 290.21 28.8618V32.3092C290.21 32.7851 289.824 33.171 289.348 33.171Z" fill="#D3DCFB"/>
<path d="M291.647 42.9389C292.914 42.9389 293.945 41.908 293.945 40.6407V37.7679C293.945 36.5007 292.914 35.4697 291.647 35.4697C290.38 35.4697 289.349 36.5007 289.349 37.7679V40.6407C289.349 41.908 290.38 42.9389 291.647 42.9389ZM290.498 37.7679C290.498 37.1343 291.013 36.6188 291.647 36.6188C292.28 36.6188 292.796 37.1343 292.796 37.7679V40.6407C292.796 41.2743 292.28 41.7898 291.647 41.7898C291.013 41.7898 290.498 41.2743 290.498 40.6407V37.7679Z" fill="#252A3F"/>
<path d="M285.671 38.2273L287.05 37.1931V42.3641C287.05 42.6814 287.307 42.9387 287.625 42.9387C287.942 42.9387 288.199 42.6814 288.199 42.3641V36.044C288.199 35.5717 287.659 35.3006 287.28 35.5844L284.982 37.308C284.728 37.4984 284.677 37.8586 284.867 38.1124C285.057 38.3662 285.417 38.4177 285.671 38.2273Z" fill="#252A3F"/>
<path d="M291.399 47.2918C291.422 47.4756 291.435 47.6901 291.439 47.9353C291.443 48.1766 291.439 48.4217 291.428 48.6707C291.42 48.9158 291.403 49.1495 291.376 49.3717C291.349 49.59 291.316 49.7662 291.278 49.9003C291.251 49.9807 291.219 50.065 291.18 50.1531C291.146 50.2373 291.108 50.3139 291.066 50.3829C291.004 50.4863 290.93 50.5782 290.841 50.6587C290.753 50.7353 290.656 50.8023 290.548 50.8598C290.445 50.9134 290.334 50.9555 290.215 50.9862C290.1 51.0168 289.985 51.034 289.87 51.0379C289.667 51.0455 289.474 51.0168 289.29 50.9517C289.11 50.8827 288.944 50.7755 288.79 50.6299C288.675 50.5189 288.583 50.4001 288.515 50.2737C288.446 50.1473 288.392 50.0152 288.354 49.8773C288.315 49.7355 288.29 49.59 288.279 49.4406C288.271 49.2912 288.267 49.138 288.267 48.981C288.267 48.9082 288.266 48.8182 288.262 48.7109C288.262 48.5998 288.262 48.4868 288.262 48.3719C288.262 48.2532 288.262 48.1383 288.262 48.0272C288.262 47.9161 288.264 47.8223 288.267 47.7457C288.267 47.6959 288.267 47.6423 288.267 47.5848C288.267 47.5235 288.269 47.4641 288.273 47.4067C288.281 47.3454 288.292 47.2879 288.308 47.2343C288.323 47.1769 288.346 47.1252 288.377 47.0792C288.411 47.0294 288.459 46.993 288.52 46.97C288.582 46.947 288.645 46.9355 288.71 46.9355C288.779 46.9355 288.844 46.949 288.905 46.9758C288.967 47.0026 289.016 47.0409 289.055 47.0907C289.074 47.1213 289.087 47.152 289.095 47.1826C289.102 47.2132 289.108 47.2477 289.112 47.286C289.12 47.4124 289.124 47.5561 289.124 47.7169C289.127 47.8778 289.127 48.0349 289.124 48.1881C289.124 48.3375 289.122 48.4754 289.118 48.6018C289.114 48.7282 289.112 48.822 289.112 48.8833C289.112 49.1131 289.124 49.3219 289.147 49.5096C289.17 49.6934 289.223 49.8466 289.307 49.9692C289.384 50.0803 289.474 50.1511 289.577 50.1818C289.681 50.2124 289.784 50.222 289.888 50.2105C289.983 50.199 290.079 50.1645 290.175 50.1071C290.275 50.0458 290.353 49.9577 290.411 49.8428C290.434 49.8007 290.453 49.7528 290.468 49.6992C290.483 49.6455 290.495 49.5957 290.502 49.5498C290.518 49.4042 290.531 49.2357 290.543 49.0442C290.554 48.8488 290.564 48.6496 290.571 48.4466C290.579 48.2436 290.583 48.0444 290.583 47.8491C290.583 47.6537 290.581 47.4775 290.577 47.3205C290.585 47.2516 290.606 47.1884 290.64 47.1309C290.671 47.0811 290.715 47.0371 290.773 46.9987C290.83 46.9604 290.909 46.9413 291.008 46.9413C291.089 46.9451 291.154 46.9662 291.203 47.0045C291.253 47.039 291.293 47.0773 291.324 47.1194C291.359 47.1692 291.383 47.2267 291.399 47.2918Z" fill="white"/>
<path d="M287.273 50.6527C287.276 50.6757 287.278 50.6987 287.278 50.7217C287.282 50.7408 287.284 50.7638 287.284 50.7906C287.284 50.8366 287.271 50.8787 287.244 50.917C287.232 50.9362 287.217 50.9553 287.198 50.9745C287.179 50.9898 287.156 51.0032 287.129 51.0147C287.033 51.0683 286.932 51.0875 286.824 51.0722C286.771 51.0568 286.723 51.0319 286.681 50.9975C286.673 50.9898 286.667 50.986 286.664 50.986C286.66 50.9822 286.656 50.9764 286.652 50.9687C286.648 50.9649 286.644 50.9611 286.641 50.9573C286.637 50.9496 286.631 50.9438 286.623 50.94C286.604 50.9209 286.589 50.9036 286.577 50.8883C286.566 50.8692 286.554 50.85 286.543 50.8309C286.535 50.8117 286.526 50.7945 286.514 50.7791C286.506 50.76 286.497 50.7408 286.485 50.7217C286.478 50.7064 286.47 50.693 286.462 50.6815C286.455 50.6661 286.449 50.6508 286.445 50.6355C286.43 50.601 286.42 50.5704 286.416 50.5436L286.296 50.262C286.032 50.262 285.767 50.264 285.503 50.2678C285.242 50.2678 284.98 50.2659 284.716 50.262L284.595 50.5436C284.587 50.5589 284.582 50.5742 284.578 50.5895C284.578 50.6049 284.574 50.6202 284.566 50.6355C284.559 50.6508 284.551 50.6661 284.543 50.6815C284.54 50.693 284.534 50.7064 284.526 50.7217C284.515 50.7408 284.503 50.76 284.492 50.7791C284.484 50.7945 284.474 50.8117 284.463 50.8309C284.455 50.85 284.446 50.8692 284.434 50.8883C284.423 50.9036 284.407 50.9209 284.388 50.94C284.381 50.9438 284.375 50.9496 284.371 50.9573C284.367 50.9611 284.363 50.9649 284.36 50.9687C284.356 50.9764 284.352 50.9822 284.348 50.986C284.344 50.986 284.338 50.9898 284.331 50.9975C284.289 51.0319 284.241 51.0568 284.187 51.0722C284.08 51.0875 283.978 51.0683 283.883 51.0147C283.856 51.0032 283.833 50.9898 283.814 50.9745C283.795 50.9553 283.779 50.9362 283.768 50.917C283.741 50.8787 283.728 50.8366 283.728 50.7906C283.728 50.7638 283.728 50.7408 283.728 50.7217C283.731 50.6987 283.735 50.6757 283.739 50.6527C283.747 50.6183 283.756 50.5838 283.768 50.5493C283.779 50.5148 283.785 50.4976 283.785 50.4976L284.98 47.5559L285.015 47.464C285.022 47.441 285.032 47.4199 285.043 47.4008C285.055 47.3816 285.064 47.3586 285.072 47.3318C285.091 47.282 285.112 47.238 285.135 47.1997C285.147 47.1767 285.16 47.1556 285.175 47.1365C285.191 47.1173 285.206 47.0982 285.221 47.079C285.244 47.0484 285.277 47.0235 285.319 47.0043C285.373 46.9852 285.434 46.9756 285.503 46.9756C285.576 46.9756 285.639 46.9852 285.693 47.0043C285.735 47.0235 285.767 47.0484 285.79 47.079C285.817 47.1135 285.846 47.1537 285.876 47.1997C285.899 47.238 285.92 47.282 285.94 47.3318C285.947 47.3586 285.957 47.3816 285.968 47.4008C285.98 47.4199 285.989 47.441 285.997 47.464L286.032 47.5559L287.227 50.4976C287.227 50.4976 287.232 50.5148 287.244 50.5493C287.255 50.5838 287.265 50.6183 287.273 50.6527ZM285.911 49.2451C285.861 49.134 285.809 49.0191 285.756 48.9003C285.706 48.7816 285.652 48.6609 285.595 48.5384C285.58 48.5039 285.564 48.4694 285.549 48.435C285.534 48.3967 285.518 48.3603 285.503 48.3258C285.491 48.3603 285.478 48.3967 285.463 48.435C285.447 48.4694 285.432 48.5039 285.417 48.5384C285.359 48.6609 285.304 48.7816 285.25 48.9003C285.2 49.0191 285.151 49.134 285.101 49.2451L284.997 49.4979H286.014L285.911 49.2451Z" fill="white"/>
</g>
<path d="M80.7847 57.3025H58.377C56.4731 57.3025 54.9297 55.7591 54.9297 53.8552V50.9824H84.232V53.8552C84.232 55.7591 82.6886 57.3025 80.7847 57.3025Z" fill="#D3DCFB"/>
<path d="M58.3773 56.1534C57.1101 56.1534 56.0791 55.1224 56.0791 53.8552V50.9824H83.0832V53.8552C83.0832 55.1224 82.0522 56.1534 80.785 56.1534H58.3773Z" fill="#6A0DB4"/>
<path d="M80.7847 30.2988H58.377C56.4762 30.2988 54.9297 31.8453 54.9297 33.7462V51.5574C54.9297 53.4582 56.4762 55.0047 58.377 55.0047H80.7847C82.6855 55.0047 84.232 53.4582 84.232 51.5574C84.232 51.1568 84.232 34.2625 84.232 33.7462C84.232 31.8453 82.6855 30.2988 80.7847 30.2988Z" fill="#EBF5FC"/>
<path d="M58.3773 53.8547C57.1081 53.8547 56.0791 52.8257 56.0791 51.5564V46.3854C56.0791 45.7508 56.5936 45.2363 57.2282 45.2363H81.9341C82.5687 45.2363 83.0832 45.7508 83.0832 46.3854V51.5564C83.0832 52.8257 82.0542 53.8547 80.785 53.8547H58.3773Z" fill="#A12BFF"/>
<path d="M61.2497 33.7455C61.8843 33.7455 62.3988 33.231 62.3988 32.5964C62.3988 31.9617 61.8843 31.4473 61.2497 31.4473C60.6151 31.4473 60.1006 31.9617 60.1006 32.5964C60.1006 33.231 60.6151 33.7455 61.2497 33.7455Z" fill="#AAB9E5"/>
<path d="M61.2495 33.171C60.7736 33.171 60.3877 32.7851 60.3877 32.3092V28.8618C60.3877 28.3859 60.7736 28 61.2495 28C61.7255 28 62.1114 28.3859 62.1114 28.8618V32.3092C62.1114 32.7851 61.7255 33.171 61.2495 33.171Z" fill="#D3DCFB"/>
<path d="M77.9118 33.7455C78.5464 33.7455 79.0609 33.231 79.0609 32.5964C79.0609 31.9617 78.5464 31.4473 77.9118 31.4473C77.2772 31.4473 76.7627 31.9617 76.7627 32.5964C76.7627 33.231 77.2772 33.7455 77.9118 33.7455Z" fill="#AAB9E5"/>
<path d="M77.9116 33.171C77.4357 33.171 77.0498 32.7851 77.0498 32.3092V28.8618C77.0498 28.3859 77.4357 28 77.9116 28C78.3876 28 78.7735 28.3859 78.7735 28.8618V32.3092C78.7735 32.7851 78.3876 33.171 77.9116 33.171Z" fill="#D3DCFB"/>
<path d="M69.5808 33.7455C70.2154 33.7455 70.7299 33.231 70.7299 32.5964C70.7299 31.9617 70.2154 31.4473 69.5808 31.4473C68.9461 31.4473 68.4316 31.9617 68.4316 32.5964C68.4316 33.231 68.9461 33.7455 69.5808 33.7455Z" fill="#AAB9E5"/>
<path d="M69.5806 33.171C69.1046 33.171 68.7188 32.7851 68.7188 32.3092V28.8618C68.7188 28.3859 69.1046 28 69.5806 28C70.0565 28 70.4424 28.3859 70.4424 28.8618V32.3092C70.4424 32.7851 70.0565 33.171 69.5806 33.171Z" fill="#D3DCFB"/>
<path d="M71.8793 42.9389C73.1465 42.9389 74.1775 41.908 74.1775 40.6407V37.7679C74.1775 36.5007 73.1465 35.4697 71.8793 35.4697C70.612 35.4697 69.5811 36.5007 69.5811 37.7679V40.6407C69.5811 41.908 70.612 42.9389 71.8793 42.9389ZM70.7302 37.7679C70.7302 37.1343 71.2457 36.6188 71.8793 36.6188C72.5129 36.6188 73.0284 37.1343 73.0284 37.7679V40.6407C73.0284 41.2743 72.5129 41.7898 71.8793 41.7898C71.2457 41.7898 70.7302 41.2743 70.7302 40.6407V37.7679Z" fill="#252A3F"/>
<path d="M65.9037 38.2273L67.2826 37.1931V42.3641C67.2826 42.6814 67.5399 42.9387 67.8572 42.9387C68.1744 42.9387 68.4317 42.6814 68.4317 42.3641V36.044C68.4317 35.5717 67.8909 35.3006 67.5124 35.5844L65.2142 37.308C64.9604 37.4984 64.9089 37.8586 65.0993 38.1124C65.2897 38.3662 65.6498 38.4177 65.9037 38.2273Z" fill="#252A3F"/>
<path d="M74.9005 48.9236C75.0115 48.9964 75.1054 49.0826 75.182 49.1822C75.2624 49.2779 75.3256 49.3967 75.3716 49.5384C75.4214 49.6954 75.4463 49.8544 75.4463 50.0153C75.4501 50.1723 75.4214 50.3198 75.3601 50.4577C75.3027 50.5917 75.2088 50.7105 75.0786 50.8139C74.9522 50.9135 74.7856 50.9844 74.5787 51.0265C74.4676 51.0533 74.3374 51.0744 74.188 51.0897C74.0386 51.105 73.9046 51.1127 73.7858 51.1127C73.6364 51.1165 73.4813 51.1165 73.3204 51.1127C73.1634 51.1127 73.0102 51.0973 72.8608 51.0667C72.7957 51.0476 72.7478 51.015 72.7172 50.969C72.6903 50.9192 72.6712 50.8637 72.6597 50.8024C72.6444 50.7679 72.6367 50.7335 72.6367 50.699V47.4355C72.6367 47.3283 72.6578 47.2459 72.6999 47.1885C72.7459 47.1272 72.8053 47.0831 72.878 47.0563C72.9508 47.0257 73.0332 47.0084 73.1251 47.0046C73.217 46.9969 73.3128 46.9931 73.4124 46.9931C73.489 46.9931 73.5656 46.9931 73.6422 46.9931C73.7226 46.9893 73.8031 46.9893 73.8835 46.9931C74.0099 46.9969 74.1401 47.0084 74.2742 47.0276C74.4121 47.0429 74.5423 47.0735 74.6649 47.1195C74.7224 47.1387 74.7836 47.1655 74.8488 47.1999C74.9139 47.2306 74.9656 47.2689 75.0039 47.3149C75.1265 47.4259 75.2165 47.5562 75.2739 47.7056C75.3352 47.8511 75.362 48.0005 75.3544 48.1537C75.3467 48.3031 75.3046 48.4467 75.228 48.5846C75.1552 48.7225 75.046 48.8355 74.9005 48.9236ZM73.895 50.4462C74.0137 50.4385 74.1344 50.4251 74.257 50.406C74.3795 50.3868 74.4638 50.3504 74.5098 50.2968C74.5596 50.2355 74.594 50.1647 74.6132 50.0842C74.6362 49.9999 74.6419 49.9157 74.6304 49.8314C74.6228 49.7433 74.5979 49.661 74.5557 49.5844C74.5174 49.5039 74.4657 49.4407 74.4006 49.3947C74.3125 49.3258 74.211 49.2818 74.0961 49.2626C73.9812 49.2396 73.8682 49.2281 73.7571 49.2281C73.7035 49.2281 73.6537 49.23 73.6077 49.2339C73.5656 49.2339 73.5273 49.2396 73.4928 49.2511C73.4622 49.2588 73.4392 49.276 73.4239 49.3028C73.4085 49.3296 73.4009 49.3699 73.4009 49.4235C73.4085 49.5231 73.4085 49.6227 73.4009 49.7222C73.3932 49.8218 73.3894 49.9176 73.3894 50.0095C73.3894 50.0631 73.3875 50.1225 73.3836 50.1876C73.3836 50.2489 73.4047 50.3006 73.4468 50.3428C73.489 50.3849 73.5503 50.4136 73.6307 50.4289C73.7111 50.4443 73.7992 50.45 73.895 50.4462ZM74.0099 47.6883C73.8912 47.6845 73.7916 47.6826 73.7111 47.6826C73.6345 47.6787 73.5732 47.6845 73.5273 47.6998C73.4851 47.7113 73.4545 47.74 73.4354 47.786C73.42 47.8281 73.4143 47.8932 73.4181 47.9813C73.4181 48.0541 73.4162 48.1269 73.4124 48.1997C73.4124 48.2686 73.4124 48.3376 73.4124 48.4065C73.4124 48.4831 73.4373 48.5406 73.4871 48.5789C73.5369 48.6134 73.5981 48.6344 73.6709 48.6421C73.7475 48.6497 73.826 48.6497 73.9065 48.6421C73.9908 48.6344 74.0635 48.6248 74.1248 48.6134C74.2627 48.5904 74.368 48.5444 74.4408 48.4755C74.5174 48.4027 74.5615 48.2973 74.573 48.1595C74.5883 47.9871 74.5423 47.8683 74.4351 47.8032C74.3317 47.7343 74.1899 47.696 74.0099 47.6883Z" fill="white"/>
<path d="M69.7539 47.6651L69.7424 48.5671H69.9723C70.1293 48.5633 70.2691 48.5614 70.3917 48.5614C70.5143 48.5614 70.6502 48.5633 70.7996 48.5671H70.8284C70.8743 48.5671 70.9184 48.569 70.9605 48.5728C71.0065 48.5728 71.0505 48.5728 71.0927 48.5728C71.1386 48.5767 71.1827 48.5843 71.2248 48.5958C71.2669 48.6035 71.3091 48.6131 71.3512 48.6246C71.4163 48.6475 71.4699 48.682 71.5121 48.728C71.5504 48.7778 71.5695 48.8333 71.5695 48.8946C71.5695 48.9138 71.5695 48.9367 71.5695 48.9635C71.5695 48.9865 71.5657 49.0076 71.558 49.0267C71.5504 49.0689 71.5255 49.1072 71.4833 49.1417C71.4642 49.1685 71.4278 49.1876 71.3742 49.1991C71.3244 49.2144 71.2746 49.224 71.2248 49.2278C71.1712 49.2393 71.1175 49.2451 71.0639 49.2451H70.7939L69.731 49.2508L69.7195 50.377L70.8628 50.3884H71.1329C71.1635 50.3884 71.1922 50.3884 71.2191 50.3884C71.2459 50.3884 71.2708 50.3904 71.2937 50.3942C71.3244 50.4019 71.3512 50.4076 71.3742 50.4114C71.401 50.4114 71.4259 50.4153 71.4489 50.4229C71.4948 50.4382 71.5331 50.4593 71.5638 50.4861C71.6021 50.5244 71.627 50.5646 71.6385 50.6068C71.6423 50.6259 71.6442 50.647 71.6442 50.67C71.6481 50.6891 71.6481 50.7102 71.6442 50.7332C71.6442 50.7945 71.6251 50.85 71.5868 50.8998C71.5408 50.9534 71.4872 50.9879 71.4259 51.0032C71.3455 51.0377 71.2574 51.0549 71.1616 51.0549C71.1195 51.0588 71.0754 51.0607 71.0295 51.0607C70.9835 51.0607 70.9394 51.0626 70.8973 51.0664H70.8628C70.5641 51.0741 70.2538 51.0741 69.932 51.0664C69.8554 51.0664 69.7942 51.0645 69.7482 51.0607C69.7022 51.0607 69.6601 51.0607 69.6218 51.0607C69.5873 51.0607 69.5509 51.0607 69.5126 51.0607C69.4743 51.0607 69.4245 51.0607 69.3632 51.0607C69.2751 51.0683 69.2024 51.053 69.1449 51.0147C69.1028 50.9879 69.0702 50.9515 69.0472 50.9055C69.0357 50.8941 69.03 50.8826 69.03 50.8711C69.0262 50.8634 69.0223 50.8577 69.0185 50.8538C69.0147 50.85 69.0108 50.8443 69.007 50.8366C68.9994 50.8174 68.9936 50.7983 68.9898 50.7791C68.9859 50.7562 68.984 50.7351 68.984 50.7159C68.9802 50.6968 68.9764 50.6776 68.9725 50.6585C68.9725 50.6393 68.9706 50.6202 68.9668 50.601V50.5091C68.9668 50.4938 68.9668 50.4785 68.9668 50.4631C68.9706 50.4478 68.9725 50.4325 68.9725 50.4172V49.969L68.984 49.1417V48.3775C68.984 48.2396 68.984 48.117 68.984 48.0098C68.9879 47.9025 68.9917 47.7857 68.9955 47.6593V47.6306C68.9994 47.5884 69.0013 47.5501 69.0013 47.5157C69.0051 47.4774 69.007 47.4391 69.007 47.4008C69.0108 47.3241 69.0319 47.2495 69.0702 47.1767C69.0855 47.146 69.1009 47.1192 69.1162 47.0962C69.1353 47.0733 69.1602 47.0541 69.1909 47.0388C69.2483 47.0043 69.3077 46.9871 69.369 46.9871C69.3996 46.9871 69.4226 46.989 69.4379 46.9928V46.9871C69.5069 46.9871 69.5624 46.9871 69.6046 46.9871C69.6467 46.9871 69.6869 46.9871 69.7252 46.9871C69.7673 46.9871 69.8114 46.9871 69.8574 46.9871C69.9033 46.9832 69.9665 46.9813 70.047 46.9813C70.2002 46.9775 70.3457 46.9756 70.4836 46.9756C70.6215 46.9756 70.7632 46.9775 70.9088 46.9813H70.9318C70.9739 46.9852 71.018 46.9871 71.0639 46.9871C71.1099 46.9871 71.1539 46.989 71.1961 46.9928C71.2382 46.9928 71.2803 46.9986 71.3225 47.0101C71.3646 47.0177 71.4067 47.0292 71.4489 47.0445C71.514 47.0637 71.5676 47.0962 71.6098 47.1422C71.6442 47.1958 71.6615 47.2495 71.6615 47.3031C71.6615 47.3261 71.6615 47.349 71.6615 47.372C71.6615 47.3912 71.6576 47.4103 71.65 47.4295C71.6461 47.4678 71.6232 47.508 71.581 47.5501C71.5657 47.5578 71.5485 47.5674 71.5293 47.5789C71.514 47.5904 71.4948 47.5999 71.4719 47.6076C71.4489 47.6153 71.424 47.621 71.3972 47.6248C71.3742 47.6248 71.3512 47.6267 71.3282 47.6306C71.2976 47.6382 71.2688 47.6421 71.242 47.6421C71.2191 47.6421 71.1922 47.6421 71.1616 47.6421H70.903L69.7539 47.6478V47.6651Z" fill="white"/>
<path d="M68.0074 47.1471C68.0419 47.1931 68.063 47.2467 68.0707 47.308C68.0707 47.331 68.0687 47.354 68.0649 47.377C68.0649 47.3961 68.063 47.4153 68.0592 47.4344C68.0553 47.4766 68.0304 47.5168 67.9845 47.5551C67.9577 47.5742 67.9232 47.5934 67.881 47.6125C67.8581 47.6202 67.8332 47.6259 67.8064 47.6298C67.7834 47.6298 67.7566 47.6317 67.7259 47.6355C67.7029 47.6432 67.678 47.647 67.6512 47.647C67.6244 47.647 67.5976 47.647 67.5708 47.647H67.3122L66.1114 47.6528V47.67L66.1057 48.6065C66.1363 48.6065 66.1689 48.6065 66.2033 48.6065C66.2416 48.6065 66.2876 48.6046 66.3412 48.6008C66.4945 48.6008 66.6304 48.6008 66.7492 48.6008C66.8717 48.6008 67.0058 48.6027 67.1514 48.6065H67.1858C67.228 48.6065 67.2701 48.6084 67.3122 48.6123C67.3582 48.6123 67.4042 48.6123 67.4501 48.6123C67.4923 48.6161 67.5344 48.6218 67.5765 48.6295C67.6187 48.6333 67.6608 48.6429 67.7029 48.6582C67.7719 48.6812 67.8217 48.7176 67.8523 48.7674C67.8945 48.8172 67.9155 48.8689 67.9155 48.9225C67.9155 48.9455 67.9155 48.9685 67.9155 48.9915C67.9155 49.0106 67.9117 49.0317 67.904 49.0547C67.9002 49.0853 67.8753 49.1236 67.8293 49.1696C67.7987 49.1964 67.7623 49.2136 67.7202 49.2213C67.701 49.229 67.678 49.2366 67.6512 49.2443C67.6282 49.2481 67.6033 49.2519 67.5765 49.2558C67.5497 49.2596 67.5229 49.2634 67.4961 49.2673C67.4731 49.2673 67.4463 49.2673 67.4157 49.2673H67.1514L66.0942 49.273L66.0769 50.606V50.6519C66.0769 50.6711 66.075 50.6902 66.0712 50.7094C66.0712 50.7247 66.0693 50.7419 66.0655 50.7611C66.0578 50.7803 66.0501 50.8013 66.0425 50.8243C66.0386 50.8435 66.0329 50.8626 66.0252 50.8818C65.9984 50.9354 65.9735 50.9718 65.9505 50.9909C65.9084 51.0216 65.8567 51.0426 65.7954 51.0541C65.692 51.0771 65.5943 51.0656 65.5024 51.0197C65.4832 51.0082 65.4641 50.9948 65.4449 50.9794C65.4296 50.9603 65.4162 50.9373 65.4047 50.9105C65.3971 50.8952 65.3932 50.8837 65.3932 50.876L65.376 50.8415C65.3645 50.8224 65.3568 50.8032 65.353 50.7841C65.3492 50.7611 65.3453 50.74 65.3415 50.7209C65.3415 50.7017 65.3396 50.6826 65.3358 50.6634C65.3358 50.6443 65.3339 50.6251 65.33 50.606C65.3262 50.5753 65.3262 50.5447 65.33 50.514V50.4221L65.3358 49.974L65.3415 49.1466C65.3453 49.024 65.3473 48.8995 65.3473 48.7731C65.3473 48.6467 65.3473 48.5165 65.3473 48.3824C65.3434 48.2445 65.3415 48.122 65.3415 48.0147C65.3453 47.9075 65.3511 47.7906 65.3587 47.6642V47.6355C65.3626 47.5934 65.3645 47.5551 65.3645 47.5206C65.3645 47.4823 65.3683 47.444 65.376 47.4057C65.3836 47.3214 65.4028 47.2467 65.4334 47.1816C65.4603 47.1165 65.4986 47.0705 65.5484 47.0437C65.6058 47.0093 65.6671 46.992 65.7322 46.992C65.7629 46.992 65.7878 46.9939 65.8069 46.9978V46.992C65.8758 46.992 65.9314 46.992 65.9735 46.992C66.0157 46.992 66.0559 46.992 66.0942 46.992C66.1325 46.992 66.1746 46.992 66.2206 46.992C66.2665 46.9882 66.3278 46.9863 66.4044 46.9863C66.7109 46.9824 67.0135 46.9824 67.3122 46.9863H67.341C67.3831 46.9901 67.4252 46.992 67.4674 46.992C67.5133 46.992 67.5593 46.9939 67.6053 46.9978C67.6474 46.9978 67.6895 47.0035 67.7317 47.015C67.7738 47.0227 67.8159 47.0342 67.8581 47.0495C67.9232 47.0686 67.973 47.1012 68.0074 47.1471Z" fill="white"/>
<path d="M117.414 57.3025H95.0059C93.102 57.3025 91.5586 55.7591 91.5586 53.8552V50.9824H120.861V53.8552C120.861 55.7591 119.317 57.3025 117.414 57.3025Z" fill="#D3DCFB"/>
<path d="M95.0062 56.1534C93.739 56.1534 92.708 55.1224 92.708 53.8552V50.9824H119.712V53.8552C119.712 55.1224 118.681 56.1534 117.414 56.1534H95.0062Z" fill="#6A0DB4"/>
<path d="M117.414 30.2988H95.0059C93.1051 30.2988 91.5586 31.8453 91.5586 33.7462V51.5574C91.5586 53.4582 93.1051 55.0047 95.0059 55.0047H117.414C119.314 55.0047 120.861 53.4582 120.861 51.5574C120.861 51.1568 120.861 34.2625 120.861 33.7462C120.861 31.8453 119.314 30.2988 117.414 30.2988Z" fill="#EBF5FC"/>
<path d="M95.0062 53.8547C93.737 53.8547 92.708 52.8257 92.708 51.5564V46.3854C92.708 45.7508 93.2225 45.2363 93.8571 45.2363H118.563C119.198 45.2363 119.712 45.7508 119.712 46.3854V51.5564C119.712 52.8257 118.683 53.8547 117.414 53.8547H95.0062Z" fill="#A12BFF"/>
<path d="M97.8786 33.7455C98.5132 33.7455 99.0277 33.231 99.0277 32.5964C99.0277 31.9617 98.5132 31.4473 97.8786 31.4473C97.244 31.4473 96.7295 31.9617 96.7295 32.5964C96.7295 33.231 97.244 33.7455 97.8786 33.7455Z" fill="#AAB9E5"/>
<path d="M97.8784 33.171C97.4025 33.171 97.0166 32.7851 97.0166 32.3092V28.8618C97.0166 28.3859 97.4025 28 97.8784 28C98.3544 28 98.7403 28.3859 98.7403 28.8618V32.3092C98.7403 32.7851 98.3544 33.171 97.8784 33.171Z" fill="#D3DCFB"/>
<path d="M114.541 33.7455C115.175 33.7455 115.69 33.231 115.69 32.5964C115.69 31.9617 115.175 31.4473 114.541 31.4473C113.906 31.4473 113.392 31.9617 113.392 32.5964C113.392 33.231 113.906 33.7455 114.541 33.7455Z" fill="#AAB9E5"/>
<path d="M114.541 33.171C114.065 33.171 113.679 32.7851 113.679 32.3092V28.8618C113.679 28.3859 114.065 28 114.541 28C115.017 28 115.402 28.3859 115.402 28.8618V32.3092C115.402 32.7851 115.017 33.171 114.541 33.171Z" fill="#D3DCFB"/>
<path d="M106.21 33.7455C106.844 33.7455 107.359 33.231 107.359 32.5964C107.359 31.9617 106.844 31.4473 106.21 31.4473C105.575 31.4473 105.061 31.9617 105.061 32.5964C105.061 33.231 105.575 33.7455 106.21 33.7455Z" fill="#AAB9E5"/>
<path d="M106.209 33.171C105.734 33.171 105.348 32.7851 105.348 32.3092V28.8618C105.348 28.3859 105.734 28 106.209 28C106.685 28 107.071 28.3859 107.071 28.8618V32.3092C107.071 32.7851 106.685 33.171 106.209 33.171Z" fill="#D3DCFB"/>
<path d="M108.508 42.9389C109.775 42.9389 110.806 41.908 110.806 40.6407V37.7679C110.806 36.5007 109.775 35.4697 108.508 35.4697C107.241 35.4697 106.21 36.5007 106.21 37.7679V40.6407C106.21 41.908 107.241 42.9389 108.508 42.9389ZM107.359 37.7679C107.359 37.1343 107.875 36.6188 108.508 36.6188C109.142 36.6188 109.657 37.1343 109.657 37.7679V40.6407C109.657 41.2743 109.142 41.7898 108.508 41.7898C107.875 41.7898 107.359 41.2743 107.359 40.6407V37.7679Z" fill="#252A3F"/>
<path d="M102.533 38.2273L103.912 37.1931V42.3641C103.912 42.6814 104.169 42.9387 104.486 42.9387C104.803 42.9387 105.061 42.6814 105.061 42.3641V36.044C105.061 35.5717 104.52 35.3006 104.141 35.5844L101.843 37.308C101.589 37.4984 101.538 37.8586 101.728 38.1124C101.919 38.3662 102.279 38.4177 102.533 38.2273Z" fill="#252A3F"/>
<path d="M112.446 50.7927C112.45 50.831 112.446 50.8674 112.435 50.9018C112.427 50.9248 112.416 50.944 112.4 50.9593C112.389 50.9746 112.373 50.9899 112.354 51.0053C112.32 51.0282 112.278 51.0493 112.228 51.0685C112.197 51.0761 112.167 51.0819 112.136 51.0857C112.109 51.0934 112.08 51.0934 112.05 51.0857C111.988 51.0819 111.935 51.0589 111.889 51.0168C111.824 50.9631 111.77 50.9038 111.728 50.8386C111.709 50.808 111.688 50.7735 111.665 50.7352C111.642 50.6969 111.621 50.6567 111.602 50.6146L110.964 49.4023C110.933 49.4023 110.903 49.4042 110.872 49.408C110.841 49.408 110.811 49.4099 110.78 49.4137C110.7 49.4214 110.623 49.4233 110.55 49.4195C110.481 49.4157 110.408 49.4157 110.332 49.4195H110.223V50.4594C110.223 50.4901 110.221 50.5188 110.217 50.5456C110.217 50.5724 110.217 50.6012 110.217 50.6318C110.217 50.651 110.215 50.6759 110.211 50.7065C110.211 50.7371 110.209 50.7659 110.205 50.7927C110.198 50.8348 110.18 50.8789 110.154 50.9248C110.127 50.967 110.09 51.0034 110.045 51.034C109.964 51.0838 109.866 51.0972 109.751 51.0742C109.702 51.0627 109.654 51.0436 109.608 51.0168C109.593 51.0053 109.579 50.9919 109.568 50.9765C109.556 50.9574 109.547 50.9382 109.539 50.9191C109.531 50.8999 109.524 50.8808 109.516 50.8616C109.512 50.8386 109.506 50.8176 109.499 50.7984C109.487 50.7601 109.481 50.7237 109.481 50.6893V47.4258C109.481 47.4028 109.481 47.3798 109.481 47.3568C109.485 47.33 109.489 47.307 109.493 47.2879C109.497 47.2458 109.51 47.2036 109.533 47.1615C109.545 47.1155 109.564 47.083 109.591 47.0638C109.614 47.0408 109.648 47.0217 109.694 47.0064C109.744 46.9872 109.815 46.9795 109.907 46.9834C110.079 46.9872 110.249 46.9891 110.418 46.9891C110.587 46.9891 110.755 46.993 110.924 47.0006C111.035 47.0083 111.151 47.0217 111.274 47.0408C111.4 47.0562 111.517 47.0849 111.625 47.127C111.693 47.1538 111.757 47.1806 111.814 47.2075C111.887 47.2496 111.944 47.2898 111.987 47.3281C112.121 47.4507 112.222 47.5982 112.291 47.7705C112.36 47.9429 112.394 48.1172 112.394 48.2934C112.394 48.5002 112.345 48.6898 112.245 48.8622C112.149 49.0345 111.994 49.1629 111.78 49.2471C111.772 49.2548 111.761 49.2605 111.745 49.2644C111.734 49.2644 111.724 49.2663 111.716 49.2701L112.245 50.333L112.297 50.425C112.304 50.4403 112.314 50.4575 112.325 50.4767C112.337 50.4958 112.347 50.515 112.354 50.5341C112.366 50.5533 112.375 50.5744 112.383 50.5973C112.394 50.6203 112.406 50.6414 112.417 50.6605C112.429 50.7142 112.438 50.7582 112.446 50.7927ZM111.01 48.7473C111.079 48.7473 111.144 48.7358 111.205 48.7128C111.27 48.686 111.328 48.6515 111.377 48.6094C111.431 48.5672 111.475 48.5194 111.51 48.4657C111.544 48.4083 111.563 48.347 111.567 48.2819C111.582 48.0904 111.533 47.9486 111.418 47.8567C111.303 47.7609 111.151 47.7092 110.964 47.7016C110.853 47.6939 110.73 47.6901 110.596 47.6901C110.466 47.6901 110.341 47.6901 110.223 47.6901C110.226 47.8471 110.226 48.008 110.223 48.1727C110.223 48.3336 110.223 48.5251 110.223 48.7473H111.01Z" fill="white"/>
<path d="M108.492 50.6537C108.496 50.6767 108.498 50.6997 108.498 50.7227C108.502 50.7418 108.504 50.7648 108.504 50.7916C108.504 50.8376 108.49 50.8797 108.464 50.918C108.452 50.9372 108.437 50.9563 108.418 50.9755C108.398 50.9908 108.375 51.0042 108.349 51.0157C108.253 51.0693 108.151 51.0885 108.044 51.0731C107.99 51.0578 107.943 51.0329 107.9 50.9985C107.893 50.9908 107.887 50.987 107.883 50.987C107.879 50.9831 107.876 50.9774 107.872 50.9697C107.868 50.9659 107.864 50.9621 107.86 50.9582C107.856 50.9506 107.851 50.9448 107.843 50.941C107.824 50.9218 107.809 50.9046 107.797 50.8893C107.786 50.8701 107.774 50.851 107.763 50.8318C107.755 50.8127 107.745 50.7954 107.734 50.7801C107.726 50.761 107.717 50.7418 107.705 50.7227C107.697 50.7073 107.69 50.6939 107.682 50.6824C107.674 50.6671 107.669 50.6518 107.665 50.6365C107.65 50.602 107.64 50.5714 107.636 50.5446L107.516 50.263C107.251 50.263 106.987 50.2649 106.723 50.2688C106.462 50.2688 106.2 50.2668 105.936 50.263L105.815 50.5446C105.807 50.5599 105.801 50.5752 105.798 50.5905C105.798 50.6058 105.794 50.6212 105.786 50.6365C105.778 50.6518 105.771 50.6671 105.763 50.6824C105.759 50.6939 105.754 50.7073 105.746 50.7227C105.734 50.7418 105.723 50.761 105.711 50.7801C105.704 50.7954 105.694 50.8127 105.683 50.8318C105.675 50.851 105.665 50.8701 105.654 50.8893C105.642 50.9046 105.627 50.9218 105.608 50.941C105.6 50.9448 105.595 50.9506 105.591 50.9582C105.587 50.9621 105.583 50.9659 105.579 50.9697C105.575 50.9774 105.572 50.9831 105.568 50.987C105.564 50.987 105.558 50.9908 105.551 50.9985C105.508 51.0329 105.461 51.0578 105.407 51.0731C105.3 51.0885 105.198 51.0693 105.102 51.0157C105.076 51.0042 105.053 50.9908 105.033 50.9755C105.014 50.9563 104.999 50.9372 104.987 50.918C104.961 50.8797 104.947 50.8376 104.947 50.7916C104.947 50.7648 104.947 50.7418 104.947 50.7227C104.951 50.6997 104.955 50.6767 104.959 50.6537C104.966 50.6192 104.976 50.5848 104.987 50.5503C104.999 50.5158 105.005 50.4986 105.005 50.4986L106.2 47.5569L106.234 47.4649C106.242 47.442 106.252 47.4209 106.263 47.4017C106.274 47.3826 106.284 47.3596 106.292 47.3328C106.311 47.283 106.332 47.2389 106.355 47.2006C106.366 47.1777 106.38 47.1566 106.395 47.1374C106.41 47.1183 106.426 47.0991 106.441 47.08C106.464 47.0493 106.497 47.0244 106.539 47.0053C106.592 46.9861 106.654 46.9766 106.723 46.9766C106.795 46.9766 106.859 46.9861 106.912 47.0053C106.954 47.0244 106.987 47.0493 107.01 47.08C107.037 47.1145 107.065 47.1547 107.096 47.2006C107.119 47.2389 107.14 47.283 107.159 47.3328C107.167 47.3596 107.177 47.3826 107.188 47.4017C107.2 47.4209 107.209 47.442 107.217 47.4649L107.251 47.5569L108.446 50.4986C108.446 50.4986 108.452 50.5158 108.464 50.5503C108.475 50.5848 108.485 50.6192 108.492 50.6537ZM107.131 49.2461C107.081 49.135 107.029 49.0201 106.975 48.9013C106.926 48.7826 106.872 48.6619 106.815 48.5394C106.799 48.5049 106.784 48.4704 106.769 48.4359C106.753 48.3976 106.738 48.3612 106.723 48.3268C106.711 48.3612 106.698 48.3976 106.682 48.4359C106.667 48.4704 106.652 48.5049 106.636 48.5394C106.579 48.6619 106.523 48.7826 106.47 48.9013C106.42 49.0201 106.37 49.135 106.32 49.2461L106.217 49.4989H107.234L107.131 49.2461Z" fill="white"/>
<path d="M103.962 50.6311C103.958 50.6771 103.952 50.725 103.945 50.7748C103.937 50.8246 103.924 50.8705 103.904 50.9127C103.885 50.9586 103.86 50.9931 103.83 51.0161C103.788 51.0544 103.738 51.0755 103.68 51.0793C103.627 51.0984 103.575 51.1042 103.525 51.0965C103.475 51.0889 103.43 51.0755 103.387 51.0563C103.334 51.0218 103.294 50.9816 103.267 50.9357C103.244 50.8859 103.227 50.8342 103.215 50.7805C103.204 50.7269 103.198 50.6714 103.198 50.6139C103.198 50.5565 103.198 50.5028 103.198 50.453V50.0049L103.192 49.1258C103.192 49.0645 103.192 49.0166 103.192 48.9822C103.192 48.9477 103.192 48.9171 103.192 48.8902C103.192 48.8596 103.19 48.827 103.186 48.7926C103.186 48.7543 103.186 48.7006 103.186 48.6317C103.186 48.6202 103.186 48.601 103.186 48.5742C103.19 48.5436 103.188 48.4651 103.181 48.3387C103.031 48.5876 102.907 48.7887 102.807 48.9419C102.711 49.0913 102.629 49.2082 102.56 49.2924C102.495 49.3729 102.437 49.4284 102.388 49.459C102.338 49.4859 102.286 49.5012 102.233 49.505C102.202 49.5088 102.171 49.5031 102.141 49.4878C102.11 49.4725 102.079 49.4533 102.049 49.4303C102.022 49.4073 101.995 49.3844 101.968 49.3614C101.945 49.3346 101.926 49.3097 101.911 49.2867C101.819 49.1718 101.715 49.0339 101.601 48.873C101.486 48.7121 101.367 48.5168 101.244 48.287C101.244 48.2908 101.242 48.354 101.239 48.4766C101.239 48.5991 101.239 48.7523 101.239 48.9362C101.239 49.1162 101.237 49.3116 101.233 49.5223C101.233 49.7291 101.231 49.9225 101.227 50.1026C101.227 50.2826 101.225 50.4339 101.221 50.5565C101.217 50.6752 101.214 50.7346 101.21 50.7346C101.21 50.7997 101.194 50.861 101.164 50.9184C101.133 50.972 101.091 51.0161 101.037 51.0506C100.988 51.085 100.928 51.1042 100.859 51.108C100.79 51.1119 100.716 51.0927 100.635 51.0506C100.585 51.0199 100.547 50.9759 100.52 50.9184C100.497 50.861 100.482 50.8073 100.474 50.7575C100.471 50.7039 100.467 50.6522 100.463 50.6024C100.463 50.5526 100.463 50.5009 100.463 50.4473L100.469 49.9991L100.474 49.1143V48.3444C100.474 48.0112 100.486 47.6837 100.509 47.3619C100.509 47.3198 100.513 47.2815 100.52 47.247C100.532 47.2087 100.545 47.1723 100.561 47.1378C100.591 47.0766 100.631 47.0306 100.681 47C100.739 46.9655 100.8 46.9482 100.865 46.9482C100.892 46.9482 100.917 46.9502 100.94 46.954C100.967 46.954 100.991 46.9559 101.014 46.9597C101.091 46.9751 101.156 47.021 101.21 47.0976C101.267 47.1704 101.321 47.2336 101.371 47.2872C101.401 47.3217 101.434 47.3638 101.468 47.4136C101.503 47.4634 101.537 47.5151 101.572 47.5688C101.606 47.6224 101.639 47.6741 101.669 47.7239C101.7 47.7737 101.727 47.8177 101.75 47.856C101.849 48.0169 101.938 48.1644 102.014 48.2984C102.095 48.4325 102.169 48.5474 102.238 48.6432C102.25 48.6317 102.263 48.6164 102.278 48.5972C102.294 48.5742 102.309 48.5513 102.324 48.5283C102.344 48.5015 102.359 48.4766 102.37 48.4536C102.386 48.4306 102.397 48.4114 102.405 48.3961C102.443 48.3348 102.481 48.2755 102.52 48.218C102.558 48.1567 102.598 48.0935 102.64 48.0284C102.686 47.9595 102.732 47.8848 102.778 47.8043C102.828 47.7239 102.886 47.632 102.951 47.5285C102.978 47.4826 103.012 47.427 103.054 47.3619C103.096 47.2968 103.144 47.2336 103.198 47.1723C103.251 47.111 103.307 47.0593 103.364 47.0172C103.426 46.9712 103.487 46.9482 103.548 46.9482C103.579 46.9482 103.606 46.9502 103.629 46.954C103.652 46.954 103.675 46.9559 103.698 46.9597C103.744 46.9636 103.788 46.9846 103.83 47.0229C103.86 47.0536 103.883 47.0861 103.899 47.1206C103.914 47.1704 103.924 47.2125 103.927 47.247C103.931 47.2738 103.933 47.2987 103.933 47.3217C103.937 47.3447 103.939 47.3677 103.939 47.3907C103.939 47.6052 103.941 47.8177 103.945 48.0284C103.949 48.2391 103.95 48.4517 103.95 48.6662C103.95 48.9266 103.95 49.1948 103.95 49.4705C103.954 49.7463 103.956 50.0145 103.956 50.2749C103.956 50.3285 103.958 50.386 103.962 50.4473C103.966 50.5086 103.966 50.5699 103.962 50.6311Z" fill="white"/>
<g opacity="0.9">
<path d="M154.041 57.3025H131.633C129.729 57.3025 128.186 55.7591 128.186 53.8552V50.9824H157.488V53.8552C157.488 55.7591 155.944 57.3025 154.041 57.3025Z" fill="#D3DCFB"/>
<path d="M131.633 56.1534C130.366 56.1534 129.335 55.1224 129.335 53.8552V50.9824H156.339V53.8552C156.339 55.1224 155.308 56.1534 154.041 56.1534H131.633Z" fill="#6A0DB4"/>
<path d="M154.041 30.2988H131.633C129.732 30.2988 128.186 31.8453 128.186 33.7462V51.5574C128.186 53.4582 129.732 55.0047 131.633 55.0047H154.041C155.941 55.0047 157.488 53.4582 157.488 51.5574C157.488 51.1568 157.488 34.2625 157.488 33.7462C157.488 31.8453 155.941 30.2988 154.041 30.2988Z" fill="#EBF5FC"/>
<path d="M131.633 53.8547C130.364 53.8547 129.335 52.8257 129.335 51.5564V46.3854C129.335 45.7508 129.849 45.2363 130.484 45.2363H155.19C155.825 45.2363 156.339 45.7508 156.339 46.3854V51.5564C156.339 52.8257 155.31 53.8547 154.041 53.8547H131.633Z" fill="#A12BFF"/>
<path d="M134.506 33.7455C135.14 33.7455 135.655 33.231 135.655 32.5964C135.655 31.9617 135.14 31.4473 134.506 31.4473C133.871 31.4473 133.356 31.9617 133.356 32.5964C133.356 33.231 133.871 33.7455 134.506 33.7455Z" fill="#AAB9E5"/>
<path d="M134.505 33.171C134.029 33.171 133.644 32.7851 133.644 32.3092V28.8618C133.644 28.3859 134.029 28 134.505 28C134.981 28 135.367 28.3859 135.367 28.8618V32.3092C135.367 32.7851 134.981 33.171 134.505 33.171Z" fill="#D3DCFB"/>
<path d="M151.168 33.7455C151.802 33.7455 152.317 33.231 152.317 32.5964C152.317 31.9617 151.802 31.4473 151.168 31.4473C150.533 31.4473 150.019 31.9617 150.019 32.5964C150.019 33.231 150.533 33.7455 151.168 33.7455Z" fill="#AAB9E5"/>
<path d="M151.167 33.171C150.692 33.171 150.306 32.7851 150.306 32.3092V28.8618C150.306 28.3859 150.692 28 151.167 28C151.643 28 152.029 28.3859 152.029 28.8618V32.3092C152.029 32.7851 151.643 33.171 151.167 33.171Z" fill="#D3DCFB"/>
<path d="M142.837 33.7455C143.471 33.7455 143.986 33.231 143.986 32.5964C143.986 31.9617 143.471 31.4473 142.837 31.4473C142.202 31.4473 141.688 31.9617 141.688 32.5964C141.688 33.231 142.202 33.7455 142.837 33.7455Z" fill="#AAB9E5"/>
<path d="M142.836 33.171C142.36 33.171 141.975 32.7851 141.975 32.3092V28.8618C141.975 28.3859 142.36 28 142.836 28C143.312 28 143.698 28.3859 143.698 28.8618V32.3092C143.698 32.7851 143.312 33.171 142.836 33.171Z" fill="#D3DCFB"/>
<path d="M145.135 42.9389C146.402 42.9389 147.433 41.908 147.433 40.6407V37.7679C147.433 36.5007 146.402 35.4697 145.135 35.4697C143.868 35.4697 142.837 36.5007 142.837 37.7679V40.6407C142.837 41.908 143.868 42.9389 145.135 42.9389ZM143.986 37.7679C143.986 37.1343 144.502 36.6188 145.135 36.6188C145.769 36.6188 146.284 37.1343 146.284 37.7679V40.6407C146.284 41.2743 145.769 41.7898 145.135 41.7898C144.502 41.7898 143.986 41.2743 143.986 40.6407V37.7679Z" fill="#252A3F"/>
<path d="M139.16 38.2273L140.538 37.1931V42.3641C140.538 42.6814 140.796 42.9387 141.113 42.9387C141.43 42.9387 141.688 42.6814 141.688 42.3641V36.044C141.688 35.5717 141.147 35.3006 140.768 35.5844L138.47 37.308C138.216 37.4984 138.165 37.8586 138.355 38.1124C138.546 38.3662 138.906 38.4177 139.16 38.2273Z" fill="#252A3F"/>
<path d="M148.769 50.7907C148.773 50.829 148.769 50.8654 148.758 50.8999C148.75 50.9229 148.739 50.942 148.723 50.9573C148.712 50.9727 148.697 50.988 148.677 51.0033C148.643 51.0263 148.601 51.0474 148.551 51.0665C148.52 51.0742 148.49 51.0799 148.459 51.0838C148.432 51.0914 148.404 51.0914 148.373 51.0838C148.312 51.0799 148.258 51.0569 148.212 51.0148C148.147 50.9612 148.093 50.9018 148.051 50.8367C148.032 50.8061 148.011 50.7716 147.988 50.7333C147.965 50.695 147.944 50.6548 147.925 50.6126L147.287 49.4003C147.256 49.4003 147.226 49.4022 147.195 49.406C147.164 49.406 147.134 49.408 147.103 49.4118C147.023 49.4195 146.946 49.4214 146.873 49.4175C146.804 49.4137 146.732 49.4137 146.655 49.4175H146.546V50.4575C146.546 50.4881 146.544 50.5169 146.54 50.5437C146.54 50.5705 146.54 50.5992 146.54 50.6299C146.54 50.649 146.538 50.6739 146.534 50.7045C146.534 50.7352 146.532 50.7639 146.529 50.7907C146.521 50.8329 146.504 50.8769 146.477 50.9229C146.45 50.965 146.414 51.0014 146.368 51.032C146.287 51.0818 146.19 51.0952 146.075 51.0723C146.025 51.0608 145.977 51.0416 145.931 51.0148C145.916 51.0033 145.902 50.9899 145.891 50.9746C145.879 50.9554 145.87 50.9363 145.862 50.9171C145.854 50.898 145.847 50.8788 145.839 50.8597C145.835 50.8367 145.83 50.8156 145.822 50.7965C145.81 50.7582 145.805 50.7218 145.805 50.6873V47.4238C145.805 47.4009 145.805 47.3779 145.805 47.3549C145.809 47.3281 145.812 47.3051 145.816 47.2859C145.82 47.2438 145.833 47.2017 145.856 47.1595C145.868 47.1136 145.887 47.081 145.914 47.0619C145.937 47.0389 145.971 47.0197 146.017 47.0044C146.067 46.9853 146.138 46.9776 146.23 46.9814C146.402 46.9853 146.573 46.9872 146.741 46.9872C146.91 46.9872 147.078 46.991 147.247 46.9987C147.358 47.0063 147.475 47.0197 147.597 47.0389C147.724 47.0542 147.841 47.0829 147.948 47.1251C148.017 47.1519 148.08 47.1787 148.137 47.2055C148.21 47.2476 148.268 47.2879 148.31 47.3262C148.444 47.4487 148.545 47.5962 148.614 47.7686C148.683 47.9409 148.718 48.1152 148.718 48.2914C148.718 48.4983 148.668 48.6879 148.568 48.8602C148.473 49.0326 148.317 49.1609 148.103 49.2452C148.095 49.2528 148.084 49.2586 148.068 49.2624C148.057 49.2624 148.047 49.2643 148.04 49.2682L148.568 50.3311L148.62 50.423C148.628 50.4383 148.637 50.4556 148.649 50.4747C148.66 50.4939 148.67 50.513 148.677 50.5322C148.689 50.5513 148.699 50.5724 148.706 50.5954C148.718 50.6184 148.729 50.6394 148.741 50.6586C148.752 50.7122 148.762 50.7563 148.769 50.7907ZM147.333 48.7453C147.402 48.7453 147.467 48.7338 147.528 48.7108C147.593 48.684 147.651 48.6496 147.701 48.6074C147.754 48.5653 147.798 48.5174 147.833 48.4638C147.867 48.4063 147.886 48.345 147.89 48.2799C147.906 48.0884 147.856 47.9467 147.741 47.8548C147.626 47.759 147.475 47.7073 147.287 47.6996C147.176 47.692 147.053 47.6881 146.919 47.6881C146.789 47.6881 146.665 47.6881 146.546 47.6881C146.55 47.8452 146.55 48.0061 146.546 48.1708C146.546 48.3316 146.546 48.5231 146.546 48.7453H147.333Z" fill="white"/>
<path d="M144.415 47.3374C144.56 47.4714 144.667 47.6323 144.736 47.82C144.805 48.0039 144.832 48.1877 144.817 48.3716C144.801 48.5478 144.746 48.7106 144.65 48.86C144.554 49.0055 144.409 49.1166 144.213 49.1932C144.06 49.2583 143.909 49.3043 143.76 49.3311C143.61 49.3579 143.445 49.379 143.265 49.3943C143.185 49.402 143.116 49.4077 143.059 49.4115C143.005 49.4115 142.942 49.4134 142.869 49.4173C142.854 49.4173 142.827 49.4173 142.789 49.4173C142.754 49.4173 142.729 49.4192 142.714 49.423V50.6123C142.702 50.6851 142.687 50.7598 142.668 50.8364C142.653 50.913 142.609 50.9724 142.536 51.0145C142.494 51.0375 142.442 51.0509 142.381 51.0548C142.319 51.0586 142.264 51.0567 142.214 51.049C142.16 51.0414 142.114 51.0279 142.076 51.0088C142.042 50.9858 142.013 50.9475 141.99 50.8939C141.975 50.8594 141.959 50.8211 141.944 50.779C141.933 50.733 141.927 50.6775 141.927 50.6123V47.4351C141.927 47.4082 141.929 47.3833 141.933 47.3604C141.936 47.3374 141.94 47.3144 141.944 47.2914C141.952 47.2723 141.957 47.2512 141.961 47.2282C141.965 47.2052 141.971 47.1842 141.978 47.165C141.986 47.1459 141.994 47.1286 142.001 47.1133C142.013 47.098 142.026 47.0846 142.042 47.0731C142.061 47.0539 142.09 47.0367 142.128 47.0214C142.17 47.0061 142.231 46.9984 142.312 46.9984H142.323C142.442 46.9907 142.574 46.985 142.72 46.9812C142.865 46.9735 142.986 46.9754 143.082 46.9869C143.135 46.9946 143.185 47.0003 143.231 47.0041C143.277 47.0041 143.321 47.0061 143.363 47.0099C143.409 47.0137 143.455 47.0175 143.501 47.0214C143.547 47.0252 143.593 47.031 143.639 47.0386C143.677 47.0463 143.712 47.052 143.742 47.0559C143.777 47.0597 143.811 47.0654 143.846 47.0731C143.876 47.0807 143.909 47.0884 143.943 47.0961C143.982 47.1037 144.016 47.1171 144.047 47.1363C144.127 47.1593 144.194 47.188 144.248 47.2225C144.302 47.2569 144.357 47.2952 144.415 47.3374ZM144.07 48.2854C144.074 48.1935 144.055 48.113 144.012 48.0441C143.974 47.9751 143.919 47.9177 143.846 47.8717C143.773 47.8258 143.691 47.7894 143.599 47.7626C143.507 47.7357 143.415 47.7166 143.323 47.7051C143.3 47.7051 143.267 47.7051 143.225 47.7051C143.187 47.7013 143.145 47.6994 143.099 47.6994C143.053 47.6955 143.009 47.6936 142.967 47.6936C142.928 47.6898 142.898 47.6879 142.875 47.6879C142.856 47.684 142.833 47.6821 142.806 47.6821C142.779 47.6821 142.748 47.6821 142.714 47.6821C142.718 47.8009 142.72 47.9158 142.72 48.0268C142.72 48.1341 142.72 48.2509 142.72 48.3773C142.716 48.4463 142.714 48.5152 142.714 48.5842C142.714 48.6531 142.714 48.7201 142.714 48.7853L143.07 48.7795C143.162 48.7795 143.264 48.7738 143.375 48.7623C143.486 48.7508 143.591 48.7278 143.691 48.6933C143.79 48.6589 143.875 48.6091 143.943 48.5439C144.016 48.4788 144.058 48.3927 144.07 48.2854Z" fill="white"/>
<path d="M140.938 50.6527C140.941 50.6757 140.943 50.6987 140.943 50.7217C140.947 50.7408 140.949 50.7638 140.949 50.7906C140.949 50.8366 140.936 50.8787 140.909 50.917C140.897 50.9362 140.882 50.9553 140.863 50.9745C140.844 50.9898 140.821 51.0032 140.794 51.0147C140.698 51.0683 140.597 51.0875 140.489 51.0722C140.436 51.0568 140.388 51.0319 140.346 50.9975C140.338 50.9898 140.332 50.986 140.329 50.986C140.325 50.9822 140.321 50.9764 140.317 50.9687C140.313 50.9649 140.309 50.9611 140.306 50.9573C140.302 50.9496 140.296 50.9438 140.288 50.94C140.269 50.9209 140.254 50.9036 140.242 50.8883C140.231 50.8692 140.219 50.85 140.208 50.8309C140.2 50.8117 140.191 50.7945 140.179 50.7791C140.172 50.76 140.162 50.7408 140.15 50.7217C140.143 50.7064 140.135 50.693 140.127 50.6815C140.12 50.6661 140.114 50.6508 140.11 50.6355C140.095 50.601 140.085 50.5704 140.081 50.5436L139.961 50.262C139.697 50.262 139.432 50.264 139.168 50.2678C138.907 50.2678 138.645 50.2659 138.381 50.262L138.26 50.5436C138.252 50.5589 138.247 50.5742 138.243 50.5895C138.243 50.6049 138.239 50.6202 138.231 50.6355C138.224 50.6508 138.216 50.6661 138.208 50.6815C138.205 50.693 138.199 50.7064 138.191 50.7217C138.18 50.7408 138.168 50.76 138.157 50.7791C138.149 50.7945 138.14 50.8117 138.128 50.8309C138.12 50.85 138.111 50.8692 138.099 50.8883C138.088 50.9036 138.072 50.9209 138.053 50.94C138.046 50.9438 138.04 50.9496 138.036 50.9573C138.032 50.9611 138.028 50.9649 138.025 50.9687C138.021 50.9764 138.017 50.9822 138.013 50.986C138.009 50.986 138.004 50.9898 137.996 50.9975C137.954 51.0319 137.906 51.0568 137.852 51.0722C137.745 51.0875 137.643 51.0683 137.548 51.0147C137.521 51.0032 137.498 50.9898 137.479 50.9745C137.46 50.9553 137.444 50.9362 137.433 50.917C137.406 50.8787 137.393 50.8366 137.393 50.7906C137.393 50.7638 137.393 50.7408 137.393 50.7217C137.396 50.6987 137.4 50.6757 137.404 50.6527C137.412 50.6183 137.421 50.5838 137.433 50.5493C137.444 50.5148 137.45 50.4976 137.45 50.4976L138.645 47.5559L138.68 47.464C138.687 47.441 138.697 47.4199 138.708 47.4008C138.72 47.3816 138.729 47.3586 138.737 47.3318C138.756 47.282 138.777 47.238 138.8 47.1997C138.812 47.1767 138.825 47.1556 138.84 47.1365C138.856 47.1173 138.871 47.0982 138.886 47.079C138.909 47.0484 138.942 47.0235 138.984 47.0043C139.038 46.9852 139.099 46.9756 139.168 46.9756C139.241 46.9756 139.304 46.9852 139.358 47.0043C139.4 47.0235 139.432 47.0484 139.455 47.079C139.482 47.1135 139.511 47.1537 139.541 47.1997C139.564 47.238 139.585 47.282 139.605 47.3318C139.612 47.3586 139.622 47.3816 139.633 47.4008C139.645 47.4199 139.654 47.441 139.662 47.464L139.697 47.5559L140.892 50.4976C140.892 50.4976 140.897 50.5148 140.909 50.5493C140.92 50.5838 140.93 50.6183 140.938 50.6527ZM139.576 49.2451C139.526 49.134 139.474 49.0191 139.421 48.9003C139.371 48.7816 139.317 48.6609 139.26 48.5384C139.245 48.5039 139.229 48.4694 139.214 48.435C139.199 48.3967 139.183 48.3603 139.168 48.3258C139.156 48.3603 139.143 48.3967 139.128 48.435C139.112 48.4694 139.097 48.5039 139.082 48.5384C139.024 48.6609 138.969 48.7816 138.915 48.9003C138.865 49.0191 138.816 49.134 138.766 49.2451L138.662 49.4979H139.679L139.576 49.2451Z" fill="white"/>
</g>
<g opacity="0.78">
<path d="M190.669 57.3025H168.262C166.358 57.3025 164.814 55.7591 164.814 53.8552V50.9824H194.117V53.8552C194.117 55.7591 192.573 57.3025 190.669 57.3025Z" fill="#D3DCFB"/>
<path d="M168.262 56.1534C166.995 56.1534 165.964 55.1224 165.964 53.8552V50.9824H192.968V53.8552C192.968 55.1224 191.937 56.1534 190.67 56.1534H168.262Z" fill="#6A0DB4"/>
<path d="M190.669 30.2988H168.262C166.361 30.2988 164.814 31.8453 164.814 33.7462V51.5574C164.814 53.4582 166.361 55.0047 168.262 55.0047H190.669C192.57 55.0047 194.117 53.4582 194.117 51.5574C194.117 51.1568 194.117 34.2625 194.117 33.7462C194.117 31.8453 192.57 30.2988 190.669 30.2988Z" fill="#EBF5FC"/>
<path d="M168.262 53.8547C166.993 53.8547 165.964 52.8257 165.964 51.5564V46.3854C165.964 45.7508 166.478 45.2363 167.113 45.2363H191.819C192.454 45.2363 192.968 45.7508 192.968 46.3854V51.5564C192.968 52.8257 191.939 53.8547 190.67 53.8547H168.262Z" fill="#A12BFF"/>
<path d="M171.134 33.7455C171.769 33.7455 172.284 33.231 172.284 32.5964C172.284 31.9617 171.769 31.4473 171.134 31.4473C170.5 31.4473 169.985 31.9617 169.985 32.5964C169.985 33.231 170.5 33.7455 171.134 33.7455Z" fill="#AAB9E5"/>
<path d="M171.134 33.171C170.658 33.171 170.272 32.7851 170.272 32.3092V28.8618C170.272 28.3859 170.658 28 171.134 28C171.61 28 171.996 28.3859 171.996 28.8618V32.3092C171.996 32.7851 171.61 33.171 171.134 33.171Z" fill="#D3DCFB"/>
<path d="M187.797 33.7455C188.431 33.7455 188.946 33.231 188.946 32.5964C188.946 31.9617 188.431 31.4473 187.797 31.4473C187.162 31.4473 186.647 31.9617 186.647 32.5964C186.647 33.231 187.162 33.7455 187.797 33.7455Z" fill="#AAB9E5"/>
<path d="M187.796 33.171C187.32 33.171 186.935 32.7851 186.935 32.3092V28.8618C186.935 28.3859 187.32 28 187.796 28C188.272 28 188.658 28.3859 188.658 28.8618V32.3092C188.658 32.7851 188.272 33.171 187.796 33.171Z" fill="#D3DCFB"/>
<path d="M179.466 33.7455C180.1 33.7455 180.615 33.231 180.615 32.5964C180.615 31.9617 180.1 31.4473 179.466 31.4473C178.831 31.4473 178.316 31.9617 178.316 32.5964C178.316 33.231 178.831 33.7455 179.466 33.7455Z" fill="#AAB9E5"/>
<path d="M179.465 33.171C178.989 33.171 178.604 32.7851 178.604 32.3092V28.8618C178.604 28.3859 178.989 28 179.465 28C179.941 28 180.327 28.3859 180.327 28.8618V32.3092C180.327 32.7851 179.941 33.171 179.465 33.171Z" fill="#D3DCFB"/>
<path d="M181.764 42.9389C183.031 42.9389 184.062 41.908 184.062 40.6407V37.7679C184.062 36.5007 183.031 35.4697 181.764 35.4697C180.497 35.4697 179.466 36.5007 179.466 37.7679V40.6407C179.466 41.908 180.497 42.9389 181.764 42.9389ZM180.615 37.7679C180.615 37.1343 181.13 36.6188 181.764 36.6188C182.398 36.6188 182.913 37.1343 182.913 37.7679V40.6407C182.913 41.2743 182.398 41.7898 181.764 41.7898C181.13 41.7898 180.615 41.2743 180.615 40.6407V37.7679Z" fill="#252A3F"/>
<path d="M175.788 38.2273L177.167 37.1931V42.3641C177.167 42.6814 177.425 42.9387 177.742 42.9387C178.059 42.9387 178.316 42.6814 178.316 42.3641V36.044C178.316 35.5717 177.776 35.3006 177.397 35.5844L175.099 37.308C174.845 37.4984 174.794 37.8586 174.984 38.1124C175.174 38.3662 175.535 38.4177 175.788 38.2273Z" fill="#252A3F"/>
<path d="M185.477 47.2243C185.481 47.2435 185.481 47.2626 185.477 47.2818C185.477 47.3009 185.471 47.322 185.459 47.345C185.444 47.3986 185.427 47.4465 185.408 47.4886C185.385 47.5423 185.356 47.5882 185.322 47.6265C185.306 47.6495 185.291 47.6725 185.276 47.6955C185.264 47.7146 185.253 47.7338 185.241 47.7529L185.166 47.8506L184.431 48.9135L184.299 49.0801V50.6085C184.291 50.6276 184.287 50.6468 184.287 50.6659C184.287 50.6851 184.285 50.7061 184.282 50.7291C184.274 50.7483 184.268 50.7674 184.264 50.7866C184.261 50.8019 184.255 50.8191 184.247 50.8383C184.239 50.8536 184.236 50.8651 184.236 50.8728C184.232 50.8804 184.228 50.8862 184.224 50.89C184.224 50.8938 184.222 50.8996 184.218 50.9072C184.195 50.9455 184.163 50.98 184.121 51.0107C184.036 51.0528 183.941 51.0624 183.833 51.0394C183.772 51.0317 183.726 51.0126 183.696 50.9819C183.676 50.9704 183.661 50.957 183.65 50.9417C183.638 50.9264 183.627 50.9091 183.615 50.89C183.607 50.867 183.6 50.8459 183.592 50.8268C183.584 50.8076 183.579 50.7885 183.575 50.7693C183.567 50.7502 183.563 50.733 183.563 50.7176C183.563 50.6985 183.563 50.6812 183.563 50.6659V49.0974L183.437 48.902L182.69 47.8449L182.627 47.7414C182.604 47.707 182.575 47.6667 182.541 47.6208C182.51 47.5786 182.483 47.5327 182.46 47.4829C182.445 47.4599 182.432 47.4369 182.42 47.4139C182.412 47.3871 182.405 47.3603 182.397 47.3335C182.386 47.2952 182.384 47.2569 182.391 47.2186C182.403 47.1688 182.426 47.1267 182.46 47.0922C182.499 47.0577 182.539 47.0309 182.581 47.0117C182.635 46.9734 182.696 46.9581 182.765 46.9658C182.807 46.9658 182.843 46.9734 182.874 46.9888C182.905 47.0041 182.935 47.0213 182.966 47.0405C183 47.0673 183.033 47.096 183.064 47.1267C183.098 47.1573 183.129 47.1899 183.155 47.2243C183.186 47.2626 183.215 47.299 183.242 47.3335C183.268 47.3641 183.295 47.4005 183.322 47.4427L183.339 47.4656C183.431 47.5882 183.517 47.707 183.598 47.8219C183.678 47.933 183.763 48.0536 183.851 48.1838C183.858 48.1915 183.87 48.2068 183.885 48.2298C183.9 48.2528 183.918 48.2796 183.937 48.3102C183.952 48.2834 183.966 48.2604 183.977 48.2413C183.992 48.2183 184.004 48.203 184.012 48.1953C184.1 48.0651 184.184 47.9425 184.264 47.8276C184.345 47.7127 184.431 47.594 184.523 47.4714L184.534 47.4484C184.565 47.4139 184.592 47.3795 184.615 47.345C184.642 47.3067 184.67 47.2684 184.701 47.2301C184.751 47.1611 184.818 47.1018 184.902 47.052C184.963 47.0098 185.027 46.983 185.092 46.9715C185.165 46.9639 185.228 46.9792 185.281 47.0175C185.304 47.0328 185.325 47.0462 185.345 47.0577C185.368 47.0692 185.387 47.0826 185.402 47.0979C185.433 47.1324 185.458 47.1745 185.477 47.2243Z" fill="white"/>
<path d="M181.969 50.6537C181.973 50.6767 181.975 50.6997 181.975 50.7227C181.978 50.7418 181.98 50.7648 181.98 50.7916C181.98 50.8376 181.967 50.8797 181.94 50.918C181.929 50.9372 181.913 50.9563 181.894 50.9755C181.875 50.9908 181.852 51.0042 181.825 51.0157C181.729 51.0693 181.628 51.0885 181.521 51.0731C181.467 51.0578 181.419 51.0329 181.377 50.9985C181.369 50.9908 181.364 50.987 181.36 50.987C181.356 50.9831 181.352 50.9774 181.348 50.9697C181.344 50.9659 181.341 50.9621 181.337 50.9582C181.333 50.9506 181.327 50.9448 181.32 50.941C181.3 50.9218 181.285 50.9046 181.274 50.8893C181.262 50.8701 181.251 50.851 181.239 50.8318C181.231 50.8127 181.222 50.7954 181.21 50.7801C181.203 50.761 181.193 50.7418 181.182 50.7227C181.174 50.7073 181.166 50.6939 181.159 50.6824C181.151 50.6671 181.145 50.6518 181.141 50.6365C181.126 50.602 181.117 50.5714 181.113 50.5446L180.992 50.263C180.728 50.263 180.464 50.2649 180.199 50.2688C179.939 50.2688 179.676 50.2668 179.412 50.263L179.291 50.5446C179.284 50.5599 179.278 50.5752 179.274 50.5905C179.274 50.6058 179.27 50.6212 179.263 50.6365C179.255 50.6518 179.247 50.6671 179.24 50.6824C179.236 50.6939 179.23 50.7073 179.222 50.7227C179.211 50.7418 179.199 50.761 179.188 50.7801C179.18 50.7954 179.171 50.8127 179.159 50.8318C179.152 50.851 179.142 50.8701 179.131 50.8893C179.119 50.9046 179.104 50.9218 179.085 50.941C179.077 50.9448 179.071 50.9506 179.067 50.9582C179.063 50.9621 179.06 50.9659 179.056 50.9697C179.052 50.9774 179.048 50.9831 179.044 50.987C179.041 50.987 179.035 50.9908 179.027 50.9985C178.985 51.0329 178.937 51.0578 178.883 51.0731C178.776 51.0885 178.675 51.0693 178.579 51.0157C178.552 51.0042 178.529 50.9908 178.51 50.9755C178.491 50.9563 178.476 50.9372 178.464 50.918C178.437 50.8797 178.424 50.8376 178.424 50.7916C178.424 50.7648 178.424 50.7418 178.424 50.7227C178.428 50.6997 178.431 50.6767 178.435 50.6537C178.443 50.6192 178.453 50.5848 178.464 50.5503C178.476 50.5158 178.481 50.4986 178.481 50.4986L179.676 47.5569L179.711 47.4649C179.718 47.442 179.728 47.4209 179.74 47.4017C179.751 47.3826 179.761 47.3596 179.768 47.3328C179.787 47.283 179.809 47.2389 179.831 47.2006C179.843 47.1777 179.856 47.1566 179.872 47.1374C179.887 47.1183 179.902 47.0991 179.918 47.08C179.941 47.0493 179.973 47.0244 180.015 47.0053C180.069 46.9861 180.13 46.9766 180.199 46.9766C180.272 46.9766 180.335 46.9861 180.389 47.0053C180.431 47.0244 180.464 47.0493 180.486 47.08C180.513 47.1145 180.542 47.1547 180.573 47.2006C180.596 47.2389 180.617 47.283 180.636 47.3328C180.644 47.3596 180.653 47.3826 180.665 47.4017C180.676 47.4209 180.686 47.442 180.693 47.4649L180.728 47.5569L181.923 50.4986C181.923 50.4986 181.929 50.5158 181.94 50.5503C181.952 50.5848 181.961 50.6192 181.969 50.6537ZM180.607 49.2461C180.557 49.135 180.506 49.0201 180.452 48.9013C180.402 48.7826 180.349 48.6619 180.291 48.5394C180.276 48.5049 180.26 48.4704 180.245 48.4359C180.23 48.3976 180.215 48.3612 180.199 48.3268C180.188 48.3612 180.174 48.3976 180.159 48.4359C180.144 48.4704 180.128 48.5049 180.113 48.5394C180.056 48.6619 180 48.7826 179.946 48.9013C179.897 49.0201 179.847 49.135 179.797 49.2461L179.694 49.4989H180.711L180.607 49.2461Z" fill="white"/>
<path d="M177.438 50.6311C177.435 50.6771 177.429 50.725 177.421 50.7748C177.414 50.8246 177.4 50.8705 177.381 50.9127C177.362 50.9586 177.337 50.9931 177.306 51.0161C177.264 51.0544 177.214 51.0755 177.157 51.0793C177.103 51.0984 177.052 51.1042 177.002 51.0965C176.952 51.0889 176.906 51.0755 176.864 51.0563C176.81 51.0218 176.77 50.9816 176.743 50.9357C176.72 50.8859 176.703 50.8342 176.692 50.7805C176.68 50.7269 176.674 50.6714 176.674 50.6139C176.674 50.5565 176.674 50.5028 176.674 50.453V50.0049L176.669 49.1258C176.669 49.0645 176.669 49.0166 176.669 48.9822C176.669 48.9477 176.669 48.9171 176.669 48.8902C176.669 48.8596 176.667 48.827 176.663 48.7926C176.663 48.7543 176.663 48.7006 176.663 48.6317C176.663 48.6202 176.663 48.601 176.663 48.5742C176.667 48.5436 176.665 48.4651 176.657 48.3387C176.508 48.5876 176.383 48.7887 176.284 48.9419C176.188 49.0913 176.106 49.2082 176.037 49.2924C175.971 49.3729 175.914 49.4284 175.864 49.459C175.814 49.4859 175.763 49.5012 175.709 49.505C175.678 49.5088 175.648 49.5031 175.617 49.4878C175.587 49.4725 175.556 49.4533 175.525 49.4303C175.498 49.4073 175.472 49.3844 175.445 49.3614C175.422 49.3346 175.403 49.3097 175.387 49.2867C175.295 49.1718 175.192 49.0339 175.077 48.873C174.962 48.7121 174.843 48.5168 174.721 48.287C174.721 48.2908 174.719 48.354 174.715 48.4766C174.715 48.5991 174.715 48.7523 174.715 48.9362C174.715 49.1162 174.713 49.3116 174.709 49.5223C174.709 49.7291 174.707 49.9225 174.704 50.1026C174.704 50.2826 174.702 50.4339 174.698 50.5565C174.694 50.6752 174.69 50.7346 174.686 50.7346C174.686 50.7997 174.671 50.861 174.64 50.9184C174.61 50.972 174.568 51.0161 174.514 51.0506C174.464 51.085 174.405 51.1042 174.336 51.108C174.267 51.1119 174.192 51.0927 174.112 51.0506C174.062 51.0199 174.024 50.9759 173.997 50.9184C173.974 50.861 173.959 50.8073 173.951 50.7575C173.947 50.7039 173.943 50.6522 173.939 50.6024C173.939 50.5526 173.939 50.5009 173.939 50.4473L173.945 49.9991L173.951 49.1143V48.3444C173.951 48.0112 173.962 47.6837 173.985 47.3619C173.985 47.3198 173.989 47.2815 173.997 47.247C174.008 47.2087 174.022 47.1723 174.037 47.1378C174.068 47.0766 174.108 47.0306 174.158 47C174.215 46.9655 174.277 46.9482 174.342 46.9482C174.368 46.9482 174.393 46.9502 174.416 46.954C174.443 46.954 174.468 46.9559 174.491 46.9597C174.568 46.9751 174.633 47.021 174.686 47.0976C174.744 47.1704 174.797 47.2336 174.847 47.2872C174.878 47.3217 174.91 47.3638 174.945 47.4136C174.979 47.4634 175.014 47.5151 175.048 47.5688C175.083 47.6224 175.115 47.6741 175.146 47.7239C175.177 47.7737 175.203 47.8177 175.226 47.856C175.326 48.0169 175.414 48.1644 175.491 48.2984C175.571 48.4325 175.646 48.5474 175.715 48.6432C175.726 48.6317 175.74 48.6164 175.755 48.5972C175.77 48.5742 175.786 48.5513 175.801 48.5283C175.82 48.5015 175.835 48.4766 175.847 48.4536C175.862 48.4306 175.874 48.4114 175.881 48.3961C175.92 48.3348 175.958 48.2755 175.996 48.218C176.035 48.1567 176.075 48.0935 176.117 48.0284C176.163 47.9595 176.209 47.8848 176.255 47.8043C176.305 47.7239 176.362 47.632 176.427 47.5285C176.454 47.4826 176.489 47.427 176.531 47.3619C176.573 47.2968 176.621 47.2336 176.674 47.1723C176.728 47.111 176.784 47.0593 176.841 47.0172C176.902 46.9712 176.964 46.9482 177.025 46.9482C177.055 46.9482 177.082 46.9502 177.105 46.954C177.128 46.954 177.151 46.9559 177.174 46.9597C177.22 46.9636 177.264 46.9846 177.306 47.0229C177.337 47.0536 177.36 47.0861 177.375 47.1206C177.391 47.1704 177.4 47.2125 177.404 47.247C177.408 47.2738 177.41 47.2987 177.41 47.3217C177.414 47.3447 177.416 47.3677 177.416 47.3907C177.416 47.6052 177.417 47.8177 177.421 48.0284C177.425 48.2391 177.427 48.4517 177.427 48.6662C177.427 48.9266 177.427 49.1948 177.427 49.4705C177.431 49.7463 177.433 50.0145 177.433 50.2749C177.433 50.3285 177.435 50.386 177.438 50.4473C177.442 50.5086 177.442 50.5699 177.438 50.6311Z" fill="white"/>
</g>
<g opacity="0.63">
<path d="M227.296 57.3025H204.889C202.985 57.3025 201.441 55.7591 201.441 53.8552V50.9824H230.744V53.8552C230.744 55.7591 229.2 57.3025 227.296 57.3025Z" fill="#D3DCFB"/>
<path d="M204.889 56.1534C203.622 56.1534 202.591 55.1224 202.591 53.8552V50.9824H229.595V53.8552C229.595 55.1224 228.564 56.1534 227.297 56.1534H204.889Z" fill="#6A0DB4"/>
<path d="M227.296 30.2988H204.889C202.988 30.2988 201.441 31.8453 201.441 33.7462V51.5574C201.441 53.4582 202.988 55.0047 204.889 55.0047H227.296C229.197 55.0047 230.744 53.4582 230.744 51.5574C230.744 51.1568 230.744 34.2625 230.744 33.7462C230.744 31.8453 229.197 30.2988 227.296 30.2988Z" fill="#EBF5FC"/>
<path d="M204.889 53.8547C203.62 53.8547 202.591 52.8257 202.591 51.5564V46.3854C202.591 45.7508 203.105 45.2363 203.74 45.2363H228.446C229.08 45.2363 229.595 45.7508 229.595 46.3854V51.5564C229.595 52.8257 228.566 53.8547 227.297 53.8547H204.889Z" fill="#A12BFF"/>
<path d="M207.761 33.7455C208.396 33.7455 208.911 33.231 208.911 32.5964C208.911 31.9617 208.396 31.4473 207.761 31.4473C207.127 31.4473 206.612 31.9617 206.612 32.5964C206.612 33.231 207.127 33.7455 207.761 33.7455Z" fill="#AAB9E5"/>
<path d="M207.761 33.171C207.285 33.171 206.899 32.7851 206.899 32.3092V28.8618C206.899 28.3859 207.285 28 207.761 28C208.237 28 208.623 28.3859 208.623 28.8618V32.3092C208.623 32.7851 208.237 33.171 207.761 33.171Z" fill="#D3DCFB"/>
<path d="M224.424 33.7455C225.058 33.7455 225.573 33.231 225.573 32.5964C225.573 31.9617 225.058 31.4473 224.424 31.4473C223.789 31.4473 223.274 31.9617 223.274 32.5964C223.274 33.231 223.789 33.7455 224.424 33.7455Z" fill="#AAB9E5"/>
<path d="M224.423 33.171C223.947 33.171 223.562 32.7851 223.562 32.3092V28.8618C223.562 28.3859 223.947 28 224.423 28C224.899 28 225.285 28.3859 225.285 28.8618V32.3092C225.285 32.7851 224.899 33.171 224.423 33.171Z" fill="#D3DCFB"/>
<path d="M216.092 33.7455C216.727 33.7455 217.242 33.231 217.242 32.5964C217.242 31.9617 216.727 31.4473 216.092 31.4473C215.458 31.4473 214.943 31.9617 214.943 32.5964C214.943 33.231 215.458 33.7455 216.092 33.7455Z" fill="#AAB9E5"/>
<path d="M216.092 33.171C215.616 33.171 215.23 32.7851 215.23 32.3092V28.8618C215.23 28.3859 215.616 28 216.092 28C216.568 28 216.954 28.3859 216.954 28.8618V32.3092C216.954 32.7851 216.568 33.171 216.092 33.171Z" fill="#D3DCFB"/>
<path d="M218.391 42.9389C219.658 42.9389 220.689 41.908 220.689 40.6407V37.7679C220.689 36.5007 219.658 35.4697 218.391 35.4697C217.124 35.4697 216.093 36.5007 216.093 37.7679V40.6407C216.093 41.908 217.124 42.9389 218.391 42.9389ZM217.242 37.7679C217.242 37.1343 217.757 36.6188 218.391 36.6188C219.025 36.6188 219.54 37.1343 219.54 37.7679V40.6407C219.54 41.2743 219.025 41.7898 218.391 41.7898C217.757 41.7898 217.242 41.2743 217.242 40.6407V37.7679Z" fill="#252A3F"/>
<path d="M212.415 38.2273L213.794 37.1931V42.3641C213.794 42.6814 214.052 42.9387 214.369 42.9387C214.686 42.9387 214.943 42.6814 214.943 42.3641V36.044C214.943 35.5717 214.403 35.3006 214.024 35.5844L211.726 37.308C211.472 37.4984 211.421 37.8586 211.611 38.1124C211.801 38.3662 212.161 38.4177 212.415 38.2273Z" fill="#252A3F"/>
<path d="M222.094 50.6075C222.09 50.6727 222.081 50.7416 222.065 50.8144C222.054 50.8872 222.018 50.9465 221.956 50.9925C221.91 51.0308 221.859 51.0538 221.801 51.0614C221.744 51.0691 221.686 51.0653 221.629 51.0499C221.575 51.0385 221.523 51.0193 221.474 50.9925C221.424 50.9618 221.384 50.9255 221.353 50.8833C221.223 50.7224 221.102 50.5577 220.991 50.3892C220.884 50.2168 220.775 50.0445 220.664 49.8721L220.181 49.1424C220.116 49.039 220.047 48.9241 219.974 48.7977C219.901 48.6675 219.827 48.5468 219.75 48.4357L219.733 50.6305V50.6822C219.733 50.7435 219.721 50.8048 219.698 50.8661C219.679 50.9235 219.645 50.9733 219.595 51.0155C219.557 51.0461 219.507 51.0672 219.445 51.0787C219.35 51.0978 219.269 51.0921 219.204 51.0614C219.143 51.0308 219.093 50.9887 219.055 50.935C219.02 50.8814 218.995 50.8201 218.98 50.7512C218.969 50.6784 218.967 50.6075 218.974 50.5386V50.4409L218.986 49.9928L218.992 49.1597C218.995 49.0371 218.997 48.9126 218.997 48.7862C218.997 48.656 218.997 48.5238 218.997 48.3898C218.993 48.225 218.993 48.0508 218.997 47.8669C219.005 47.683 219.013 47.5107 219.02 47.3498C219.028 47.2617 219.049 47.187 219.083 47.1257C219.099 47.0721 219.139 47.0261 219.204 46.9878C219.246 46.961 219.3 46.9438 219.365 46.9361C219.434 46.9285 219.493 46.9304 219.543 46.9419C219.562 46.9495 219.581 46.9591 219.601 46.9706C219.62 46.9783 219.639 46.9878 219.658 46.9993C219.677 47.0146 219.694 47.03 219.71 47.0453C219.729 47.0606 219.746 47.0778 219.761 47.097C219.781 47.1162 219.798 47.1372 219.813 47.1602C219.828 47.1794 219.844 47.1985 219.859 47.2177C219.871 47.2406 219.882 47.2617 219.894 47.2809C219.905 47.3 219.919 47.3192 219.934 47.3383L219.997 47.4302L221.324 49.5216V49.1424C221.324 49.0198 221.322 48.8954 221.319 48.769C221.319 48.6387 221.317 48.5047 221.313 48.3668C221.313 48.2059 221.313 48.0335 221.313 47.8497C221.317 47.6658 221.322 47.4934 221.33 47.3326C221.33 47.2675 221.349 47.1928 221.387 47.1085C221.407 47.0587 221.439 47.0185 221.485 46.9878C221.531 46.9572 221.583 46.9361 221.64 46.9246C221.698 46.9131 221.755 46.9131 221.813 46.9246C221.87 46.9361 221.92 46.9591 221.962 46.9936C221.974 47.0051 221.985 47.0185 221.996 47.0338C222.008 47.0491 222.018 47.0664 222.025 47.0855C222.044 47.1353 222.056 47.1794 222.06 47.2177C222.071 47.2713 222.077 47.3192 222.077 47.3613C222.077 47.8401 222.077 48.3285 222.077 48.8264C222.081 49.3244 222.085 49.8127 222.088 50.2915C222.088 50.3452 222.09 50.3988 222.094 50.4524C222.098 50.5022 222.098 50.5539 222.094 50.6075Z" fill="white"/>
<path d="M217.818 47.2927C217.841 47.4766 217.854 47.6911 217.858 47.9362C217.862 48.1776 217.858 48.4227 217.846 48.6717C217.839 48.9168 217.822 49.1505 217.795 49.3726C217.768 49.591 217.735 49.7672 217.697 49.9012C217.67 49.9817 217.638 50.0659 217.599 50.154C217.565 50.2383 217.527 50.3149 217.484 50.3839C217.423 50.4873 217.349 50.5792 217.26 50.6596C217.172 50.7363 217.075 50.8033 216.967 50.8607C216.864 50.9144 216.753 50.9565 216.634 50.9871C216.519 51.0178 216.404 51.035 216.289 51.0388C216.086 51.0465 215.893 51.0178 215.709 50.9527C215.529 50.8837 215.362 50.7765 215.209 50.6309C215.094 50.5198 215.002 50.4011 214.933 50.2747C214.865 50.1483 214.811 50.0161 214.773 49.8782C214.734 49.7365 214.709 49.591 214.698 49.4416C214.69 49.2922 214.686 49.139 214.686 48.9819C214.686 48.9092 214.684 48.8192 214.681 48.7119C214.681 48.6008 214.681 48.4878 214.681 48.3729C214.681 48.2542 214.681 48.1393 214.681 48.0282C214.681 47.9171 214.683 47.8233 214.686 47.7466C214.686 47.6969 214.686 47.6432 214.686 47.5858C214.686 47.5245 214.688 47.4651 214.692 47.4077C214.7 47.3464 214.711 47.2889 214.727 47.2353C214.742 47.1778 214.765 47.1261 214.796 47.0802C214.83 47.0304 214.878 46.994 214.939 46.971C215 46.948 215.064 46.9365 215.129 46.9365C215.198 46.9365 215.263 46.9499 215.324 46.9767C215.385 47.0036 215.435 47.0419 215.474 47.0917C215.493 47.1223 215.506 47.1529 215.514 47.1836C215.521 47.2142 215.527 47.2487 215.531 47.287C215.539 47.4134 215.542 47.557 215.542 47.7179C215.546 47.8788 215.546 48.0358 215.542 48.1891C215.542 48.3384 215.541 48.4763 215.537 48.6027C215.533 48.7291 215.531 48.823 215.531 48.8843C215.531 49.1141 215.542 49.3228 215.565 49.5105C215.588 49.6944 215.642 49.8476 215.726 49.9702C215.803 50.0813 215.893 50.1521 215.996 50.1828C216.1 50.2134 216.203 50.223 216.307 50.2115C216.402 50.2 216.498 50.1655 216.594 50.1081C216.694 50.0468 216.772 49.9587 216.83 49.8438C216.852 49.8016 216.872 49.7538 216.887 49.7001C216.902 49.6465 216.914 49.5967 216.921 49.5508C216.937 49.4052 216.95 49.2367 216.962 49.0451C216.973 48.8498 216.983 48.6506 216.99 48.4476C216.998 48.2446 217.002 48.0454 217.002 47.8501C217.002 47.6547 217 47.4785 216.996 47.3215C217.004 47.2525 217.025 47.1893 217.059 47.1319C217.09 47.0821 217.134 47.038 217.191 46.9997C217.249 46.9614 217.327 46.9423 217.427 46.9423C217.507 46.9461 217.573 46.9672 217.622 47.0055C217.672 47.0399 217.712 47.0782 217.743 47.1204C217.778 47.1702 217.802 47.2276 217.818 47.2927Z" fill="white"/>
<path d="M213.675 47.1199C213.714 47.1697 213.733 47.2194 213.733 47.2692C213.737 47.2922 213.737 47.321 213.733 47.3554C213.733 47.3899 213.731 47.4167 213.727 47.4359C213.715 47.4742 213.689 47.5125 213.647 47.5508C213.635 47.5623 213.622 47.5738 213.606 47.5852C213.591 47.5929 213.572 47.6006 213.549 47.6082C213.526 47.6159 213.503 47.6216 213.48 47.6255C213.457 47.6255 213.432 47.6274 213.405 47.6312C213.378 47.635 213.353 47.6389 213.331 47.6427C213.308 47.6427 213.283 47.6427 213.256 47.6427H212.928V47.7404C212.924 48.0851 212.93 48.4298 212.946 48.7746C212.965 49.1193 212.963 49.464 212.94 49.8088C212.928 49.9237 212.911 50.0424 212.888 50.165C212.865 50.2837 212.827 50.3967 212.773 50.504C212.723 50.6074 212.656 50.7032 212.572 50.7913C212.488 50.8794 212.381 50.9483 212.25 50.9981C212.128 51.0441 211.994 51.0766 211.848 51.0958C211.703 51.1149 211.555 51.1169 211.406 51.1015C211.26 51.0862 211.12 51.0536 210.986 51.0039C210.852 50.9541 210.739 50.8851 210.647 50.797C210.598 50.7511 210.552 50.6955 210.509 50.6304C210.467 50.5614 210.439 50.4906 210.423 50.4178C210.408 50.3412 210.412 50.2684 210.435 50.1995C210.458 50.1267 210.511 50.0673 210.596 50.0214C210.668 49.9792 210.734 49.9697 210.791 49.9926C210.852 50.0156 210.91 50.052 210.963 50.1018C211.021 50.1516 211.078 50.2033 211.136 50.2569C211.197 50.3106 211.264 50.345 211.337 50.3604C211.494 50.3987 211.622 50.4006 211.722 50.3661C211.821 50.3278 211.9 50.2684 211.957 50.188C212.015 50.1075 212.055 50.0099 212.078 49.895C212.105 49.7801 212.12 49.6632 212.124 49.5445C212.132 49.4257 212.134 49.3108 212.13 49.1998C212.126 49.0887 212.126 48.9948 212.13 48.9182C212.134 48.7152 212.134 48.516 212.13 48.3207C212.126 48.1253 212.124 47.9262 212.124 47.7231V47.7002C212.128 47.6925 212.13 47.681 212.13 47.6657H212.112C212.089 47.6619 212.042 47.6599 211.969 47.6599C211.896 47.6561 211.818 47.6542 211.733 47.6542C211.649 47.6542 211.569 47.6542 211.492 47.6542C211.419 47.6504 211.371 47.6485 211.348 47.6485H211.268V47.6427C211.237 47.6389 211.207 47.6331 211.176 47.6255C211.145 47.6178 211.115 47.6101 211.084 47.6025C211.011 47.5795 210.956 47.5431 210.917 47.4933C210.898 47.4742 210.883 47.4435 210.871 47.4014C210.864 47.3593 210.86 47.3229 210.86 47.2922C210.86 47.2731 210.86 47.252 210.86 47.229C210.86 47.206 210.864 47.185 210.871 47.1658C210.879 47.1237 210.906 47.0854 210.952 47.0509C210.982 47.0279 211.019 47.0107 211.061 46.9992C211.088 46.9915 211.115 46.9858 211.141 46.982C211.168 46.9781 211.197 46.9743 211.228 46.9705C211.254 46.9666 211.281 46.9647 211.308 46.9647C211.335 46.9647 211.364 46.9647 211.394 46.9647H211.946C211.969 46.9647 211.996 46.9647 212.026 46.9647C212.057 46.9647 212.091 46.9628 212.13 46.959C212.279 46.959 212.427 46.959 212.572 46.959C212.718 46.959 212.859 46.9609 212.997 46.9647H213.032C213.074 46.9647 213.114 46.9666 213.152 46.9705C213.195 46.9705 213.237 46.9705 213.279 46.9705C213.367 46.9743 213.449 46.9915 213.526 47.0222C213.587 47.0375 213.637 47.0701 213.675 47.1199Z" fill="white"/>
</g>
<line x1="16" y1="70.5" x2="300" y2="70.5" stroke="url(#paint0_linear_1671_7742)" stroke-dasharray="2 2"/>
<circle cx="17.5" cy="70.5" r="2.5" fill="#6ED904"/>
</g>
<defs>
<linearGradient id="paint0_linear_1671_7742" x1="16" y1="71" x2="639.629" y2="71" gradientUnits="userSpaceOnUse">
<stop stop-color="#31FF2D"/>
<stop offset="0.625717" stop-color="#E11690" stop-opacity="0.61"/>
</linearGradient>
<clipPath id="clip0_1671_7742">
<rect width="292" height="102.768" fill="white"/>
</clipPath>
</defs>
</svg>
