<svg width="292" height="103" viewBox="0 0 292 103" fill="none" xmlns="http://www.w3.org/2000/svg">
<g clip-path="url(#clip0_1654_6480)">
<rect width="292" height="102.768" fill="#1D1D26"/>
<rect x="114.537" y="33.0781" width="42.3709" height="59.253" transform="rotate(-27.8398 114.537 33.0781)" fill="#6B6A79"/>
<rect x="117.736" y="33.8213" width="37.4055" height="54.7842" transform="rotate(-27.8398 117.736 33.8213)" fill="url(#paint0_linear_1654_6480)"/>
<path d="M142.131 85.3257L179.598 65.5385L178.608 74.2969L141.141 94.0841L142.131 85.3257Z" fill="#35353E"/>
<path d="M113.324 41.7669L114.683 33.0002L142.355 85.3951L140.995 94.1617L113.324 41.7669Z" fill="#4F4F58"/>
<path d="M139.897 44.7669L145.616 55.5971L142.47 57.2589L144.363 60.8446L145.973 59.9944L145.239 58.604L146.776 57.7924L150.215 64.3052L152.484 63.1072L150.899 60.1069L155.363 57.7494L156.948 60.7497L158.997 59.6676L155.557 53.1548L159.655 50.9906L157.607 47.1122L155.704 48.117L156.593 49.8001L154.398 50.9595L148.678 40.1293L139.897 44.7669Z" fill="#F55C3B" stroke="#BB3D22" stroke-width="0.165511"/>
<rect x="143.264" y="46.3574" width="6.12391" height="5.29636" transform="rotate(-27.8398 143.264 46.3574)" fill="white"/>
<rect x="145.424" y="46.9014" width="2.81369" height="2.31716" transform="rotate(-27.8398 145.424 46.9014)" fill="#1A1A1A"/>
<path d="M151.746 13.3331L114.938 32.7725L129.856 42.7687L169.226 21.9766L151.746 13.3331Z" fill="url(#paint1_linear_1654_6480)"/>
<path d="M135.638 39.715L129.93 42.7295L131.54 45.7789C132.051 46.7458 133.586 46.6009 135.439 45.6222C137.292 44.6435 137.602 43.4339 137.248 42.7645L135.638 39.715Z" fill="url(#paint2_linear_1654_6480)"/>
<path d="M146.761 33.841L141.053 36.8555L142.663 39.9049C143.174 40.8718 144.709 40.7269 146.562 39.7482C148.415 38.7695 148.725 37.5598 148.371 36.8905L146.761 33.841Z" fill="url(#paint3_linear_1654_6480)"/>
<path d="M158.03 27.8898L152.322 30.9043L153.933 33.9537C154.443 34.9206 155.979 34.7758 157.832 33.797C159.685 32.8183 159.994 31.6087 159.641 30.9393L158.03 27.8898Z" fill="url(#paint4_linear_1654_6480)"/>
<path d="M169.153 22.0158L163.445 25.0303L165.056 28.0797C165.566 29.0466 167.102 28.9017 168.955 27.923C170.808 26.9443 171.117 25.7347 170.764 25.0653L169.153 22.0158Z" fill="url(#paint5_linear_1654_6480)"/>
<path d="M141.198 36.7785L135.49 39.793L137.101 42.8424C137.611 43.8093 139.147 43.6644 141 42.6857C142.853 41.707 143.162 40.4973 142.809 39.828L141.198 36.7785Z" fill="url(#paint6_linear_1654_6480)"/>
<path d="M141.052 36.8562L135.49 39.7933L119.84 30.1836L125.109 27.401L141.052 36.8562Z" fill="url(#paint7_linear_1654_6480)"/>
<path d="M152.321 30.9056L146.76 33.8428L148.37 36.8922C148.881 37.8591 150.384 37.7313 152.189 36.7777C153.995 35.824 154.285 34.6244 153.932 33.9551L152.321 30.9056Z" fill="url(#paint8_linear_1654_6480)"/>
<path d="M152.247 30.9441L146.686 33.8812L131.035 24.2715L136.304 21.4889L152.247 30.9441Z" fill="url(#paint9_linear_1654_6480)"/>
<path d="M163.593 24.9533L157.885 27.9678L159.495 31.0172C160.006 31.9841 161.541 31.8392 163.394 30.8605C165.247 29.8818 165.557 28.6722 165.203 28.0028L163.593 24.9533Z" fill="url(#paint10_linear_1654_6480)"/>
<path d="M163.519 24.9919L157.957 27.9291L142.307 18.3193L147.575 15.5368L163.519 24.9919Z" fill="url(#paint11_linear_1654_6480)"/>
<path d="M167.242 65.0115L166.628 63.8501L166.982 63.6631L165.299 60.4763L164.945 60.6633L164.332 59.502L169.112 56.9774L170.242 59.1161L168.655 59.9539L168.139 58.9766L167.282 59.4291L167.873 60.548L168.496 60.2189L168.923 61.0262L168.3 61.3554L168.965 62.6159L169.822 62.1633L169.231 61.0444L170.818 60.2067L172.022 62.487L167.242 65.0115Z" fill="#861AAC"/>
<path d="M164.028 61.1485L163.674 61.3355L165.357 64.5222L165.711 64.3352L166.324 65.4966L163.647 66.9103L163.034 65.7489L163.374 65.5694L162.065 63.0908L162.783 67.3666L161.735 67.9201L158.592 64.9701L159.883 67.4132L160.223 67.2337L160.836 68.3951L158.513 69.6218L157.9 68.4604L158.254 68.2734L156.571 65.0867L156.217 65.2737L155.604 64.1123L158.847 62.3994L160.75 64.2199L160.292 61.6364L163.415 59.9871L164.028 61.1485Z" fill="#861AAC"/>
<path d="M156.754 69.0652L157.037 68.9156L157.651 70.077L154.875 71.5431L154.261 70.3817L154.686 70.1573L154.274 69.6506L153.311 70.1593L153.497 70.7856L153.921 70.5612L154.535 71.7226L152.113 73.0017L151.5 71.8403L151.783 71.6907L150.683 66.7105L153.261 65.3492L156.754 69.0652ZM153.07 69.3263L153.722 68.9822L152.687 67.7263L152.616 67.7637L153.07 69.3263Z" fill="#861AAC"/>
<path d="M150.397 71.6433L150.043 71.8303L150.791 73.2466C150.646 73.4744 150.398 73.7414 150.046 74.0478C149.697 74.3469 149.291 74.6187 148.828 74.863C147.945 75.3293 147.132 75.4632 146.387 75.2648C145.64 75.0617 145.009 74.4739 144.496 73.5014C143.969 72.5052 143.835 71.6496 144.091 70.9346C144.352 70.2171 144.945 69.614 145.871 69.1253C146.319 68.8884 146.764 68.7137 147.206 68.6012C147.648 68.4887 147.999 68.439 148.259 68.4524L149.153 70.1449L147.383 71.0799L147.207 70.747C147.102 70.5488 146.985 70.4296 146.855 70.3895C146.728 70.3421 146.574 70.3659 146.395 70.4606C146.215 70.5554 146.107 70.67 146.069 70.8046C146.034 70.932 146.068 71.0948 146.173 71.2931L147.265 73.3609C147.37 73.5592 147.486 73.682 147.614 73.7293C147.744 73.7694 147.898 73.7421 148.078 73.6474C148.257 73.5526 148.364 73.4416 148.4 73.3142C148.437 73.1796 148.404 73.0132 148.299 72.8149L148.273 72.7653L147.891 72.9673L147.333 71.9121L149.84 70.5881L150.397 71.6433Z" fill="#861AAC"/>
<g opacity="0.2" filter="url(#filter0_f_1654_6480)">
<path d="M157.55 87.7098L133.039 81.6848C131.267 81.2491 129.804 80.0015 129.095 78.3198L115.274 45.5559C114.579 43.9101 114.686 42.0358 115.561 40.4788L128.22 17.9628C129.492 15.701 132.116 14.5645 134.635 15.1837L158.888 21.1441C160.661 21.5797 162.123 22.8274 162.833 24.5092L176.666 57.3027C177.353 58.9316 177.257 60.7855 176.404 62.3342L163.991 84.8854C162.73 87.1755 160.089 88.3338 157.55 87.7098Z" fill="#F9E05C"/>
</g>
</g>
<defs>
<filter id="filter0_f_1654_6480" x="66.6003" y="-33.2034" width="158.741" height="169.3" filterUnits="userSpaceOnUse" color-interpolation-filters="sRGB">
<feFlood flood-opacity="0" result="BackgroundImageFix"/>
<feBlend mode="normal" in="SourceGraphic" in2="BackgroundImageFix" result="shape"/>
<feGaussianBlur stdDeviation="24.11" result="effect1_foregroundBlur_1654_6480"/>
</filter>
<linearGradient id="paint0_linear_1654_6480" x1="136.439" y1="33.8213" x2="136.439" y2="88.6055" gradientUnits="userSpaceOnUse">
<stop stop-color="#BABABA"/>
<stop offset="1" stop-color="#DFE1E3"/>
</linearGradient>
<linearGradient id="paint1_linear_1654_6480" x1="147.01" y1="11.8096" x2="150.906" y2="32.466" gradientUnits="userSpaceOnUse">
<stop stop-color="#35A5C9"/>
<stop offset="1" stop-color="#68A1D6"/>
</linearGradient>
<linearGradient id="paint2_linear_1654_6480" x1="132.816" y1="40.1731" x2="136.619" y2="45.2298" gradientUnits="userSpaceOnUse">
<stop stop-color="#3582C9"/>
<stop offset="1" stop-color="#68A1D6"/>
</linearGradient>
<linearGradient id="paint3_linear_1654_6480" x1="143.939" y1="34.2991" x2="147.743" y2="39.3558" gradientUnits="userSpaceOnUse">
<stop stop-color="#3582C9"/>
<stop offset="1" stop-color="#68A1D6"/>
</linearGradient>
<linearGradient id="paint4_linear_1654_6480" x1="155.209" y1="28.3479" x2="159.012" y2="33.4046" gradientUnits="userSpaceOnUse">
<stop stop-color="#3582C9"/>
<stop offset="1" stop-color="#68A1D6"/>
</linearGradient>
<linearGradient id="paint5_linear_1654_6480" x1="166.332" y1="22.4739" x2="170.135" y2="27.5306" gradientUnits="userSpaceOnUse">
<stop stop-color="#3582C9"/>
<stop offset="1" stop-color="#68A1D6"/>
</linearGradient>
<linearGradient id="paint6_linear_1654_6480" x1="137.582" y1="38.4132" x2="142.784" y2="40.552" gradientUnits="userSpaceOnUse">
<stop stop-color="#CBCD54"/>
<stop offset="1" stop-color="#E09C4D"/>
</linearGradient>
<linearGradient id="paint7_linear_1654_6480" x1="124.833" y1="26.6989" x2="139.752" y2="30.8361" gradientUnits="userSpaceOnUse">
<stop stop-color="#CBCD54"/>
<stop offset="1" stop-color="#E09C4D"/>
</linearGradient>
<linearGradient id="paint8_linear_1654_6480" x1="148.795" y1="32.4929" x2="153.968" y2="34.5426" gradientUnits="userSpaceOnUse">
<stop stop-color="#CBCD54"/>
<stop offset="1" stop-color="#E09C4D"/>
</linearGradient>
<linearGradient id="paint9_linear_1654_6480" x1="136.028" y1="20.7868" x2="150.947" y2="24.924" gradientUnits="userSpaceOnUse">
<stop stop-color="#CBCD54"/>
<stop offset="1" stop-color="#E09C4D"/>
</linearGradient>
<linearGradient id="paint10_linear_1654_6480" x1="159.976" y1="26.588" x2="165.178" y2="28.7268" gradientUnits="userSpaceOnUse">
<stop stop-color="#CBCD54"/>
<stop offset="1" stop-color="#E09C4D"/>
</linearGradient>
<linearGradient id="paint11_linear_1654_6480" x1="147.299" y1="14.8346" x2="162.218" y2="18.9718" gradientUnits="userSpaceOnUse">
<stop stop-color="#CBCD54"/>
<stop offset="1" stop-color="#E09C4D"/>
</linearGradient>
<clipPath id="clip0_1654_6480">
<rect width="292" height="102.768" fill="white"/>
</clipPath>
</defs>
</svg>
