<svg width="292" height="103" viewBox="0 0 292 103" fill="none" xmlns="http://www.w3.org/2000/svg">
<rect width="292" height="102.768" fill="#1D1D26"/>
<path d="M179 38.133V70.9926C179 73.9466 176.605 76.3408 173.651 76.3408H109.915C106.961 76.3408 104.566 73.9466 104.566 70.9926V38.133C104.566 35.179 106.961 32.7848 109.915 32.7848H173.651C176.605 32.7848 179 35.179 179 38.133Z" fill="#9393FF"/>
<path d="M138.831 32.9999H110.348C107.394 32.9999 105 35.3943 105 38.3481V71.2084C105 74.1622 107.394 76.5566 110.348 76.5566H174.085C177.039 76.5566 179.434 74.1622 179.434 71.2084V38.3481C179.434 35.3943 177.039 32.9999 174.085 32.9999H172.616" stroke="#F5F1FF" stroke-width="1.78274" stroke-miterlimit="10" stroke-linecap="round" stroke-linejoin="round"/>
<path d="M175.721 38.1321V70.9917C175.721 71.9757 174.922 72.7744 173.938 72.7744H153.077L151.509 71.883H139.255L137.508 72.7744H126.076L124.64 71.883H117.91L116.249 72.7744H110.202C109.218 72.7744 108.419 71.9757 108.419 70.9917V62.9996C108.419 62.0155 109.218 61.2169 110.202 61.2169H111.015C111.999 61.2169 112.797 60.4182 112.797 59.4341V49.6896C112.797 48.7056 111.999 47.9069 111.015 47.9069H110.202C109.218 47.9069 108.419 47.1082 108.419 46.1242V38.1321C108.419 37.148 109.218 36.3494 110.202 36.3494H131.238L132.518 37.2407H137.247L138.524 36.3494H173.938C174.922 36.3494 175.721 37.148 175.721 38.1321Z" fill="#FF9E50"/>
<path d="M127.261 55.1826L131.943 43.0204L136.403 55.1826H127.261ZM153.24 69.9051C152.791 69.7808 152.332 69.5115 151.864 69.0975C151.237 68.5452 150.685 67.6619 150.207 66.4471L138.524 36.3494H131.238L120.389 64.1832C119.133 67.441 117.69 69.338 116.059 69.8741C115.809 69.9561 115.641 70.188 115.641 70.4508V72.1661C115.641 72.502 115.913 72.7744 116.249 72.7744H126.076C126.412 72.7744 126.684 72.502 126.684 72.1661V70.5512C126.684 70.2367 126.444 69.9718 126.131 69.9457C124.783 69.8332 123.743 69.5414 123.012 69.0699L123.002 69.0636C122.497 68.7363 122.289 68.0992 122.506 67.5369L125.989 58.4882H137.594L140.102 65.3427C140.544 66.4471 140.765 67.3304 140.765 67.9931C140.765 68.6928 140.47 69.1802 139.881 69.4564C139.374 69.694 138.567 69.8568 137.461 69.9443C137.144 69.9694 136.899 70.2331 136.899 70.5504V72.1661C136.899 72.502 137.172 72.7744 137.508 72.7744H153.077C153.413 72.7744 153.686 72.502 153.686 72.1661V70.4904C153.686 70.2169 153.503 69.9782 153.24 69.9051Z" fill="#F89226"/>
<path d="M110.203 50.5647C110.203 51.0569 109.804 51.4561 109.311 51.4561C108.819 51.4561 108.42 51.0569 108.42 50.5647C108.42 50.0725 108.819 49.6733 109.311 49.6733C109.804 49.6733 110.203 50.0725 110.203 50.5647Z" fill="white"/>
<path d="M112.263 65.8622V68.7444C112.263 69.2366 111.864 69.6357 111.372 69.6357C110.88 69.6357 110.48 69.2366 110.48 68.7444V65.8622C110.48 65.37 110.88 64.9708 111.372 64.9708C111.864 64.9708 112.263 65.37 112.263 65.8622Z" fill="white"/>
<path d="M167.122 67.303C167.122 67.795 166.723 68.1943 166.231 68.1943H139.256V66.4116H166.231C166.723 66.4116 167.122 66.8109 167.122 67.303Z" fill="white"/>
<path d="M139.256 66.4106H117.91C117.418 66.4106 117.019 66.8098 117.019 67.302C117.019 67.7942 117.418 68.1934 117.91 68.1934H139.256V66.4106Z" fill="#FF6C6C"/>
<path d="M117.032 43.6797H124.98C125.472 43.6797 125.871 43.2805 125.871 42.7883C125.871 42.2961 125.472 41.8969 124.98 41.8969H117.032C116.54 41.8969 116.141 42.2961 116.141 42.7883C116.141 43.2805 116.54 43.6797 117.032 43.6797Z" fill="white"/>
<path d="M129.389 43.6797H132.702C133.195 43.6797 133.594 43.2805 133.594 42.7883C133.594 42.2961 133.195 41.8969 132.702 41.8969H129.389C128.897 41.8969 128.498 42.2961 128.498 42.7883C128.498 43.2805 128.897 43.6797 129.389 43.6797Z" fill="white"/>
<path d="M117.019 63.8684C117.019 64.3606 117.418 64.7598 117.91 64.7598C118.402 64.7598 118.801 64.3606 118.801 63.8684C118.801 63.3762 118.402 62.977 117.91 62.977C117.418 62.977 117.019 63.3762 117.019 63.8684Z" fill="white"/>
<path d="M119.828 63.8684C119.828 64.3606 120.227 64.7598 120.719 64.7598C121.212 64.7598 121.611 64.3606 121.611 63.8684C121.611 63.3762 121.212 62.977 120.719 62.977C120.227 62.977 119.828 63.3762 119.828 63.8684Z" fill="white"/>
<path d="M162.529 63.8684C162.529 64.3606 162.928 64.7598 163.421 64.7598C163.913 64.7598 164.312 64.3606 164.312 63.8684C164.312 63.3762 163.913 62.977 163.421 62.977C162.928 62.977 162.529 63.3762 162.529 63.8684Z" fill="white"/>
<path d="M165.34 63.8684C165.34 64.3606 165.739 64.7598 166.231 64.7598C166.723 64.7598 167.123 64.3606 167.123 63.8684C167.123 63.3762 166.723 62.977 166.231 62.977C165.739 62.977 165.34 63.3762 165.34 63.8684Z" fill="white"/>
<path d="M134.868 54.648L135.433 52.3747L135.998 54.648H134.868ZM137.018 51.3588C136.837 50.6293 136.185 50.1197 135.433 50.1197C134.681 50.1197 134.029 50.6293 133.849 51.3587L132.545 56.6053C132.426 57.0832 132.717 57.5667 133.195 57.6855C133.672 57.804 134.156 57.5131 134.275 57.0353L134.426 56.4308H136.441L136.591 57.0353C136.692 57.4409 137.055 57.712 137.455 57.7118C137.526 57.7118 137.599 57.7033 137.671 57.6855C138.149 57.5667 138.44 57.0832 138.321 56.6053L137.018 51.3588Z" fill="white"/>
<path d="M142.915 55.0823C142.915 55.5499 142.535 55.9301 142.067 55.9301H141.039V51.9035H142.067C142.535 51.9035 142.915 52.2839 142.915 52.7513V55.0823ZM142.067 50.1207H140.147C139.655 50.1207 139.256 50.5199 139.256 51.0121V56.8215C139.256 57.3137 139.655 57.7129 140.147 57.7129H142.067C143.518 57.7129 144.698 56.5327 144.698 55.0823V52.7513C144.698 51.3009 143.518 50.1207 142.067 50.1207Z" fill="white"/>
<path d="M148.842 53.0255H147.812C147.579 53.0255 147.389 52.8357 147.389 52.6023V52.3269C147.389 52.0935 147.579 51.9036 147.812 51.9036H150.157C150.649 51.9036 151.048 51.5045 151.048 51.0123C151.048 50.52 150.649 50.1209 150.157 50.1209H147.812C146.596 50.1209 145.606 51.1105 145.606 52.3269V52.6023C145.606 53.8187 146.596 54.8083 147.812 54.8083H148.842C149.076 54.8083 149.266 54.9981 149.266 55.2315V55.5069C149.266 55.7405 149.076 55.9301 148.842 55.9301H146.498C146.005 55.9301 145.606 56.3293 145.606 56.8215C145.606 57.3139 146.005 57.7129 146.498 57.7129H148.842C150.059 57.7129 151.048 56.7235 151.048 55.5069V55.2315C151.048 54.0151 150.059 53.0255 148.842 53.0255Z" fill="white"/>
<path d="M132.83 65.8622V68.7444C132.83 69.2366 132.43 69.6357 131.938 69.6357C131.446 69.6357 131.047 69.2366 131.047 68.7444V65.8622C131.047 65.37 131.446 64.9708 131.938 64.9708C132.43 64.9708 132.83 65.37 132.83 65.8622Z" fill="#6C6CFF"/>
<path d="M155.486 65.8622V68.7444C155.486 69.2366 155.087 69.6357 154.594 69.6357C154.102 69.6357 153.703 69.2366 153.703 68.7444V65.8622C153.703 65.37 154.102 64.9708 154.594 64.9708C155.087 64.9708 155.486 65.37 155.486 65.8622Z" fill="#6C6CFF"/>
<path d="M215.399 32.6998C215.399 39.1614 210.161 44.3994 203.7 44.3994C197.238 44.3994 192 39.1614 192 32.6998C192 26.2382 197.238 21.0002 203.7 21.0002C210.161 21.0002 215.399 26.2382 215.399 32.6998Z" fill="#FFAA66"/>
<path d="M212.417 32.7005C212.417 37.515 208.514 41.418 203.7 41.418C198.885 41.418 194.982 37.515 194.982 32.7005C194.982 27.886 198.885 23.9831 203.7 23.9831C208.514 23.9831 212.417 27.886 212.417 32.7005Z" fill="#F28403"/>
<path d="M204.861 35.406H204.591V33.5912H204.861C205.361 33.5912 205.768 33.9984 205.768 34.4986C205.768 34.999 205.361 35.406 204.861 35.406ZM202.538 31.8084C202.037 31.8084 201.63 31.4014 201.63 30.901C201.63 30.4008 202.037 29.9938 202.538 29.9938H202.808V31.8084H202.538ZM204.861 31.8084H204.591V29.9938H206.276C206.768 29.9938 207.167 29.5946 207.167 29.1024C207.167 28.61 206.768 28.211 206.276 28.211H204.591V27.7629C204.591 27.2705 204.192 26.8715 203.699 26.8715C203.207 26.8715 202.808 27.2705 202.808 27.7629V28.211H202.538C201.054 28.211 199.848 29.4178 199.848 30.901C199.848 32.3844 201.054 33.5912 202.538 33.5912H202.808V35.406H201.123C200.63 35.406 200.231 35.805 200.231 36.2974C200.231 36.7898 200.63 37.1888 201.123 37.1888H202.808V37.6369C202.808 38.1292 203.207 38.5283 203.699 38.5283C204.192 38.5283 204.591 38.1292 204.591 37.6369V37.1888H204.861C206.344 37.1888 207.551 35.9818 207.551 34.4986C207.551 33.0154 206.344 31.8084 204.861 31.8084Z" fill="#FFC498"/>
<path d="M215.102 30.0858C213.914 24.8833 209.262 21.0004 203.7 21.0004C197.238 21.0004 192 26.2384 192 32.7C192 39.1614 197.238 44.3994 203.7 44.3994C207.567 44.3994 210.995 42.5231 213.125 39.6313" stroke="#F5F1FF" stroke-width="1.78274" stroke-miterlimit="10" stroke-linecap="round" stroke-linejoin="round"/>
<path d="M215.374 40.7461C214.884 40.7461 214.393 40.5589 214.019 40.1847L210.529 36.6953C209.781 35.9468 209.781 34.7329 210.529 33.9841C211.278 33.2357 212.492 33.2357 213.241 33.9841L215.374 36.1181L221.533 29.9589C222.282 29.2105 223.496 29.2107 224.245 29.9589C224.993 30.7076 224.993 31.9215 224.245 32.6701L216.73 40.1847C216.355 40.5589 215.865 40.7461 215.374 40.7461Z" fill="#6C6CFF"/>
<path d="M215.374 40.7461C214.884 40.7461 214.393 40.5589 214.019 40.1847L210.529 36.6953C209.781 35.9468 209.781 34.7329 210.529 33.9841C211.278 33.2357 212.492 33.2357 213.241 33.9841L215.374 36.1181L221.533 29.9589C222.282 29.2105 223.496 29.2107 224.245 29.9589C224.993 30.7076 224.993 31.9215 224.245 32.6701L216.73 40.1847C216.355 40.5589 215.865 40.7461 215.374 40.7461Z" stroke="#F5F1FF" stroke-width="1.78274" stroke-miterlimit="10" stroke-linecap="round" stroke-linejoin="round"/>
<path d="M191.961 68.0004L192.424 69.4252H193.922L192.71 70.3057L193.173 71.7305L191.961 70.85L190.749 71.7305L191.212 70.3057L190 69.4252H191.498L191.961 68.0004Z" stroke="#FF9C33" stroke-width="1.78274" stroke-miterlimit="10" stroke-linecap="round" stroke-linejoin="round"/>
<path d="M169.193 14.0004L169.656 15.4252H171.154L169.943 16.3057L170.405 17.7305L169.193 16.85L167.982 17.7305L168.444 16.3057L167.232 15.4252H168.73L169.193 14.0004Z" stroke="#FF6C6C" stroke-width="1.78274" stroke-miterlimit="10" stroke-linecap="round" stroke-linejoin="round"/>
<path d="M109.02 22.0001C109.02 23.1159 108.116 24.0205 107 24.0205C108.116 24.0205 109.02 24.925 109.02 26.041C109.02 24.925 109.925 24.0205 111.041 24.0205C109.925 24.0205 109.02 23.1159 109.02 22.0001Z" stroke="#FF6C6C" stroke-width="1.78274" stroke-miterlimit="10" stroke-linecap="round" stroke-linejoin="round"/>
<path d="M177.02 80.0001C177.02 81.1159 176.116 82.0205 175 82.0205C176.116 82.0205 177.02 82.925 177.02 84.041C177.02 82.925 177.925 82.0205 179.041 82.0205C177.925 82.0205 177.02 81.1159 177.02 80.0001Z" stroke="#FF6C6C" stroke-width="1.78274" stroke-miterlimit="10" stroke-linecap="round" stroke-linejoin="round"/>
<path d="M95.0204 35.0001C95.0204 36.1159 94.1158 37.0205 93 37.0205C94.1158 37.0205 95.0204 37.925 95.0204 39.041C95.0204 37.925 95.925 37.0205 97.0408 37.0205C95.925 37.0205 95.0204 36.1159 95.0204 35.0001Z" stroke="#8282FF" stroke-width="1.78274" stroke-miterlimit="10" stroke-linecap="round" stroke-linejoin="round"/>
<path d="M238.549 54.0977C237.143 54.0977 236 52.9543 236 51.5488C236 50.1434 237.143 49 238.549 49C239.954 49 241.098 50.1434 241.098 51.5488C241.098 52.9543 239.954 54.0977 238.549 54.0977ZM238.549 50.6992C238.08 50.6992 237.699 51.0804 237.699 51.5488C237.699 52.0173 238.08 52.3984 238.549 52.3984C239.017 52.3984 239.398 52.0173 239.398 51.5488C239.398 51.0804 239.017 50.6992 238.549 50.6992Z" fill="#FF6C6C"/>
<path d="M80.5488 68.0977C79.1434 68.0977 78 66.9543 78 65.5488C78 64.1434 79.1434 63 80.5488 63C81.9543 63 83.0977 64.1434 83.0977 65.5488C83.0977 66.9543 81.9543 68.0977 80.5488 68.0977ZM80.5488 64.6992C80.0804 64.6992 79.6992 65.0804 79.6992 65.5488C79.6992 66.0173 80.0804 66.3984 80.5488 66.3984C81.0173 66.3984 81.3984 66.0173 81.3984 65.5488C81.3984 65.0804 81.0173 64.6992 80.5488 64.6992Z" fill="#FFAA66"/>
<path d="M212.634 87.2675C212.416 87.2675 212.199 87.1846 212.033 87.0186L210.249 85.2344C209.917 84.9027 209.917 84.3648 210.249 84.0331L212.033 82.2489C212.365 81.917 212.903 81.917 213.235 82.2489L215.019 84.0331C215.351 84.3648 215.351 84.9027 215.019 85.2344L213.235 87.0186C213.069 87.1844 212.851 87.2675 212.634 87.2675ZM212.051 84.6337L212.634 85.2164L213.217 84.6337L212.634 84.0511L212.051 84.6337Z" fill="#8282FF"/>
<path d="M73.6339 21.2675C73.4164 21.2675 73.1991 21.1846 73.0331 21.0186L71.2489 19.2344C70.917 18.9027 70.917 18.3648 71.2489 18.0331L73.0331 16.2489C73.3649 15.917 73.9027 15.917 74.2346 16.2489L76.0188 18.0331C76.3506 18.3648 76.3506 18.9027 76.0188 19.2344L74.2346 21.0186C74.0687 21.1844 73.8514 21.2675 73.6339 21.2675ZM73.0513 18.6337L73.6339 19.2164L74.2166 18.6337L73.6339 18.0511L73.0513 18.6337Z" fill="#FFAA66"/>
<path d="M193.634 14.2675C193.416 14.2675 193.199 14.1846 193.033 14.0186L191.249 12.2344C190.917 11.9027 190.917 11.3648 191.249 11.0331L193.033 9.24889C193.365 8.91704 193.903 8.91704 194.235 9.24889L196.019 11.0331C196.351 11.3648 196.351 11.9027 196.019 12.2344L194.235 14.0186C194.069 14.1844 193.851 14.2675 193.634 14.2675ZM193.051 11.6337L193.634 12.2164L194.217 11.6337L193.634 11.0511L193.051 11.6337Z" fill="#8282FF"/>
</svg>
