<svg width="292" height="103" viewBox="0 0 292 103" fill="none" xmlns="http://www.w3.org/2000/svg">
<rect width="292" height="102.768" fill="#1D1D26"/>
<rect x="170.231" y="21.2307" width="17.0705" height="18.6852" rx="2.5375" stroke="#67EEAD" stroke-opacity="0.4" stroke-width="0.461364"/>
<path d="M178.276 59.1528L209.093 72.8873L193.984 86.0356L163.168 72.301L178.276 59.1528Z" fill="url(#paint0_linear_1668_6860)"/>
<path d="M193.902 85.9746L209.154 72.8027L208.923 74.4203L193.902 87.5922V85.9746Z" fill="#606972"/>
<path d="M193.902 85.9746L164.323 72.8027V74.4203L193.902 87.5922V85.9746Z" fill="#49525B"/>
<path d="M179.889 62.4355C180.168 62.1924 180.563 62.1333 180.902 62.2841L203.571 72.3879C204.207 72.6712 204.334 73.5188 203.809 73.9758L193.338 83.088C193.059 83.3311 192.664 83.3902 192.325 83.2394L169.656 73.1357C169.02 72.8523 168.893 72.0047 169.418 71.5477L179.889 62.4355Z" fill="url(#paint1_linear_1668_6860)" fill-opacity="0.6"/>
<path d="M161.923 72.9531L192.786 86.582L192.395 63.3219L161.531 49.693L161.923 72.9531Z" fill="url(#paint2_linear_1668_6860)"/>
<path d="M193.25 62.4023L192.325 63.3267L192.787 86.6663L193.712 85.7419L193.25 62.4023Z" fill="#677079"/>
<path d="M193.249 62.4029L192.325 63.3273L161.591 49.6933L162.515 49L193.249 62.4029Z" fill="#9AA2A9"/>
<rect x="190.068" y="39.068" width="27.8641" height="14.2718" rx="3.3301" fill="#ACFF58" fill-opacity="0.2" stroke="#FFF500" stroke-width="0.135922"/>
<path d="M209.452 45.5079V45.8066C209.365 45.7557 209.277 45.7176 209.189 45.6921C209.1 45.6667 209.01 45.654 208.918 45.654C208.78 45.654 208.676 45.6766 208.608 45.722C208.54 45.7662 208.507 45.8343 208.507 45.9261C208.507 46.009 208.532 46.071 208.583 46.1119C208.634 46.1528 208.761 46.1926 208.963 46.2314L209.086 46.2546C209.237 46.2833 209.352 46.3409 209.429 46.4271C209.508 46.5134 209.547 46.6257 209.547 46.764C209.547 46.9476 209.482 47.0914 209.351 47.1954C209.221 47.2982 209.039 47.3497 208.807 47.3497C208.715 47.3497 208.619 47.3397 208.518 47.3198C208.418 47.301 208.309 47.2722 208.191 47.2335V46.9183C208.305 46.9769 208.414 47.0211 208.518 47.051C208.622 47.0798 208.721 47.0941 208.814 47.0941C208.949 47.0941 209.053 47.067 209.127 47.0128C209.201 46.9575 209.238 46.8807 209.238 46.7822C209.238 46.6406 209.103 46.5427 208.832 46.4885L208.819 46.4852L208.704 46.462C208.528 46.4277 208.4 46.3702 208.319 46.2894C208.238 46.2076 208.198 46.0964 208.198 45.9559C208.198 45.7778 208.258 45.6407 208.379 45.5444C208.499 45.4471 208.671 45.3984 208.895 45.3984C208.994 45.3984 209.09 45.4078 209.182 45.4266C209.274 45.4443 209.364 45.4714 209.452 45.5079Z" fill="#76FF9C"/>
<path d="M206.678 46.6297C206.678 46.7668 206.702 46.8703 206.752 46.9399C206.803 47.0096 206.878 47.0445 206.976 47.0445H207.333V47.3016H206.946C206.764 47.3016 206.622 47.2436 206.522 47.1274C206.422 47.0102 206.372 46.8443 206.372 46.6297V44.9489H205.883V44.71H206.678V46.6297Z" fill="#76FF9C"/>
<path d="M204.153 45.6573C203.998 45.6573 203.881 45.7176 203.801 45.8381C203.722 45.9587 203.682 46.1373 203.682 46.3741C203.682 46.6097 203.722 46.7883 203.801 46.91C203.881 47.0305 203.998 47.0908 204.153 47.0908C204.309 47.0908 204.427 47.0305 204.507 46.91C204.586 46.7883 204.626 46.6097 204.626 46.3741C204.626 46.1373 204.586 45.9587 204.507 45.8381C204.427 45.7176 204.309 45.6573 204.153 45.6573ZM204.153 45.3984C204.411 45.3984 204.608 45.482 204.744 45.649C204.881 45.816 204.95 46.0577 204.95 46.3741C204.95 46.6915 204.882 46.9338 204.745 47.1008C204.609 47.2667 204.412 47.3497 204.153 47.3497C203.895 47.3497 203.699 47.2667 203.562 47.1008C203.426 46.9338 203.358 46.6915 203.358 46.3741C203.358 46.0577 203.426 45.816 203.562 45.649C203.699 45.482 203.895 45.3984 204.153 45.3984Z" fill="#76FF9C"/>
<path d="M201.801 45.6573C201.646 45.6573 201.529 45.7176 201.449 45.8381C201.369 45.9587 201.329 46.1373 201.329 46.3741C201.329 46.6097 201.369 46.7883 201.449 46.91C201.529 47.0305 201.646 47.0908 201.801 47.0908C201.957 47.0908 202.074 47.0305 202.154 46.91C202.234 46.7883 202.273 46.6097 202.273 46.3741C202.273 46.1373 202.234 45.9587 202.154 45.8381C202.074 45.7176 201.957 45.6573 201.801 45.6573ZM201.801 45.3984C202.058 45.3984 202.255 45.482 202.391 45.649C202.528 45.816 202.597 46.0577 202.597 46.3741C202.597 46.6915 202.529 46.9338 202.393 47.1008C202.257 47.2667 202.059 47.3497 201.801 47.3497C201.543 47.3497 201.346 47.2667 201.21 47.1008C201.074 46.9338 201.006 46.6915 201.006 46.3741C201.006 46.0577 201.074 45.816 201.21 45.649C201.346 45.482 201.543 45.3984 201.801 45.3984Z" fill="#76FF9C"/>
<path d="M198.503 44.8242H200.393V45.1063H199.618V47.3014H199.281V45.1063H198.503V44.8242Z" fill="#76FF9C"/>
<line x1="227.341" y1="52.3659" x2="227.341" y2="66.0244" stroke="#E27526" stroke-opacity="0.3" stroke-width="0.731707" stroke-linecap="round"/>
<circle cx="227.341" cy="58.4635" r="1.34146" fill="#F57600"/>
<line x1="231" y1="52.3659" x2="231" y2="66.0244" stroke="#E27526" stroke-opacity="0.3" stroke-width="0.731707" stroke-linecap="round"/>
<circle cx="231" cy="61.8776" r="1.34146" fill="#F57600"/>
<line x1="234.659" y1="52.3659" x2="234.659" y2="66.0244" stroke="#E27526" stroke-opacity="0.3" stroke-width="0.731707" stroke-linecap="round"/>
<circle cx="234.659" cy="55.2926" r="1.34146" fill="#F57600"/>
<rect x="197.087" y="21.0871" width="32.9051" height="2.08922" rx="1.04461" fill="#32F28B" fill-opacity="0.2" stroke="#49FF92" stroke-width="0.174101"/>
<rect x="197" y="21" width="12.1871" height="2.26332" rx="1.13166" fill="#32F296" fill-opacity="0.7"/>
<rect x="209.651" y="28.6251" width="32.9051" height="2.08922" rx="1.04461" fill="#F2A632" fill-opacity="0.2" stroke="#FFAB49" stroke-width="0.174101"/>
<rect x="209.563" y="28.5381" width="22.2417" height="2.26332" rx="1.13166" fill="#F2A632" fill-opacity="0.7"/>
<g opacity="0.8">
<path d="M57.7561 29.8091L56.3043 28.3613V21.087C56.3043 20.9813 56.2613 20.8835 56.1909 20.8091L51.4952 16.1135C51.4209 16.043 51.323 16 51.2174 16H44.9565C43.8765 16 43 16.8765 43 17.9565V32.0435C43 33.1235 43.8765 34 44.9565 34H54.3478C55.4278 34 56.3043 33.1235 56.3043 32.0435V29.4648L57.2004 30.3648C57.2787 30.4391 57.3765 30.4783 57.4783 30.4783C57.58 30.4783 57.6778 30.4391 57.7561 30.3648C57.9087 30.2122 57.9087 29.9617 57.7561 29.8091ZM51.6087 17.3343L54.97 20.6957H52.7826C52.137 20.6957 51.6087 20.1674 51.6087 19.5217V17.3343ZM55.5217 28.3613L54.07 29.8091C53.9174 29.9617 53.9174 30.2122 54.07 30.3648C54.2226 30.5174 54.473 30.5174 54.6257 30.3648L55.5217 29.4648V32.0435C55.5217 32.6891 54.9935 33.2174 54.3478 33.2174H44.9565C44.3109 33.2174 43.7826 32.6891 43.7826 32.0435V17.9565C43.7826 17.3109 44.3109 16.7826 44.9565 16.7826H50.8261V19.5217C50.8261 20.6017 51.7026 21.4783 52.7826 21.4783H55.5217V28.3613Z" fill="url(#paint3_linear_1668_6860)" fill-opacity="0.95"/>
<path d="M54.9697 20.6953H52.7823C52.1367 20.6953 51.6084 20.167 51.6084 19.5214V17.334L54.9697 20.6953Z" fill="#98F8F2" fill-opacity="0.3"/>
<path d="M55.5223 28.3619V21.4789H52.7832C51.7032 21.4789 50.8267 20.6023 50.8267 19.5223V16.7832H44.9571C44.3115 16.7832 43.7832 17.3115 43.7832 17.9571V32.0441C43.7832 32.6897 44.3115 33.218 44.9571 33.218H54.3484C54.9941 33.218 55.5223 32.6897 55.5223 32.0441V29.4654L54.6262 30.3654C54.4736 30.518 54.2232 30.518 54.0706 30.3654C53.918 30.2128 53.918 29.9623 54.0706 29.8097L55.5223 28.3619ZM50.4354 29.6962H46.131C45.9158 29.6962 45.7397 29.5202 45.7397 29.3049C45.7397 29.0897 45.9158 28.9136 46.131 28.9136H50.4354C50.6506 28.9136 50.8267 29.0897 50.8267 29.3049C50.8267 29.5202 50.6506 29.6962 50.4354 29.6962ZM50.4354 27.3484H46.131C45.9158 27.3484 45.7397 27.1723 45.7397 26.9571C45.7397 26.7419 45.9158 26.5658 46.131 26.5658H50.4354C50.6506 26.5658 50.8267 26.7419 50.8267 26.9571C50.8267 27.1723 50.6506 27.3484 50.4354 27.3484ZM50.4354 25.0006H46.131C45.9158 25.0006 45.7397 24.8245 45.7397 24.6093C45.7397 24.3941 45.9158 24.218 46.131 24.218H50.4354C50.6506 24.218 50.8267 24.3941 50.8267 24.6093C50.8267 24.8245 50.6506 25.0006 50.4354 25.0006ZM53.1745 29.6962H52.0006C51.7854 29.6962 51.6093 29.5202 51.6093 29.3049C51.6093 29.0897 51.7854 28.9136 52.0006 28.9136H53.1745C53.3897 28.9136 53.5658 29.0897 53.5658 29.3049C53.5658 29.5202 53.3897 29.6962 53.1745 29.6962ZM53.1745 27.3484H52.0006C51.7854 27.3484 51.6093 27.1723 51.6093 26.9571C51.6093 26.7419 51.7854 26.5658 52.0006 26.5658H53.1745C53.3897 26.5658 53.5658 26.7419 53.5658 26.9571C53.5658 27.1723 53.3897 27.3484 53.1745 27.3484ZM53.1745 25.0006H52.0006C51.7854 25.0006 51.6093 24.8245 51.6093 24.6093C51.6093 24.3941 51.7854 24.218 52.0006 24.218H53.1745C53.3897 24.218 53.5658 24.3941 53.5658 24.6093C53.5658 24.8245 53.3897 25.0006 53.1745 25.0006Z" fill="url(#paint4_linear_1668_6860)" fill-opacity="0.1"/>
<g opacity="0.74">
<path d="M50.8262 24.6091C50.8262 24.8243 50.6501 25.0004 50.4349 25.0004H46.1306C45.9153 25.0004 45.7393 24.8243 45.7393 24.6091C45.7393 24.3939 45.9153 24.2178 46.1306 24.2178H50.4349C50.6501 24.2178 50.8262 24.3939 50.8262 24.6091Z" fill="#73FFE6"/>
<path d="M53.5649 24.6091C53.5649 24.8243 53.3888 25.0004 53.1736 25.0004H51.9997C51.7845 25.0004 51.6084 24.8243 51.6084 24.6091C51.6084 24.3939 51.7845 24.2178 51.9997 24.2178H53.1736C53.3888 24.2178 53.5649 24.3939 53.5649 24.6091Z" fill="#73FFE6"/>
<path d="M50.8262 26.9567C50.8262 27.172 50.6501 27.348 50.4349 27.348H46.1306C45.9153 27.348 45.7393 27.172 45.7393 26.9567C45.7393 26.7415 45.9153 26.5654 46.1306 26.5654H50.4349C50.6501 26.5654 50.8262 26.7415 50.8262 26.9567Z" fill="#73FFE6"/>
<path d="M53.5649 26.9567C53.5649 27.172 53.3888 27.348 53.1736 27.348H51.9997C51.7845 27.348 51.6084 27.172 51.6084 26.9567C51.6084 26.7415 51.7845 26.5654 51.9997 26.5654H53.1736C53.3888 26.5654 53.5649 26.7415 53.5649 26.9567Z" fill="#73FFE6"/>
<path d="M50.8262 29.3044C50.8262 29.5196 50.6501 29.6957 50.4349 29.6957H46.1306C45.9153 29.6957 45.7393 29.5196 45.7393 29.3044C45.7393 29.0892 45.9153 28.9131 46.1306 28.9131H50.4349C50.6501 28.9131 50.8262 29.0892 50.8262 29.3044Z" fill="#73FFE6"/>
<path d="M53.5659 29.3044C53.5659 29.5196 53.3898 29.6957 53.1746 29.6957H52.0007C51.7855 29.6957 51.6094 29.5196 51.6094 29.3044C51.6094 29.0892 51.7855 28.9131 52.0007 28.9131H53.1746C53.3898 28.9131 53.5659 29.0892 53.5659 29.3044Z" fill="#73FFE6"/>
</g>
</g>
<g opacity="0.8">
<path d="M83.7561 52.8091L82.3043 51.3613V44.087C82.3043 43.9813 82.2613 43.8835 82.1909 43.8091L77.4952 39.1135C77.4209 39.043 77.323 39 77.2174 39H70.9565C69.8765 39 69 39.8765 69 40.9565V55.0435C69 56.1235 69.8765 57 70.9565 57H80.3478C81.4278 57 82.3043 56.1235 82.3043 55.0435V52.4648L83.2004 53.3648C83.2787 53.4391 83.3765 53.4783 83.4783 53.4783C83.58 53.4783 83.6778 53.4391 83.7561 53.3648C83.9087 53.2122 83.9087 52.9617 83.7561 52.8091ZM77.6087 40.3343L80.97 43.6957H78.7826C78.137 43.6957 77.6087 43.1674 77.6087 42.5217V40.3343ZM81.5217 51.3613L80.07 52.8091C79.9174 52.9617 79.9174 53.2122 80.07 53.3648C80.2226 53.5174 80.473 53.5174 80.6257 53.3648L81.5217 52.4648V55.0435C81.5217 55.6891 80.9935 56.2174 80.3478 56.2174H70.9565C70.3109 56.2174 69.7826 55.6891 69.7826 55.0435V40.9565C69.7826 40.3109 70.3109 39.7826 70.9565 39.7826H76.8261V42.5217C76.8261 43.6017 77.7026 44.4783 78.7826 44.4783H81.5217V51.3613Z" fill="url(#paint5_linear_1668_6860)" fill-opacity="0.95"/>
<path d="M80.9697 43.6953H78.7823C78.1367 43.6953 77.6084 43.167 77.6084 42.5214V40.334L80.9697 43.6953Z" fill="#98F8F2" fill-opacity="0.3"/>
<path d="M81.5214 51.3619V44.4789H78.7822C77.7022 44.4789 76.8257 43.6023 76.8257 42.5223V39.7832H70.9561C70.3105 39.7832 69.7822 40.3115 69.7822 40.9571V55.0441C69.7822 55.6897 70.3105 56.218 70.9561 56.218H80.3474C80.9931 56.218 81.5214 55.6897 81.5214 55.0441V52.4654L80.6253 53.3654C80.4727 53.518 80.2222 53.518 80.0696 53.3654C79.917 53.2128 79.917 52.9623 80.0696 52.8097L81.5214 51.3619ZM76.4344 52.6962H72.1301C71.9148 52.6962 71.7387 52.5202 71.7387 52.3049C71.7387 52.0897 71.9148 51.9136 72.1301 51.9136H76.4344C76.6496 51.9136 76.8257 52.0897 76.8257 52.3049C76.8257 52.5202 76.6496 52.6962 76.4344 52.6962ZM76.4344 50.3484H72.1301C71.9148 50.3484 71.7387 50.1723 71.7387 49.9571C71.7387 49.7419 71.9148 49.5658 72.1301 49.5658H76.4344C76.6496 49.5658 76.8257 49.7419 76.8257 49.9571C76.8257 50.1723 76.6496 50.3484 76.4344 50.3484ZM76.4344 48.0006H72.1301C71.9148 48.0006 71.7387 47.8245 71.7387 47.6093C71.7387 47.3941 71.9148 47.218 72.1301 47.218H76.4344C76.6496 47.218 76.8257 47.3941 76.8257 47.6093C76.8257 47.8245 76.6496 48.0006 76.4344 48.0006ZM79.1735 52.6962H77.9996C77.7844 52.6962 77.6083 52.5202 77.6083 52.3049C77.6083 52.0897 77.7844 51.9136 77.9996 51.9136H79.1735C79.3887 51.9136 79.5648 52.0897 79.5648 52.3049C79.5648 52.5202 79.3887 52.6962 79.1735 52.6962ZM79.1735 50.3484H77.9996C77.7844 50.3484 77.6083 50.1723 77.6083 49.9571C77.6083 49.7419 77.7844 49.5658 77.9996 49.5658H79.1735C79.3887 49.5658 79.5648 49.7419 79.5648 49.9571C79.5648 50.1723 79.3887 50.3484 79.1735 50.3484ZM79.1735 48.0006H77.9996C77.7844 48.0006 77.6083 47.8245 77.6083 47.6093C77.6083 47.3941 77.7844 47.218 77.9996 47.218H79.1735C79.3887 47.218 79.5648 47.3941 79.5648 47.6093C79.5648 47.8245 79.3887 48.0006 79.1735 48.0006Z" fill="url(#paint6_linear_1668_6860)" fill-opacity="0.1"/>
<g opacity="0.74">
<path d="M76.8262 47.6091C76.8262 47.8243 76.6501 48.0004 76.4349 48.0004H72.1306C71.9153 48.0004 71.7393 47.8243 71.7393 47.6091C71.7393 47.3939 71.9153 47.2178 72.1306 47.2178H76.4349C76.6501 47.2178 76.8262 47.3939 76.8262 47.6091Z" fill="#73FFE6"/>
<path d="M79.5649 47.6091C79.5649 47.8243 79.3888 48.0004 79.1736 48.0004H77.9997C77.7845 48.0004 77.6084 47.8243 77.6084 47.6091C77.6084 47.3939 77.7845 47.2178 77.9997 47.2178H79.1736C79.3888 47.2178 79.5649 47.3939 79.5649 47.6091Z" fill="#73FFE6"/>
<path d="M76.8262 49.9567C76.8262 50.172 76.6501 50.348 76.4349 50.348H72.1306C71.9153 50.348 71.7393 50.172 71.7393 49.9567C71.7393 49.7415 71.9153 49.5654 72.1306 49.5654H76.4349C76.6501 49.5654 76.8262 49.7415 76.8262 49.9567Z" fill="#73FFE6"/>
<path d="M79.5649 49.9567C79.5649 50.172 79.3888 50.348 79.1736 50.348H77.9997C77.7845 50.348 77.6084 50.172 77.6084 49.9567C77.6084 49.7415 77.7845 49.5654 77.9997 49.5654H79.1736C79.3888 49.5654 79.5649 49.7415 79.5649 49.9567Z" fill="#73FFE6"/>
<path d="M76.8262 52.3044C76.8262 52.5196 76.6501 52.6957 76.4349 52.6957H72.1306C71.9153 52.6957 71.7393 52.5196 71.7393 52.3044C71.7393 52.0892 71.9153 51.9131 72.1306 51.9131H76.4349C76.6501 51.9131 76.8262 52.0892 76.8262 52.3044Z" fill="#73FFE6"/>
<path d="M79.5649 52.3044C79.5649 52.5196 79.3888 52.6957 79.1736 52.6957H77.9997C77.7845 52.6957 77.6084 52.5196 77.6084 52.3044C77.6084 52.0892 77.7845 51.9131 77.9997 51.9131H79.1736C79.3888 51.9131 79.5649 52.0892 79.5649 52.3044Z" fill="#73FFE6"/>
</g>
</g>
<g opacity="0.8">
<path d="M45.7561 80.8091L44.3043 79.3613V72.087C44.3043 71.9813 44.2613 71.8835 44.1909 71.8091L39.4952 67.1135C39.4209 67.043 39.323 67 39.2174 67H32.9565C31.8765 67 31 67.8765 31 68.9565V83.0435C31 84.1235 31.8765 85 32.9565 85H42.3478C43.4278 85 44.3043 84.1235 44.3043 83.0435V80.4648L45.2004 81.3648C45.2787 81.4391 45.3765 81.4783 45.4783 81.4783C45.58 81.4783 45.6778 81.4391 45.7561 81.3648C45.9087 81.2122 45.9087 80.9617 45.7561 80.8091ZM39.6087 68.3343L42.97 71.6957H40.7826C40.137 71.6957 39.6087 71.1674 39.6087 70.5217V68.3343ZM43.5217 79.3613L42.07 80.8091C41.9174 80.9617 41.9174 81.2122 42.07 81.3648C42.2226 81.5174 42.473 81.5174 42.6257 81.3648L43.5217 80.4648V83.0435C43.5217 83.6891 42.9935 84.2174 42.3478 84.2174H32.9565C32.3109 84.2174 31.7826 83.6891 31.7826 83.0435V68.9565C31.7826 68.3109 32.3109 67.7826 32.9565 67.7826H38.8261V70.5217C38.8261 71.6017 39.7026 72.4783 40.7826 72.4783H43.5217V79.3613Z" fill="url(#paint7_linear_1668_6860)" fill-opacity="0.95"/>
<path d="M42.9697 71.6953H40.7823C40.1367 71.6953 39.6084 71.167 39.6084 70.5214V68.334L42.9697 71.6953Z" fill="#98F8F2" fill-opacity="0.3"/>
<path d="M43.5223 79.3619V72.4789H40.7832C39.7032 72.4789 38.8267 71.6023 38.8267 70.5223V67.7832H32.9571C32.3115 67.7832 31.7832 68.3115 31.7832 68.9571V83.0441C31.7832 83.6897 32.3115 84.218 32.9571 84.218H42.3484C42.9941 84.218 43.5223 83.6897 43.5223 83.0441V80.4654L42.6262 81.3654C42.4736 81.518 42.2232 81.518 42.0706 81.3654C41.918 81.2128 41.918 80.9623 42.0706 80.8097L43.5223 79.3619ZM38.4354 80.6962H34.131C33.9158 80.6962 33.7397 80.5202 33.7397 80.3049C33.7397 80.0897 33.9158 79.9136 34.131 79.9136H38.4354C38.6506 79.9136 38.8267 80.0897 38.8267 80.3049C38.8267 80.5202 38.6506 80.6962 38.4354 80.6962ZM38.4354 78.3484H34.131C33.9158 78.3484 33.7397 78.1723 33.7397 77.9571C33.7397 77.7419 33.9158 77.5658 34.131 77.5658H38.4354C38.6506 77.5658 38.8267 77.7419 38.8267 77.9571C38.8267 78.1723 38.6506 78.3484 38.4354 78.3484ZM38.4354 76.0006H34.131C33.9158 76.0006 33.7397 75.8245 33.7397 75.6093C33.7397 75.3941 33.9158 75.218 34.131 75.218H38.4354C38.6506 75.218 38.8267 75.3941 38.8267 75.6093C38.8267 75.8245 38.6506 76.0006 38.4354 76.0006ZM41.1745 80.6962H40.0006C39.7854 80.6962 39.6093 80.5202 39.6093 80.3049C39.6093 80.0897 39.7854 79.9136 40.0006 79.9136H41.1745C41.3897 79.9136 41.5658 80.0897 41.5658 80.3049C41.5658 80.5202 41.3897 80.6962 41.1745 80.6962ZM41.1745 78.3484H40.0006C39.7854 78.3484 39.6093 78.1723 39.6093 77.9571C39.6093 77.7419 39.7854 77.5658 40.0006 77.5658H41.1745C41.3897 77.5658 41.5658 77.7419 41.5658 77.9571C41.5658 78.1723 41.3897 78.3484 41.1745 78.3484ZM41.1745 76.0006H40.0006C39.7854 76.0006 39.6093 75.8245 39.6093 75.6093C39.6093 75.3941 39.7854 75.218 40.0006 75.218H41.1745C41.3897 75.218 41.5658 75.3941 41.5658 75.6093C41.5658 75.8245 41.3897 76.0006 41.1745 76.0006Z" fill="url(#paint8_linear_1668_6860)" fill-opacity="0.1"/>
<g opacity="0.74">
<path d="M38.8252 75.6091C38.8252 75.8243 38.6492 76.0004 38.4339 76.0004H34.1296C33.9144 76.0004 33.7383 75.8243 33.7383 75.6091C33.7383 75.3939 33.9144 75.2178 34.1296 75.2178H38.4339C38.6492 75.2178 38.8252 75.3939 38.8252 75.6091Z" fill="#73FFE6"/>
<path d="M41.5639 75.6091C41.5639 75.8243 41.3879 76.0004 41.1726 76.0004H39.9987C39.7835 76.0004 39.6074 75.8243 39.6074 75.6091C39.6074 75.3939 39.7835 75.2178 39.9987 75.2178H41.1726C41.3879 75.2178 41.5639 75.3939 41.5639 75.6091Z" fill="#73FFE6"/>
<path d="M38.8252 77.9567C38.8252 78.172 38.6492 78.348 38.4339 78.348H34.1296C33.9144 78.348 33.7383 78.172 33.7383 77.9567C33.7383 77.7415 33.9144 77.5654 34.1296 77.5654H38.4339C38.6492 77.5654 38.8252 77.7415 38.8252 77.9567Z" fill="#73FFE6"/>
<path d="M41.5639 77.9567C41.5639 78.172 41.3879 78.348 41.1726 78.348H39.9987C39.7835 78.348 39.6074 78.172 39.6074 77.9567C39.6074 77.7415 39.7835 77.5654 39.9987 77.5654H41.1726C41.3879 77.5654 41.5639 77.7415 41.5639 77.9567Z" fill="#73FFE6"/>
<path d="M38.8252 80.3044C38.8252 80.5196 38.6492 80.6957 38.4339 80.6957H34.1296C33.9144 80.6957 33.7383 80.5196 33.7383 80.3044C33.7383 80.0892 33.9144 79.9131 34.1296 79.9131H38.4339C38.6492 79.9131 38.8252 80.0892 38.8252 80.3044Z" fill="#73FFE6"/>
<path d="M41.5639 80.3044C41.5639 80.5196 41.3879 80.6957 41.1726 80.6957H39.9987C39.7835 80.6957 39.6074 80.5196 39.6074 80.3044C39.6074 80.0892 39.7835 79.9131 39.9987 79.9131H41.1726C41.3879 79.9131 41.5639 80.0892 41.5639 80.3044Z" fill="#73FFE6"/>
</g>
</g>
<line x1="114" y1="59.5" x2="159" y2="59.5" stroke="#5FFAD4"/>
<line x1="87" y1="50.75" x2="114" y2="50.75" stroke="#5FFAD4" stroke-width="0.5" stroke-dasharray="3.2 3.2"/>
<path d="M61.3206 25H114V80H47" stroke="#5FFAD4" stroke-width="0.5" stroke-dasharray="3.2 3.2"/>
<defs>
<linearGradient id="paint0_linear_1668_6860" x1="189.827" y1="64.3006" x2="182.434" y2="80.8877" gradientUnits="userSpaceOnUse">
<stop stop-color="#818B94"/>
<stop offset="1" stop-color="#858C92"/>
</linearGradient>
<linearGradient id="paint1_linear_1668_6860" x1="189.563" y1="66.1443" x2="183.664" y2="79.3792" gradientUnits="userSpaceOnUse">
<stop stop-color="#677179"/>
<stop offset="1" stop-color="#6A747B"/>
</linearGradient>
<linearGradient id="paint2_linear_1668_6860" x1="172.893" y1="77.7973" x2="181.425" y2="58.4777" gradientUnits="userSpaceOnUse">
<stop stop-color="#8E9092"/>
<stop offset="1" stop-color="#BCC6CF"/>
</linearGradient>
<linearGradient id="paint3_linear_1668_6860" x1="50.4353" y1="16" x2="50.4353" y2="34" gradientUnits="userSpaceOnUse">
<stop stop-color="#33F7B0"/>
<stop offset="1" stop-color="#33A5F7"/>
</linearGradient>
<linearGradient id="paint4_linear_1668_6860" x1="49.6528" y1="16.7832" x2="49.6528" y2="33.218" gradientUnits="userSpaceOnUse">
<stop stop-color="#F5FCCC"/>
<stop offset="1" stop-color="#8CFFE3"/>
</linearGradient>
<linearGradient id="paint5_linear_1668_6860" x1="76.4353" y1="39" x2="76.4353" y2="57" gradientUnits="userSpaceOnUse">
<stop stop-color="#33F7B0"/>
<stop offset="1" stop-color="#33A5F7"/>
</linearGradient>
<linearGradient id="paint6_linear_1668_6860" x1="75.6518" y1="39.7832" x2="75.6518" y2="56.218" gradientUnits="userSpaceOnUse">
<stop stop-color="#F5FCCC"/>
<stop offset="1" stop-color="#8CFFE3"/>
</linearGradient>
<linearGradient id="paint7_linear_1668_6860" x1="38.4353" y1="67" x2="38.4353" y2="85" gradientUnits="userSpaceOnUse">
<stop stop-color="#33F7B0"/>
<stop offset="1" stop-color="#33A5F7"/>
</linearGradient>
<linearGradient id="paint8_linear_1668_6860" x1="37.6528" y1="67.7832" x2="37.6528" y2="84.218" gradientUnits="userSpaceOnUse">
<stop stop-color="#F5FCCC"/>
<stop offset="1" stop-color="#8CFFE3"/>
</linearGradient>
</defs>
</svg>
