<svg width="292" height="103" viewBox="0 0 292 103" fill="none" xmlns="http://www.w3.org/2000/svg">
<g clip-path="url(#clip0_1654_6111)">
<rect width="292" height="102.768" fill="#1D1D26"/>
<g filter="url(#filter0_f_1654_6111)">
<rect x="167" y="8" width="67.9769" height="48.1233" rx="5.39499" fill="#DBFF00" fill-opacity="0.1"/>
</g>
<path d="M170.662 76H123.338C123.119 76 122.906 76.072 122.731 76.205L106.352 88.705C105.591 89.2855 106.002 90.5 106.959 90.5H187.041C187.998 90.5 188.409 89.2855 187.648 88.705L171.269 76.205C171.094 76.072 170.881 76 170.662 76Z" fill="#B658FF" fill-opacity="0.2" stroke="#BD00FF" stroke-width="0.22"/>
<path d="M151.514 83.6213C156.202 84.1926 156.734 71.6482 156.5 70.0187C153.821 67.7415 150.786 68.9483 149.532 70.4126C150.588 76.6273 146.826 83.0499 151.514 83.6213Z" fill="#DE493C"/>
<path d="M168.124 45.1419C171.379 48.4591 160.31 56.3397 158.841 57.0233C155.054 55.5084 158.668 50.3103 159.2 48.4889C164.89 46.0179 165.81 42.7836 168.124 45.1419Z" fill="url(#paint0_linear_1654_6111)"/>
<path d="M158.48 32.0135C152.061 21.8117 142.874 21.8114 136.963 26.9268C131.361 32.8699 135.388 39.7085 135.388 45.491C135.388 51.0485 134.782 53.4731 133.965 59.9513C133.118 66.6562 135.86 76.5338 147.105 75.6514C158.351 74.769 160.657 60.7309 161.204 56.3509C161.752 51.9709 163.784 40.4442 158.48 32.0135Z" fill="url(#paint1_linear_1654_6111)"/>
<path d="M153.076 42.8357C155.973 42.0929 157.833 40.0821 158.463 38.7596C157.675 37.0904 155.55 33.4137 153.351 32.0604C150.604 30.3689 146.953 32.2653 145.398 35.176C144.154 37.5046 143.844 40.0567 143.439 41.8721C145.227 42.8149 149.146 43.8438 153.076 42.8357Z" fill="#FEF9F5"/>
<mask id="mask0_1654_6111" style="mask-type:alpha" maskUnits="userSpaceOnUse" x="146" y="32" width="11" height="12">
<path d="M156.245 37.6045C156.527 40.4589 154.765 42.9697 152.308 43.2125C149.852 43.4552 146.928 41.5057 146.645 38.6513C146.363 35.7968 148.831 33.1183 151.287 32.8756C153.743 32.6328 155.963 34.75 156.245 37.6045Z" fill="black"/>
</mask>
<g mask="url(#mask0_1654_6111)">
<path d="M153.21 44.0145C156.008 42.958 157.967 40.0489 158.597 38.7264C157.809 37.0572 155.683 33.3805 153.485 32.0273C150.738 30.3357 147.087 32.2322 145.532 35.1429C144.288 37.4714 143.484 40.9213 142.967 42.4449C144.755 43.3876 149.713 45.335 153.21 44.0145Z" fill="black"/>
</g>
<path d="M128.612 63.9984C131.764 67.4146 139.279 59.371 140.142 58.0002C140.961 53.148 137.418 52.5317 135.544 52.8301C132.375 58.1634 125.461 60.5823 128.612 63.9984Z" fill="#F5543C"/>
<path d="M142.122 83.6213C146.809 84.1926 147.341 71.6482 147.108 70.0187C144.429 67.7415 141.394 68.9483 140.139 70.4126C141.195 76.6273 137.434 83.0499 142.122 83.6213Z" fill="url(#paint2_linear_1654_6111)"/>
<path d="M132.594 64.4234C139.405 60.0972 140.362 57.7756 140.858 57.0751C140.838 57.6325 140.272 59.3538 139.009 60.8104C137.935 62.0483 134.586 64.3712 132.594 64.4234Z" fill="#DB422A"/>
<g filter="url(#filter1_f_1654_6111)">
<rect x="166" y="9" width="67.9769" height="48.1233" rx="5.39499" fill="#DBFF00" fill-opacity="0.2"/>
</g>
<rect x="171.108" y="12.1079" width="58.2659" height="41.4335" rx="5.28709" fill="#19B892" fill-opacity="0.2" stroke="#7FFF00" stroke-width="0.2158"/>
<path d="M199.051 29.3621C193.978 34.5762 195.322 39.0693 196.314 40.9867C202.019 50.7122 216.276 42.3824 221.223 37.5234C225.18 33.6363 225.427 27.327 223.05 24.5745C219.284 26.1862 215.959 26.4125 213.492 26.2662C208.92 25.995 203.335 24.958 199.051 29.3621Z" stroke="#76FF9C" stroke-width="0.33" stroke-dasharray="0.66 0.66"/>
<path d="M195.55 38.534C195.909 37.6378 198.274 35.6889 202.627 34.6484C208.068 33.3478 213.238 36.6187 218.847 31.305" stroke="#76FF9C" stroke-width="0.33" stroke-dasharray="0.66 0.66"/>
<path d="M215.145 29.4621L210.757 34.4247C212.363 35.1082 216.064 36.3346 218.017 35.7729" stroke="#76FF9C" stroke-width="0.33" stroke-dasharray="0.66 0.66"/>
<path d="M207.119 29.1269C205.946 30.2572 203.538 32.8529 203.289 34.1933C203.64 35.414 205.104 38.1122 208.148 39.1397" stroke="#76FF9C" stroke-width="0.33" stroke-dasharray="0.66 0.66"/>
<path d="M200.56 30.221C199.794 31.2343 198.159 33.8193 198.302 36.157C198.619 37.5638 199.901 40.6137 202.499 41.5582" stroke="#76FF9C" stroke-width="0.33" stroke-dasharray="0.66 0.66"/>
<path d="M193.372 22.9365H194.299V24.0008H193.372V22.9365Z" fill="#76FF9C"/>
<path d="M190.233 21.3895C189.988 21.3895 189.801 21.4852 189.675 21.6766C189.549 21.868 189.485 22.1516 189.485 22.5275C189.485 22.9015 189.549 23.1852 189.675 23.3783C189.801 23.5698 189.988 23.6655 190.233 23.6655C190.481 23.6655 190.668 23.5698 190.795 23.3783C190.921 23.1852 190.984 22.9015 190.984 22.5275C190.984 22.1516 190.921 21.868 190.795 21.6766C190.668 21.4852 190.481 21.3895 190.233 21.3895ZM190.233 20.9785C190.643 20.9785 190.955 21.1111 191.171 21.3763C191.389 21.6415 191.498 22.0252 191.498 22.5275C191.498 23.0315 191.39 23.4161 191.174 23.6813C190.958 23.9447 190.644 24.0764 190.233 24.0764C189.824 24.0764 189.512 23.9447 189.296 23.6813C189.08 23.4161 188.972 23.0315 188.972 22.5275C188.972 22.0252 189.08 21.6415 189.296 21.3763C189.512 21.1111 189.824 20.9785 190.233 20.9785Z" fill="#76FF9C"/>
<path d="M187.675 19.9014V20.3044H187.125C186.951 20.3044 186.83 20.3404 186.761 20.4124C186.694 20.4827 186.661 20.6082 186.661 20.7891V21.0499H187.675V21.4266H186.661V24.0003H186.176V21.4266H185.389V21.0499H186.176V20.8444C186.176 20.5213 186.25 20.2833 186.398 20.1305C186.547 19.9778 186.779 19.9014 187.093 19.9014H187.675Z" fill="#76FF9C"/>
<path d="M183.907 22.1718V24H183.42V22.1718C183.42 21.9067 183.373 21.7117 183.28 21.587C183.187 21.4623 183.041 21.4 182.843 21.4C182.616 21.4 182.442 21.4808 182.319 21.6424C182.198 21.8022 182.137 22.0322 182.137 22.3325V24H181.652V21.0496H182.137V21.4922C182.223 21.3236 182.34 21.1963 182.487 21.1102C182.635 21.0224 182.81 20.9785 183.012 20.9785C183.312 20.9785 183.536 21.0777 183.683 21.2762C183.833 21.4729 183.907 21.7714 183.907 22.1718Z" fill="#76FF9C"/>
<path d="M177.932 20.0674H180.115V20.5152H179.291V23.5525H180.115V24.0004H177.932V23.5525H178.756V20.5152H177.932V20.0674Z" fill="#76FF9C"/>
<line x1="193.889" y1="36.1003" x2="184.889" y2="26.1003" stroke="#76FF9C" stroke-width="0.3"/>
<rect x="214.108" y="49.1079" width="29.7842" height="22.7842" rx="3.8921" fill="#ACFF58" fill-opacity="0.2" stroke="#7FFF00" stroke-width="0.2158"/>
<path d="M233.525 60.6712C233.755 60.8303 233.755 61.1697 233.525 61.3288L227.128 65.7612C226.863 65.945 226.5 65.7551 226.5 65.4324L226.5 56.5676C226.5 56.2449 226.863 56.055 227.128 56.2388L233.525 60.6712Z" fill="#7FFF00"/>
<rect x="166.108" y="58.1079" width="40.7861" height="2.5896" rx="1.2948" fill="#F2A632" fill-opacity="0.2" stroke="#FFAB49" stroke-width="0.2158"/>
<rect x="166" y="58" width="27.5687" height="2.80539" rx="1.4027" fill="#F2A632" fill-opacity="0.7"/>
<g filter="url(#filter2_f_1654_6111)">
<rect x="59" y="25" width="67.9769" height="48.1233" rx="5.39499" fill="#DBFF00" fill-opacity="0.2"/>
</g>
<rect x="64.1079" y="28.1079" width="58.2659" height="41.4335" rx="5.28709" fill="#58FFD7" fill-opacity="0.2" stroke="#7FFF00" stroke-width="0.2158"/>
<circle cx="93.2811" cy="44.9676" r="8.65953" stroke="#76FF9C" stroke-width="0.2158" stroke-dasharray="1.08 1.08"/>
<path d="M89.9521 52.9229L88.4097 61.7715H84.9189" stroke="#76FF9C" stroke-width="0.2158" stroke-dasharray="1.08 1.08"/>
<path d="M96.6905 52.9229L98.2329 61.7715H101.724" stroke="#76FF9C" stroke-width="0.2158" stroke-dasharray="1.08 1.08"/>
<path d="M84.6759 43.668L79.5615 47.3211L85.4877 49.0258C85.5688 49.6753 85.5201 51.0553 84.6759 51.3801" stroke="#76FF9C" stroke-width="0.2158" stroke-dasharray="1.08 1.08"/>
<path d="M101.914 43.668L107.028 47.3211L101.102 49.0258C101.021 49.6753 101.07 51.0553 101.914 51.3801" stroke="#76FF9C" stroke-width="0.2158" stroke-dasharray="1.08 1.08"/>
<path d="M87.5166 43.4248C88.0037 43.9119 97.4206 44.2366 99.2065 43.4248" stroke="#76FF9C" stroke-width="0.2158" stroke-dasharray="1.08 1.08"/>
<circle cx="90.3579" cy="40.4214" r="0.32472" fill="#76FF9C"/>
<circle cx="95.229" cy="40.4214" r="0.32472" fill="#76FF9C"/>
<path d="M105.367 77.2699C105.426 77.1434 105.502 77.0503 105.593 76.9906C105.686 76.9292 105.798 76.8984 105.928 76.8984C106.165 76.8984 106.332 76.9906 106.428 77.175C106.527 77.3577 106.576 77.7028 106.576 78.2103V79.9199H106.133V78.2314C106.133 77.8152 106.11 77.557 106.062 77.4569C106.016 77.355 105.932 77.3041 105.809 77.3041C105.669 77.3041 105.572 77.3586 105.519 77.4674C105.469 77.5746 105.443 77.8292 105.443 78.2314V79.9199H105.001V78.2314C105.001 77.8099 104.975 77.55 104.924 77.4516C104.875 77.3533 104.785 77.3041 104.655 77.3041C104.527 77.3041 104.438 77.3586 104.387 77.4674C104.338 77.5746 104.313 77.8292 104.313 78.2314V79.9199H103.873V76.9696H104.313V77.2225C104.371 77.1171 104.443 77.0372 104.529 76.9827C104.617 76.9265 104.716 76.8984 104.827 76.8984C104.96 76.8984 105.071 76.9292 105.159 76.9906C105.248 77.0521 105.318 77.1452 105.367 77.2699Z" fill="#76FF9C"/>
<path d="M100.364 78.8028V76.9746H100.849V78.8028C100.849 79.068 100.896 79.2629 100.989 79.3876C101.083 79.5123 101.229 79.5746 101.426 79.5746C101.654 79.5746 101.829 79.4947 101.95 79.3349C102.071 79.1733 102.132 78.9424 102.132 78.6421V76.9746H102.619V79.9197H102.132V79.4772C102.046 79.6475 101.928 79.7766 101.779 79.8644C101.631 79.9522 101.458 79.9961 101.26 79.9961C100.958 79.9961 100.733 79.8978 100.586 79.7011C100.438 79.5026 100.364 79.2032 100.364 78.8028Z" fill="#76FF9C"/>
<path d="M99.0639 78.2024V78.4395H96.9644V78.4553C96.9503 78.8575 97.0267 79.1463 97.1935 79.322C97.3621 79.4976 97.5992 79.5854 97.9048 79.5854C98.0593 79.5854 98.2209 79.5608 98.3895 79.5116C98.5581 79.4625 98.7381 79.3878 98.9295 79.2877V79.7698C98.7451 79.8453 98.5669 79.9015 98.3948 79.9384C98.2244 79.977 98.0593 79.9963 97.8995 79.9963C97.4412 79.9963 97.0829 79.8594 96.8247 79.5854C96.5666 79.3097 96.4375 78.9303 96.4375 78.4474C96.4375 77.9767 96.5639 77.6009 96.8168 77.3199C97.0697 77.0389 97.4069 76.8984 97.8284 76.8984C98.2042 76.8984 98.5001 77.0258 98.7161 77.2804C98.9339 77.5351 99.0498 77.8424 99.0639 78.2024ZM98.5792 78.0602C98.5581 77.8564 98.4835 77.6808 98.3553 77.5333C98.2288 77.384 98.0462 77.3094 97.8073 77.3094C97.5737 77.3094 97.3814 77.3867 97.2304 77.5412C97.0794 77.6957 96.9968 77.8696 96.9828 78.0628L98.5792 78.0602Z" fill="#76FF9C"/>
<path d="M94.9405 77.0723V77.5465C94.8018 77.4657 94.6622 77.4051 94.5217 77.3647C94.3812 77.3243 94.2381 77.3041 94.0923 77.3041C93.8728 77.3041 93.7086 77.3401 93.5997 77.4121C93.4926 77.4824 93.439 77.5904 93.439 77.7361C93.439 77.8678 93.4794 77.9662 93.5602 78.0312C93.6409 78.0962 93.842 78.1594 94.1634 78.2208L94.3583 78.2577C94.5989 78.3034 94.7807 78.3947 94.9036 78.5317C95.0283 78.6687 95.0907 78.8469 95.0907 79.0664C95.0907 79.358 94.9871 79.5863 94.7798 79.7514C94.5726 79.9147 94.2846 79.9963 93.9158 79.9963C93.77 79.9963 93.6172 79.9805 93.4574 79.9489C93.2976 79.9191 93.1246 79.8734 92.9385 79.8119V79.3114C93.1194 79.4045 93.2923 79.4748 93.4574 79.5222C93.6225 79.5678 93.7788 79.5907 93.9263 79.5907C94.1406 79.5907 94.3065 79.5476 94.4242 79.4616C94.5419 79.3738 94.6007 79.2517 94.6007 79.0954C94.6007 78.8706 94.3856 78.7152 93.9553 78.6292L93.9342 78.6239L93.7525 78.587C93.4732 78.5326 93.2695 78.4412 93.1413 78.313C93.0131 78.1831 92.949 78.0066 92.949 77.7836C92.949 77.5008 93.0447 77.283 93.2361 77.1303C93.4276 76.9757 93.7007 76.8984 94.0554 76.8984C94.2135 76.8984 94.3654 76.9134 94.5111 76.9432C94.6569 76.9713 94.8 77.0143 94.9405 77.0723Z" fill="#76FF9C"/>
<path d="M89.1553 78.8028V76.9746H89.64V78.8028C89.64 79.068 89.6865 79.2629 89.7796 79.3876C89.8744 79.5123 90.0202 79.5746 90.2169 79.5746C90.4452 79.5746 90.6199 79.4947 90.7411 79.3349C90.8623 79.1733 90.9229 78.9424 90.9229 78.6421V76.9746H91.4102V79.9197H90.9229V79.4772C90.8368 79.6475 90.7192 79.7766 90.5699 79.8644C90.4224 79.9522 90.2494 79.9961 90.0509 79.9961C89.7489 79.9961 89.5241 79.8978 89.3766 79.7011C89.229 79.5026 89.1553 79.2032 89.1553 78.8028Z" fill="#76FF9C"/>
<path d="M85 76H85.7113L86.3909 77.9968L87.0758 76H87.7897V79.9198H87.2971V76.4557L86.5964 78.521H86.1933L85.49 76.4557V79.9198H85V76Z" fill="#76FF9C"/>
<rect x="51" y="66" width="30.9937" height="10.5035" rx="5.02676" fill="#16CF89"/>
<path d="M75.0867 73.5033C74.9586 73.5033 74.8945 73.4392 74.8945 73.3111V70.0802C74.8945 69.9538 74.9586 69.8906 75.0867 69.8906C75.2131 69.8906 75.2763 69.9538 75.2763 70.0802V70.2023C75.3646 70.0984 75.4789 70.0205 75.6191 69.9685C75.7594 69.9166 75.9247 69.8906 76.1152 69.8906H76.3126C76.6502 69.8906 76.8995 69.9711 77.0606 70.1322C77.2216 70.2932 77.3021 70.5425 77.3021 70.8801V71.4723C77.3021 71.8099 77.2216 72.0601 77.0606 72.2229C76.8995 72.3839 76.6502 72.4644 76.3126 72.4644H75.2763V73.3111C75.2763 73.4392 75.2131 73.5033 75.0867 73.5033ZM75.2763 72.0826H76.3126C76.5463 72.0826 76.7056 72.0393 76.7905 71.9528C76.877 71.8662 76.9203 71.706 76.9203 71.4723V70.8801C76.9203 70.6464 76.877 70.4871 76.7905 70.4023C76.7056 70.3157 76.5463 70.2724 76.3126 70.2724H76.1152C75.878 70.2724 75.6823 70.3044 75.5282 70.3685C75.3741 70.4308 75.2902 70.5295 75.2763 70.6646V72.0826Z" fill="black"/>
<path d="M72.392 72.4644C72.108 72.4644 71.8976 72.396 71.7608 72.2592C71.6241 72.1225 71.5557 71.9121 71.5557 71.6281C71.5557 71.3442 71.6232 71.1338 71.7582 70.997C71.895 70.8602 72.1063 70.7918 72.392 70.7918H73.5165C73.5096 70.5945 73.4611 70.4585 73.3711 70.3841C73.281 70.3096 73.1278 70.2724 72.9114 70.2724H72.6101C72.4214 70.2724 72.2811 70.288 72.1894 70.3192C72.0993 70.3503 72.0387 70.4049 72.0076 70.4828C71.9833 70.5451 71.9565 70.5893 71.9271 70.6152C71.8994 70.6395 71.8561 70.6516 71.7972 70.6516C71.7331 70.6516 71.6829 70.6343 71.6466 70.5996C71.6119 70.5633 71.6015 70.5157 71.6154 70.4568C71.657 70.2612 71.7591 70.1183 71.9219 70.0283C72.0846 69.9365 72.314 69.8906 72.6101 69.8906H72.9114C73.249 69.8906 73.4983 69.9711 73.6594 70.1322C73.8204 70.2932 73.9009 70.5425 73.9009 70.8801V72.2722C73.9009 72.4003 73.8377 72.4644 73.7113 72.4644C73.5832 72.4644 73.5191 72.4003 73.5191 72.2722V72.1086C73.3408 72.3458 73.062 72.4644 72.6828 72.4644H72.392ZM72.392 72.0826H72.6828C72.8231 72.0826 72.9521 72.0688 73.0698 72.0411C73.1875 72.0134 73.2862 71.9649 73.3659 71.8956C73.4455 71.8264 73.4966 71.7294 73.5191 71.6047V71.1736H72.392C72.2136 71.1736 72.0933 71.2057 72.0309 71.2697C71.9686 71.332 71.9374 71.4515 71.9374 71.6281C71.9374 71.8065 71.9686 71.9268 72.0309 71.9891C72.0933 72.0515 72.2136 72.0826 72.392 72.0826Z" fill="black"/>
<path d="M69.8387 70C70.1504 70 70.3737 70.0753 70.5088 70.226C70.6438 70.3766 70.7113 70.625 70.7113 70.9713V72.3868C70.7113 72.5132 70.6481 72.5764 70.5217 72.5764C70.3936 72.5764 70.3296 72.5132 70.3296 72.3868V70.9713C70.3296 70.7636 70.2915 70.6138 70.2153 70.522C70.1391 70.4285 70.0136 70.3818 69.8387 70.3818H69.6257C69.418 70.3818 69.2691 70.4285 69.179 70.522C69.0907 70.6138 69.0466 70.7636 69.0466 70.9713V72.3868C69.0466 72.5132 68.9834 72.5764 68.857 72.5764C68.7288 72.5764 68.6648 72.5132 68.6648 72.3868V70.9713C68.6648 70.7636 68.6267 70.6138 68.5505 70.522C68.4743 70.4285 68.3488 70.3818 68.1739 70.3818H67.9609C67.7532 70.3818 67.6043 70.4285 67.5142 70.522C67.4259 70.6138 67.3818 70.7636 67.3818 70.9713V72.3868C67.3818 72.5132 67.3186 72.5764 67.1922 72.5764C67.0641 72.5764 67 72.5132 67 72.3868V70.1922C67 70.0658 67.0641 70.0026 67.1922 70.0026C67.3186 70.0026 67.3818 70.0658 67.3818 70.1922V70.3402C67.4684 70.219 67.5653 70.1325 67.6727 70.0805C67.7817 70.0268 67.9142 70 68.07 70H68.1739C68.3782 70 68.5392 70.0312 68.657 70.0935C68.7765 70.1541 68.8682 70.2528 68.9323 70.3896C69.0189 70.2493 69.115 70.1498 69.2206 70.0909C69.3262 70.0303 69.4612 70 69.6257 70H69.8387Z" fill="black"/>
<path d="M62.5185 71.3322V71.4776C62.5185 71.7079 62.5618 71.8663 62.6484 71.9529C62.7349 72.0395 62.8951 72.0827 63.1288 72.0827H63.5548C63.7452 72.0827 63.8846 72.0628 63.9729 72.023C64.0629 71.9814 64.1209 71.9096 64.1469 71.8074C64.1608 71.7503 64.1824 71.7061 64.2118 71.675C64.243 71.6438 64.2889 71.6282 64.3495 71.6282C64.4136 71.6282 64.462 71.6455 64.4949 71.6802C64.5278 71.7131 64.5391 71.7616 64.5287 71.8256C64.4958 72.042 64.398 72.2031 64.2352 72.3087C64.0742 72.4126 63.8474 72.4645 63.5548 72.4645H63.1288C62.7912 72.4645 62.541 72.384 62.3783 72.223C62.2172 72.062 62.1367 71.8135 62.1367 71.4776V70.8803C62.1367 70.5374 62.2172 70.2864 62.3783 70.1271C62.541 69.9661 62.7912 69.8873 63.1288 69.8907H63.5548C63.8924 69.8907 64.1417 69.9712 64.3027 70.1323C64.4638 70.2916 64.5443 70.5409 64.5443 70.8803V71.14C64.5443 71.2681 64.4811 71.3322 64.3547 71.3322H62.5185ZM63.1288 70.2725C62.8951 70.2691 62.7349 70.3106 62.6484 70.3972C62.5618 70.4838 62.5185 70.6448 62.5185 70.8803V70.9504H64.1625V70.8803C64.1625 70.6465 64.1192 70.4872 64.0326 70.4024C63.9478 70.3158 63.7885 70.2725 63.5548 70.2725H63.1288Z" fill="black"/>
<path d="M59.2822 71.3322V71.4776C59.2822 71.7079 59.3255 71.8663 59.412 71.9529C59.4986 72.0395 59.6588 72.0827 59.8925 72.0827H60.3184C60.5089 72.0827 60.6483 72.0628 60.7366 72.023C60.8266 71.9814 60.8846 71.9096 60.9106 71.8074C60.9244 71.7503 60.9461 71.7061 60.9755 71.675C61.0067 71.6438 61.0526 71.6282 61.1132 71.6282C61.1772 71.6282 61.2257 71.6455 61.2586 71.6802C61.2915 71.7131 61.3028 71.7616 61.2924 71.8256C61.2595 72.042 61.1617 72.2031 60.9989 72.3087C60.8379 72.4126 60.6111 72.4645 60.3184 72.4645H59.8925C59.5549 72.4645 59.3047 72.384 59.1419 72.223C58.9809 72.062 58.9004 71.8135 58.9004 71.4776V70.8803C58.9004 70.5374 58.9809 70.2864 59.1419 70.1271C59.3047 69.9661 59.5549 69.8873 59.8925 69.8907H60.3184C60.6561 69.8907 60.9054 69.9712 61.0664 70.1323C61.2274 70.2916 61.308 70.5409 61.308 70.8803V71.14C61.308 71.2681 61.2448 71.3322 61.1184 71.3322H59.2822ZM59.8925 70.2725C59.6588 70.2691 59.4986 70.3106 59.412 70.3972C59.3255 70.4838 59.2822 70.6448 59.2822 70.8803V70.9504H60.9262V70.8803C60.9262 70.6465 60.8829 70.4872 60.7963 70.4024C60.7115 70.3158 60.5522 70.2725 60.3184 70.2725H59.8925Z" fill="black"/>
<path d="M56.334 72.462C56.0345 72.462 55.8042 72.3997 55.6432 72.275C55.4839 72.1486 55.3887 71.953 55.3575 71.6881C55.3523 71.624 55.3662 71.5755 55.3991 71.5426C55.4337 71.508 55.4822 71.4907 55.5445 71.4907C55.6068 71.4907 55.6527 71.5063 55.6822 71.5374C55.7133 71.5686 55.7332 71.6153 55.7419 71.6777C55.7627 71.83 55.8172 71.9357 55.9055 71.9945C55.9955 72.0517 56.1384 72.0802 56.334 72.0802H57.082C57.314 72.0802 57.4725 72.0378 57.5573 71.953C57.6439 71.8664 57.6872 71.7097 57.6872 71.4829C57.6872 71.2526 57.643 71.0942 57.5547 71.0076C57.4681 70.9193 57.3106 70.8751 57.082 70.8751H56.4171C56.0968 70.8751 55.8596 70.7981 55.7055 70.644C55.5532 70.4899 55.477 70.2536 55.477 69.935C55.477 69.6164 55.5523 69.3809 55.7029 69.2286C55.8553 69.0762 56.0916 69 56.412 69H57.0664C57.3469 69 57.5625 69.0597 57.7131 69.1792C57.8655 69.2969 57.9573 69.4796 57.9884 69.7272C57.9954 69.7913 57.9815 69.8406 57.9469 69.8752C57.914 69.9081 57.8655 69.9246 57.8014 69.9246C57.7408 69.9246 57.695 69.909 57.6638 69.8778C57.6326 69.8449 57.6136 69.7982 57.6066 69.7376C57.5859 69.6043 57.5339 69.5116 57.4508 69.4597C57.3694 69.4078 57.2413 69.3818 57.0664 69.3818H56.412C56.1973 69.3818 56.0509 69.4216 55.973 69.5013C55.8969 69.5792 55.8588 69.7237 55.8588 69.935C55.8588 70.1462 55.8977 70.2925 55.9756 70.3739C56.0553 70.4535 56.2025 70.4934 56.4171 70.4934H57.082C57.4179 70.4934 57.6664 70.5739 57.8274 70.7349C57.9884 70.8959 58.0689 71.1453 58.0689 71.4829C58.0689 71.8188 57.9884 72.0664 57.8274 72.2257C57.6664 72.3832 57.4179 72.462 57.082 72.462H56.334Z" fill="black"/>
<rect x="59.2158" y="19.2158" width="15.9692" height="17.4798" rx="2.3738" stroke="#67EEAD" stroke-opacity="0.4" stroke-width="0.431599"/>
<path d="M244.85 35.8333C244.85 37.1844 244.338 39.1406 243.459 40.917C242.591 42.6722 241.384 44.2147 240 44.8362C238.616 44.2147 237.409 42.6722 236.541 40.917C235.662 39.1406 235.15 37.1844 235.15 35.8333C235.15 33.7761 235.702 32.3599 236.572 31.4583C237.442 30.5571 238.649 30.15 240 30.15C241.342 30.15 242.55 30.6553 243.425 31.6116C244.3 32.5685 244.85 33.9883 244.85 35.8333Z" stroke="#FAFF15" stroke-width="0.3"/>
<circle cx="240" cy="35.833" r="2.35" stroke="#FAFF15" stroke-width="0.3"/>
</g>
<defs>
<filter id="filter0_f_1654_6111" x="142.399" y="-16.6012" width="117.179" height="97.3254" filterUnits="userSpaceOnUse" color-interpolation-filters="sRGB">
<feFlood flood-opacity="0" result="BackgroundImageFix"/>
<feBlend mode="normal" in="SourceGraphic" in2="BackgroundImageFix" result="shape"/>
<feGaussianBlur stdDeviation="12.3006" result="effect1_foregroundBlur_1654_6111"/>
</filter>
<filter id="filter1_f_1654_6111" x="141.399" y="-15.6012" width="117.179" height="97.3254" filterUnits="userSpaceOnUse" color-interpolation-filters="sRGB">
<feFlood flood-opacity="0" result="BackgroundImageFix"/>
<feBlend mode="normal" in="SourceGraphic" in2="BackgroundImageFix" result="shape"/>
<feGaussianBlur stdDeviation="12.3006" result="effect1_foregroundBlur_1654_6111"/>
</filter>
<filter id="filter2_f_1654_6111" x="34.3988" y="0.398848" width="117.179" height="97.3254" filterUnits="userSpaceOnUse" color-interpolation-filters="sRGB">
<feFlood flood-opacity="0" result="BackgroundImageFix"/>
<feBlend mode="normal" in="SourceGraphic" in2="BackgroundImageFix" result="shape"/>
<feGaussianBlur stdDeviation="12.3006" result="effect1_foregroundBlur_1654_6111"/>
</filter>
<linearGradient id="paint0_linear_1654_6111" x1="168.928" y1="46.7738" x2="156.656" y2="54.7832" gradientUnits="userSpaceOnUse">
<stop stop-color="#E04D40"/>
<stop offset="1" stop-color="#F15F56"/>
</linearGradient>
<linearGradient id="paint1_linear_1654_6111" x1="168.31" y1="35.4008" x2="136.587" y2="73.8131" gradientUnits="userSpaceOnUse">
<stop stop-color="#FB9782"/>
<stop offset="0.302083" stop-color="#F46639"/>
<stop offset="0.760417" stop-color="#F44C3C"/>
</linearGradient>
<linearGradient id="paint2_linear_1654_6111" x1="143.957" y1="83.4002" x2="143.961" y2="68.5088" gradientUnits="userSpaceOnUse">
<stop stop-color="#DA4639"/>
<stop offset="1" stop-color="#EC5B4F"/>
</linearGradient>
<clipPath id="clip0_1654_6111">
<rect width="292" height="102.768" fill="white"/>
</clipPath>
</defs>
</svg>
