<svg width="292" height="103" viewBox="0 0 292 103" fill="none" xmlns="http://www.w3.org/2000/svg">
<g clip-path="url(#clip0_1654_6513)">
<rect width="292" height="102.768" fill="#1D1D26"/>
<g filter="url(#filter0_f_1654_6513)">
<rect x="127.061" y="24.0273" width="67.9769" height="48.1233" rx="5.39499" fill="#DBFF00" fill-opacity="0.2"/>
</g>
<g filter="url(#filter1_f_1654_6513)">
<ellipse cx="114.976" cy="91.2494" rx="26.3275" ry="1.4027" fill="#270B31" fill-opacity="0.2"/>
</g>
<path d="M120.513 89.9435C125.201 90.5149 125.733 77.9705 125.499 76.341C122.82 74.0638 119.785 75.2706 118.531 76.7349C119.587 82.9496 115.825 89.3722 120.513 89.9435Z" fill="#DE493C"/>
<path d="M137.124 51.4641C140.379 54.7814 129.31 62.662 127.841 63.3456C124.054 61.8307 127.668 56.6326 128.2 54.8112C133.89 52.3402 134.81 49.1059 137.124 51.4641Z" fill="url(#paint0_linear_1654_6513)"/>
<path d="M127.48 38.3358C121.061 28.1339 111.874 28.1337 105.963 33.2491C100.361 39.1921 104.388 46.0308 104.388 51.8133C104.388 57.3707 103.782 59.7954 102.965 66.2736C102.118 72.9784 104.86 82.856 116.105 81.9736C127.351 81.0912 129.657 67.0532 130.204 62.6732C130.752 58.2932 132.784 46.7665 127.48 38.3358Z" fill="url(#paint1_linear_1654_6513)"/>
<path d="M122.076 49.159C124.973 48.4161 126.833 46.4053 127.463 45.0828C126.675 43.4136 124.55 39.7369 122.351 38.3837C119.604 36.6921 115.953 38.5886 114.398 41.4993C113.154 43.8278 112.844 46.3799 112.439 48.1954C114.227 49.1381 118.146 50.167 122.076 49.159Z" fill="#FEF9F5"/>
<mask id="mask0_1654_6513" style="mask-type:alpha" maskUnits="userSpaceOnUse" x="115" y="37" width="11" height="11">
<path d="M125.247 41.9229C125.529 44.7773 123.767 47.2881 121.31 47.5308C118.854 47.7736 115.929 45.8241 115.647 42.9696C115.365 40.1152 117.833 37.4367 120.289 37.1939C122.745 36.9512 124.965 39.0684 125.247 41.9229Z" fill="black"/>
</mask>
<g mask="url(#mask0_1654_6513)">
<path d="M122.21 50.3387C125.008 49.2823 126.967 46.3731 127.597 45.0506C126.809 43.3814 124.683 39.7047 122.485 38.3515C119.738 36.6599 116.087 38.5564 114.532 41.4671C113.288 43.7956 112.484 47.2455 111.967 48.7691C113.755 49.7119 118.713 51.6592 122.21 50.3387Z" fill="black"/>
</g>
<path d="M125.952 51.6163C128.943 55.1732 120.016 61.6141 118.548 62.2977C113.631 62.4983 113.466 58.9056 113.999 57.0842C119.689 54.6132 122.96 48.0595 125.952 51.6163Z" fill="url(#paint2_linear_1654_6513)"/>
<path d="M111.121 89.9435C115.808 90.5149 116.34 77.9705 116.107 76.341C113.428 74.0638 110.393 75.2706 109.138 76.7349C110.194 82.9496 106.433 89.3722 111.121 89.9435Z" fill="url(#paint3_linear_1654_6513)"/>
<path d="M125.871 55.6191C120.72 61.8301 118.296 62.4865 117.539 62.8905C118.095 62.941 119.873 62.5966 121.478 61.5271C122.841 60.6182 125.568 57.5885 125.871 55.6191Z" fill="#DB422A"/>
<rect x="131.915" y="27.3725" width="58.2659" height="41.4335" rx="5.28709" fill="#58FFD7" fill-opacity="0.2" stroke="#7FFF00" stroke-width="0.2158"/>
<rect x="181.009" y="22.3008" width="15.9692" height="17.4798" rx="2.3738" stroke="#67EEAD" stroke-opacity="0.4" stroke-width="0.431599"/>
<circle cx="161.088" cy="44.2323" r="8.65953" stroke="#76FF9C" stroke-width="0.2158" stroke-dasharray="1.08 1.08"/>
<path d="M157.76 52.1875L156.217 61.0361H152.727" stroke="#76FF9C" stroke-width="0.2158" stroke-dasharray="1.08 1.08"/>
<path d="M164.498 52.1875L166.041 61.0361H169.531" stroke="#76FF9C" stroke-width="0.2158" stroke-dasharray="1.08 1.08"/>
<path d="M152.483 42.9326L147.369 46.5857L153.295 48.2905C153.376 48.9399 153.328 50.32 152.483 50.6447" stroke="#76FF9C" stroke-width="0.2158" stroke-dasharray="1.08 1.08"/>
<path d="M169.722 42.9326L174.836 46.5857L168.91 48.2905C168.829 48.9399 168.877 50.32 169.722 50.6447" stroke="#76FF9C" stroke-width="0.2158" stroke-dasharray="1.08 1.08"/>
<path d="M155.324 42.6895C155.811 43.1765 165.228 43.5013 167.014 42.6895" stroke="#76FF9C" stroke-width="0.2158" stroke-dasharray="1.08 1.08"/>
<circle cx="158.167" cy="39.686" r="0.32472" fill="#76FF9C"/>
<circle cx="163.038" cy="39.686" r="0.32472" fill="#76FF9C"/>
<rect x="107.961" y="10.1079" width="44.2389" height="22.659" rx="5.28709" fill="#ACFF58" fill-opacity="0.2" stroke="#7FFF00" stroke-width="0.2158"/>
<path d="M138.711 20.1368V20.6109C138.572 20.5301 138.433 20.4695 138.292 20.4292C138.152 20.3888 138.009 20.3686 137.863 20.3686C137.643 20.3686 137.479 20.4046 137.37 20.4766C137.263 20.5468 137.209 20.6548 137.209 20.8006C137.209 20.9323 137.25 21.0306 137.331 21.0956C137.411 21.1606 137.613 21.2238 137.934 21.2853L138.129 21.3222C138.369 21.3678 138.551 21.4592 138.674 21.5961C138.799 21.7331 138.861 21.9114 138.861 22.1309C138.861 22.4224 138.758 22.6507 138.55 22.8158C138.343 22.9791 138.055 23.0608 137.686 23.0608C137.541 23.0608 137.388 23.045 137.228 23.0134C137.068 22.9835 136.895 22.9379 136.709 22.8764V22.3759C136.89 22.469 137.063 22.5392 137.228 22.5866C137.393 22.6323 137.549 22.6551 137.697 22.6551C137.911 22.6551 138.077 22.6121 138.195 22.526C138.312 22.4382 138.371 22.3162 138.371 22.1599C138.371 21.9351 138.156 21.7797 137.726 21.6936L137.705 21.6883L137.523 21.6515C137.244 21.597 137.04 21.5057 136.912 21.3775C136.784 21.2475 136.72 21.071 136.72 20.848C136.72 20.5653 136.815 20.3475 137.007 20.1947C137.198 20.0402 137.471 19.9629 137.826 19.9629C137.984 19.9629 138.136 19.9778 138.282 20.0077C138.427 20.0358 138.571 20.0788 138.711 20.1368Z" fill="#76FF9C"/>
<path d="M134.305 21.918C134.305 22.1357 134.344 22.2999 134.423 22.4106C134.504 22.5212 134.623 22.5765 134.779 22.5765H135.345V22.9849H134.732C134.442 22.9849 134.217 22.8927 134.057 22.7083C133.899 22.5221 133.82 22.2587 133.82 21.918V19.2495H133.043V18.8701H134.305V21.918Z" fill="#76FF9C"/>
<path d="M130.297 20.3738C130.051 20.3738 129.865 20.4695 129.739 20.661C129.612 20.8524 129.549 21.136 129.549 21.5118C129.549 21.8859 129.612 22.1695 129.739 22.3627C129.865 22.5541 130.051 22.6498 130.297 22.6498C130.545 22.6498 130.732 22.5541 130.858 22.3627C130.985 22.1695 131.048 21.8859 131.048 21.5118C131.048 21.136 130.985 20.8524 130.858 20.661C130.732 20.4695 130.545 20.3738 130.297 20.3738ZM130.297 19.9629C130.706 19.9629 131.019 20.0955 131.235 20.3607C131.453 20.6258 131.561 21.0096 131.561 21.5118C131.561 22.0159 131.453 22.4005 131.237 22.6657C131.021 22.9291 130.708 23.0608 130.297 23.0608C129.888 23.0608 129.575 22.9291 129.359 22.6657C129.143 22.4005 129.035 22.0159 129.035 21.5118C129.035 21.0096 129.143 20.6258 129.359 20.3607C129.575 20.0955 129.888 19.9629 130.297 19.9629Z" fill="#76FF9C"/>
<path d="M126.561 20.3738C126.315 20.3738 126.129 20.4695 126.002 20.661C125.876 20.8524 125.813 21.136 125.813 21.5118C125.813 21.8859 125.876 22.1695 126.002 22.3627C126.129 22.5541 126.315 22.6498 126.561 22.6498C126.808 22.6498 126.995 22.5541 127.122 22.3627C127.248 22.1695 127.311 21.8859 127.311 21.5118C127.311 21.136 127.248 20.8524 127.122 20.661C126.995 20.4695 126.808 20.3738 126.561 20.3738ZM126.561 19.9629C126.97 19.9629 127.282 20.0955 127.498 20.3607C127.716 20.6258 127.825 21.0096 127.825 21.5118C127.825 22.0159 127.717 22.4005 127.501 22.6657C127.285 22.9291 126.972 23.0608 126.561 23.0608C126.151 23.0608 125.839 22.9291 125.623 22.6657C125.407 22.4005 125.299 22.0159 125.299 21.5118C125.299 21.0096 125.407 20.6258 125.623 20.3607C125.839 20.0955 126.151 19.9629 126.561 19.9629Z" fill="#76FF9C"/>
<path d="M121.326 19.0518H124.327V19.4996H123.096V22.9847H122.562V19.4996H121.326V19.0518Z" fill="#76FF9C"/>
<rect x="152.309" y="65.8926" width="28.0288" height="10.3828" rx="5.02676" fill="#16CF89"/>
<path d="M161.659 70.6972C161.756 70.7638 161.756 70.9066 161.659 70.9732L158.226 73.3387C158.115 73.4153 157.964 73.3358 157.964 73.2008L157.964 68.4696C157.964 68.3346 158.115 68.255 158.226 68.3316L161.659 70.6972Z" fill="black"/>
<path d="M175.645 69.1954C175.649 69.2128 175.649 69.2301 175.645 69.2474C175.645 69.2647 175.64 69.2837 175.629 69.3045C175.616 69.353 175.6 69.3963 175.583 69.4344C175.562 69.4829 175.536 69.5244 175.505 69.559C175.491 69.5798 175.477 69.6006 175.463 69.6214C175.453 69.6387 175.442 69.656 175.432 69.6733L175.365 69.7616L174.7 70.7226L174.58 70.8732V72.2549C174.573 72.2722 174.57 72.2895 174.57 72.3068C174.57 72.3241 174.568 72.3432 174.565 72.364C174.558 72.3813 174.553 72.3986 174.549 72.4159C174.546 72.4298 174.54 72.4453 174.533 72.4627C174.527 72.4765 174.523 72.4869 174.523 72.4938C174.52 72.5008 174.516 72.5059 174.513 72.5094C174.513 72.5129 174.511 72.5181 174.508 72.525C174.487 72.5596 174.457 72.5908 174.419 72.6185C174.343 72.6566 174.256 72.6652 174.159 72.6445C174.104 72.6375 174.063 72.6202 174.035 72.5925C174.018 72.5821 174.004 72.57 173.993 72.5562C173.983 72.5423 173.972 72.5267 173.962 72.5094C173.955 72.4886 173.948 72.4696 173.941 72.4523C173.934 72.435 173.929 72.4176 173.926 72.4003C173.919 72.383 173.915 72.3674 173.915 72.3536C173.915 72.3363 173.915 72.3207 173.915 72.3068V70.8888L173.801 70.7122L173.126 69.7564L173.069 69.6629C173.048 69.6318 173.022 69.5954 172.991 69.5538C172.963 69.5158 172.939 69.4742 172.918 69.4292C172.904 69.4084 172.892 69.3876 172.882 69.3668C172.875 69.3426 172.868 69.3184 172.861 69.2941C172.851 69.2595 172.849 69.2249 172.856 69.1902C172.866 69.1452 172.887 69.1071 172.918 69.076C172.953 69.0448 172.989 69.0206 173.027 69.0032C173.076 68.9686 173.131 68.9548 173.193 68.9617C173.231 68.9617 173.264 68.9686 173.292 68.9825C173.32 68.9963 173.347 69.0119 173.375 69.0292C173.406 69.0535 173.436 69.0794 173.463 69.1071C173.495 69.1348 173.522 69.1643 173.547 69.1954C173.574 69.2301 173.6 69.263 173.624 69.2941C173.649 69.3218 173.673 69.3547 173.697 69.3928L173.713 69.4136C173.796 69.5244 173.874 69.6318 173.947 69.7356C174.019 69.8361 174.095 69.9452 174.175 70.0629C174.182 70.0698 174.192 70.0837 174.206 70.1044C174.22 70.1252 174.236 70.1495 174.253 70.1772C174.267 70.1529 174.279 70.1321 174.289 70.1148C174.303 70.0941 174.314 70.0802 174.321 70.0733C174.4 69.9555 174.476 69.8447 174.549 69.7408C174.622 69.637 174.7 69.5296 174.783 69.4188L174.793 69.398C174.821 69.3668 174.845 69.3357 174.866 69.3045C174.89 69.2699 174.916 69.2353 174.944 69.2006C174.989 69.1383 175.049 69.0846 175.126 69.0396C175.181 69.0015 175.238 68.9773 175.297 68.9669C175.363 68.96 175.42 68.9738 175.468 69.0084C175.489 69.0223 175.508 69.0344 175.526 69.0448C175.546 69.0552 175.564 69.0673 175.578 69.0812C175.605 69.1123 175.628 69.1504 175.645 69.1954Z" fill="black"/>
<path d="M172.939 72.296C172.943 72.3168 172.944 72.3376 172.944 72.3584C172.948 72.3757 172.95 72.3965 172.95 72.4207C172.95 72.4623 172.938 72.5004 172.913 72.535C172.903 72.5523 172.889 72.5696 172.872 72.5869C172.854 72.6008 172.834 72.6129 172.809 72.6233C172.723 72.6718 172.631 72.6891 172.534 72.6752C172.486 72.6614 172.442 72.6389 172.404 72.6077C172.397 72.6008 172.392 72.5973 172.389 72.5973C172.385 72.5939 172.382 72.5887 172.378 72.5817C172.375 72.5783 172.371 72.5748 172.368 72.5713C172.364 72.5644 172.359 72.5592 172.352 72.5558C172.335 72.5384 172.321 72.5229 172.311 72.509C172.3 72.4917 172.29 72.4744 172.28 72.4571C172.273 72.4398 172.264 72.4242 172.254 72.4103C172.247 72.393 172.238 72.3757 172.228 72.3584C172.221 72.3445 172.214 72.3324 172.207 72.322C172.2 72.3082 172.195 72.2943 172.191 72.2805C172.177 72.2493 172.169 72.2216 172.165 72.1974L172.056 71.9428C171.817 71.9428 171.578 71.9446 171.339 71.948C171.104 71.948 170.867 71.9463 170.628 71.9428L170.519 72.1974C170.512 72.2112 170.507 72.2251 170.503 72.2389C170.503 72.2528 170.5 72.2666 170.493 72.2805C170.486 72.2943 170.479 72.3082 170.472 72.322C170.469 72.3324 170.463 72.3445 170.456 72.3584C170.446 72.3757 170.436 72.393 170.425 72.4103C170.418 72.4242 170.41 72.4398 170.399 72.4571C170.392 72.4744 170.384 72.4917 170.373 72.509C170.363 72.5229 170.349 72.5384 170.332 72.5558C170.325 72.5592 170.32 72.5644 170.316 72.5713C170.313 72.5748 170.309 72.5783 170.306 72.5817C170.302 72.5887 170.299 72.5939 170.295 72.5973C170.292 72.5973 170.287 72.6008 170.28 72.6077C170.242 72.6389 170.198 72.6614 170.15 72.6752C170.053 72.6891 169.961 72.6718 169.875 72.6233C169.85 72.6129 169.83 72.6008 169.812 72.5869C169.795 72.5696 169.781 72.5523 169.771 72.535C169.746 72.5004 169.734 72.4623 169.734 72.4207C169.734 72.3965 169.734 72.3757 169.734 72.3584C169.738 72.3376 169.741 72.3168 169.745 72.296C169.752 72.2649 169.76 72.2337 169.771 72.2025C169.781 72.1714 169.786 72.1558 169.786 72.1558L170.867 69.4963L170.898 69.4132C170.905 69.3924 170.913 69.3734 170.924 69.3561C170.934 69.3387 170.943 69.318 170.95 69.2937C170.967 69.2487 170.986 69.2089 171.007 69.1743C171.017 69.1535 171.029 69.1344 171.043 69.1171C171.057 69.0998 171.071 69.0825 171.085 69.0652C171.106 69.0375 171.135 69.015 171.173 68.9977C171.222 68.9803 171.277 68.9717 171.339 68.9717C171.405 68.9717 171.462 68.9803 171.511 68.9977C171.549 69.015 171.578 69.0375 171.599 69.0652C171.623 69.0963 171.649 69.1327 171.677 69.1743C171.698 69.2089 171.717 69.2487 171.734 69.2937C171.741 69.318 171.75 69.3387 171.76 69.3561C171.771 69.3734 171.779 69.3924 171.786 69.4132L171.817 69.4963L172.898 72.1558C172.898 72.1558 172.903 72.1714 172.913 72.2025C172.924 72.2337 172.932 72.2649 172.939 72.296ZM171.708 71.0234C171.663 70.923 171.616 70.8191 171.568 70.7118C171.523 70.6044 171.474 70.4953 171.423 70.3845C171.409 70.3534 171.395 70.3222 171.381 70.291C171.367 70.2564 171.353 70.2235 171.339 70.1923C171.329 70.2235 171.317 70.2564 171.303 70.291C171.289 70.3222 171.275 70.3534 171.262 70.3845C171.21 70.4953 171.159 70.6044 171.111 70.7118C171.066 70.8191 171.021 70.923 170.976 71.0234L170.882 71.252H171.802L171.708 71.0234Z" fill="black"/>
<path d="M169.309 72.2545C169.316 72.2718 169.319 72.2978 169.319 72.3324C169.319 72.3636 169.319 72.3896 169.319 72.4104C169.319 72.4381 169.314 72.464 169.304 72.4883C169.293 72.5125 169.28 72.535 169.262 72.5558C169.231 72.5974 169.186 72.6285 169.127 72.6493C169.044 72.677 168.966 72.6909 168.893 72.6909C168.855 72.6943 168.816 72.696 168.774 72.696C168.732 72.696 168.691 72.6995 168.649 72.7064H168.629C168.362 72.7099 168.087 72.7099 167.803 72.7064C167.733 72.703 167.655 72.703 167.569 72.7064C167.482 72.7134 167.398 72.7116 167.314 72.7012C167.231 72.6943 167.155 72.6753 167.086 72.6441C167.02 72.6095 166.973 72.5558 166.946 72.4831C166.939 72.4658 166.933 72.4502 166.93 72.4363C166.927 72.419 166.925 72.4017 166.925 72.3844C166.911 72.2667 166.906 72.1506 166.909 72.0364C166.913 71.9221 166.914 71.8096 166.914 71.6987L166.925 70.9456V70.2495C166.925 70.1249 166.925 70.014 166.925 69.9171C166.928 69.8201 166.932 69.7128 166.935 69.595V69.5691C166.939 69.5344 166.94 69.4998 166.94 69.4652C166.944 69.4306 166.946 69.3959 166.946 69.3613C166.953 69.2816 166.972 69.2141 167.003 69.1587C167.024 69.1068 167.06 69.0652 167.112 69.0341C167.157 69.0029 167.211 68.9873 167.273 68.9873C167.297 68.9873 167.32 68.989 167.34 68.9925C167.365 68.9925 167.387 68.9942 167.408 68.9977C167.429 69.0012 167.448 69.0081 167.465 69.0185C167.486 69.0289 167.507 69.0427 167.527 69.06C167.548 69.0843 167.567 69.1137 167.585 69.1483C167.598 69.1864 167.607 69.2245 167.61 69.2626C167.614 69.2868 167.617 69.3094 167.621 69.3301C167.624 69.3509 167.626 69.3717 167.626 69.3925C167.619 69.4132 167.616 69.434 167.616 69.4548C167.616 69.4756 167.616 69.4946 167.616 69.5119V69.6054L167.595 72.052L168.623 72.0623H168.868C168.888 72.0623 168.911 72.0641 168.935 72.0675C168.959 72.0675 168.984 72.0693 169.008 72.0727C169.035 72.0762 169.06 72.0797 169.08 72.0831C169.101 72.0866 169.122 72.0918 169.143 72.0987C169.181 72.1091 169.212 72.1264 169.236 72.1506C169.274 72.1853 169.299 72.2199 169.309 72.2545Z" fill="black"/>
<path d="M166.12 69.2989C166.252 69.4201 166.349 69.5655 166.411 69.7352C166.473 69.9014 166.498 70.0676 166.484 70.2338C166.47 70.3931 166.42 70.5403 166.333 70.6754C166.247 70.8069 166.115 70.9074 165.938 70.9766C165.8 71.0355 165.663 71.077 165.528 71.1013C165.393 71.1255 165.244 71.1446 165.081 71.1584C165.009 71.1654 164.946 71.1705 164.894 71.174C164.846 71.174 164.789 71.1757 164.723 71.1792C164.709 71.1792 164.685 71.1792 164.65 71.1792C164.619 71.1792 164.597 71.1809 164.583 71.1844V72.2596C164.572 72.3254 164.558 72.3929 164.541 72.4622C164.527 72.5315 164.487 72.5851 164.422 72.6232C164.384 72.644 164.337 72.6561 164.281 72.6596C164.226 72.663 164.176 72.6613 164.131 72.6544C164.082 72.6475 164.041 72.6353 164.006 72.618C163.975 72.5973 163.949 72.5626 163.928 72.5141C163.914 72.483 163.901 72.4483 163.887 72.4103C163.876 72.3687 163.871 72.3185 163.871 72.2596V69.3872C163.871 69.3629 163.873 69.3404 163.876 69.3196C163.88 69.2989 163.883 69.2781 163.887 69.2573C163.894 69.24 163.899 69.2209 163.902 69.2002C163.906 69.1794 163.911 69.1603 163.918 69.143C163.925 69.1257 163.932 69.1101 163.939 69.0963C163.949 69.0824 163.961 69.0703 163.975 69.0599C163.992 69.0426 164.018 69.027 164.053 69.0132C164.091 68.9993 164.146 68.9924 164.219 68.9924H164.23C164.337 68.9855 164.456 68.9803 164.588 68.9768C164.719 68.9699 164.829 68.9716 164.915 68.982C164.964 68.9889 165.009 68.9941 165.05 68.9976C165.092 68.9976 165.132 68.9993 165.17 69.0028C165.211 69.0062 165.253 69.0097 165.294 69.0132C165.336 69.0166 165.377 69.0218 165.419 69.0288C165.454 69.0357 165.485 69.0409 165.512 69.0443C165.544 69.0478 165.575 69.053 165.606 69.0599C165.634 69.0668 165.663 69.0738 165.694 69.0807C165.729 69.0876 165.76 69.0997 165.788 69.1171C165.861 69.1378 165.921 69.1638 165.97 69.195C166.018 69.2261 166.068 69.2608 166.12 69.2989ZM165.809 70.1559C165.812 70.0728 165.795 70.0001 165.757 69.9378C165.722 69.8754 165.672 69.8235 165.606 69.7819C165.54 69.7404 165.466 69.7075 165.383 69.6832C165.3 69.659 165.216 69.6417 165.133 69.6313C165.113 69.6313 165.083 69.6313 165.045 69.6313C165.01 69.6278 164.972 69.6261 164.931 69.6261C164.889 69.6226 164.849 69.6209 164.811 69.6209C164.777 69.6174 164.749 69.6157 164.728 69.6157C164.711 69.6122 164.69 69.6105 164.666 69.6105C164.642 69.6105 164.614 69.6105 164.583 69.6105C164.586 69.7179 164.588 69.8218 164.588 69.9222C164.588 70.0191 164.588 70.1248 164.588 70.239C164.584 70.3014 164.583 70.3637 164.583 70.426C164.583 70.4884 164.583 70.549 164.583 70.6078L164.905 70.6026C164.988 70.6026 165.08 70.5974 165.18 70.5871C165.28 70.5767 165.376 70.5559 165.466 70.5247C165.556 70.4936 165.632 70.4485 165.694 70.3897C165.76 70.3308 165.798 70.2529 165.809 70.1559Z" fill="black"/>
<rect x="160.401" y="17.23" width="40.7861" height="2.5896" rx="1.2948" fill="#F2A632" fill-opacity="0.2" stroke="#FFAB49" stroke-width="0.2158"/>
<rect x="160.293" y="17.1221" width="27.5687" height="2.80539" rx="1.4027" fill="#F2A632" fill-opacity="0.7"/>
<rect x="121.989" y="79.812" width="40.7861" height="2.5896" rx="1.2948" fill="#32F28B" fill-opacity="0.2" stroke="#49FF92" stroke-width="0.2158"/>
<rect x="121.881" y="79.7041" width="15.106" height="2.80539" rx="1.4027" fill="#32F296" fill-opacity="0.7"/>
<line x1="196.224" y1="43.9887" x2="196.224" y2="56.0735" stroke="#E27526" stroke-opacity="0.3" stroke-width="0.647399" stroke-linecap="round"/>
<circle cx="196.224" cy="49.3832" r="1.1869" fill="#F57600"/>
<line x1="199.46" y1="43.9887" x2="199.46" y2="56.0735" stroke="#E27526" stroke-opacity="0.3" stroke-width="0.647399" stroke-linecap="round"/>
<circle cx="199.46" cy="52.4047" r="1.1869" fill="#F57600"/>
<line x1="202.699" y1="43.9887" x2="202.699" y2="56.0735" stroke="#E27526" stroke-opacity="0.3" stroke-width="0.647399" stroke-linecap="round"/>
<circle cx="202.699" cy="46.5775" r="1.1869" fill="#F57600"/>
</g>
<defs>
<filter id="filter0_f_1654_6513" x="102.459" y="-0.573809" width="117.179" height="97.3254" filterUnits="userSpaceOnUse" color-interpolation-filters="sRGB">
<feFlood flood-opacity="0" result="BackgroundImageFix"/>
<feBlend mode="normal" in="SourceGraphic" in2="BackgroundImageFix" result="shape"/>
<feGaussianBlur stdDeviation="12.3006" result="effect1_foregroundBlur_1654_6513"/>
</filter>
<filter id="filter1_f_1654_6513" x="84.9798" y="86.1781" width="59.9915" height="10.1428" filterUnits="userSpaceOnUse" color-interpolation-filters="sRGB">
<feFlood flood-opacity="0" result="BackgroundImageFix"/>
<feBlend mode="normal" in="SourceGraphic" in2="BackgroundImageFix" result="shape"/>
<feGaussianBlur stdDeviation="1.8343" result="effect1_foregroundBlur_1654_6513"/>
</filter>
<linearGradient id="paint0_linear_1654_6513" x1="137.928" y1="53.0961" x2="125.656" y2="61.1054" gradientUnits="userSpaceOnUse">
<stop stop-color="#E04D40"/>
<stop offset="1" stop-color="#F15F56"/>
</linearGradient>
<linearGradient id="paint1_linear_1654_6513" x1="137.31" y1="41.723" x2="105.587" y2="80.1354" gradientUnits="userSpaceOnUse">
<stop stop-color="#FB9782"/>
<stop offset="0.302083" stop-color="#F46639"/>
<stop offset="0.760417" stop-color="#F44C3C"/>
</linearGradient>
<linearGradient id="paint2_linear_1654_6513" x1="126.757" y1="53.2485" x2="114.484" y2="61.2579" gradientUnits="userSpaceOnUse">
<stop stop-color="#FF6F66"/>
<stop offset="1" stop-color="#EF6058"/>
</linearGradient>
<linearGradient id="paint3_linear_1654_6513" x1="112.956" y1="89.7225" x2="112.96" y2="74.8311" gradientUnits="userSpaceOnUse">
<stop stop-color="#DA4639"/>
<stop offset="1" stop-color="#EC5B4F"/>
</linearGradient>
<clipPath id="clip0_1654_6513">
<rect width="292" height="102.768" fill="white"/>
</clipPath>
</defs>
</svg>
