<svg width="292" height="103" viewBox="0 0 292 103" fill="none" xmlns="http://www.w3.org/2000/svg">
<g clip-path="url(#clip0_1668_6934)">
<rect width="292" height="102.768" fill="#1D1D26"/>
<rect x="122.537" y="33.0781" width="42.3709" height="59.253" transform="rotate(-27.8398 122.537 33.0781)" fill="#6B6A79"/>
<rect x="125.737" y="33.8213" width="37.4055" height="54.7842" transform="rotate(-27.8398 125.737 33.8213)" fill="url(#paint0_linear_1668_6934)"/>
<path d="M150.131 85.3257L187.598 65.5385L186.608 74.2969L149.141 94.0841L150.131 85.3257Z" fill="#35353E"/>
<path d="M121.324 41.7669L122.683 33.0002L150.355 85.3951L148.995 94.1617L121.324 41.7669Z" fill="#4F4F58"/>
<path d="M147.896 44.7669L153.615 55.5971L150.469 57.2589L152.362 60.8446L153.972 59.9944L153.238 58.604L154.775 57.7924L158.214 64.3052L160.483 63.1072L158.898 60.1069L163.362 57.7494L164.947 60.7497L166.996 59.6676L163.556 53.1548L167.654 50.9906L165.606 47.1122L163.703 48.117L164.592 49.8001L162.397 50.9595L156.677 40.1293L147.896 44.7669Z" fill="#F55C3B" stroke="#BB3D22" stroke-width="0.165511"/>
<rect x="151.263" y="46.3574" width="6.12391" height="5.29636" transform="rotate(-27.8398 151.263 46.3574)" fill="white"/>
<rect x="153.422" y="46.9014" width="2.81369" height="2.31716" transform="rotate(-27.8398 153.422 46.9014)" fill="#1A1A1A"/>
<path d="M159.746 13.3331L122.938 32.7725L137.856 42.7687L177.226 21.9766L159.746 13.3331Z" fill="url(#paint1_linear_1668_6934)"/>
<path d="M143.638 39.715L137.93 42.7295L139.54 45.7789C140.051 46.7458 141.586 46.6009 143.439 45.6222C145.292 44.6435 145.602 43.4339 145.248 42.7645L143.638 39.715Z" fill="url(#paint2_linear_1668_6934)"/>
<path d="M154.761 33.841L149.053 36.8555L150.663 39.9049C151.174 40.8718 152.709 40.7269 154.562 39.7482C156.415 38.7695 156.725 37.5598 156.371 36.8905L154.761 33.841Z" fill="url(#paint3_linear_1668_6934)"/>
<path d="M166.029 27.8898L160.321 30.9043L161.932 33.9537C162.442 34.9206 163.978 34.7758 165.831 33.797C167.684 32.8183 167.993 31.6087 167.64 30.9393L166.029 27.8898Z" fill="url(#paint4_linear_1668_6934)"/>
<path d="M177.152 22.0158L171.444 25.0303L173.055 28.0797C173.565 29.0466 175.101 28.9017 176.954 27.923C178.807 26.9443 179.116 25.7347 178.763 25.0653L177.152 22.0158Z" fill="url(#paint5_linear_1668_6934)"/>
<path d="M149.198 36.7785L143.49 39.793L145.101 42.8424C145.611 43.8093 147.147 43.6644 149 42.6857C150.853 41.707 151.162 40.4973 150.809 39.828L149.198 36.7785Z" fill="url(#paint6_linear_1668_6934)"/>
<path d="M149.052 36.8562L143.49 39.7933L127.84 30.1836L133.109 27.401L149.052 36.8562Z" fill="url(#paint7_linear_1668_6934)"/>
<path d="M160.321 30.9056L154.76 33.8428L156.37 36.8922C156.881 37.8591 158.384 37.7313 160.189 36.7777C161.995 35.824 162.285 34.6244 161.932 33.9551L160.321 30.9056Z" fill="url(#paint8_linear_1668_6934)"/>
<path d="M160.248 30.9441L154.687 33.8812L139.036 24.2715L144.305 21.4889L160.248 30.9441Z" fill="url(#paint9_linear_1668_6934)"/>
<path d="M171.591 24.9533L165.883 27.9678L167.493 31.0172C168.004 31.9841 169.539 31.8392 171.392 30.8605C173.245 29.8818 173.555 28.6722 173.201 28.0028L171.591 24.9533Z" fill="url(#paint10_linear_1668_6934)"/>
<path d="M171.518 24.9919L165.956 27.9291L150.306 18.3193L155.574 15.5368L171.518 24.9919Z" fill="url(#paint11_linear_1668_6934)"/>
<path d="M175.242 65.0115L174.628 63.8501L174.982 63.6631L173.299 60.4763L172.945 60.6633L172.332 59.502L177.112 56.9774L178.242 59.1161L176.655 59.9539L176.139 58.9766L175.282 59.4291L175.873 60.548L176.496 60.2189L176.923 61.0262L176.3 61.3554L176.965 62.6159L177.822 62.1633L177.231 61.0444L178.818 60.2067L180.022 62.487L175.242 65.0115Z" fill="#861AAC"/>
<path d="M172.028 61.1485L171.674 61.3355L173.357 64.5222L173.711 64.3352L174.324 65.4966L171.647 66.9103L171.034 65.7489L171.374 65.5694L170.065 63.0908L170.783 67.3666L169.735 67.9201L166.592 64.9701L167.883 67.4132L168.223 67.2337L168.836 68.3951L166.513 69.6218L165.9 68.4604L166.254 68.2734L164.571 65.0867L164.217 65.2737L163.604 64.1123L166.847 62.3994L168.75 64.2199L168.292 61.6364L171.415 59.9871L172.028 61.1485Z" fill="#861AAC"/>
<path d="M164.755 69.0652L165.038 68.9156L165.652 70.077L162.876 71.5431L162.262 70.3817L162.687 70.1573L162.275 69.6506L161.312 70.1593L161.498 70.7856L161.922 70.5612L162.536 71.7226L160.114 73.0017L159.5 71.8403L159.784 71.6907L158.684 66.7105L161.262 65.3492L164.755 69.0652ZM161.071 69.3263L161.722 68.9822L160.688 67.7263L160.617 67.7637L161.071 69.3263Z" fill="#861AAC"/>
<path d="M158.398 71.6433L158.044 71.8303L158.792 73.2466C158.647 73.4744 158.399 73.7414 158.047 74.0478C157.698 74.3469 157.292 74.6187 156.829 74.863C155.946 75.3293 155.133 75.4632 154.388 75.2648C153.641 75.0617 153.01 74.4739 152.496 73.5014C151.97 72.5052 151.836 71.6496 152.092 70.9346C152.353 70.2171 152.946 69.614 153.871 69.1253C154.32 68.8884 154.765 68.7137 155.207 68.6012C155.649 68.4887 156 68.439 156.26 68.4524L157.154 70.1449L155.384 71.0799L155.208 70.747C155.103 70.5488 154.986 70.4296 154.856 70.3895C154.729 70.3421 154.575 70.3659 154.396 70.4606C154.216 70.5554 154.108 70.67 154.07 70.8046C154.035 70.932 154.069 71.0948 154.174 71.2931L155.266 73.3609C155.371 73.5592 155.487 73.682 155.615 73.7293C155.745 73.7694 155.899 73.7421 156.079 73.6474C156.258 73.5526 156.365 73.4416 156.401 73.3142C156.438 73.1796 156.405 73.0132 156.3 72.8149L156.274 72.7653L155.892 72.9673L155.334 71.9121L157.841 70.5881L158.398 71.6433Z" fill="#861AAC"/>
<g opacity="0.2" filter="url(#filter0_f_1668_6934)">
<path d="M165.55 87.7098L141.039 81.6848C139.267 81.2491 137.804 80.0015 137.095 78.3198L123.274 45.5559C122.579 43.9101 122.686 42.0358 123.561 40.4788L136.22 17.9628C137.492 15.701 140.116 14.5645 142.635 15.1837L166.888 21.1441C168.661 21.5797 170.123 22.8274 170.833 24.5092L184.666 57.3027C185.353 58.9316 185.257 60.7855 184.404 62.3342L171.991 84.8854C170.73 87.1755 168.089 88.3338 165.55 87.7098Z" fill="#F9E05C"/>
</g>
<rect x="30" y="22" width="67" height="48" rx="2" fill="#5B47D3"/>
<path d="M76.6406 59.5701C76.6406 55.7889 75.0336 55.4537 74.8617 54.2764C74.6898 53.099 75.7469 52.5061 75.2656 51.217C74.7758 49.9279 73.0312 49.2748 73.0312 47.4443V43.5771H54.9844V47.4443C54.9844 49.2748 53.2398 49.9365 52.75 51.2256C52.2602 52.5146 53.3258 53.099 53.1539 54.2678C52.982 55.4451 51.375 55.7803 51.375 59.5615H76.6406V59.5701Z" fill="#B24E10"/>
<path d="M73.0313 39.8047C73.4867 36.9688 73.7789 32.543 69.6797 30.2312C69.6797 30.2312 67.1875 27.9023 64.0078 27.9023C60.8281 27.9023 58.3359 30.2312 58.3359 30.2312C54.2367 32.543 54.5289 36.9688 54.9844 39.8047L55.8438 41.1797H72.1719L73.0313 39.8047Z" fill="#E36415"/>
<path d="M66.5859 51.2344H61.4297V54.5L52.9734 58.4359C51.1602 59.2867 50 61.1086 50 63.1109V70.1406H78.0156V63.1109C78.0156 61.1086 76.8555 59.2867 75.0422 58.4359L66.5859 54.5V51.2344Z" fill="#D84861"/>
<path d="M72.1719 57.1039C72.1719 57.1039 70.1953 63.0078 64.0078 63.0078C57.8203 63.0078 55.8438 57.1039 55.8438 57.1039L61.4297 54.5V51.2344H66.5859V54.5L72.1719 57.1039Z" fill="#F6C9AA"/>
<path d="M61.4297 51.2344V53.7523C62.8219 54.4227 64.0078 54.7578 64.0078 54.7578C64.0078 54.7578 65.1937 54.4227 66.5859 53.7523V51.2344H61.4297Z" fill="#F3AB7D"/>
<path d="M72.1719 41.1797C72.1719 41.1797 71.8797 47.0063 70.1094 49.4039C68.3047 51.8359 64.0078 53.0391 64.0078 53.0391C64.0078 53.0391 59.7109 51.8359 57.9062 49.4039C56.1359 47.0148 55.8438 41.1797 55.8438 41.1797C55.8438 37.3727 64.0078 33.2734 64.0078 33.2734C64.0078 33.2734 72.1719 37.4242 72.1719 41.1797Z" fill="#F6C9AA"/>
<path d="M65.3828 63.6094H66.2422V70.1406H65.3828V63.6094Z" fill="#35322B"/>
<path d="M61.2578 66.3594H65.8125V67.2188H61.2578V66.3594Z" fill="#35322B"/>
<path d="M60.8281 62.8359H61.6875V66.875H60.8281V62.8359Z" fill="#35322B"/>
<path d="M65.8125 65.0703C67.3313 65.0703 68.5625 63.1465 68.5625 60.7734C68.5625 58.4003 67.3313 56.4766 65.8125 56.4766C64.2937 56.4766 63.0625 58.4003 63.0625 60.7734C63.0625 63.1465 64.2937 65.0703 65.8125 65.0703Z" fill="#504C43"/>
<path d="M61.2578 63.6094C62.2547 63.6094 63.0625 62.8016 63.0625 61.8047V59.7422C63.0625 58.7453 62.2547 57.9375 61.2578 57.9375C60.2609 57.9375 59.4531 58.7453 59.4531 59.7422V61.8047C59.4531 62.8016 60.2609 63.6094 61.2578 63.6094Z" fill="#D8D6C1"/>
<path d="M59.4531 59.3125H60.7422V60.1719H59.4531V59.3125Z" fill="#C5C2A1"/>
<path d="M59.4531 61.4609H60.7422V62.3203H59.4531V61.4609Z" fill="#C5C2A1"/>
<path d="M61.7734 59.3125H63.0625V60.1719H61.7734V59.3125Z" fill="#C5C2A1"/>
<path d="M61.7734 61.4609H63.0625V62.3203H61.7734V61.4609Z" fill="#C5C2A1"/>
<path d="M61.2578 67.6484C61.7324 67.6484 62.1172 67.2637 62.1172 66.7891C62.1172 66.3144 61.7324 65.9297 61.2578 65.9297C60.7832 65.9297 60.3984 66.3144 60.3984 66.7891C60.3984 67.2637 60.7832 67.6484 61.2578 67.6484Z" fill="#D8D6C1"/>
<path d="M56.6172 45.9922C54.4258 45.9922 53.2656 44.5484 53.2656 42.993C53.2656 41.4375 55.5086 41.1797 55.8438 41.1797L56.6172 45.9922Z" fill="#F3AB7D"/>
<path d="M71.3984 45.9922C73.5898 45.9922 74.75 44.5484 74.75 42.993C74.75 41.4375 72.507 41.1797 72.1719 41.1797L71.3984 45.9922Z" fill="#F3AB7D"/>
<path d="M73.4528 39.8732L72.602 39.7357C73.0661 36.8396 73.2551 32.749 69.4653 30.6092C69.4223 30.5834 69.3793 30.549 69.345 30.5146C69.3364 30.4889 67.4457 28.3318 64.0082 28.3318C60.5536 28.3318 58.6801 30.4889 58.6629 30.5061C58.6286 30.5404 58.5942 30.5748 58.5426 30.6006C54.7528 32.7404 54.9332 36.8396 55.4059 39.7271L54.5551 39.8646C54.3489 38.567 54.1168 36.6162 54.5293 34.7256C54.9934 32.5943 56.1793 30.9701 58.0614 29.8873C58.4137 29.5006 60.4504 27.4639 64.0082 27.4639C67.5661 27.4639 69.5942 29.492 69.9551 29.8873C71.8286 30.9701 73.0145 32.6029 73.4872 34.7342C73.8997 36.6248 73.6676 38.5756 73.4528 39.8732Z" fill="#C22945"/>
<path d="M54.125 39.5469H55.8438V47.4531H54.125V39.5469Z" fill="#D84861"/>
<path d="M52.6297 46.1727L54.125 46.5938V40.4062L52.6297 40.8273C51.8906 41.0336 51.375 41.7125 51.375 42.4859V44.5227C51.375 45.2875 51.8906 45.9664 52.6297 46.1727Z" fill="#C22945"/>
<path d="M72.1719 39.5469H73.8906V47.4531H72.1719V39.5469Z" fill="#D84861"/>
<path d="M75.3859 46.1727L73.8906 46.5938V40.4062L75.3859 40.8273C76.125 41.0336 76.6406 41.7125 76.6406 42.4859V44.5227C76.6406 45.2875 76.125 45.9664 75.3859 46.1727Z" fill="#C22945"/>
<path d="M70.2385 29.707L68.9924 30.9016C67.7979 29.432 66.1564 28.7188 64.008 28.7188C61.8596 28.7188 60.2182 29.432 59.0236 30.9016L57.7861 29.6984C59.1697 28.0656 61.1721 27 64.008 27C66.8525 27 68.8549 28.0656 70.2385 29.707Z" fill="#D84861"/>
<path d="M64.0074 49.0939C62.409 49.0939 61.4551 48.1143 61.2832 47.9166L61.9277 47.3408C62.0137 47.4354 62.7613 48.226 64.016 48.226H64.0418C65.2535 48.2174 65.9668 47.4869 66.0957 47.3408L66.7402 47.9166C66.5684 48.1143 65.623 49.0768 64.0504 49.0939C64.0332 49.0939 64.016 49.0939 64.0074 49.0939Z" fill="#D84861"/>
<path d="M69.3359 42.6408C69.1039 42.4775 68.5453 42.1337 67.7891 42.1251C67.0156 42.1165 66.4742 42.5376 66.2422 42.6236L65.8984 43.672H68.3047C68.8719 43.672 69.3359 43.2079 69.3359 42.6408Z" fill="#EBEBDF"/>
<path d="M58.6797 42.6408C58.9117 42.4775 59.4703 42.1337 60.2266 42.1251C61 42.1165 61.5414 42.5376 61.7734 42.6236L62.1172 43.672H59.7109C59.1438 43.672 58.6797 43.2079 58.6797 42.6408Z" fill="#EBEBDF"/>
<path d="M59.5391 42.125H60.3984V43.6719H59.5391V42.125Z" fill="#B24E10"/>
<path d="M60.0547 42.125H60.9141V43.6719H60.0547V42.125Z" fill="#B24E10"/>
<path d="M67.6172 42.125H68.4766V43.6719H67.6172V42.125Z" fill="#B24E10"/>
<path d="M67.1016 42.125H67.9609V43.6719H67.1016V42.125Z" fill="#B24E10"/>
<path d="M58.6797 43.0703H58.3359V42.2109H58.5508C59.0664 41.8758 59.6422 41.6953 60.2266 41.6953H60.2437C60.9398 41.6953 61.4555 41.9703 61.7648 42.1336C61.825 42.168 61.9023 42.2023 61.9281 42.2109L61.6359 43.0187C61.55 42.9844 61.4641 42.9414 61.3609 42.8898C61.0945 42.7437 60.725 42.5461 60.2523 42.5461H60.2437C59.7969 42.5461 59.3414 42.7008 58.9375 42.9844C58.8516 43.0445 58.7656 43.0703 58.6797 43.0703Z" fill="#B24E10"/>
<path d="M69.6793 43.0697H69.3355C69.2496 43.0697 69.1637 43.0439 69.0863 42.9924C68.6824 42.7088 68.2355 42.5541 67.7801 42.5541H67.7715C67.2902 42.5541 66.9293 42.7518 66.6629 42.8978C66.5598 42.9494 66.4738 43.001 66.3879 43.0268L66.0957 42.2189C66.1215 42.2103 66.1988 42.1674 66.259 42.1416C66.5684 41.9783 67.0926 41.6947 67.7973 41.7033C68.3816 41.7033 68.9574 41.8838 69.473 42.2189H69.6879V43.0697H69.6793Z" fill="#B24E10"/>
<path d="M58.5506 40.432L58.1123 39.693C58.5592 39.4266 59.2811 39.1172 60.2178 39.1172H60.2436C61.1717 39.1258 61.885 39.4352 62.3318 39.693L61.8936 40.432C61.5412 40.2258 60.974 39.9766 60.2436 39.9766C59.4873 39.968 58.9115 40.2258 58.5506 40.432Z" fill="#B24E10"/>
<path d="M69.4648 40.4322C69.1039 40.226 68.5195 39.9681 67.7719 39.9767C67.0414 39.9767 66.4656 40.226 66.1219 40.4322L65.6836 39.6931C66.1219 39.4353 66.8437 39.126 67.7719 39.1174C68.7172 39.1088 69.4563 39.4267 69.9031 39.6931L69.4648 40.4322Z" fill="#B24E10"/>
<path d="M37.6306 75.2512C37.8071 75.3701 37.8071 75.6299 37.6306 75.7488L33.9676 78.2161C33.7683 78.3503 33.5 78.2076 33.5 77.9673L33.5 73.0327C33.5 72.7924 33.7683 72.6497 33.9676 72.7839L37.6306 75.2512Z" fill="#D9D9D9"/>
<line opacity="0.3" x1="41.35" y1="75.65" x2="95.65" y2="75.65" stroke="#D9D9D9" stroke-width="0.7" stroke-linecap="round"/>
<circle cx="73.5" cy="75.5" r="1.5" fill="#D9D9D9"/>
<path d="M196.687 18.4255C199.566 18.4255 201.9 16.0917 201.9 13.2128C201.9 10.3338 199.566 8 196.687 8C193.808 8 191.475 10.3338 191.475 13.2128C191.475 16.0917 193.808 18.4255 196.687 18.4255Z" fill="#EEEEFF"/>
<path d="M196.688 14.5155C196.465 14.5155 196.243 14.4307 196.073 14.2609L195.205 13.3921C194.865 13.0528 194.865 12.5029 195.205 12.1636C195.543 11.8244 196.094 11.8244 196.433 12.1636L196.688 12.4182L196.942 12.1641C197.281 11.8248 197.832 11.8248 198.171 12.1641C198.51 12.5033 198.51 13.0533 198.171 13.3925L197.302 14.2613C197.132 14.4307 196.91 14.5155 196.688 14.5155Z" fill="#F24327"/>
<path d="M197.991 21.4661H188.869C188.389 21.4661 188 21.0769 188 20.5973C188 20.1177 188.389 19.7285 188.869 19.7285H197.991C198.471 19.7285 198.86 20.1177 198.86 20.5973C198.86 21.0769 198.471 21.4661 197.991 21.4661Z" fill="#6D6DFC"/>
<path d="M195.385 24.5071H188.869C188.389 24.5071 188 24.1179 188 23.6383C188 23.1588 188.389 22.7695 188.869 22.7695H195.385C195.864 22.7695 196.254 23.1588 196.254 23.6383C196.254 24.1179 195.864 24.5071 195.385 24.5071Z" fill="#6D6DFC"/>
<path d="M192.778 27.5481H188.869C188.389 27.5481 188 27.1589 188 26.6793C188 26.1998 188.389 25.8105 188.869 25.8105H192.778C193.258 25.8105 193.647 26.1998 193.647 26.6793C193.647 27.1589 193.258 27.5481 192.778 27.5481Z" fill="#6D6DFC"/>
<path d="M191.475 30.5882H188.869C188.389 30.5882 188 30.199 188 29.7194C188 29.2398 188.389 28.8506 188.869 28.8506H191.475C191.955 28.8506 192.344 29.2398 192.344 29.7194C192.344 30.199 191.955 30.5882 191.475 30.5882Z" fill="#6D6DFC"/>
<path d="M215.801 15.2367C215.801 16.1098 215.445 16.9699 214.824 17.5868L214.203 18.2079C210.654 17.8995 210.806 21.6049 210.806 21.6049L198.169 34.2415L193.647 33.6117L193.469 29.5414L206.105 16.9047C206.105 16.9047 206.11 16.9047 206.11 16.9004C206.244 16.8483 208.386 15.9882 209.072 15.3018C209.78 14.5938 209.502 13.5078 209.502 13.5078L210.124 12.8866C210.74 12.2654 211.6 11.9092 212.474 11.9092C213.368 11.9092 214.203 12.2567 214.828 12.8866C215.454 13.5078 215.801 14.3418 215.801 15.2367Z" fill="#0F0FED"/>
<path d="M198.17 34.2422C198.065 34.3508 197.931 34.429 197.787 34.4681L194.512 35.3629C194.512 35.3629 194.503 35.3629 194.49 35.3673C194.356 35.3846 193.582 35.4672 192.992 34.8764C192.37 34.2552 192.349 33.2952 192.349 33.204V33.1996L193.243 29.9243C193.283 29.7809 193.361 29.6462 193.469 29.542L198.17 34.2422Z" fill="#F49625"/>
<path d="M194.511 35.3625L193.008 35.7709C192.93 35.7926 192.856 35.8013 192.778 35.8013C192.552 35.8013 192.331 35.71 192.166 35.545C191.944 35.3278 191.857 35.0063 191.94 34.7022L192.348 33.1992L194.511 35.3625Z" fill="#0F0FED"/>
<path d="M206.103 16.9062L209.499 13.5098L214.198 18.2094L210.802 21.6058L206.103 16.9062Z" fill="#02CFC4"/>
<path d="M248.179 51.5859L245.71 53.8889L219.41 47.2643L217.321 43.8131L218.62 38.655C218.711 38.2932 219.078 38.0739 219.44 38.165L248.212 45.4122C248.574 45.5033 248.793 45.8704 248.702 46.2321L248.179 51.5859Z" fill="#FD8087"/>
<path d="M250.103 45.8882L247.295 45.1811C247.657 45.2722 247.876 45.6393 247.785 46.001L246.486 51.1591L242.904 53.1816L245.711 53.8887L249.293 51.8662L250.593 46.7081C250.684 46.3464 250.464 45.9793 250.103 45.8882Z" fill="#FE646F"/>
<path d="M239.09 80.2063L210 72.879L217.321 43.8135L246.411 51.1408L247.461 54.3301L241.434 78.2583L239.09 80.2063Z" fill="#F0FCFF"/>
<path d="M246.411 51.1406L249.293 51.8666L241.972 80.9321L239.09 80.2061L246.411 51.1406Z" fill="#D7ECFE"/>
<path d="M230.925 57.2952L223.547 59.725L217.635 57.2058L219.711 48.9652C219.799 48.6139 220.156 48.4008 220.507 48.4893L231.753 51.322C232.104 51.4105 232.317 51.767 232.229 52.1183L230.925 57.2952Z" fill="#C6E5FD"/>
<path d="M217.635 57.2061L220.185 55.3251L224.306 57.1476L226.761 55.2999L229.335 57.1922L230.328 59.665L229.621 62.4725C229.532 62.8238 229.176 63.0369 228.824 62.9484L227.942 62.726L226.203 61.6706L225.277 62.0548L217.578 60.1157C217.227 60.0272 217.014 59.6707 217.103 59.3194L217.635 57.2061Z" fill="#ABDC94"/>
<path d="M225.278 62.0556L228.403 62.8429L222.405 54.5085C222.191 54.2116 221.776 54.1469 221.482 54.3647L220.185 55.3257L225.278 62.0556Z" fill="#8CCF75"/>
<path d="M227.962 54.3968L226.761 55.2999L230.328 59.665L230.931 57.2721L228.882 54.5285C228.665 54.2375 228.252 54.1784 227.962 54.3968Z" fill="#8CCF75"/>
<path d="M237.396 70.8269C236.389 70.5733 235.586 71.6643 236.105 72.5486L236.732 73.5955L236.779 73.5922C237.696 73.5281 238.373 72.7113 238.266 71.7986C238.203 71.3416 237.871 70.9465 237.396 70.8269Z" fill="#FD8087"/>
<path d="M239.493 71.3555C239.018 71.2358 238.538 71.4263 238.266 71.799C238.266 71.7984 238.266 71.7978 238.266 71.7972C238.255 71.8663 238.241 71.9354 238.224 72.0046C238.027 72.785 237.445 73.3664 236.731 73.5965L237.156 74.3066C237.342 74.6171 237.744 74.7183 238.055 74.533L239.814 73.4838C240.691 72.951 240.501 71.6092 239.493 71.3555Z" fill="#FE646F"/>
<path d="M221.342 42.4907C221.725 42.5874 222.122 42.3566 222.22 41.9657C222.319 41.5742 222.078 41.1843 221.692 41.0872C221.317 40.9926 220.916 41.2179 220.817 41.6122C220.718 42.0033 220.957 42.3938 221.342 42.4907Z" fill="#F0FCFF"/>
<path d="M224.249 43.2222C224.644 43.3218 225.031 43.0787 225.127 42.6972C225.225 42.3112 224.991 41.9174 224.602 41.8194C224.214 41.7215 223.821 41.9597 223.724 42.3437C223.628 42.7238 223.855 43.1231 224.249 43.2222Z" fill="#F0FCFF"/>
<path d="M227.154 43.9553C227.548 44.0546 227.936 43.8131 228.033 43.4303C228.129 43.0475 227.901 42.6516 227.505 42.552C227.124 42.4559 226.728 42.6877 226.63 43.077C226.532 43.4678 226.769 43.8584 227.154 43.9553Z" fill="#F0FCFF"/>
<path d="M230.954 44.9123L246.362 48.7934C246.75 48.8911 247.143 48.6561 247.241 48.2685C247.338 47.8808 247.103 47.4876 246.716 47.3899L231.307 43.5088C230.92 43.4112 230.526 43.6462 230.429 44.0338C230.331 44.4214 230.566 44.8147 230.954 44.9123Z" fill="#F0FCFF"/>
<path d="M243.626 59.7242L240.433 58.9199C240.046 58.8223 239.652 59.0573 239.555 59.4449C239.457 59.8325 239.692 60.2258 240.08 60.3234L243.273 61.1277C243.66 61.2253 244.053 60.9903 244.151 60.6027C244.249 60.2151 244.014 59.8218 243.626 59.7242Z" fill="#B9DEF9"/>
<path d="M244.34 56.8892L241.147 56.085C240.76 55.9873 240.366 56.2223 240.269 56.61C240.171 56.9976 240.406 57.3909 240.794 57.4885L243.986 58.2927C244.374 58.3903 244.767 58.1553 244.865 57.7677C244.963 57.3801 244.728 56.9868 244.34 56.8892Z" fill="#B9DEF9"/>
<path d="M242.89 62.643L233.46 60.2676C233.072 60.17 232.679 60.4049 232.581 60.7926C232.483 61.1802 232.719 61.5735 233.106 61.6711L242.537 64.0465C242.924 64.1441 243.317 63.9091 243.415 63.5215C243.513 63.134 243.278 62.7406 242.89 62.643Z" fill="#B9DEF9"/>
<path d="M242.156 65.5606L232.545 63.1397C232.157 63.042 231.764 63.277 231.666 63.6646C231.568 64.0523 231.803 64.4455 232.191 64.5432L241.803 66.9642C242.19 67.0618 242.583 66.8268 242.681 66.4392C242.779 66.0515 242.544 65.6583 242.156 65.5606Z" fill="#B9DEF9"/>
<path d="M232.9 67.8655L216.022 63.6143C215.635 63.5166 215.241 63.7516 215.144 64.1393C215.046 64.5269 215.281 64.9202 215.669 65.0178L232.546 69.2691C232.934 69.3667 233.327 69.1317 233.425 68.7441C233.523 68.3564 233.288 67.9632 232.9 67.8655Z" fill="#B9DEF9"/>
<path d="M232.168 70.7718L215.29 66.5205C214.902 66.4229 214.509 66.6579 214.411 67.0455C214.313 67.4331 214.549 67.8264 214.936 67.924L231.814 72.1753C232.202 72.2729 232.595 72.0379 232.693 71.6503C232.79 71.2627 232.555 70.8694 232.168 70.7718Z" fill="#B9DEF9"/>
<path d="M231.435 73.678L214.557 69.4268C214.17 69.3291 213.776 69.5641 213.679 69.9518C213.581 70.3394 213.816 70.7327 214.204 70.8303L231.082 75.0816C231.469 75.1792 231.862 74.9442 231.96 74.5566C232.058 74.1689 231.823 73.7757 231.435 73.678Z" fill="#B9DEF9"/>
<path d="M235.821 59.268C237.071 59.5828 238.344 58.8221 238.659 57.5725C238.84 56.8527 238.665 56.1254 238.245 55.5776C238.541 55.3088 238.763 54.9531 238.868 54.537C239.151 53.4124 238.467 52.2672 237.342 51.9839L235.654 51.5586C235.266 51.461 234.873 51.696 234.775 52.0836L233.311 57.8967C233.264 58.0834 233.293 58.2811 233.392 58.4462C233.604 58.7984 233.71 58.7361 235.821 59.268ZM236.175 57.8644C235.939 57.8051 235.364 57.6624 234.892 57.5456L235.328 55.8171C236.01 55.9861 235.728 55.9172 236.61 56.1385C237.085 56.2584 237.375 56.743 237.255 57.2188C237.135 57.6946 236.651 57.9843 236.175 57.8644ZM236.989 53.3875C237.339 53.4758 237.553 53.8329 237.465 54.1834C237.376 54.5341 237.019 54.7474 236.669 54.6591C236.654 54.6554 236.616 54.6458 235.682 54.4121L236.002 53.1389L236.989 53.3875Z" fill="#B9DEF9"/>
</g>
<defs>
<filter id="filter0_f_1668_6934" x="74.5993" y="-33.2034" width="158.741" height="169.3" filterUnits="userSpaceOnUse" color-interpolation-filters="sRGB">
<feFlood flood-opacity="0" result="BackgroundImageFix"/>
<feBlend mode="normal" in="SourceGraphic" in2="BackgroundImageFix" result="shape"/>
<feGaussianBlur stdDeviation="24.11" result="effect1_foregroundBlur_1668_6934"/>
</filter>
<linearGradient id="paint0_linear_1668_6934" x1="144.44" y1="33.8213" x2="144.44" y2="88.6055" gradientUnits="userSpaceOnUse">
<stop stop-color="#BABABA"/>
<stop offset="1" stop-color="#DFE1E3"/>
</linearGradient>
<linearGradient id="paint1_linear_1668_6934" x1="155.01" y1="11.8096" x2="158.906" y2="32.466" gradientUnits="userSpaceOnUse">
<stop stop-color="#35A5C9"/>
<stop offset="1" stop-color="#68A1D6"/>
</linearGradient>
<linearGradient id="paint2_linear_1668_6934" x1="140.816" y1="40.1731" x2="144.619" y2="45.2298" gradientUnits="userSpaceOnUse">
<stop stop-color="#3582C9"/>
<stop offset="1" stop-color="#68A1D6"/>
</linearGradient>
<linearGradient id="paint3_linear_1668_6934" x1="151.939" y1="34.2991" x2="155.743" y2="39.3558" gradientUnits="userSpaceOnUse">
<stop stop-color="#3582C9"/>
<stop offset="1" stop-color="#68A1D6"/>
</linearGradient>
<linearGradient id="paint4_linear_1668_6934" x1="163.208" y1="28.3479" x2="167.011" y2="33.4046" gradientUnits="userSpaceOnUse">
<stop stop-color="#3582C9"/>
<stop offset="1" stop-color="#68A1D6"/>
</linearGradient>
<linearGradient id="paint5_linear_1668_6934" x1="174.331" y1="22.4739" x2="178.134" y2="27.5306" gradientUnits="userSpaceOnUse">
<stop stop-color="#3582C9"/>
<stop offset="1" stop-color="#68A1D6"/>
</linearGradient>
<linearGradient id="paint6_linear_1668_6934" x1="145.582" y1="38.4132" x2="150.784" y2="40.552" gradientUnits="userSpaceOnUse">
<stop stop-color="#CBCD54"/>
<stop offset="1" stop-color="#E09C4D"/>
</linearGradient>
<linearGradient id="paint7_linear_1668_6934" x1="132.833" y1="26.6989" x2="147.752" y2="30.8361" gradientUnits="userSpaceOnUse">
<stop stop-color="#CBCD54"/>
<stop offset="1" stop-color="#E09C4D"/>
</linearGradient>
<linearGradient id="paint8_linear_1668_6934" x1="156.795" y1="32.4929" x2="161.968" y2="34.5426" gradientUnits="userSpaceOnUse">
<stop stop-color="#CBCD54"/>
<stop offset="1" stop-color="#E09C4D"/>
</linearGradient>
<linearGradient id="paint9_linear_1668_6934" x1="144.029" y1="20.7868" x2="158.948" y2="24.924" gradientUnits="userSpaceOnUse">
<stop stop-color="#CBCD54"/>
<stop offset="1" stop-color="#E09C4D"/>
</linearGradient>
<linearGradient id="paint10_linear_1668_6934" x1="167.974" y1="26.588" x2="173.177" y2="28.7268" gradientUnits="userSpaceOnUse">
<stop stop-color="#CBCD54"/>
<stop offset="1" stop-color="#E09C4D"/>
</linearGradient>
<linearGradient id="paint11_linear_1668_6934" x1="155.299" y1="14.8346" x2="170.217" y2="18.9718" gradientUnits="userSpaceOnUse">
<stop stop-color="#CBCD54"/>
<stop offset="1" stop-color="#E09C4D"/>
</linearGradient>
<clipPath id="clip0_1668_6934">
<rect width="292" height="102.768" fill="white"/>
</clipPath>
</defs>
</svg>
