<svg width="285" height="102" viewBox="0 0 285 102" fill="none" xmlns="http://www.w3.org/2000/svg">
<g clip-path="url(#clip0_1642_5441)">
<rect width="285" height="102" fill="#1D1D26"/>
<path d="M59.1108 27.0403C58.3739 26.6154 57.1804 26.615 56.4427 27.0394L46.0694 33.0057C45.329 33.4315 45.3283 34.1235 46.0678 34.5499L73.1591 50.1686C73.896 50.5934 75.0894 50.5938 75.8272 50.1695L86.8712 43.8173C87.2414 43.6044 87.2418 43.2584 86.872 43.0452L59.1108 27.0403Z" fill="#16CF89"/>
<path d="M75.1016 50.6397L46.2409 33.9811C45.7268 33.6844 45.0843 34.0554 45.0843 34.649V41.7387L73.9477 58.2386C74.4618 58.5325 75.1016 58.1613 75.1016 57.5691V50.6397Z" fill="#009E62"/>
<path d="M87.459 44.3292C87.459 43.7362 86.8175 43.3651 86.3033 43.6608L74.8263 50.2617C74.587 50.3993 74.4396 50.6543 74.4396 50.9302V57.5227C74.4396 58.1249 75.0989 58.4948 75.6128 58.1808L87.0899 51.1687C87.3191 51.0286 87.459 50.7793 87.459 50.5106V44.3292Z" fill="#009E62"/>
<path d="M71.0483 11.5901C70.3114 11.1652 69.1179 11.1648 68.3802 11.5892L58.0069 17.5555C57.2665 17.9813 57.2658 18.6733 58.0053 19.0997L85.0966 34.7184C85.8335 35.1432 87.0269 35.1436 87.7647 34.7193L98.8087 28.3671C99.1789 28.1542 99.1793 27.8082 98.8095 27.595L71.0483 11.5901Z" fill="#16CF89"/>
<path d="M87.0391 35.1895L58.1784 18.5309C57.6643 18.2342 57.0218 18.6052 57.0218 19.1988V26.2885L85.8852 42.7884C86.3993 43.0823 87.0391 42.7111 87.0391 42.1189V35.1895Z" fill="#009E62"/>
<path d="M99.3965 28.88C99.3965 28.2869 98.755 27.9159 98.2408 28.2115L86.7638 34.8125C86.5245 34.9501 86.3771 35.205 86.3771 35.481V42.0735C86.3771 42.6757 87.0364 43.0455 87.5503 42.7316L99.0274 35.7195C99.2566 35.5794 99.3965 35.3301 99.3965 35.0614V28.88Z" fill="#009E62"/>
<rect x="120.301" y="60" width="132.692" height="23.6206" rx="2.7789" fill="#4C97FF"/>
<path d="M158.624 73.6271C158.819 73.6271 158.981 73.6919 159.111 73.8216C159.24 73.9513 159.305 74.1101 159.305 74.2982C159.305 74.4862 159.24 74.6483 159.111 74.7845C158.981 74.9142 158.819 74.979 158.624 74.979C158.436 74.979 158.277 74.9142 158.148 74.7845C158.018 74.6483 157.953 74.4862 157.953 74.2982C157.953 74.1101 158.018 73.9513 158.148 73.8216C158.277 73.6919 158.436 73.6271 158.624 73.6271ZM158.624 70.0479C158.819 70.0479 158.981 70.1127 159.111 70.2424C159.24 70.3721 159.305 70.5309 159.305 70.719C159.305 70.907 159.24 71.0691 159.111 71.2053C158.981 71.3349 158.819 71.3998 158.624 71.3998C158.436 71.3998 158.277 71.3349 158.148 71.2053C158.018 71.0691 157.953 70.907 157.953 70.719C157.953 70.5309 158.018 70.3721 158.148 70.2424C158.277 70.1127 158.436 70.0479 158.624 70.0479Z" fill="white"/>
<path d="M155.5 72.1202L157.28 74.863H156.2L154.946 72.6941L153.672 74.863H152.66L154.45 72.1591L152.864 69.7373H153.915L154.985 71.6145L156.064 69.7373H157.076L155.5 72.1202Z" fill="white"/>
<path d="M147.012 69.6201C147.732 69.6201 148.29 69.86 148.685 70.3399C149.087 70.8197 149.288 71.4713 149.288 72.2948C149.288 72.8265 149.197 73.2966 149.016 73.7051C148.834 74.1071 148.572 74.4216 148.228 74.6485C147.884 74.869 147.476 74.9792 147.002 74.9792C146.283 74.9792 145.722 74.7393 145.32 74.2595C144.918 73.7797 144.717 73.128 144.717 72.3045C144.717 71.7728 144.808 71.306 144.989 70.904C145.171 70.4955 145.433 70.181 145.777 69.9605C146.121 69.7336 146.532 69.6201 147.012 69.6201ZM147.012 70.3399C146.124 70.3399 145.68 70.9947 145.68 72.3045C145.68 73.6078 146.121 74.2595 147.002 74.2595C147.884 74.2595 148.325 73.6046 148.325 72.2948C148.325 70.9915 147.888 70.3399 147.012 70.3399Z" fill="white"/>
<path d="M144.205 74.6293C143.868 74.8627 143.485 74.9794 143.057 74.9794C142.623 74.9794 142.282 74.8563 142.036 74.6099C141.796 74.357 141.676 73.9939 141.676 73.5205V70.4276H140.781V69.7371H141.676V68.5796L142.571 68.4727V69.7371H143.787L143.689 70.4276H142.571V73.4816C142.571 73.7475 142.616 73.942 142.707 74.0652C142.804 74.1819 142.963 74.2403 143.184 74.2403C143.385 74.2403 143.612 74.1722 143.864 74.036L144.205 74.6293Z" fill="white"/>
<path d="M135.094 69.6201C135.814 69.6201 136.372 69.86 136.767 70.3399C137.169 70.8197 137.37 71.4713 137.37 72.2948C137.37 72.8265 137.279 73.2966 137.098 73.7051C136.916 74.1071 136.654 74.4216 136.31 74.6485C135.966 74.869 135.558 74.9792 135.084 74.9792C134.365 74.9792 133.804 74.7393 133.402 74.2595C133 73.7797 132.799 73.128 132.799 72.3045C132.799 71.7728 132.89 71.306 133.071 70.904C133.253 70.4955 133.515 70.181 133.859 69.9605C134.203 69.7336 134.614 69.6201 135.094 69.6201ZM135.094 70.3399C134.206 70.3399 133.762 70.9947 133.762 72.3045C133.762 73.6078 134.203 74.2595 135.084 74.2595C135.966 74.2595 136.407 73.6046 136.407 72.2948C136.407 70.9915 135.97 70.3399 135.094 70.3399Z" fill="white"/>
<path d="M132.305 69.9704C132.11 70.0352 131.896 70.0773 131.663 70.0968C131.429 70.1162 131.144 70.126 130.807 70.126C131.41 70.3983 131.711 70.8295 131.711 71.4196C131.711 71.9318 131.536 72.35 131.186 72.6742C130.836 72.9984 130.359 73.1605 129.756 73.1605C129.523 73.1605 129.306 73.1281 129.105 73.0633C129.027 73.1151 128.965 73.1865 128.92 73.2772C128.875 73.3615 128.852 73.4491 128.852 73.5399C128.852 73.8187 129.076 73.9581 129.523 73.9581H130.34C130.684 73.9581 130.988 74.0197 131.254 74.1429C131.52 74.2661 131.724 74.4347 131.867 74.6486C132.016 74.8626 132.091 75.1058 132.091 75.3781C132.091 75.8774 131.886 76.2599 131.478 76.5258C131.069 76.7981 130.473 76.9343 129.688 76.9343C129.137 76.9343 128.7 76.8759 128.375 76.7592C128.058 76.649 127.831 76.4804 127.694 76.2534C127.558 76.0265 127.49 75.7347 127.49 75.3781H128.298C128.298 75.5856 128.336 75.7477 128.414 75.8644C128.492 75.9876 128.631 76.0784 128.832 76.1367C129.033 76.2016 129.319 76.234 129.688 76.234C130.227 76.234 130.609 76.1659 130.836 76.0297C131.069 75.9001 131.186 75.7023 131.186 75.4365C131.186 75.1965 131.095 75.015 130.914 74.8918C130.732 74.7686 130.479 74.707 130.155 74.707H129.348C128.913 74.707 128.583 74.6162 128.356 74.4347C128.135 74.2466 128.025 74.0132 128.025 73.7344C128.025 73.5658 128.074 73.4037 128.171 73.2481C128.268 73.0924 128.408 72.953 128.589 72.8298C128.291 72.6742 128.071 72.4829 127.928 72.256C127.792 72.0226 127.724 71.7405 127.724 71.4098C127.724 71.0662 127.808 70.7582 127.977 70.4858C128.152 70.2135 128.388 70.0028 128.687 69.8536C128.991 69.698 129.328 69.6202 129.698 69.6202C130.1 69.6267 130.437 69.6137 130.71 69.5813C130.982 69.5424 131.206 69.4938 131.381 69.4354C131.562 69.3706 131.783 69.2798 132.042 69.1631L132.305 69.9704ZM129.698 70.2621C129.361 70.2621 129.098 70.3691 128.91 70.5831C128.729 70.7906 128.638 71.0662 128.638 71.4098C128.638 71.76 128.732 72.042 128.92 72.256C129.108 72.4635 129.374 72.5672 129.718 72.5672C130.068 72.5672 130.334 72.4667 130.515 72.2657C130.703 72.0582 130.797 71.7697 130.797 71.4001C130.797 70.6415 130.431 70.2621 129.698 70.2621Z" fill="white"/>
<rect x="161.984" y="63.4736" width="26.3995" height="16.6734" rx="8.3367" fill="#FAFAFA"/>
<path d="M180.194 68.4502C180.914 68.4502 181.455 68.7387 181.819 69.3158C182.188 69.8864 182.373 70.7164 182.373 71.8057C182.373 72.895 182.188 73.7283 181.819 74.3053C181.455 74.8824 180.914 75.171 180.194 75.171C179.475 75.171 178.93 74.8824 178.56 74.3053C178.197 73.7283 178.016 72.895 178.016 71.8057C178.016 70.7164 178.197 69.8864 178.56 69.3158C178.93 68.7387 179.475 68.4502 180.194 68.4502ZM180.194 69.1602C179.773 69.1602 179.458 69.3677 179.251 69.7827C179.05 70.1977 178.949 70.872 178.949 71.8057C178.949 72.7394 179.05 73.417 179.251 73.8385C179.458 74.2535 179.773 74.461 180.194 74.461C180.609 74.461 180.921 74.2535 181.128 73.8385C181.335 73.417 181.439 72.7394 181.439 71.8057C181.439 70.8785 181.335 70.2074 181.128 69.7924C180.921 69.3709 180.609 69.1602 180.194 69.1602Z" fill="#605D5D"/>
<path d="M174.675 68.4502C175.394 68.4502 175.936 68.7387 176.299 69.3158C176.669 69.8864 176.853 70.7164 176.853 71.8057C176.853 72.895 176.669 73.7283 176.299 74.3053C175.936 74.8824 175.394 75.171 174.675 75.171C173.955 75.171 173.41 74.8824 173.041 74.3053C172.678 73.7283 172.496 72.895 172.496 71.8057C172.496 70.7164 172.678 69.8864 173.041 69.3158C173.41 68.7387 173.955 68.4502 174.675 68.4502ZM174.675 69.1602C174.253 69.1602 173.939 69.3677 173.731 69.7827C173.53 70.1977 173.43 70.872 173.43 71.8057C173.43 72.7394 173.53 73.417 173.731 73.8385C173.939 74.2535 174.253 74.461 174.675 74.461C175.09 74.461 175.401 74.2535 175.608 73.8385C175.816 73.417 175.92 72.7394 175.92 71.8057C175.92 70.8785 175.816 70.2074 175.608 69.7924C175.401 69.3709 175.09 69.1602 174.675 69.1602Z" fill="#605D5D"/>
<path d="M170.797 68.5479V75.0546H169.902V69.501L168.385 70.425L167.996 69.7928L170.009 68.5479H170.797Z" fill="#605D5D"/>
<path d="M216.314 73.6271C216.508 73.6271 216.67 73.6919 216.8 73.8216C216.93 73.9513 216.995 74.1101 216.995 74.2982C216.995 74.4862 216.93 74.6483 216.8 74.7845C216.67 74.9142 216.508 74.979 216.314 74.979C216.126 74.979 215.967 74.9142 215.837 74.7845C215.707 74.6483 215.643 74.4862 215.643 74.2982C215.643 74.1101 215.707 73.9513 215.837 73.8216C215.967 73.6919 216.126 73.6271 216.314 73.6271ZM216.314 70.0479C216.508 70.0479 216.67 70.1127 216.8 70.2424C216.93 70.3721 216.995 70.5309 216.995 70.719C216.995 70.907 216.93 71.0691 216.8 71.2053C216.67 71.3349 216.508 71.3998 216.314 71.3998C216.126 71.3998 215.967 71.3349 215.837 71.2053C215.707 71.0691 215.643 70.907 215.643 70.719C215.643 70.5309 215.707 70.3721 215.837 70.2424C215.967 70.1127 216.126 70.0479 216.314 70.0479Z" fill="white"/>
<path d="M213.211 74.8912C213.01 75.4877 212.728 75.9578 212.365 76.3015C212.008 76.6516 211.496 76.8624 210.828 76.9337L210.731 76.2334C211.068 76.175 211.337 76.0907 211.538 75.9805C211.739 75.8703 211.898 75.7276 212.015 75.5526C212.138 75.384 212.251 75.1538 212.355 74.862H212.054L210.332 69.7363H211.285L212.657 74.2104L213.999 69.7363H214.923L213.211 74.8912Z" fill="white"/>
<path d="M206.545 67.6744V74.862H205.757L205.67 74.152C205.501 74.4113 205.29 74.6156 205.038 74.7647C204.785 74.9074 204.503 74.9787 204.191 74.9787C203.582 74.9787 203.105 74.7388 202.762 74.259C202.424 73.7791 202.256 73.134 202.256 72.3235C202.256 71.7983 202.337 71.3314 202.499 70.9229C202.661 70.5144 202.895 70.1967 203.199 69.9697C203.504 69.7363 203.861 69.6196 204.269 69.6196C204.794 69.6196 205.255 69.8303 205.65 70.2518V67.5674L206.545 67.6744ZM204.386 74.2687C204.658 74.2687 204.892 74.2071 205.086 74.0839C205.281 73.9542 205.469 73.7629 205.65 73.5101V71.0007C205.482 70.7803 205.3 70.6149 205.106 70.5047C204.918 70.388 204.704 70.3296 204.464 70.3296C204.068 70.3296 203.76 70.495 203.54 70.8256C203.326 71.1563 203.219 71.6491 203.219 72.304C203.219 72.9654 203.319 73.4582 203.52 73.7824C203.721 74.1066 204.01 74.2687 204.386 74.2687Z" fill="white"/>
<path d="M199.193 69.6191C199.66 69.6191 200.023 69.7585 200.283 70.0374C200.549 70.3162 200.681 70.6987 200.681 71.1851V74.8615H199.787V71.3115C199.787 70.9484 199.719 70.6923 199.582 70.5431C199.446 70.394 199.245 70.3194 198.979 70.3194C198.707 70.3194 198.467 70.3972 198.26 70.5529C198.052 70.7085 197.858 70.9322 197.676 71.224V74.8615H196.781V69.7359H197.55L197.627 70.4945C197.809 70.2222 198.033 70.0082 198.299 69.8526C198.571 69.6969 198.869 69.6191 199.193 69.6191Z" fill="white"/>
<path d="M194.845 73.6652C194.845 73.8727 194.881 74.0283 194.952 74.1321C195.024 74.2293 195.131 74.3039 195.273 74.3558L195.069 74.9782C194.803 74.9458 194.589 74.8713 194.427 74.7545C194.265 74.6378 194.145 74.4563 194.067 74.2099C193.724 74.7221 193.215 74.9782 192.54 74.9782C192.034 74.9782 191.636 74.8356 191.344 74.5503C191.052 74.265 190.906 73.8922 190.906 73.4318C190.906 72.8871 191.101 72.4689 191.49 72.1771C191.885 71.8853 192.443 71.7394 193.163 71.7394H193.951V71.3601C193.951 70.997 193.863 70.7376 193.688 70.582C193.513 70.4264 193.244 70.3486 192.881 70.3486C192.505 70.3486 192.044 70.4394 191.5 70.6209L191.276 69.9693C191.911 69.7359 192.501 69.6191 193.046 69.6191C193.649 69.6191 194.1 69.7683 194.398 70.0665C194.696 70.3583 194.845 70.7766 194.845 71.3212V73.6652ZM192.744 74.3071C193.257 74.3071 193.659 74.0413 193.951 73.5096V72.3327H193.279C192.333 72.3327 191.859 72.6829 191.859 73.3832C191.859 73.6879 191.934 73.9181 192.083 74.0737C192.232 74.2293 192.453 74.3071 192.744 74.3071Z" fill="white"/>
<rect x="219.646" y="63.4736" width="26.3995" height="16.6734" rx="8.3367" fill="#FAFAFA"/>
<path d="M237.856 68.4502C238.576 68.4502 239.118 68.7387 239.481 69.3158C239.85 69.8864 240.035 70.7164 240.035 71.8057C240.035 72.895 239.85 73.7283 239.481 74.3053C239.118 74.8824 238.576 75.171 237.856 75.171C237.137 75.171 236.592 74.8824 236.222 74.3053C235.859 73.7283 235.678 72.895 235.678 71.8057C235.678 70.7164 235.859 69.8864 236.222 69.3158C236.592 68.7387 237.137 68.4502 237.856 68.4502ZM237.856 69.1602C237.435 69.1602 237.12 69.3677 236.913 69.7827C236.712 70.1977 236.611 70.872 236.611 71.8057C236.611 72.7394 236.712 73.417 236.913 73.8385C237.12 74.2535 237.435 74.461 237.856 74.461C238.271 74.461 238.583 74.2535 238.79 73.8385C238.998 73.417 239.101 72.7394 239.101 71.8057C239.101 70.8785 238.998 70.2074 238.79 69.7924C238.583 69.3709 238.271 69.1602 237.856 69.1602Z" fill="#605D5D"/>
<path d="M232.337 68.4502C233.057 68.4502 233.598 68.7387 233.961 69.3158C234.331 69.8864 234.516 70.7164 234.516 71.8057C234.516 72.895 234.331 73.7283 233.961 74.3053C233.598 74.8824 233.057 75.171 232.337 75.171C231.617 75.171 231.072 74.8824 230.703 74.3053C230.34 73.7283 230.158 72.895 230.158 71.8057C230.158 70.7164 230.34 69.8864 230.703 69.3158C231.072 68.7387 231.617 68.4502 232.337 68.4502ZM232.337 69.1602C231.915 69.1602 231.601 69.3677 231.393 69.7827C231.192 70.1977 231.092 70.872 231.092 71.8057C231.092 72.7394 231.192 73.417 231.393 73.8385C231.601 74.2535 231.915 74.461 232.337 74.461C232.752 74.461 233.063 74.2535 233.271 73.8385C233.478 73.417 233.582 72.7394 233.582 71.8057C233.582 70.8785 233.478 70.2074 233.271 69.7924C233.063 69.3709 232.752 69.1602 232.337 69.1602Z" fill="#605D5D"/>
<path d="M228.459 68.5479V75.0546H227.565V69.501L226.047 70.425L225.658 69.7928L227.672 68.5479H228.459Z" fill="#605D5D"/>
<path d="M129.221 60.1537C128.819 59.2356 129.492 58.207 130.494 58.207H145.072C146.074 58.207 146.747 59.2356 146.345 60.1537L145.208 62.7538C144.987 63.2596 144.487 63.5865 143.935 63.5865H131.632C131.079 63.5865 130.58 63.2596 130.358 62.7538L129.221 60.1537Z" fill="#1D1D26"/>
<g filter="url(#filter0_d_1642_5441)">
<rect x="120.301" y="34" width="89.439" height="24.2882" rx="2.7789" fill="#DE6876"/>
<path d="M148.461 44.4814C148.928 44.4814 149.291 44.6209 149.55 44.8997C149.816 45.1785 149.949 45.561 149.949 46.0474V49.7238H149.054V46.1738C149.054 45.8107 148.986 45.5546 148.85 45.4054C148.714 45.2563 148.513 45.1817 148.247 45.1817C147.975 45.1817 147.735 45.2595 147.527 45.4152C147.32 45.5708 147.125 45.7945 146.944 46.0863V49.7238H146.049V44.5982H146.817L146.895 45.3568C147.077 45.0845 147.3 44.8705 147.566 44.7149C147.838 44.5593 148.137 44.4814 148.461 44.4814Z" fill="white"/>
<path d="M144.522 47.0102C144.522 47.1594 144.515 47.3118 144.502 47.4674H141.234C141.273 48.0315 141.416 48.4465 141.662 48.7123C141.909 48.9782 142.226 49.1111 142.616 49.1111C142.862 49.1111 143.089 49.0754 143.296 49.0041C143.504 48.9328 143.721 48.8193 143.948 48.6637L144.337 49.1986C143.792 49.6266 143.196 49.8406 142.547 49.8406C141.834 49.8406 141.277 49.6071 140.875 49.1403C140.479 48.6734 140.281 48.0315 140.281 47.2145C140.281 46.6828 140.366 46.2127 140.534 45.8042C140.709 45.3892 140.956 45.065 141.273 44.8316C141.598 44.5982 141.977 44.4814 142.411 44.4814C143.092 44.4814 143.614 44.7051 143.977 45.1525C144.34 45.6 144.522 46.2192 144.522 47.0102ZM143.637 46.7476C143.637 46.2419 143.536 45.8561 143.335 45.5902C143.134 45.3244 142.833 45.1915 142.431 45.1915C141.698 45.1915 141.299 45.7296 141.234 46.806H143.637V46.7476Z" fill="white"/>
<path d="M137.268 44.481C137.734 44.481 138.098 44.6204 138.357 44.8992C138.623 45.178 138.756 45.5606 138.756 46.0469V49.7234H137.861V46.1734C137.861 45.8102 137.79 45.5541 137.647 45.405C137.511 45.2559 137.31 45.1813 137.044 45.1813C136.778 45.1813 136.541 45.2591 136.334 45.4147C136.126 45.5703 135.932 45.7908 135.75 46.0761V49.7234H134.855V42.5455L135.75 42.4482V45.3077C136.152 44.7566 136.658 44.481 137.268 44.481Z" fill="white"/>
<path d="M133.589 43.0225L132.227 49.7238H131.04L129.805 44.1118L128.56 49.7238H127.403L126.041 43.0225H126.946L128.025 48.9165L129.319 43.0225H130.301L131.624 48.9165L132.742 43.0225H133.589Z" fill="white"/>
<path fill-rule="evenodd" clip-rule="evenodd" d="M161.233 41.9137C161.303 41.7582 161.458 41.6582 161.629 41.6582C162.069 41.6582 162.493 41.8304 162.807 42.139C163.121 42.4479 163.298 42.8683 163.298 43.3082V44.495H165.193C165.373 44.4933 165.552 44.5301 165.717 44.603C165.883 44.6763 166.031 44.7844 166.151 44.9203C166.271 45.0562 166.36 45.2167 166.411 45.3908C166.463 45.5649 166.475 45.748 166.447 45.9274L165.879 49.5747C165.879 49.5748 165.879 49.5745 165.879 49.5747C165.833 49.8731 165.679 50.1441 165.448 50.3376C165.217 50.5306 164.925 50.6344 164.624 50.6317H158.746C158.415 50.6317 158.096 50.5022 157.859 50.2696C157.623 50.0367 157.488 49.7193 157.488 49.387V46.5502C157.488 46.2178 157.623 45.9005 157.859 45.6676C158.096 45.435 158.415 45.3055 158.746 45.3055H159.701L161.233 41.9137ZM159.547 46.1739H158.746C158.641 46.1739 158.541 46.2152 158.468 46.2866C158.396 46.3577 158.357 46.4527 158.357 46.5502V49.387C158.357 49.4845 158.396 49.5795 158.468 49.6506C158.541 49.722 158.641 49.7633 158.746 49.7633H159.547V46.1739ZM160.416 49.7633H164.631C164.727 49.7643 164.819 49.7312 164.891 49.6715C164.962 49.612 165.007 49.5303 165.021 49.4424L165.589 45.7951C165.589 45.7951 165.589 45.795 165.589 45.7951C165.597 45.7422 165.594 45.6881 165.578 45.6365C165.563 45.5849 165.537 45.5367 165.5 45.4953C165.464 45.4539 165.418 45.4203 165.366 45.3974C165.314 45.3744 165.257 45.3627 165.2 45.3634L165.195 45.3634L162.864 45.3634C162.624 45.3634 162.43 45.169 162.43 44.9292V43.3082C162.43 43.1031 162.347 42.9051 162.198 42.758C162.111 42.6723 162.005 42.6081 161.89 42.5693L160.416 45.8332V49.7633Z" fill="#FAFAFA"/>
<rect x="154.749" y="38.9194" width="14.4503" height="14.4503" rx="2.36206" stroke="#EBEBED" stroke-opacity="0.5" stroke-width="0.55578"/>
<path d="M203.998 42.6919V49.8796H203.21L203.123 49.1696C202.954 49.4289 202.744 49.6332 202.491 49.7823C202.238 49.925 201.956 49.9963 201.644 49.9963C201.035 49.9963 200.558 49.7564 200.215 49.2766C199.878 48.7967 199.709 48.1516 199.709 47.341C199.709 46.8158 199.79 46.349 199.952 45.9405C200.114 45.532 200.348 45.2143 200.652 44.9873C200.957 44.7539 201.314 44.6372 201.722 44.6372C202.248 44.6372 202.708 44.8479 203.103 45.2694V42.585L203.998 42.6919ZM201.839 49.2863C202.111 49.2863 202.345 49.2247 202.539 49.1015C202.734 48.9718 202.922 48.7805 203.103 48.5276V46.0183C202.935 45.7978 202.753 45.6325 202.559 45.5223C202.371 45.4055 202.157 45.3472 201.917 45.3472C201.521 45.3472 201.213 45.5125 200.993 45.8432C200.779 46.1739 200.672 46.6667 200.672 47.3216C200.672 47.983 200.772 48.4758 200.973 48.8C201.174 49.1242 201.463 49.2863 201.839 49.2863Z" fill="white"/>
<path d="M198.504 47.1655C198.504 47.3147 198.498 47.467 198.485 47.6226H195.217C195.256 48.1868 195.398 48.6017 195.645 48.8676C195.891 49.1334 196.209 49.2664 196.598 49.2664C196.844 49.2664 197.071 49.2307 197.279 49.1594C197.486 49.0881 197.703 48.9746 197.93 48.819L198.319 49.3539C197.775 49.7819 197.178 49.9958 196.53 49.9958C195.817 49.9958 195.259 49.7624 194.857 49.2955C194.461 48.8287 194.264 48.1868 194.264 47.3698C194.264 46.8381 194.348 46.368 194.517 45.9595C194.692 45.5445 194.938 45.2203 195.256 44.9869C195.58 44.7534 195.959 44.6367 196.394 44.6367C197.075 44.6367 197.596 44.8604 197.96 45.3078C198.323 45.7552 198.504 46.3745 198.504 47.1655ZM197.619 46.9029C197.619 46.3972 197.519 46.0113 197.318 45.7455C197.117 45.4797 196.815 45.3467 196.413 45.3467C195.68 45.3467 195.282 45.8849 195.217 46.9613H197.619V46.9029Z" fill="white"/>
<path d="M190.539 42.585V49.8796H189.645V42.6919L190.539 42.585ZM193.486 44.7539L191.599 47.0201L193.7 49.8796H192.63L190.598 47.0784L192.485 44.7539H193.486Z" fill="white"/>
<path d="M186.77 44.6367C187.075 44.6367 187.354 44.6821 187.607 44.7729C187.86 44.8572 188.103 44.9966 188.336 45.1911L187.908 45.7552C187.727 45.6255 187.548 45.5315 187.373 45.4732C187.205 45.4083 187.017 45.3759 186.809 45.3759C186.394 45.3759 186.07 45.5413 185.837 45.8719C185.61 46.2026 185.496 46.6922 185.496 47.3406C185.496 47.989 185.61 48.4688 185.837 48.7801C186.063 49.0848 186.388 49.2372 186.809 49.2372C187.01 49.2372 187.195 49.208 187.364 49.1497C187.532 49.0848 187.72 48.9843 187.928 48.8481L188.336 49.4317C187.869 49.8078 187.347 49.9958 186.77 49.9958C186.076 49.9958 185.529 49.7624 185.126 49.2955C184.731 48.8287 184.533 48.1835 184.533 47.36C184.533 46.8154 184.624 46.3388 184.806 45.9303C184.987 45.5218 185.243 45.2041 185.574 44.9771C185.911 44.7502 186.31 44.6367 186.77 44.6367Z" fill="white"/>
<path d="M182.955 44.7537V49.8794H182.06V44.7537H182.955ZM182.497 42.293C182.686 42.293 182.838 42.3513 182.955 42.468C183.071 42.5848 183.13 42.7306 183.13 42.9057C183.13 43.0808 183.071 43.2267 182.955 43.3434C182.838 43.4536 182.686 43.5087 182.497 43.5087C182.316 43.5087 182.167 43.4536 182.05 43.3434C181.933 43.2267 181.875 43.0808 181.875 42.9057C181.875 42.7306 181.933 42.5848 182.05 42.468C182.167 42.3513 182.316 42.293 182.497 42.293Z" fill="white"/>
<path d="M180.134 49.9963C179.804 49.9963 179.541 49.899 179.347 49.7045C179.158 49.5035 179.064 49.2247 179.064 48.8681V42.6919L179.959 42.585V48.8486C179.959 48.9913 179.982 49.095 180.027 49.1598C180.079 49.2247 180.164 49.2571 180.28 49.2571C180.403 49.2571 180.514 49.2376 180.611 49.1987L180.844 49.8212C180.63 49.9379 180.394 49.9963 180.134 49.9963Z" fill="white"/>
<path d="M176.239 44.6367C176.544 44.6367 176.823 44.6821 177.075 44.7729C177.328 44.8572 177.571 44.9966 177.805 45.1911L177.377 45.7552C177.195 45.6255 177.017 45.5315 176.842 45.4732C176.673 45.4083 176.485 45.3759 176.278 45.3759C175.863 45.3759 175.539 45.5413 175.305 45.8719C175.078 46.2026 174.965 46.6922 174.965 47.3406C174.965 47.989 175.078 48.4688 175.305 48.7801C175.532 49.0848 175.856 49.2372 176.278 49.2372C176.479 49.2372 176.664 49.208 176.832 49.1497C177.001 49.0848 177.189 48.9843 177.396 48.8481L177.805 49.4317C177.338 49.8078 176.816 49.9958 176.239 49.9958C175.545 49.9958 174.997 49.7624 174.595 49.2955C174.2 48.8287 174.002 48.1835 174.002 47.36C174.002 46.8154 174.093 46.3388 174.274 45.9303C174.456 45.5218 174.712 45.2041 175.043 44.9771C175.38 44.7502 175.779 44.6367 176.239 44.6367Z" fill="white"/>
<path d="M130.036 58.1088C129.695 57.2004 130.367 56.2314 131.337 56.2314H144C144.971 56.2314 145.642 57.2004 145.301 58.1088L144.259 60.8877C144.056 61.43 143.538 61.7892 142.958 61.7892H132.379C131.8 61.7892 131.281 61.43 131.078 60.8877L130.036 58.1088Z" fill="#DE6876"/>
</g>
<path d="M32.457 52.4156L-4.16406 73.557C-4.53291 73.7699 -4.53291 74.1152 -4.16406 74.3281L32.5294 95.5113L69.8184 73.9844L32.457 52.4156Z" fill="#009E62" stroke="#009E62" stroke-width="1.54233" stroke-linejoin="bevel"/>
<path d="M32.4551 51.8141L32.4551 51.8141L-4.16601 72.9554C-4.53486 73.1684 -4.53486 73.5136 -4.16601 73.7266L32.4568 94.8689L69.7458 73.342L32.4551 51.8141Z" fill="#009E62" stroke="#009E62" stroke-width="1.54233" stroke-linejoin="bevel"/>
<path d="M32.4551 51.2252L32.4551 51.2252L-4.16601 72.3666C-4.53486 72.5795 -4.53486 72.9248 -4.16601 73.1377L32.4568 94.2801L69.7458 72.7531L32.4551 51.2252Z" fill="#009E62" stroke="#009E62" stroke-width="1.54233" stroke-linejoin="bevel"/>
<path d="M32.4551 50.6373L32.4551 50.6373L-4.16601 71.7787C-4.53486 71.9916 -4.53486 72.3369 -4.16601 72.5498L32.4568 93.6922L69.7458 72.1653L32.4551 50.6373Z" fill="#009E62" stroke="#009E62" stroke-width="1.54233" stroke-linejoin="bevel"/>
<path d="M32.4551 50.0494L32.4551 50.0494L-4.16601 71.1908C-4.53486 71.4037 -4.53486 71.749 -4.16601 71.9619L32.4568 93.1043L69.7458 71.5774L32.4551 50.0494Z" fill="#009E62" stroke="#009E62" stroke-width="1.54233" stroke-linejoin="bevel"/>
<path d="M32.4551 49.4606L32.4551 49.4606L-4.16601 70.6019C-4.53486 70.8149 -4.53486 71.1601 -4.16601 71.373L32.4568 92.5154L69.7458 70.9885L32.4551 49.4606Z" fill="#009E62" stroke="#009E62" stroke-width="1.54233" stroke-linejoin="bevel"/>
<path d="M32.4551 48.8737L32.4551 48.8737L-4.16601 70.015C-4.53486 70.2279 -4.53486 70.5732 -4.16601 70.7861L32.4568 91.9285L69.7458 70.4016L32.4551 48.8737Z" fill="#009E62" stroke="#009E62" stroke-width="1.54233" stroke-linejoin="bevel"/>
<path d="M32.4551 48.2848L32.4551 48.2848L-4.16601 69.4261C-4.53486 69.6391 -4.53486 69.9843 -4.16601 70.1973L32.4568 91.3396L69.7458 69.8127L32.4551 48.2848Z" fill="#009E62" stroke="#009E62" stroke-width="1.54233" stroke-linejoin="bevel"/>
<path d="M32.4551 47.6959L32.4551 47.6959L-4.16601 68.8373C-4.53486 69.0502 -4.53486 69.3955 -4.16601 69.6084L32.4568 90.7508L69.7458 69.2239L32.4551 47.6959Z" fill="#009E62" stroke="#009E62" stroke-width="1.54233" stroke-linejoin="bevel"/>
<path d="M32.4551 47.108L32.4551 47.108L-4.16601 68.2494C-4.53486 68.4623 -4.53486 68.8076 -4.16601 69.0205L32.4568 90.1629L69.7458 68.636L32.4551 47.108Z" fill="#009E62" stroke="#009E62" stroke-width="1.54233" stroke-linejoin="bevel"/>
<path d="M33.1445 46.7701L33.1445 46.7701L-3.04144 67.6603C-3.41029 67.8732 -3.41029 68.2185 -3.04144 68.4314L33.1463 89.3226L70.0001 68.0469L33.1445 46.7701Z" fill="#009E62" stroke="#009E62" stroke-width="1.54233" stroke-linejoin="bevel"/>
<path d="M34.3788 46.0682C34.01 45.8552 33.4119 45.8552 33.0431 46.0682L-3.16372 66.9704C-3.90142 67.3962 -3.90143 68.0867 -3.16373 68.5126L32.4581 89.0772C32.8269 89.2902 33.425 89.2902 33.7938 89.0772L70.6685 67.7895C71.0373 67.5766 71.0373 67.2313 70.6685 67.0184L34.3788 46.0682Z" fill="#16CF89"/>
<path d="M50.0078 58.5151C50.1964 60.7777 52.3269 65.2463 59.3409 65.02C58.681 62.5689 55.8905 57.8363 50.0078 58.5151Z" fill="#009E62"/>
<path d="M68.2159 60.5729C66.4566 60.0987 62.5029 60.4894 60.7625 65.8457C62.7926 66.0154 67.1254 65.1985 68.2159 60.5729Z" fill="#009E62"/>
</g>
<defs>
<filter id="filter0_d_1642_5441" x="117.522" y="31.9158" width="94.9973" height="33.3469" filterUnits="userSpaceOnUse" color-interpolation-filters="sRGB">
<feFlood flood-opacity="0" result="BackgroundImageFix"/>
<feColorMatrix in="SourceAlpha" type="matrix" values="0 0 0 0 0 0 0 0 0 0 0 0 0 0 0 0 0 0 127 0" result="hardAlpha"/>
<feOffset dy="0.694725"/>
<feGaussianBlur stdDeviation="1.38945"/>
<feComposite in2="hardAlpha" operator="out"/>
<feColorMatrix type="matrix" values="0 0 0 0 0 0 0 0 0 0 0 0 0 0 0 0 0 0 0.13 0"/>
<feBlend mode="normal" in2="BackgroundImageFix" result="effect1_dropShadow_1642_5441"/>
<feBlend mode="normal" in="SourceGraphic" in2="effect1_dropShadow_1642_5441" result="shape"/>
</filter>
<clipPath id="clip0_1642_5441">
<rect width="285" height="102" fill="white"/>
</clipPath>
</defs>
</svg>
