<svg width="292" height="103" viewBox="0 0 292 103" fill="none" xmlns="http://www.w3.org/2000/svg">
<rect width="292" height="102.768" fill="#1D1D26"/>
<rect x="83.0715" y="44.1315" width="27.9334" height="12.7303" rx="1.65535" transform="rotate(-2.71669 83.0715 44.1315)" stroke="#67EEAD" stroke-opacity="0.4" stroke-width="0.300972"/>
<path d="M192.718 16.9342C192.485 18.1153 190.917 20.1966 190.163 21.0896C189.819 20.9525 186.666 18.9632 185.132 17.9857L186.075 16.8694C184.867 16.4868 182.349 15.4813 181.937 14.5203C181.421 13.3191 181.678 11.4308 183.685 10.6401C185.693 9.84929 188.544 11.6842 190.707 12.7472C192.87 13.8101 193.009 15.4579 192.718 16.9342Z" fill="url(#paint0_linear_1649_5807)"/>
<path d="M188.543 17.7805L188.489 17.7607C187.901 17.5789 186.925 18.3861 185.249 17.994L185.859 16.7882L188.489 17.7607C188.508 17.7663 188.525 17.7729 188.543 17.7805Z" fill="#DB422A"/>
<path d="M198.099 20.7299C197.647 21.2384 194.384 24.6269 192.809 26.2575L194.419 35.1107C197.208 32.6106 203.043 27.1519 204.067 25.3174C205.346 23.0243 204.627 20.4201 202.601 19.5016C200.574 18.583 198.663 20.0943 198.099 20.7299Z" fill="url(#paint1_linear_1649_5807)"/>
<path d="M196.371 32.5066C196.466 39.7877 190.95 45.3251 187.309 48.0102C167.875 61.9962 158.088 56.9335 152.109 52.6951C146.129 48.4568 144.59 42.5003 144.532 35.9712C144.473 29.4421 149.953 23.1527 156.458 22.5928C161.663 22.1448 166.098 24.5639 167.666 25.8294C168.096 24.3017 175.462 15.4104 184.103 17.5127C192.745 19.6149 196.277 25.2255 196.371 32.5066Z" fill="url(#paint2_linear_1649_5807)"/>
<path d="M152.853 59.5587C153.319 59.2209 155.519 56.7125 156.674 55.3077C154.872 54.3883 152.538 52.9957 151.584 52.216C151.536 51.2134 149.962 49.7965 148.496 49.866C146.425 49.9643 145.847 52.0166 145.661 52.9254C145.475 53.8342 145.332 55.6409 145.645 57.4259C145.959 59.2109 147.821 59.7975 148.986 60.1922C150.151 60.5869 152.188 60.0402 152.853 59.5587Z" fill="url(#paint3_linear_1649_5807)"/>
<path d="M165.297 59.9698C166.016 58.8767 167.043 57.5715 167.452 56.6906C169.633 56.2377 174.434 54.796 176.563 54.1317C175.497 58.3504 171.472 63.3503 169.153 65.0535C166.834 66.7567 164.135 66.6512 163.305 64.825C162.476 62.9987 164.681 60.9071 165.297 59.9698Z" fill="url(#paint4_linear_1649_5807)"/>
<path d="M151.707 54.7898L151.588 52.2832L154.954 54.3845C153.975 54.9334 151.719 55.0405 151.707 54.7898Z" fill="#EB6338"/>
<path d="M174.696 31.0225C173.683 30.8696 169.587 27.4965 167.666 25.8291C174.875 29.5067 177.596 28.6238 177.62 29.1252C177.644 29.6265 175.961 31.2137 174.696 31.0225Z" fill="#E84F37"/>
<path d="M154.563 47.8812C151.746 47.8139 149.753 45.3459 149.108 44.1204C149.789 42.5807 150.804 37.508 156.832 37.4732C161.654 37.4454 164.538 41.0434 165.378 42.8459C162.297 46.7605 158.084 47.9653 154.563 47.8812Z" fill="#FEF9F5"/>
<mask id="mask0_1649_5807" style="mask-type:alpha" maskUnits="userSpaceOnUse" x="149" y="37" width="17" height="11">
<path d="M154.563 47.8821C151.746 47.8148 149.753 45.3469 149.108 44.1213C149.789 42.5817 150.804 37.509 156.832 37.4742C161.654 37.4463 164.538 41.0444 165.378 42.8469C162.297 46.7614 158.084 47.9663 154.563 47.8821Z" fill="#FEF9F5"/>
</mask>
<g mask="url(#mask0_1649_5807)">
<ellipse cx="156.465" cy="44.2393" rx="4.98296" ry="5.31516" transform="rotate(-19.9595 156.465 44.2393)" fill="black"/>
</g>
<path d="M132.605 58.5475L164.937 75.7813L147.565 88.869L115.233 71.6352L132.605 58.5475Z" fill="url(#paint5_linear_1649_5807)"/>
<path d="M147.479 88.7966L165.008 75.6943L164.634 77.4289L147.356 90.5489L147.479 88.7966Z" fill="#606972"/>
<path d="M147.481 88.7973L116.447 72.2676L116.324 74.0198L147.358 90.5495L147.481 88.7973Z" fill="#49525B"/>
<path d="M134.11 62.2265C134.432 61.9845 134.864 61.9507 135.219 62.1399L159.003 74.8179C159.671 75.1735 159.743 76.1013 159.139 76.5562L147.1 85.6264C146.779 85.8684 146.347 85.9022 145.992 85.713L122.207 73.035C121.54 72.6794 121.467 71.7516 122.071 71.2967L134.11 62.2265Z" fill="url(#paint6_linear_1649_5807)" fill-opacity="0.6"/>
<path d="M113.845 72.2465L146.236 89.3694L147.589 64.1432L115.199 47.0202L113.845 72.2465Z" fill="url(#paint7_linear_1649_5807)"/>
<path d="M148.585 63.2123L147.513 64.1429L146.23 89.4607L147.302 88.5301L148.585 63.2123Z" fill="#677079"/>
<path d="M148.586 63.2124L147.514 64.1431L115.263 47.0244L116.318 46.3441L148.586 63.2124Z" fill="#9AA2A9"/>
<g filter="url(#filter0_f_1649_5807)">
<path d="M126.421 20.6246L115.689 47.8546L149.296 63.7019L147.476 89.4877L170.519 71.4192C168.879 62.8381 163.681 43.4674 156.012 34.6336C148.343 25.7997 133.089 21.6135 126.421 20.6246Z" fill="url(#paint8_linear_1649_5807)" fill-opacity="0.3"/>
</g>
<rect x="113.506" y="23.0259" width="23.7747" height="12.1773" rx="2.84136" transform="rotate(-2.71669 113.506 23.0259)" fill="#ACFF58" fill-opacity="0.2" stroke="#FFF500" stroke-width="0.115974"/>
<path d="M130.23 28.0287L130.242 28.2832C130.165 28.2434 130.089 28.2144 130.012 28.1963C129.936 28.1782 129.858 28.171 129.78 28.1747C129.662 28.1803 129.575 28.2038 129.518 28.2452C129.463 28.2857 129.437 28.345 129.44 28.4233C129.444 28.494 129.468 28.5457 129.513 28.5786C129.558 28.6114 129.668 28.6402 129.842 28.665L129.947 28.6798C130.078 28.6982 130.177 28.7426 130.247 28.813C130.317 28.8834 130.355 28.9775 130.361 29.0953C130.368 29.2518 130.319 29.377 130.212 29.4709C130.104 29.5639 129.952 29.615 129.754 29.6244C129.676 29.6281 129.593 29.6235 129.507 29.6106C129.42 29.5987 129.326 29.5786 129.225 29.5503L129.212 29.2817C129.311 29.327 129.406 29.3603 129.496 29.3816C129.586 29.4019 129.67 29.4101 129.749 29.4064C129.864 29.4009 129.952 29.3736 130.013 29.3244C130.074 29.2743 130.103 29.2073 130.099 29.1234C130.093 29.0027 129.973 28.9247 129.74 28.8895L129.729 28.8872L129.63 28.872C129.479 28.8499 129.367 28.8061 129.295 28.7405C129.223 28.674 129.184 28.5809 129.179 28.4612C129.171 28.3094 129.217 28.1901 129.316 28.1032C129.415 28.0154 129.56 27.9669 129.75 27.9579C129.835 27.9539 129.917 27.958 129.996 27.9703C130.075 27.9817 130.153 28.0011 130.23 28.0287Z" fill="#76FF9C"/>
<path d="M127.909 29.0962C127.915 29.2131 127.94 29.3002 127.985 29.3576C128.032 29.4149 128.097 29.4416 128.181 29.4376L128.485 29.4232L128.495 29.6424L128.166 29.658C128.01 29.6654 127.887 29.6216 127.796 29.5267C127.707 29.4308 127.658 29.2914 127.649 29.1085L127.581 27.676L127.164 27.6958L127.154 27.4922L127.832 27.46L127.909 29.0962Z" fill="#76FF9C"/>
<path d="M125.719 28.3701C125.587 28.3764 125.49 28.4325 125.427 28.5385C125.364 28.6444 125.337 28.7983 125.346 29.0001C125.356 29.2009 125.397 29.3515 125.47 29.452C125.543 29.5515 125.645 29.5982 125.777 29.5919C125.91 29.5856 126.008 29.5294 126.071 29.4235C126.134 29.3165 126.161 29.1627 126.151 28.9619C126.142 28.7601 126.1 28.6095 126.028 28.5099C125.955 28.4104 125.852 28.3638 125.719 28.3701ZM125.709 28.1495C125.928 28.1391 126.099 28.2023 126.222 28.3391C126.346 28.4759 126.414 28.6792 126.427 28.9488C126.44 29.2194 126.391 29.4286 126.282 29.5764C126.173 29.7233 126.008 29.802 125.788 29.8125C125.568 29.8229 125.397 29.7602 125.274 29.6243C125.151 29.4874 125.084 29.2837 125.071 29.0131C125.058 28.7435 125.106 28.5348 125.215 28.3869C125.325 28.2391 125.489 28.1599 125.709 28.1495Z" fill="#76FF9C"/>
<path d="M123.713 28.4648C123.581 28.4711 123.484 28.5272 123.421 28.6332C123.358 28.7392 123.331 28.893 123.341 29.0948C123.35 29.2956 123.391 29.4462 123.464 29.5467C123.537 29.6462 123.639 29.6929 123.771 29.6866C123.904 29.6803 124.002 29.6242 124.065 29.5182C124.128 29.4113 124.155 29.2574 124.145 29.0566C124.136 28.8549 124.094 28.7042 124.022 28.6047C123.949 28.5051 123.846 28.4585 123.713 28.4648ZM123.703 28.2442C123.922 28.2338 124.094 28.297 124.216 28.4339C124.34 28.5707 124.408 28.7739 124.421 29.0435C124.434 29.3141 124.386 29.5233 124.276 29.6711C124.167 29.8181 124.002 29.8967 123.782 29.9072C123.562 29.9176 123.391 29.8549 123.268 29.719C123.145 29.5821 123.078 29.3784 123.065 29.1079C123.052 28.8382 123.1 28.6295 123.209 28.4816C123.319 28.3338 123.483 28.2546 123.703 28.2442Z" fill="#76FF9C"/>
<path d="M120.869 27.8887L122.48 27.8122L122.491 28.0526L121.831 28.084L121.92 29.9548L121.633 29.9685L121.544 28.0976L120.881 28.1291L120.869 27.8887Z" fill="#76FF9C"/>
<line x1="103.131" y1="39.9892" x2="103.53" y2="48.4069" stroke="#E27526" stroke-opacity="0.3" stroke-width="0.451458" stroke-linecap="round"/>
<circle cx="103.309" cy="43.7465" r="0.827673" transform="rotate(-2.71669 103.309 43.7465)" fill="#F57600"/>
<line x1="105.385" y1="39.8818" x2="105.784" y2="48.2995" stroke="#E27526" stroke-opacity="0.3" stroke-width="0.451458" stroke-linecap="round"/>
<circle cx="105.663" cy="45.7436" r="0.827673" transform="rotate(-2.71669 105.663 45.7436)" fill="#F57600"/>
<line x1="107.633" y1="39.7792" x2="108.032" y2="48.197" stroke="#E27526" stroke-opacity="0.3" stroke-width="0.451458" stroke-linecap="round"/>
<circle cx="107.718" cy="41.5824" r="0.827673" transform="rotate(-2.71669 107.718 41.5824)" fill="#F57600"/>
<rect x="79.5807" y="63.7903" width="28.4418" height="1.80583" rx="0.902916" transform="rotate(-2.71669 79.5807 63.7903)" fill="#32F28B" fill-opacity="0.2" stroke="#49FF92" stroke-width="0.150486"/>
<rect x="79.502" y="63.7188" width="10.534" height="1.95632" rx="0.978158" transform="rotate(-2.71669 79.502 63.7188)" fill="#32F296" fill-opacity="0.7"/>
<rect x="93.9908" y="69.6292" width="28.4418" height="1.80583" rx="0.902916" transform="rotate(-2.71669 93.9908 69.6292)" fill="#F2A632" fill-opacity="0.2" stroke="#FFAB49" stroke-width="0.150486"/>
<rect x="93.9121" y="69.5576" width="19.2248" height="1.95632" rx="0.978158" transform="rotate(-2.71669 93.9121 69.5576)" fill="#F2A632" fill-opacity="0.7"/>
<defs>
<filter id="filter0_f_1649_5807" x="114.655" y="19.591" width="56.8981" height="70.9303" filterUnits="userSpaceOnUse" color-interpolation-filters="sRGB">
<feFlood flood-opacity="0" result="BackgroundImageFix"/>
<feBlend mode="normal" in="SourceGraphic" in2="BackgroundImageFix" result="shape"/>
<feGaussianBlur stdDeviation="0.517" result="effect1_foregroundBlur_1649_5807"/>
</filter>
<linearGradient id="paint0_linear_1649_5807" x1="186.904" y1="10.2561" x2="187.83" y2="21.2854" gradientUnits="userSpaceOnUse">
<stop stop-color="#FE6F6D"/>
<stop offset="1" stop-color="#F3514F"/>
</linearGradient>
<linearGradient id="paint1_linear_1649_5807" x1="198.51" y1="19.3405" x2="199.247" y2="34.8816" gradientUnits="userSpaceOnUse">
<stop stop-color="#FE6F6D"/>
<stop offset="1" stop-color="#F3514F"/>
</linearGradient>
<linearGradient id="paint2_linear_1649_5807" x1="183.098" y1="14.685" x2="150.729" y2="52.4516" gradientUnits="userSpaceOnUse">
<stop stop-color="#FE6F6D"/>
<stop offset="0.532636" stop-color="#F45351"/>
<stop offset="1" stop-color="#FA987A"/>
</linearGradient>
<linearGradient id="paint3_linear_1649_5807" x1="150.964" y1="49.7489" x2="146.425" y2="59.9015" gradientUnits="userSpaceOnUse">
<stop stop-color="#FE6F6D"/>
<stop offset="0.09375" stop-color="#FD8D6A"/>
<stop offset="1" stop-color="#F3514F"/>
</linearGradient>
<linearGradient id="paint4_linear_1649_5807" x1="171.067" y1="55.6276" x2="163.27" y2="65.8316" gradientUnits="userSpaceOnUse">
<stop offset="0.0998039" stop-color="#F45351"/>
<stop offset="1" stop-color="#F38A4F"/>
</linearGradient>
<linearGradient id="paint5_linear_1649_5807" x1="144.723" y1="65.0069" x2="135.447" y2="82.4096" gradientUnits="userSpaceOnUse">
<stop stop-color="#818B94"/>
<stop offset="1" stop-color="#858C92"/>
</linearGradient>
<linearGradient id="paint6_linear_1649_5807" x1="144.306" y1="66.9836" x2="136.904" y2="80.8693" gradientUnits="userSpaceOnUse">
<stop stop-color="#677179"/>
<stop offset="1" stop-color="#6A747B"/>
</linearGradient>
<linearGradient id="paint7_linear_1649_5807" x1="125.358" y1="78.3327" x2="136.077" y2="58.057" gradientUnits="userSpaceOnUse">
<stop stop-color="#8E9092"/>
<stop offset="1" stop-color="#BCC6CF"/>
</linearGradient>
<linearGradient id="paint8_linear_1649_5807" x1="152.742" y1="44.2502" x2="129.158" y2="77.311" gradientUnits="userSpaceOnUse">
<stop stop-color="#F4FFB4" stop-opacity="0"/>
<stop offset="0.651042" stop-color="#CF80FF"/>
</linearGradient>
</defs>
</svg>
