<svg width="292" height="103" viewBox="0 0 292 103" fill="none" xmlns="http://www.w3.org/2000/svg">
<rect width="292" height="102.768" fill="#1D1D26"/>
<path d="M157.636 20.8929L151.579 16.8828L119.417 66.1497C119.171 66.5589 119.744 68.2775 121.054 69.5869C122.363 70.8963 125.309 70.6508 125.555 70.3235L157.636 20.8929Z" fill="#2F4CB6"/>
<ellipse cx="154.539" cy="19.0073" rx="3.64254" ry="2.3788" transform="rotate(33.9423 154.539 19.0073)" fill="#5F80D1"/>
<path d="M151.279 59.5203L148.169 63.9396L136.057 46.1806L139.003 41.1885L151.279 59.5203Z" fill="#1E368A"/>
<path d="M141.95 41.2705L153.326 56.6562L151.362 59.6842L139.004 41.2705H141.95Z" fill="#5F80D1"/>
<path d="M141.622 74.5789L138.513 78.9982L126.4 61.2392L129.347 56.2471L141.622 74.5789Z" fill="#1E368A"/>
<path d="M132.292 56.3291L143.667 71.7148L141.703 74.7428L129.346 56.3291H132.292Z" fill="#5F80D1"/>
<path d="M161.099 46.0985L157.989 50.5178L145.877 32.7588L148.823 27.7666L161.099 46.0985Z" fill="#1E368A"/>
<path d="M151.77 27.8486L163.146 43.2343L161.182 46.2623L148.824 27.8486H151.77Z" fill="#5F80D1"/>
<path d="M171.386 38.5706L165.329 34.5605L133.167 83.8274C132.921 84.2366 133.494 85.9552 134.804 87.2647C136.113 88.5741 139.059 88.3286 139.305 88.0012L171.386 38.5706Z" fill="#2F4CB6"/>
<ellipse cx="168.289" cy="36.685" rx="3.64254" ry="2.3788" transform="rotate(33.9423 168.289 36.685)" fill="#5F80D1"/>
</svg>
