<svg width="292" height="103" viewBox="0 0 292 103" fill="none" xmlns="http://www.w3.org/2000/svg">
<rect width="292" height="102.768" fill="#1D1D26"/>
<path fill-rule="evenodd" clip-rule="evenodd" d="M199.793 41.9097C199.793 42.4682 199.979 42.9017 200.35 43.2101C200.721 43.5192 201.115 43.6731 201.533 43.6731C201.95 43.6731 202.341 43.5517 202.706 43.3084C203.07 43.0657 203.365 42.9441 203.59 42.9441C203.988 42.9441 204.472 43.2923 205.042 43.9884C205.347 44.3696 205.499 44.711 205.499 45.0129C205.499 45.5122 205.134 45.9784 204.405 46.4119C203.65 46.9374 202.722 47.2001 201.622 47.2001C200.39 47.2001 199.203 46.7601 198.064 45.88C197.52 45.4596 197.076 44.898 196.732 44.195C196.387 43.4926 196.215 42.7174 196.215 41.8703C196.215 41.0232 196.387 40.2546 196.732 39.565C197.076 38.8756 197.52 38.3207 198.064 37.9C199.163 37.0331 200.337 36.5996 201.582 36.5996C202.086 36.5996 202.576 36.6687 203.054 36.8065C203.531 36.9445 203.882 37.0792 204.108 37.2106L204.426 37.4075C204.664 37.5653 204.85 37.69 204.982 37.7819C205.327 38.0447 205.499 38.3433 205.499 38.6785C205.499 39.0134 205.36 39.3909 205.082 39.8112C204.604 40.5338 204.147 40.8949 203.71 40.8949C203.458 40.8949 203.1 40.7506 202.636 40.4616C202.398 40.2382 202.056 40.1266 201.612 40.1266C201.168 40.1266 200.754 40.2841 200.37 40.5994C199.985 40.9146 199.793 41.3515 199.793 41.9097Z" fill="white"/>
<path fill-rule="evenodd" clip-rule="evenodd" d="M213.908 36.837C214.16 36.9156 214.369 37.0508 214.535 37.2408C214.7 37.4316 214.783 37.7369 214.783 38.1571C214.783 38.5773 214.657 39.0372 214.406 39.5364C214.154 40.0354 213.789 40.2849 213.312 40.2849C213.074 40.2849 212.845 40.2326 212.626 40.1276C212.408 40.0224 212.119 39.9699 211.761 39.9699C211.404 39.9699 211.069 40.0948 210.758 40.3441C210.446 40.5939 210.29 40.8957 210.29 41.2503V45.3883C210.29 45.6905 210.28 45.9169 210.261 46.068C210.24 46.2193 210.177 46.393 210.071 46.5899C209.873 46.9316 209.356 47.1023 208.521 47.1023C207.885 47.1023 207.427 46.9909 207.149 46.7674C206.937 46.5837 206.817 46.3012 206.791 45.9202V45.3489V38.4329C206.791 38.131 206.801 37.9043 206.821 37.7533C206.841 37.6024 206.897 37.4349 206.99 37.2506C207.175 36.8961 207.692 36.7187 208.541 36.7187C209.336 36.7187 209.833 36.8698 210.032 37.172C210.177 37.3822 210.25 37.5988 210.25 37.8219C210.317 37.7302 210.412 37.6186 210.539 37.4872C210.665 37.356 210.933 37.1786 211.344 36.9551C211.754 36.732 212.116 36.6201 212.427 36.6201C212.739 36.6201 213 36.637 213.213 36.6695C213.425 36.7025 213.657 36.7581 213.908 36.837Z" fill="white"/>
<path fill-rule="evenodd" clip-rule="evenodd" d="M218.462 41.9206C218.462 42.3538 218.634 42.7448 218.979 43.0927C219.323 43.4409 219.741 43.6146 220.231 43.6146C220.721 43.6146 221.129 43.4376 221.454 43.0827C221.779 42.7282 221.94 42.3374 221.94 41.9105C221.94 41.4837 221.785 41.0863 221.473 40.7183C221.162 40.351 220.744 40.1666 220.221 40.1666C219.697 40.1666 219.273 40.351 218.949 40.7183C218.624 41.0863 218.462 41.487 218.462 41.9206ZM222.08 37.822C222.159 37.0867 222.683 36.7188 223.65 36.7188C224.167 36.7188 224.552 36.758 224.803 36.8371C225.055 36.9157 225.231 37.0537 225.331 37.2506C225.43 37.4478 225.49 37.6222 225.509 37.7728C225.529 37.9239 225.539 38.1505 225.539 38.4527V45.349C225.539 45.6509 225.529 45.8775 225.509 46.0284C225.49 46.1797 225.433 46.3536 225.34 46.5505C225.155 46.8923 224.701 47.0629 223.979 47.0629C223.256 47.0629 222.772 46.9741 222.527 46.7971C222.282 46.6196 222.14 46.3604 222.1 46.0186C221.609 46.7152 220.791 47.0629 219.644 47.0629C218.498 47.0629 217.434 46.5441 216.454 45.5065C215.473 44.4688 214.982 43.2635 214.982 41.8909C214.982 40.5185 215.476 39.3164 216.464 38.2852C217.451 37.2542 218.534 36.7382 219.714 36.7382C220.165 36.7382 220.576 36.8173 220.947 36.9748C221.317 37.1326 221.576 37.2803 221.722 37.4183C221.867 37.5561 221.987 37.6908 222.08 37.822Z" fill="white"/>
<path fill-rule="evenodd" clip-rule="evenodd" d="M232.358 43.6338H235.758C236.288 43.6338 236.669 43.6996 236.9 43.8307C237.132 43.9621 237.289 44.1528 237.368 44.4023C237.448 44.6519 237.487 44.9803 237.487 45.3874C237.487 45.7946 237.448 46.1231 237.368 46.3723C237.289 46.622 237.149 46.7962 236.95 46.8947C236.752 46.9931 236.576 47.0522 236.423 47.0719C236.271 47.0914 236.042 47.1014 235.738 47.1014H228.561C228.097 47.1014 227.693 46.9308 227.348 46.5892C227.003 46.2481 226.831 45.8404 226.831 45.3677C226.831 44.8945 227.003 44.4909 227.348 44.1557C227.693 43.8209 228.223 43.3382 228.938 42.7076C229.654 42.0773 230.303 41.5093 230.886 41.0035C231.47 40.498 231.788 40.2187 231.841 40.1659H229.038C228.283 40.1659 227.805 40.0414 227.606 39.7915C227.38 39.5029 227.268 39.1216 227.268 38.6489C227.268 38.1759 227.302 37.8245 227.368 37.5948C227.434 37.3651 227.514 37.1941 227.606 37.0824C227.699 36.971 227.832 36.8824 228.004 36.8166C228.229 36.751 228.574 36.7178 229.038 36.7178H235.499C235.963 36.7178 236.367 36.8824 236.712 37.2107C237.056 37.539 237.229 37.9495 237.229 38.442C237.229 38.9344 237.03 39.3713 236.632 39.7523C236.235 40.1333 234.81 41.4269 232.358 43.6338Z" fill="white"/>
<path fill-rule="evenodd" clip-rule="evenodd" d="M243.432 47.0629C242.093 47.0629 240.983 46.5603 240.102 45.5556C239.22 44.5508 238.779 43.3261 238.779 41.8808V38.4329C238.779 38.1177 238.79 37.888 238.809 37.7435C238.829 37.5989 238.885 37.4283 238.978 37.2311C239.164 36.8767 239.681 36.6992 240.529 36.6992C241.456 36.6992 242 36.9489 242.159 37.4478C242.238 37.658 242.279 37.993 242.279 38.4526V41.9006C242.279 42.4393 242.434 42.8596 242.746 43.1618C243.057 43.4642 243.474 43.6148 243.999 43.6148C244.522 43.6148 244.946 43.4573 245.271 43.142C245.595 42.8268 245.758 42.413 245.758 41.9006V38.4132C245.758 38.1113 245.768 37.8846 245.788 37.7336C245.808 37.5827 245.87 37.4083 245.976 37.2114C246.149 36.8698 246.659 36.6992 247.507 36.6992C248.342 36.6992 248.852 36.8767 249.038 37.2311C249.13 37.4283 249.187 37.6024 249.207 37.7533C249.227 37.9044 249.237 38.131 249.237 38.4329V45.4079C249.237 45.6044 249.232 45.7689 249.223 45.9017C249.219 45.9641 249.237 48.994 249.207 49.428C249.197 49.58 249.124 49.7465 249.018 49.9302C248.819 50.272 248.309 50.4428 247.488 50.4428C246.679 50.4428 246.182 50.2848 245.996 49.9696C245.89 49.7911 245.826 49.5828 245.805 49.3451C245.8 49.2858 245.797 45.8649 245.797 45.8019C245.744 45.8939 245.625 46.0253 245.44 46.1961C245.253 46.3668 245.075 46.5111 244.903 46.6296C244.452 46.9187 243.962 47.0629 243.432 47.0629Z" fill="white"/>
<path fill-rule="evenodd" clip-rule="evenodd" d="M199.614 56.2788C199.614 56.7057 199.783 57.0898 200.121 57.4314C200.459 57.773 200.87 57.9438 201.354 57.9438C201.837 57.9438 202.239 57.7695 202.556 57.4215C202.875 57.0736 203.034 56.6926 203.034 56.2788C203.034 55.865 202.881 55.4778 202.576 55.1162C202.272 54.7551 201.861 54.5743 201.344 54.5743C200.827 54.5743 200.409 54.7516 200.091 55.1062C199.774 55.4613 199.614 55.8521 199.614 56.2788ZM203.153 60.308C202.649 60.9649 201.847 61.2931 200.748 61.2931C199.647 61.2931 198.617 60.7907 197.656 59.7859C196.695 58.781 196.215 57.6089 196.215 56.2688C196.215 54.929 196.698 53.7538 197.666 52.7421C198.633 51.7308 199.694 51.225 200.847 51.225C201.297 51.225 201.708 51.3072 202.079 51.4713C202.45 51.6355 202.706 51.7866 202.845 51.9244C202.984 52.0621 203.093 52.1904 203.173 52.3085C203.213 51.941 203.348 51.6616 203.581 51.4713C203.812 51.2808 204.187 51.1855 204.704 51.1855C205.221 51.1855 205.598 51.225 205.837 51.3036C206.075 51.3825 206.244 51.5174 206.344 51.7075C206.443 51.8982 206.503 52.0655 206.523 52.2099C206.543 52.3548 206.553 52.5779 206.553 52.8798V61.0371C206.553 62.5475 206.023 63.7661 204.962 64.6921C203.902 65.6181 202.709 66.0811 201.384 66.0811C200.376 66.0811 199.415 65.8379 198.501 65.3521C197.586 64.866 197.129 64.4259 197.129 64.032C197.129 63.5198 197.328 63.0667 197.726 62.6724C197.977 62.3964 198.173 62.2061 198.312 62.1011C198.451 61.9959 198.613 61.9434 198.799 61.9434C198.985 61.9434 199.177 62.0222 199.376 62.1798C200.012 62.6656 200.701 62.9088 201.443 62.9088C201.947 62.9088 202.357 62.7118 202.676 62.3179C202.994 61.9236 203.153 61.4509 203.153 60.8991V60.308Z" fill="white"/>
<path fill-rule="evenodd" clip-rule="evenodd" d="M211.325 56.4272C211.325 56.8607 211.497 57.2517 211.842 57.5995C212.186 57.9476 212.604 58.1214 213.094 58.1214C213.584 58.1214 213.992 57.9444 214.317 57.5895C214.641 57.2349 214.804 56.8443 214.804 56.4172C214.804 55.9905 214.648 55.5929 214.337 55.2251C214.025 54.8576 213.607 54.6735 213.084 54.6735C212.56 54.6735 212.136 54.8576 211.812 55.2251C211.487 55.5929 211.325 55.9938 211.325 56.4272ZM214.943 52.3288C215.022 51.5936 215.546 51.2256 216.514 51.2256C217.03 51.2256 217.415 51.2648 217.667 51.3437C217.919 51.4226 218.094 51.5603 218.193 51.7575C218.293 51.9546 218.352 52.1288 218.372 52.2794C218.393 52.4307 218.402 52.6574 218.402 52.9593V59.8556C218.402 60.1578 218.393 60.3844 218.372 60.5352C218.352 60.6863 218.296 60.8604 218.203 61.0574C218.018 61.399 217.564 61.5698 216.841 61.5698C216.119 61.5698 215.635 61.4807 215.39 61.3037C215.145 61.1263 215.003 60.8671 214.963 60.5255C214.472 61.2218 213.654 61.5698 212.507 61.5698C211.361 61.5698 210.297 61.0508 209.316 60.0131C208.335 58.9754 207.846 57.7701 207.846 56.3975C207.846 55.0251 208.339 53.8233 209.327 52.7918C210.314 51.761 211.398 51.2451 212.577 51.2451C213.028 51.2451 213.438 51.324 213.81 51.4815C214.181 51.6394 214.439 51.7872 214.585 51.925C214.731 52.0628 214.85 52.1977 214.943 52.3288Z" fill="white"/>
<path fill-rule="evenodd" clip-rule="evenodd" d="M223.411 52.6038C224.033 51.6714 224.783 51.2051 225.657 51.2051C227.009 51.2051 228.017 51.7764 228.68 52.9193C228.825 52.7221 229 52.5154 229.206 52.2985C229.412 52.0819 229.739 51.845 230.191 51.5892C230.641 51.3331 231.105 51.2051 231.582 51.2051C232.642 51.2051 233.53 51.6089 234.246 52.4166C234.962 53.2246 235.32 54.5612 235.32 56.4263V59.8742C235.32 60.1769 235.309 60.4033 235.289 60.5542C235.27 60.7052 235.207 60.8791 235.101 61.0763C234.929 61.4309 234.418 61.6082 233.57 61.6082C232.735 61.6082 232.225 61.4243 232.039 61.0566C231.947 60.8596 231.89 60.6853 231.87 60.5344C231.85 60.3836 231.841 60.1569 231.841 59.8546V56.4064C231.841 55.264 231.43 54.6924 230.607 54.6924C230.144 54.6924 229.829 54.8435 229.663 55.1456C229.497 55.4479 229.415 55.8745 229.415 56.4263V59.8742C229.415 60.1895 229.405 60.4195 229.385 60.5639C229.365 60.7088 229.302 60.8791 229.196 61.0763C229.01 61.4309 228.493 61.6082 227.645 61.6082C226.81 61.6082 226.3 61.4243 226.115 61.0566C226.022 60.8596 225.966 60.6853 225.946 60.5344C225.926 60.3836 225.916 60.1569 225.916 59.8546V56.4064C225.916 55.264 225.504 54.6924 224.683 54.6924C223.888 54.6924 223.49 55.264 223.49 56.4064V59.894C223.49 60.1964 223.481 60.4228 223.46 60.5738C223.441 60.7249 223.378 60.8989 223.272 61.0958C223.073 61.4376 222.556 61.6082 221.721 61.6082C220.886 61.6082 220.376 61.4309 220.191 61.0763C220.097 60.8791 220.041 60.7088 220.021 60.5639C220.001 60.4195 219.991 60.1895 219.991 59.8742V52.9388C219.991 52.6368 220.001 52.4102 220.021 52.2589C220.041 52.1083 220.104 51.9407 220.21 51.7567C220.409 51.402 220.879 51.2246 221.621 51.2246C222.364 51.2246 222.847 51.3428 223.073 51.5792C223.298 51.8158 223.411 52.1574 223.411 52.6038Z" fill="white"/>
<path fill-rule="evenodd" clip-rule="evenodd" d="M248.381 60.6829C248.129 60.5254 248.004 60.2759 248.004 59.9341C248.004 59.5927 248.255 59.0739 248.759 58.3776C248.905 58.1543 249.14 58.0426 249.465 58.0426C249.789 58.0426 250.23 58.2037 250.786 58.5256C251.344 58.8475 251.847 59.0081 252.298 59.0081C253.106 59.0081 253.511 58.8506 253.511 58.5353C253.511 58.2859 253.066 58.1018 252.179 57.9835C251.344 57.8652 250.515 57.5568 249.694 57.0575C249.309 56.8209 248.991 56.4503 248.739 55.9443C248.487 55.4387 248.361 54.8377 248.361 54.1415C248.361 52.0661 249.799 51.0283 252.676 51.0283C253.617 51.0283 254.584 51.2518 255.578 51.698C256.042 51.9086 256.274 52.1712 256.274 52.4864C256.274 52.8017 256.128 53.1893 255.836 53.649C255.545 54.1087 255.247 54.3384 254.942 54.3384C254.783 54.3384 254.488 54.2398 254.058 54.0427C253.626 53.846 253.159 53.7474 252.656 53.7474C251.873 53.7474 251.482 53.8921 251.482 54.1809C251.482 54.5748 251.933 54.8311 252.835 54.9492C253.709 55.0414 254.558 55.291 255.379 55.6979C255.764 55.882 256.085 56.2004 256.344 56.6536C256.602 57.1064 256.731 57.6751 256.731 58.3581C256.731 59.0411 256.602 59.6222 256.344 60.1016C256.085 60.5814 255.724 60.9389 255.26 61.1755C254.411 61.5827 253.348 61.7863 252.07 61.7863C250.79 61.7863 249.561 61.4186 248.381 60.6829Z" fill="white"/>
<path fill-rule="evenodd" clip-rule="evenodd" d="M242.815 55.7563C243.318 55.7563 243.57 55.5463 243.57 55.1256C243.57 54.8239 243.454 54.5809 243.222 54.3968C242.991 54.213 242.659 54.121 242.229 54.121C241.797 54.121 241.37 54.2951 240.947 54.6432C240.522 54.9914 240.31 55.3624 240.31 55.7563H242.815ZM247.01 55.1751C247.01 55.983 246.807 56.5811 246.403 56.9681C245.999 57.3558 245.551 57.5494 245.061 57.5494H240.35C240.35 57.9174 240.568 58.226 241.006 58.4754C241.443 58.7251 241.88 58.8498 242.318 58.8498C243.086 58.8498 243.689 58.771 244.127 58.6132L244.346 58.5346C244.664 58.3902 244.929 58.3179 245.141 58.3179C245.565 58.3179 245.929 58.6132 246.235 59.2045C246.406 59.5591 246.493 59.8615 246.493 60.1108C246.493 61.2802 245.082 61.8642 242.258 61.8642C241.277 61.8642 240.406 61.6967 239.644 61.362C238.882 61.027 238.289 60.5835 237.864 60.0319C237.03 58.9679 236.612 57.7794 236.612 56.4657C236.612 54.8106 237.152 53.4876 238.232 52.4954C239.312 51.5041 240.66 51.0078 242.278 51.0078C244.12 51.0078 245.472 51.6518 246.333 52.9387C246.785 53.6219 247.01 54.3673 247.01 55.1751Z" fill="white"/>
<path d="M187.691 42.324C187.752 39.7282 187.599 35.2046 185.946 33.3175C185.041 32.2837 182.889 34.0134 181.496 35.3494C179.188 34.2293 176.353 33.6781 172.905 33.6781C169.457 33.6781 166.624 34.2318 164.319 35.3494C162.921 34.0109 160.772 32.2812 159.866 33.3149C158.216 35.1995 158.061 39.7079 158.122 42.3062C157.377 44.3381 157 46.7104 157 49.4205C157 55.1149 158.637 59.3312 161.863 61.9702C164.036 63.743 166.874 64.7641 170.49 65.0714C170.067 65.2822 169.628 65.4879 169.177 65.7191L167.866 66.3591L167.121 66.7223C166.4 67.0982 165.655 67.4309 164.854 67.9211L164.655 68.0253C164.599 68.0659 164.546 68.1345 164.536 68.2107C164.51 68.3555 164.61 68.4926 164.755 68.513C165.484 68.6222 166.206 68.7644 166.945 68.8279L167.496 68.8889C167.677 68.9092 167.861 68.9244 168.047 68.9346L169.154 68.9956C170.635 69.0209 172.127 68.9396 173.606 68.7085C175.083 68.4875 176.534 68.0761 177.929 67.5046C179.316 66.9331 180.645 66.1889 181.846 65.2822C184.227 63.4408 186.099 60.9618 187.214 58.1984C187.622 57.1976 187.925 56.1589 188.144 55.1048C188.586 53.4132 188.81 51.5185 188.81 49.4205C188.81 46.7206 188.433 44.3534 187.693 42.324H187.691Z" fill="#6842FF"/>
<path d="M172.902 59.471C178.997 59.471 183.054 57.7641 183.054 49.4205C183.054 45.4811 182.144 42.8219 180.282 41.2928C178.706 40.0026 176.289 39.3701 172.902 39.3701C169.515 39.3701 167.098 39.9975 165.522 41.2928C163.655 42.8193 162.75 45.4837 162.75 49.4205C162.75 57.7641 166.807 59.471 172.902 59.471Z" fill="white"/>
<path d="M169.664 47.2849C169.664 46.5356 170.163 45.9006 170.849 45.6873C170.472 45.3393 169.967 45.126 169.411 45.126C168.246 45.126 167.292 46.0708 167.292 47.2239V51.4199C167.292 52.5729 168.246 53.5178 169.411 53.5178C170.577 53.5178 171.53 52.5755 171.53 51.4199V48.951C171.472 48.9561 171.413 48.9612 171.354 48.9612C170.418 48.9612 169.661 48.212 169.661 47.2874L169.664 47.2849Z" fill="#6842FF"/>
<path d="M176.57 47.1321C176.57 46.4082 177.034 45.7935 177.684 45.5599C177.327 45.2881 176.881 45.123 176.397 45.123C175.231 45.123 174.277 46.0679 174.277 47.221V51.4169C174.277 52.57 175.231 53.5149 176.397 53.5149C177.562 53.5149 178.516 52.5726 178.516 51.4169V48.7881C178.434 48.8008 178.35 48.8084 178.263 48.8084C177.327 48.8084 176.57 48.0591 176.57 47.1346V47.1321Z" fill="#6842FF"/>
<path fill-rule="evenodd" clip-rule="evenodd" d="M120.089 42.2701C122.785 42.2701 124.979 39.9905 124.979 37.1893C124.979 34.4999 122.739 32.2295 120.089 32.2295C117.439 32.2295 115.199 34.5012 115.199 37.1893C115.199 39.9905 117.392 42.2701 120.089 42.2701Z" fill="white"/>
<path fill-rule="evenodd" clip-rule="evenodd" d="M115.288 44.0533V58.565L110.883 48.8634C112.874 46.3368 113.685 42.7723 113.776 40.2089V38.1067H105.974V40.1301C105.865 42.7105 105.039 43.914 102.764 44.6642V31L94.8277 31.0079V36.8296C91.9352 33.8366 87.9443 32.26 83.2267 32.26C78.0622 32.26 73.7837 34.0745 70.8562 37.5037C69.9684 38.5515 69.2226 39.7149 68.6386 40.9631C66.7202 38.9647 64.0505 38.112 60.8808 38.112H50V66.891H57.2539V60.022H60.8808C64.0402 60.022 66.7098 58.9526 68.6373 56.9292C69.2346 58.2187 70.0068 59.4172 70.9313 60.4898C73.8614 63.8572 78.1127 65.6323 83.2267 65.6323C88.2319 65.6323 92.4236 63.8585 95.3523 60.5003C95.5557 60.2677 95.7487 60.0247 95.9365 59.7803H102.764V52.6394L103.811 52.395L107.179 59.7842H124.891V44.0533H115.288ZM61.1425 52.4371H57.2461V45.5104H61.035C62.0168 45.5104 63.6554 46.1818 63.6554 48.8371C63.6619 50.5464 62.965 52.4371 61.1477 52.4371H61.1425ZM83.1529 60.3387C77.035 60.3387 72.0583 55.166 72.0583 48.8095C72.0583 42.7105 77.1373 37.5562 83.1529 37.5562C89.1684 37.5562 94.2474 42.7105 94.2474 48.8095C94.2474 55.166 89.2707 60.3387 83.1529 60.3387Z" fill="white"/>
<path fill-rule="evenodd" clip-rule="evenodd" d="M83.1518 49.6426C78.2451 49.6426 75.7684 50.5163 74.7412 50.7843C75.5987 54.7903 79.043 57.7951 83.1518 57.7951C87.2606 57.7951 90.7062 54.7903 91.5625 50.7843C90.5404 50.5163 88.0586 49.6426 83.1518 49.6426Z" fill="#009CFF"/>
</svg>
