<svg width="292" height="103" viewBox="0 0 292 103" fill="none" xmlns="http://www.w3.org/2000/svg">
<rect width="292" height="102.768" fill="#1D1D26"/>
<path d="M129.682 73.0156H110.697V81.1315H129.682V73.0156Z" fill="#7E8CAE"/>
<path d="M114.185 73.0156H110.697V81.1315H114.185V73.0156Z" fill="#5A657E"/>
<path d="M138.559 85.3506C138.559 85.834 138.164 86.2295 137.68 86.2295H102.699C102.216 86.2295 101.82 85.834 101.82 85.3506V81.835C101.82 81.3516 102.216 80.9561 102.699 80.9561H137.68C138.164 80.9561 138.559 81.3516 138.559 81.835V85.3506Z" fill="#4E5567"/>
<path d="M105.308 85.3506V81.835C105.308 81.3516 105.704 80.9561 106.187 80.9561H102.699C102.216 80.9561 101.82 81.3516 101.82 81.835V85.3506C101.82 85.834 102.216 86.2295 102.699 86.2295H106.187C105.704 86.2295 105.308 85.834 105.308 85.3506Z" fill="#3B3D44"/>
<path d="M80 71.4348C80 72.4016 80.791 73.1926 81.7578 73.1926H134.523V61.4238H80V71.4348Z" fill="#4E5567"/>
<path d="M83.4879 71.4348V61.4238H80V71.4348C80 72.4016 80.791 73.1926 81.7578 73.1926H85.2457C84.2789 73.1926 83.4879 72.4016 83.4879 71.4348Z" fill="#3B3D44"/>
<path d="M134.523 56.6959C134.523 56.3081 134.838 55.9927 135.226 55.9927H160.379V17.9322C160.379 16.8694 159.509 16 158.447 16H81.9322C80.8694 16 80 16.8694 80 17.9322V61.5995H134.523V56.6959Z" fill="#7E8CAE"/>
<path d="M134.523 56.6957C134.523 56.308 134.838 55.9926 135.226 55.9926H156.514V20.7432C156.514 20.2598 156.119 19.8643 155.635 19.8643H84.7432C84.2598 19.8643 83.8643 20.2598 83.8643 20.7432V56.8559C83.8643 57.3393 84.2598 57.7348 84.7432 57.7348H134.523L134.523 56.6957Z" fill="#EEF6FF"/>
<path d="M120.189 69.9033C121.54 69.9033 122.635 68.8085 122.635 67.458C122.635 66.1075 121.54 65.0127 120.189 65.0127C118.839 65.0127 117.744 66.1075 117.744 67.458C117.744 68.8085 118.839 69.9033 120.189 69.9033Z" fill="#7E8CAE"/>
<path d="M153.189 42.5256C153.189 43.009 152.793 43.4045 152.31 43.4045H124.456C123.973 43.4045 123.577 43.009 123.577 42.5256V29.7432C123.577 29.2598 123.973 28.8643 124.456 28.8643H152.31C152.793 28.8643 153.189 29.2598 153.189 29.7432V42.5256Z" fill="#FFAF10"/>
<path d="M127.065 42.5256V29.7432C127.065 29.2598 127.461 28.8643 127.944 28.8643H124.456C123.973 28.8643 123.577 29.2598 123.577 29.7432V42.5256C123.577 43.009 123.973 43.4045 124.456 43.4045H127.944C127.461 43.4045 127.065 43.009 127.065 42.5256Z" fill="#FF9518"/>
<path d="M132.606 48.458H125.027C124.299 48.458 123.709 47.8679 123.709 47.1396C123.709 46.4114 124.299 45.8213 125.027 45.8213H132.606C133.334 45.8213 133.924 46.4114 133.924 47.1396C133.924 47.8679 133.334 48.458 132.606 48.458Z" fill="#C3DDF4"/>
<path d="M132.606 52.4648H125.027C124.299 52.4648 123.709 51.8747 123.709 51.1465C123.709 50.4182 124.299 49.8281 125.027 49.8281H132.606C133.334 49.8281 133.924 50.4182 133.924 51.1465C133.924 51.8747 133.334 52.4648 132.606 52.4648Z" fill="#C3DDF4"/>
<path d="M141.749 48.458H136.113C135.385 48.458 134.795 47.8679 134.795 47.1396C134.795 46.4114 135.385 45.8213 136.113 45.8213H141.749C142.477 45.8213 143.067 46.4114 143.067 47.1396C143.067 47.8679 142.477 48.458 141.749 48.458Z" fill="#C3DDF4"/>
<path d="M141.749 52.4648H136.113C135.385 52.4648 134.795 51.8747 134.795 51.1465C134.795 50.4182 135.385 49.8281 136.113 49.8281H141.749C142.477 49.8281 143.067 50.4182 143.067 51.1465C143.067 51.8747 142.477 52.4648 141.749 52.4648Z" fill="#C3DDF4"/>
<path d="M152.382 48.458H145.204C144.476 48.458 143.886 47.8679 143.886 47.1396C143.886 46.4114 144.476 45.8213 145.204 45.8213H152.382C153.11 45.8213 153.701 46.4114 153.701 47.1396C153.701 47.8679 153.11 48.458 152.382 48.458Z" fill="#C3DDF4"/>
<path d="M152.382 52.4648H145.204C144.476 52.4648 143.886 51.8747 143.886 51.1465C143.886 50.4182 144.476 49.8281 145.204 49.8281H152.382C153.11 49.8281 153.701 50.4182 153.701 51.1465C153.701 51.8747 153.11 52.4648 152.382 52.4648Z" fill="#C3DDF4"/>
<path d="M143.171 25.7752C143.171 26.2586 142.775 26.6541 142.292 26.6541H140.358C139.875 26.6541 139.479 26.2586 139.479 25.7752V23.8418C139.479 23.3584 139.875 22.9629 140.358 22.9629H142.292C142.775 22.9629 143.171 23.3584 143.171 23.8418V25.7752Z" fill="#EF8318"/>
<path d="M148.092 25.7752C148.092 26.2586 147.696 26.6541 147.213 26.6541H145.279C144.796 26.6541 144.4 26.2586 144.4 25.7752V23.8418C144.4 23.3584 144.796 22.9629 145.279 22.9629H147.213C147.696 22.9629 148.092 23.3584 148.092 23.8418V25.7752Z" fill="#EF8318"/>
<path d="M153.013 25.7752C153.013 26.2586 152.618 26.6541 152.135 26.6541H150.201C149.718 26.6541 149.322 26.2586 149.322 25.7752V23.8418C149.322 23.3584 149.718 22.9629 150.201 22.9629H152.135C152.618 22.9629 153.013 23.3584 153.013 23.8418V25.7752Z" fill="#EF8318"/>
<path d="M113.556 51.4248H111.974C111.246 51.4248 110.655 50.8347 110.655 50.1064C110.655 49.3782 111.246 48.7881 111.974 48.7881H113.556C114.284 48.7881 114.874 49.3782 114.874 50.1064C114.874 50.8347 114.284 51.4248 113.556 51.4248Z" fill="#69CDFF"/>
<path d="M107.579 51.4248H105.997C105.269 51.4248 104.679 50.8347 104.679 50.1064C104.679 49.3782 105.269 48.7881 105.997 48.7881H107.579C108.307 48.7881 108.897 49.3782 108.897 50.1064C108.897 50.8347 108.307 51.4248 107.579 51.4248Z" fill="#69CDFF"/>
<path d="M101.603 51.4248H100.021C99.2924 51.4248 98.7021 50.8347 98.7021 50.1064C98.7021 49.3782 99.2924 48.7881 100.021 48.7881H101.603C102.331 48.7881 102.921 49.3782 102.921 50.1064C102.921 50.8347 102.331 51.4248 101.603 51.4248Z" fill="#69CDFF"/>
<path d="M95.626 51.4248H94.0439C93.3159 51.4248 92.7256 50.8347 92.7256 50.1064C92.7256 49.3782 93.3159 48.7881 94.0439 48.7881H95.626C96.3541 48.7881 96.9443 49.3782 96.9443 50.1064C96.9443 50.8347 96.3542 51.4248 95.626 51.4248Z" fill="#69CDFF"/>
<path d="M118.697 45.9932C117.969 45.9932 117.379 45.4031 117.379 44.6748V43.0928C117.379 42.3647 117.969 41.7744 118.697 41.7744C119.425 41.7744 120.016 42.3647 120.016 43.0928V44.6748C120.016 45.4031 119.425 45.9932 118.697 45.9932Z" fill="#69CDFF"/>
<path d="M118.697 40.0166C117.969 40.0166 117.379 39.4265 117.379 38.6982V37.1162C117.379 36.3881 117.969 35.7979 118.697 35.7979C119.425 35.7979 120.016 36.3881 120.016 37.1162V38.6982C120.016 39.4265 119.425 40.0166 118.697 40.0166Z" fill="#69CDFF"/>
<path d="M118.697 34.04C117.969 34.04 117.379 33.4499 117.379 32.7217V31.1396C117.379 30.4116 117.969 29.8213 118.697 29.8213C119.425 29.8213 120.016 30.4116 120.016 31.1396V32.7217C120.016 33.4499 119.425 34.04 118.697 34.04Z" fill="#69CDFF"/>
<path d="M88.8145 45.9932C88.0864 45.9932 87.4961 45.4031 87.4961 44.6748V43.0928C87.4961 42.3647 88.0864 41.7744 88.8145 41.7744C89.5425 41.7744 90.1328 42.3647 90.1328 43.0928V44.6748C90.1328 45.4031 89.5427 45.9932 88.8145 45.9932Z" fill="#69CDFF"/>
<path d="M88.8145 40.0166C88.0864 40.0166 87.4961 39.4265 87.4961 38.6982V37.1162C87.4961 36.3881 88.0864 35.7979 88.8145 35.7979C89.5425 35.7979 90.1328 36.3881 90.1328 37.1162V38.6982C90.1328 39.4265 89.5427 40.0166 88.8145 40.0166Z" fill="#69CDFF"/>
<path d="M88.8145 34.04C88.0864 34.04 87.4961 33.4499 87.4961 32.7217V31.1396C87.4961 30.4116 88.0864 29.8213 88.8145 29.8213C89.5425 29.8213 90.1328 30.4116 90.1328 31.1396V32.7217C90.1328 33.4499 89.5427 34.04 88.8145 34.04Z" fill="#69CDFF"/>
<path d="M113.556 27.5186H111.974C111.246 27.5186 110.655 26.9285 110.655 26.2002C110.655 25.4719 111.246 24.8818 111.974 24.8818H113.556C114.284 24.8818 114.874 25.4719 114.874 26.2002C114.874 26.9285 114.284 27.5186 113.556 27.5186Z" fill="#69CDFF"/>
<path d="M107.579 27.5186H105.997C105.269 27.5186 104.679 26.9285 104.679 26.2002C104.679 25.4719 105.269 24.8818 105.997 24.8818H107.579C108.307 24.8818 108.897 25.4719 108.897 26.2002C108.897 26.9285 108.307 27.5186 107.579 27.5186Z" fill="#69CDFF"/>
<path d="M101.603 27.5186H100.021C99.2924 27.5186 98.7021 26.9285 98.7021 26.2002C98.7021 25.4719 99.2924 24.8818 100.021 24.8818H101.603C102.331 24.8818 102.921 25.4719 102.921 26.2002C102.921 26.9285 102.331 27.5186 101.603 27.5186Z" fill="#69CDFF"/>
<path d="M95.626 27.5186H94.0439C93.3159 27.5186 92.7256 26.9285 92.7256 26.2002C92.7256 25.4719 93.3159 24.8818 94.0439 24.8818H95.626C96.3541 24.8818 96.9443 25.4719 96.9443 26.2002C96.9443 26.9285 96.3542 27.5186 95.626 27.5186Z" fill="#69CDFF"/>
<path d="M115.183 45.7129C115.183 46.1963 114.787 46.5918 114.304 46.5918H93.21C92.7266 46.5918 92.3311 46.1963 92.3311 45.7129V30.5957C92.3311 30.1123 92.7266 29.7168 93.21 29.7168H114.304C114.787 29.7168 115.183 30.1123 115.183 30.5957V45.7129Z" fill="#5DC1D8"/>
<path d="M95.8191 45.7129V30.5957C95.8191 30.1123 96.2146 29.7168 96.698 29.7168H93.21C92.7266 29.7168 92.3311 30.1123 92.3311 30.5957V45.7129C92.3311 46.1963 92.7266 46.5918 93.21 46.5918H96.698C96.2146 46.5918 95.8191 46.1963 95.8191 45.7129Z" fill="#28A5A5"/>
<path d="M121.158 27.5205C121.158 28.0039 120.763 28.3994 120.279 28.3994H116.588C116.104 28.3994 115.709 28.0039 115.709 27.5205V23.8291C115.709 23.3457 116.104 22.9502 116.588 22.9502H120.279C120.763 22.9502 121.158 23.3457 121.158 23.8291V27.5205Z" fill="#52BBEF"/>
<path d="M91.9785 27.8721C91.9785 28.3555 91.583 28.751 91.0996 28.751H87.4082C86.9248 28.751 86.5293 28.3555 86.5293 27.8721V24.1807C86.5293 23.6973 86.9248 23.3018 87.4082 23.3018H91.0996C91.583 23.3018 91.9785 23.6973 91.9785 24.1807V27.8721Z" fill="#52BBEF"/>
<path d="M121.158 52.1084C121.158 52.5918 120.763 52.9873 120.279 52.9873H116.588C116.104 52.9873 115.709 52.5918 115.709 52.1084V48.417C115.709 47.9336 116.104 47.5381 116.588 47.5381H120.279C120.763 47.5381 121.158 47.9336 121.158 48.417V52.1084Z" fill="#52BBEF"/>
<path d="M91.9785 52.1084C91.9785 52.5918 91.583 52.9873 91.0996 52.9873H87.4082C86.9248 52.9873 86.5293 52.5918 86.5293 52.1084V48.417C86.5293 47.9336 86.9248 47.5381 87.4082 47.5381H91.0996C91.583 47.5381 91.9785 47.9336 91.9785 48.417V52.1084Z" fill="#52BBEF"/>
<path d="M117.646 27.5205V23.8291C117.646 23.3457 118.042 22.9502 118.525 22.9502H116.588C116.104 22.9502 115.709 23.3457 115.709 23.8291V27.5205C115.709 28.0039 116.104 28.3994 116.588 28.3994H118.525C118.042 28.3994 117.646 28.0039 117.646 27.5205Z" fill="#1E99D6"/>
<path d="M88.4668 27.8721V24.1807C88.4668 23.6973 88.8623 23.3018 89.3457 23.3018H87.4082C86.9248 23.3018 86.5293 23.6973 86.5293 24.1807V27.8721C86.5293 28.3555 86.9248 28.751 87.4082 28.751H89.3457C88.8623 28.751 88.4668 28.3555 88.4668 27.8721Z" fill="#1E99D6"/>
<path d="M117.646 52.1084V48.417C117.646 47.9336 118.042 47.5381 118.525 47.5381H116.588C116.104 47.5381 115.709 47.9336 115.709 48.417V52.1084C115.709 52.5918 116.104 52.9873 116.588 52.9873H118.525C118.042 52.9873 117.646 52.5918 117.646 52.1084Z" fill="#1E99D6"/>
<path d="M88.4668 52.1084V48.417C88.4668 47.9336 88.8623 47.5381 89.3457 47.5381H87.4082C86.9248 47.5381 86.5293 47.9336 86.5293 48.417V52.1084C86.5293 52.5918 86.9248 52.9873 87.4082 52.9873H89.3457C88.8623 52.9873 88.4668 52.5918 88.4668 52.1084Z" fill="#1E99D6"/>
<path d="M156.545 70.721C156.518 70.6468 156.52 70.6046 156.524 70.5909C156.524 70.5909 156.535 70.5899 156.545 70.5899C156.565 70.5899 156.6 70.5939 156.653 70.6134L164.054 73.3319V56.6963C164.054 56.2129 163.658 55.8174 163.175 55.8174H135.226C134.742 55.8174 134.347 56.2129 134.347 56.6963V76.876C134.347 77.3594 134.742 77.7549 135.226 77.7549H159.128L156.545 70.721Z" fill="#5DC1D8"/>
<path d="M137.835 76.876V56.6963C137.835 56.2129 138.23 55.8174 138.713 55.8174H135.226C134.742 55.8174 134.347 56.2129 134.347 56.6963V76.876C134.347 77.3594 134.742 77.7549 135.226 77.7549H138.713C138.23 77.7549 137.835 77.3594 137.835 76.876Z" fill="#28A5A5"/>
<circle cx="216" cy="54" r="27" fill="#BA4383"/>
<mask id="mask0_1677_8050" style="mask-type:alpha" maskUnits="userSpaceOnUse" x="189" y="27" width="54" height="54">
<circle cx="216" cy="54" r="27" fill="#FA61B3"/>
</mask>
<g mask="url(#mask0_1677_8050)">
<path d="M191 78.8994C191 81.3847 192.565 83.3994 195.05 83.3994C197.535 83.3994 198.277 82.345 199.55 79.7994C200 78.8994 201.35 75.2995 201.35 75.2995C201.35 75.2995 199.627 72.6682 198.65 70.3495C197.483 67.5823 195.95 61.3496 195.95 61.3496C194.6 64.0496 191 76.4142 191 78.8994Z" fill="#16CF89"/>
<path d="M191 78.8994C191 81.3847 192.565 83.3994 195.05 83.3994C197.535 83.3994 198.277 82.345 199.55 79.7994C200 78.8994 201.35 75.2995 201.35 75.2995C201.35 75.2995 199.627 72.6682 198.65 70.3495C197.483 67.5823 195.95 61.3496 195.95 61.3496C194.6 64.0496 191 76.4142 191 78.8994Z" fill="url(#paint0_linear_1677_8050)"/>
<path d="M195.048 63.5996C195.048 63.5996 195.05 72.5995 200.309 77.9994C200.817 76.72 201.35 75.2995 201.35 75.2995C201.35 75.2995 199.627 72.6682 198.65 70.3495C197.483 67.5823 195.95 61.3496 195.95 61.3496C195.709 61.8302 195.398 62.6169 195.048 63.5996Z" fill="#278050"/>
<path d="M230.599 73.0498C230.599 73.0498 228.078 75.0089 226.099 76.1998C223.834 77.5634 219.349 77.9998 219.349 77.9998C219.349 77.9998 219.137 83.3468 219.349 85.3982C219.562 87.4497 219.799 89.6996 219.799 89.6996C219.799 89.6996 218.622 91.4176 217.999 92.3996C217.129 93.7714 216.649 95.9996 216.649 95.9996L231.949 95.9996C231.949 95.9996 231.939 93.3579 231.499 91.7551C231.238 90.802 230.599 89.3971 230.599 89.3971C230.149 86.5675 229.699 85.2505 229.699 82.9497C229.699 80.6802 230.149 75.7498 230.599 73.0498Z" fill="url(#paint1_linear_1677_8050)"/>
<path d="M230.6 73.5C230.6 73.5 227.178 78.1591 225.2 79.3499C222.934 80.7135 219.35 78 219.35 78C219.35 78 219.239 80.7819 219.257 83.1024C219.261 83.5337 219.261 83.9312 219.27 84.2999C219.27 84.2999 224.75 83.3999 230.009 78.0988C230.024 77.9538 230.039 77.8086 230.054 77.6636C230.212 76.158 230.406 74.6637 230.6 73.5Z" fill="#278050"/>
<path d="M212.148 78.9013C212.148 78.9013 208.098 78.2445 206.298 77.1013C204.499 75.9581 202.699 74.4014 202.699 74.4014C202.699 74.4014 200.638 78.9243 199.999 83.4013C199.549 86.5512 199.999 89.7012 199.999 89.7012C199.999 89.7012 198.822 91.4191 198.199 92.4012C197.328 93.773 196.849 96.0011 196.849 96.0011L212.148 96.0011C212.148 96.0011 212.138 93.3595 211.698 91.7567C211.437 90.8036 210.798 89.3987 210.798 89.3987C209.898 87.0012 210.798 83.4013 210.798 83.4013C210.798 83.4013 211.698 79.8013 212.148 78.9013Z" fill="url(#paint2_linear_1677_8050)"/>
<path d="M212.148 78.9013C212.148 78.9013 208.098 78.2445 206.298 77.1013C204.499 75.9581 202.699 74.4014 202.699 74.4014C202.699 74.4014 202.057 75.8105 201.378 77.8342C201.378 77.8342 201.349 78.4513 204.049 80.7013C206.748 82.9513 210.619 84.3013 210.619 84.3013C210.711 83.7494 210.798 83.4013 210.798 83.4013C210.798 83.4013 211.698 79.8013 212.148 78.9013Z" fill="#278050"/>
<circle cx="20.6998" cy="20.6998" r="20.6998" transform="matrix(-1 -8.74228e-08 -8.74228e-08 1 236.448 42)" fill="url(#paint3_linear_1677_8050)"/>
<rect width="13.0563" height="13.4721" rx="1.41544" transform="matrix(-0.686366 -0.727256 -0.727256 0.686366 216.648 61.3955)" fill="black"/>
<path fill-rule="evenodd" clip-rule="evenodd" d="M214.45 59.0668L211.796 56.2541C211.497 56.1941 211.184 56.1621 210.86 56.1621C208.872 56.1621 207.26 57.3709 207.26 58.8621C207.26 60.3532 208.872 61.5621 210.86 61.5621C212.757 61.5621 214.311 60.4623 214.45 59.0668Z" fill="white"/>
<circle cx="20.6998" cy="20.6998" r="20.6998" transform="matrix(-1 -8.74228e-08 -8.74228e-08 1 236.448 42)" fill="url(#paint4_linear_1677_8050)"/>
<rect width="13.0563" height="13.4721" rx="1.41544" transform="matrix(-0.686366 -0.727256 -0.727256 0.686366 214.849 61.3955)" fill="black"/>
<path fill-rule="evenodd" clip-rule="evenodd" d="M212.65 59.0668L209.996 56.2541C209.698 56.1941 209.384 56.1621 209.061 56.1621C207.072 56.1621 205.461 57.3709 205.461 58.8621C205.461 60.3532 207.072 61.5621 209.061 61.5621C210.957 61.5621 212.511 60.4623 212.65 59.0668Z" fill="white"/>
<path d="M230.599 77.0999C230.239 77.0999 228.499 68.1 227.899 64.5C227.899 64.5 231.349 72.2999 232.399 75.2999L230.599 77.0999Z" fill="#007156"/>
<path d="M232.849 81.5993C234.121 84.1449 236.899 84.7493 238.249 84.2993C239.599 83.8493 241.399 82.9493 241.849 80.2494C242.299 77.5494 241.022 73.4367 239.599 68.0995C237.349 61.7996 236.899 59.5496 235.549 56.8496L227.449 62.6995C228.349 65.8495 231.949 79.7994 232.849 81.5993Z" fill="url(#paint5_linear_1677_8050)"/>
</g>
<path d="M152.961 8.00043L153.424 9.4252H154.922L153.71 10.3057L154.173 11.7305L152.961 10.85L151.749 11.7305L152.212 10.3057L151 9.4252H152.498L152.961 8.00043Z" stroke="#FF9C33" stroke-width="1.78274" stroke-miterlimit="10" stroke-linecap="round" stroke-linejoin="round"/>
<path d="M173.634 27.2675C173.416 27.2675 173.199 27.1846 173.033 27.0186L171.249 25.2344C170.917 24.9027 170.917 24.3648 171.249 24.0331L173.033 22.2489C173.365 21.917 173.903 21.917 174.235 22.2489L176.019 24.0331C176.351 24.3648 176.351 24.9027 176.019 25.2344L174.235 27.0186C174.069 27.1844 173.851 27.2675 173.634 27.2675ZM173.051 24.6337L173.634 25.2164L174.217 24.6337L173.634 24.0511L173.051 24.6337Z" fill="#8282FF"/>
<path d="M53.0206 68.0976C53.0206 66.9818 53.9252 66.0772 55.041 66.0772C53.9252 66.0772 53.0206 65.1726 53.0206 64.0566C53.0206 65.1726 52.1161 66.0772 51.0002 66.0772C52.1161 66.0772 53.0206 66.9818 53.0206 68.0976Z" stroke="#8282FF" stroke-width="1.78274" stroke-miterlimit="10" stroke-linecap="round" stroke-linejoin="round"/>
<path d="M67.4922 35C68.8976 35 70.041 36.1434 70.041 37.5488C70.041 38.9543 68.8976 40.0977 67.4922 40.0977C66.0868 40.0977 64.9434 38.9543 64.9434 37.5488C64.9434 36.1434 66.0868 35 67.4922 35ZM67.4922 38.3984C67.9607 38.3984 68.3418 38.0173 68.3418 37.5488C68.3418 37.0804 67.9607 36.6992 67.4922 36.6992C67.0237 36.6992 66.6426 37.0804 66.6426 37.5488C66.6426 38.0173 67.0237 38.3984 67.4922 38.3984Z" fill="#FFAA66"/>
<path d="M74.4071 81.8301C74.6246 81.8301 74.8419 81.913 75.0079 82.0791L76.7921 83.8632C77.124 84.1949 77.124 84.7329 76.7921 85.0646L75.0079 86.8488C74.6761 87.1806 74.1383 87.1806 73.8064 86.8488L72.0222 85.0646C71.6904 84.7329 71.6904 84.1949 72.0222 83.8632L73.8064 82.0791C73.9723 81.9132 74.1896 81.8301 74.4071 81.8301ZM74.9898 84.4639L74.4071 83.8812L73.8244 84.4639L74.4071 85.0466L74.9898 84.4639Z" fill="#FFAA66"/>
<path d="M160.1 84.8654L155.626 72.4947C155.022 70.8257 156.73 69.2557 158.342 69.9975L170.702 75.683C172.652 76.5798 172.012 79.5 169.866 79.5H166.626C165.679 79.5 164.862 80.1647 164.668 81.0921L163.939 84.593C163.528 86.5664 160.786 86.761 160.1 84.8654Z" fill="#FA61B3"/>
<defs>
<linearGradient id="paint0_linear_1677_8050" x1="194.6" y1="65.8496" x2="193.25" y2="83.3994" gradientUnits="userSpaceOnUse">
<stop stop-color="#1EB67C"/>
<stop offset="1" stop-color="#1FF073"/>
</linearGradient>
<linearGradient id="paint1_linear_1677_8050" x1="224.749" y1="82.4997" x2="224.749" y2="95.9996" gradientUnits="userSpaceOnUse">
<stop stop-color="#14B678"/>
<stop offset="0.8125" stop-color="#1FF073"/>
</linearGradient>
<linearGradient id="paint2_linear_1677_8050" x1="204.499" y1="80.2513" x2="204.499" y2="96.0011" gradientUnits="userSpaceOnUse">
<stop stop-color="#00AB6A"/>
<stop offset="1" stop-color="#1FF073"/>
</linearGradient>
<linearGradient id="paint3_linear_1677_8050" x1="31.9497" y1="1.79998" x2="8.54991" y2="35.0996" gradientUnits="userSpaceOnUse">
<stop offset="0.234375" stop-color="#16CF89"/>
<stop offset="1" stop-color="#14B578"/>
</linearGradient>
<linearGradient id="paint4_linear_1677_8050" x1="35.0996" y1="5.39994" x2="17.0998" y2="40.9496" gradientUnits="userSpaceOnUse">
<stop stop-color="#1FF073"/>
<stop offset="1" stop-color="#04795D"/>
</linearGradient>
<linearGradient id="paint5_linear_1677_8050" x1="230.149" y1="66.7495" x2="239.599" y2="84.2993" gradientUnits="userSpaceOnUse">
<stop stop-color="#0FA866"/>
<stop offset="0.994297" stop-color="#1FF073"/>
<stop offset="0.994397" stop-color="#1EB57C"/>
</linearGradient>
</defs>
</svg>
