<svg width="292" height="103" viewBox="0 0 292 103" fill="none" xmlns="http://www.w3.org/2000/svg">
<rect width="292" height="102.768" fill="#1D1D26"/>
<path d="M125.368 83.9341H108.917V13.3833L125.368 12V83.9341Z" fill="#526877"/>
<path d="M128.134 89.467H106L108.767 83.9336H125.367L128.134 89.467Z" fill="#425969"/>
<path d="M145.011 78.9609C145.228 75.7972 144.853 76.7988 144.364 73.6655C144.155 72.3347 144.271 68.8072 144.802 67.3339C145.973 64.0913 149.193 62.0716 152.639 62.1201C153.577 62.1325 154.475 62.2515 155.309 62.5019C158.223 63.3734 161.236 63.8617 164.278 63.8617C165.144 63.8617 166.006 63.8147 167.016 63.7414V20.3001L125.366 12V83.9341H144.669L145.011 78.9609Z" fill="#AFBDC7"/>
<path d="M155.712 79.783C155.712 79.7345 154.593 82.0918 153.722 83.933H165.632V79.783H155.712Z" fill="#38454F"/>
<path d="M166.868 83.9336H144.67H140.774H125.367L128.134 89.467H135.2H149.383H169.634L166.868 83.9336Z" fill="#677A88"/>
<path d="M167.017 39.667H125.517V42.4337H167.017V39.667Z" fill="#526877"/>
<path d="M125.517 39.6666H118.451V12.582L115.684 12.8144V39.6666H108.917V42.4333H115.684V83.9337H118.451V42.4333H125.517V39.6666Z" fill="#AFBDC7"/>
<path d="M184.424 66.733C183.169 63.2677 179.729 61.1083 176.044 61.1581C175.425 61.1664 174.696 61.3268 173.974 61.5523C170.842 62.5234 167.582 63.0228 164.303 63.0228C161.047 63.0228 157.822 62.4999 154.703 61.5675C153.81 61.3006 152.849 61.1733 151.845 61.1595C148.155 61.1083 144.709 63.2691 143.456 66.7399C142.886 68.3155 142.763 72.092 142.987 73.5155C143.513 76.8687 143.913 75.798 143.68 79.1831L143.258 85.3279C143.258 88.1444 145.542 90.4283 148.359 90.4283C150.611 90.4283 152.597 88.9509 153.245 86.7929C153.245 86.7929 156.455 79.9799 156.455 80.0643H171.483L174.637 86.7929C175.284 88.9509 177.269 90.4283 179.523 90.4283C182.339 90.4283 184.623 88.1444 184.623 85.3279C184.623 85.3279 184.416 82.3164 184.201 79.1845C183.969 75.7994 184.369 76.8687 184.894 73.5155C185.12 72.0893 184.995 68.3114 184.424 66.733Z" fill="#E5EAEE"/>
<path d="M175.167 75.6341C177.459 75.6341 179.317 73.776 179.317 71.484C179.317 69.192 177.459 67.334 175.167 67.334C172.875 67.334 171.017 69.192 171.017 71.484C171.017 73.776 172.875 75.6341 175.167 75.6341Z" fill="#AFBDC7"/>
<path d="M152.869 75.6341C155.161 75.6341 157.019 73.776 157.019 71.484C157.019 69.192 155.161 67.334 152.869 67.334C150.577 67.334 148.719 69.192 148.719 71.484C148.719 73.776 150.577 75.6341 152.869 75.6341Z" fill="#AFBDC7"/>
<path d="M166.868 67.334C166.103 67.334 165.485 67.9523 165.485 68.7173H162.718C162.718 67.9523 162.1 67.334 161.335 67.334C160.57 67.334 159.951 67.9523 159.951 68.7173V70.1007C159.951 70.8657 160.57 71.484 161.335 71.484H166.868C167.633 71.484 168.251 70.8657 168.251 70.1007V68.7173C168.251 67.9537 167.633 67.334 166.868 67.334Z" fill="#AFBDC7"/>
</svg>
