<svg width="292" height="103" viewBox="0 0 292 103" fill="none" xmlns="http://www.w3.org/2000/svg">
<rect width="292" height="102.768" fill="#1D1D26"/>
<path d="M102.731 49.2808C102.153 49.7308 101.415 49.9548 100.508 49.9548C99.8538 49.9548 99.2818 49.8718 98.7928 49.7028C98.3068 49.5358 97.8628 49.2548 97.4648 48.8568L98.5198 47.8048C98.7678 48.0538 99.0618 48.2338 99.4028 48.3428C99.7428 48.4538 100.119 48.5088 100.533 48.5088C101.515 48.5088 102.008 48.1618 102.008 47.4738C102.008 47.1828 101.933 46.9568 101.785 46.7958C101.637 46.6358 101.379 46.5298 101.011 46.4738L100.542 46.4018L100.003 46.3338C99.2908 46.2308 98.7498 46.0018 98.3828 45.6428C97.9838 45.2458 97.7848 44.6988 97.7848 44.0058C97.7848 43.2498 98.0468 42.6382 98.5688 42.1762C99.0928 41.7112 99.7988 41.4802 100.692 41.4802C101.274 41.4802 101.782 41.5542 102.211 41.7082C102.642 41.8612 103.032 42.1092 103.381 42.4522L102.352 43.4698C102.116 43.2448 101.858 43.0928 101.574 43.0148C101.289 42.9372 100.981 42.8972 100.643 42.8972C100.229 42.8972 99.9108 42.9952 99.6888 43.1948C99.4658 43.3938 99.3548 43.6438 99.3548 43.9478C99.3548 44.1658 99.4408 44.3638 99.6118 44.5358C99.7848 44.7108 100.038 44.8228 100.374 44.8698L100.876 44.9388L101.358 45.0098C101.732 45.0648 102.045 45.1438 102.299 45.2448C102.553 45.3438 102.77 45.4828 102.949 45.6548C103.379 46.0598 103.593 46.6498 103.593 47.4248C103.593 48.2138 103.304 48.8308 102.731 49.2808ZM109.719 42.9884V49.8788H108.089V42.9884H105.911V41.5414H111.897V42.9884H109.719ZM115.326 49.8778V41.5409H120.822V42.9879H116.96V44.9548H120.249V46.4018H116.96V48.4308H120.822V49.8778H115.326ZM129.257 49.8778L128.767 48.4008H125.804L125.3 49.8778H123.603L126.636 41.5409H127.911L130.959 49.8778H129.257ZM127.315 43.9998L126.261 47.0278H128.333L127.315 43.9998ZM139.769 49.8778V45.0208L138.189 48.1828H137.089L135.489 45.0208V49.8778H133.859V41.5409H135.469L137.639 46.0478L139.799 41.5409H141.409V49.8778H139.769ZM144.939 41.2842C145.539 41.2842 146.019 41.7702 146.019 42.3782C146.019 42.9952 145.539 43.4748 144.939 43.4748C144.339 43.4748 143.859 42.9952 143.859 42.3782C143.859 41.7702 144.339 41.2842 144.939 41.2842ZM144.939 41.4562C144.459 41.4562 144.069 41.8672 144.069 42.3782C144.069 42.8982 144.459 43.3058 144.939 43.3058C145.429 43.3108 145.819 42.8982 145.819 42.3832C145.819 41.8672 145.429 41.4562 144.939 41.4562ZM144.739 43.0148H144.539V41.7952C144.639 41.7812 144.739 41.7662 144.889 41.7662C145.069 41.7662 145.189 41.8052 145.269 41.8582C145.339 41.9122 145.379 41.9942 145.379 42.1112C145.379 42.2722 145.269 42.3672 145.139 42.4072V42.4162C145.249 42.4352 145.319 42.5332 145.339 42.7122C145.369 42.9022 145.399 42.9762 145.419 43.0148H145.219C145.189 42.9762 145.159 42.8642 145.129 42.7042C145.099 42.5482 145.029 42.4912 144.869 42.4912H144.739V43.0148ZM144.739 42.3382H144.879C145.039 42.3382 145.169 42.2812 145.169 42.1302C145.169 42.0232 145.089 41.9172 144.879 41.9172C144.809 41.9172 144.769 41.9212 144.739 41.9272V42.3382Z" fill="url(#paint0_linear_1677_7977)"/>
<path d="M85.9019 38C81.5309 38 77.9759 41.555 77.9759 45.925C77.9759 45.96 77.9759 45.995 77.9779 46.028L72.8719 53.432C72.0449 53.396 71.2149 53.54 70.4279 53.864C70.0809 54.005 69.7559 54.179 69.4509 54.379L46.4399 44.867C46.0529 43.076 44.8279 41.495 43.0119 40.737C40.0669 39.511 36.6729 40.909 35.4449 43.855C34.2179 46.799 35.6169 50.193 38.5619 51.42C39.9879 52.014 41.5599 52.017 42.9899 51.43C43.3189 51.294 43.6289 51.126 43.9249 50.939L66.9869 60.473C67.3849 62.247 68.6049 63.805 70.4049 64.554C73.3499 65.783 76.7449 64.383 77.9709 61.441C78.2889 60.673 78.4379 59.866 78.4159 59.061L85.7219 53.849C85.7819 53.851 85.8419 53.852 85.9019 53.852C90.2729 53.852 93.8269 50.295 93.8269 45.925C93.8269 41.555 90.2729 38 85.9019 38ZM39.0709 50.199C37.3589 49.486 36.3239 47.823 36.3239 46.073C36.3239 45.501 36.4339 44.922 36.6679 44.364C37.6129 42.091 40.2319 41.012 42.5029 41.958C43.5749 42.404 44.3739 43.222 44.8279 44.199L42.1869 43.107C40.5129 42.41 38.5889 43.202 37.8899 44.877C37.1929 46.553 37.9859 48.479 39.6599 49.176L42.3089 50.27C41.2539 50.655 40.1119 50.635 39.0709 50.199ZM76.7519 60.93C75.8029 63.202 73.1869 64.281 70.9129 63.335C69.8639 62.898 69.0719 62.099 68.6149 61.146L71.1949 62.214C72.8719 62.912 74.7959 62.118 75.4929 60.444C76.1919 58.769 75.3989 56.845 73.7229 56.147L71.0559 55.044C72.0849 54.654 73.2549 54.64 74.3479 55.094C75.4499 55.552 76.3049 56.413 76.7579 57.515C77.2119 58.617 77.2099 59.832 76.7519 60.93ZM85.9019 51.207C82.9909 51.207 80.6219 48.837 80.6219 45.925C80.6219 43.015 82.9909 40.645 85.9019 40.645C88.8129 40.645 91.1829 43.015 91.1829 45.925C91.1829 48.837 88.8129 51.207 85.9019 51.207ZM85.9099 49.883C83.7209 49.883 81.9449 48.108 81.9449 45.917C81.9449 43.726 83.7209 41.949 85.9099 41.949C88.1009 41.949 89.8779 43.726 89.8779 45.917C89.8779 48.108 88.1009 49.883 85.9099 49.883Z" fill="url(#paint1_linear_1677_7977)"/>
<path fill-rule="evenodd" clip-rule="evenodd" d="M233.394 15.0001H182.633C178.518 15.0001 177 16.5185 177 20.6348V70.3044C177 70.7702 177.019 71.2029 177.06 71.6037C177.154 72.5022 177.171 73.3729 178.007 74.3642C178.089 74.4613 178.942 75.0962 178.942 75.0962C179.401 75.3212 179.714 75.4869 180.231 75.6952L205.227 86.1675C206.525 86.7624 207.067 86.9942 208.01 86.9755V86.9757C208.011 86.9757 208.012 86.9757 208.013 86.9757C208.015 86.9757 208.016 86.9757 208.017 86.9757V86.9755C208.96 86.9942 209.502 86.7624 210.8 86.1675L235.795 75.6952C236.313 75.4869 236.626 75.3212 237.085 75.0962C237.085 75.0962 237.938 74.4613 238.02 74.3642C238.855 73.3729 238.873 72.5022 238.967 71.6037C239.008 71.2029 239.027 70.7702 239.027 70.3044V20.6348C239.027 16.5185 237.508 15.0001 233.394 15.0001Z" fill="#2F2D2E"/>
<path d="M229.994 64.9357L229.983 65.0503L229.971 65.1762L229.948 65.2908L229.914 65.4053L229.892 65.5084L229.857 65.6231L229.812 65.7262L229.766 65.8179L229.721 65.9209L229.663 66.0126L229.606 66.1043L229.538 66.196L229.481 66.2876L229.413 66.3677L229.332 66.448L229.264 66.5167L229.173 66.597L229.093 66.6657L229.001 66.7345L228.911 66.791L228.82 66.8597L228.716 66.917L228.614 66.9628L228.512 67.0201L228.397 67.066L228.283 67.1118L228.169 67.1461L228.055 67.1806L227.952 67.2148L227.838 67.2378L227.736 67.2607L227.633 67.2836L227.519 67.3066L227.405 67.318L227.303 67.3295L227.188 67.341L227.063 67.3525L226.949 67.3638H226.835H226.709H226.583H226.47L226.356 67.3525H226.23L226.116 67.341L226.002 67.3295L225.876 67.318L225.763 67.2951L225.649 67.2836L225.534 67.2607L225.42 67.2378L225.306 67.2148L225.192 67.192L225.078 67.1577L224.975 67.1347L224.862 67.1003L224.748 67.066L224.645 67.0201L224.531 66.9857L224.428 66.9515L224.314 66.9056L224.211 66.8597L224.109 66.8138L224.006 66.7573L223.903 66.7115L223.801 66.6541L223.71 66.597L223.607 66.5396L223.516 66.4823L223.424 66.4251L223.333 66.3563L223.242 66.2876L223.15 66.2188L223.059 66.1501L222.979 66.0813L222.888 66.0012L222.957 65.9096L223.036 65.8293L223.105 65.7376L223.185 65.6459L223.254 65.5658L223.322 65.4742L223.402 65.3824L223.47 65.3023L223.55 65.2107L223.618 65.1304L223.698 65.0388L223.766 64.947L223.835 64.8669L223.915 64.7753L223.983 64.6835L224.063 64.6034L224.132 64.5118L224.223 64.5805L224.325 64.6493L224.417 64.718L224.519 64.7868L224.611 64.844L224.713 64.9127L224.804 64.9701L224.907 65.0158L224.998 65.0732L225.101 65.1191L225.204 65.1648L225.306 65.2107L225.409 65.2451L225.512 65.2908L225.626 65.3252L225.74 65.3596L225.842 65.3939L225.957 65.4169L226.071 65.4398L226.184 65.4627L226.31 65.4742L226.424 65.4971H226.538L226.664 65.5084H226.778H226.914L227.04 65.4971L227.154 65.4742L227.257 65.4512L227.359 65.4283L227.451 65.3939L227.53 65.3482L227.622 65.2794L227.69 65.1992L227.736 65.1074L227.77 65.0044L227.782 64.8898V64.8669L227.77 64.7294L227.724 64.6148L227.667 64.5347L227.588 64.4659L227.496 64.3972L227.405 64.3514L227.303 64.3055L227.188 64.2597L227.051 64.2025L226.972 64.1795L226.881 64.1567L226.778 64.1222L226.675 64.0993L226.561 64.0649L226.447 64.042L226.321 64.0077L226.207 63.9848L226.082 63.9504L225.968 63.9275L225.853 63.8932L225.74 63.8702L225.626 63.8358L225.523 63.8015L225.409 63.7785L225.306 63.7441L225.204 63.7098L225.101 63.6754L224.975 63.6295L224.862 63.5836L224.748 63.5379L224.633 63.492L224.531 63.4348L224.417 63.3775L224.325 63.3203L224.223 63.263L224.132 63.1943L224.04 63.137L223.96 63.0681L223.88 62.988L223.801 62.9078L223.732 62.8275L223.664 62.7474L223.607 62.6672L223.55 62.5755L223.493 62.4725L223.447 62.393L223.413 62.3013L223.379 62.1981L223.345 62.1065L223.322 61.9919L223.299 61.8887L223.287 61.7742L223.276 61.6596L223.264 61.5337V61.4076V61.3847V61.2701L223.276 61.1556L223.287 61.0525L223.299 60.9378L223.322 60.8348L223.345 60.7317L223.379 60.6285L223.402 60.5255L223.447 60.4223L223.493 60.3192L223.539 60.2162L223.595 60.113L223.652 60.01L223.721 59.9182L223.789 59.8266L223.869 59.7349L223.949 59.6548L224.029 59.5631L224.12 59.4828L224.2 59.4256L224.291 59.3568L224.382 59.2881L224.473 59.2308L224.576 59.1736L224.679 59.1277L224.781 59.0704L224.884 59.0247L224.998 58.9902L225.112 58.9444L225.215 58.91L225.306 58.887L225.409 58.8642L225.512 58.8413L225.626 58.8184L225.728 58.7954L225.842 58.784L225.957 58.7725L226.071 58.761L226.184 58.7497H226.298H226.424H226.55H226.675L226.8 58.761L226.926 58.7725H227.04L227.166 58.784L227.279 58.8069L227.405 58.8184L227.519 58.8413L227.622 58.8642L227.736 58.887L227.85 58.91L227.952 58.9329L228.067 58.9673L228.169 59.0017L228.272 59.0247L228.386 59.0704L228.489 59.1048L228.591 59.1506L228.694 59.1964L228.808 59.2423L228.911 59.2996L229.001 59.3454L229.105 59.4027L229.207 59.4599L229.298 59.5173L229.401 59.5861L229.492 59.6432L229.584 59.7121L229.675 59.7808L229.766 59.8494L229.698 59.9412L229.64 60.0328L229.572 60.1245L229.504 60.2162L229.436 60.3192L229.378 60.4108L229.309 60.5026L229.241 60.5942L229.184 60.6858L229.116 60.7776L229.047 60.8692L228.99 60.9608L228.922 61.064L228.853 61.1556L228.785 61.2472L228.728 61.3389L228.66 61.4305L228.568 61.3619L228.466 61.3045L228.375 61.2472L228.283 61.1785L228.181 61.1327L228.089 61.0753L227.987 61.0295L227.896 60.9837L227.792 60.9378L227.701 60.8921L227.599 60.8577L227.507 60.8118L227.382 60.7776L227.268 60.7431L227.154 60.7088L227.04 60.6858L226.926 60.663L226.812 60.64L226.698 60.6285L226.583 60.6171L226.481 60.6056H226.367H226.23L226.105 60.6285L225.99 60.6515L225.888 60.6743L225.797 60.7202L225.717 60.766L225.614 60.8577L225.545 60.9608L225.501 61.064L225.489 61.1785V61.2015L225.501 61.3504L225.557 61.4764L225.603 61.5451L225.682 61.6254L225.785 61.6826L225.876 61.7399L225.99 61.7857L226.116 61.8316L226.253 61.8774L226.344 61.9002L226.435 61.9346L226.538 61.9575L226.641 61.9919L226.755 62.0149L226.881 62.0492L227.006 62.0835L227.131 62.118L227.257 62.1409L227.37 62.1753L227.496 62.2096L227.61 62.2325L227.724 62.2669L227.838 62.3013L227.941 62.3356L228.055 62.37L228.158 62.4044L228.26 62.4388L228.386 62.4839L228.5 62.5412L228.614 62.587L228.728 62.6442L228.831 62.7016L228.934 62.7589L229.024 62.8161L229.116 62.8849L229.207 62.9421L229.298 63.0224L229.39 63.1025L229.469 63.1943L229.549 63.2744L229.617 63.3661L229.686 63.4691L229.743 63.5608L229.8 63.664L229.846 63.7556L229.88 63.8586L229.914 63.9618L229.937 64.0649L229.96 64.1795L229.983 64.2942L229.994 64.4087L230.006 64.5347V64.6607V64.6835V64.8097L229.994 64.9357ZM221.995 67.2265H221.881H221.767H221.653H221.539H221.424H221.31H221.197H221.083H220.957H220.843H220.729H220.615H220.5H220.387H220.273H220.159H220.044H219.93H219.816H219.703H219.589H219.474H219.36H219.246H219.132H219.018H218.904H218.79H218.665H218.55H218.436H218.322H218.208H218.094H217.98H217.866H217.752H217.638H217.524H217.41H217.296H217.181H217.068H216.954H216.84H216.725H216.611H216.486H216.372H216.258H216.143H216.03H215.916H215.802H215.687H215.573H215.46V67.1118V66.9972V66.8827V66.7687V66.6541V66.5396V66.4251V66.3106V66.196V66.0813V65.9668V65.8522V65.7376V65.6231V65.5084V65.3939V65.2794V65.1648V65.0617V64.947V64.8325V64.718V64.6034V64.4888V64.3743V64.2597V64.145V64.0305V63.916V63.8015V63.6869V63.5723V63.4578V63.3431V63.2285V63.114V62.9994V62.8849V62.7704V62.6557V62.5412V62.4273V62.3128V62.1981V62.0835V61.969V61.8545V61.7399V61.6254V61.5107V61.3961V61.2816V61.167V61.0525V60.9493V60.8348V60.7202V60.6056V60.4911V60.3765V60.262V60.1473V60.0328V59.9182V59.8037V59.6891V59.5744V59.4599V59.3454V59.2308V59.1163V59.0017V58.887H215.573H215.687H215.802H215.916H216.03H216.143H216.258H216.372H216.486H216.6H216.714H216.828H216.942H217.056H217.159H217.273H217.387H217.501H217.615H217.729H217.843H217.957H218.072H218.185H218.299H218.413H218.528H218.642H218.756H218.87H218.984H219.098H219.212H219.326H219.44H219.554H219.668H219.782H219.896H220.011H220.124H220.238H220.352H220.455H220.569H220.683H220.797H220.912H221.026H221.139H221.253H221.368H221.482H221.596H221.71H221.824H221.938H222.052V59.0017V59.1048V59.2193V59.3339V59.4484V59.5516V59.6662V59.7808V59.8838V59.9984V60.113V60.2162V60.3307V60.4452V60.5598V60.663V60.7776H221.938H221.824H221.71H221.596H221.482H221.368H221.265H221.151H221.037H220.923H220.809H220.695H220.581H220.467H220.352H220.238H220.124H220.011H219.896H219.794H219.68H219.566H219.451H219.337H219.223H219.11H218.995H218.881H218.767H218.653H218.539H218.425H218.322H218.208H218.094H217.98H217.866H217.752H217.638V60.8921V61.0066V61.1211V61.2357V61.3504V61.4535V61.568V61.6826V61.7971V61.9117V62.0262V62.1409H217.752H217.866H217.98H218.094H218.208H218.322H218.436H218.55H218.653H218.767H218.881H218.995H219.11H219.223H219.337H219.451H219.566H219.68H219.794H219.907H220.022H220.136H220.25H220.364H220.478H220.592H220.695H220.809H220.923H221.037H221.151H221.265H221.379H221.493H221.607V62.2554V62.3585V62.4725V62.587V62.6901V62.8046V62.9193V63.0224V63.137V63.2515V63.3661V63.4691V63.5836V63.6983V63.8015V63.916H221.493H221.379H221.265H221.151H221.037H220.923H220.809H220.695H220.592H220.478H220.364H220.25H220.136H220.022H219.907H219.794H219.68H219.566H219.451H219.337H219.223H219.11H218.995H218.881H218.767H218.653H218.55H218.436H218.322H218.208H218.094H217.98H217.866H217.752H217.638V64.0305V64.1567V64.2712V64.3858V64.5118V64.6264V64.7409V64.8669V64.9814V65.0961V65.2221V65.3366H217.752H217.866H217.98H218.094H218.208H218.322H218.436H218.55H218.665H218.79H218.904H219.018H219.132H219.246H219.36H219.474H219.589H219.703H219.816H219.93H220.044H220.159H220.273H220.387H220.5H220.615H220.729H220.843H220.957H221.083H221.197H221.31H221.424H221.539H221.653H221.767H221.881H221.995H222.109V65.4512V65.5543V65.6689V65.7834V65.8981V66.0012V66.1157V66.2302V66.3335V66.448V66.5625V66.6657V66.7796V66.8941V67.0086V67.1118V67.2265H221.995ZM213.661 67.2265H213.548H213.434H213.308H213.194H213.08H212.966H212.851H212.737H212.612H212.498H212.384H212.27H212.156H212.042H211.917H211.802H211.688H211.574V67.1118V66.9972V66.8827V66.7681V66.6528V66.5383V66.4237V66.3091V66.1946V66.08V65.9654V65.8503V65.7357V65.621V65.5065V65.3919V65.2766V65.162V65.0475V64.933V64.8184V64.7039V64.5886V64.4741V64.3595V64.2448V64.1303V64.0157V63.9004V63.7858V63.6713V63.5568V63.4423V63.3277V63.2124V63.0979V62.9833V62.8688V62.7541V62.6389V62.5244V62.4097V62.2951L211.517 62.3867L211.449 62.4906L211.392 62.5823L211.324 62.674L211.266 62.777L211.197 62.8688L211.141 62.9604L211.084 63.0642L211.016 63.1558L210.958 63.2474L210.89 63.3392L210.833 63.4429L210.764 63.5346L210.708 63.6262L210.65 63.7293L210.581 63.8216L210.525 63.9133L210.456 64.0163L210.4 64.1081L210.331 64.1997L210.274 64.3035L210.217 64.3952L210.148 64.4869L210.092 64.59L210.023 64.6823L209.966 64.7739L209.898 64.8656L209.84 64.9686L209.784 65.0609L209.715 65.1527L209.658 65.2558L209.59 65.3474L209.532 65.439L209.464 65.5429L209.407 65.6346H209.362L209.293 65.5314L209.236 65.439L209.168 65.3359L209.11 65.2443L209.042 65.1413L208.985 65.0489L208.917 64.9458L208.86 64.854L208.791 64.751L208.734 64.6594L208.666 64.5555L208.609 64.4639L208.54 64.3607L208.483 64.2691L208.415 64.1653L208.358 64.0737L208.29 63.9706L208.221 63.879L208.164 63.7752L208.095 63.6836L208.038 63.5804L207.97 63.4888L207.913 63.3849L207.845 63.2933L207.787 63.1902L207.719 63.0985L207.662 62.9954L207.593 62.903L207.537 62.8L207.468 62.7083L207.411 62.6051L207.343 62.5136L207.285 62.4097L207.217 62.3181V62.4326V62.5473V62.6619V62.777V62.8917V63.0062V63.1208V63.2354V63.3505V63.4652V63.5683V63.6828V63.7974V63.9119V64.0272V64.1418V64.2563V64.3708V64.4855V64.6001V64.7152V64.8299V64.9445V65.059V65.1736V65.2881V65.4034V65.5179V65.6325V65.747V65.8617V65.9768V66.08V66.1946V66.3091V66.4237V66.5383V66.6528V66.7681V66.8827V66.9972V67.1118V67.2265H207.103H206.989H206.875H206.761H206.647H206.533H206.419H206.305H206.191H206.076H205.962H205.848H205.735H205.62H205.506H205.392H205.278H205.164H205.05V67.1118V66.9972V66.8827V66.7687V66.6541V66.5396V66.4251V66.3106V66.196V66.0813V65.9668V65.8522V65.7376V65.6231V65.5084V65.3939V65.2794V65.1648V65.0617V64.947V64.8325V64.718V64.6034V64.4888V64.3743V64.2597V64.145V64.0305V63.916V63.8015V63.6869V63.5723V63.4578V63.3431V63.2285V63.114V62.9994V62.8849V62.7704V62.6557V62.5412V62.4273V62.3128V62.1981V62.0835V61.969V61.8545V61.7399V61.6254V61.5107V61.3961V61.2816V61.167V61.0525V60.9493V60.8348V60.7202V60.6056V60.4911V60.3765V60.262V60.1473V60.0328V59.9182V59.8037V59.6891V59.5744V59.4599V59.3454V59.2308V59.1163V59.0017V58.887H205.164H205.278H205.381H205.495H205.609H205.723H205.826H205.939H206.054H206.168H206.27H206.384H206.499H206.613H206.715H206.829H206.944H207.058H207.16H207.274H207.388L207.445 58.9788L207.502 59.0818L207.57 59.1728L207.628 59.2759L207.685 59.3675L207.742 59.4708L207.799 59.5617L207.867 59.6649L207.924 59.7565L207.982 59.8482L208.038 59.9505L208.095 60.0423L208.164 60.1453L208.221 60.237L208.278 60.3394L208.335 60.431L208.403 60.5227L208.461 60.6253L208.517 60.7168L208.575 60.8199L208.631 60.9116L208.7 61.014L208.757 61.1058L208.814 61.2088L208.871 61.2998L208.928 61.3914L208.996 61.4945L209.054 61.5863L209.11 61.6894L209.168 61.7804L209.224 61.8835L209.293 61.9751L209.35 62.0775L209.407 62.1692L209.464 62.0775L209.521 61.9751L209.59 61.8835L209.647 61.7804L209.703 61.6894L209.761 61.5863L209.829 61.4945L209.886 61.3914L209.943 61.2998L210 61.2088L210.069 61.1058L210.125 61.014L210.183 60.9116L210.24 60.8199L210.308 60.7168L210.365 60.6253L210.423 60.5227L210.479 60.431L210.537 60.3394L210.604 60.237L210.662 60.1453L210.719 60.0423L210.776 59.9505L210.844 59.8482L210.901 59.7565L210.958 59.6649L211.016 59.5617L211.084 59.4708L211.141 59.3675L211.197 59.2759L211.255 59.1728L211.324 59.0818L211.38 58.9788L211.437 58.887H211.551H211.665H211.768H211.882H211.996H212.11H212.213H212.327H212.441H212.555H212.658H212.772H212.886H213H213.103H213.217H213.331H213.444H213.548H213.661H213.775V59.0017V59.1163V59.2308V59.3454V59.4599V59.5744V59.6891V59.8037V59.9182V60.0328V60.1473V60.262V60.3765V60.4911V60.6056V60.7202V60.8348V60.9493V61.0525V61.167V61.2816V61.3961V61.5107V61.6254V61.7399V61.8545V61.969V62.0835V62.1981V62.3128V62.4273V62.5412V62.6557V62.7704V62.8849V62.9994V63.114V63.2285V63.3431V63.4578V63.5723V63.6869V63.8015V63.916V64.0305V64.145V64.2597V64.3743V64.4888V64.6034V64.718V64.8325V64.947V65.0617V65.1648V65.2794V65.3939V65.5084V65.6231V65.7376V65.8522V65.9668V66.0813V66.196V66.3106V66.4251V66.5396V66.6541V66.7687V66.8827V66.9972V67.1118V67.2265H213.661ZM200.427 63.79L200.393 63.6863L200.348 63.5716L200.302 63.4685L200.268 63.3647L200.223 63.2616L200.177 63.147L200.142 63.0432L200.096 62.9401L200.051 62.8371L200.017 62.7333L199.971 62.6187L199.937 62.5156L199.892 62.4118L199.846 62.3087L199.811 62.2055L199.766 62.0904L199.72 61.9871L199.686 61.8841L199.64 61.7804L199.595 61.6657L199.561 61.562L199.515 61.4589L199.47 61.562L199.436 61.6657L199.39 61.7804L199.344 61.8841L199.31 61.9871L199.264 62.0904L199.218 62.2055L199.173 62.3087L199.139 62.4118L199.093 62.5156L199.047 62.6187L199.013 62.7333L198.968 62.8371L198.922 62.9401L198.888 63.0432L198.842 63.147L198.796 63.2616L198.751 63.3647L198.717 63.4685L198.671 63.5716L198.625 63.6863L198.591 63.79L198.546 63.8932H198.66H198.774H198.888H199.002H199.116H199.23H199.344H199.458H199.561H199.675H199.789H199.903H200.017H200.131H200.245H200.359H200.473L200.427 63.79ZM204.009 67.2265H203.895H203.792H203.679H203.564H203.45H203.336H203.234H203.119H203.005H202.891H202.777H202.663H202.56H202.447H202.333H202.218H202.104H202.002H201.888H201.773L201.728 67.1232L201.694 67.0201L201.648 66.917L201.602 66.8025L201.568 66.7L201.523 66.597L201.477 66.4938L201.443 66.3907L201.397 66.2876L201.351 66.1845L201.317 66.0813L201.272 65.9668L201.226 65.8637L201.192 65.7606L201.146 65.6574H201.032H200.918H200.804H200.69H200.587H200.473H200.359H200.245H200.131H200.017H199.903H199.789H199.675H199.561H199.458H199.344H199.23H199.116H199.002H198.888H198.774H198.66H198.546H198.432H198.329H198.215H198.101H197.986H197.872L197.827 65.7606L197.793 65.8637L197.747 65.9668L197.701 66.0813L197.668 66.1845L197.622 66.2876L197.576 66.3907L197.542 66.4938L197.497 66.597L197.451 66.7L197.416 66.8025L197.371 66.917L197.325 67.0201L197.291 67.1232L197.245 67.2265H197.131H197.017H196.903H196.789H196.675H196.55H196.436H196.322H196.207H196.093H195.98H195.866H195.751H195.637H195.523H195.398H195.283H195.169H195.055H194.942L194.987 67.1232L195.033 67.0201L195.078 66.917L195.124 66.8025L195.158 66.7L195.204 66.597L195.25 66.4938L195.295 66.3907L195.341 66.2876L195.386 66.173L195.432 66.0698L195.477 65.9668L195.512 65.8637L195.558 65.7606L195.603 65.6574L195.649 65.5429L195.694 65.4398L195.74 65.3366L195.785 65.2336L195.831 65.1304L195.866 65.0273L195.911 64.9127L195.957 64.8097L196.002 64.7065L196.047 64.6034L196.093 64.5003L196.139 64.3972L196.184 64.2825L196.219 64.1795L196.265 64.0764L196.31 63.9733L196.356 63.8702L196.401 63.767L196.447 63.6525L196.492 63.5494L196.538 63.4463L196.572 63.3431L196.618 63.2401L196.663 63.137L196.709 63.0224L196.755 62.9193L196.8 62.8161L196.846 62.713L196.892 62.61L196.926 62.5067L196.972 62.4044L197.017 62.2898L197.063 62.1868L197.108 62.0835L197.154 61.9804L197.2 61.8774L197.245 61.7742L197.279 61.6596L197.325 61.5566L197.371 61.4535L197.416 61.3504L197.462 61.2472L197.508 61.1441L197.553 61.0295L197.599 60.9265L197.633 60.8233L197.679 60.7202L197.724 60.6171L197.77 60.514L197.816 60.3995L197.861 60.2963L197.907 60.1932L197.953 60.0901L197.986 59.9871L198.032 59.8838L198.078 59.7693L198.124 59.6662L198.169 59.5631L198.215 59.4599L198.261 59.3568L198.306 59.2538L198.34 59.1392L198.386 59.0361L198.432 58.9329L198.477 58.8298H198.591H198.694H198.808H198.922H199.036H199.139H199.253H199.367H199.481H199.584H199.697H199.811H199.926H200.028H200.142H200.256H200.371H200.473H200.587L200.633 58.9329L200.679 59.0361L200.724 59.1392L200.77 59.2538L200.804 59.3568L200.849 59.4599L200.895 59.5631L200.941 59.6662L200.987 59.7693L201.032 59.8838L201.078 59.9871L201.124 60.0901L201.157 60.1932L201.203 60.2963L201.249 60.3995L201.295 60.514L201.34 60.6171L201.386 60.7202L201.432 60.8233L201.477 60.9265L201.511 61.0295L201.557 61.1441L201.602 61.2472L201.648 61.3504L201.694 61.4535L201.74 61.5566L201.785 61.6596L201.83 61.7742L201.865 61.8774L201.91 61.9804L201.956 62.0835L202.002 62.1868L202.048 62.2898L202.093 62.4044L202.139 62.5067L202.184 62.61L202.218 62.713L202.264 62.8161L202.31 62.9193L202.355 63.0224L202.401 63.137L202.447 63.2401L202.492 63.3431L202.538 63.4463L202.572 63.5494L202.618 63.6525L202.663 63.767L202.709 63.8702L202.755 63.9733L202.8 64.0764L202.845 64.1795L202.891 64.2825L202.926 64.3972L202.971 64.5003L203.017 64.6034L203.062 64.7065L203.108 64.8097L203.153 64.9127L203.199 65.0273L203.245 65.1304L203.279 65.2336L203.325 65.3366L203.371 65.4398L203.416 65.5429L203.461 65.6574L203.507 65.7606L203.553 65.8637L203.598 65.9668L203.633 66.0698L203.679 66.173L203.724 66.2876L203.769 66.3907L203.815 66.4938L203.86 66.597L203.906 66.7L203.952 66.8025L203.987 66.917L204.032 67.0201L204.077 67.1232L204.123 67.2265H204.009ZM194.017 66.1615L193.925 66.2302L193.846 66.2876L193.754 66.3563L193.663 66.4136L193.572 66.4823L193.481 66.5396L193.39 66.597L193.286 66.6541L193.184 66.7115L193.081 66.7687L192.978 66.8138L192.876 66.8712L192.762 66.917L192.66 66.9628L192.545 67.0086L192.443 67.0545L192.34 67.0888L192.237 67.1232L192.135 67.1577L192.021 67.192L191.918 67.2265L191.804 67.2493L191.701 67.2722L191.587 67.2951L191.473 67.318L191.359 67.3295L191.234 67.341L191.12 67.3525L190.994 67.3638L190.88 67.3753L190.754 67.3867H190.629H190.504H190.378H190.264L190.15 67.3753L190.025 67.3638L189.911 67.3525L189.797 67.341L189.682 67.3295L189.568 67.3066L189.454 67.2836L189.352 67.2607L189.237 67.2378L189.135 67.2035L189.021 67.1806L188.918 67.1461L188.816 67.1003L188.713 67.066L188.599 67.0201L188.496 66.9743L188.394 66.9286L188.291 66.8827L188.188 66.8255L188.097 66.7687L187.995 66.7115L187.903 66.6541L187.812 66.597L187.72 66.5281L187.629 66.4595L187.538 66.3907L187.458 66.322L187.379 66.2532L187.299 66.173L187.219 66.1043L187.139 66.0241L187.059 65.9438L186.991 65.8637L186.922 65.7721L186.854 65.6918L186.796 65.6002L186.728 65.5084L186.671 65.4169L186.614 65.3252L186.557 65.2221L186.5 65.1304L186.455 65.0273L186.409 64.9242L186.363 64.821L186.318 64.718L186.284 64.6264L186.238 64.5232L186.215 64.42L186.181 64.317L186.158 64.2025L186.124 64.0993L186.101 63.9848L186.089 63.8817L186.066 63.767L186.055 63.664L186.044 63.5494L186.033 63.4348L186.021 63.3203V63.1943V63.0796V63.0568V62.9421L186.033 62.8161V62.7016L186.044 62.587L186.055 62.461L186.078 62.3471L186.089 62.2325L186.112 62.1294L186.147 62.0149L186.17 61.9002L186.203 61.7971L186.238 61.6826L186.272 61.5795L186.318 61.4649L186.363 61.3619L186.409 61.2587L186.455 61.1556L186.5 61.0525L186.557 60.9493L186.614 60.8577L186.671 60.766L186.728 60.6743L186.786 60.5827L186.854 60.4911L186.922 60.3995L186.991 60.3078L187.059 60.2275L187.139 60.1473L187.208 60.0671L187.287 59.9871L187.367 59.9067L187.447 59.8381L187.538 59.7578L187.618 59.6891L187.709 59.6203L187.801 59.5631L187.892 59.4943L187.983 59.4371L188.074 59.3798L188.177 59.3224L188.28 59.2652L188.382 59.2079L188.485 59.1621L188.588 59.1163L188.702 59.0589L188.793 59.0247L188.907 58.9902L189.01 58.9444L189.112 58.9214L189.214 58.887L189.329 58.8642L189.431 58.8298L189.545 58.8069L189.659 58.7954L189.774 58.7725L189.888 58.761L190.002 58.7497L190.116 58.7382L190.23 58.7267H190.356H190.469H190.595H190.72L190.846 58.7382L190.971 58.7497H191.085L191.199 58.761L191.325 58.784L191.428 58.7954L191.542 58.8184L191.656 58.8413L191.759 58.8642L191.861 58.887L191.964 58.91L192.067 58.9444L192.169 58.9673L192.26 59.0017L192.363 59.0361L192.466 59.0818L192.568 59.1277L192.671 59.1736L192.774 59.2308L192.876 59.2767L192.968 59.3339L193.07 59.3912L193.161 59.4484L193.264 59.5058L193.355 59.5744L193.446 59.6318L193.538 59.7006L193.629 59.7693L193.72 59.8494L193.811 59.9182L193.743 60.01L193.663 60.0901L193.594 60.1817L193.515 60.2733L193.446 60.3651L193.378 60.4452L193.298 60.5368L193.23 60.6285L193.161 60.7088L193.081 60.8005L193.013 60.8921L192.933 60.9837L192.864 61.064L192.796 61.1556L192.716 61.2472L192.648 61.3389L192.568 61.4191L192.5 61.5107L192.408 61.442L192.317 61.3619L192.226 61.3045L192.135 61.2357L192.044 61.1785L191.952 61.1211L191.861 61.064L191.759 61.0066L191.667 60.9608L191.576 60.915L191.484 60.8806L191.382 60.8462L191.279 60.8118L191.176 60.789L191.062 60.766L190.949 60.7431L190.835 60.7317L190.709 60.7202L190.583 60.7088H190.458H190.344L190.23 60.7202L190.127 60.7317L190.013 60.7546L189.911 60.7776L189.808 60.8118L189.705 60.8462L189.603 60.8921L189.5 60.9378L189.409 60.9951L189.318 61.0525L189.226 61.1099L189.146 61.1785L189.066 61.2472L188.987 61.316L188.918 61.3961L188.839 61.4764L188.77 61.568L188.713 61.6482L188.656 61.7399L188.599 61.843L188.542 61.9346L188.496 62.0377L188.462 62.1409L188.417 62.244L188.382 62.3585L188.359 62.4725L188.336 62.5755L188.313 62.7016L188.302 62.8161L188.291 62.9306V63.0568V63.0796V63.1943L188.302 63.3088L188.313 63.4119L188.325 63.5265L188.348 63.6295L188.371 63.7328L188.394 63.8358L188.428 63.9389L188.462 64.0305L188.508 64.145L188.553 64.2483L188.61 64.3514L188.667 64.443L188.725 64.5347L188.793 64.6264L188.861 64.7065L188.941 64.7868L189.01 64.8669L189.089 64.9357L189.181 65.0044L189.272 65.0732L189.363 65.1304L189.454 65.1877L189.557 65.2336L189.659 65.2794L189.762 65.3252L189.876 65.3596L189.99 65.3939L190.105 65.4169L190.219 65.4398L190.333 65.4512L190.458 65.4627H190.583H190.72L190.846 65.4512L190.971 65.4398L191.085 65.4283L191.199 65.4053L191.314 65.3824L191.428 65.3482L191.53 65.3252L191.633 65.2794L191.724 65.2336L191.827 65.1877L191.907 65.1419L191.998 65.0846V64.9701V64.8556V64.7409V64.6264V64.5003V64.3858V64.2712V64.1567V64.042H191.884H191.781H191.667H191.553H191.439H191.336H191.222H191.108H190.994H190.891H190.777H190.664H190.55H190.447H190.333V63.9275V63.8244V63.7098V63.5953V63.4806V63.3775V63.263V63.1484V63.0339V62.9306V62.8161V62.7016V62.587V62.4839V62.37H190.447H190.561H190.675H190.789H190.903H191.017H191.131H191.245H191.359H191.473H191.587H191.701H191.815H191.929H192.044H192.158H192.272H192.385H192.5H192.614H192.728H192.842H192.956H193.07H193.184H193.298H193.412H193.526H193.64H193.754H193.869H193.983H194.097V62.4839V62.5984V62.713V62.8161V62.9306V63.0453V63.1598V63.2744V63.389V63.492V63.6066V63.7213V63.8358V63.9504V64.0649V64.1795V64.2825V64.3972V64.5118V64.6264V64.7409V64.8556V64.9701V65.0732V65.1877V65.3023V65.4169V65.5314V65.6459V65.7492V65.8637V65.9782V66.0928L194.017 66.1615Z" fill="white"/>
<path d="M190.35 40.0182H195.294V36.1945H190.35V28.3882H195.49V24.5644H186.152V52.1611H195.569V48.3372H190.35V40.0182Z" fill="white"/>
<path d="M225.758 40.8464V47.0755C225.758 48.1794 225.248 48.6916 224.189 48.6916H223.404C222.306 48.6916 221.796 48.1794 221.796 47.0755V29.6495C221.796 28.5457 222.306 28.0335 223.404 28.0335H224.111C225.17 28.0335 225.68 28.5457 225.68 29.6495V35.0512H229.799V29.413C229.799 25.9835 228.151 24.3275 224.739 24.3275H222.698C219.285 24.3275 217.598 26.0226 217.598 29.4527V47.2723C217.598 50.7026 219.285 52.3975 222.698 52.3975H224.778C228.191 52.3975 229.878 50.7026 229.878 47.2723V40.8464H225.758Z" fill="white"/>
<path d="M211.18 52.1611H215.378V24.5643H211.18V52.1611Z" fill="white"/>
<path d="M205.089 36.8251C205.089 37.9291 204.58 38.4419 203.52 38.4419H201.794V28.2702H203.52C204.58 28.2702 205.089 28.7826 205.089 29.8863V36.8251ZM204.187 24.5643H197.596V52.1611H201.794V42.1471H204.187C207.6 42.1471 209.287 40.4522 209.287 37.0227V29.6895C209.287 26.2593 207.6 24.5643 204.187 24.5643Z" fill="white"/>
<path fill-rule="evenodd" clip-rule="evenodd" d="M196.055 77.115H220.086L207.82 81.1602L196.055 77.115Z" fill="white"/>
<defs>
<linearGradient id="paint0_linear_1677_7977" x1="2525.16" y1="41.2842" x2="2525.16" y2="908.344" gradientUnits="userSpaceOnUse">
<stop stop-color="#F6F6F6"/>
<stop offset="1" stop-color="#989693"/>
</linearGradient>
<linearGradient id="paint1_linear_1677_7977" x1="2976.34" y1="38" x2="2976.34" y2="2737.99" gradientUnits="userSpaceOnUse">
<stop stop-color="#EFEFEE"/>
<stop offset="1" stop-color="#84827E"/>
</linearGradient>
</defs>
</svg>
