<svg width="292" height="103" viewBox="0 0 292 103" fill="none" xmlns="http://www.w3.org/2000/svg">
<g clip-path="url(#clip0_1642_5068)">
<rect width="292" height="102.768" fill="#1D1D26"/>
<g filter="url(#filter0_f_1642_5068)">
<path d="M176.316 70.0752C162.592 64.9472 160.2 53.0944 165.988 45.2673C173.305 35.3729 173.08 26.343 171.291 20.909C169.058 14.1239 163.196 5.07125 145.332 6.07705C127.423 7.08532 121.414 15.7359 118.396 20.909C108.126 23.8104 100.519 31.0976 99.2116 38.3174C97.9046 45.5372 93.8903 47.5614 90.8095 48.0338C87.7288 48.5061 69.8461 47.6783 63.9646 57.1247C59.2595 64.6819 50.008 63.2179 51.8224 76.4877C46.1001 81.7685 50.2871 85.4147 53.7762 85.4147L242.47 85.4147C240.79 77.5202 226.42 74.7274 220.14 70.0752C214.986 66.2579 217.539 63.4857 216.232 56.8732C214.925 50.2607 209.92 47.5079 205.346 46.5632C200.771 45.6186 201.25 50.3352 201.25 52.5546C201.25 58.0722 190.039 75.2033 176.316 70.0752Z" fill="url(#paint0_linear_1642_5068)" fill-opacity="0.15"/>
</g>
<path d="M171.54 73.029C159.954 68.2234 157.934 57.116 162.821 49.7812C168.998 40.509 168.808 32.0471 167.298 26.9548C165.413 20.5964 160.464 12.1131 145.383 13.0556C130.264 14.0005 125.191 22.1071 122.642 26.9548C113.973 29.6737 107.55 36.5027 106.447 43.2684C105.343 50.0342 101.954 51.9311 99.3534 52.3737C96.7526 52.8163 81.6555 52.0406 76.6902 60.8929C72.718 67.9748 64.9076 66.6029 66.4394 79.0382C61.6085 83.9869 65.1432 87.4038 68.0889 87.4038L227.39 87.4038C225.971 80.0058 213.84 77.3886 208.537 73.029C204.187 69.4517 206.342 66.8539 205.238 60.6573C204.135 54.4606 199.91 51.8809 196.048 50.9956C192.186 50.1104 192.59 54.5304 192.59 56.6102C192.59 61.7808 183.126 77.8346 171.54 73.029Z" fill="url(#paint1_linear_1642_5068)" fill-opacity="0.6"/>
<path d="M55.3633 85.9903C57.9555 82.102 61.7259 78.4494 66.5568 78.2137C66.0854 76.6427 65.6141 72.8173 67.4994 70.0838C69.8559 66.6668 73.5085 65.9598 76.572 64.1925C79.6354 62.4251 77.2789 55.002 84.5841 50.7603C90.4283 47.3669 97.6235 50.2104 100.491 52.0564C100.805 44.2798 104.921 28.3497 118.872 26.8415C124.331 17.5726 139.821 2.21591 158.108 14.9411C180.966 30.8476 156.222 58.3011 155.28 59.5972C154.337 60.8933 151.038 69.1412 159.875 70.0838C161.446 69.2196 165.719 67.7507 170.244 68.7876C175.899 70.0838 181.201 71.9688 183.087 71.0263C184.972 70.0838 191.217 71.2621 191.806 64.1925C192.395 57.1228 188.86 54.6486 191.806 50.7603C194.751 46.872 198.993 48.5217 202.528 52.0564C206.063 55.5911 208.773 68.1986 209.126 70.0838C214.86 70.2016 226.942 73.7127 229.392 86.815" stroke="#5EE1EA" stroke-width="0.215808"/>
<path d="M171.555 68.0855C159.97 63.2799 155.578 57.5891 160.465 50.2543C166.642 40.9821 166.452 32.5202 164.942 27.4279C163.057 21.0695 160.465 13.293 143.419 11.6201C127.448 10.0527 118.303 22.5801 115.755 27.4279C107.085 30.1468 105.194 36.9758 104.09 43.7415C102.987 50.5073 99.598 52.4042 96.9972 52.8468C94.3963 53.2894 86.4361 52.2145 81.4708 61.0669C77.4985 68.1487 81.3394 75.3149 83.7564 78.0128C79.2798 80.4915 79.5267 85.6216 80.2098 87.8769H242.472C241.053 80.4788 230.807 71.7595 220.909 68.0855C215.629 66.1254 208.598 68.0855 207.494 61.8889C206.391 55.6922 199.377 51.1396 195.515 50.2543C191.653 49.3691 189.525 51.9616 190.234 57.0833C190.943 62.205 183.141 72.8911 171.555 68.0855Z" fill="url(#paint2_linear_1642_5068)" fill-opacity="0.73"/>
<path d="M136.24 28.4893C142.681 28.4893 145.825 33.554 145.825 38.8601C140.172 40.5454 136.24 37.3045 135.625 35.2303C135.134 33.571 134.631 30.021 136.24 28.4893Z" fill="#D9D9D9"/>
<path d="M145.036 34.6383C145.036 36.7857 143.742 38.5265 141.855 38.5265C139.968 38.5265 138.674 36.7857 138.674 34.6383C138.674 32.4908 140.088 30.75 141.855 30.75C143.623 30.75 145.036 32.4908 145.036 34.6383Z" fill="#4A36C3"/>
<path d="M142.392 32.8316C142.418 32.8061 142.462 32.8182 142.471 32.8532L142.781 34.0739C142.784 34.0872 142.793 34.0984 142.806 34.1044L143.973 34.6684C144.006 34.6847 144.008 34.7321 143.976 34.7509L142.878 35.3857C142.866 35.3929 142.857 35.4054 142.855 35.4197L142.681 36.6514C142.676 36.6877 142.633 36.7043 142.605 36.6809L141.612 35.854C141.602 35.8455 141.589 35.8417 141.575 35.8438L140.297 36.0424C140.261 36.0481 140.232 36.0117 140.247 35.978L140.735 34.8334C140.741 34.8201 140.74 34.805 140.733 34.7925L140.121 33.6847C140.103 33.6519 140.129 33.6122 140.166 33.6155L141.458 33.7316C141.472 33.7328 141.485 33.7279 141.495 33.7182L142.392 32.8316Z" fill="#2D1D8E"/>
<path d="M153.277 40.5111C155.177 31.2947 160.583 31.9884 162.468 31.792C162.468 38.5081 159.522 40.7468 157.755 41.1002C156.341 41.383 154.338 41.1788 153.277 40.5111Z" fill="#D9D9D9"/>
<mask id="mask0_1642_5068" style="mask-type:alpha" maskUnits="userSpaceOnUse" x="153" y="31" width="10" height="11">
<path d="M153.279 40.5111C153.977 30.8938 160.938 31.6349 162.823 31.4385C162.823 38.1546 159.524 40.7467 157.757 41.1002C156.343 41.383 154.34 41.1788 153.279 40.5111Z" fill="#D9D9D9"/>
</mask>
<g mask="url(#mask0_1642_5068)">
<ellipse cx="158.386" cy="36.5178" rx="2.88085" ry="3.69629" transform="rotate(7.04524 158.386 36.5178)" fill="black"/>
</g>
<path d="M131.799 17.8749C131.765 17.777 131.811 17.6891 131.9 17.6787C131.99 17.6683 132.09 17.7393 132.124 17.8373C132.158 17.9352 132.113 18.0231 132.023 18.0335C131.933 18.0439 131.833 17.9729 131.799 17.8749Z" fill="#FDFFFF"/>
<path d="M135.934 15.3499C135.897 15.2426 135.947 15.1464 136.045 15.135C136.143 15.1236 136.253 15.2013 136.29 15.3086C136.327 15.4159 136.278 15.5122 136.179 15.5236C136.081 15.535 135.971 15.4572 135.934 15.3499Z" fill="#FDFFFF"/>
<path d="M137.244 15.7733C137.194 15.6287 137.261 15.499 137.394 15.4836C137.526 15.4682 137.674 15.573 137.724 15.7176C137.774 15.8623 137.707 15.9919 137.574 16.0073C137.442 16.0227 137.294 15.9179 137.244 15.7733Z" fill="#FDFFFF"/>
<path d="M139.35 14.108C139.327 14.0427 139.357 13.9842 139.417 13.9772C139.477 13.9703 139.544 14.0176 139.567 14.0829C139.589 14.1482 139.559 14.2068 139.499 14.2137C139.439 14.2207 139.372 14.1734 139.35 14.108Z" fill="#FDFFFF"/>
<path d="M141.141 11.6807C141.069 11.4718 141.166 11.2845 141.357 11.2623C141.548 11.2401 141.762 11.3915 141.834 11.6003C141.906 11.8092 141.81 11.9965 141.618 12.0187C141.427 12.0409 141.213 11.8895 141.141 11.6807Z" fill="#FDFFFF"/>
<path d="M142.376 12.078C142.352 12.008 142.385 11.9452 142.449 11.9378C142.513 11.9303 142.584 11.9811 142.609 12.051C142.633 12.121 142.6 12.1838 142.536 12.1912C142.472 12.1986 142.401 12.1479 142.376 12.078Z" fill="#FDFFFF"/>
<path d="M140.178 16.883C140.14 16.7735 140.191 16.6754 140.291 16.6637C140.391 16.6521 140.503 16.7314 140.541 16.8409C140.579 16.9503 140.528 17.0485 140.428 17.0601C140.327 17.0717 140.215 16.9924 140.178 16.883Z" fill="#FDFFFF"/>
<path d="M134.31 18.5888C134.3 18.5599 134.313 18.5341 134.34 18.531C134.366 18.5279 134.396 18.5488 134.406 18.5777C134.416 18.6065 134.402 18.6324 134.376 18.6354C134.35 18.6385 134.32 18.6176 134.31 18.5888Z" fill="#FDFFFF"/>
<path d="M131.982 19.0783C131.942 18.9613 131.996 18.8564 132.103 18.844C132.21 18.8315 132.33 18.9163 132.37 19.0333C132.411 19.1503 132.356 19.2552 132.249 19.2676C132.142 19.28 132.022 19.1953 131.982 19.0783Z" fill="#FDFFFF"/>
<path d="M133.911 17.1417C133.855 16.9795 133.93 16.8341 134.079 16.8168C134.227 16.7996 134.393 16.9171 134.449 17.0793C134.505 17.2416 134.43 17.387 134.282 17.4042C134.133 17.4215 133.967 17.304 133.911 17.1417Z" fill="#FDFFFF"/>
<path d="M135.919 17.3054C135.902 17.2566 135.925 17.2128 135.969 17.2076C136.014 17.2025 136.064 17.2378 136.081 17.2866C136.098 17.3354 136.075 17.3792 136.03 17.3844C135.986 17.3896 135.936 17.3542 135.919 17.3054Z" fill="#FDFFFF"/>
<path d="M133.874 11.905C133.816 11.7363 133.894 11.5851 134.048 11.5671C134.203 11.5492 134.375 11.6714 134.434 11.8401C134.492 12.0088 134.414 12.16 134.259 12.178C134.105 12.1959 133.932 12.0737 133.874 11.905Z" fill="#FDFFFF"/>
<path d="M157.72 16.317C157.638 16.0791 157.748 15.8657 157.966 15.8404C158.184 15.8151 158.427 15.9875 158.509 16.2254C158.592 16.4634 158.481 16.6767 158.263 16.702C158.045 16.7273 157.802 16.5549 157.72 16.317Z" fill="#FDFFFF"/>
<path d="M137.237 11.6628C137.21 11.5839 137.247 11.5131 137.319 11.5047C137.391 11.4963 137.472 11.5535 137.499 11.6324C137.527 11.7114 137.49 11.7822 137.418 11.7906C137.345 11.799 137.265 11.7418 137.237 11.6628Z" fill="#FDFFFF"/>
<path d="M133.857 12.5982C133.832 12.5239 133.866 12.4573 133.934 12.4494C134.002 12.4415 134.078 12.4953 134.104 12.5696C134.13 12.6439 134.095 12.7105 134.027 12.7184C133.959 12.7263 133.883 12.6725 133.857 12.5982Z" fill="#FDFFFF"/>
<path d="M136.36 12.4417C136.336 12.3706 136.369 12.3069 136.434 12.2993C136.499 12.2918 136.572 12.3433 136.596 12.4143C136.621 12.4854 136.588 12.5491 136.523 12.5566C136.458 12.5642 136.385 12.5127 136.36 12.4417Z" fill="#FDFFFF"/>
<path d="M132.694 13.904C132.656 13.7941 132.707 13.6957 132.807 13.684C132.908 13.6723 133.02 13.7519 133.058 13.8617C133.096 13.9715 133.045 14.07 132.945 14.0817C132.844 14.0933 132.732 14.0138 132.694 13.904Z" fill="#FDFFFF"/>
<path d="M148.269 10.8057C148.223 10.6715 148.285 10.5511 148.408 10.5368C148.531 10.5226 148.669 10.6198 148.715 10.754C148.761 10.8883 148.699 11.0086 148.576 11.0229C148.453 11.0371 148.316 10.9399 148.269 10.8057Z" fill="#FDFFFF"/>
<path d="M150.457 10.6825C150.433 10.6132 150.465 10.5511 150.529 10.5438C150.592 10.5364 150.663 10.5866 150.687 10.6558C150.711 10.7251 150.679 10.7872 150.616 10.7946C150.552 10.8019 150.481 10.7518 150.457 10.6825Z" fill="#FDFFFF"/>
<path d="M153.475 12.1949C153.447 12.1138 153.485 12.0411 153.559 12.0325C153.633 12.0238 153.716 12.0826 153.744 12.1637C153.772 12.2448 153.735 12.3175 153.66 12.3261C153.586 12.3348 153.503 12.276 153.475 12.1949Z" fill="#FDFFFF"/>
<path d="M149.91 12.5797C149.877 12.4835 149.921 12.3973 150.009 12.387C150.097 12.3768 150.196 12.4465 150.229 12.5427C150.262 12.6388 150.218 12.7251 150.129 12.7353C150.041 12.7455 149.943 12.6758 149.91 12.5797Z" fill="#FDFFFF"/>
<path d="M147.267 13.6675C147.236 13.5782 147.277 13.498 147.359 13.4885C147.441 13.4791 147.532 13.5438 147.563 13.6331C147.594 13.7225 147.553 13.8026 147.471 13.8121C147.389 13.8216 147.298 13.7569 147.267 13.6675Z" fill="#FDFFFF"/>
<path d="M156.646 17.6172C156.615 17.5275 156.657 17.447 156.739 17.4375C156.821 17.4279 156.913 17.4929 156.944 17.5827C156.975 17.6724 156.933 17.7528 156.851 17.7624C156.769 17.7719 156.677 17.7069 156.646 17.6172Z" fill="#FDFFFF"/>
<path d="M160.173 16.2365C160.135 16.1278 160.185 16.0303 160.285 16.0187C160.385 16.0072 160.496 16.086 160.534 16.1947C160.571 16.3034 160.521 16.401 160.421 16.4125C160.321 16.4241 160.21 16.3453 160.173 16.2365Z" fill="#FDFFFF"/>
<path d="M151.594 18.5056C151.541 18.3528 151.612 18.2157 151.752 18.1994C151.892 18.1832 152.049 18.294 152.102 18.4468C152.154 18.5997 152.084 18.7368 151.944 18.753C151.803 18.7693 151.647 18.6585 151.594 18.5056Z" fill="#FDFFFF"/>
<path d="M150.687 17.0266C150.668 16.9706 150.694 16.9204 150.745 16.9145C150.797 16.9085 150.854 16.9491 150.873 17.0051C150.893 17.0611 150.867 17.1113 150.815 17.1172C150.764 17.1232 150.707 17.0826 150.687 17.0266Z" fill="#FDFFFF"/>
<path d="M155.435 17.4665C155.412 17.4019 155.442 17.344 155.501 17.3371C155.561 17.3302 155.627 17.3771 155.649 17.4416C155.671 17.5062 155.641 17.5642 155.582 17.571C155.523 17.5779 155.457 17.5311 155.435 17.4665Z" fill="#FDFFFF"/>
<path d="M157.711 18.1125C157.684 18.034 157.721 17.9635 157.793 17.9551C157.865 17.9468 157.945 18.0037 157.972 18.0823C157.999 18.1609 157.963 18.2314 157.891 18.2397C157.819 18.2481 157.739 18.1911 157.711 18.1125Z" fill="#FDFFFF"/>
<path d="M135.744 19.1894C135.706 19.093 135.614 19.0558 135.539 19.1063C135.464 19.1567 135.434 19.2758 135.472 19.3723C135.51 19.4687 135.602 19.5059 135.677 19.4555C135.752 19.405 135.782 19.2859 135.744 19.1894Z" fill="#FDFFFF"/>
<path d="M130.962 19.962C130.921 19.8564 130.82 19.8156 130.738 19.8709C130.656 19.9262 130.623 20.0567 130.665 20.1623C130.706 20.2679 130.807 20.3087 130.889 20.2534C130.971 20.1981 131.004 20.0676 130.962 19.962Z" fill="#FDFFFF"/>
<path d="M130.241 21.1354C130.184 20.9931 130.049 20.9381 129.939 21.0127C129.828 21.0872 129.784 21.263 129.84 21.4054C129.896 21.5477 130.031 21.6027 130.142 21.5281C130.252 21.4536 130.297 21.2778 130.241 21.1354Z" fill="#FDFFFF"/>
<path d="M127.559 21.2383C127.534 21.174 127.473 21.1492 127.423 21.1828C127.373 21.2165 127.353 21.2959 127.378 21.3602C127.403 21.4245 127.464 21.4493 127.514 21.4156C127.564 21.382 127.584 21.3026 127.559 21.2383Z" fill="#FDFFFF"/>
<path d="M124.62 20.5593C124.539 20.3537 124.343 20.2743 124.183 20.3819C124.024 20.4896 123.96 20.7435 124.041 20.9491C124.122 21.1546 124.317 21.234 124.477 21.1264C124.637 21.0187 124.701 20.7648 124.62 20.5593Z" fill="#FDFFFF"/>
<path d="M123.94 21.6646C123.913 21.5957 123.847 21.5691 123.794 21.6052C123.74 21.6413 123.719 21.7263 123.746 21.7952C123.773 21.8641 123.838 21.8907 123.892 21.8546C123.945 21.8186 123.967 21.7335 123.94 21.6646Z" fill="#FDFFFF"/>
<path d="M128.736 23.8839C128.694 23.7761 128.591 23.7345 128.508 23.7909C128.424 23.8473 128.39 23.9804 128.433 24.0881C128.475 24.1959 128.578 24.2375 128.661 24.1811C128.745 24.1247 128.779 23.9916 128.736 23.8839Z" fill="#FDFFFF"/>
<path d="M134.302 21.3635C134.291 21.3352 134.264 21.3242 134.242 21.3391C134.22 21.3539 134.211 21.389 134.222 21.4174C134.233 21.4457 134.26 21.4567 134.282 21.4418C134.304 21.427 134.313 21.3919 134.302 21.3635Z" fill="#FDFFFF"/>
<path d="M136.39 20.2216C136.345 20.1065 136.236 20.062 136.146 20.1223C136.057 20.1826 136.021 20.3248 136.066 20.4399C136.112 20.5551 136.221 20.5996 136.311 20.5393C136.4 20.479 136.436 20.3367 136.39 20.2216Z" fill="#FDFFFF"/>
<path d="M133.664 20.0039C133.601 19.8442 133.449 19.7826 133.325 19.8662C133.201 19.9498 133.151 20.147 133.214 20.3066C133.277 20.4663 133.429 20.5279 133.553 20.4443C133.677 20.3607 133.727 20.1635 133.664 20.0039Z" fill="#FDFFFF"/>
<path d="M132.244 21.4362C132.225 21.3881 132.179 21.3696 132.142 21.3948C132.104 21.4199 132.089 21.4792 132.108 21.5273C132.127 21.5753 132.173 21.5939 132.21 21.5687C132.248 21.5436 132.262 21.4842 132.244 21.4362Z" fill="#FDFFFF"/>
<path d="M130.286 16.0038C130.221 15.8378 130.063 15.7736 129.934 15.8606C129.805 15.9475 129.754 16.1525 129.819 16.3186C129.884 16.4846 130.042 16.5487 130.171 16.4617C130.3 16.3748 130.352 16.1698 130.286 16.0038Z" fill="#FDFFFF"/>
<path d="M115.041 34.8643C114.949 34.6302 114.726 34.5397 114.544 34.6624C114.362 34.785 114.289 35.0742 114.382 35.3084C114.474 35.5426 114.696 35.633 114.879 35.5104C115.061 35.3878 115.133 35.0985 115.041 34.8643Z" fill="#FDFFFF"/>
<path d="M127.573 18.0069C127.543 17.9292 127.469 17.8992 127.409 17.9399C127.348 17.9806 127.324 18.0765 127.355 18.1542C127.385 18.2319 127.459 18.2619 127.52 18.2212C127.58 18.1806 127.604 18.0846 127.573 18.0069Z" fill="#FDFFFF"/>
<path d="M130.749 16.52C130.721 16.4469 130.651 16.4186 130.594 16.4569C130.537 16.4952 130.515 16.5855 130.544 16.6586C130.572 16.7317 130.642 16.76 130.699 16.7217C130.755 16.6834 130.778 16.5931 130.749 16.52Z" fill="#FDFFFF"/>
<path d="M128.747 18.0288C128.719 17.9589 128.653 17.9319 128.598 17.9685C128.544 18.0052 128.522 18.0915 128.55 18.1615C128.577 18.2314 128.644 18.2584 128.698 18.2218C128.752 18.1852 128.774 18.0988 128.747 18.0288Z" fill="#FDFFFF"/>
<path d="M132.483 16.7536C132.44 16.6456 132.338 16.6038 132.254 16.6604C132.17 16.717 132.136 16.8505 132.179 16.9586C132.221 17.0667 132.324 17.1084 132.408 17.0518C132.492 16.9952 132.526 16.8617 132.483 16.7536Z" fill="#FDFFFF"/>
<path d="M118.635 24.5308C118.583 24.3987 118.457 24.3477 118.355 24.4169C118.252 24.486 118.211 24.6492 118.263 24.7813C118.315 24.9134 118.441 24.9644 118.543 24.8953C118.646 24.8261 118.687 24.6629 118.635 24.5308Z" fill="#FDFFFF"/>
<path d="M116.895 25.8616C116.868 25.7934 116.804 25.7671 116.751 25.8028C116.698 25.8385 116.676 25.9227 116.703 25.9908C116.73 26.059 116.795 26.0853 116.848 26.0496C116.901 26.0139 116.922 25.9297 116.895 25.8616Z" fill="#FDFFFF"/>
<path d="M115.586 28.9707C115.554 28.8909 115.478 28.8601 115.416 28.9019C115.354 28.9437 115.33 29.0422 115.361 29.1221C115.392 29.2019 115.468 29.2327 115.53 29.1909C115.592 29.1491 115.617 29.0505 115.586 28.9707Z" fill="#FDFFFF"/>
<path d="M118.545 26.946C118.507 26.8513 118.417 26.8148 118.344 26.8644C118.27 26.9139 118.241 27.0308 118.278 27.1255C118.315 27.2201 118.405 27.2567 118.479 27.2071C118.553 27.1576 118.582 27.0406 118.545 26.946Z" fill="#FDFFFF"/>
<path d="M121.259 26.0529C121.224 25.965 121.141 25.931 121.072 25.9771C121.004 26.0231 120.977 26.1317 121.011 26.2197C121.046 26.3076 121.13 26.3416 121.198 26.2955C121.266 26.2495 121.294 26.1408 121.259 26.0529Z" fill="#FDFFFF"/>
<path d="M116.703 35.1522C116.668 35.0638 116.584 35.0297 116.516 35.076C116.447 35.1222 116.42 35.2313 116.455 35.3196C116.489 35.4079 116.573 35.442 116.642 35.3958C116.711 35.3495 116.738 35.2405 116.703 35.1522Z" fill="#FDFFFF"/>
<path d="M113.127 36.3992C113.085 36.2921 112.983 36.2508 112.9 36.3068C112.817 36.3629 112.784 36.4951 112.826 36.6021C112.868 36.7091 112.97 36.7505 113.053 36.6944C113.136 36.6384 113.169 36.5062 113.127 36.3992Z" fill="#FDFFFF"/>
<path d="M121.117 32.5428C121.058 32.3924 120.915 32.3342 120.798 32.413C120.681 32.4918 120.634 32.6777 120.693 32.8281C120.753 32.9786 120.896 33.0367 121.013 32.9579C121.13 32.8791 121.176 32.6933 121.117 32.5428Z" fill="#FDFFFF"/>
<path d="M120.844 30.829C120.823 30.7739 120.77 30.7526 120.727 30.7814C120.685 30.8103 120.667 30.8783 120.689 30.9334C120.711 30.9885 120.763 31.0098 120.806 30.981C120.849 30.9521 120.866 30.8841 120.844 30.829Z" fill="#FDFFFF"/>
<path d="M117.526 34.2497C117.501 34.1861 117.441 34.1616 117.391 34.1948C117.342 34.2281 117.322 34.3067 117.347 34.3702C117.372 34.4338 117.433 34.4584 117.482 34.4251C117.532 34.3918 117.551 34.3133 117.526 34.2497Z" fill="#FDFFFF"/>
<path d="M116.217 36.223C116.187 36.1457 116.113 36.1158 116.053 36.1563C115.993 36.1968 115.969 36.2924 115.999 36.3697C116.03 36.4471 116.103 36.4769 116.164 36.4364C116.224 36.3959 116.248 36.3004 116.217 36.223Z" fill="#FDFFFF"/>
<path d="M83.9741 67.8584C83.9361 67.7619 83.8445 67.7247 83.7696 67.7752C83.6946 67.8257 83.6646 67.9448 83.7027 68.0412C83.7407 68.1376 83.8323 68.1749 83.9072 68.1244C83.9822 68.0739 84.0122 67.9548 83.9741 67.8584Z" fill="#FDFFFF"/>
<path d="M79.1907 68.63C79.1491 68.5244 79.0488 68.4836 78.9666 68.5389C78.8845 68.5942 78.8517 68.7246 78.8934 68.8303C78.935 68.9359 79.0353 68.9767 79.1174 68.9214C79.1995 68.8661 79.2323 68.7356 79.1907 68.63Z" fill="#FDFFFF"/>
<path d="M78.471 69.8034C78.4149 69.6611 78.2797 69.6061 78.169 69.6806C78.0584 69.7552 78.0142 69.931 78.0703 70.0733C78.1264 70.2157 78.2616 70.2706 78.3723 70.1961C78.4829 70.1216 78.5272 69.9458 78.471 69.8034Z" fill="#FDFFFF"/>
<path d="M75.7894 69.9062C75.7641 69.842 75.703 69.8171 75.653 69.8508C75.603 69.8845 75.5831 69.9639 75.6084 70.0281C75.6338 70.0924 75.6948 70.1172 75.7448 70.0836C75.7948 70.0499 75.8147 69.9705 75.7894 69.9062Z" fill="#FDFFFF"/>
<path d="M72.85 69.2282C72.769 69.0226 72.5737 68.9432 72.4139 69.0509C72.254 69.1585 72.1902 69.4124 72.2712 69.618C72.3523 69.8236 72.5475 69.903 72.7074 69.7953C72.8672 69.6877 72.9311 69.4338 72.85 69.2282Z" fill="#FDFFFF"/>
<path d="M72.1701 70.3326C72.143 70.2637 72.0776 70.2371 72.024 70.2732C71.9705 70.3092 71.9491 70.3943 71.9762 70.4632C72.0034 70.5321 72.0688 70.5587 72.1224 70.5226C72.1759 70.4865 72.1973 70.4015 72.1701 70.3326Z" fill="#FDFFFF"/>
<path d="M76.9647 72.5518C76.9222 72.4441 76.8199 72.4025 76.7361 72.4589C76.6524 72.5153 76.6189 72.6484 76.6614 72.7561C76.7039 72.8638 76.8062 72.9054 76.8899 72.849C76.9737 72.7926 77.0072 72.6596 76.9647 72.5518Z" fill="#FDFFFF"/>
<path d="M82.5304 70.0325C82.5192 70.0041 82.4922 69.9931 82.4701 70.008C82.4481 70.0229 82.4393 70.0579 82.4504 70.0863C82.4616 70.1147 82.4886 70.1256 82.5107 70.1108C82.5327 70.0959 82.5416 70.0609 82.5304 70.0325Z" fill="#FDFFFF"/>
<path d="M84.619 68.8905C84.5736 68.7754 84.4642 68.7309 84.3747 68.7912C84.2851 68.8515 84.2494 68.9937 84.2948 69.1089C84.3402 69.224 84.4495 69.2685 84.5391 69.2082C84.6286 69.1479 84.6644 69.0057 84.619 68.8905Z" fill="#FDFFFF"/>
<path d="M81.8941 68.6719C81.8312 68.5122 81.6796 68.4506 81.5554 68.5342C81.4313 68.6178 81.3817 68.8149 81.4446 68.9746C81.5076 69.1342 81.6592 69.1959 81.7833 69.1123C81.9075 69.0287 81.9571 68.8315 81.8941 68.6719Z" fill="#FDFFFF"/>
<path d="M80.474 70.1042C80.4551 70.0561 80.4094 70.0376 80.3721 70.0627C80.3347 70.0879 80.3198 70.1472 80.3388 70.1952C80.3577 70.2433 80.4033 70.2618 80.4407 70.2367C80.478 70.2115 80.4929 70.1522 80.474 70.1042Z" fill="#FDFFFF"/>
<path d="M78.5149 64.6717C78.4495 64.5057 78.2918 64.4416 78.1627 64.5285C78.0336 64.6155 77.9821 64.8205 78.0475 64.9865C78.113 65.1525 78.2706 65.2166 78.3997 65.1297C78.5288 65.0428 78.5804 64.8377 78.5149 64.6717Z" fill="#FDFFFF"/>
<path d="M63.2715 83.5323C63.1792 83.2981 62.9567 83.2077 62.7746 83.3303C62.5926 83.453 62.5198 83.7422 62.6121 83.9764C62.7045 84.2106 62.9269 84.301 63.109 84.1784C63.291 84.0557 63.3638 83.7665 63.2715 83.5323Z" fill="#FDFFFF"/>
<path d="M75.8039 66.6758C75.7733 66.5981 75.6995 66.5681 75.6391 66.6088C75.5787 66.6495 75.5545 66.7455 75.5852 66.8232C75.6158 66.9009 75.6896 66.9309 75.75 66.8902C75.8104 66.8495 75.8346 66.7535 75.8039 66.6758Z" fill="#FDFFFF"/>
<path d="M78.9779 65.188C78.9491 65.1149 78.8796 65.0866 78.8228 65.1249C78.7659 65.1632 78.7432 65.2535 78.772 65.3266C78.8009 65.3997 78.8703 65.4279 78.9271 65.3897C78.984 65.3514 79.0067 65.2611 78.9779 65.188Z" fill="#FDFFFF"/>
<path d="M76.9751 66.6968C76.9475 66.6269 76.8811 66.5999 76.8267 66.6365C76.7724 66.6731 76.7506 66.7595 76.7782 66.8294C76.8058 66.8994 76.8722 66.9264 76.9266 66.8897C76.981 66.8531 77.0027 66.7667 76.9751 66.6968Z" fill="#FDFFFF"/>
<path d="M80.7115 65.4216C80.6689 65.3135 80.5663 65.2718 80.4822 65.3284C80.3982 65.385 80.3646 65.5185 80.4072 65.6266C80.4498 65.7346 80.5525 65.7764 80.6365 65.7198C80.7206 65.6632 80.7541 65.5297 80.7115 65.4216Z" fill="#FDFFFF"/>
<path d="M66.8655 73.1998C66.8134 73.0677 66.688 73.0166 66.5853 73.0858C66.4826 73.155 66.4415 73.3181 66.4936 73.4503C66.5457 73.5824 66.6712 73.6334 66.7739 73.5642C66.8766 73.495 66.9176 73.3319 66.8655 73.1998Z" fill="#FDFFFF"/>
<path d="M65.1237 74.5295C65.0969 74.4614 65.0321 74.435 64.9791 74.4707C64.9261 74.5064 64.9049 74.5906 64.9318 74.6588C64.9587 74.727 65.0234 74.7533 65.0764 74.7176C65.1294 74.6819 65.1506 74.5977 65.1237 74.5295Z" fill="#FDFFFF"/>
<path d="M63.8143 77.6396C63.7828 77.5598 63.707 77.529 63.6449 77.5708C63.5828 77.6126 63.558 77.7112 63.5895 77.791C63.621 77.8708 63.6968 77.9017 63.7589 77.8599C63.8209 77.8181 63.8457 77.7195 63.8143 77.6396Z" fill="#FDFFFF"/>
<path d="M66.7732 75.614C66.7359 75.5193 66.6459 75.4828 66.5723 75.5323C66.4987 75.5819 66.4693 75.6988 66.5067 75.7935C66.544 75.8881 66.6339 75.9247 66.7075 75.8751C66.7811 75.8255 66.8105 75.7086 66.7732 75.614Z" fill="#FDFFFF"/>
<path d="M69.4876 74.7218C69.4529 74.6339 69.3694 74.5999 69.301 74.646C69.2326 74.692 69.2053 74.8007 69.24 74.8886C69.2746 74.9766 69.3582 75.0105 69.4265 74.9645C69.4949 74.9184 69.5223 74.8098 69.4876 74.7218Z" fill="#FDFFFF"/>
<path d="M64.9317 83.8211C64.8969 83.7328 64.813 83.6987 64.7443 83.7449C64.6757 83.7912 64.6482 83.9002 64.6831 83.9885C64.7179 84.0768 64.8017 84.111 64.8704 84.0647C64.9391 84.0185 64.9665 83.9094 64.9317 83.8211Z" fill="#FDFFFF"/>
<path d="M61.3558 85.0671C61.3136 84.9601 61.2119 84.9188 61.1287 84.9748C61.0455 85.0309 61.0123 85.1631 61.0545 85.2701C61.0967 85.3771 61.1983 85.4184 61.2815 85.3624C61.3647 85.3064 61.398 85.1742 61.3558 85.0671Z" fill="#FDFFFF"/>
<path d="M69.3475 81.2118C69.2882 81.0613 69.1452 81.0032 69.0283 81.082C68.9113 81.1608 68.8645 81.3466 68.9238 81.4971C68.9832 81.6476 69.1261 81.7057 69.2431 81.6269C69.3601 81.5481 69.4068 81.3622 69.3475 81.2118Z" fill="#FDFFFF"/>
<path d="M69.0728 79.4969C69.0511 79.4418 68.9988 79.4205 68.9559 79.4494C68.9131 79.4782 68.896 79.5463 68.9177 79.6014C68.9394 79.6565 68.9918 79.6778 69.0346 79.6489C69.0774 79.6201 69.0946 79.552 69.0728 79.4969Z" fill="#FDFFFF"/>
<path d="M65.7547 82.9186C65.7297 82.8551 65.6693 82.8305 65.6198 82.8638C65.5704 82.8971 65.5507 82.9756 65.5757 83.0392C65.6008 83.1028 65.6612 83.1273 65.7106 83.094C65.76 83.0607 65.7798 82.9822 65.7547 82.9186Z" fill="#FDFFFF"/>
<path d="M64.4458 84.891C64.4153 84.8136 64.3418 84.7838 64.2817 84.8243C64.2215 84.8648 64.1975 84.9603 64.228 85.0377C64.2585 85.115 64.332 85.1449 64.3921 85.1044C64.4522 85.0639 64.4763 84.9684 64.4458 84.891Z" fill="#FDFFFF"/>
<path d="M104.931 40.9781C104.867 40.9496 104.847 40.8868 104.885 40.8379C104.923 40.789 105.005 40.7724 105.069 40.8009C105.132 40.8294 105.153 40.8922 105.115 40.9411C105.076 40.99 104.994 41.0066 104.931 40.9781Z" fill="#EEFFFD"/>
<path d="M105.702 37.784C105.632 37.7527 105.61 37.684 105.651 37.6304C105.693 37.5769 105.783 37.5588 105.853 37.59C105.922 37.6212 105.945 37.6899 105.903 37.7435C105.861 37.797 105.771 37.8152 105.702 37.784Z" fill="#EEFFFD"/>
<path d="M106.535 37.3347C106.441 37.2926 106.411 37.2 106.467 37.1278C106.524 37.0556 106.645 37.0312 106.739 37.0732C106.832 37.1153 106.863 37.2079 106.806 37.2801C106.75 37.3523 106.629 37.3768 106.535 37.3347Z" fill="#EEFFFD"/>
<path d="M106.744 35.5329C106.701 35.5139 106.688 35.4721 106.713 35.4395C106.738 35.4069 106.793 35.3958 106.836 35.4148C106.878 35.4338 106.892 35.4757 106.866 35.5083C106.841 35.5409 106.786 35.5519 106.744 35.5329Z" fill="#EEFFFD"/>
<path d="M106.436 33.5352C106.3 33.4744 106.257 33.3406 106.338 33.2364C106.419 33.1321 106.595 33.0968 106.73 33.1576C106.865 33.2183 106.909 33.3521 106.827 33.4564C106.746 33.5606 106.571 33.5959 106.436 33.5352Z" fill="#EEFFFD"/>
<path d="M107.22 33.1111C107.174 33.0908 107.16 33.046 107.187 33.011C107.214 32.9761 107.273 32.9643 107.318 32.9846C107.364 33.005 107.378 33.0498 107.351 33.0847C107.324 33.1197 107.265 33.1315 107.22 33.1111Z" fill="#EEFFFD"/>
<path d="M108.477 36.4049C108.406 36.373 108.384 36.3029 108.426 36.2483C108.469 36.1936 108.561 36.1752 108.631 36.207C108.702 36.2388 108.725 36.3089 108.683 36.3636C108.64 36.4182 108.548 36.4367 108.477 36.4049Z" fill="#EEFFFD"/>
<path d="M106.479 40.0726C106.461 40.0644 106.455 40.0461 106.466 40.0319C106.477 40.0176 106.501 40.0128 106.519 40.0211C106.538 40.0294 106.544 40.0477 106.533 40.0619C106.522 40.0761 106.498 40.0809 106.479 40.0726Z" fill="#EEFFFD"/>
<path d="M105.596 41.4438C105.521 41.4098 105.496 41.3349 105.542 41.2765C105.587 41.2181 105.686 41.1983 105.761 41.2323C105.837 41.2664 105.862 41.3413 105.816 41.3997C105.77 41.4581 105.672 41.4779 105.596 41.4438Z" fill="#EEFFFD"/>
<path d="M105.591 39.6033C105.486 39.5561 105.452 39.4522 105.515 39.3713C105.578 39.2903 105.715 39.2629 105.82 39.3101C105.925 39.3573 105.959 39.4612 105.895 39.5421C105.832 39.6231 105.696 39.6505 105.591 39.6033Z" fill="#EEFFFD"/>
<path d="M106.634 38.6914C106.602 38.6772 106.592 38.646 106.611 38.6216C106.63 38.5972 106.671 38.589 106.703 38.6032C106.734 38.6174 106.744 38.6487 106.725 38.673C106.706 38.6974 106.665 38.7056 106.634 38.6914Z" fill="#EEFFFD"/>
<path d="M103.053 37.2093C102.944 37.1602 102.908 37.0522 102.974 36.968C103.04 36.8837 103.181 36.8553 103.291 36.9043C103.4 36.9534 103.435 37.0614 103.369 37.1456C103.304 37.2298 103.162 37.2583 103.053 37.2093Z" fill="#EEFFFD"/>
<path d="M116.63 27.5246C116.476 27.4554 116.426 27.303 116.519 27.1842C116.611 27.0654 116.811 27.0252 116.965 27.0944C117.119 27.1636 117.169 27.316 117.077 27.4348C116.984 27.5536 116.784 27.5938 116.63 27.5246Z" fill="#EEFFFD"/>
<path d="M104.554 35.4449C104.503 35.4219 104.486 35.3714 104.517 35.332C104.548 35.2925 104.614 35.2792 104.665 35.3022C104.716 35.3251 104.733 35.3757 104.702 35.4151C104.671 35.4545 104.605 35.4679 104.554 35.4449Z" fill="#EEFFFD"/>
<path d="M103.379 37.5366C103.331 37.515 103.315 37.4674 103.344 37.4303C103.373 37.3932 103.435 37.3807 103.483 37.4023C103.531 37.4239 103.547 37.4715 103.518 37.5086C103.489 37.5456 103.427 37.5582 103.379 37.5366Z" fill="#EEFFFD"/>
<path d="M104.506 36.2346C104.46 36.2139 104.445 36.1684 104.473 36.1329C104.501 36.0975 104.56 36.0855 104.606 36.1061C104.652 36.1268 104.667 36.1723 104.639 36.2078C104.612 36.2433 104.552 36.2553 104.506 36.2346Z" fill="#EEFFFD"/>
<path d="M103.447 38.7091C103.376 38.6771 103.353 38.6068 103.396 38.5519C103.438 38.4971 103.531 38.4786 103.602 38.5105C103.673 38.5425 103.696 38.6128 103.653 38.6676C103.61 38.7224 103.518 38.741 103.447 38.7091Z" fill="#EEFFFD"/>
<path d="M109.439 29.629C109.352 29.5899 109.324 29.504 109.376 29.437C109.428 29.37 109.541 29.3473 109.628 29.3863C109.715 29.4254 109.743 29.5114 109.691 29.5784C109.638 29.6454 109.526 29.668 109.439 29.629Z" fill="#EEFFFD"/>
<path d="M110.431 28.4979C110.386 28.4778 110.371 28.4334 110.398 28.3988C110.425 28.3643 110.483 28.3526 110.528 28.3727C110.573 28.3928 110.588 28.4372 110.561 28.4718C110.534 28.5064 110.475 28.5181 110.431 28.4979Z" fill="#EEFFFD"/>
<path d="M112.607 27.7123C112.555 27.6887 112.538 27.6368 112.569 27.5963C112.601 27.5558 112.669 27.5421 112.721 27.5657C112.774 27.5893 112.791 27.6412 112.759 27.6817C112.728 27.7222 112.66 27.7359 112.607 27.7123Z" fill="#EEFFFD"/>
<path d="M111.08 29.6418C111.018 29.6138 110.998 29.5522 111.035 29.5042C111.072 29.4562 111.153 29.4399 111.215 29.4679C111.278 29.4959 111.298 29.5575 111.26 29.6055C111.223 29.6535 111.142 29.6698 111.08 29.6418Z" fill="#EEFFFD"/>
<path d="M110.334 31.4407C110.276 31.4147 110.257 31.3574 110.292 31.3128C110.327 31.2682 110.402 31.2531 110.46 31.2791C110.518 31.3051 110.536 31.3623 110.501 31.4069C110.467 31.4516 110.392 31.4667 110.334 31.4407Z" fill="#EEFFFD"/>
<path d="M116.741 28.6511C116.683 28.625 116.664 28.5675 116.699 28.5227C116.734 28.4779 116.809 28.4628 116.868 28.4889C116.926 28.515 116.944 28.5724 116.909 28.6172C116.875 28.662 116.799 28.6772 116.741 28.6511Z" fill="#EEFFFD"/>
<path d="M117.77 26.2819C117.7 26.2503 117.677 26.1806 117.719 26.1263C117.762 26.072 117.853 26.0537 117.923 26.0853C117.994 26.1169 118.016 26.1866 117.974 26.2409C117.932 26.2952 117.841 26.3135 117.77 26.2819Z" fill="#EEFFFD"/>
<path d="M114.742 31.5425C114.643 31.4981 114.611 31.4002 114.671 31.3238C114.73 31.2475 114.859 31.2217 114.958 31.2662C115.057 31.3106 115.088 31.4085 115.029 31.4849C114.97 31.5612 114.841 31.587 114.742 31.5425Z" fill="#EEFFFD"/>
<path d="M113.594 31.3061C113.558 31.2898 113.546 31.254 113.568 31.226C113.589 31.1981 113.636 31.1886 113.673 31.2049C113.709 31.2212 113.721 31.257 113.699 31.285C113.677 31.3129 113.63 31.3224 113.594 31.3061Z" fill="#EEFFFD"/>
<path d="M116.085 29.1765C116.043 29.1577 116.03 29.1163 116.055 29.0841C116.08 29.0519 116.134 29.0409 116.176 29.0597C116.218 29.0785 116.232 29.1199 116.206 29.1521C116.181 29.1844 116.127 29.1953 116.085 29.1765Z" fill="#EEFFFD"/>
<path d="M117.491 28.3556C117.44 28.3327 117.423 28.2824 117.454 28.2431C117.484 28.2039 117.55 28.1906 117.601 28.2135C117.652 28.2364 117.669 28.2867 117.638 28.3259C117.607 28.3652 117.541 28.3784 117.491 28.3556Z" fill="#EEFFFD"/>
<path d="M79.9624 61.0649C79.9051 61.0139 79.9002 60.9405 79.9515 60.9009C80.0028 60.8613 80.0909 60.8705 80.1482 60.9214C80.2055 60.9724 80.2104 61.0458 80.1591 61.0854C80.1077 61.125 80.0197 61.1158 79.9624 61.0649Z" fill="#EEFFFD"/>
<path d="M81.5637 57.9184C81.501 57.8626 81.4956 57.7822 81.5518 57.7388C81.608 57.6954 81.7045 57.7055 81.7672 57.7613C81.83 57.8171 81.8353 57.8975 81.7791 57.9409C81.7229 57.9842 81.6265 57.9742 81.5637 57.9184Z" fill="#EEFFFD"/>
<path d="M82.5257 57.7123C82.4411 57.6371 82.4339 57.5287 82.5097 57.4703C82.5854 57.4118 82.7154 57.4254 82.8 57.5006C82.8846 57.5758 82.8917 57.6841 82.816 57.7426C82.7402 57.8011 82.6103 57.7875 82.5257 57.7123Z" fill="#EEFFFD"/>
<path d="M83.1995 55.8642C83.1613 55.8302 83.1581 55.7813 83.1923 55.7549C83.2265 55.7285 83.2852 55.7346 83.3234 55.7686C83.3616 55.8025 83.3648 55.8515 83.3306 55.8779C83.2964 55.9043 83.2377 55.8982 83.1995 55.8642Z" fill="#EEFFFD"/>
<path d="M83.3964 53.6404C83.2742 53.5318 83.2638 53.3753 83.3732 53.2908C83.4826 53.2064 83.6703 53.226 83.7925 53.3346C83.9146 53.4432 83.925 53.5997 83.8156 53.6841C83.7062 53.7686 83.5185 53.749 83.3964 53.6404Z" fill="#EEFFFD"/>
<path d="M84.3029 53.4438C84.262 53.4074 84.2585 53.355 84.2952 53.3267C84.3318 53.2984 84.3947 53.305 84.4357 53.3413C84.4766 53.3777 84.4801 53.4302 84.4434 53.4585C84.4068 53.4867 84.3439 53.4802 84.3029 53.4438Z" fill="#EEFFFD"/>
<path d="M84.7409 57.3541C84.6769 57.2972 84.6715 57.2151 84.7288 57.1709C84.7861 57.1266 84.8845 57.1369 84.9485 57.1938C85.0126 57.2507 85.018 57.3327 84.9607 57.377C84.9033 57.4212 84.805 57.411 84.7409 57.3541Z" fill="#EEFFFD"/>
<path d="M81.7712 60.6047C81.7546 60.5899 81.7532 60.5686 81.7681 60.557C81.783 60.5455 81.8086 60.5482 81.8253 60.563C81.842 60.5778 81.8434 60.5992 81.8284 60.6107C81.8135 60.6222 81.7879 60.6196 81.7712 60.6047Z" fill="#EEFFFD"/>
<path d="M80.5234 61.776C80.4549 61.7151 80.4491 61.6275 80.5104 61.5802C80.5717 61.5329 80.6768 61.5439 80.7452 61.6047C80.8137 61.6655 80.8195 61.7532 80.7582 61.8005C80.6969 61.8478 80.5918 61.8368 80.5234 61.776Z" fill="#EEFFFD"/>
<path d="M80.9854 59.8162C80.8905 59.7319 80.8825 59.6103 80.9675 59.5447C81.0524 59.4792 81.1982 59.4944 81.2931 59.5787C81.3879 59.6631 81.396 59.7846 81.311 59.8502C81.2261 59.9158 81.0803 59.9005 80.9854 59.8162Z" fill="#EEFFFD"/>
<path d="M82.2835 59.1866C82.2549 59.1613 82.2525 59.1247 82.2781 59.105C82.3036 59.0852 82.3475 59.0898 82.376 59.1152C82.4046 59.1406 82.407 59.1771 82.3815 59.1969C82.3559 59.2166 82.312 59.212 82.2835 59.1866Z" fill="#EEFFFD"/>
<path d="M79.0132 56.4446C78.9145 56.3569 78.9062 56.2305 78.9945 56.1623C79.0829 56.0941 79.2344 56.1099 79.3331 56.1976C79.4317 56.2853 79.4401 56.4117 79.3518 56.4799C79.2634 56.5481 79.1119 56.5323 79.0132 56.4446Z" fill="#EEFFFD"/>
<path d="M95.3124 50.5648C95.1732 50.441 95.1614 50.2628 95.286 50.1666C95.4107 50.0704 95.6245 50.0927 95.7636 50.2164C95.9028 50.3401 95.9146 50.5184 95.79 50.6146C95.6654 50.7108 95.4516 50.6885 95.3124 50.5648Z" fill="#EEFFFD"/>
<path d="M80.9913 55.0579C80.9451 55.0168 80.9412 54.9577 80.9825 54.9257C81.0239 54.8938 81.0948 54.9012 81.141 54.9423C81.1872 54.9833 81.1911 55.0425 81.1497 55.0744C81.1084 55.1063 81.0374 55.0989 80.9913 55.0579Z" fill="#EEFFFD"/>
<path d="M79.2609 56.9001C79.2175 56.8615 79.2138 56.8059 79.2527 56.7758C79.2916 56.7458 79.3584 56.7528 79.4018 56.7914C79.4452 56.83 79.4489 56.8857 79.41 56.9157C79.3711 56.9457 79.3044 56.9388 79.2609 56.9001Z" fill="#EEFFFD"/>
<path d="M80.7412 55.8819C80.6996 55.8449 80.6961 55.7917 80.7333 55.7629C80.7705 55.7342 80.8344 55.7409 80.8759 55.7778C80.9175 55.8148 80.921 55.868 80.8838 55.8967C80.8466 55.9255 80.7827 55.9188 80.7412 55.8819Z" fill="#EEFFFD"/>
<path d="M79.0329 58.1707C78.9686 58.1136 78.9632 58.0313 79.0207 57.9869C79.0782 57.9425 79.1769 57.9528 79.2411 58.0099C79.3054 58.067 79.3108 58.1493 79.2533 58.1937C79.1958 58.2381 79.0971 58.2278 79.0329 58.1707Z" fill="#EEFFFD"/>
<path d="M87.451 50.4627C87.3725 50.3929 87.3658 50.2924 87.4361 50.2381C87.5064 50.1838 87.627 50.1964 87.7055 50.2662C87.784 50.336 87.7907 50.4366 87.7204 50.4908C87.6501 50.5451 87.5295 50.5325 87.451 50.4627Z" fill="#EEFFFD"/>
<path d="M88.7523 49.5831C88.7118 49.5471 88.7084 49.4952 88.7447 49.4672C88.7809 49.4392 88.8432 49.4457 88.8837 49.4817C88.9242 49.5177 88.9276 49.5696 88.8914 49.5976C88.8551 49.6256 88.7928 49.6191 88.7523 49.5831Z" fill="#EEFFFD"/>
<path d="M91.1685 49.4555C91.1211 49.4133 91.117 49.3525 91.1595 49.3197C91.202 49.287 91.2749 49.2946 91.3223 49.3367C91.3697 49.3789 91.3738 49.4397 91.3313 49.4725C91.2888 49.5052 91.2159 49.4976 91.1685 49.4555Z" fill="#EEFFFD"/>
<path d="M89.12 51.0102C89.0638 50.9602 89.059 50.8882 89.1094 50.8493C89.1598 50.8104 89.2462 50.8194 89.3025 50.8694C89.3587 50.9194 89.3635 50.9915 89.3131 51.0304C89.2627 51.0692 89.1763 51.0602 89.12 51.0102Z" fill="#EEFFFD"/>
<path d="M87.9019 52.6805C87.8497 52.634 87.8452 52.5671 87.892 52.531C87.9388 52.4948 88.0191 52.5032 88.0714 52.5497C88.1237 52.5961 88.1281 52.6631 88.0813 52.6992C88.0345 52.7353 87.9542 52.7269 87.9019 52.6805Z" fill="#EEFFFD"/>
<path d="M95.1372 51.7988C95.0847 51.7522 95.0802 51.6849 95.1272 51.6487C95.1742 51.6124 95.2548 51.6208 95.3073 51.6675C95.3598 51.7141 95.3643 51.7814 95.3173 51.8176C95.2703 51.8539 95.1896 51.8455 95.1372 51.7988Z" fill="#EEFFFD"/>
<path d="M96.7919 49.6154C96.7283 49.5589 96.7229 49.4774 96.7798 49.4334C96.8368 49.3895 96.9345 49.3997 96.9981 49.4562C97.0617 49.5128 97.0671 49.5942 97.0102 49.6382C96.9532 49.6822 96.8555 49.672 96.7919 49.6154Z" fill="#EEFFFD"/>
<path d="M92.3646 54.2225C92.2751 54.143 92.2676 54.0284 92.3476 53.9666C92.4277 53.9048 92.5651 53.9192 92.6545 53.9986C92.7439 54.0781 92.7515 54.1927 92.6714 54.2545C92.5914 54.3163 92.454 54.302 92.3646 54.2225Z" fill="#EEFFFD"/>
<path d="M91.2564 53.5986C91.2237 53.5695 91.2209 53.5275 91.2502 53.5049C91.2795 53.4823 91.3298 53.4875 91.3626 53.5166C91.3953 53.5457 91.3981 53.5877 91.3688 53.6103C91.3395 53.6329 91.2892 53.6277 91.2564 53.5986Z" fill="#EEFFFD"/>
<path d="M94.3364 52.1451C94.2986 52.1115 94.2954 52.0631 94.3293 52.037C94.3631 52.0109 94.4212 52.0169 94.4589 52.0505C94.4967 52.0841 94.4999 52.1325 94.4661 52.1586C94.4323 52.1847 94.3742 52.1787 94.3364 52.1451Z" fill="#EEFFFD"/>
<path d="M95.9787 51.7295C95.9327 51.6887 95.9288 51.6298 95.9699 51.598C96.0111 51.5662 96.0817 51.5736 96.1277 51.6145C96.1737 51.6554 96.1776 51.7142 96.1364 51.746C96.0952 51.7778 96.0246 51.7704 95.9787 51.7295Z" fill="#EEFFFD"/>
<path d="M209.775 72.81C209.794 72.7333 209.861 72.7008 209.924 72.7373C209.988 72.7739 210.023 72.8656 210.004 72.9423C209.984 73.0189 209.917 73.0514 209.854 73.0149C209.791 72.9784 209.755 72.8866 209.775 72.81Z" fill="#EEFFFD"/>
<path d="M213.557 73.2324C213.578 73.1485 213.651 73.1128 213.721 73.1528C213.79 73.1929 213.829 73.2933 213.808 73.3773C213.787 73.4612 213.713 73.4969 213.644 73.4569C213.575 73.4168 213.536 73.3164 213.557 73.2324Z" fill="#EEFFFD"/>
<path d="M214.239 74.1184C214.267 74.0053 214.366 73.9573 214.46 74.0112C214.553 74.0651 214.606 74.2006 214.577 74.3137C214.549 74.4268 214.45 74.4748 214.356 74.4209C214.263 74.367 214.21 74.2315 214.239 74.1184Z" fill="#EEFFFD"/>
<path d="M216.326 74.0976C216.339 74.0465 216.383 74.0248 216.425 74.0492C216.468 74.0735 216.491 74.1347 216.478 74.1858C216.466 74.2369 216.421 74.2586 216.379 74.2342C216.336 74.2099 216.313 74.1487 216.326 74.0976Z" fill="#EEFFFD"/>
<path d="M218.529 73.4573C218.571 73.2938 218.714 73.2245 218.849 73.3024C218.984 73.3803 219.059 73.5759 219.018 73.7393C218.977 73.9027 218.834 73.972 218.699 73.8941C218.564 73.8163 218.488 73.6207 218.529 73.4573Z" fill="#EEFFFD"/>
<path d="M219.172 74.2927C219.186 74.238 219.234 74.2147 219.279 74.2408C219.324 74.2669 219.349 74.3325 219.336 74.3872C219.322 74.4419 219.274 74.4652 219.229 74.4391C219.183 74.413 219.158 74.3475 219.172 74.2927Z" fill="#EEFFFD"/>
<path d="M215.689 76.2059C215.711 76.1203 215.786 76.084 215.857 76.1248C215.927 76.1656 215.967 76.2681 215.945 76.3537C215.924 76.4394 215.849 76.4757 215.778 76.4349C215.707 76.3941 215.668 76.2916 215.689 76.2059Z" fill="#EEFFFD"/>
<path d="M211.119 74.4524C211.125 74.4301 211.144 74.4207 211.163 74.4313C211.181 74.4419 211.192 74.4686 211.186 74.4909C211.18 74.5132 211.161 74.5226 211.142 74.512C211.124 74.5014 211.114 74.4747 211.119 74.4524Z" fill="#EEFFFD"/>
<path d="M209.381 73.6392C209.405 73.5477 209.485 73.5088 209.56 73.5525C209.636 73.5961 209.678 73.7056 209.655 73.7972C209.632 73.8887 209.552 73.9275 209.476 73.8839C209.401 73.8403 209.358 73.7307 209.381 73.6392Z" fill="#EEFFFD"/>
<path d="M211.47 73.3666C211.502 73.2397 211.613 73.1859 211.717 73.2464C211.822 73.3069 211.881 73.4588 211.849 73.5857C211.817 73.7126 211.706 73.7664 211.601 73.7059C211.496 73.6454 211.437 73.4935 211.47 73.3666Z" fill="#EEFFFD"/>
<path d="M212.718 74.4294C212.727 74.3912 212.761 74.375 212.792 74.3932C212.824 74.4114 212.842 74.4571 212.832 74.4953C212.822 74.5335 212.789 74.5497 212.757 74.5315C212.726 74.5133 212.708 74.4676 212.718 74.4294Z" fill="#EEFFFD"/>
<path d="M213.668 70.1183C213.701 69.9863 213.816 69.9303 213.925 69.9932C214.034 70.0561 214.096 70.2141 214.062 70.346C214.029 70.478 213.914 70.534 213.805 70.4711C213.696 70.4082 213.634 70.2502 213.668 70.1183Z" fill="#EEFFFD"/>
<path d="M227.437 84.2489C227.484 84.0628 227.646 83.9838 227.8 84.0725C227.954 84.1612 228.04 84.3841 227.993 84.5702C227.946 84.7563 227.784 84.8353 227.63 84.7466C227.476 84.6579 227.39 84.435 227.437 84.2489Z" fill="#EEFFFD"/>
<path d="M215.978 71.5784C215.994 71.5167 216.048 71.4905 216.099 71.5199C216.15 71.5493 216.179 71.6233 216.163 71.685C216.147 71.7468 216.093 71.773 216.042 71.7436C215.991 71.7141 215.963 71.6402 215.978 71.5784Z" fill="#EEFFFD"/>
<path d="M213.363 70.5376C213.377 70.4795 213.428 70.4549 213.476 70.4826C213.524 70.5103 213.551 70.5798 213.536 70.6379C213.522 70.6961 213.471 70.7207 213.423 70.693C213.375 70.6653 213.348 70.5957 213.363 70.5376Z" fill="#EEFFFD"/>
<path d="M215.07 71.6403C215.084 71.5847 215.133 71.5611 215.179 71.5876C215.225 71.6141 215.25 71.6807 215.236 71.7363C215.222 71.7919 215.174 71.8154 215.128 71.7889C215.082 71.7624 215.056 71.6959 215.07 71.6403Z" fill="#EEFFFD"/>
<path d="M212.046 70.787C212.068 70.7011 212.143 70.6646 212.214 70.7056C212.285 70.7465 212.325 70.8494 212.303 70.9353C212.281 71.0212 212.206 71.0576 212.135 71.0167C212.064 70.9757 212.024 70.8729 212.046 70.787Z" fill="#EEFFFD"/>
<path d="M223.576 76.3279C223.602 76.2228 223.694 76.1783 223.781 76.2283C223.868 76.2784 223.916 76.4041 223.89 76.5091C223.863 76.6141 223.771 76.6586 223.685 76.6086C223.598 76.5586 223.549 76.4329 223.576 76.3279Z" fill="#EEFFFD"/>
<path d="M225.064 77.2986C225.078 77.2444 225.125 77.2214 225.17 77.2472C225.214 77.2731 225.24 77.3379 225.226 77.3921C225.212 77.4463 225.165 77.4693 225.12 77.4435C225.075 77.4176 225.05 77.3528 225.064 77.2986Z" fill="#EEFFFD"/>
<path d="M226.402 79.674C226.418 79.6106 226.473 79.5837 226.526 79.6139C226.578 79.6442 226.608 79.7201 226.592 79.7836C226.576 79.847 226.52 79.8739 226.468 79.8437C226.415 79.8134 226.386 79.7375 226.402 79.674Z" fill="#EEFFFD"/>
<path d="M223.899 78.2075C223.918 78.1323 223.984 78.1004 224.046 78.1362C224.108 78.1721 224.143 78.2622 224.124 78.3374C224.105 78.4126 224.039 78.4446 223.977 78.4087C223.915 78.3728 223.88 78.2828 223.899 78.2075Z" fill="#EEFFFD"/>
<path d="M221.704 77.6131C221.721 77.5432 221.783 77.5136 221.84 77.5469C221.898 77.5802 221.931 77.6639 221.913 77.7338C221.895 77.8037 221.834 77.8333 221.776 77.8C221.719 77.7667 221.686 77.683 221.704 77.6131Z" fill="#EEFFFD"/>
<path d="M226.18 84.5379C226.197 84.4677 226.259 84.4379 226.317 84.4714C226.375 84.5048 226.407 84.5888 226.39 84.659C226.372 84.7292 226.31 84.759 226.252 84.7256C226.194 84.6921 226.162 84.6081 226.18 84.5379Z" fill="#EEFFFD"/>
<path d="M229.081 85.3739C229.103 85.2889 229.177 85.2528 229.248 85.2933C229.318 85.3339 229.357 85.4357 229.336 85.5208C229.314 85.6058 229.24 85.6419 229.17 85.6014C229.099 85.5608 229.06 85.459 229.081 85.3739Z" fill="#EEFFFD"/>
<path d="M222.492 82.6698C222.522 82.5502 222.627 82.4994 222.726 82.5564C222.824 82.6135 222.88 82.7566 222.85 82.8762C222.819 82.9958 222.715 83.0466 222.616 82.9896C222.517 82.9326 222.462 82.7894 222.492 82.6698Z" fill="#EEFFFD"/>
<path d="M222.524 81.3226C222.535 81.2788 222.573 81.2603 222.609 81.2811C222.646 81.302 222.666 81.3544 222.655 81.3982C222.644 81.442 222.605 81.4606 222.569 81.4397C222.533 81.4189 222.513 81.3664 222.524 81.3226Z" fill="#EEFFFD"/>
<path d="M225.45 83.8642C225.463 83.8137 225.507 83.7923 225.549 83.8164C225.591 83.8404 225.614 83.9009 225.601 83.9515C225.588 84.002 225.544 84.0234 225.503 83.9994C225.461 83.9753 225.437 83.9148 225.45 83.8642Z" fill="#EEFFFD"/>
<path d="M226.668 85.3538C226.684 85.2924 226.738 85.2663 226.789 85.2956C226.839 85.3249 226.868 85.3985 226.852 85.46C226.837 85.5214 226.783 85.5475 226.732 85.5182C226.681 85.4889 226.653 85.4153 226.668 85.3538Z" fill="#EEFFFD"/>
<path d="M193.223 51.8575C193.255 51.7877 193.324 51.7615 193.377 51.7988C193.43 51.8362 193.447 51.923 193.415 51.9928C193.383 52.0626 193.314 52.0889 193.262 52.0515C193.209 52.0141 193.191 51.9273 193.223 51.8575Z" fill="#F5FFFE"/>
<path d="M196.703 52.4615C196.737 52.3851 196.813 52.3563 196.871 52.3972C196.929 52.4381 196.947 52.5333 196.913 52.6097C196.878 52.6861 196.803 52.7149 196.745 52.674C196.687 52.633 196.668 52.5379 196.703 52.4615Z" fill="#F5FFFE"/>
<path d="M197.183 53.3199C197.23 53.2169 197.331 53.1781 197.409 53.2332C197.487 53.2884 197.513 53.4166 197.466 53.5196C197.419 53.6226 197.317 53.6613 197.239 53.6062C197.161 53.551 197.136 53.4228 197.183 53.3199Z" fill="#F5FFFE"/>
<path d="M199.147 53.4193C199.168 53.3728 199.214 53.3553 199.249 53.3802C199.284 53.4051 199.296 53.463 199.275 53.5095C199.254 53.556 199.208 53.5736 199.172 53.5487C199.137 53.5237 199.126 53.4659 199.147 53.4193Z" fill="#F5FFFE"/>
<path d="M201.331 52.951C201.399 52.8023 201.545 52.7463 201.658 52.8259C201.771 52.9056 201.808 53.0907 201.74 53.2395C201.672 53.3882 201.526 53.4442 201.413 53.3646C201.3 53.2849 201.263 53.0998 201.331 52.951Z" fill="#F5FFFE"/>
<path d="M201.785 53.7604C201.808 53.7106 201.857 53.6918 201.895 53.7185C201.932 53.7452 201.945 53.8072 201.922 53.857C201.899 53.9069 201.85 53.9256 201.812 53.8989C201.775 53.8723 201.762 53.8102 201.785 53.7604Z" fill="#F5FFFE"/>
<path d="M198.178 55.3327C198.214 55.2548 198.29 55.2254 198.35 55.2671C198.409 55.3089 198.428 55.4059 198.392 55.4839C198.357 55.5618 198.28 55.5912 198.221 55.5494C198.162 55.5077 198.143 55.4107 198.178 55.3327Z" fill="#F5FFFE"/>
<path d="M194.195 53.4532C194.205 53.4329 194.225 53.4253 194.24 53.4361C194.255 53.447 194.26 53.4723 194.251 53.4926C194.242 53.5128 194.222 53.5205 194.206 53.5096C194.191 53.4988 194.186 53.4735 194.195 53.4532Z" fill="#F5FFFE"/>
<path d="M192.709 52.6026C192.747 52.5193 192.829 52.4879 192.892 52.5326C192.955 52.5772 192.976 52.6809 192.938 52.7642C192.9 52.8475 192.818 52.8789 192.755 52.8343C192.691 52.7896 192.671 52.6859 192.709 52.6026Z" fill="#F5FFFE"/>
<path d="M194.719 52.4682C194.772 52.3527 194.886 52.3092 194.973 52.371C195.061 52.4329 195.089 52.5767 195.037 52.6922C194.984 52.8077 194.87 52.8512 194.783 52.7894C194.695 52.7275 194.666 52.5837 194.719 52.4682Z" fill="#F5FFFE"/>
<path d="M195.703 53.522C195.718 53.4873 195.753 53.4742 195.779 53.4928C195.805 53.5114 195.814 53.5547 195.798 53.5894C195.782 53.6242 195.748 53.6373 195.722 53.6186C195.695 53.6 195.687 53.5568 195.703 53.522Z" fill="#F5FFFE"/>
<path d="M197.359 49.5887C197.413 49.4685 197.532 49.4233 197.623 49.4876C197.714 49.5519 197.744 49.7015 197.689 49.8216C197.634 49.9417 197.516 49.9869 197.425 49.9226C197.334 49.8583 197.304 49.7088 197.359 49.5887Z" fill="#F5FFFE"/>
<path d="M207.781 63.434C207.859 63.2645 208.025 63.2007 208.154 63.2915C208.283 63.3822 208.324 63.5931 208.247 63.7625C208.17 63.932 208.003 63.9958 207.875 63.9051C207.746 63.8143 207.704 63.6034 207.781 63.434Z" fill="#F5FFFE"/>
<path d="M199.267 51.0704C199.292 51.0142 199.348 50.993 199.39 51.0231C199.433 51.0532 199.447 51.1232 199.421 51.1794C199.396 51.2357 199.34 51.2568 199.298 51.2267C199.255 51.1966 199.241 51.1266 199.267 51.0704Z" fill="#F5FFFE"/>
<path d="M196.998 49.9598C197.022 49.9069 197.074 49.887 197.114 49.9153C197.154 49.9437 197.167 50.0095 197.143 50.0624C197.119 50.1153 197.067 50.1352 197.027 50.1069C196.987 50.0786 196.974 50.0127 196.998 49.9598Z" fill="#F5FFFE"/>
<path d="M198.407 51.0759C198.43 51.0253 198.479 51.0062 198.518 51.0333C198.556 51.0604 198.569 51.1234 198.546 51.174C198.523 51.2246 198.473 51.2437 198.434 51.2166C198.396 51.1895 198.383 51.1265 198.407 51.0759Z" fill="#F5FFFE"/>
<path d="M195.717 50.1159C195.752 50.0377 195.829 50.0083 195.889 50.0502C195.948 50.092 195.967 50.1894 195.932 50.2676C195.896 50.3458 195.819 50.3752 195.76 50.3334C195.7 50.2915 195.681 50.1941 195.717 50.1159Z" fill="#F5FFFE"/>
<path d="M205.562 55.8916C205.606 55.796 205.7 55.76 205.772 55.8112C205.845 55.8624 205.869 55.9813 205.825 56.0769C205.781 56.1725 205.687 56.2085 205.615 56.1573C205.542 56.1061 205.519 55.9872 205.562 55.8916Z" fill="#F5FFFE"/>
<path d="M206.786 56.8727C206.808 56.8233 206.857 56.8048 206.894 56.8312C206.932 56.8576 206.944 56.919 206.922 56.9683C206.899 57.0176 206.851 57.0362 206.813 57.0098C206.776 56.9834 206.763 56.922 206.786 56.8727Z" fill="#F5FFFE"/>
<path d="M207.619 59.1448C207.646 59.087 207.703 59.0653 207.746 59.0962C207.79 59.1271 207.804 59.199 207.778 59.2568C207.752 59.3145 207.695 59.3363 207.651 59.3053C207.607 59.2744 207.593 59.2025 207.619 59.1448Z" fill="#F5FFFE"/>
<path d="M205.53 57.6465C205.562 57.578 205.629 57.5522 205.681 57.5889C205.733 57.6256 205.75 57.7108 205.719 57.7793C205.687 57.8478 205.62 57.8736 205.568 57.8369C205.516 57.8002 205.499 57.715 205.53 57.6465Z" fill="#F5FFFE"/>
<path d="M203.577 56.9743C203.606 56.9106 203.668 56.8867 203.717 56.9208C203.765 56.9548 203.781 57.034 203.752 57.0977C203.723 57.1613 203.66 57.1853 203.612 57.1512C203.563 57.1171 203.548 57.0379 203.577 56.9743Z" fill="#F5FFFE"/>
<path d="M206.549 63.6296C206.578 63.5657 206.641 63.5416 206.689 63.5758C206.738 63.61 206.754 63.6896 206.725 63.7534C206.695 63.8173 206.633 63.8414 206.584 63.8072C206.536 63.773 206.52 63.6934 206.549 63.6296Z" fill="#F5FFFE"/>
<path d="M209.124 64.5661C209.16 64.4886 209.236 64.4595 209.295 64.5009C209.354 64.5424 209.373 64.6388 209.337 64.7162C209.302 64.7937 209.226 64.8228 209.167 64.7814C209.108 64.7399 209.089 64.6435 209.124 64.5661Z" fill="#F5FFFE"/>
<path d="M203.417 61.6933C203.467 61.5845 203.574 61.5435 203.657 61.6018C203.74 61.6601 203.766 61.7956 203.717 61.9044C203.667 62.0133 203.56 62.0543 203.477 61.996C203.395 61.9377 203.368 61.8022 203.417 61.6933Z" fill="#F5FFFE"/>
<path d="M203.687 60.4501C203.705 60.4102 203.744 60.3952 203.775 60.4166C203.805 60.4379 203.815 60.4876 203.797 60.5274C203.778 60.5673 203.739 60.5823 203.709 60.561C203.679 60.5396 203.669 60.49 203.687 60.4501Z" fill="#F5FFFE"/>
<path d="M205.984 62.9662C206.005 62.9202 206.05 62.9029 206.085 62.9275C206.12 62.9521 206.131 63.0094 206.11 63.0554C206.089 63.1014 206.044 63.1187 206.009 63.0941C205.974 63.0694 205.963 63.0122 205.984 62.9662Z" fill="#F5FFFE"/>
<path d="M206.863 64.4103C206.889 64.3543 206.944 64.3332 206.986 64.3632C207.029 64.3931 207.042 64.4628 207.017 64.5188C206.991 64.5747 206.936 64.5958 206.894 64.5659C206.851 64.5359 206.838 64.4662 206.863 64.4103Z" fill="#F5FFFE"/>
<g filter="url(#filter1_f_1642_5068)">
<ellipse cx="152.263" cy="94.5287" rx="70.3507" ry="1.4027" fill="#270B31" fill-opacity="0.2"/>
</g>
<path d="M198.025 28.8654C199.6 27.0384 198.806 24.7612 198.806 24.7612L196.436 24.3101L196.585 24.1374L198.955 24.5742C199.866 27.1867 198.266 28.9113 198.266 28.9113L196.699 30.7397L196.449 30.6872L198.025 28.8654Z" fill="url(#paint3_linear_1642_5068)"/>
<path d="M198.805 24.76C198.805 24.76 199.599 27.0376 198.024 28.8642C196.448 30.6913 196.448 30.6913 196.448 30.6913L194.079 30.2398L195.654 28.4133C195.654 28.4133 197.229 26.5867 196.435 24.3089L198.805 24.76Z" fill="url(#paint4_linear_1642_5068)"/>
<path d="M160.846 47.8624L161.579 48.0022C161.579 48.0022 161.636 50.3121 162.958 51.9601L162.546 52.4568C162.546 52.4568 160.865 50.1772 160.846 47.8624Z" fill="url(#paint5_linear_1642_5068)"/>
<path d="M200.397 29.3155L181.49 51.2351L160.163 47.1757L160.371 46.934L179.069 25.2569L200.082 29.2563L200.087 29.2573L200.39 29.3147L200.395 29.3148L200.397 29.3155Z" fill="#9C7AF3"/>
<path d="M202.193 34.4692L202.407 35.084L183.501 57.0039L162.174 52.9448L161.574 51.9319C160.947 50.8764 160.534 49.7088 160.356 48.4945L160.163 47.1772L181.455 51.1368L200.396 29.3163L200.603 29.9113L200.39 30.1584L200.196 30.3833L181.697 51.8317L160.845 47.8626L160.917 48.3405C161.093 49.5054 161.486 50.6263 162.076 51.646L162.546 52.4572C162.755 52.4977 183.301 56.4309 183.301 56.4309L202.193 34.4692Z" fill="url(#paint6_linear_1642_5068)"/>
<path d="M200.394 29.3163L200.393 29.318L181.454 51.1365L160.163 47.1772L160.371 46.9355L181.354 50.8394L200.085 29.2592L200.086 29.2588L200.39 29.3162L200.394 29.3163Z" fill="url(#paint7_linear_1642_5068)"/>
<path d="M201.283 33.833C201.389 34.0248 201.494 34.1985 201.593 34.3566L183.096 55.8011L183.078 55.7899C182.797 55.4251 182.43 54.8714 182.146 54.135C182.125 54.0815 182.104 54.0268 182.085 53.9704C182.055 53.8872 182.026 53.8016 181.999 53.713C181.885 53.3464 181.812 52.9943 181.765 52.6749C181.718 52.3561 181.701 52.069 181.697 51.83L200.204 30.3732C200.22 30.5279 200.242 30.6962 200.271 30.8769C200.278 30.9201 200.285 30.9646 200.295 31.0102C200.343 31.2864 200.41 31.5877 200.499 31.9037C200.509 31.9439 200.52 31.9833 200.532 32.0229C200.572 32.1573 200.615 32.2936 200.663 32.4313C200.682 32.4866 200.702 32.5428 200.722 32.599L200.724 32.6035C200.747 32.6672 200.772 32.7307 200.797 32.7929L200.839 32.9009C200.964 33.2072 201.096 33.4842 201.231 33.7359C201.248 33.7691 201.266 33.802 201.283 33.833Z" fill="url(#paint8_linear_1642_5068)"/>
<path d="M182 53.7132C181.773 52.9796 181.705 52.3075 181.699 51.8304L161.58 48.0011C161.596 48.5159 161.677 49.2546 161.969 50.0909C162.26 50.9228 162.654 51.5484 162.96 51.9611L181.399 55.4703L182.835 55.7436L183.079 55.7903C182.747 55.3592 182.295 54.6633 182 53.7132Z" fill="url(#paint9_linear_1642_5068)"/>
<path d="M162.546 52.4561C162.756 52.497 183.301 56.4299 183.301 56.4299L202.193 34.4682L201.585 34.3339L183.073 55.7749L162.959 51.9594L162.546 52.4561Z" fill="url(#paint10_linear_1642_5068)"/>
<path d="M200.722 32.5999L182.146 54.1359C182.125 54.0824 182.104 54.0277 182.085 53.9713L200.662 32.4323C200.682 32.4877 200.701 32.5438 200.722 32.5999Z" fill="url(#paint11_linear_1642_5068)"/>
<path d="M187.916 37.332L175.31 34.9323L175.547 34.6636L188.154 37.0633L187.916 37.332Z" fill="#422D97"/>
<path d="M189.11 35.9277L176.503 33.528L176.741 33.2593L189.347 35.6591L189.11 35.9277Z" fill="#422D97"/>
<path d="M190.317 34.5547L177.71 32.155L177.948 31.8862L190.554 34.2861L190.317 34.5547Z" fill="#422D97"/>
<path d="M191.512 33.1777L178.905 30.778L179.143 30.5093L191.749 32.9091L191.512 33.1777Z" fill="#422D97"/>
</g>
<defs>
<filter id="filter0_f_1642_5068" x="41.6625" y="-1.33747" width="208.146" height="94.09" filterUnits="userSpaceOnUse" color-interpolation-filters="sRGB">
<feFlood flood-opacity="0" result="BackgroundImageFix"/>
<feBlend mode="normal" in="SourceGraphic" in2="BackgroundImageFix" result="shape"/>
<feGaussianBlur stdDeviation="3.66873" result="effect1_foregroundBlur_1642_5068"/>
</filter>
<filter id="filter1_f_1642_5068" x="78.2435" y="89.4574" width="148.038" height="10.1428" filterUnits="userSpaceOnUse" color-interpolation-filters="sRGB">
<feFlood flood-opacity="0" result="BackgroundImageFix"/>
<feBlend mode="normal" in="SourceGraphic" in2="BackgroundImageFix" result="shape"/>
<feGaussianBlur stdDeviation="1.8343" result="effect1_foregroundBlur_1642_5068"/>
</filter>
<linearGradient id="paint0_linear_1642_5068" x1="145.735" y1="6" x2="145.735" y2="85.4147" gradientUnits="userSpaceOnUse">
<stop stop-color="#5AFFC4"/>
<stop offset="1" stop-color="#2BDA9B" stop-opacity="0"/>
</linearGradient>
<linearGradient id="paint1_linear_1642_5068" x1="155.162" y1="11.0123" x2="155.162" y2="87.4039" gradientUnits="userSpaceOnUse">
<stop offset="0.161458" stop-color="#8CFFEA" stop-opacity="0.72"/>
<stop offset="0.541667" stop-color="#9FDCFF" stop-opacity="0.3"/>
<stop offset="1" stop-color="#ADFFAB" stop-opacity="0"/>
</linearGradient>
<linearGradient id="paint2_linear_1642_5068" x1="152.806" y1="11.4854" x2="152.806" y2="87.8769" gradientUnits="userSpaceOnUse">
<stop stop-color="#8CFFEA" stop-opacity="0.72"/>
<stop offset="0.390625" stop-color="#9FFFC5" stop-opacity="0.3"/>
<stop offset="1" stop-color="#ADFFAB" stop-opacity="0"/>
</linearGradient>
<linearGradient id="paint3_linear_1642_5068" x1="199.595" y1="26.4088" x2="195.46" y2="27.8506" gradientUnits="userSpaceOnUse">
<stop offset="2.1e-07" stop-color="#4E5FA8"/>
<stop offset="0.0911" stop-color="#5B6BAF"/>
<stop offset="0.3189" stop-color="#7883BE"/>
<stop offset="0.5473" stop-color="#8C94C9"/>
<stop offset="0.7747" stop-color="#989FCF"/>
<stop offset="1" stop-color="#9CA2D1"/>
</linearGradient>
<linearGradient id="paint4_linear_1642_5068" x1="196.119" y1="30.6286" x2="197.291" y2="24.4719" gradientUnits="userSpaceOnUse">
<stop offset="2.1e-07" stop-color="#95D6DE"/>
<stop offset="0.2852" stop-color="#CFEBEB"/>
<stop offset="0.2982" stop-color="#D2ECEC"/>
<stop offset="0.5193" stop-color="#C3E6E9"/>
<stop offset="0.9456" stop-color="#9BD8E1"/>
<stop offset="1" stop-color="#95D6E0"/>
</linearGradient>
<linearGradient id="paint5_linear_1642_5068" x1="163.442" y1="51.4186" x2="160.194" y2="48.6179" gradientUnits="userSpaceOnUse">
<stop offset="1e-07" stop-color="#43499D"/>
<stop offset="0.3238" stop-color="#726FB3"/>
<stop offset="0.6107" stop-color="#958BC3"/>
<stop offset="0.8459" stop-color="#AA9CCD"/>
<stop offset="1" stop-color="#B2A2D1"/>
</linearGradient>
<linearGradient id="paint6_linear_1642_5068" x1="196.045" y1="48.2585" x2="166.525" y2="34.0031" gradientUnits="userSpaceOnUse">
<stop offset="1.1e-07" stop-color="#33224E"/>
<stop offset="0.1989" stop-color="#392453"/>
<stop offset="0.4452" stop-color="#2F2A63"/>
<stop offset="0.7164" stop-color="#50357C"/>
<stop offset="1" stop-color="#50439E"/>
</linearGradient>
<linearGradient id="paint7_linear_1642_5068" x1="187.58" y1="23.128" x2="172.977" y2="53.3656" gradientUnits="userSpaceOnUse">
<stop offset="1e-07" stop-color="#43499D"/>
<stop offset="0.5971" stop-color="#777DBB"/>
<stop offset="1" stop-color="#9CA2D1"/>
</linearGradient>
<linearGradient id="paint8_linear_1642_5068" x1="193.033" y1="44.2818" x2="190.266" y2="41.8951" gradientUnits="userSpaceOnUse">
<stop offset="1.1e-07" stop-color="#CFE0EF"/>
<stop offset="0.3105" stop-color="#C7D5EA"/>
<stop offset="0.8534" stop-color="#B0B8DC"/>
<stop offset="1" stop-color="#A9AFD8"/>
</linearGradient>
<linearGradient id="paint9_linear_1642_5068" x1="171.99" y1="53.6797" x2="172.669" y2="50.1117" gradientUnits="userSpaceOnUse">
<stop stop-color="#FFFDF7"/>
<stop offset="0.3511" stop-color="#E8EFF3"/>
<stop offset="0.7303" stop-color="#D6E4F0"/>
<stop offset="1" stop-color="#CFE0EF"/>
</linearGradient>
<linearGradient id="paint10_linear_1642_5068" x1="184.718" y1="31.1234" x2="180.02" y2="55.8054" gradientUnits="userSpaceOnUse">
<stop offset="1e-07" stop-color="#43499D"/>
<stop offset="0.3185" stop-color="#454B9E"/>
<stop offset="0.4941" stop-color="#4D51A2"/>
<stop offset="0.635" stop-color="#5B5CA8"/>
<stop offset="0.7574" stop-color="#6F6CB1"/>
<stop offset="0.8678" stop-color="#8880BD"/>
<stop offset="0.9681" stop-color="#A799CC"/>
<stop offset="1" stop-color="#B2A2D1"/>
</linearGradient>
<linearGradient id="paint11_linear_1642_5068" x1="203.034" y1="39.229" x2="179.772" y2="47.3401" gradientUnits="userSpaceOnUse">
<stop offset="2.1e-07" stop-color="#9DA3C9"/>
<stop offset="0.0387" stop-color="#9397BB"/>
<stop offset="0.1977" stop-color="#9FA5C5"/>
<stop offset="0.7287" stop-color="#C2D0E3"/>
<stop offset="1" stop-color="#CFE0EF"/>
</linearGradient>
<clipPath id="clip0_1642_5068">
<rect width="292" height="102.768" fill="white"/>
</clipPath>
</defs>
</svg>
