<svg width="292" height="103" viewBox="0 0 292 103" fill="none" xmlns="http://www.w3.org/2000/svg">
<rect width="292" height="102.768" fill="#1D1D26"/>
<g filter="url(#filter0_f_1649_5538)">
<ellipse cx="152.263" cy="94.5287" rx="70.3507" ry="1.4027" fill="#270B31" fill-opacity="0.2"/>
</g>
<path d="M207.582 76.0613C213.614 81.3492 208.834 86.0825 209.232 87.5282H81.2585C83.9898 87.2906 76.2511 86.9935 78.1858 78.8538C80.1204 70.7141 89.5093 66.971 89.6232 65.3074C89.737 63.6438 84.2743 57.4647 88.4282 53.3652C92.5821 49.2656 92.2976 50.4539 92.5252 43.9777C92.7528 37.5016 96.3376 24.6682 110.791 22.4104C125.244 20.1527 128.431 26.0941 132.869 30.7878C137.307 35.4815 137.421 38.7493 140.323 39.5217C143.225 40.2941 146.639 38.0363 150.395 39.5217C154.15 41.007 154.037 43.0865 156.256 43.0865C158.475 43.0865 161.434 40.1752 168.149 43.0865C173.52 45.4155 175.015 54.7119 175.091 59.0689C177.424 57.1676 180.724 55.7417 184.764 55.5041C188.804 55.2664 192.901 57.8212 196.486 64.1191C200.071 70.417 198.876 73.0312 200.355 73.9818C201.835 74.9325 205.319 74.0776 207.582 76.0613Z" fill="url(#paint0_radial_1649_5538)"/>
<path d="M214.679 78.0029C221.156 83.6173 216.024 88.6429 216.451 90.1779H67.6373C70.5701 89.9256 62.2603 89.6102 64.3378 80.9678C66.4152 72.3254 87.8943 68.3511 88.0165 66.5848C88.1387 64.8184 82.273 58.2578 86.7334 53.905C91.1938 49.5523 90.8883 50.814 91.1327 43.9379C91.3771 37.0618 95.2264 23.4358 110.746 21.0386C126.266 18.6415 129.688 24.9498 134.453 29.9334C139.219 34.917 139.342 38.3865 142.458 39.2066C145.574 40.0267 149.24 37.6295 153.273 39.2066C157.305 40.7837 157.183 42.9916 159.566 42.9916C161.949 42.9916 165.126 39.9005 172.336 42.9916C178.104 45.4645 179.709 55.3349 179.791 59.961C182.296 57.9424 185.84 56.4284 190.178 56.176C194.516 55.9237 198.915 58.6363 202.765 65.3231C206.614 72.0099 205.331 74.7856 206.92 75.7949C208.508 76.8043 212.25 75.8967 214.679 78.0029Z" fill="url(#paint1_linear_1649_5538)"/>
<path d="M228.576 92.5154C228.149 90.9916 229.524 84.0631 223.281 78.1816C218.669 73.837 210.231 74.8389 208.644 73.837C207.056 72.835 208.338 70.0797 204.492 63.4418C200.646 56.8039 196.25 54.1112 191.916 54.3617C187.581 54.6122 184.04 56.1151 181.537 58.119C181.456 53.5267 179.852 43.7285 174.089 41.2738C166.885 38.2053 165.761 39.5809 163.38 39.5809C160.999 39.5809 161.374 36.4314 157.344 34.8658C153.315 33.3003 150.323 36.6229 147.209 35.8088C144.095 34.9948 140.999 33.2582 136.237 28.3111C131.475 23.364 125.003 20.6722 113.216 22.4809C97.7091 24.8606 94.9547 32.8181 94.7105 39.6438C94.4663 46.4695 90.3812 45.8764 88.5565 52.1073C86.7959 58.1189 89.9606 62.9408 89.8385 64.6942C89.7164 66.4476 76.0032 70.0425 73.9275 78.6217C72.4954 84.5405 75.1533 89.5048 75.4809 91.1471L73.9275 91.1332C75.3047 91.9522 75.6282 91.8852 75.4809 91.1471L228.576 92.5154Z" fill="url(#paint2_linear_1649_5538)" fill-opacity="0.4"/>
<path d="M111.601 26.8375C111.58 26.7532 111.515 26.6968 111.456 26.7117C111.398 26.7265 111.368 26.8069 111.389 26.8912C111.41 26.9756 111.475 27.0319 111.534 27.0171C111.592 27.0022 111.623 26.9218 111.601 26.8375Z" fill="#D1FEF9"/>
<path d="M108.041 25.9435C108.018 25.8514 107.947 25.7899 107.883 25.8061C107.819 25.8223 107.786 25.9101 107.809 26.0022C107.833 26.0943 107.903 26.1558 107.967 26.1396C108.031 26.1234 108.064 26.0356 108.041 25.9435Z" fill="#D1FEF9"/>
<path d="M107.433 26.6014C107.402 26.4773 107.306 26.3944 107.22 26.4162C107.134 26.4381 107.089 26.5564 107.121 26.6805C107.152 26.8047 107.248 26.8876 107.334 26.8657C107.42 26.8439 107.465 26.7255 107.433 26.6014Z" fill="#D1FEF9"/>
<path d="M105.459 25.8526C105.445 25.7964 105.402 25.7588 105.363 25.7687C105.324 25.7786 105.304 25.8322 105.318 25.8884C105.332 25.9447 105.375 25.9822 105.414 25.9723C105.454 25.9624 105.474 25.9088 105.459 25.8526Z" fill="#D1FEF9"/>
<path d="M103.349 24.4391C103.304 24.2598 103.166 24.1401 103.042 24.1716C102.917 24.2032 102.853 24.3741 102.898 24.5533C102.944 24.7326 103.081 24.8524 103.206 24.8208C103.331 24.7893 103.395 24.6184 103.349 24.4391Z" fill="#D1FEF9"/>
<path d="M102.776 25.0576C102.761 24.9974 102.715 24.9571 102.673 24.9677C102.631 24.9783 102.609 25.0358 102.625 25.096C102.64 25.1562 102.686 25.1965 102.728 25.1859C102.77 25.1753 102.792 25.1179 102.776 25.0576Z" fill="#D1FEF9"/>
<path d="M106.141 28.2017C106.117 28.1077 106.045 28.045 105.979 28.0615C105.914 28.078 105.88 28.1676 105.904 28.2615C105.928 28.3555 106 28.4182 106.065 28.4017C106.131 28.3852 106.164 28.2956 106.141 28.2017Z" fill="#D1FEF9"/>
<path d="M110.395 28.0253C110.388 28.0006 110.369 27.9841 110.352 27.9884C110.335 27.9928 110.326 28.0164 110.332 28.0411C110.339 28.0659 110.358 28.0824 110.375 28.0781C110.392 28.0737 110.401 28.0501 110.395 28.0253Z" fill="#D1FEF9"/>
<path d="M112.003 27.8108C111.978 27.7104 111.901 27.6434 111.831 27.661C111.761 27.6787 111.725 27.7744 111.751 27.8748C111.776 27.9752 111.853 28.0423 111.923 28.0246C111.993 28.007 112.029 27.9113 112.003 27.8108Z" fill="#D1FEF9"/>
<path d="M110.021 26.8076C109.986 26.6684 109.879 26.5754 109.782 26.5999C109.685 26.6244 109.635 26.7571 109.671 26.8964C109.706 27.0356 109.813 27.1286 109.91 27.1041C110.006 27.0796 110.056 26.9469 110.021 26.8076Z" fill="#D1FEF9"/>
<path d="M108.881 27.445C108.871 27.403 108.838 27.3749 108.809 27.3823C108.78 27.3897 108.765 27.4298 108.776 27.4718C108.786 27.5138 108.819 27.5419 108.848 27.5345C108.877 27.5271 108.892 27.487 108.881 27.445Z" fill="#D1FEF9"/>
<path d="M107.815 22.7638C107.779 22.619 107.668 22.5223 107.567 22.5478C107.466 22.5733 107.415 22.7113 107.451 22.856C107.488 23.0008 107.599 23.0975 107.7 23.072C107.8 23.0466 107.852 22.9086 107.815 22.7638Z" fill="#D1FEF9"/>
<path d="M95.3479 32.2228C95.2962 32.0185 95.1393 31.8821 94.9974 31.9181C94.8555 31.954 94.7824 32.1487 94.8341 32.3529C94.8858 32.5571 95.0428 32.6935 95.1847 32.6576C95.3266 32.6216 95.3997 32.427 95.3479 32.2228Z" fill="#D1FEF9"/>
<path d="M105.691 23.4332C105.673 23.3653 105.621 23.3199 105.574 23.3318C105.527 23.3438 105.502 23.4086 105.52 23.4766C105.537 23.5445 105.589 23.5899 105.636 23.578C105.684 23.566 105.708 23.5012 105.691 23.4332Z" fill="#D1FEF9"/>
<path d="M108.12 23.2937C108.104 23.2297 108.055 23.187 108.01 23.1982C107.966 23.2095 107.943 23.2705 107.959 23.3344C107.975 23.3984 108.024 23.4411 108.069 23.4298C108.113 23.4186 108.136 23.3576 108.12 23.2937Z" fill="#D1FEF9"/>
<path d="M106.548 23.8093C106.532 23.7481 106.485 23.7072 106.443 23.718C106.4 23.7288 106.378 23.7871 106.394 23.8482C106.409 23.9094 106.456 23.9503 106.499 23.9395C106.541 23.9287 106.563 23.8704 106.548 23.8093Z" fill="#D1FEF9"/>
<path d="M109.376 24.0046C109.352 23.9104 109.279 23.8474 109.214 23.864C109.148 23.8806 109.115 23.9704 109.138 24.0647C109.162 24.1589 109.235 24.2219 109.3 24.2053C109.366 24.1887 109.399 24.0989 109.376 24.0046Z" fill="#D1FEF9"/>
<path d="M98.6902 25.5764C98.661 25.4612 98.5724 25.3842 98.4924 25.4045C98.4124 25.4248 98.3711 25.5346 98.4003 25.6498C98.4295 25.765 98.518 25.842 98.5981 25.8217C98.6781 25.8014 98.7193 25.6916 98.6902 25.5764Z" fill="#D1FEF9"/>
<path d="M97.3219 26.0376C97.3068 25.978 97.261 25.9382 97.2195 25.9487C97.1781 25.9592 97.1568 26.016 97.1719 26.0756C97.187 26.1353 97.2328 26.1751 97.2742 26.1646C97.3157 26.1541 97.337 26.0973 97.3219 26.0376Z" fill="#D1FEF9"/>
<path d="M96.1515 27.9678C96.1338 27.8979 96.0801 27.8513 96.0316 27.8636C95.9831 27.8759 95.9581 27.9424 95.9758 28.0123C95.9935 28.0821 96.0471 28.1287 96.0957 28.1164C96.1442 28.1041 96.1692 28.0376 96.1515 27.9678Z" fill="#D1FEF9"/>
<path d="M98.4575 27.3598C98.4365 27.2771 98.3729 27.2217 98.3153 27.2363C98.2578 27.2509 98.2282 27.3298 98.2491 27.4126C98.2701 27.4954 98.3337 27.5507 98.3913 27.5361C98.4488 27.5215 98.4784 27.4426 98.4575 27.3598Z" fill="#D1FEF9"/>
<path d="M100.51 27.5246C100.49 27.4477 100.431 27.3963 100.378 27.4098C100.324 27.4234 100.297 27.4967 100.316 27.5736C100.336 27.6505 100.395 27.7019 100.448 27.6884C100.502 27.6748 100.529 27.6015 100.51 27.5246Z" fill="#D1FEF9"/>
<path d="M96.5476 32.9516C96.528 32.8743 96.4687 32.8227 96.415 32.8363C96.3613 32.8499 96.3337 32.9235 96.3533 33.0008C96.3728 33.078 96.4322 33.1296 96.4858 33.116C96.5395 33.1024 96.5671 33.0288 96.5476 32.9516Z" fill="#D1FEF9"/>
<path d="M93.8405 32.7852C93.8168 32.6919 93.7451 32.6295 93.6803 32.646C93.6154 32.6624 93.582 32.7514 93.6056 32.8447C93.6293 32.938 93.701 33.0004 93.7659 32.9839C93.8307 32.9675 93.8641 32.8785 93.8405 32.7852Z" fill="#D1FEF9"/>
<path d="M99.9633 32.3536C99.9301 32.2224 99.8293 32.1347 99.7381 32.1578C99.6469 32.1809 99.6 32.306 99.6332 32.4372C99.6664 32.5684 99.7673 32.6561 99.8584 32.633C99.9496 32.6099 99.9966 32.4848 99.9633 32.3536Z" fill="#D1FEF9"/>
<path d="M99.8804 30.9826C99.8682 30.9344 99.8312 30.9022 99.7977 30.9107C99.7642 30.9192 99.7469 30.9651 99.7592 31.0133C99.7714 31.0615 99.8084 31.0937 99.8419 31.0852C99.8754 31.0767 99.8926 31.0308 99.8804 30.9826Z" fill="#D1FEF9"/>
<path d="M97.2121 32.527C97.198 32.4714 97.1553 32.4342 97.1166 32.444C97.078 32.4538 97.0581 32.5068 97.0722 32.5624C97.0862 32.618 97.129 32.6552 97.1676 32.6454C97.2063 32.6356 97.2262 32.5826 97.2121 32.527Z" fill="#D1FEF9"/>
<path d="M96.1177 33.6049C96.1006 33.5372 96.0486 33.492 96.0016 33.504C95.9546 33.5159 95.9304 33.5804 95.9475 33.648C95.9646 33.7157 96.0166 33.7609 96.0636 33.749C96.1106 33.737 96.1349 33.6726 96.1177 33.6049Z" fill="#D1FEF9"/>
<path d="M101.437 26.396C101.414 26.4858 101.462 26.5595 101.545 26.5606C101.628 26.5617 101.714 26.4898 101.737 26.4C101.76 26.3101 101.712 26.2364 101.629 26.2353C101.547 26.2342 101.461 26.3061 101.437 26.396Z" fill="#D1FEF9"/>
<path d="M105.398 28.2533C105.373 28.3514 105.425 28.4319 105.516 28.4331C105.606 28.4344 105.7 28.3558 105.725 28.2577C105.751 28.1596 105.698 28.0791 105.608 28.0779C105.517 28.0767 105.423 28.1552 105.398 28.2533Z" fill="#D1FEF9"/>
<path d="M106.559 27.7618C106.525 27.894 106.596 28.0025 106.718 28.0042C106.84 28.0058 106.966 27.8999 107 27.7677C107.035 27.6355 106.964 27.527 106.842 27.5254C106.72 27.5237 106.593 27.6296 106.559 27.7618Z" fill="#D1FEF9"/>
<path d="M108.604 29.0433C108.589 29.1031 108.621 29.1523 108.676 29.153C108.731 29.1538 108.788 29.1058 108.804 29.0459C108.819 28.986 108.787 28.9369 108.732 28.9362C108.677 28.9354 108.62 28.9834 108.604 29.0433Z" fill="#D1FEF9"/>
<path d="M110.425 31.0247C110.376 31.2157 110.479 31.3724 110.655 31.3747C110.831 31.3771 111.013 31.2242 111.063 31.0332C111.112 30.8423 111.01 30.6856 110.834 30.6832C110.658 30.6809 110.475 30.8338 110.425 31.0247Z" fill="#D1FEF9"/>
<path d="M111.517 30.5635C111.501 30.6277 111.535 30.6803 111.594 30.6811C111.654 30.6819 111.715 30.6305 111.732 30.5664C111.748 30.5022 111.714 30.4496 111.655 30.4488C111.595 30.448 111.534 30.4993 111.517 30.5635Z" fill="#D1FEF9"/>
<path d="M109.142 26.5185C109.117 26.6186 109.17 26.7007 109.263 26.7019C109.355 26.7032 109.451 26.6231 109.477 26.523C109.502 26.4229 109.449 26.3408 109.356 26.3396C109.264 26.3383 109.168 26.4185 109.142 26.5185Z" fill="#D1FEF9"/>
<path d="M103.669 25.5407C103.662 25.5671 103.676 25.5887 103.701 25.589C103.725 25.5894 103.75 25.5682 103.757 25.5419C103.764 25.5155 103.75 25.4939 103.726 25.4936C103.701 25.4932 103.676 25.5143 103.669 25.5407Z" fill="#D1FEF9"/>
<path d="M101.509 25.3168C101.481 25.4238 101.539 25.5115 101.637 25.5129C101.736 25.5142 101.838 25.4285 101.866 25.3216C101.894 25.2146 101.836 25.1269 101.738 25.1255C101.639 25.1242 101.537 25.2099 101.509 25.3168Z" fill="#D1FEF9"/>
<path d="M103.416 26.8547C103.377 27.003 103.457 27.1247 103.594 27.1265C103.731 27.1283 103.873 27.0096 103.911 26.8613C103.949 26.713 103.87 26.5913 103.733 26.5895C103.596 26.5876 103.454 26.7064 103.416 26.8547Z" fill="#D1FEF9"/>
<path d="M105.232 26.5283C105.22 26.573 105.244 26.6097 105.286 26.6103C105.327 26.6108 105.37 26.575 105.381 26.5303C105.393 26.4855 105.369 26.4488 105.328 26.4482C105.286 26.4477 105.244 26.4835 105.232 26.5283Z" fill="#D1FEF9"/>
<path d="M103.79 31.4823C103.75 31.6365 103.833 31.763 103.975 31.7649C104.117 31.7668 104.265 31.6434 104.305 31.4892C104.345 31.335 104.262 31.2084 104.12 31.2065C103.977 31.2046 103.83 31.3281 103.79 31.4823Z" fill="#D1FEF9"/>
<path d="M125.16 25.4379C125.104 25.6554 125.221 25.8339 125.421 25.8366C125.622 25.8392 125.83 25.6651 125.886 25.4476C125.943 25.23 125.826 25.0515 125.625 25.0489C125.425 25.0462 125.217 25.2203 125.16 25.4379Z" fill="#D1FEF9"/>
<path d="M106.871 31.3925C106.852 31.4649 106.891 31.5243 106.958 31.5252C107.024 31.5261 107.094 31.4681 107.113 31.3957C107.131 31.3233 107.092 31.2639 107.026 31.263C106.959 31.2621 106.89 31.3201 106.871 31.3925Z" fill="#D1FEF9"/>
<path d="M103.721 30.8713C103.704 30.9394 103.74 30.9953 103.803 30.9961C103.866 30.997 103.931 30.9424 103.949 30.8743C103.966 30.8062 103.93 30.7503 103.867 30.7495C103.804 30.7486 103.739 30.8032 103.721 30.8713Z" fill="#D1FEF9"/>
<path d="M106.012 30.783C105.995 30.8482 106.03 30.9016 106.09 30.9024C106.15 30.9032 106.212 30.8511 106.229 30.7859C106.246 30.7208 106.211 30.6673 106.151 30.6665C106.091 30.6657 106.029 30.7179 106.012 30.783Z" fill="#D1FEF9"/>
<path d="M102.559 29.8228C102.533 29.9232 102.587 30.0056 102.68 30.0068C102.772 30.0081 102.868 29.9277 102.894 29.8273C102.92 29.7269 102.866 29.6445 102.774 29.6433C102.681 29.642 102.585 29.7224 102.559 29.8228Z" fill="#D1FEF9"/>
<path d="M116.984 31.1552C116.952 31.2779 117.018 31.3786 117.131 31.3801C117.244 31.3816 117.362 31.2834 117.394 31.1607C117.425 31.0379 117.359 30.9373 117.246 30.9357C117.133 30.9342 117.016 31.0325 116.984 31.1552Z" fill="#D1FEF9"/>
<path d="M118.985 31.0672C118.968 31.1307 119.002 31.1829 119.061 31.1836C119.12 31.1844 119.18 31.1336 119.197 31.0701C119.213 31.0066 119.179 30.9544 119.121 30.9537C119.062 30.9529 119.001 31.0037 118.985 31.0672Z" fill="#D1FEF9"/>
<path d="M121.613 29.4604C121.594 29.5348 121.634 29.5958 121.703 29.5967C121.771 29.5977 121.842 29.5381 121.862 29.4638C121.881 29.3894 121.841 29.3284 121.772 29.3274C121.704 29.3265 121.633 29.3861 121.613 29.4604Z" fill="#D1FEF9"/>
<path d="M118.338 29.4409C118.315 29.5291 118.363 29.6014 118.444 29.6025C118.525 29.6036 118.61 29.533 118.632 29.4448C118.655 29.3566 118.608 29.2843 118.527 29.2832C118.445 29.2821 118.361 29.3527 118.338 29.4409Z" fill="#D1FEF9"/>
<path d="M115.846 28.7189C115.825 28.8008 115.869 28.8681 115.945 28.8691C116.02 28.8701 116.099 28.8045 116.12 28.7226C116.141 28.6406 116.097 28.5734 116.021 28.5724C115.946 28.5714 115.867 28.637 115.846 28.7189Z" fill="#D1FEF9"/>
<path d="M124.079 24.3865C124.058 24.4688 124.102 24.5363 124.178 24.5373C124.254 24.5383 124.333 24.4724 124.354 24.3902C124.375 24.3079 124.331 24.2404 124.255 24.2394C124.179 24.2384 124.101 24.3042 124.079 24.3865Z" fill="#D1FEF9"/>
<path d="M127.399 25.2869C127.373 25.3863 127.427 25.4679 127.518 25.4691C127.61 25.4703 127.705 25.3907 127.731 25.2913C127.756 25.1919 127.703 25.1103 127.611 25.1091C127.52 25.1079 127.425 25.1875 127.399 25.2869Z" fill="#D1FEF9"/>
<path d="M119.411 24.0564C119.375 24.1962 119.45 24.3109 119.579 24.3126C119.708 24.3143 119.842 24.2024 119.878 24.0626C119.914 23.9229 119.839 23.8082 119.71 23.8065C119.581 23.8047 119.447 23.9166 119.411 24.0564Z" fill="#D1FEF9"/>
<path d="M118.701 25.4451C118.688 25.4965 118.715 25.5386 118.763 25.5392C118.81 25.5399 118.859 25.4988 118.872 25.4474C118.886 25.3961 118.858 25.354 118.811 25.3533C118.763 25.3527 118.714 25.3938 118.701 25.4451Z" fill="#D1FEF9"/>
<path d="M122.987 24.629C122.972 24.6882 123.004 24.7368 123.058 24.7376C123.113 24.7383 123.17 24.6909 123.185 24.6317C123.2 24.5724 123.169 24.5238 123.114 24.5231C123.059 24.5224 123.003 24.5698 122.987 24.629Z" fill="#D1FEF9"/>
<path d="M125.011 23.8528C124.992 23.9249 125.031 23.9841 125.097 23.9849C125.164 23.9858 125.233 23.9281 125.251 23.8561C125.27 23.784 125.231 23.7249 125.165 23.724C125.098 23.7231 125.029 23.7808 125.011 23.8528Z" fill="#D1FEF9"/>
<path d="M123.148 23.8784C123.12 23.9554 123.038 23.9963 122.965 23.9697C122.892 23.943 122.856 23.859 122.884 23.782C122.913 23.705 122.994 23.6642 123.067 23.6908C123.14 23.7174 123.176 23.8014 123.148 23.8784Z" fill="#D1FEF9"/>
<path d="M120.415 22.7394C120.362 22.8836 120.209 22.9601 120.073 22.9103C119.937 22.8604 119.869 22.7031 119.922 22.5589C119.975 22.4147 120.128 22.3383 120.264 22.3881C120.4 22.4379 120.468 22.5952 120.415 22.7394Z" fill="#D1FEF9"/>
<path d="M121.224 23.6618C121.185 23.7686 121.071 23.8252 120.971 23.7883C120.87 23.7514 120.82 23.635 120.859 23.5282C120.898 23.4215 121.011 23.3649 121.112 23.4018C121.213 23.4387 121.263 23.5551 121.224 23.6618Z" fill="#D1FEF9"/>
<path d="M120.539 21.0867C120.519 21.1421 120.46 21.1715 120.408 21.1523C120.356 21.1332 120.33 21.0727 120.35 21.0173C120.37 20.9619 120.429 20.9325 120.481 20.9517C120.534 20.9708 120.56 21.0313 120.539 21.0867Z" fill="#D1FEF9"/>
<path d="M118.512 20.7249C118.495 20.7709 118.446 20.7953 118.402 20.7794C118.359 20.7635 118.337 20.7133 118.354 20.6673C118.371 20.6213 118.42 20.5969 118.463 20.6128C118.507 20.6287 118.528 20.6789 118.512 20.7249Z" fill="#D1FEF9"/>
<path d="M117.52 25.8841C117.463 26.0417 117.295 26.1253 117.146 26.0708C116.998 26.0163 116.924 25.8444 116.981 25.6868C117.039 25.5291 117.207 25.4455 117.355 25.5C117.504 25.5545 117.578 25.7264 117.52 25.8841Z" fill="#D1FEF9"/>
<path d="M118.591 25.5796C118.563 25.656 118.482 25.6965 118.41 25.6701C118.338 25.6437 118.302 25.5604 118.33 25.484C118.358 25.4076 118.439 25.3671 118.511 25.3935C118.584 25.4199 118.619 25.5032 118.591 25.5796Z" fill="#D1FEF9"/>
<path d="M116.612 25.9833C116.593 26.0359 116.537 26.0638 116.487 26.0456C116.437 26.0275 116.413 25.9701 116.432 25.9175C116.451 25.8649 116.507 25.837 116.557 25.8552C116.606 25.8734 116.631 25.9307 116.612 25.9833Z" fill="#D1FEF9"/>
<path d="M121.873 26.8093C121.796 27.019 121.573 27.1303 121.375 27.0578C121.177 26.9853 121.079 26.7565 121.156 26.5468C121.233 26.337 121.455 26.2258 121.653 26.2983C121.852 26.3708 121.95 26.5996 121.873 26.8093Z" fill="#D1FEF9"/>
<path d="M129.005 30.6017C128.958 30.7319 128.819 30.8009 128.696 30.7559C128.574 30.7109 128.513 30.5689 128.56 30.4388C128.608 30.3086 128.746 30.2396 128.869 30.2846C128.992 30.3296 129.053 30.4716 129.005 30.6017Z" fill="#D1FEF9"/>
<path d="M126.713 30.6569C126.692 30.7142 126.631 30.7446 126.577 30.7247C126.523 30.7049 126.496 30.6425 126.517 30.5852C126.538 30.5279 126.599 30.4975 126.653 30.5173C126.707 30.5371 126.734 30.5996 126.713 30.6569Z" fill="#D1FEF9"/>
<path d="M127.703 27.2667C127.65 27.4119 127.495 27.4888 127.358 27.4387C127.221 27.3885 127.153 27.2302 127.207 27.0851C127.26 26.9399 127.414 26.8629 127.551 26.9131C127.688 26.9633 127.756 27.1216 127.703 27.2667Z" fill="#D1FEF9"/>
<path d="M131.092 30.2822C131.033 30.4439 130.861 30.5297 130.709 30.4738C130.556 30.4179 130.48 30.2415 130.539 30.0799C130.599 29.9182 130.77 29.8324 130.923 29.8883C131.076 29.9442 131.151 30.1205 131.092 30.2822Z" fill="#D1FEF9"/>
<path d="M126.998 26.2633C126.976 26.3212 126.915 26.3519 126.86 26.3319C126.805 26.3119 126.778 26.2487 126.8 26.1908C126.821 26.1329 126.882 26.1022 126.937 26.1222C126.992 26.1422 127.019 26.2054 126.998 26.2633Z" fill="#D1FEF9"/>
<path d="M109.926 21.9145C109.91 21.9586 109.863 21.982 109.822 21.9668C109.78 21.9515 109.759 21.9034 109.775 21.8592C109.792 21.8151 109.838 21.7917 109.88 21.8069C109.922 21.8222 109.943 21.8703 109.926 21.9145Z" fill="#D1FEF9"/>
<path d="M113.033 24.0921C112.986 24.2195 112.851 24.287 112.731 24.243C112.61 24.199 112.551 24.0601 112.597 23.9327C112.644 23.8054 112.779 23.7378 112.899 23.7818C113.02 23.8259 113.079 23.9648 113.033 24.0921Z" fill="#D1FEF9"/>
<path d="M115.072 23.1241C115.029 23.2408 114.905 23.3027 114.795 23.2624C114.685 23.222 114.63 23.0947 114.673 22.978C114.715 22.8612 114.839 22.7993 114.95 22.8397C115.06 22.88 115.114 23.0073 115.072 23.1241Z" fill="#D1FEF9"/>
<path d="M113.943 21.8978C113.927 21.9432 113.879 21.9673 113.836 21.9516C113.793 21.9359 113.772 21.8864 113.788 21.841C113.805 21.7956 113.853 21.7715 113.896 21.7872C113.939 21.8029 113.96 21.8524 113.943 21.8978Z" fill="#D1FEF9"/>
<path d="M115.4 20.452C115.366 20.5431 115.269 20.5914 115.183 20.5599C115.097 20.5284 115.055 20.429 115.088 20.3379C115.121 20.2467 115.218 20.1984 115.304 20.2299C115.39 20.2614 115.433 20.3608 115.4 20.452Z" fill="#D1FEF9"/>
<path d="M117.177 22.5249C117.115 22.6932 116.936 22.7824 116.777 22.7243C116.619 22.6661 116.54 22.4826 116.601 22.3144C116.663 22.1461 116.842 22.0569 117 22.1151C117.159 22.1732 117.238 22.3567 117.177 22.5249Z" fill="#D1FEF9"/>
<path d="M106.95 23.6536C106.903 23.7813 106.767 23.849 106.647 23.8049C106.526 23.7607 106.466 23.6215 106.513 23.4938C106.56 23.3662 106.695 23.2985 106.816 23.3426C106.936 23.3867 106.996 23.526 106.95 23.6536Z" fill="#D1FEF9"/>
<path d="M108.532 27.4083C108.474 27.5681 108.304 27.6529 108.153 27.5977C108.002 27.5424 107.927 27.3681 107.986 27.2083C108.044 27.0485 108.214 26.9637 108.365 27.019C108.516 27.0742 108.591 27.2485 108.532 27.4083Z" fill="#D1FEF9"/>
<path d="M113.018 27.7555C112.991 27.8309 112.911 27.8709 112.839 27.8449C112.768 27.8188 112.733 27.7365 112.761 27.661C112.788 27.5856 112.868 27.5456 112.94 27.5716C113.011 27.5977 113.046 27.68 113.018 27.7555Z" fill="#D1FEF9"/>
<path d="M111.386 26.5137C111.355 26.5985 111.265 26.6435 111.185 26.6142C111.105 26.5849 111.065 26.4924 111.096 26.4075C111.127 26.3227 111.217 26.2777 111.297 26.307C111.377 26.3363 111.417 26.4289 111.386 26.5137Z" fill="#D1FEF9"/>
<path d="M123.02 20.7719C122.997 20.8335 122.932 20.8662 122.873 20.8449C122.815 20.8236 122.786 20.7563 122.809 20.6947C122.831 20.633 122.897 20.6003 122.955 20.6216C123.013 20.6429 123.042 20.7102 123.02 20.7719Z" fill="#D1FEF9"/>
<path d="M109.076 24.4671C109.04 24.5654 108.935 24.6176 108.842 24.5836C108.75 24.5496 108.704 24.4424 108.74 24.344C108.776 24.2457 108.88 24.1936 108.973 24.2275C109.066 24.2615 109.112 24.3688 109.076 24.4671Z" fill="#D1FEF9"/>
<path d="M123.224 21.6356C123.175 21.7701 123.032 21.8415 122.905 21.795C122.778 21.7485 122.715 21.6017 122.764 21.4672C122.814 21.3327 122.956 21.2613 123.083 21.3078C123.211 21.3543 123.274 21.5011 123.224 21.6356Z" fill="#D1FEF9"/>
<path d="M87.7668 58.2468C87.7164 58.2145 87.6938 58.1598 87.7163 58.1248C87.7388 58.0899 87.7979 58.0877 87.8483 58.1201C87.8986 58.1525 87.9212 58.2071 87.8987 58.2421C87.8762 58.2771 87.8172 58.2792 87.7668 58.2468Z" fill="#D1FEF9"/>
<path d="M87.9613 55.7279C87.9061 55.6925 87.8814 55.6327 87.906 55.5943C87.9307 55.556 87.9953 55.5537 88.0505 55.5891C88.1057 55.6246 88.1304 55.6844 88.1058 55.7227C88.0812 55.7611 88.0165 55.7634 87.9613 55.7279Z" fill="#D1FEF9"/>
<path d="M88.5244 55.4746C88.4501 55.4268 88.4167 55.3462 88.4499 55.2945C88.4831 55.2429 88.5703 55.2397 88.6447 55.2875C88.719 55.3353 88.7524 55.4159 88.7192 55.4676C88.686 55.5192 88.5988 55.5224 88.5244 55.4746Z" fill="#D1FEF9"/>
<path d="M88.4669 54.023C88.4334 54.0014 88.4183 53.965 88.4333 53.9416C88.4483 53.9183 88.4877 53.9169 88.5212 53.9385C88.5548 53.96 88.5699 53.9965 88.5549 54.0198C88.5399 54.0431 88.5005 54.0445 88.4669 54.023Z" fill="#D1FEF9"/>
<path d="M88.0061 52.3372C87.899 52.2684 87.851 52.1523 87.8988 52.0779C87.9466 52.0035 88.0721 51.999 88.1792 52.0678C88.2863 52.1366 88.3343 52.2527 88.2865 52.3271C88.2387 52.4015 88.1131 52.406 88.0061 52.3372Z" fill="#D1FEF9"/>
<path d="M88.5349 52.0975C88.4989 52.0744 88.4828 52.0354 88.4988 52.0104C88.5149 51.9854 88.5571 51.9838 88.5931 52.007C88.629 52.0301 88.6452 52.0691 88.6291 52.0941C88.613 52.1191 88.5709 52.1206 88.5349 52.0975Z" fill="#D1FEF9"/>
<path d="M89.8501 54.9804C89.7938 54.9442 89.7686 54.8832 89.7937 54.8441C89.8188 54.805 89.8848 54.8026 89.9411 54.8388C89.9974 54.875 90.0226 54.936 89.9975 54.9751C89.9723 55.0142 89.9064 55.0166 89.8501 54.9804Z" fill="#D1FEF9"/>
<path d="M88.8046 57.7183C88.7898 57.7088 88.7832 57.6927 88.7898 57.6824C88.7964 57.6721 88.8138 57.6715 88.8286 57.681C88.8435 57.6905 88.8501 57.7066 88.8435 57.7169C88.8369 57.7272 88.8195 57.7278 88.8046 57.7183Z" fill="#D1FEF9"/>
<path d="M88.3134 58.722C88.2532 58.6833 88.2262 58.6181 88.2531 58.5763C88.28 58.5345 88.3505 58.532 88.4106 58.5706C88.4708 58.6093 88.4978 58.6745 88.4709 58.7163C88.444 58.7581 88.3735 58.7606 88.3134 58.722Z" fill="#D1FEF9"/>
<path d="M88.0939 57.2072C88.0108 57.1537 87.9735 57.0636 88.0106 57.0058C88.0477 56.948 88.1452 56.9445 88.2284 56.998C88.3115 57.0514 88.3488 57.1416 88.3117 57.1993C88.2745 57.2571 88.177 57.2606 88.0939 57.2072Z" fill="#D1FEF9"/>
<path d="M88.758 56.6041C88.733 56.5881 88.7218 56.5609 88.7329 56.5436C88.7441 56.5262 88.7734 56.5251 88.7985 56.5412C88.8235 56.5573 88.8347 56.5844 88.8235 56.6018C88.8123 56.6192 88.783 56.6202 88.758 56.6041Z" fill="#D1FEF9"/>
<path d="M85.9361 54.8855C85.8496 54.8299 85.8108 54.7362 85.8494 54.6761C85.888 54.616 85.9894 54.6124 86.0759 54.6679C86.1623 54.7235 86.2011 54.8173 86.1625 54.8773C86.1239 54.9374 86.0225 54.941 85.9361 54.8855Z" fill="#D1FEF9"/>
<path d="M94.8339 48.8173C94.712 48.7389 94.6572 48.6067 94.7117 48.5219C94.7662 48.4372 94.9092 48.432 95.0311 48.5104C95.1531 48.5888 95.2078 48.721 95.1533 48.8058C95.0989 48.8905 94.9559 48.8957 94.8339 48.8173Z" fill="#D1FEF9"/>
<path d="M86.8374 53.6447C86.7968 53.6187 86.7786 53.5746 86.7968 53.5464C86.8149 53.5182 86.8625 53.5165 86.9031 53.5426C86.9437 53.5687 86.9619 53.6127 86.9437 53.6409C86.9256 53.6691 86.878 53.6708 86.8374 53.6447Z" fill="#D1FEF9"/>
<path d="M86.2148 55.2001C86.1766 55.1755 86.1595 55.1341 86.1765 55.1076C86.1936 55.0811 86.2384 55.0795 86.2766 55.104C86.3147 55.1285 86.3319 55.1699 86.3148 55.1965C86.2978 55.223 86.253 55.2246 86.2148 55.2001Z" fill="#D1FEF9"/>
<path d="M86.8963 54.2867C86.8597 54.2632 86.8434 54.2236 86.8597 54.1982C86.876 54.1729 86.9188 54.1713 86.9553 54.1948C86.9919 54.2183 87.0083 54.2579 86.9919 54.2833C86.9756 54.3086 86.9328 54.3102 86.8963 54.2867Z" fill="#D1FEF9"/>
<path d="M86.4041 56.175C86.3477 56.1387 86.3224 56.0775 86.3476 56.0383C86.3728 55.999 86.439 55.9967 86.4954 56.0329C86.5519 56.0692 86.5772 56.1304 86.552 56.1697C86.5268 56.2089 86.4606 56.2113 86.4041 56.175Z" fill="#D1FEF9"/>
<path d="M89.7654 49.5445C89.6964 49.5001 89.6655 49.4253 89.6963 49.3774C89.7271 49.3294 89.808 49.3265 89.877 49.3709C89.946 49.4152 89.977 49.49 89.9462 49.538C89.9153 49.5859 89.8344 49.5888 89.7654 49.5445Z" fill="#D1FEF9"/>
<path d="M90.3662 48.7532C90.3306 48.7304 90.3146 48.6917 90.3305 48.667C90.3464 48.6423 90.3882 48.6408 90.4238 48.6636C90.4594 48.6865 90.4754 48.7251 90.4595 48.7499C90.4436 48.7746 90.4018 48.7761 90.3662 48.7532Z" fill="#D1FEF9"/>
<path d="M91.8805 48.4109C91.8388 48.3841 91.8201 48.3389 91.8387 48.3099C91.8574 48.2809 91.9063 48.2792 91.9479 48.306C91.9896 48.3328 92.0083 48.378 91.9897 48.4069C91.9711 48.4359 91.9222 48.4377 91.8805 48.4109Z" fill="#D1FEF9"/>
<path d="M90.979 49.7837C90.9295 49.7519 90.9073 49.6983 90.9294 49.6639C90.9515 49.6296 91.0095 49.6275 91.0589 49.6593C91.1084 49.691 91.1305 49.7446 91.1085 49.779C91.0864 49.8134 91.0284 49.8155 90.979 49.7837Z" fill="#D1FEF9"/>
<path d="M90.6394 51.1588C90.5935 51.1293 90.5729 51.0795 90.5934 51.0476C90.6139 51.0156 90.6678 51.0137 90.7137 51.0432C90.7596 51.0727 90.7802 51.1226 90.7597 51.1545C90.7392 51.1864 90.6853 51.1883 90.6394 51.1588Z" fill="#D1FEF9"/>
<path d="M95.047 49.7596C95.0008 49.73 94.9801 49.68 95.0007 49.6479C95.0213 49.6159 95.0754 49.6139 95.1216 49.6436C95.1677 49.6732 95.1884 49.7232 95.1678 49.7553C95.1472 49.7873 95.0931 49.7893 95.047 49.7596Z" fill="#D1FEF9"/>
<path d="M95.5291 47.9565C95.4732 47.9205 95.4481 47.8599 95.4731 47.8211C95.498 47.7822 95.5636 47.7799 95.6195 47.8158C95.6754 47.8517 95.7005 47.9123 95.6755 47.9512C95.6505 47.99 95.585 47.9924 95.5291 47.9565Z" fill="#D1FEF9"/>
<path d="M93.9091 51.857C93.8308 51.8066 93.7956 51.7216 93.8306 51.6672C93.8656 51.6127 93.9575 51.6094 94.0359 51.6598C94.1142 51.7101 94.1494 51.7951 94.1144 51.8496C94.0794 51.904 93.9875 51.9073 93.9091 51.857Z" fill="#D1FEF9"/>
<path d="M93.0342 51.5038C93.0054 51.4853 92.9925 51.4541 93.0053 51.4341C93.0182 51.4141 93.0519 51.4129 93.0807 51.4314C93.1095 51.4499 93.1224 51.4811 93.1095 51.5011C93.0967 51.5211 93.0629 51.5223 93.0342 51.5038Z" fill="#D1FEF9"/>
<path d="M94.6245 50.1006C94.5912 50.0792 94.5763 50.0432 94.5912 50.0202C94.606 49.9971 94.645 49.9957 94.6782 50.017C94.7114 50.0384 94.7263 50.0744 94.7114 50.0974C94.6966 50.1205 94.6577 50.1219 94.6245 50.1006Z" fill="#D1FEF9"/>
<path d="M95.5666 49.622C95.5262 49.5961 95.5081 49.5523 95.5261 49.5242C95.5441 49.4961 95.5915 49.4944 95.6319 49.5204C95.6723 49.5463 95.6905 49.5901 95.6724 49.6182C95.6544 49.6463 95.607 49.648 95.5666 49.622Z" fill="#D1FEF9"/>
<path d="M142.294 45.5535C142.244 45.5211 142.221 45.4665 142.244 45.4315C142.266 45.3965 142.325 45.3944 142.376 45.4267C142.426 45.4591 142.449 45.5137 142.426 45.5487C142.404 45.5837 142.345 45.5858 142.294 45.5535Z" fill="#D1FEF9"/>
<path d="M142.489 43.0355C142.433 43.0001 142.409 42.9403 142.433 42.9019C142.458 42.8636 142.523 42.8613 142.578 42.8967C142.633 42.9322 142.658 42.992 142.633 43.0303C142.608 43.0687 142.544 43.071 142.489 43.0355Z" fill="#D1FEF9"/>
<path d="M143.05 42.7832C142.975 42.7354 142.942 42.6548 142.975 42.6031C143.009 42.5515 143.096 42.5483 143.17 42.5961C143.244 42.6439 143.278 42.7245 143.245 42.7762C143.211 42.8278 143.124 42.831 143.05 42.7832Z" fill="#D1FEF9"/>
<path d="M142.994 41.3306C142.961 41.309 142.946 41.2726 142.961 41.2493C142.976 41.2259 143.015 41.2245 143.049 41.2461C143.082 41.2677 143.097 41.3041 143.082 41.3274C143.067 41.3507 143.028 41.3522 142.994 41.3306Z" fill="#D1FEF9"/>
<path d="M142.531 39.6448C142.424 39.576 142.376 39.4599 142.424 39.3855C142.472 39.3111 142.598 39.3066 142.705 39.3754C142.812 39.4442 142.86 39.5603 142.812 39.6347C142.764 39.7091 142.639 39.7136 142.531 39.6448Z" fill="#D1FEF9"/>
<path d="M143.062 39.4051C143.026 39.382 143.01 39.343 143.026 39.318C143.042 39.293 143.084 39.2915 143.12 39.3146C143.156 39.3377 143.173 39.3767 143.156 39.4017C143.14 39.4267 143.098 39.4282 143.062 39.4051Z" fill="#D1FEF9"/>
<path d="M144.377 42.289C144.321 42.2528 144.296 42.1918 144.321 42.1527C144.346 42.1136 144.412 42.1112 144.468 42.1474C144.525 42.1836 144.55 42.2446 144.525 42.2837C144.5 42.3228 144.434 42.3252 144.377 42.289Z" fill="#D1FEF9"/>
<path d="M143.332 45.0249C143.317 45.0154 143.311 44.9993 143.317 44.989C143.324 44.9787 143.341 44.9781 143.356 44.9876C143.371 44.9972 143.377 45.0132 143.371 45.0235C143.364 45.0338 143.347 45.0345 143.332 45.0249Z" fill="#D1FEF9"/>
<path d="M142.841 46.0296C142.781 45.9909 142.754 45.9257 142.78 45.8839C142.807 45.8421 142.878 45.8396 142.938 45.8783C142.998 45.9169 143.025 45.9821 142.998 46.0239C142.971 46.0657 142.901 46.0682 142.841 46.0296Z" fill="#D1FEF9"/>
<path d="M142.619 44.5158C142.536 44.4623 142.499 44.3722 142.536 44.3144C142.573 44.2566 142.671 44.2531 142.754 44.3066C142.837 44.36 142.874 44.4502 142.837 44.5079C142.8 44.5657 142.702 44.5692 142.619 44.5158Z" fill="#D1FEF9"/>
<path d="M143.285 43.9108C143.26 43.8947 143.249 43.8676 143.26 43.8502C143.271 43.8328 143.301 43.8318 143.326 43.8478C143.351 43.8639 143.362 43.891 143.351 43.9084C143.34 43.9258 143.31 43.9269 143.285 43.9108Z" fill="#D1FEF9"/>
<path d="M140.463 42.1931C140.377 42.1375 140.338 42.0438 140.377 41.9837C140.415 41.9236 140.517 41.92 140.603 41.9756C140.69 42.0311 140.728 42.1249 140.69 42.1849C140.651 42.245 140.55 42.2487 140.463 42.1931Z" fill="#D1FEF9"/>
<path d="M149.361 36.1249C149.239 36.0465 149.185 35.9143 149.239 35.8296C149.294 35.7448 149.437 35.7397 149.558 35.818C149.68 35.8964 149.735 36.0287 149.681 36.1134C149.626 36.1981 149.483 36.2033 149.361 36.1249Z" fill="#D1FEF9"/>
<path d="M141.365 40.9524C141.324 40.9263 141.306 40.8823 141.324 40.8541C141.342 40.8259 141.39 40.8241 141.43 40.8502C141.471 40.8763 141.489 40.9203 141.471 40.9485C141.453 40.9767 141.405 40.9784 141.365 40.9524Z" fill="#D1FEF9"/>
<path d="M140.742 42.5077C140.704 42.4832 140.687 42.4418 140.704 42.4152C140.721 42.3887 140.766 42.3871 140.804 42.4116C140.842 42.4362 140.859 42.4776 140.842 42.5041C140.825 42.5306 140.78 42.5323 140.742 42.5077Z" fill="#D1FEF9"/>
<path d="M141.422 41.5953C141.385 41.5718 141.369 41.5322 141.385 41.5068C141.401 41.4815 141.444 41.4799 141.481 41.5034C141.517 41.5269 141.534 41.5665 141.517 41.5919C141.501 41.6172 141.458 41.6188 141.422 41.5953Z" fill="#D1FEF9"/>
<path d="M140.931 43.4826C140.875 43.4463 140.85 43.3851 140.875 43.3459C140.9 43.3067 140.966 43.3043 141.023 43.3406C141.079 43.3768 141.105 43.438 141.079 43.4773C141.054 43.5165 140.988 43.5189 140.931 43.4826Z" fill="#D1FEF9"/>
<path d="M144.293 36.8531C144.224 36.8087 144.193 36.7339 144.224 36.686C144.254 36.638 144.335 36.6351 144.404 36.6795C144.473 36.7238 144.504 36.7986 144.474 36.8466C144.443 36.8945 144.362 36.8974 144.293 36.8531Z" fill="#D1FEF9"/>
<path d="M144.892 36.0618C144.856 36.0389 144.84 36.0003 144.856 35.9756C144.872 35.9509 144.914 35.9494 144.949 35.9722C144.985 35.9951 145.001 36.0337 144.985 36.0585C144.969 36.0832 144.927 36.0847 144.892 36.0618Z" fill="#D1FEF9"/>
<path d="M146.408 35.7185C146.366 35.6917 146.347 35.6465 146.366 35.6175C146.385 35.5886 146.434 35.5868 146.475 35.6136C146.517 35.6404 146.536 35.6856 146.517 35.7146C146.498 35.7435 146.45 35.7453 146.408 35.7185Z" fill="#D1FEF9"/>
<path d="M145.506 37.0913C145.457 37.0595 145.435 37.0059 145.457 36.9716C145.479 36.9372 145.537 36.9351 145.586 36.9669C145.636 36.9987 145.658 37.0523 145.636 37.0866C145.614 37.121 145.556 37.1231 145.506 37.0913Z" fill="#D1FEF9"/>
<path d="M145.167 38.4664C145.121 38.4369 145.1 38.3871 145.121 38.3552C145.141 38.3233 145.195 38.3213 145.241 38.3508C145.287 38.3804 145.308 38.4302 145.287 38.4621C145.267 38.494 145.213 38.496 145.167 38.4664Z" fill="#D1FEF9"/>
<path d="M149.574 37.0673C149.528 37.0376 149.507 36.9876 149.528 36.9556C149.549 36.9235 149.603 36.9216 149.649 36.9512C149.695 36.9809 149.716 37.0309 149.695 37.0629C149.675 37.095 149.62 37.0969 149.574 37.0673Z" fill="#D1FEF9"/>
<path d="M150.056 35.2631C150.001 35.2272 149.975 35.1666 150 35.1277C150.025 35.0889 150.091 35.0865 150.147 35.1224C150.203 35.1584 150.228 35.219 150.203 35.2578C150.178 35.2967 150.112 35.299 150.056 35.2631Z" fill="#D1FEF9"/>
<path d="M148.436 39.1656C148.358 39.1152 148.323 39.0302 148.358 38.9758C148.393 38.9213 148.485 38.918 148.563 38.9684C148.642 39.0187 148.677 39.1037 148.642 39.1582C148.607 39.2126 148.515 39.2159 148.436 39.1656Z" fill="#D1FEF9"/>
<path d="M147.562 38.8104C147.533 38.7919 147.52 38.7607 147.533 38.7407C147.546 38.7207 147.579 38.7195 147.608 38.738C147.637 38.7565 147.65 38.7877 147.637 38.8077C147.624 38.8277 147.59 38.8289 147.562 38.8104Z" fill="#D1FEF9"/>
<path d="M149.152 37.4082C149.119 37.3869 149.104 37.3508 149.119 37.3278C149.133 37.3047 149.172 37.3033 149.206 37.3246C149.239 37.346 149.254 37.382 149.239 37.4051C149.224 37.4281 149.185 37.4295 149.152 37.4082Z" fill="#D1FEF9"/>
<path d="M150.094 36.9296C150.054 36.9037 150.035 36.8599 150.053 36.8318C150.071 36.8037 150.119 36.802 150.159 36.828C150.2 36.854 150.218 36.8978 150.2 36.9258C150.182 36.9539 150.134 36.9556 150.094 36.9296Z" fill="#D1FEF9"/>
<path d="M89.8666 69.7177C89.8609 69.6541 89.8126 69.6174 89.7587 69.6358C89.7048 69.6542 89.6657 69.7207 89.6714 69.7843C89.677 69.8479 89.7253 69.8845 89.7793 69.8661C89.8332 69.8478 89.8723 69.7813 89.8666 69.7177Z" fill="#D1FEF9"/>
<path d="M86.8725 69.4279C86.8663 69.3583 86.8134 69.3181 86.7544 69.3383C86.6953 69.3584 86.6525 69.4312 86.6587 69.5008C86.6649 69.5705 86.7178 69.6106 86.7768 69.5905C86.8359 69.5704 86.8787 69.4976 86.8725 69.4279Z" fill="#D1FEF9"/>
<path d="M86.2332 70.0128C86.2248 69.9192 86.1537 69.8653 86.0744 69.8923C85.9951 69.9194 85.9375 70.0172 85.9458 70.1108C85.9542 70.2044 86.0253 70.2583 86.1046 70.2313C86.1839 70.2043 86.2415 70.1064 86.2332 70.0128Z" fill="#D1FEF9"/>
<path d="M84.6116 69.6543C84.6078 69.6119 84.5756 69.5874 84.5397 69.5997C84.5037 69.6119 84.4777 69.6562 84.4814 69.6986C84.4852 69.741 84.5174 69.7655 84.5534 69.7532C84.5893 69.741 84.6154 69.6967 84.6116 69.6543Z" fill="#D1FEF9"/>
<path d="M82.9752 68.7895C82.9631 68.6544 82.8605 68.5764 82.7459 68.6155C82.6313 68.6546 82.5482 68.7958 82.5602 68.931C82.5723 69.0662 82.6749 69.1441 82.7895 69.1051C82.9041 69.066 82.9872 68.9247 82.9752 68.7895Z" fill="#D1FEF9"/>
<path d="M82.3723 69.3409C82.3683 69.2955 82.3338 69.2693 82.2953 69.2824C82.2568 69.2956 82.2289 69.343 82.2329 69.3885C82.237 69.4339 82.2715 69.4601 82.31 69.4469C82.3485 69.4338 82.3764 69.3863 82.3723 69.3409Z" fill="#D1FEF9"/>
<path d="M84.8473 71.4152C84.8409 71.3441 84.787 71.3031 84.7267 71.3237C84.6665 71.3442 84.6228 71.4185 84.6292 71.4895C84.6355 71.5606 84.6895 71.6015 84.7497 71.581C84.8099 71.5605 84.8536 71.4862 84.8473 71.4152Z" fill="#D1FEF9"/>
<path d="M88.6194 70.7869C88.6177 70.768 88.6034 70.7571 88.5873 70.7625C88.5713 70.768 88.5597 70.7877 88.5614 70.8066C88.5631 70.8255 88.5774 70.8364 88.5934 70.8309C88.6095 70.8255 88.6211 70.8057 88.6194 70.7869Z" fill="#D1FEF9"/>
<path d="M90.0705 70.4334C90.0637 70.3575 90.006 70.3137 89.9417 70.3356C89.8773 70.3576 89.8306 70.4369 89.8374 70.5129C89.8441 70.5888 89.9018 70.6326 89.9662 70.6107C90.0306 70.5887 90.0773 70.5094 90.0705 70.4334Z" fill="#D1FEF9"/>
<path d="M88.4792 69.8768C88.4698 69.7718 88.3901 69.7113 88.3011 69.7416C88.2121 69.772 88.1475 69.8817 88.1569 69.9867C88.1662 70.0916 88.246 70.1522 88.335 70.1218C88.424 70.0915 88.4885 69.9818 88.4792 69.8768Z" fill="#D1FEF9"/>
<path d="M87.3773 70.5071C87.3745 70.4755 87.3504 70.4572 87.3236 70.4663C87.2967 70.4755 87.2772 70.5086 87.28 70.5403C87.2829 70.572 87.3069 70.5902 87.3338 70.5811C87.3606 70.5719 87.3801 70.5388 87.3773 70.5071Z" fill="#D1FEF9"/>
<path d="M87.1671 66.9635C87.1574 66.8543 87.0745 66.7914 86.9819 66.8229C86.8894 66.8545 86.8223 66.9686 86.832 67.0777C86.8417 67.1869 86.9246 67.2498 87.0172 67.2183C87.1097 67.1867 87.1768 67.0727 87.1671 66.9635Z" fill="#D1FEF9"/>
<path d="M74.7174 75.809C74.7037 75.6551 74.5867 75.5663 74.4562 75.6108C74.3257 75.6553 74.231 75.8162 74.2447 75.9702C74.2584 76.1242 74.3754 76.213 74.5059 76.1685C74.6364 76.124 74.7311 75.963 74.7174 75.809Z" fill="#D1FEF9"/>
<path d="M85.192 67.7325C85.1875 67.6812 85.1485 67.6517 85.1051 67.6665C85.0616 67.6813 85.0301 67.7349 85.0347 67.7861C85.0393 67.8374 85.0782 67.8669 85.1216 67.8521C85.1651 67.8373 85.1966 67.7837 85.192 67.7325Z" fill="#D1FEF9"/>
<path d="M87.3531 67.3437C87.3488 67.2955 87.3122 67.2677 87.2713 67.2816C87.2305 67.2955 87.2008 67.3459 87.2051 67.3941C87.2094 67.4424 87.246 67.4701 87.2869 67.4562C87.3278 67.4423 87.3574 67.3919 87.3531 67.3437Z" fill="#D1FEF9"/>
<path d="M85.89 67.9288C85.8859 67.8826 85.8509 67.8561 85.8118 67.8694C85.7727 67.8827 85.7443 67.9309 85.7484 67.977C85.7525 68.0232 85.7876 68.0497 85.8267 68.0364C85.8658 68.0231 85.8941 67.9749 85.89 67.9288Z" fill="#D1FEF9"/>
<path d="M88.3479 67.7543C88.3416 67.683 88.2875 67.642 88.227 67.6626C88.1666 67.6832 88.1228 67.7576 88.1291 67.8289C88.1355 67.9002 88.1896 67.9413 88.25 67.9207C88.3105 67.9001 88.3543 67.8256 88.3479 67.7543Z" fill="#D1FEF9"/>
<path d="M78.6948 70.2169C78.687 70.1298 78.6209 70.0795 78.547 70.1047C78.4732 70.1299 78.4196 70.2209 78.4273 70.3081C78.4351 70.3952 78.5013 70.4454 78.5751 70.4202C78.649 70.3951 78.7026 70.304 78.6948 70.2169Z" fill="#D1FEF9"/>
<path d="M77.4198 70.7358C77.4158 70.6908 77.3817 70.6649 77.3436 70.6779C77.3054 70.6909 77.2778 70.7379 77.2818 70.7829C77.2858 70.8278 77.32 70.8537 77.3581 70.8407C77.3962 70.8277 77.4238 70.7808 77.4198 70.7358Z" fill="#D1FEF9"/>
<path d="M76.0867 72.3838C76.082 72.3311 76.042 72.3008 75.9974 72.316C75.9528 72.3312 75.9204 72.3862 75.9251 72.4389C75.9298 72.4915 75.9698 72.5218 76.0144 72.5066C76.059 72.4914 76.0914 72.4364 76.0867 72.3838Z" fill="#D1FEF9"/>
<path d="M78.2128 71.641C78.2073 71.5785 78.1599 71.5426 78.1069 71.5606C78.054 71.5786 78.0156 71.6439 78.0212 71.7063C78.0267 71.7687 78.0742 71.8047 78.1271 71.7867C78.18 71.7686 78.2184 71.7034 78.2128 71.641Z" fill="#D1FEF9"/>
<path d="M79.9949 71.5345C79.9897 71.4765 79.9457 71.443 79.8965 71.4598C79.8473 71.4766 79.8116 71.5372 79.8168 71.5952C79.822 71.6532 79.866 71.6866 79.9152 71.6698C79.9644 71.6531 80 71.5925 79.9949 71.5345Z" fill="#D1FEF9"/>
<path d="M75.6596 76.2418C75.6544 76.1836 75.6102 76.15 75.5608 76.1668C75.5115 76.1836 75.4756 76.2445 75.4808 76.3027C75.486 76.361 75.5303 76.3946 75.5796 76.3777C75.629 76.3609 75.6648 76.3 75.6596 76.2418Z" fill="#D1FEF9"/>
<path d="M73.301 76.4223C73.2947 76.3518 73.2411 76.3111 73.1813 76.3315C73.1214 76.3519 73.078 76.4256 73.0843 76.4962C73.0906 76.5668 73.1442 76.6075 73.204 76.5871C73.2639 76.5667 73.3073 76.4929 73.301 76.4223Z" fill="#D1FEF9"/>
<path d="M78.7604 75.3794C78.7516 75.2805 78.6765 75.2234 78.5926 75.252C78.5087 75.2806 78.4479 75.384 78.4567 75.483C78.4655 75.5819 78.5406 75.6389 78.6245 75.6103C78.7084 75.5818 78.7692 75.4784 78.7604 75.3794Z" fill="#D1FEF9"/>
<path d="M78.9006 74.3151C78.8974 74.2788 78.8698 74.2578 78.839 74.2683C78.8082 74.2788 78.7858 74.3168 78.7891 74.3531C78.7923 74.3895 78.8199 74.4104 78.8507 74.3999C78.8815 74.3894 78.9039 74.3515 78.9006 74.3151Z" fill="#D1FEF9"/>
<path d="M76.3114 75.8333C76.3077 75.7914 76.2758 75.7672 76.2403 75.7793C76.2047 75.7915 76.179 75.8353 76.1827 75.8772C76.1864 75.9191 76.2183 75.9433 76.2538 75.9312C76.2894 75.9191 76.3151 75.8753 76.3114 75.8333Z" fill="#D1FEF9"/>
<path d="M75.1796 76.8035C75.1751 76.7524 75.1363 76.723 75.0931 76.7378C75.0498 76.7525 75.0185 76.8058 75.023 76.8568C75.0276 76.9079 75.0663 76.9373 75.1096 76.9225C75.1528 76.9078 75.1842 76.8545 75.1796 76.8035Z" fill="#D1FEF9"/>
<path d="M173.49 52.5404C173.542 52.5036 173.55 52.4434 173.507 52.406C173.464 52.3686 173.387 52.3682 173.335 52.405C173.283 52.4418 173.275 52.502 173.318 52.5394C173.361 52.5768 173.438 52.5773 173.49 52.5404Z" fill="#D1FEF9"/>
<path d="M172.239 49.8048C172.296 49.7644 172.304 49.6985 172.257 49.6576C172.21 49.6166 172.125 49.6161 172.068 49.6565C172.011 49.6968 172.003 49.7627 172.05 49.8037C172.097 49.8446 172.182 49.8451 172.239 49.8048Z" fill="#D1FEF9"/>
<path d="M171.411 49.5465C171.488 49.4923 171.499 49.4037 171.435 49.3487C171.372 49.2936 171.259 49.293 171.182 49.3472C171.105 49.4014 171.094 49.4899 171.157 49.545C171.221 49.6 171.334 49.6007 171.411 49.5465Z" fill="#D1FEF9"/>
<path d="M170.907 47.9638C170.942 47.9393 170.947 47.8991 170.918 47.8742C170.889 47.8493 170.838 47.849 170.803 47.8735C170.768 47.8981 170.763 47.9382 170.792 47.9631C170.821 47.988 170.872 47.9884 170.907 47.9638Z" fill="#D1FEF9"/>
<path d="M170.834 46.1139C170.945 46.0356 170.961 45.9077 170.87 45.8282C170.778 45.7487 170.614 45.7477 170.503 45.826C170.393 45.9043 170.377 46.0322 170.468 46.1117C170.559 46.1912 170.723 46.1922 170.834 46.1139Z" fill="#D1FEF9"/>
<path d="M170.056 45.8704C170.093 45.8441 170.098 45.8011 170.067 45.7744C170.037 45.7477 169.982 45.7474 169.944 45.7737C169.907 45.8 169.902 45.8429 169.933 45.8697C169.963 45.8964 170.018 45.8967 170.056 45.8704Z" fill="#D1FEF9"/>
<path d="M169.502 49.0504C169.56 49.0093 169.569 48.9421 169.521 48.9003C169.473 48.8585 169.386 48.858 169.328 48.8991C169.27 48.9403 169.262 49.0075 169.31 49.0493C169.358 49.0911 169.444 49.0916 169.502 49.0504Z" fill="#D1FEF9"/>
<path d="M171.939 51.998C171.955 51.987 171.957 51.9691 171.944 51.958C171.932 51.9469 171.909 51.9468 171.893 51.9577C171.878 51.9687 171.876 51.9865 171.888 51.9977C171.901 52.0088 171.924 52.0089 171.939 51.998Z" fill="#D1FEF9"/>
<path d="M172.974 53.0753C173.037 53.0313 173.046 52.9594 172.994 52.9148C172.943 52.8701 172.851 52.8696 172.789 52.9135C172.726 52.9575 172.717 53.0294 172.769 53.074C172.82 53.1187 172.912 53.1192 172.974 53.0753Z" fill="#D1FEF9"/>
<path d="M172.657 51.4201C172.743 51.3593 172.755 51.26 172.684 51.1983C172.613 51.1365 172.486 51.1358 172.4 51.1966C172.314 51.2574 172.302 51.3567 172.373 51.4184C172.443 51.4802 172.571 51.4809 172.657 51.4201Z" fill="#D1FEF9"/>
<path d="M171.558 50.7833C171.584 50.7649 171.588 50.7349 171.566 50.7163C171.545 50.6977 171.507 50.6975 171.481 50.7158C171.455 50.7341 171.451 50.7641 171.472 50.7828C171.494 50.8014 171.532 50.8016 171.558 50.7833Z" fill="#D1FEF9"/>
<path d="M174.517 48.8241C174.607 48.7608 174.619 48.6576 174.546 48.5934C174.472 48.5292 174.34 48.5284 174.25 48.5916C174.16 48.6548 174.148 48.7581 174.221 48.8223C174.295 48.8865 174.427 48.8873 174.517 48.8241Z" fill="#D1FEF9"/>
<path d="M160.617 42.4956C160.743 42.4064 160.761 42.2607 160.657 42.1701C160.553 42.0796 160.367 42.0785 160.24 42.1676C160.114 42.2568 160.096 42.4025 160.2 42.4931C160.304 42.5836 160.491 42.5847 160.617 42.4956Z" fill="#D1FEF9"/>
<path d="M172.862 47.5007C172.904 47.471 172.91 47.4225 172.875 47.3924C172.84 47.3623 172.778 47.3619 172.736 47.3916C172.694 47.4213 172.688 47.4697 172.723 47.4999C172.757 47.53 172.82 47.5304 172.862 47.5007Z" fill="#D1FEF9"/>
<path d="M174.283 49.1752C174.323 49.1473 174.329 49.1016 174.296 49.0733C174.263 49.0449 174.205 49.0446 174.165 49.0725C174.126 49.1004 174.12 49.146 174.153 49.1744C174.185 49.2028 174.244 49.2031 174.283 49.1752Z" fill="#D1FEF9"/>
<path d="M173.041 48.2022C173.079 48.1755 173.084 48.1319 173.053 48.1047C173.022 48.0776 172.966 48.0773 172.928 48.104C172.89 48.1307 172.885 48.1743 172.916 48.2015C172.947 48.2286 173.003 48.2289 173.041 48.2022Z" fill="#D1FEF9"/>
<path d="M174.427 50.2421C174.485 50.2008 174.494 50.1334 174.445 50.0914C174.397 50.0495 174.311 50.049 174.252 50.0903C174.194 50.1316 174.186 50.199 174.234 50.2409C174.282 50.2829 174.368 50.2834 174.427 50.2421Z" fill="#D1FEF9"/>
<path d="M167.452 43.1284C167.523 43.0779 167.534 42.9955 167.475 42.9442C167.416 42.893 167.31 42.8924 167.239 42.9428C167.167 42.9933 167.157 43.0757 167.216 43.1269C167.275 43.1782 167.38 43.1788 167.452 43.1284Z" fill="#D1FEF9"/>
<path d="M166.36 42.2859C166.397 42.2599 166.402 42.2173 166.372 42.1909C166.342 42.1645 166.287 42.1641 166.25 42.1902C166.213 42.2162 166.208 42.2587 166.239 42.2852C166.269 42.3116 166.323 42.3119 166.36 42.2859Z" fill="#D1FEF9"/>
<path d="M164.268 41.9612C164.311 41.9307 164.317 41.8809 164.281 41.85C164.246 41.819 164.182 41.8186 164.139 41.8491C164.096 41.8796 164.089 41.9294 164.125 41.9604C164.16 41.9913 164.224 41.9917 164.268 41.9612Z" fill="#D1FEF9"/>
<path d="M165.978 43.4269C166.029 43.3907 166.036 43.3316 165.994 43.2949C165.952 43.2582 165.876 43.2578 165.825 43.2939C165.774 43.3301 165.767 43.3891 165.809 43.4259C165.851 43.4626 165.927 43.463 165.978 43.4269Z" fill="#D1FEF9"/>
<path d="M166.962 44.9133C167.01 44.8797 167.017 44.8248 166.978 44.7907C166.938 44.7566 166.868 44.7562 166.821 44.7898C166.773 44.8234 166.766 44.8782 166.805 44.9124C166.844 44.9465 166.915 44.9469 166.962 44.9133Z" fill="#D1FEF9"/>
<path d="M160.717 43.5278C160.765 43.4941 160.772 43.439 160.732 43.4047C160.693 43.3705 160.623 43.37 160.575 43.4038C160.527 43.4375 160.52 43.4926 160.56 43.5269C160.599 43.5611 160.669 43.5615 160.717 43.5278Z" fill="#D1FEF9"/>
<path d="M159.375 41.5792C159.433 41.5384 159.441 41.4716 159.394 41.4301C159.346 41.3885 159.26 41.388 159.202 41.4289C159.145 41.4698 159.136 41.5366 159.184 41.5781C159.232 41.6196 159.317 41.6201 159.375 41.5792Z" fill="#D1FEF9"/>
<path d="M163.018 45.7769C163.099 45.7196 163.111 45.626 163.044 45.5678C162.977 45.5096 162.857 45.5089 162.776 45.5662C162.695 45.6235 162.683 45.7171 162.75 45.7753C162.817 45.8335 162.937 45.8342 163.018 45.7769Z" fill="#D1FEF9"/>
<path d="M164.01 45.3635C164.04 45.3425 164.044 45.3081 164.02 45.2867C163.995 45.2653 163.951 45.2651 163.921 45.2861C163.891 45.3072 163.887 45.3415 163.912 45.3629C163.936 45.3843 163.98 45.3846 164.01 45.3635Z" fill="#D1FEF9"/>
<path d="M161.397 43.8862C161.432 43.8619 161.437 43.8222 161.408 43.7975C161.38 43.7729 161.329 43.7726 161.295 43.7969C161.26 43.8211 161.255 43.8608 161.284 43.8855C161.312 43.9101 161.363 43.9104 161.397 43.8862Z" fill="#D1FEF9"/>
<path d="M159.99 43.394C160.031 43.3645 160.037 43.3162 160.003 43.2862C159.969 43.2562 159.907 43.2558 159.865 43.2854C159.823 43.3149 159.817 43.3632 159.851 43.3932C159.886 43.4232 159.948 43.4236 159.99 43.394Z" fill="#D1FEF9"/>
<path d="M209.231 88.775C208.832 87.2434 213.616 82.229 207.579 76.6272C205.314 74.5257 201.827 75.4313 200.346 74.4242C198.865 73.4171 200.061 70.6477 196.473 63.9758C192.885 57.3039 188.785 54.5974 184.741 54.8492C180.697 55.101 177.394 56.6116 175.059 58.6257C174.983 54.0099 173.487 44.1616 168.111 41.6943C161.39 38.6101 158.428 41.6943 156.207 41.6943C153.986 41.6943 154.1 39.4913 150.341 37.9177C146.582 36.3442 143.165 38.736 140.26 37.9177C137.356 37.0995 137.242 33.6377 132.8 28.6652C128.357 23.6928 125.168 17.3986 110.702 19.7904C96.2355 22.1822 90.8819 33.6377 90.6541 40.4984C90.4263 47.3591 90.4832 46.7296 86.3257 51.0727C82.1681 55.4157 86.4396 62.2134 86.3257 63.9758C86.2117 65.7382 69.9231 67.1859 69.9231 88.6491" stroke="#5EE1EA" stroke-width="0.155848"/>
<path d="M99.2776 41.0847C107.732 41.0847 111.165 45.4425 112.857 49.582C112.096 50.3761 109.468 51.8443 104.948 50.8823C100.428 49.9204 99.2762 43.9096 99.2776 41.0847Z" fill="#D9D9D9"/>
<mask id="mask0_1649_5538" style="mask-type:alpha" maskUnits="userSpaceOnUse" x="104" y="44" width="8" height="9">
<path d="M111.142 47.941C111.352 50.2203 110.106 52.1987 108.04 52.3892C105.975 52.5797 104.388 50.8625 104.177 48.5832C103.967 46.3038 105.345 44.3133 107.279 44.1349C109.214 43.9566 110.932 45.6616 111.142 47.941Z" fill="black"/>
</mask>
<g mask="url(#mask0_1649_5538)">
<path d="M99.1581 41.2146C106.889 38.3241 111.432 45.6751 112.737 49.7119C111.976 50.506 109.323 51.8536 104.804 50.8917C100.284 49.9297 99.1567 44.0395 99.1581 41.2146Z" fill="black"/>
</g>
<path d="M129.548 33.7861C123.341 36.8946 121.194 43.8239 122.1 47.9685C123.158 48.2707 126.128 48.098 129.548 44.9896C132.967 41.8811 130.972 36.2254 129.548 33.7861Z" fill="#D9D9D9"/>
<mask id="mask1_1649_5538" style="mask-type:alpha" maskUnits="userSpaceOnUse" x="122" y="39" width="8" height="10">
<path d="M122.24 44.0499C122.24 46.3389 123.663 48.1945 125.737 48.1945C127.812 48.1945 129.234 46.3389 129.234 44.0499C129.234 41.7609 127.68 39.9053 125.737 39.9053C123.795 39.9053 122.24 41.7609 122.24 44.0499Z" fill="#4A36C3"/>
</mask>
<g mask="url(#mask1_1649_5538)">
<path d="M129.428 33.915C121.295 35.3139 121.074 43.9528 121.981 48.0974C123.039 48.3996 126.009 48.2269 129.428 45.1185C132.848 42.01 130.853 36.3543 129.428 33.915Z" fill="#4A36C3"/>
</g>
<path d="M125.128 41.8867C125.102 41.8612 125.058 41.8733 125.049 41.9084L124.693 43.3166C124.689 43.33 124.68 43.3412 124.668 43.3472L123.326 43.9982C123.292 44.0145 123.29 44.0619 123.323 44.0807L124.586 44.8137C124.598 44.8209 124.607 44.8335 124.609 44.8477L124.808 46.2696C124.813 46.306 124.856 46.3225 124.885 46.299L126.026 45.3452C126.036 45.3366 126.049 45.3329 126.063 45.3349L127.532 45.5641C127.568 45.5697 127.597 45.5333 127.582 45.4996L127.02 44.1782C127.015 44.165 127.016 44.1499 127.023 44.1373L127.727 42.8581C127.745 42.8253 127.719 42.7856 127.682 42.789L126.196 42.9229C126.182 42.9242 126.169 42.9193 126.159 42.9096L125.128 41.8867Z" fill="#2D1D8E"/>
<path d="M161.583 90.6047C158.928 90.9283 158.626 83.8227 158.759 82.8996C160.276 81.6097 161.996 82.2933 162.706 83.1227C162.108 86.643 164.239 90.281 161.583 90.6047Z" fill="#DE493C"/>
<path d="M152.174 68.8071C150.33 70.6861 156.6 75.15 157.432 75.5372C159.577 74.6791 157.53 71.7347 157.228 70.703C154.005 69.3033 153.485 67.4713 152.174 68.8071Z" fill="url(#paint3_linear_1649_5538)"/>
<path d="M157.636 61.3714C161.272 55.5926 166.476 55.5925 169.824 58.4901C172.997 61.8565 170.716 65.7301 170.716 69.0056C170.716 72.1535 171.059 73.527 171.522 77.1964C172.002 80.9944 170.449 86.5894 164.079 86.0896C157.709 85.5898 156.403 77.6381 156.093 75.1571C155.783 72.6761 154.632 66.1469 157.636 61.3714Z" fill="url(#paint4_linear_1649_5538)"/>
<path d="M160.696 67.5025C159.055 67.0817 158.002 65.9427 157.645 65.1936C158.091 64.2481 159.295 62.1655 160.54 61.3989C162.097 60.4408 164.165 61.515 165.046 63.1637C165.75 64.4827 165.926 65.9283 166.155 66.9567C165.142 67.4907 162.923 68.0735 160.696 67.5025Z" fill="#FEF9F5"/>
<mask id="mask2_1649_5538" style="mask-type:alpha" maskUnits="userSpaceOnUse" x="158" y="60" width="7" height="7">
<path d="M158.9 63.4033C158.741 65.0202 159.739 66.4424 161.13 66.5799C162.522 66.7174 164.178 65.6132 164.338 63.9963C164.498 62.3794 163.1 60.8622 161.709 60.7247C160.318 60.5872 159.06 61.7865 158.9 63.4033Z" fill="black"/>
</mask>
<g mask="url(#mask2_1649_5538)">
<path d="M160.62 68.1704C159.036 67.572 157.926 65.9242 157.569 65.1751C158.015 64.2296 159.219 62.1469 160.464 61.3804C162.021 60.4222 164.089 61.4965 164.97 63.1452C165.674 64.4642 166.129 66.4183 166.422 67.2814C165.41 67.8154 162.601 68.9185 160.62 68.1704Z" fill="black"/>
</g>
<path d="M158.501 68.8951C156.807 70.9099 161.863 74.5582 162.695 74.9455C165.48 75.0591 165.574 73.0241 165.272 71.9923C162.049 70.5926 160.196 66.8804 158.501 68.8951Z" fill="url(#paint5_linear_1649_5538)"/>
<path d="M166.904 90.6047C164.248 90.9283 163.947 83.8227 164.079 82.8996C165.597 81.6097 167.316 82.2933 168.027 83.1227C167.428 86.643 169.559 90.281 166.904 90.6047Z" fill="url(#paint6_linear_1649_5538)"/>
<path d="M158.548 71.1621C161.466 74.6802 162.839 75.0521 163.268 75.2809C162.953 75.3095 161.945 75.1144 161.037 74.5086C160.264 73.9938 158.72 72.2776 158.548 71.1621Z" fill="#DB422A"/>
<g filter="url(#filter1_f_1649_5538)">
<rect x="115" y="54" width="43.6517" height="30.9026" rx="3.46442" fill="#DBFF00" fill-opacity="0.2"/>
</g>
<rect x="118.118" y="56.1484" width="37.4157" height="26.6067" rx="3.39513" fill="#F1FF50" fill-opacity="0.2" stroke="#FFF500" stroke-width="0.138577"/>
<circle cx="136.851" cy="66.9748" r="5.56076" stroke="#76FF9C" stroke-width="0.138577" stroke-dasharray="0.69 0.69"/>
<path d="M134.713 72.083L133.722 77.7652H131.48" stroke="#76FF9C" stroke-width="0.138577" stroke-dasharray="0.69 0.69"/>
<path d="M139.041 72.083L140.032 77.7652H142.273" stroke="#76FF9C" stroke-width="0.138577" stroke-dasharray="0.69 0.69"/>
<path d="M131.325 66.1396L128.041 68.4855L131.847 69.5802C131.899 69.9973 131.867 70.8835 131.325 71.092" stroke="#76FF9C" stroke-width="0.138577" stroke-dasharray="0.69 0.69"/>
<path d="M142.395 66.1396L145.68 68.4855L141.874 69.5802C141.822 69.9973 141.853 70.8835 142.395 71.092" stroke="#76FF9C" stroke-width="0.138577" stroke-dasharray="0.69 0.69"/>
<path d="M133.15 65.9844C133.463 66.2972 139.51 66.5057 140.657 65.9844" stroke="#76FF9C" stroke-width="0.138577" stroke-dasharray="0.69 0.69"/>
<circle cx="134.974" cy="64.0552" r="0.20852" fill="#76FF9C"/>
<circle cx="138.101" cy="64.0552" r="0.20852" fill="#76FF9C"/>
<rect x="150.069" y="49.0693" width="26.191" height="1.66292" rx="0.831461" fill="#F2A632" fill-opacity="0.2" stroke="#FFAB49" stroke-width="0.138577"/>
<rect x="150" y="49" width="17.7034" height="1.8015" rx="0.900749" fill="#F2A632" fill-opacity="0.7"/>
<rect x="180.053" y="60.0534" width="21.8932" height="11.2136" rx="2.61651" fill="#ACFF58" fill-opacity="0.2" stroke="#FFF500" stroke-width="0.106796"/>
<path d="M195.571 65.5421V65.7768C195.502 65.7368 195.433 65.7068 195.364 65.6868C195.294 65.6668 195.223 65.6568 195.151 65.6568C195.042 65.6568 194.961 65.6746 194.907 65.7103C194.854 65.745 194.828 65.7985 194.828 65.8706C194.828 65.9358 194.848 65.9845 194.888 66.0166C194.928 66.0488 195.027 66.0801 195.186 66.1105L195.283 66.1287C195.402 66.1513 195.492 66.1965 195.553 66.2643C195.614 66.3321 195.645 66.4203 195.645 66.529C195.645 66.6732 195.594 66.7862 195.491 66.8679C195.389 66.9487 195.246 66.9892 195.064 66.9892C194.992 66.9892 194.916 66.9813 194.837 66.9657C194.758 66.9509 194.672 66.9283 194.58 66.8979V66.6502C194.67 66.6963 194.755 66.731 194.837 66.7545C194.919 66.7771 194.996 66.7884 195.069 66.7884C195.175 66.7884 195.257 66.7671 195.315 66.7245C195.374 66.6811 195.403 66.6207 195.403 66.5433C195.403 66.4321 195.296 66.3551 195.083 66.3126L195.073 66.31L194.983 66.2917C194.845 66.2648 194.744 66.2196 194.68 66.1561C194.617 66.0918 194.585 66.0045 194.585 65.8941C194.585 65.7542 194.633 65.6464 194.727 65.5708C194.822 65.4943 194.957 65.4561 195.133 65.4561C195.211 65.4561 195.286 65.4634 195.358 65.4782C195.431 65.4921 195.501 65.5134 195.571 65.5421Z" fill="#76FF9C"/>
<path d="M193.39 66.4234C193.39 66.5311 193.41 66.6124 193.449 66.6672C193.489 66.7219 193.547 66.7493 193.625 66.7493H193.905V66.9514H193.601C193.458 66.9514 193.347 66.9057 193.268 66.8145C193.189 66.7224 193.15 66.592 193.15 66.4234V65.1028H192.766V64.915H193.39V66.4234Z" fill="#76FF9C"/>
<path d="M191.406 65.6594C191.284 65.6594 191.192 65.7068 191.129 65.8015C191.067 65.8963 191.035 66.0366 191.035 66.2226C191.035 66.4077 191.067 66.5481 191.129 66.6437C191.192 66.7384 191.284 66.7858 191.406 66.7858C191.528 66.7858 191.621 66.7384 191.683 66.6437C191.746 66.5481 191.777 66.4077 191.777 66.2226C191.777 66.0366 191.746 65.8963 191.683 65.8015C191.621 65.7068 191.528 65.6594 191.406 65.6594ZM191.406 65.4561C191.608 65.4561 191.763 65.5217 191.87 65.6529C191.978 65.7841 192.031 65.974 192.031 66.2226C192.031 66.472 191.978 66.6624 191.871 66.7936C191.764 66.924 191.609 66.9892 191.406 66.9892C191.203 66.9892 191.049 66.924 190.942 66.7936C190.835 66.6624 190.781 66.472 190.781 66.2226C190.781 65.974 190.835 65.7841 190.942 65.6529C191.049 65.5217 191.203 65.4561 191.406 65.4561Z" fill="#76FF9C"/>
<path d="M189.558 65.6594C189.436 65.6594 189.344 65.7068 189.282 65.8015C189.219 65.8963 189.188 66.0366 189.188 66.2226C189.188 66.4077 189.219 66.5481 189.282 66.6437C189.344 66.7384 189.436 66.7858 189.558 66.7858C189.681 66.7858 189.773 66.7384 189.836 66.6437C189.898 66.5481 189.93 66.4077 189.93 66.2226C189.93 66.0366 189.898 65.8963 189.836 65.8015C189.773 65.7068 189.681 65.6594 189.558 65.6594ZM189.558 65.4561C189.761 65.4561 189.915 65.5217 190.022 65.6529C190.13 65.7841 190.184 65.974 190.184 66.2226C190.184 66.472 190.13 66.6624 190.023 66.7936C189.917 66.924 189.761 66.9892 189.558 66.9892C189.356 66.9892 189.201 66.924 189.094 66.7936C188.987 66.6624 188.934 66.472 188.934 66.2226C188.934 65.974 188.987 65.7841 189.094 65.6529C189.201 65.5217 189.356 65.4561 189.558 65.4561Z" fill="#76FF9C"/>
<path d="M186.967 65.0049H188.452V65.2265H187.843V66.9513H187.578V65.2265H186.967V65.0049Z" fill="#76FF9C"/>
<line x1="180.763" y1="74.2079" x2="180.763" y2="81.9682" stroke="#E27526" stroke-opacity="0.3" stroke-width="0.41573" stroke-linecap="round"/>
<circle cx="180.762" cy="77.6723" r="0.762173" fill="#F57600"/>
<line x1="182.841" y1="74.2079" x2="182.841" y2="81.9682" stroke="#E27526" stroke-opacity="0.3" stroke-width="0.41573" stroke-linecap="round"/>
<circle cx="182.84" cy="79.6118" r="0.762173" fill="#F57600"/>
<line x1="184.921" y1="74.2079" x2="184.921" y2="81.9682" stroke="#E27526" stroke-opacity="0.3" stroke-width="0.41573" stroke-linecap="round"/>
<circle cx="184.92" cy="75.8706" r="0.762173" fill="#F57600"/>
<rect x="110.139" y="76.1386" width="10.2547" height="11.2247" rx="1.52435" stroke="#67EEAD" stroke-opacity="0.4" stroke-width="0.277154"/>
<rect x="136" y="80" width="18.7851" height="6.02552" rx="3.01276" fill="#16CF89"/>
<path d="M142.397 83.0856C142.459 83.1283 142.459 83.22 142.397 83.2628L140.192 84.7818C140.121 84.831 140.024 84.7799 140.024 84.6932L140.024 81.6551C140.024 81.5684 140.121 81.5173 140.192 81.5665L142.397 83.0856Z" fill="black"/>
<path d="M151.378 82.1209C151.38 82.1321 151.38 82.1432 151.378 82.1543C151.378 82.1654 151.375 82.1776 151.368 82.191C151.359 82.2221 151.349 82.2499 151.338 82.2744C151.324 82.3055 151.308 82.3322 151.288 82.3544C151.279 82.3678 151.27 82.3811 151.261 82.3945C151.254 82.4056 151.248 82.4167 151.241 82.4278L151.198 82.4845L150.771 83.1016L150.694 83.1983V84.0856C150.69 84.0967 150.687 84.1078 150.687 84.1189C150.687 84.1301 150.686 84.1423 150.684 84.1556C150.68 84.1667 150.676 84.1779 150.674 84.189C150.672 84.1979 150.668 84.2079 150.664 84.219C150.66 84.2279 150.657 84.2346 150.657 84.239C150.655 84.2435 150.653 84.2468 150.651 84.249C150.651 84.2512 150.65 84.2546 150.647 84.259C150.634 84.2813 150.615 84.3013 150.591 84.3191C150.542 84.3435 150.486 84.3491 150.424 84.3357C150.388 84.3313 150.362 84.3202 150.344 84.3024C150.333 84.2957 150.324 84.2879 150.317 84.279C150.31 84.2701 150.304 84.2601 150.297 84.249C150.293 84.2357 150.288 84.2235 150.284 84.2123C150.279 84.2012 150.276 84.1901 150.274 84.179C150.269 84.1679 150.267 84.1579 150.267 84.149C150.267 84.1378 150.267 84.1278 150.267 84.1189V83.2083L150.194 83.0949L149.76 82.4812L149.723 82.4211C149.71 82.4011 149.693 82.3778 149.673 82.3511C149.656 82.3266 149.64 82.2999 149.627 82.271C149.618 82.2577 149.61 82.2444 149.603 82.231C149.599 82.2154 149.594 82.1999 149.59 82.1843C149.583 82.1621 149.582 82.1398 149.587 82.1176C149.593 82.0887 149.607 82.0642 149.627 82.0442C149.649 82.0242 149.672 82.0086 149.697 81.9975C149.728 81.9753 149.763 81.9664 149.803 81.9708C149.828 81.9708 149.849 81.9753 149.867 81.9842C149.885 81.9931 149.902 82.0031 149.92 82.0142C149.94 82.0298 149.959 82.0464 149.977 82.0642C149.997 82.082 150.015 82.1009 150.03 82.1209C150.048 82.1432 150.065 82.1643 150.08 82.1843C150.096 82.2021 150.111 82.2232 150.127 82.2477L150.137 82.261C150.19 82.3322 150.24 82.4011 150.287 82.4678C150.334 82.5323 150.383 82.6024 150.434 82.678C150.438 82.6824 150.445 82.6913 150.454 82.7047C150.463 82.718 150.473 82.7336 150.484 82.7514C150.493 82.7358 150.501 82.7225 150.507 82.7113C150.516 82.698 150.523 82.6891 150.527 82.6846C150.578 82.609 150.627 82.5379 150.674 82.4712C150.721 82.4045 150.771 82.3355 150.824 82.2644L150.831 82.251C150.849 82.231 150.864 82.211 150.878 82.191C150.893 82.1687 150.91 82.1465 150.928 82.1243C150.956 82.0842 150.995 82.0498 151.044 82.0209C151.08 81.9964 151.117 81.9808 151.154 81.9742C151.197 81.9697 151.233 81.9786 151.264 82.0009C151.278 82.0098 151.29 82.0175 151.301 82.0242C151.314 82.0309 151.326 82.0387 151.334 82.0476C151.352 82.0676 151.367 82.092 151.378 82.1209Z" fill="black"/>
<path d="M149.642 84.1123C149.644 84.1256 149.645 84.139 149.645 84.1523C149.648 84.1634 149.649 84.1768 149.649 84.1923C149.649 84.219 149.641 84.2435 149.625 84.2657C149.619 84.2769 149.61 84.288 149.599 84.2991C149.588 84.308 149.574 84.3158 149.559 84.3224C149.503 84.3536 149.444 84.3647 149.382 84.3558C149.351 84.3469 149.323 84.3324 149.298 84.3124C149.294 84.308 149.291 84.3058 149.288 84.3058C149.286 84.3035 149.284 84.3002 149.282 84.2958C149.28 84.2935 149.277 84.2913 149.275 84.2891C149.273 84.2846 149.27 84.2813 149.265 84.2791C149.254 84.268 149.245 84.2579 149.238 84.2491C149.232 84.2379 149.225 84.2268 149.218 84.2157C149.214 84.2046 149.208 84.1946 149.202 84.1857C149.197 84.1746 149.192 84.1634 149.185 84.1523C149.181 84.1434 149.176 84.1356 149.172 84.129C149.167 84.1201 149.164 84.1112 149.162 84.1023C149.153 84.0823 149.147 84.0645 149.145 84.0489L149.075 83.8855C148.922 83.8855 148.768 83.8866 148.615 83.8888C148.463 83.8888 148.311 83.8877 148.158 83.8855L148.088 84.0489C148.083 84.0578 148.08 84.0667 148.078 84.0756C148.078 84.0845 148.075 84.0934 148.071 84.1023C148.067 84.1112 148.062 84.1201 148.058 84.129C148.055 84.1356 148.052 84.1434 148.048 84.1523C148.041 84.1634 148.034 84.1746 148.028 84.1857C148.023 84.1946 148.018 84.2046 148.011 84.2157C148.006 84.2268 148.001 84.2379 147.994 84.2491C147.988 84.2579 147.979 84.268 147.968 84.2791C147.963 84.2813 147.96 84.2846 147.958 84.2891C147.955 84.2913 147.953 84.2935 147.951 84.2958C147.949 84.3002 147.946 84.3035 147.944 84.3058C147.942 84.3058 147.939 84.308 147.934 84.3124C147.91 84.3324 147.882 84.3469 147.851 84.3558C147.789 84.3647 147.73 84.3536 147.674 84.3224C147.658 84.3158 147.645 84.308 147.634 84.2991C147.623 84.288 147.614 84.2769 147.607 84.2657C147.592 84.2435 147.584 84.219 147.584 84.1923C147.584 84.1768 147.584 84.1634 147.584 84.1523C147.586 84.139 147.588 84.1256 147.591 84.1123C147.595 84.0923 147.601 84.0723 147.607 84.0523C147.614 84.0322 147.617 84.0222 147.617 84.0222L148.311 82.3144L148.331 82.2611C148.336 82.2477 148.341 82.2355 148.348 82.2244C148.354 82.2133 148.36 82.1999 148.365 82.1843C148.376 82.1554 148.388 82.1299 148.401 82.1076C148.408 82.0943 148.416 82.0821 148.425 82.0709C148.433 82.0598 148.442 82.0487 148.451 82.0376C148.465 82.0198 148.483 82.0053 148.508 81.9942C148.539 81.9831 148.575 81.9775 148.615 81.9775C148.657 81.9775 148.694 81.9831 148.725 81.9942C148.749 82.0053 148.768 82.0198 148.781 82.0376C148.797 82.0576 148.814 82.0809 148.831 82.1076C148.845 82.1299 148.857 82.1554 148.868 82.1843C148.873 82.1999 148.878 82.2133 148.885 82.2244C148.892 82.2355 148.897 82.2477 148.902 82.2611L148.922 82.3144L149.615 84.0222C149.615 84.0222 149.619 84.0322 149.625 84.0523C149.632 84.0723 149.638 84.0923 149.642 84.1123ZM148.851 83.2951C148.823 83.2306 148.793 83.1639 148.761 83.095C148.733 83.026 148.701 82.956 148.668 82.8848C148.659 82.8648 148.65 82.8448 148.641 82.8248C148.632 82.8025 148.624 82.7814 148.615 82.7614C148.608 82.7814 148.6 82.8025 148.591 82.8248C148.582 82.8448 148.574 82.8648 148.565 82.8848C148.531 82.956 148.499 83.026 148.468 83.095C148.439 83.1639 148.41 83.2306 148.381 83.2951L148.321 83.4418H148.912L148.851 83.2951Z" fill="black"/>
<path d="M147.311 84.0854C147.316 84.0965 147.318 84.1132 147.318 84.1354C147.318 84.1554 147.318 84.1721 147.318 84.1854C147.318 84.2032 147.315 84.2199 147.308 84.2355C147.301 84.251 147.292 84.2655 147.281 84.2788C147.261 84.3055 147.232 84.3255 147.194 84.3389C147.141 84.3567 147.091 84.3656 147.044 84.3656C147.02 84.3678 146.994 84.3689 146.968 84.3689C146.941 84.3689 146.914 84.3711 146.888 84.3756H146.874C146.703 84.3778 146.526 84.3778 146.344 84.3756C146.299 84.3733 146.249 84.3733 146.194 84.3756C146.138 84.38 146.084 84.3789 146.03 84.3722C145.977 84.3678 145.928 84.3556 145.884 84.3355C145.841 84.3133 145.811 84.2788 145.794 84.2321C145.789 84.221 145.786 84.211 145.784 84.2021C145.781 84.191 145.78 84.1799 145.78 84.1688C145.771 84.0932 145.768 84.0187 145.77 83.9453C145.772 83.8719 145.774 83.7996 145.774 83.7285L145.78 83.2448V82.7978C145.78 82.7178 145.78 82.6466 145.78 82.5844C145.782 82.5221 145.785 82.4532 145.787 82.3776V82.3609C145.789 82.3387 145.79 82.3164 145.79 82.2942C145.792 82.2719 145.794 82.2497 145.794 82.2275C145.798 82.1763 145.81 82.133 145.83 82.0974C145.844 82.064 145.867 82.0373 145.9 82.0173C145.929 81.9973 145.964 81.9873 146.004 81.9873C146.019 81.9873 146.034 81.9884 146.047 81.9906C146.063 81.9906 146.077 81.9918 146.09 81.994C146.104 81.9962 146.116 82.0006 146.127 82.0073C146.14 82.014 146.154 82.0229 146.167 82.034C146.18 82.0496 146.193 82.0685 146.204 82.0907C146.213 82.1152 146.218 82.1396 146.22 82.1641C146.223 82.1797 146.225 82.1941 146.227 82.2075C146.229 82.2208 146.231 82.2341 146.231 82.2475C146.226 82.2608 146.224 82.2742 146.224 82.2875C146.224 82.3008 146.224 82.3131 146.224 82.3242V82.3842L146.21 83.9553L146.871 83.962H147.028C147.041 83.962 147.056 83.9631 147.071 83.9653C147.087 83.9653 147.102 83.9664 147.118 83.9686C147.136 83.9708 147.151 83.9731 147.164 83.9753C147.178 83.9775 147.191 83.9809 147.204 83.9853C147.229 83.992 147.249 84.0031 147.265 84.0187C147.289 84.0409 147.305 84.0631 147.311 84.0854Z" fill="black"/>
<path d="M145.263 82.188C145.347 82.2658 145.409 82.3592 145.449 82.4682C145.489 82.5749 145.505 82.6817 145.496 82.7884C145.487 82.8907 145.455 82.9852 145.399 83.0719C145.344 83.1564 145.259 83.2209 145.146 83.2654C145.057 83.3032 144.969 83.3299 144.882 83.3454C144.796 83.361 144.7 83.3732 144.596 83.3821C144.549 83.3866 144.509 83.3899 144.475 83.3921C144.444 83.3921 144.408 83.3932 144.365 83.3955C144.356 83.3955 144.341 83.3955 144.319 83.3955C144.299 83.3955 144.284 83.3966 144.275 83.3988V84.0893C144.269 84.1315 144.26 84.1749 144.249 84.2193C144.24 84.2638 144.214 84.2983 144.172 84.3227C144.147 84.3361 144.117 84.3439 144.082 84.3461C144.046 84.3483 144.014 84.3472 143.985 84.3428C143.954 84.3383 143.927 84.3305 143.905 84.3194C143.885 84.3061 143.868 84.2838 143.855 84.2527C143.846 84.2327 143.837 84.2104 143.828 84.186C143.822 84.1593 143.818 84.1271 143.818 84.0893V82.2447C143.818 82.2291 143.819 82.2147 143.822 82.2013C143.824 82.188 143.826 82.1746 143.828 82.1613C143.833 82.1502 143.836 82.138 143.838 82.1246C143.841 82.1113 143.844 82.099 143.848 82.0879C143.853 82.0768 143.857 82.0668 143.862 82.0579C143.868 82.049 143.876 82.0412 143.885 82.0346C143.896 82.0234 143.913 82.0134 143.935 82.0045C143.96 81.9956 143.995 81.9912 144.042 81.9912H144.049C144.117 81.9867 144.194 81.9834 144.279 81.9812C144.363 81.9767 144.433 81.9778 144.489 81.9845C144.52 81.989 144.549 81.9923 144.576 81.9945C144.602 81.9945 144.628 81.9956 144.652 81.9979C144.679 82.0001 144.706 82.0023 144.732 82.0045C144.759 82.0068 144.786 82.0101 144.812 82.0145C144.835 82.019 144.855 82.0223 144.872 82.0245C144.892 82.0268 144.912 82.0301 144.932 82.0346C144.95 82.039 144.969 82.0434 144.989 82.0479C145.011 82.0523 145.031 82.0601 145.049 82.0712C145.096 82.0846 145.135 82.1013 145.166 82.1213C145.197 82.1413 145.229 82.1635 145.263 82.188ZM145.063 82.7384C145.065 82.685 145.054 82.6383 145.029 82.5983C145.007 82.5582 144.975 82.5249 144.932 82.4982C144.89 82.4715 144.842 82.4504 144.789 82.4348C144.736 82.4193 144.682 82.4081 144.629 82.4015C144.616 82.4015 144.597 82.4015 144.572 82.4015C144.55 82.3992 144.525 82.3981 144.499 82.3981C144.472 82.3959 144.447 82.3948 144.422 82.3948C144.4 82.3926 144.382 82.3915 144.369 82.3915C144.358 82.3892 144.344 82.3881 144.329 82.3881C144.313 82.3881 144.295 82.3881 144.275 82.3881C144.278 82.4571 144.279 82.5238 144.279 82.5883C144.279 82.6505 144.279 82.7183 144.279 82.7917C144.276 82.8318 144.275 82.8718 144.275 82.9118C144.275 82.9518 144.275 82.9907 144.275 83.0285L144.482 83.0252C144.536 83.0252 144.594 83.0219 144.659 83.0152C144.723 83.0085 144.785 82.9952 144.842 82.9752C144.9 82.9552 144.949 82.9263 144.989 82.8885C145.031 82.8507 145.056 82.8006 145.063 82.7384Z" fill="black"/>
<defs>
<filter id="filter0_f_1649_5538" x="78.2435" y="89.4574" width="148.038" height="10.1428" filterUnits="userSpaceOnUse" color-interpolation-filters="sRGB">
<feFlood flood-opacity="0" result="BackgroundImageFix"/>
<feBlend mode="normal" in="SourceGraphic" in2="BackgroundImageFix" result="shape"/>
<feGaussianBlur stdDeviation="1.8343" result="effect1_foregroundBlur_1649_5538"/>
</filter>
<filter id="filter1_f_1649_5538" x="99.2022" y="38.2022" width="75.2479" height="62.4979" filterUnits="userSpaceOnUse" color-interpolation-filters="sRGB">
<feFlood flood-opacity="0" result="BackgroundImageFix"/>
<feBlend mode="normal" in="SourceGraphic" in2="BackgroundImageFix" result="shape"/>
<feGaussianBlur stdDeviation="7.89888" result="effect1_foregroundBlur_1649_5538"/>
</filter>
<radialGradient id="paint0_radial_1649_5538" cx="0" cy="0" r="1" gradientUnits="userSpaceOnUse" gradientTransform="translate(115.514 20.4498) rotate(87.852) scale(65.2825 132.132)">
<stop stop-color="#51DCFA" stop-opacity="0.79"/>
<stop offset="0.760998" stop-color="#58DFFC" stop-opacity="0.0655291"/>
<stop offset="1" stop-color="#59DFFC" stop-opacity="0"/>
</radialGradient>
<linearGradient id="paint1_linear_1649_5538" x1="113.009" y1="16.0172" x2="106.886" y2="105.174" gradientUnits="userSpaceOnUse">
<stop stop-color="#8CFFEA" stop-opacity="0.36"/>
<stop offset="0.78125" stop-color="#CDFF8C" stop-opacity="0"/>
</linearGradient>
<linearGradient id="paint2_linear_1649_5538" x1="114.811" y1="14.4968" x2="97.0423" y2="71.4066" gradientUnits="userSpaceOnUse">
<stop stop-color="#CDFF8C" stop-opacity="0.36"/>
<stop offset="0.78125" stop-color="#CDFF8C" stop-opacity="0"/>
</linearGradient>
<linearGradient id="paint3_linear_1649_5538" x1="151.718" y1="69.7315" x2="158.67" y2="74.2683" gradientUnits="userSpaceOnUse">
<stop stop-color="#E04D40"/>
<stop offset="1" stop-color="#F15F56"/>
</linearGradient>
<linearGradient id="paint4_linear_1649_5538" x1="165.441" y1="55.9816" x2="165.562" y2="87.5865" gradientUnits="userSpaceOnUse">
<stop stop-color="#F46A6A"/>
<stop offset="1" stop-color="#EA5749"/>
</linearGradient>
<linearGradient id="paint5_linear_1649_5538" x1="158.045" y1="69.8196" x2="164.997" y2="74.3565" gradientUnits="userSpaceOnUse">
<stop stop-color="#FF6F66"/>
<stop offset="1" stop-color="#EF6058"/>
</linearGradient>
<linearGradient id="paint6_linear_1649_5538" x1="165.864" y1="90.4795" x2="165.862" y2="82.0444" gradientUnits="userSpaceOnUse">
<stop stop-color="#DA4639"/>
<stop offset="1" stop-color="#EC5B4F"/>
</linearGradient>
</defs>
</svg>
