<svg width="292" height="103" viewBox="0 0 292 103" fill="none" xmlns="http://www.w3.org/2000/svg">
<rect width="292" height="102.768" fill="#1D1D26"/>
<path d="M86.4043 59.599L67.1693 70.7034C66.9542 70.8275 66.9542 71.0288 67.1693 71.153L86.4425 82.2794L106.067 70.9503L86.4043 59.599Z" fill="#009E62" stroke="#009E62" stroke-width="0.899247" stroke-linejoin="bevel"/>
<path d="M86.4023 59.2816L67.1673 70.386C66.9523 70.5101 66.9523 70.7114 67.1673 70.8356L86.4033 81.9405L106.028 70.6113L86.4023 59.2816Z" fill="#009E62" stroke="#009E62" stroke-width="0.899247" stroke-linejoin="bevel"/>
<path d="M86.4023 58.9701L67.1673 70.0745C66.9523 70.1986 66.9523 70.3999 67.1673 70.5241L86.4033 81.629L106.028 70.2998L86.4023 58.9701Z" fill="#009E62" stroke="#009E62" stroke-width="0.899247" stroke-linejoin="bevel"/>
<path d="M86.4023 58.6596L67.1673 69.7639C66.9523 69.8881 66.9523 70.0894 67.1673 70.2135L86.4033 81.3184L106.028 69.9893L86.4023 58.6596Z" fill="#009E62" stroke="#009E62" stroke-width="0.899247" stroke-linejoin="bevel"/>
<path d="M86.4023 58.349L67.1673 69.4534C66.9523 69.5775 66.9523 69.7788 67.1673 69.903L86.4033 81.0079L106.028 69.6787L86.4023 58.349Z" fill="#009E62" stroke="#009E62" stroke-width="0.899247" stroke-linejoin="bevel"/>
<path d="M86.4023 58.0385L67.1673 69.1428C66.9523 69.267 66.9523 69.4683 67.1673 69.5924L86.4033 80.6973L106.028 69.3682L86.4023 58.0385Z" fill="#009E62" stroke="#009E62" stroke-width="0.899247" stroke-linejoin="bevel"/>
<path d="M86.4023 57.7279L67.1673 68.8323C66.9523 68.9564 66.9523 69.1577 67.1673 69.2819L86.4033 80.3868L106.028 69.0576L86.4023 57.7279Z" fill="#009E62" stroke="#009E62" stroke-width="0.899247" stroke-linejoin="bevel"/>
<path d="M86.4023 57.4174L67.1673 68.5217C66.9523 68.6459 66.9523 68.8472 67.1673 68.9713L86.4033 80.0762L106.028 68.7471L86.4023 57.4174Z" fill="#009E62" stroke="#009E62" stroke-width="0.899247" stroke-linejoin="bevel"/>
<path d="M86.4023 57.1058L67.1673 68.2102C66.9523 68.3344 66.9523 68.5357 67.1673 68.6598L86.4033 79.7647L106.028 68.4355L86.4023 57.1058Z" fill="#009E62" stroke="#009E62" stroke-width="0.899247" stroke-linejoin="bevel"/>
<path d="M86.4023 56.7953L67.1673 67.8997C66.9523 68.0238 66.9523 68.2251 67.1673 68.3493L86.4033 79.4542L106.028 68.125L86.4023 56.7953Z" fill="#009E62" stroke="#009E62" stroke-width="0.899247" stroke-linejoin="bevel"/>
<path d="M86.7676 56.6166L67.7624 67.5883C67.5474 67.7124 67.5474 67.9137 67.7624 68.0379L86.7685 79.0101L106.163 67.8136L86.7676 56.6166Z" fill="#009E62" stroke="#009E62" stroke-width="0.899247" stroke-linejoin="bevel"/>
<path d="M87.4558 56.2248C87.2407 56.1006 86.8921 56.1006 86.677 56.2248L67.6609 67.2028C67.2307 67.4511 67.2307 67.8537 67.6609 68.102L86.368 78.9017C86.5831 79.0259 86.9317 79.0259 87.1468 78.9017L106.552 67.6989C106.767 67.5748 106.767 67.3735 106.552 67.2493L87.4558 56.2248Z" fill="#16CF89"/>
<path d="M87.377 22L72.2532 30.7309L87.2615 39.6877L102.272 30.7309L87.377 22Z" fill="#FED501"/>
<path d="M87.293 59.2734L78.6011 64.2912L87.2266 69.4388L95.8531 64.2912L87.293 59.2734Z" fill="#F6FAFF"/>
<rect width="3.0962" height="9.40539" transform="matrix(-0.859406 0.511293 0 1 89.9219 55.3467)" fill="#AE8A42"/>
<rect width="3.0962" height="9.41803" transform="matrix(0.859406 0.511293 0 1 84.6016 55.3467)" fill="#CAA459"/>
<rect width="17.463" height="21.5425" transform="matrix(-0.859406 0.511293 0 1 102.27 30.7305)" fill="#D39902"/>
<rect width="10.0363" height="2.31178" transform="matrix(-0.859406 0.511293 0 1 95.8496 64.292)" fill="#B5C8E6"/>
<rect width="17.463" height="21.5443" transform="matrix(0.859406 0.511293 0 1 72.2539 30.7305)" fill="#FFF69B"/>
<rect width="10.0363" height="2.2906" transform="matrix(0.859406 0.511293 0 1 78.6016 64.292)" fill="#D0DCEF"/>
<path d="M75.1836 45.9137C75.1039 46.8627 75.3782 48.8002 77.1126 48.9588C77.2716 48.5821 77.1083 47.4458 75.1836 45.9137Z" fill="#FFFACB"/>
<path d="M80.5263 38.1844C79.5891 38.353 77.7886 39.1194 78.0843 40.8358C78.4892 40.8919 79.5446 40.44 80.5263 38.1844Z" fill="#D39902"/>
<path d="M92.8496 31.4085C92.0676 30.8651 90.2525 30.1338 89.2479 31.5566C89.4947 31.8826 90.5604 32.3093 92.8496 31.4085Z" fill="#D39902"/>
<path d="M94.5166 43.0506C93.5793 43.2193 91.7788 43.9857 92.0745 45.702C92.4795 45.7581 93.5348 45.3062 94.5166 43.0506Z" fill="#FED501"/>
<path d="M80.4347 51.3866C80.1121 52.2826 79.8756 54.2251 81.5099 54.8272C81.7609 54.5045 81.8973 53.3646 80.4347 51.3866Z" fill="#D39902"/>
<path d="M98.0734 47.1298C97.7508 48.0257 97.5143 49.9682 99.1486 50.5704C99.3996 50.2477 99.536 49.1078 98.0734 47.1298Z" fill="#FED501"/>
<path d="M189.527 44.4302L169.62 55.7595C169.506 55.8243 169.506 55.9295 169.62 55.9943L189.528 67.3241L209.642 55.8774L189.527 44.4302L189.527 44.4302Z" fill="#009E62" stroke="#009E62" stroke-width="0.474868" stroke-linejoin="bevel"/>
<path d="M189.527 44.1216L169.62 55.4509C169.506 55.5157 169.506 55.6209 169.62 55.6857L189.528 67.0155L209.642 55.5688L189.527 44.1216L189.527 44.1216Z" fill="#009E62" stroke="#009E62" stroke-width="0.474868" stroke-linejoin="bevel"/>
<path d="M189.527 43.813L169.62 55.1423C169.506 55.2071 169.506 55.3123 169.62 55.3771L189.528 66.7069L209.642 55.2602L189.527 43.813L189.527 43.813Z" fill="#009E62" stroke="#009E62" stroke-width="0.474868" stroke-linejoin="bevel"/>
<path d="M189.527 43.5054L169.62 54.8346C169.506 54.8995 169.506 55.0047 169.62 55.0695L189.528 66.3993L209.642 54.9526L189.527 43.5054L189.527 43.5054Z" fill="#009E62" stroke="#009E62" stroke-width="0.474868" stroke-linejoin="bevel"/>
<path d="M189.527 43.1968L169.62 54.5261C169.506 54.5909 169.506 54.6961 169.62 54.7609L189.528 66.0907L209.642 54.644L189.527 43.1968L189.527 43.1968Z" fill="#009E62" stroke="#009E62" stroke-width="0.474868" stroke-linejoin="bevel"/>
<path d="M189.527 42.8892L169.62 54.2184C169.506 54.2833 169.506 54.3885 169.62 54.4533L189.528 65.7831L209.642 54.3364L189.527 42.8892L189.527 42.8892Z" fill="#009E62" stroke="#009E62" stroke-width="0.474868" stroke-linejoin="bevel"/>
<path d="M189.527 42.5816L169.62 53.9108C169.506 53.9757 169.506 54.0808 169.62 54.1457L189.528 65.4755L209.642 54.0288L189.527 42.5816L189.527 42.5816Z" fill="#009E62" stroke="#009E62" stroke-width="0.474868" stroke-linejoin="bevel"/>
<path d="M189.527 42.273L169.62 53.6022C169.506 53.6671 169.506 53.7722 169.62 53.8371L189.528 65.1669L209.642 53.7202L189.527 42.273L189.527 42.273Z" fill="#009E62" stroke="#009E62" stroke-width="0.474868" stroke-linejoin="bevel"/>
<path d="M189.527 41.9644L169.62 53.2936C169.506 53.3585 169.506 53.4636 169.62 53.5285L189.528 64.8583L209.642 53.4116L189.527 41.9644L189.527 41.9644Z" fill="#009E62" stroke="#009E62" stroke-width="0.474868" stroke-linejoin="bevel"/>
<path d="M189.527 41.6558L169.62 52.985C169.506 53.0499 169.506 53.1551 169.62 53.2199L189.528 64.5497L209.642 53.103L189.527 41.6558L189.527 41.6558Z" fill="#009E62" stroke="#009E62" stroke-width="0.474868" stroke-linejoin="bevel"/>
<path d="M189.527 41.3482L169.62 52.6774C169.506 52.7423 169.506 52.8474 169.62 52.9123L189.528 64.2421L209.642 52.7954L189.527 41.3482L189.527 41.3482Z" fill="#009E62" stroke="#009E62" stroke-width="0.474868" stroke-linejoin="bevel"/>
<path d="M189.527 41.0405L169.62 52.3698C169.506 52.4347 169.506 52.5398 169.62 52.6047L189.528 63.9345L209.642 52.4878L189.527 41.0405L189.527 41.0405Z" fill="#009E62" stroke="#009E62" stroke-width="0.474868" stroke-linejoin="bevel"/>
<path d="M189.527 40.7319L169.62 52.0612C169.506 52.1261 169.506 52.2312 169.62 52.2961L189.528 63.6259L209.642 52.1792L189.527 40.7319L189.527 40.7319Z" fill="#009E62" stroke="#009E62" stroke-width="0.474868" stroke-linejoin="bevel"/>
<path d="M189.734 40.3059C189.62 40.2411 189.435 40.2411 189.321 40.3059L169.413 51.6352C169.185 51.7649 169.185 51.9752 169.413 52.1049L189.322 63.4347C189.436 63.4996 189.621 63.4996 189.735 63.4347L209.849 51.988C209.963 51.9232 209.963 51.818 209.849 51.7531L189.734 40.3059Z" fill="#16CF89"/>
<path d="M143.942 73.082L163.952 61.5018C164.065 61.4364 164.066 61.3307 163.953 61.2651L123.849 37.8886L103.773 49.6073L143.942 73.082Z" fill="#009E62" stroke="#348334" stroke-width="0.474868" stroke-linejoin="bevel"/>
<path d="M143.942 72.7773L163.952 61.1971C164.065 61.1317 164.066 61.026 163.953 60.9604L123.849 37.5839L103.773 49.3026L143.942 72.7773Z" fill="#009E62" stroke="#348334" stroke-width="0.474868" stroke-linejoin="bevel"/>
<path d="M143.942 72.4736L163.952 60.8934C164.065 60.828 164.066 60.7223 163.953 60.6567L123.849 37.2802L103.773 48.9989L143.942 72.4736Z" fill="#009E62" stroke="#348334" stroke-width="0.474868" stroke-linejoin="bevel"/>
<path d="M143.942 72.1699L163.952 60.5896C164.065 60.5243 164.066 60.4185 163.953 60.3529L123.849 36.9765L103.773 48.6952L143.942 72.1699Z" fill="#009E62" stroke="#348334" stroke-width="0.474868" stroke-linejoin="bevel"/>
<path d="M143.942 71.8652L163.952 60.285C164.065 60.2196 164.066 60.1139 163.953 60.0483L123.849 36.6718L103.773 48.3905L143.942 71.8652Z" fill="#009E62" stroke="#348334" stroke-width="0.474868" stroke-linejoin="bevel"/>
<path d="M143.942 71.5605L163.952 59.9803C164.065 59.9149 164.066 59.8092 163.953 59.7436L123.849 36.3671L103.773 48.0858L143.942 71.5605Z" fill="#009E62" stroke="#348334" stroke-width="0.474868" stroke-linejoin="bevel"/>
<path d="M143.942 71.2568L163.952 59.6766C164.065 59.6112 164.066 59.5055 163.953 59.4399L123.849 36.0634L103.773 47.7821L143.942 71.2568Z" fill="#009E62" stroke="#348334" stroke-width="0.474868" stroke-linejoin="bevel"/>
<path d="M143.942 70.9531L163.952 59.3728C164.065 59.3075 164.066 59.2017 163.953 59.1361L123.849 35.7597L103.773 47.4784L143.942 70.9531Z" fill="#009E62" stroke="#348334" stroke-width="0.474868" stroke-linejoin="bevel"/>
<path d="M143.942 70.6484L163.952 59.0682C164.065 59.0028 164.066 58.8971 163.953 58.8315L123.849 35.455L103.773 47.1737L143.942 70.6484Z" fill="#009E62" stroke="#348334" stroke-width="0.474868" stroke-linejoin="bevel"/>
<path d="M143.942 70.3447L163.952 58.7644C164.065 58.6991 164.066 58.5933 163.953 58.5277L123.849 35.1513L103.773 46.87L143.942 70.3447Z" fill="#009E62" stroke="#348334" stroke-width="0.474868" stroke-linejoin="bevel"/>
<path d="M143.942 70.04L163.952 58.4598C164.065 58.3944 164.066 58.2887 163.953 58.2231L123.849 34.8466L103.773 46.5653L143.942 70.04Z" fill="#009E62" stroke="#348334" stroke-width="0.474868" stroke-linejoin="bevel"/>
<path d="M143.942 69.7363L163.952 58.156C164.065 58.0907 164.066 57.9849 163.953 57.9194L123.849 34.5429L103.773 46.2616L143.942 69.7363Z" fill="#009E62" stroke="#348334" stroke-width="0.474868" stroke-linejoin="bevel"/>
<path d="M143.736 69.5506C143.849 69.6169 144.034 69.6172 144.148 69.5512L164.158 57.9709C164.384 57.8402 164.385 57.6287 164.16 57.4975L124.056 34.1211C123.942 34.0547 123.756 34.0548 123.642 34.1212L103.566 45.8398C103.454 45.9052 103.454 46.0105 103.566 46.0759L143.736 69.5506Z" fill="#16CF89"/>
<path d="M170.985 67.1673C171.212 67.0365 171.58 67.0364 171.807 67.1671L179.486 71.584C179.714 71.7151 179.714 71.9282 179.487 72.0595L160.914 82.7667C160.688 82.8975 160.32 82.8976 160.093 82.767L152.207 78.2313C152.093 78.1657 152.093 78.0592 152.207 77.9936L170.985 67.1673Z" fill="#16CF89"/>
<path d="M160.107 82.8087L179.311 71.7241C179.47 71.6327 179.667 71.747 179.667 71.9298V77.0086L160.463 87.9871C160.304 88.0776 160.107 87.9633 160.107 87.7809V82.8087Z" fill="#009E62"/>
<path d="M152.055 78.2396C152.055 78.057 152.252 77.9427 152.41 78.0337L160.419 82.64C160.493 82.6824 160.538 82.7609 160.538 82.8458V87.7676C160.538 87.953 160.335 88.0669 160.177 87.9702L152.168 83.0771C152.098 83.0339 152.055 82.9572 152.055 82.8744V78.2396Z" fill="#009E62"/>
<path d="M192.538 79.2533C192.765 79.1225 193.132 79.1224 193.36 79.253L201.039 83.67C201.267 83.8011 201.267 84.0141 201.039 84.1454L182.467 94.8527C182.24 94.9835 181.873 94.9836 181.646 94.8529L173.76 90.3172C173.646 90.2516 173.646 90.1451 173.76 90.0795L192.538 79.2533Z" fill="#16CF89"/>
<path d="M181.66 94.8956L200.864 83.811C201.022 83.7197 201.22 83.8339 201.22 84.0167V89.0956L182.015 100.074C181.857 100.164 181.66 100.05 181.66 99.8679V94.8956Z" fill="#009E62"/>
<path d="M173.607 90.3255C173.607 90.1429 173.805 90.0286 173.963 90.1197L181.972 94.726C182.046 94.7683 182.091 94.8468 182.091 94.9318V99.8535C182.091 100.039 181.888 100.153 181.73 100.056L173.721 95.163C173.65 95.1199 173.607 95.0431 173.607 94.9604V90.3255Z" fill="#009E62"/>
<path d="M189.547 7.82812L174.423 16.5591L189.431 25.5158L204.441 16.5591L189.547 7.82812Z" fill="#FED501"/>
<path d="M189.574 19.6357L174.45 28.3667L189.459 37.3234L204.469 28.3667L189.574 19.6357Z" fill="#FED501"/>
<path d="M189.52 4L182.72 7.92538L189.468 11.9523L196.216 7.92538L189.52 4Z" fill="#FED501"/>
<path d="M189.463 45.1025L180.771 50.1203L189.397 55.2679L198.023 50.1203L189.463 45.1025Z" fill="#F6FAFF"/>
<rect width="3.0962" height="9.40539" transform="matrix(-0.859406 0.511293 0 1 192.092 41.1777)" fill="#AE8A42"/>
<rect width="3.0962" height="9.41803" transform="matrix(0.859406 0.511293 0 1 186.771 41.1768)" fill="#CAA459"/>
<rect width="17.463" height="8.69099" transform="matrix(-0.859406 0.511293 0 1 204.439 16.5605)" fill="#DCA502"/>
<rect width="17.463" height="8.69099" transform="matrix(-0.859406 0.511293 0 1 204.467 28.3662)" fill="#DCA502"/>
<rect width="7.85127" height="8.08564" transform="matrix(-0.859406 0.511293 0 1 196.215 7.9248)" fill="#DCA502"/>
<rect width="10.0363" height="2.31178" transform="matrix(-0.859406 0.511293 0 1 198.021 50.1201)" fill="#B5C8E6"/>
<rect width="17.463" height="8.67528" transform="matrix(0.859406 0.511293 0 1 174.424 16.5605)" fill="#FFEF7C"/>
<rect width="17.463" height="8.67528" transform="matrix(0.859406 0.511293 0 1 174.451 28.3662)" fill="#FFEF7C"/>
<rect width="7.85127" height="8.07616" transform="matrix(0.859406 0.511293 0 1 182.721 7.9248)" fill="#FFEF7C"/>
<rect width="10.0363" height="2.2906" transform="matrix(0.859406 0.511293 0 1 180.771 50.1201)" fill="#D0DCEF"/>
<path d="M140 65.0354C140.101 66.2519 141.247 68.6543 145.018 68.5327C144.663 67.2149 143.163 64.6705 140 65.0354Z" fill="#009E62"/>
<path d="M150.01 63.9542C149.065 63.6993 146.939 63.9094 146.003 66.7891C147.095 66.8803 149.424 66.4411 150.01 63.9542Z" fill="#009E62"/>
<path d="M148.739 43.7148C149.77 43.8435 150.78 44.1063 151.743 44.4965C152.686 44.8787 153.277 45.1272 153.834 45.7311C154.395 46.3742 154.757 47.1654 154.877 48.0092C155.006 48.7125 154.877 48.81 154.616 51.1321C154.424 52.9343 154.447 53.3414 154.029 53.8077C153.579 54.2581 152.97 54.5147 152.332 54.5225C150.964 54.5416 150.162 53.3949 150.055 53.198C150.005 53.1042 149.965 53.0056 149.936 52.9037C149.894 52.7546 149.878 52.5995 149.888 52.445C150.007 51.3327 150.08 50.4765 150.122 50.0484C150.132 49.935 150.129 49.8207 150.11 49.7082C150.063 49.4163 149.929 49.1449 149.727 48.9285L146.52 48.0742" fill="url(#paint0_linear_1654_6303)"/>
<path opacity="0.6" d="M148.402 44.4527C149.471 44.1876 150.593 44.2138 151.647 44.5284C152.433 44.7267 153.145 45.1406 153.699 45.7215C153.949 45.9979 154.155 46.3091 154.311 46.6449C154.168 46.8684 153.95 47.1989 153.663 47.5868C153.006 48.4751 152.575 48.8796 152.368 49.14C151.088 50.7559 153.053 53.6628 152.225 54.2039C151.73 54.5271 150.137 54.011 149.859 52.6196C149.859 51.3618 150.137 50.95 150.137 49.5586C150.048 49.2916 149.828 49.0312 149.668 48.7983L146.52 47.9857" fill="#C52600" fill-opacity="0.7"/>
<path d="M148.485 35.6963C149.071 36.5779 149.791 37.363 150.62 38.023C151.267 38.5426 151.977 38.9799 152.732 39.3249C152.751 39.3341 152.77 39.3417 152.791 39.3476C153.21 39.4588 153.651 39.4654 154.073 39.3668C154.495 39.2681 154.886 39.0673 155.212 38.7818C156.088 38.0934 156.849 37.2702 157.467 36.3427C158.124 35.3501 158.216 34.823 158.188 34.392C158.162 33.9135 157.979 33.4564 157.667 33.0917C157.626 33.0568 156.889 32.2307 155.947 32.3912C155.522 32.4658 155.256 32.7062 154.852 33.082C154.513 33.3888 154.215 33.7374 153.965 34.1195C153.938 34.1619 153.902 34.1982 153.86 34.2261C153.817 34.2541 153.77 34.273 153.72 34.2818C153.67 34.2906 153.619 34.289 153.57 34.2772C153.52 34.2654 153.474 34.2436 153.433 34.2132L151.152 32.4871" fill="url(#paint1_linear_1654_6303)"/>
<path d="M150.791 21.7492C149.916 20.3569 148.736 19.1807 147.338 18.3091C145.161 17.0401 143.109 17 141.975 17C140.383 17 137.894 17.2783 135.904 19.3431C133.914 21.4079 133.293 24.3121 133.151 25.0995C132.785 31.5191 131.763 41.6922 132.05 42.8294C132.338 43.9665 133.1 46.2217 135.185 47.9035C136.756 49.1706 138.394 49.57 139.886 49.9217C141.418 50.3272 143.01 50.4566 144.588 50.3039C146.184 50.1338 148.782 49.0011 149.86 47.9035C150.937 46.8058 151.169 45.1303 151.251 44.2705L152.362 29.9978C152.544 28.8683 152.989 25.197 150.791 21.7492Z" fill="url(#paint2_linear_1654_6303)"/>
<path opacity="0.69" d="M134.554 33.6966C133.214 32.5303 132.819 31.9226 131.098 31.4958C130.684 31.4555 130.274 31.5082 129.903 31.6498C129.506 31.8052 129.167 32.0557 128.914 32.3784C128.211 33.3665 129.173 34.5155 129.017 36.7338C128.993 37.1024 128.942 37.4667 128.864 37.824L128.82 38.3085C129.154 38.3775 129.493 38.3771 129.813 38.3072C130.05 38.252 130.273 38.1606 130.474 38.0366C130.658 35.9228 131.468 35.9264 132.049 35.6445C132.346 35.4996 132.349 36.6512 133.161 36.7183C133.526 36.7501 133.89 36.8001 134.253 36.8683L134.554 33.6966Z" fill="#C52600" fill-opacity="0.7"/>
<path d="M135.453 32.3133C134.521 31.8113 133.516 31.4577 132.475 31.2652C131.659 31.1116 130.827 31.0597 129.998 31.1107C129.977 31.1115 129.956 31.114 129.936 31.1184C129.513 31.2178 129.121 31.4192 128.795 31.705C128.469 31.9907 128.219 32.3521 128.066 32.7572C127.617 33.7771 127.332 34.8618 127.224 35.9709C127.112 37.1557 127.279 37.6641 127.506 38.0313C127.754 38.4413 128.131 38.7583 128.578 38.9331C128.631 38.9446 129.67 39.3264 130.426 38.7415C130.765 38.4758 130.887 38.1386 131.066 37.6166C131.221 37.1867 131.319 36.7389 131.36 36.284C131.365 36.2336 131.379 36.1847 131.403 36.1402C131.427 36.0957 131.46 36.0567 131.5 36.0254C131.54 35.9942 131.586 35.9715 131.635 35.9587C131.684 35.9459 131.735 35.9433 131.785 35.9511L134.611 36.3999" fill="url(#paint3_linear_1654_6303)"/>
<path opacity="0.69" d="M148.706 31.8558C148.652 32.5778 148.575 33.1511 148.534 33.4537C148.265 33.5155 148.035 33.5573 147.861 33.584C147.436 33.6519 147.004 33.6894 146.571 33.696C146.38 33.696 146.182 33.6927 145.977 33.686C144.074 33.5924 142.752 32.9322 141.657 32.3773C140.549 31.8207 139.561 31.132 138.729 30.3365C139.284 29.3443 140.024 28.4213 140.926 27.5971C142.079 26.5508 144.164 24.6504 146.753 24.5718C146.933 24.558 147.114 24.5614 147.293 24.5818C149.228 25.0398 148.839 30.181 148.706 31.8558Z" fill="#C52600" fill-opacity="0.7"/>
<path d="M154.311 29.0842C153.712 30.423 152.568 31.574 151.054 32.3635C150.925 32.4287 150.791 32.4922 150.652 32.554C149.917 32.8836 149.118 33.1185 148.286 33.2494C147.665 33.3476 147.029 33.3818 146.396 33.3513C144.493 33.2577 143.171 32.5975 142.076 32.0426C140.972 31.4853 139.987 30.7966 139.158 30.0018C139.714 29.0097 140.454 28.0866 141.356 27.2624C142.508 26.2161 144.594 24.3157 147.183 24.2371C147.363 24.2313 147.543 24.2347 147.723 24.2472C149.624 24.3792 150.972 25.479 152.043 26.3531C152.066 26.3732 152.092 26.3933 152.114 26.4133C153.048 27.193 153.793 28.098 154.311 29.0842Z" fill="white" stroke="#FFFEF4" stroke-width="0.271073" stroke-miterlimit="10"/>
<path d="M152.398 28.4023C152.398 30.0202 151.869 31.4576 151.054 32.3635C150.925 32.4287 150.792 32.4922 150.652 32.554C149.917 32.8836 149.118 33.1185 148.287 33.2493C146.769 32.7663 145.629 30.779 145.629 28.4023C145.629 26.6573 146.244 25.1213 147.173 24.2371C147.353 24.2313 147.533 24.2347 147.713 24.2472C149.613 24.3792 150.962 25.479 152.032 26.3531C152.056 26.3732 152.082 26.3933 152.103 26.4133C152.299 27.0654 152.398 27.7327 152.398 28.4023Z" fill="black" stroke="black" stroke-width="0.271073" stroke-miterlimit="10"/>
<path d="M139.228 48.2395C138.923 49.325 138.618 50.408 138.315 51.4885C138.005 51.9266 137.574 52.2658 137.074 52.4651C136.416 52.7116 135.843 52.5969 134.657 52.274C130.988 51.261 130.539 50.7202 130.347 50.4526C129.993 49.9853 129.809 49.4117 129.825 48.8262C129.825 48.6351 129.877 47.928 130.412 47.4597C131.001 46.9456 131.976 46.9151 132.829 47.3948L135.111 48.5078L135.668 47.1165" fill="url(#paint4_linear_1654_6303)"/>
<path opacity="0.69" d="M135.111 48.4453C135.249 48.7304 134.347 48.3776 134.549 48.6219C135.618 49.9138 136.945 49.8087 137.426 50.7872C137.57 51.0739 137.683 51.5402 137.461 52.2875C137.645 52.172 137.816 52.0374 137.971 51.8862C138.094 51.768 138.207 51.6401 138.309 51.5039L138.809 49.7304C138.736 49.1861 138.51 48.6737 138.155 48.253C137.26 47.2019 136.141 47.6009 135.946 47.6105C135.338 47.6392 135.111 48.4453 135.111 48.4453Z" fill="#C52600" fill-opacity="0.7"/>
<defs>
<linearGradient id="paint0_linear_1654_6303" x1="154.046" y1="52.7011" x2="147.335" y2="47.6228" gradientUnits="userSpaceOnUse">
<stop stop-color="#FF7171"/>
<stop offset="1" stop-color="#EB574A"/>
</linearGradient>
<linearGradient id="paint1_linear_1654_6303" x1="154.637" y1="40.0493" x2="150.412" y2="30.4755" gradientUnits="userSpaceOnUse">
<stop offset="0.0666008" stop-color="#FF7171"/>
<stop offset="1" stop-color="#EA5548"/>
</linearGradient>
<linearGradient id="paint2_linear_1654_6303" x1="142.288" y1="17" x2="142.288" y2="50.366" gradientUnits="userSpaceOnUse">
<stop stop-color="#FF7171"/>
<stop offset="1" stop-color="#E85345"/>
</linearGradient>
<linearGradient id="paint3_linear_1654_6303" x1="127.976" y1="31.3684" x2="136.21" y2="37.8267" gradientUnits="userSpaceOnUse">
<stop offset="0.0666008" stop-color="#FF7171"/>
<stop offset="1" stop-color="#EA5548"/>
</linearGradient>
<linearGradient id="paint4_linear_1654_6303" x1="135.22" y1="51.5237" x2="137.578" y2="48.259" gradientUnits="userSpaceOnUse">
<stop stop-color="#FF7171"/>
<stop offset="0.746441" stop-color="#EA5547"/>
</linearGradient>
</defs>
</svg>
