<svg width="292" height="103" viewBox="0 0 292 103" fill="none" xmlns="http://www.w3.org/2000/svg">
<rect width="292" height="102.768" fill="#1D1D26"/>
<circle cx="50" cy="51" r="28" fill="#7F0AB7" stroke="#4F0174" stroke-width="2"/>
<mask id="mask0_1703_1275" style="mask-type:alpha" maskUnits="userSpaceOnUse" x="23" y="24" width="54" height="54">
<circle cx="50" cy="51" r="27" fill="#D9D9D9"/>
</mask>
<g mask="url(#mask0_1703_1275)">
<rect x="34" y="39" width="32.9531" height="57" rx="16.4766" fill="url(#paint0_linear_1703_1275)"/>
<path d="M50.9219 51.4017C58.4769 51.4016 64.1705 58.6063 64.1705 58.6063C64.1705 58.6063 58.3258 65.811 50.9219 65.811C43.518 65.811 37.6733 58.6063 37.6733 58.6063C37.6733 58.6063 43.3669 51.4018 50.9219 51.4017Z" fill="white"/>
<mask id="mask1_1703_1275" style="mask-type:alpha" maskUnits="userSpaceOnUse" x="37" y="51" width="28" height="15">
<path d="M50.9219 51.4017C58.4769 51.4016 64.1705 58.6063 64.1705 58.6063C64.1705 58.6063 58.3258 65.811 50.9219 65.811C43.518 65.811 37.6733 58.6063 37.6733 58.6063C37.6733 58.6063 43.3669 51.4018 50.9219 51.4017Z" fill="white"/>
</mask>
<g mask="url(#mask1_1703_1275)">
<circle cx="50.9203" cy="58.6439" r="8.02378" fill="#240521"/>
</g>
</g>
<circle cx="239" cy="51" r="28" fill="#114FAD" stroke="#063986" stroke-width="2"/>
<mask id="mask2_1703_1275" style="mask-type:alpha" maskUnits="userSpaceOnUse" x="212" y="24" width="54" height="54">
<circle cx="239" cy="51" r="27" fill="#D9D9D9"/>
</mask>
<g mask="url(#mask2_1703_1275)">
<path d="M214 75.8994C214 78.3847 215.565 80.3994 218.05 80.3994C220.535 80.3994 221.277 79.345 222.55 76.7994C223 75.8994 224.35 72.2995 224.35 72.2995C224.35 72.2995 222.627 69.6682 221.65 67.3495C220.483 64.5823 218.95 58.3496 218.95 58.3496C217.6 61.0496 214 73.4142 214 75.8994Z" fill="#16CF89"/>
<path d="M214 75.8994C214 78.3847 215.565 80.3994 218.05 80.3994C220.535 80.3994 221.277 79.345 222.55 76.7994C223 75.8994 224.35 72.2995 224.35 72.2995C224.35 72.2995 222.627 69.6682 221.65 67.3495C220.483 64.5823 218.95 58.3496 218.95 58.3496C217.6 61.0496 214 73.4142 214 75.8994Z" fill="url(#paint1_linear_1703_1275)"/>
<path d="M218.048 60.5996C218.048 60.5996 218.05 69.5995 223.309 74.9994C223.817 73.72 224.35 72.2995 224.35 72.2995C224.35 72.2995 222.627 69.6682 221.65 67.3495C220.483 64.5823 218.95 58.3496 218.95 58.3496C218.709 58.8302 218.398 59.6169 218.048 60.5996Z" fill="#278050"/>
<path d="M253.599 70.0498C253.599 70.0498 251.078 72.0089 249.099 73.1998C246.834 74.5634 242.349 74.9998 242.349 74.9998C242.349 74.9998 242.137 80.3468 242.349 82.3982C242.562 84.4497 242.799 86.6996 242.799 86.6996C242.799 86.6996 241.622 88.4176 240.999 89.3996C240.129 90.7714 239.649 92.9996 239.649 92.9996L254.949 92.9996C254.949 92.9996 254.939 90.3579 254.499 88.7551C254.238 87.802 253.599 86.3971 253.599 86.3971C253.149 83.5675 252.699 82.2505 252.699 79.9497C252.699 77.6802 253.149 72.7498 253.599 70.0498Z" fill="url(#paint2_linear_1703_1275)"/>
<path d="M253.6 70.5C253.6 70.5 250.178 75.1591 248.2 76.3499C245.934 77.7135 242.35 75 242.35 75C242.35 75 242.239 77.7819 242.257 80.1024C242.261 80.5337 242.261 80.9312 242.27 81.2999C242.27 81.2999 247.75 80.3999 253.009 75.0988C253.024 74.9538 253.039 74.8086 253.054 74.6636C253.212 73.158 253.406 71.6637 253.6 70.5Z" fill="#278050"/>
<path d="M235.148 75.9013C235.148 75.9013 231.098 75.2445 229.298 74.1013C227.499 72.9581 225.699 71.4014 225.699 71.4014C225.699 71.4014 223.638 75.9243 222.999 80.4013C222.549 83.5512 222.999 86.7012 222.999 86.7012C222.999 86.7012 221.822 88.4191 221.199 89.4012C220.328 90.773 219.849 93.0011 219.849 93.0011L235.148 93.0011C235.148 93.0011 235.138 90.3595 234.698 88.7567C234.437 87.8036 233.798 86.3987 233.798 86.3987C232.898 84.0012 233.798 80.4013 233.798 80.4013C233.798 80.4013 234.698 76.8013 235.148 75.9013Z" fill="url(#paint3_linear_1703_1275)"/>
<path d="M235.148 75.9013C235.148 75.9013 231.098 75.2445 229.298 74.1013C227.499 72.9581 225.699 71.4014 225.699 71.4014C225.699 71.4014 225.057 72.8105 224.378 74.8342C224.378 74.8342 224.349 75.4513 227.049 77.7013C229.748 79.9513 233.619 81.3013 233.619 81.3013C233.711 80.7494 233.798 80.4013 233.798 80.4013C233.798 80.4013 234.698 76.8013 235.148 75.9013Z" fill="#278050"/>
<circle cx="20.6998" cy="20.6998" r="20.6998" transform="matrix(-1 -8.74228e-08 -8.74228e-08 1 259.448 39)" fill="url(#paint4_linear_1703_1275)"/>
<rect width="13.0563" height="13.4721" rx="1.41544" transform="matrix(-0.686366 -0.727256 -0.727256 0.686366 239.648 58.3955)" fill="black"/>
<path fill-rule="evenodd" clip-rule="evenodd" d="M237.45 56.067L234.795 53.2541C234.497 53.1941 234.184 53.1621 233.86 53.1621C231.872 53.1621 230.26 54.3709 230.26 55.8621C230.26 57.3532 231.872 58.5621 233.86 58.5621C235.757 58.5621 237.311 57.4624 237.45 56.067Z" fill="white"/>
<circle cx="20.6998" cy="20.6998" r="20.6998" transform="matrix(-1 -8.74228e-08 -8.74228e-08 1 259.448 39)" fill="url(#paint5_linear_1703_1275)"/>
<rect width="13.0563" height="13.4721" rx="1.41544" transform="matrix(-0.686366 -0.727256 -0.727256 0.686366 237.849 58.3955)" fill="black"/>
<path fill-rule="evenodd" clip-rule="evenodd" d="M235.65 56.067L232.996 53.2541C232.697 53.1941 232.384 53.1621 232.061 53.1621C230.072 53.1621 228.461 54.3709 228.461 55.8621C228.461 57.3532 230.072 58.5621 232.061 58.5621C233.957 58.5621 235.511 57.4624 235.65 56.067Z" fill="white"/>
<path d="M253.599 74.0999C253.239 74.0999 251.499 65.1 250.899 61.5C250.899 61.5 254.349 69.2999 255.399 72.2999L253.599 74.0999Z" fill="#007156"/>
<path d="M255.849 78.5993C257.121 81.1449 259.899 81.7493 261.249 81.2993C262.599 80.8493 264.399 79.9493 264.849 77.2494C265.299 74.5494 264.022 70.4367 262.599 65.0995C260.349 58.7996 259.899 56.5496 258.549 53.8496L250.449 59.6995C251.349 62.8495 254.949 76.7994 255.849 78.5993Z" fill="url(#paint6_linear_1703_1275)"/>
</g>
<circle cx="156.686" cy="31.5128" r="11.4415" stroke="#76FF9C"/>
<path d="M152.153 42.3477L150.052 54.3997H145.298" stroke="#76FF9C"/>
<path d="M161.33 42.3477L163.431 54.3997H168.186" stroke="#76FF9C"/>
<path d="M144.966 29.7422L138 34.7178L146.072 37.0398C146.182 37.9243 146.116 39.804 144.966 40.2463" stroke="#76FF9C"/>
<path d="M168.444 29.7422L175.41 34.7178L167.339 37.0398C167.228 37.9243 167.294 39.804 168.444 40.2463" stroke="#76FF9C"/>
<path d="M148.836 29.4111C149.499 30.0745 162.325 30.5168 164.758 29.4111" stroke="#76FF9C"/>
<circle cx="152.706" cy="25.3202" r="0.442277" fill="#76FF9C"/>
<circle cx="159.34" cy="25.3202" r="0.442277" fill="#76FF9C"/>
<rect x="118.15" y="10.15" width="73.7" height="55.7" stroke="white" stroke-width="0.3" stroke-dasharray="4 4"/>
<g filter="url(#filter0_d_1703_1275)">
<rect x="116" y="9" width="4.06627" height="4.06667" rx="2" fill="white"/>
</g>
<g filter="url(#filter1_d_1703_1275)">
<rect x="116" y="64" width="4.06627" height="4.06666" rx="2" fill="white"/>
</g>
<g filter="url(#filter2_d_1703_1275)">
<rect x="190" y="9" width="3.95011" height="4.06667" rx="1.97506" fill="white"/>
</g>
<g filter="url(#filter3_d_1703_1275)">
<rect x="190" y="64" width="4.06626" height="4.06666" rx="2" fill="white"/>
</g>
<path d="M193.1 40.8654L188.626 28.4947C188.022 26.8257 189.73 25.2557 191.342 25.9975L203.702 31.683C205.652 32.5798 205.012 35.5 202.866 35.5H199.626C198.679 35.5 197.862 36.1647 197.668 37.0921L196.939 40.593C196.528 42.5664 193.786 42.761 193.1 40.8654Z" fill="#5A94ED"/>
<rect x="89" y="65" width="41.1824" height="14.7872" rx="7.38576" fill="#16CF89"/>
<path d="M102.739 72.0598C102.881 72.1577 102.881 72.3674 102.739 72.4653L97.6951 75.941C97.5318 76.0535 97.3092 75.9366 97.3092 75.7383L97.3092 68.7868C97.3092 68.5885 97.5318 68.4716 97.6951 68.5841L102.739 72.0598Z" fill="black"/>
<path d="M123.285 69.8528C123.29 69.8783 123.29 69.9037 123.285 69.9291C123.285 69.9546 123.277 69.9826 123.262 70.0131C123.242 70.0843 123.219 70.1479 123.194 70.2039C123.163 70.2751 123.125 70.3362 123.079 70.3871C123.059 70.4176 123.038 70.4481 123.018 70.4786C123.003 70.5041 122.987 70.5295 122.972 70.555L122.873 70.6847L121.896 72.0966L121.721 72.3179V74.348C121.71 74.3735 121.705 74.3989 121.705 74.4244C121.705 74.4498 121.703 74.4778 121.698 74.5083C121.688 74.5337 121.68 74.5592 121.675 74.5846C121.67 74.605 121.662 74.6279 121.652 74.6533C121.642 74.6737 121.637 74.6889 121.637 74.6991C121.632 74.7093 121.626 74.7169 121.621 74.722C121.621 74.7271 121.619 74.7347 121.614 74.7449C121.583 74.7958 121.54 74.8416 121.484 74.8823C121.372 74.9382 121.245 74.951 121.102 74.9204C121.021 74.9103 120.96 74.8848 120.919 74.8441C120.894 74.8288 120.873 74.811 120.858 74.7907C120.843 74.7703 120.828 74.7474 120.812 74.722C120.802 74.6915 120.792 74.6635 120.782 74.6381C120.772 74.6126 120.764 74.5872 120.759 74.5617C120.749 74.5363 120.744 74.5134 120.744 74.493C120.744 74.4676 120.744 74.4447 120.744 74.4244V72.3408L120.576 72.0813L119.584 70.6771L119.5 70.5397C119.469 70.4939 119.431 70.4405 119.385 70.3794C119.344 70.3235 119.309 70.2624 119.278 70.1963C119.258 70.1657 119.24 70.1352 119.225 70.1047C119.215 70.0691 119.205 70.0334 119.194 69.9978C119.179 69.9469 119.177 69.8961 119.187 69.8452C119.202 69.779 119.233 69.7231 119.278 69.6773C119.329 69.6315 119.383 69.5959 119.439 69.5704C119.51 69.5196 119.591 69.4992 119.683 69.5094C119.739 69.5094 119.787 69.5196 119.828 69.5399C119.869 69.5603 119.909 69.5832 119.95 69.6086C119.996 69.6442 120.039 69.6824 120.08 69.7231C120.125 69.7638 120.166 69.807 120.202 69.8528C120.243 69.9037 120.281 69.952 120.316 69.9978C120.352 70.0385 120.388 70.0869 120.423 70.1428L120.446 70.1734C120.568 70.3362 120.683 70.4939 120.789 70.6465C120.896 70.7941 121.008 70.9544 121.125 71.1274C121.135 71.1375 121.151 71.1579 121.171 71.1884C121.191 71.2189 121.214 71.2546 121.24 71.2953C121.26 71.2596 121.278 71.2291 121.293 71.2037C121.314 71.1731 121.329 71.1528 121.339 71.1426C121.456 70.9696 121.568 70.8068 121.675 70.6542C121.782 70.5015 121.896 70.3438 122.018 70.181L122.033 70.1505C122.074 70.1047 122.11 70.0589 122.14 70.0131C122.176 69.9622 122.214 69.9113 122.255 69.8604C122.321 69.7689 122.41 69.69 122.522 69.6239C122.603 69.5679 122.687 69.5323 122.774 69.517C122.87 69.5068 122.954 69.5272 123.026 69.5781C123.056 69.5984 123.084 69.6162 123.11 69.6315C123.14 69.6468 123.166 69.6646 123.186 69.6849C123.227 69.7307 123.26 69.7867 123.285 69.8528Z" fill="black"/>
<path d="M119.312 74.4089C119.318 74.4394 119.32 74.4699 119.32 74.5004C119.325 74.5259 119.328 74.5564 119.328 74.592C119.328 74.6531 119.31 74.7091 119.274 74.7599C119.259 74.7854 119.239 74.8108 119.213 74.8363C119.188 74.8566 119.157 74.8744 119.122 74.8897C118.994 74.9609 118.86 74.9863 118.717 74.966C118.646 74.9456 118.582 74.9126 118.526 74.8668C118.516 74.8566 118.509 74.8515 118.503 74.8515C118.498 74.8464 118.493 74.8388 118.488 74.8286C118.483 74.8235 118.478 74.8184 118.473 74.8134C118.468 74.8032 118.46 74.7955 118.45 74.7905C118.425 74.765 118.404 74.7421 118.389 74.7218C118.374 74.6963 118.358 74.6709 118.343 74.6455C118.333 74.62 118.32 74.5971 118.305 74.5768C118.295 74.5513 118.282 74.5259 118.267 74.5004C118.257 74.4801 118.247 74.4623 118.236 74.447C118.226 74.4267 118.219 74.4063 118.213 74.386C118.193 74.3402 118.18 74.2995 118.175 74.2639L118.015 73.8899C117.664 73.8899 117.313 73.8924 116.962 73.8975C116.616 73.8975 116.267 73.895 115.916 73.8899L115.756 74.2639C115.746 74.2842 115.738 74.3046 115.733 74.3249C115.733 74.3453 115.728 74.3656 115.718 74.386C115.708 74.4063 115.697 74.4267 115.687 74.447C115.682 74.4623 115.675 74.4801 115.664 74.5004C115.649 74.5259 115.634 74.5513 115.619 74.5768C115.608 74.5971 115.596 74.62 115.58 74.6455C115.57 74.6709 115.558 74.6963 115.542 74.7218C115.527 74.7421 115.507 74.765 115.481 74.7905C115.471 74.7955 115.463 74.8032 115.458 74.8134C115.453 74.8184 115.448 74.8235 115.443 74.8286C115.438 74.8388 115.433 74.8464 115.428 74.8515C115.423 74.8515 115.415 74.8566 115.405 74.8668C115.349 74.9126 115.285 74.9456 115.214 74.966C115.072 74.9863 114.937 74.9609 114.81 74.8897C114.774 74.8744 114.743 74.8566 114.718 74.8363C114.693 74.8108 114.672 74.7854 114.657 74.7599C114.621 74.7091 114.604 74.6531 114.604 74.592C114.604 74.5564 114.604 74.5259 114.604 74.5004C114.609 74.4699 114.614 74.4394 114.619 74.4089C114.629 74.3631 114.642 74.3173 114.657 74.2715C114.672 74.2257 114.68 74.2028 114.68 74.2028L116.267 70.2952L116.313 70.1731C116.323 70.1426 116.336 70.1146 116.351 70.0892C116.366 70.0637 116.379 70.0332 116.389 69.9976C116.415 69.9315 116.443 69.8729 116.473 69.8221C116.489 69.7915 116.506 69.7635 116.527 69.7381C116.547 69.7127 116.567 69.6872 116.588 69.6618C116.618 69.6211 116.662 69.588 116.718 69.5626C116.789 69.5371 116.87 69.5244 116.962 69.5244C117.058 69.5244 117.142 69.5371 117.214 69.5626C117.27 69.588 117.313 69.6211 117.343 69.6618C117.379 69.7076 117.417 69.761 117.458 69.8221C117.488 69.8729 117.516 69.9315 117.542 69.9976C117.552 70.0332 117.565 70.0637 117.58 70.0892C117.595 70.1146 117.608 70.1426 117.618 70.1731L117.664 70.2952L119.251 74.2028C119.251 74.2028 119.259 74.2257 119.274 74.2715C119.29 74.3173 119.302 74.3631 119.312 74.4089ZM117.504 72.539C117.438 72.3915 117.369 72.2388 117.298 72.0811C117.231 71.9234 117.16 71.7631 117.084 71.6003C117.064 71.5545 117.043 71.5087 117.023 71.4629C117.002 71.412 116.982 71.3637 116.962 71.3179C116.947 71.3637 116.929 71.412 116.908 71.4629C116.888 71.5087 116.868 71.5545 116.847 71.6003C116.771 71.7631 116.697 71.9234 116.626 72.0811C116.56 72.2388 116.494 72.3915 116.428 72.539L116.29 72.8748H117.641L117.504 72.539Z" fill="black"/>
<path d="M113.978 74.3483C113.988 74.3738 113.993 74.4119 113.993 74.4628C113.993 74.5086 113.993 74.5468 113.993 74.5773C113.993 74.618 113.985 74.6562 113.97 74.6918C113.955 74.7274 113.934 74.7605 113.909 74.791C113.863 74.8521 113.797 74.8978 113.711 74.9284C113.588 74.9691 113.474 74.9894 113.367 74.9894C113.311 74.9945 113.253 74.9971 113.192 74.9971C113.131 74.9971 113.069 75.0022 113.008 75.0123H112.978C112.586 75.0174 112.182 75.0174 111.764 75.0123C111.663 75.0072 111.548 75.0072 111.421 75.0123C111.294 75.0225 111.169 75.02 111.047 75.0047C110.925 74.9945 110.813 74.9665 110.711 74.9207C110.615 74.8699 110.546 74.791 110.505 74.6842C110.495 74.6587 110.487 74.6358 110.482 74.6155C110.477 74.59 110.475 74.5646 110.475 74.5391C110.454 74.3662 110.447 74.1957 110.452 74.0278C110.457 73.8599 110.459 73.6945 110.459 73.5317L110.475 72.4251V71.4024C110.475 71.2192 110.475 71.0564 110.475 70.914C110.48 70.7715 110.485 70.6138 110.49 70.4408V70.4026C110.495 70.3518 110.498 70.3009 110.498 70.25C110.503 70.1991 110.505 70.1482 110.505 70.0974C110.515 69.9803 110.543 69.8811 110.589 69.7997C110.62 69.7234 110.673 69.6623 110.749 69.6165C110.816 69.5707 110.894 69.5479 110.986 69.5479C111.022 69.5479 111.055 69.5504 111.085 69.5555C111.121 69.5555 111.154 69.558 111.184 69.5631C111.215 69.5682 111.243 69.5784 111.268 69.5936C111.299 69.6089 111.329 69.6293 111.36 69.6547C111.39 69.6903 111.418 69.7336 111.444 69.7844C111.464 69.8404 111.477 69.8964 111.482 69.9523C111.487 69.988 111.492 70.021 111.497 70.0516C111.502 70.0821 111.505 70.1126 111.505 70.1431C111.495 70.1737 111.49 70.2042 111.49 70.2347C111.49 70.2653 111.49 70.2932 111.49 70.3187V70.4561L111.459 74.0507L112.97 74.066H113.329C113.359 74.066 113.393 74.0685 113.428 74.0736C113.464 74.0736 113.499 74.0761 113.535 74.0812C113.576 74.0863 113.611 74.0914 113.642 74.0965C113.672 74.1016 113.703 74.1092 113.733 74.1194C113.789 74.1347 113.835 74.1601 113.871 74.1957C113.927 74.2466 113.962 74.2975 113.978 74.3483Z" fill="black"/>
<path d="M109.292 70.0057C109.485 70.1837 109.628 70.3974 109.719 70.6467C109.811 70.891 109.847 71.1352 109.826 71.3794C109.806 71.6135 109.732 71.8297 109.605 72.0281C109.478 72.2215 109.284 72.369 109.025 72.4708C108.821 72.5573 108.62 72.6183 108.422 72.6539C108.223 72.6896 108.005 72.7175 107.766 72.7379C107.659 72.7481 107.567 72.7557 107.491 72.7608C107.42 72.7608 107.336 72.7633 107.239 72.7684C107.219 72.7684 107.183 72.7684 107.132 72.7684C107.086 72.7684 107.053 72.771 107.033 72.7761V74.3559C107.018 74.4525 106.997 74.5518 106.972 74.6535C106.951 74.7553 106.893 74.8341 106.796 74.8901C106.74 74.9206 106.672 74.9384 106.59 74.9435C106.509 74.9486 106.435 74.9461 106.369 74.9359C106.298 74.9257 106.237 74.9079 106.186 74.8825C106.14 74.8519 106.102 74.8011 106.071 74.7298C106.051 74.684 106.031 74.6332 106.01 74.5772C105.995 74.5161 105.987 74.4424 105.987 74.3559V70.1354C105.987 70.0998 105.99 70.0667 105.995 70.0362C106 70.0057 106.005 69.9751 106.01 69.9446C106.02 69.9192 106.028 69.8912 106.033 69.8606C106.038 69.8301 106.046 69.8021 106.056 69.7767C106.066 69.7513 106.076 69.7284 106.087 69.708C106.102 69.6877 106.12 69.6698 106.14 69.6546C106.165 69.6291 106.204 69.6062 106.254 69.5859C106.31 69.5655 106.392 69.5554 106.499 69.5554H106.514C106.672 69.5452 106.847 69.5376 107.041 69.5325C107.234 69.5223 107.394 69.5248 107.521 69.5401C107.593 69.5503 107.659 69.5579 107.72 69.563C107.781 69.563 107.839 69.5655 107.895 69.5706C107.956 69.5757 108.017 69.5808 108.078 69.5859C108.14 69.591 108.201 69.5986 108.262 69.6088C108.313 69.619 108.358 69.6266 108.399 69.6317C108.445 69.6368 108.491 69.6444 108.536 69.6546C108.577 69.6648 108.62 69.6749 108.666 69.6851C108.717 69.6953 108.763 69.7131 108.803 69.7385C108.91 69.7691 108.999 69.8072 109.071 69.853C109.142 69.8988 109.216 69.9497 109.292 70.0057ZM108.834 71.2649C108.839 71.1428 108.814 71.036 108.758 70.9444C108.707 70.8528 108.633 70.7765 108.536 70.7154C108.44 70.6544 108.33 70.606 108.208 70.5704C108.086 70.5348 107.964 70.5094 107.842 70.4941C107.811 70.4941 107.768 70.4941 107.712 70.4941C107.661 70.489 107.605 70.4865 107.544 70.4865C107.483 70.4814 107.425 70.4788 107.369 70.4788C107.318 70.4737 107.277 70.4712 107.247 70.4712C107.221 70.4661 107.191 70.4636 107.155 70.4636C107.119 70.4636 107.079 70.4636 107.033 70.4636C107.038 70.6213 107.041 70.7739 107.041 70.9215C107.041 71.064 107.041 71.2191 107.041 71.387C107.035 71.4786 107.033 71.5702 107.033 71.6618C107.033 71.7534 107.033 71.8424 107.033 71.9289L107.506 71.9213C107.628 71.9213 107.763 71.9136 107.911 71.8984C108.058 71.8831 108.198 71.8526 108.33 71.8068C108.463 71.761 108.575 71.6949 108.666 71.6084C108.763 71.5219 108.819 71.4074 108.834 71.2649Z" fill="black"/>
<path d="M79.1365 79.5339L91.0746 74.0078C92.6853 73.2622 94.3968 74.8281 93.7971 76.4986L89.2001 89.3033C88.4751 91.323 85.5106 90.9381 85.3252 88.8002L85.0454 85.5722C84.9636 84.6284 84.2309 83.8715 83.2902 83.7591L79.7394 83.3348C77.7378 83.0956 77.3072 80.3807 79.1365 79.5339Z" fill="#B746EC"/>
<defs>
<filter id="filter0_d_1703_1275" x="112" y="7" width="12.0664" height="12.0664" filterUnits="userSpaceOnUse" color-interpolation-filters="sRGB">
<feFlood flood-opacity="0" result="BackgroundImageFix"/>
<feColorMatrix in="SourceAlpha" type="matrix" values="0 0 0 0 0 0 0 0 0 0 0 0 0 0 0 0 0 0 127 0" result="hardAlpha"/>
<feOffset dy="2"/>
<feGaussianBlur stdDeviation="2"/>
<feComposite in2="hardAlpha" operator="out"/>
<feColorMatrix type="matrix" values="0 0 0 0 0 0 0 0 0 0 0 0 0 0 0 0 0 0 0.1 0"/>
<feBlend mode="normal" in2="BackgroundImageFix" result="effect1_dropShadow_1703_1275"/>
<feBlend mode="normal" in="SourceGraphic" in2="effect1_dropShadow_1703_1275" result="shape"/>
</filter>
<filter id="filter1_d_1703_1275" x="112" y="62" width="12.0664" height="12.0664" filterUnits="userSpaceOnUse" color-interpolation-filters="sRGB">
<feFlood flood-opacity="0" result="BackgroundImageFix"/>
<feColorMatrix in="SourceAlpha" type="matrix" values="0 0 0 0 0 0 0 0 0 0 0 0 0 0 0 0 0 0 127 0" result="hardAlpha"/>
<feOffset dy="2"/>
<feGaussianBlur stdDeviation="2"/>
<feComposite in2="hardAlpha" operator="out"/>
<feColorMatrix type="matrix" values="0 0 0 0 0 0 0 0 0 0 0 0 0 0 0 0 0 0 0.1 0"/>
<feBlend mode="normal" in2="BackgroundImageFix" result="effect1_dropShadow_1703_1275"/>
<feBlend mode="normal" in="SourceGraphic" in2="effect1_dropShadow_1703_1275" result="shape"/>
</filter>
<filter id="filter2_d_1703_1275" x="186" y="7" width="11.9502" height="12.0664" filterUnits="userSpaceOnUse" color-interpolation-filters="sRGB">
<feFlood flood-opacity="0" result="BackgroundImageFix"/>
<feColorMatrix in="SourceAlpha" type="matrix" values="0 0 0 0 0 0 0 0 0 0 0 0 0 0 0 0 0 0 127 0" result="hardAlpha"/>
<feOffset dy="2"/>
<feGaussianBlur stdDeviation="2"/>
<feComposite in2="hardAlpha" operator="out"/>
<feColorMatrix type="matrix" values="0 0 0 0 0 0 0 0 0 0 0 0 0 0 0 0 0 0 0.1 0"/>
<feBlend mode="normal" in2="BackgroundImageFix" result="effect1_dropShadow_1703_1275"/>
<feBlend mode="normal" in="SourceGraphic" in2="effect1_dropShadow_1703_1275" result="shape"/>
</filter>
<filter id="filter3_d_1703_1275" x="186" y="62" width="12.0664" height="12.0664" filterUnits="userSpaceOnUse" color-interpolation-filters="sRGB">
<feFlood flood-opacity="0" result="BackgroundImageFix"/>
<feColorMatrix in="SourceAlpha" type="matrix" values="0 0 0 0 0 0 0 0 0 0 0 0 0 0 0 0 0 0 127 0" result="hardAlpha"/>
<feOffset dy="2"/>
<feGaussianBlur stdDeviation="2"/>
<feComposite in2="hardAlpha" operator="out"/>
<feColorMatrix type="matrix" values="0 0 0 0 0 0 0 0 0 0 0 0 0 0 0 0 0 0 0.1 0"/>
<feBlend mode="normal" in2="BackgroundImageFix" result="effect1_dropShadow_1703_1275"/>
<feBlend mode="normal" in="SourceGraphic" in2="effect1_dropShadow_1703_1275" result="shape"/>
</filter>
<linearGradient id="paint0_linear_1703_1275" x1="50.4766" y1="39" x2="50.4766" y2="96" gradientUnits="userSpaceOnUse">
<stop stop-color="#FF7A77"/>
<stop offset="1" stop-color="#DE5043"/>
</linearGradient>
<linearGradient id="paint1_linear_1703_1275" x1="217.6" y1="62.8496" x2="216.25" y2="80.3994" gradientUnits="userSpaceOnUse">
<stop stop-color="#1EB67C"/>
<stop offset="1" stop-color="#1FF073"/>
</linearGradient>
<linearGradient id="paint2_linear_1703_1275" x1="247.749" y1="79.4997" x2="247.749" y2="92.9996" gradientUnits="userSpaceOnUse">
<stop stop-color="#14B678"/>
<stop offset="0.8125" stop-color="#1FF073"/>
</linearGradient>
<linearGradient id="paint3_linear_1703_1275" x1="227.499" y1="77.2513" x2="227.499" y2="93.0011" gradientUnits="userSpaceOnUse">
<stop stop-color="#00AB6A"/>
<stop offset="1" stop-color="#1FF073"/>
</linearGradient>
<linearGradient id="paint4_linear_1703_1275" x1="31.9497" y1="1.79998" x2="8.54991" y2="35.0996" gradientUnits="userSpaceOnUse">
<stop offset="0.234375" stop-color="#16CF89"/>
<stop offset="1" stop-color="#14B578"/>
</linearGradient>
<linearGradient id="paint5_linear_1703_1275" x1="35.0996" y1="5.39994" x2="17.0998" y2="40.9496" gradientUnits="userSpaceOnUse">
<stop stop-color="#1FF073"/>
<stop offset="1" stop-color="#04795D"/>
</linearGradient>
<linearGradient id="paint6_linear_1703_1275" x1="253.149" y1="63.7495" x2="262.599" y2="81.2993" gradientUnits="userSpaceOnUse">
<stop stop-color="#0FA866"/>
<stop offset="0.994297" stop-color="#1FF073"/>
<stop offset="0.994397" stop-color="#1EB57C"/>
</linearGradient>
</defs>
</svg>
