<svg width="292" height="103" viewBox="0 0 292 103" fill="none" xmlns="http://www.w3.org/2000/svg">
<rect width="292" height="102.768" fill="#1D1D26"/>
<mask id="mask0_1703_1341" style="mask-type:alpha" maskUnits="userSpaceOnUse" x="193" y="16" width="69" height="44">
<rect x="193" y="16" width="69" height="44" rx="4" fill="#D9D9D9"/>
</mask>
<g mask="url(#mask0_1703_1341)">
<rect x="191.5" y="14.5" width="72" height="47" rx="5.5" fill="#8E14C8" stroke="#5E1183" stroke-width="3"/>
<path d="M216.293 54.5931C215.239 56.1772 213.945 57.5878 212.457 58.7737C211.293 59.7073 210.019 60.4931 208.662 61.113C208.628 61.1296 208.593 61.1432 208.556 61.1537C207.802 61.3536 207.011 61.3655 206.252 61.1883C205.494 61.011 204.791 60.6501 204.206 60.1372C202.631 58.9003 201.263 57.4211 200.153 55.7546C198.974 53.971 198.808 53.0239 198.858 52.2494C198.905 51.3897 199.234 50.5684 199.795 49.9132C199.868 49.8505 201.193 48.3661 202.886 48.6544C203.649 48.7885 204.126 49.2204 204.853 49.8958C205.461 50.447 205.996 51.0733 206.446 51.7598C206.495 51.8361 206.56 51.9013 206.636 51.9515C206.711 52.0016 206.797 52.0357 206.886 52.0515C206.976 52.0673 207.068 52.0645 207.156 52.0433C207.245 52.022 207.328 51.9829 207.401 51.9282L211.501 48.8267" fill="url(#paint0_linear_1703_1341)"/>
<path d="M212.151 29.5335C213.723 27.0317 215.844 24.9182 218.355 23.3523C222.267 21.0721 225.955 21 227.992 21C230.852 21 235.325 21.5 238.9 25.2101C242.476 28.9202 243.591 34.1385 243.846 35.5533C244.504 47.0881 246.342 65.3672 245.825 67.4105C245.308 69.4537 243.939 73.5058 240.193 76.5277C237.37 78.8045 234.427 79.5222 231.745 80.154C228.993 80.8826 226.132 81.1152 223.297 80.8408C220.43 80.5352 215.761 78.5 213.825 76.5277C211.888 74.5554 211.471 71.5449 211.325 70L209.328 44.3546C209.001 42.3251 208.201 35.7284 212.151 29.5335Z" fill="url(#paint1_linear_1703_1341)"/>
<path d="M248.651 70.0604C254.147 67.3445 246.592 54.7764 245.154 53.1645C239.256 50.2992 237.191 54.5663 236.896 57.0579C242.56 63.0878 243.154 72.7763 248.651 70.0604Z" fill="url(#paint2_linear_1703_1341)"/>
<path d="M243.29 67.6243C242.867 64.0835 237.839 57.5411 236.518 56.649C239.109 60.2127 240.589 64.2262 241.21 65.761C241.831 67.2958 243.29 67.6243 243.29 67.6243Z" fill="#DB422A"/>
<path opacity="0.69" d="M215.897 47.6937C215.993 48.9911 216.132 50.0212 216.206 50.5648C216.689 50.6759 217.102 50.751 217.415 50.799C218.178 50.921 218.954 50.9884 219.733 51.0002C220.076 51.0002 220.431 50.9942 220.8 50.9822C224.219 50.814 226.595 49.6278 228.562 48.6307C230.553 47.6306 232.329 46.3932 233.824 44.9638C232.826 43.1811 231.496 41.5225 229.876 40.0416C227.805 38.1616 224.057 34.7469 219.405 34.6058C219.082 34.581 218.756 34.587 218.435 34.6238C214.958 35.4467 215.657 44.6845 215.897 47.6937Z" fill="#C52600" fill-opacity="0.7"/>
<path d="M205.825 42.7142C206.902 45.1198 208.956 47.1879 211.678 48.6065C211.91 48.7236 212.149 48.8378 212.4 48.9489C213.721 49.5411 215.156 49.963 216.65 50.1982C217.767 50.3747 218.909 50.4363 220.047 50.3814C223.466 50.2132 225.842 49.027 227.809 48.0299C229.793 47.0285 231.562 45.7912 233.052 44.363C232.054 42.5803 230.723 40.9217 229.103 39.4408C227.032 37.5608 223.284 34.1461 218.633 34.005C218.309 33.9945 217.985 34.0005 217.663 34.023C214.247 34.2602 211.825 36.2363 209.901 37.807C209.858 37.8431 209.812 37.8791 209.773 37.9151C208.094 39.3161 206.757 40.9421 205.825 42.7142Z" fill="white" stroke="#FFFEF4" stroke-miterlimit="10"/>
<path d="M209.263 41.4889C209.263 44.396 210.213 46.9788 211.678 48.6065C211.91 48.7236 212.149 48.8378 212.4 48.9489C213.721 49.5411 215.156 49.963 216.65 50.1982C219.378 49.3303 221.426 45.7595 221.426 41.4889C221.426 38.3536 220.321 35.5937 218.652 34.005C218.328 33.9945 218.004 34.0005 217.682 34.023C214.266 34.2602 211.844 36.2363 209.92 37.807C209.877 37.8431 209.831 37.8791 209.792 37.9151C209.441 39.0869 209.264 40.2859 209.263 41.4889Z" fill="black" stroke="black" stroke-miterlimit="10"/>
</g>
<mask id="mask1_1703_1341" style="mask-type:alpha" maskUnits="userSpaceOnUse" x="29" y="16" width="69" height="44">
<rect x="29" y="16" width="69" height="44" rx="4" fill="#D9D9D9"/>
</mask>
<g mask="url(#mask1_1703_1341)">
<rect x="29" y="16" width="69" height="44" rx="4" fill="#114FAD"/>
<path d="M93.4937 64.3707C93.4937 67.2245 91.6971 69.5379 88.8433 69.5379C85.9895 69.5379 85.1377 68.3272 83.6762 65.4042C83.1595 64.3707 81.6094 60.237 81.6094 60.237C81.6094 60.237 83.5877 57.2155 84.7097 54.5531C86.0488 51.3755 87.81 44.2188 87.81 44.2188C89.3601 47.3191 93.4937 61.517 93.4937 64.3707Z" fill="#16CF89"/>
<path d="M93.4937 64.3707C93.4937 67.2245 91.6971 69.5379 88.8433 69.5379C85.9895 69.5379 85.1377 68.3272 83.6762 65.4042C83.1595 64.3707 81.6094 60.237 81.6094 60.237C81.6094 60.237 83.5877 57.2155 84.7097 54.5531C86.0488 51.3755 87.81 44.2188 87.81 44.2188C89.3601 47.3191 93.4937 61.517 93.4937 64.3707Z" fill="url(#paint3_linear_1703_1341)"/>
<path d="M88.8453 46.8023C88.8453 46.8023 88.8434 57.1367 82.804 63.3373C82.221 61.8681 81.6094 60.237 81.6094 60.237C81.6094 60.237 83.5877 57.2155 84.7097 54.5531C86.0488 51.3755 87.81 44.2188 87.81 44.2188C88.0859 44.7706 88.4436 45.6739 88.8453 46.8023Z" fill="#278050"/>
<path d="M48.0228 57.6523C48.0228 57.6523 50.9182 59.9019 53.19 61.2694C55.7913 62.8352 60.9407 63.3362 60.9407 63.3362C60.9407 63.3362 61.185 69.4761 60.9407 71.8317C60.6964 74.1873 60.424 76.7709 60.424 76.7709C60.424 76.7709 61.7755 78.7435 62.4909 79.8712C63.4901 81.4464 64.041 84.0049 64.041 84.0049H46.4727C46.4727 84.0049 46.4843 80.9716 46.9894 79.1312C47.2898 78.0367 48.0228 76.4235 48.0228 76.4235C48.5395 73.1743 49.0562 71.6621 49.0562 69.0201C49.0562 66.4141 48.5395 60.7526 48.0228 57.6523Z" fill="url(#paint4_linear_1703_1341)"/>
<path d="M48.0234 58.1699C48.0234 58.1699 51.9523 63.5198 54.224 64.8872C56.8254 66.453 60.9414 63.3371 60.9414 63.3371C60.9414 63.3371 61.0685 66.5315 61.0476 69.1961C61.0438 69.6913 61.0436 70.1478 61.0327 70.5711C61.0327 70.5711 54.7408 69.5377 48.7014 63.4506C48.6847 63.2841 48.6676 63.1174 48.6502 62.9509C48.4688 61.2221 48.2461 59.5061 48.0234 58.1699Z" fill="#278050"/>
<path d="M69.209 64.3713C69.209 64.3713 73.8594 63.6171 75.9263 62.3044C77.9932 60.9917 80.06 59.2041 80.06 59.2041C80.06 59.2041 82.426 64.3977 83.1604 69.5384C83.6771 73.1555 83.1604 76.7725 83.1604 76.7725C83.1604 76.7725 84.5119 78.7451 85.2272 79.8728C86.2265 81.448 86.7774 84.0065 86.7774 84.0065H69.209C69.209 84.0065 69.2206 80.9732 69.7257 79.1328C70.0261 78.0383 70.7591 76.4251 70.7591 76.4251C71.7926 73.6722 70.7591 69.5384 70.7591 69.5384C70.7591 69.5384 69.7257 65.4047 69.209 64.3713Z" fill="url(#paint5_linear_1703_1341)"/>
<path d="M69.209 64.3713C69.209 64.3713 73.8594 63.6171 75.9263 62.3044C77.9932 60.9917 80.06 59.2041 80.06 59.2041C80.06 59.2041 80.7971 60.8221 81.5762 63.1459C81.5762 63.1459 81.6102 63.8546 78.5099 66.4381C75.4096 69.0217 70.9657 70.5719 70.9657 70.5719C70.8591 69.9382 70.7591 69.5384 70.7591 69.5384C70.7591 69.5384 69.7257 65.4047 69.209 64.3713Z" fill="#278050"/>
<circle cx="65.0756" cy="45.769" r="23.769" fill="url(#paint6_linear_1703_1341)"/>
<rect x="64.041" y="44.2715" width="14.9922" height="15.4697" rx="2" transform="rotate(-46.6569 64.041 44.2715)" fill="black"/>
<path fill-rule="evenodd" clip-rule="evenodd" d="M66.5645 41.5981L69.6138 38.3671C69.9558 38.2984 70.3154 38.2617 70.6864 38.2617C72.9694 38.2617 74.8201 39.6498 74.8201 41.362C74.8201 43.0743 72.9694 44.4623 70.6864 44.4623C68.5093 44.4623 66.7253 43.2001 66.5645 41.5981Z" fill="white"/>
<circle cx="65.0756" cy="45.769" r="23.769" fill="url(#paint7_linear_1703_1341)"/>
<rect x="66.1074" y="44.2715" width="14.9922" height="15.4697" rx="2" transform="rotate(-46.6569 66.1074 44.2715)" fill="black"/>
<path fill-rule="evenodd" clip-rule="evenodd" d="M68.6318 41.5981L71.6811 38.3671C72.0232 38.2984 72.3828 38.2617 72.7538 38.2617C75.0368 38.2617 76.8875 39.6498 76.8875 41.362C76.8875 43.0743 75.0368 44.4623 72.7538 44.4623C70.5767 44.4623 68.7926 43.2001 68.6318 41.5981Z" fill="white"/>
<path d="M48.0229 62.303C48.4363 62.303 50.4343 51.9687 51.1232 47.835C51.1232 47.835 47.1617 56.7914 45.9561 60.2362L48.0229 62.303Z" fill="#007156"/>
<path d="M45.4398 67.4712C43.9784 70.3942 40.7893 71.0882 39.2392 70.5715C37.689 70.0548 35.6221 69.0214 35.1054 65.9211C34.5887 62.8208 36.0545 58.0983 37.689 51.9697C40.2726 44.7356 40.7894 42.1521 42.3395 39.0518L51.6404 45.7691C50.607 49.3861 46.4732 65.4043 45.4398 67.4712Z" fill="url(#paint8_linear_1703_1341)"/>
</g>
<rect x="123" y="70.8516" width="45.7109" height="24.1507" rx="12.0754" fill="#2A74E3"/>
<path fill-rule="evenodd" clip-rule="evenodd" d="M136.629 79.0862C135.845 79.0862 135.209 79.7219 135.209 80.506V82.2097C135.209 82.9938 135.845 83.6294 136.629 83.6294C137.413 83.6294 138.048 82.9938 138.048 82.2097V80.506C138.048 79.7219 137.413 79.0862 136.629 79.0862ZM134.357 80.506C134.357 79.2514 135.374 78.2344 136.629 78.2344C137.883 78.2344 138.9 79.2514 138.9 80.506V82.2097C138.9 83.4642 137.883 84.4813 136.629 84.4813C135.374 84.4813 134.357 83.4642 134.357 82.2097V80.506Z" fill="white"/>
<path fill-rule="evenodd" clip-rule="evenodd" d="M133.504 83.1775C133.49 82.9438 133.29 82.7652 133.056 82.7782C132.821 82.7913 132.641 82.9923 132.654 83.2271L133.079 83.2035C132.654 83.2271 132.654 83.2274 132.654 83.2277L132.654 83.2284L132.654 83.2298L132.654 83.2335L132.655 83.2436C132.656 83.2515 132.657 83.2619 132.658 83.2746C132.66 83.2999 132.664 83.3344 132.671 83.3768C132.684 83.4615 132.706 83.5784 132.744 83.7168C132.821 83.9928 132.964 84.3612 133.231 84.7307C133.78 85.4905 134.801 86.185 136.629 86.185C138.456 86.185 139.478 85.4905 140.026 84.7307C140.293 84.3612 140.436 83.9928 140.513 83.7168C140.551 83.5784 140.574 83.4615 140.586 83.3768C140.593 83.3344 140.597 83.2999 140.599 83.2746C140.601 83.2619 140.602 83.2515 140.602 83.2436L140.603 83.2335L140.603 83.2298L140.603 83.2284L140.603 83.2277C140.603 83.2274 140.603 83.2271 140.178 83.2035L140.603 83.2271C140.616 82.9923 140.437 82.7913 140.202 82.7782C139.968 82.7652 139.767 82.9438 139.753 83.1775C139.753 83.1775 139.753 83.1774 139.753 83.1775M139.753 83.1775C139.753 83.1776 139.753 83.1778 139.753 83.1781C139.753 83.1798 139.752 83.1838 139.752 83.1898C139.751 83.2019 139.748 83.2223 139.744 83.2498C139.736 83.3049 139.72 83.3877 139.692 83.4888C139.636 83.692 139.53 83.9625 139.336 84.2319C138.962 84.7499 138.209 85.3331 136.629 85.3331C135.049 85.3331 134.296 84.7499 133.921 84.2319C133.727 83.9625 133.622 83.692 133.565 83.4888C133.537 83.3877 133.521 83.3049 133.513 83.2498C133.509 83.2223 133.507 83.2019 133.505 83.1898C133.505 83.1838 133.505 83.1798 133.504 83.1781C133.504 83.1778 133.504 83.1776 133.504 83.1775C133.504 83.1775 133.504 83.1775 133.504 83.1775" fill="white"/>
<path fill-rule="evenodd" clip-rule="evenodd" d="M136.629 85.6171C136.864 85.6171 137.055 85.8078 137.055 86.043V86.8949C137.055 87.1301 136.864 87.3208 136.629 87.3208C136.393 87.3208 136.203 87.1301 136.203 86.8949V86.043C136.203 85.8078 136.393 85.6171 136.629 85.6171Z" fill="white"/>
<path d="M157.836 83.956C157.974 84.0997 158.074 84.2058 158.136 84.2746C158.205 84.337 158.252 84.3839 158.277 84.4151C158.308 84.4464 158.33 84.4651 158.342 84.4713C158.355 84.4776 158.377 84.4963 158.408 84.5276C158.439 84.5588 158.489 84.6088 158.558 84.6775C158.627 84.74 158.73 84.843 158.867 84.9867C158.98 85.0992 159.07 85.2303 159.139 85.3803C159.214 85.5239 159.208 85.6801 159.12 85.8488C159.07 85.9362 159.014 85.9987 158.951 86.0362C158.889 86.0674 158.82 86.0799 158.745 86.0737C158.677 86.0674 158.602 86.0456 158.52 86.0081C158.445 85.9706 158.37 85.9237 158.296 85.8675C158.152 85.7613 158.014 85.6395 157.883 85.5021C157.752 85.3584 157.646 85.2491 157.565 85.1741C157.508 85.1179 157.474 85.0804 157.462 85.0617C157.449 85.0492 157.437 85.0398 157.424 85.0336C157.412 85.0211 157.399 85.0086 157.387 84.9961C157.343 84.9524 157.296 84.9086 157.246 84.8649C157.196 84.8212 157.146 84.7743 157.096 84.7243V85.0898C157.096 85.1585 157.099 85.2085 157.105 85.2397C157.105 85.3022 157.102 85.349 157.096 85.3803C157.077 85.449 157.068 85.5146 157.068 85.577C157.062 85.6083 157.056 85.6395 157.049 85.6707C157.043 85.6957 157.034 85.7238 157.021 85.7551C157.015 85.7676 157.009 85.7769 157.002 85.7832C157.002 85.7894 157.002 85.7988 157.002 85.8113C156.996 85.8238 156.99 85.8332 156.984 85.8394C156.984 85.8457 156.981 85.855 156.974 85.8675C156.943 85.93 156.893 85.9893 156.824 86.0456C156.706 86.1143 156.559 86.133 156.384 86.1018C156.29 86.083 156.218 86.0487 156.168 85.9987C156.112 85.9612 156.075 85.9081 156.056 85.8394C156.044 85.8082 156.031 85.7769 156.019 85.7457C156.012 85.7082 156.003 85.6739 155.99 85.6426C155.978 85.6114 155.972 85.5833 155.972 85.5583C155.972 85.5271 155.972 85.5021 155.972 85.4833V80.1516C155.972 80.1141 155.972 80.0766 155.972 80.0392C155.972 80.0017 155.975 79.9642 155.981 79.9267C155.987 79.8892 155.994 79.8549 156 79.8236C156.012 79.7862 156.025 79.7518 156.037 79.7206C156.062 79.6581 156.093 79.6081 156.131 79.5706C156.162 79.5394 156.193 79.5175 156.225 79.505C156.262 79.4863 156.297 79.4707 156.328 79.4582C156.359 79.4519 156.393 79.4488 156.431 79.4488C156.475 79.4426 156.515 79.4395 156.553 79.4395C156.64 79.4395 156.728 79.4644 156.815 79.5144C156.896 79.5706 156.956 79.6425 156.993 79.7299C157.043 79.8486 157.068 79.9642 157.068 80.0766C157.074 80.1391 157.081 80.2359 157.087 80.3671C157.093 80.4921 157.096 80.5858 157.096 80.6482V80.6857C157.102 80.8919 157.105 81.0886 157.105 81.276C157.105 81.4635 157.105 81.6665 157.105 81.8851C157.099 82.1038 157.096 82.313 157.096 82.5129C157.096 82.7066 157.096 82.9002 157.096 83.0939V83.197C157.146 83.147 157.196 83.1001 157.246 83.0564C157.296 83.0127 157.343 82.9658 157.387 82.9159C157.412 82.8971 157.437 82.8753 157.462 82.8503L157.565 82.7472C157.646 82.666 157.752 82.5567 157.883 82.4192C158.014 82.2756 158.152 82.1506 158.296 82.0444C158.452 81.932 158.602 81.8633 158.745 81.8383C158.895 81.8133 159.02 81.8882 159.12 82.0632C159.208 82.2318 159.214 82.3911 159.139 82.541C159.07 82.6847 158.98 82.819 158.867 82.944C158.73 83.0877 158.627 83.1938 158.558 83.2626C158.489 83.325 158.439 83.3719 158.408 83.4031C158.377 83.4281 158.355 83.4437 158.342 83.45C158.33 83.4562 158.308 83.475 158.277 83.5062C158.252 83.5312 158.205 83.578 158.136 83.6467C158.074 83.7092 157.974 83.8123 157.836 83.956Z" fill="white"/>
<path d="M154.994 85.3614C154.988 85.3926 154.982 85.4238 154.976 85.4551C154.976 85.4801 154.976 85.5082 154.976 85.5394L154.919 85.7362C154.907 85.7612 154.897 85.7768 154.891 85.783L154.863 85.8393C154.832 85.908 154.776 85.9642 154.694 86.0079C154.545 86.0829 154.385 86.1016 154.217 86.0641C154.11 86.0516 154.026 86.0204 153.964 85.9704C153.901 85.9267 153.857 85.8736 153.832 85.8111C153.807 85.7487 153.789 85.6862 153.776 85.6237C153.757 85.5613 153.748 85.505 153.748 85.4551V80.2077C153.748 80.1639 153.748 80.1265 153.748 80.0952C153.754 80.0577 153.761 80.0234 153.767 79.9921C153.773 79.9484 153.779 79.9109 153.786 79.8797C153.798 79.8485 153.811 79.8141 153.823 79.7766C153.842 79.7142 153.876 79.6642 153.926 79.6267C154.001 79.5705 154.073 79.5392 154.142 79.533C154.185 79.5205 154.226 79.5143 154.263 79.5143C154.301 79.508 154.345 79.5049 154.395 79.5049C154.482 79.5049 154.582 79.5299 154.694 79.5798C154.782 79.6298 154.844 79.6985 154.882 79.786C154.944 79.9109 154.976 80.0265 154.976 80.1327C154.982 80.1952 154.985 80.2889 154.985 80.4138C154.991 80.5387 154.994 80.6325 154.994 80.6949V80.7324C155.007 80.9323 155.013 81.126 155.013 81.3134C155.013 81.4945 155.01 81.6944 155.004 81.9131C155.004 82.1255 155.001 82.3316 154.994 82.5315C154.994 82.7252 154.994 82.9188 154.994 83.1125V85.0803C154.994 85.1052 154.994 85.1302 154.994 85.1552C155.001 85.174 155.004 85.1958 155.004 85.2208C155.004 85.2833 155.001 85.3301 154.994 85.3614Z" fill="white"/>
<path d="M149.455 82.1663C149.642 82.0725 149.839 82.007 150.045 81.9695C150.251 81.9257 150.454 81.9164 150.654 81.9414C150.86 81.9601 151.057 82.0132 151.244 82.1007C151.432 82.1819 151.607 82.3006 151.769 82.4567C151.931 82.6192 152.056 82.7972 152.144 82.9908C152.231 83.1845 152.294 83.4 152.331 83.6374C152.356 83.7998 152.397 83.9497 152.453 84.0872C152.509 84.2246 152.569 84.362 152.631 84.4995C152.7 84.6369 152.762 84.7743 152.818 84.9118C152.881 85.0492 152.931 85.1929 152.968 85.3428C153 85.4865 152.987 85.627 152.931 85.7645C152.881 85.8957 152.775 85.9769 152.612 86.0081C152.519 86.0268 152.428 86.0206 152.341 85.9894C152.259 85.9519 152.184 85.9019 152.116 85.8394C152.047 85.7707 151.985 85.6989 151.928 85.6239C151.878 85.5427 151.831 85.4677 151.788 85.399C151.644 85.5864 151.488 85.7332 151.319 85.8394C151.151 85.9394 150.948 86.005 150.71 86.0362C150.51 86.0612 150.32 86.0675 150.139 86.055C149.957 86.0425 149.764 86.0081 149.558 85.9519C149.289 85.8832 149.067 85.7645 148.892 85.5958C148.724 85.4209 148.592 85.221 148.499 84.9961C148.411 84.765 148.364 84.5182 148.358 84.2558C148.352 83.9935 148.383 83.7342 148.452 83.4781C148.539 83.1408 148.671 82.8659 148.845 82.6535C149.02 82.4411 149.223 82.2787 149.455 82.1663ZM149.689 83.2626C149.601 83.35 149.533 83.4531 149.483 83.5718C149.433 83.6905 149.401 83.8154 149.389 83.9466C149.383 84.0778 149.395 84.209 149.426 84.3402C149.458 84.4714 149.508 84.5869 149.576 84.6869C149.639 84.7743 149.745 84.8493 149.895 84.9118C150.045 84.968 150.201 85.0024 150.363 85.0148C150.551 85.0273 150.713 84.9774 150.851 84.8649C150.994 84.7525 151.101 84.6119 151.169 84.4433C151.244 84.2683 151.279 84.0841 151.272 83.8904C151.266 83.6905 151.213 83.5093 151.113 83.3469C151.038 83.2282 150.938 83.1408 150.813 83.0845C150.695 83.0283 150.566 83.0002 150.429 83.0002C150.292 82.994 150.154 83.0158 150.017 83.0658C149.886 83.1095 149.776 83.1751 149.689 83.2626Z" fill="white"/>
<path d="M148.617 79.7678C148.685 79.849 148.72 79.9334 148.72 80.0208C148.72 80.0583 148.717 80.0989 148.71 80.1426C148.71 80.1801 148.707 80.2145 148.701 80.2457C148.682 80.3144 148.642 80.38 148.579 80.4425C148.529 80.48 148.461 80.5081 148.373 80.5268C148.329 80.5393 148.286 80.5487 148.242 80.5549C148.198 80.5612 148.151 80.5706 148.101 80.583C148.058 80.5893 148.014 80.5924 147.97 80.5924C147.926 80.5924 147.88 80.5924 147.83 80.5924H147.352C147.239 80.5987 147.127 80.6018 147.014 80.6018C146.908 80.6018 146.802 80.6018 146.696 80.6018C146.702 80.7954 146.705 81.0047 146.705 81.2296C146.705 81.4482 146.702 81.7044 146.696 81.998C146.696 82.2916 146.693 82.632 146.686 83.0193C146.686 83.4067 146.686 83.8564 146.686 84.3687V85.0808C146.686 85.1433 146.69 85.1901 146.696 85.2214C146.696 85.2464 146.696 85.2714 146.696 85.2963C146.696 85.3151 146.693 85.3401 146.686 85.3713C146.674 85.4275 146.665 85.4931 146.658 85.5681C146.658 85.5993 146.655 85.6306 146.649 85.6618C146.643 85.6868 146.633 85.7149 146.621 85.7461C146.596 85.7711 146.583 85.7898 146.583 85.8023L146.555 85.8586C146.524 85.921 146.465 85.9804 146.377 86.0366C146.24 86.1053 146.087 86.1209 145.918 86.0835C145.812 86.071 145.731 86.0428 145.674 85.9991C145.618 85.9429 145.578 85.8867 145.553 85.8305C145.515 85.7617 145.493 85.6961 145.487 85.6337C145.468 85.5775 145.459 85.5181 145.459 85.4556V80.6393C145.421 80.6393 145.343 80.6393 145.225 80.6393C145.106 80.6393 144.978 80.6393 144.841 80.6393C144.709 80.633 144.584 80.6268 144.466 80.6205C144.347 80.6143 144.266 80.608 144.222 80.6018C144.185 80.5955 144.125 80.5862 144.044 80.5737C143.969 80.5612 143.907 80.5487 143.857 80.5362C143.725 80.4987 143.622 80.4394 143.547 80.3582C143.479 80.2769 143.444 80.1864 143.444 80.0864C143.444 80.0489 143.444 80.0115 143.444 79.974C143.444 79.9365 143.451 79.9021 143.463 79.8709C143.482 79.7959 143.532 79.7335 143.613 79.6835C143.638 79.6647 143.675 79.6429 143.725 79.6179C143.782 79.5867 143.835 79.5648 143.885 79.5523C143.96 79.5273 144.053 79.5086 144.166 79.4961C144.216 79.4898 144.266 79.4867 144.316 79.4867C144.366 79.4867 144.419 79.4867 144.475 79.4867C144.694 79.4867 144.9 79.4867 145.094 79.4867C145.293 79.4867 145.503 79.4836 145.721 79.4773C146.084 79.4711 146.443 79.4711 146.799 79.4773C147.161 79.4773 147.52 79.4836 147.877 79.4961C147.958 79.5023 148.036 79.5117 148.111 79.5242C148.186 79.5367 148.261 79.5586 148.336 79.5898C148.392 79.6085 148.445 79.6335 148.495 79.6647C148.545 79.6897 148.586 79.7241 148.617 79.7678Z" fill="white"/>
<rect x="111" y="16" width="69" height="44" rx="4" fill="#FFB906"/>
<mask id="mask2_1703_1341" style="mask-type:alpha" maskUnits="userSpaceOnUse" x="111" y="16" width="69" height="44">
<rect x="111" y="16" width="69" height="44" rx="4" fill="#D9D9D9"/>
</mask>
<g mask="url(#mask2_1703_1341)">
<path d="M115.214 35.6297C113.443 36.7686 108.118 38.3056 100.986 35.3426" stroke="#CF0A80" stroke-width="0.893308" stroke-linecap="round"/>
<path d="M119.002 41.3864C117.31 42.4508 114.332 46.5621 114.846 49.9447C115.256 52.6508 118.619 53.4888 120.249 53.5696L118.832 58.5981" stroke="#CF0A80" stroke-width="0.893308" stroke-linecap="round"/>
<path d="M115.91 22.7819C109.25 26.0273 112.325 35.0501 113.414 36.4245C109.383 39.9134 112.784 43.2402 114.671 43.6964C115.945 44.0042 118.581 44.1403 122.753 42.4433C126.925 40.7464 130.836 38.1667 131.716 37.2043C132.595 36.2418 133.962 35.2604 132.989 32.2746C132.211 29.886 129.727 29.5917 128.697 29.6434C126.597 25.8204 122.569 19.5365 115.91 22.7819Z" fill="url(#paint9_linear_1703_1341)"/>
<ellipse cx="116.185" cy="35.1406" rx="0.9901" ry="1.06626" transform="rotate(-16.9906 116.185 35.1406)" fill="#3B314F"/>
<ellipse cx="122.549" cy="32.2499" rx="0.9901" ry="1.06626" transform="rotate(-16.9906 122.549 32.2499)" fill="#3B314F"/>
<path d="M128.343 38.0967C126.018 38.0873 122.88 39.0975 121.717 41.6923C120.787 43.7682 123.597 46.894 125.119 48.1975L121.291 50.7516" stroke="#CF0A80" stroke-width="0.893308" stroke-linecap="round"/>
<path d="M127.76 31.4686C129.862 32.0776 134.347 35.2579 135.47 43.1074" stroke="#CF0A80" stroke-width="0.893308" stroke-linecap="round"/>
<path d="M155.106 27.891C157.203 28.0734 162.631 26.9519 167.561 21.0063" stroke="#CF0A80" stroke-width="0.893308" stroke-linecap="round"/>
<path d="M154.438 34.7491C156.431 34.9024 160.981 37.1525 162.103 40.3845C163.001 42.9702 160.417 45.2786 159.012 46.1096L162.609 49.8986" stroke="#CF0A80" stroke-width="0.893308" stroke-linecap="round"/>
<path d="M148.504 16.8474C155.909 16.6156 157.393 26.0318 157.07 27.7552C162.262 28.9636 160.803 33.492 159.346 34.7752C158.362 35.6411 156.094 36.9898 151.612 37.4325C147.13 37.8752 142.466 37.4156 141.24 36.9738C140.013 36.532 138.347 36.3005 137.816 33.2055C137.391 30.7295 139.452 29.3115 140.387 28.8775C140.464 24.5163 141.1 17.0792 148.504 16.8474Z" fill="url(#paint10_linear_1703_1341)"/>
<ellipse cx="0.9901" cy="1.06626" rx="0.9901" ry="1.06626" transform="matrix(-0.982338 0.187117 0.187117 0.982338 154.792 26.6777)" fill="#3B314F"/>
<ellipse cx="0.9901" cy="1.06626" rx="0.9901" ry="1.06626" transform="matrix(-0.982338 0.187117 0.187117 0.982338 147.815 27.0859)" fill="#3B314F"/>
<path d="M144.64 36.1913C146.692 35.0995 149.939 34.5312 152.177 36.285C153.968 37.6882 152.938 41.7635 152.199 43.6258L156.776 44.1021" stroke="#CF0A80" stroke-width="0.893308" stroke-linecap="round"/>
<path d="M142.068 30.0551C140.491 31.5736 138.005 36.4777 140.669 43.946" stroke="#CF0A80" stroke-width="0.893308" stroke-linecap="round"/>
<path d="M142.036 41.9736C141.331 43.9315 138.042 49.3352 139.452 58.9678L143.759 60.6124" stroke="#CF0A80" stroke-width="0.918557" stroke-linecap="round"/>
<path d="M133.97 44.0098C133.343 45.3411 130.759 50.8231 130.211 59.5943L125.903 60.6907" stroke="#CF0A80" stroke-width="0.918557" stroke-linecap="round"/>
<path d="M145.795 38.4492C146.16 40.381 146.672 45.7324 145.795 51.6843" stroke="#CF0A80" stroke-width="0.918557" stroke-linecap="round"/>
<path d="M132.482 24.2748C139.843 22.3169 143.524 31.4014 143.602 33.2026C149.084 33.2026 148.679 38.0779 147.518 39.7027C146.735 40.7991 144.777 42.6786 140.392 44.1666C136.006 45.6546 131.229 46.2811 129.897 46.1245C128.566 45.9678 126.843 46.1245 125.59 43.1485C124.588 40.7678 126.321 38.8673 127.156 38.2147C126.217 33.8291 125.12 26.2326 132.482 24.2748Z" fill="url(#paint11_linear_1703_1341)"/>
<ellipse cx="1.01809" cy="1.0964" rx="1.01809" ry="1.0964" transform="matrix(-0.914359 0.404904 0.404904 0.914359 141.069 32.6543)" fill="#3B314F"/>
<ellipse cx="1.01809" cy="1.0964" rx="1.01809" ry="1.0964" transform="matrix(-0.914359 0.404904 0.404904 0.914359 134.178 34.6895)" fill="#3B314F"/>
<path d="M127.313 39.4678C126.269 42.1044 124.385 48.6462 125.199 53.721" stroke="#CF0A80" stroke-width="0.918557" stroke-linecap="round"/>
<path d="M161.203 37.9736C161.908 39.9315 165.197 45.3352 163.788 54.9678L159.48 56.6124" stroke="#CF0A80" stroke-width="0.918557" stroke-linecap="round"/>
<path d="M169.27 40.0098C169.896 41.3411 172.48 46.8231 173.029 55.5943L177.336 56.6907" stroke="#CF0A80" stroke-width="0.918557" stroke-linecap="round"/>
<path d="M157.444 34.4492C157.079 36.381 156.567 41.7324 157.444 47.6843" stroke="#CF0A80" stroke-width="0.918557" stroke-linecap="round"/>
<path d="M170.757 20.2748C163.396 18.3169 159.715 27.4014 159.637 29.2026C154.155 29.2026 154.561 34.0779 155.721 35.7027C156.504 36.7991 158.462 38.6786 162.848 40.1666C167.233 41.6546 172.01 42.2811 173.342 42.1245C174.673 41.9678 176.396 42.1245 177.649 39.1485C178.652 36.7678 176.918 34.8673 176.083 34.2147C177.023 29.8291 178.119 22.2326 170.757 20.2748Z" fill="url(#paint12_linear_1703_1341)"/>
<ellipse cx="162.657" cy="30.069" rx="1.01809" ry="1.0964" transform="rotate(23.8851 162.657 30.069)" fill="#3B314F"/>
<ellipse cx="169.548" cy="32.1042" rx="1.01809" ry="1.0964" transform="rotate(23.8851 169.548 32.1042)" fill="#3B314F"/>
<path d="M175.926 35.4678C176.97 38.1044 178.855 44.6462 178.04 49.721" stroke="#CF0A80" stroke-width="0.918557" stroke-linecap="round"/>
<path d="M122.147 59.9385C122.061 62.4313 121.471 68.5014 119.805 72.8398L123.979 73.5976" stroke="#CF0A80" stroke-width="0.904674" stroke-linecap="round"/>
<path d="M128.611 60.1699C129.226 62.6855 130.38 68.5653 130.077 71.9595L135.086 72.8689" stroke="#CF0A80" stroke-width="0.904674" stroke-linecap="round"/>
<path d="M133.439 66.6397C134.4 64.126 135.189 57.9299 130.653 53.2544" stroke="#CF0A80" stroke-width="0.904674" stroke-linecap="round"/>
<path d="M125.585 39.7096C133.07 39.5007 134.245 50.2969 133.694 53.3325C134.681 53.5116 136.344 55.1462 136.386 56.6432C136.428 58.1402 135.228 59.9978 133.186 60.4522C132.242 60.6621 128.584 61.1847 125.666 61.282C122.748 61.3794 119.195 60.6559 117.222 60.2977C115.249 59.9395 113.434 58.2774 113.771 55.9869C114.041 54.1545 115.925 53.19 116.834 52.9368C116.542 46.7694 118.1 39.9185 125.585 39.7096Z" fill="url(#paint13_linear_1703_1341)"/>
<ellipse cx="130.846" cy="51.5824" rx="1.0027" ry="1.07983" transform="rotate(-7.19645 130.846 51.5824)" fill="#3B314F"/>
<ellipse cx="125.285" cy="51.9838" rx="1.0027" ry="1.07983" transform="rotate(-7.19645 125.285 51.9838)" fill="#3B314F"/>
<path d="M118.021 52.4473C118.295 56.2599 118.129 64.6332 115.265 67.6253" stroke="#CF0A80" stroke-width="0.904674" stroke-linecap="round"/>
<path d="M148.079 42.4473C148.354 46.2599 148.187 54.6332 145.324 57.6253" stroke="#CF0A80" stroke-width="0.904674" stroke-linecap="round"/>
<path d="M154.038 49.9385C154.125 52.4313 154.715 58.5014 156.38 62.8398L152.206 63.5976" stroke="#CF0A80" stroke-width="0.904674" stroke-linecap="round"/>
<path d="M158.67 50.1699C159.285 52.6855 160.438 58.5653 160.136 61.9595L165.144 62.8689" stroke="#CF0A80" stroke-width="0.904674" stroke-linecap="round"/>
<path d="M155.643 29.7096C163.128 29.5007 164.304 40.2969 163.753 43.3325C164.74 43.5116 166.403 45.1462 166.444 46.6432C166.486 48.1402 165.287 49.9978 163.244 50.4522C162.301 50.6621 158.643 51.1847 155.725 51.282C152.807 51.3794 149.254 50.6559 147.28 50.2977C145.307 49.9395 143.493 48.2774 143.83 45.9869C144.1 44.1545 145.984 43.19 146.892 42.9368C146.601 36.7694 148.158 29.9185 155.643 29.7096Z" fill="url(#paint14_linear_1703_1341)"/>
<ellipse cx="157.904" cy="41.5824" rx="1.0027" ry="1.07983" transform="rotate(-7.19645 157.904 41.5824)" fill="#3B314F"/>
<ellipse cx="152.344" cy="41.9838" rx="1.0027" ry="1.07983" transform="rotate(-7.19645 152.344 41.9838)" fill="#3B314F"/>
<path d="M164.931 58.4316C165.025 61.2659 165.908 68.0164 168.68 72.3446" stroke="#CF0A80" stroke-width="0.918557" stroke-linecap="round"/>
<path d="M177.602 56.0123C180.403 57.1145 184.366 66.2214 185.087 70.7746L189.693 70.5638" stroke="#CF0A80" stroke-width="0.918557" stroke-linecap="round"/>
<path d="M172.314 59.8613C172.271 61.3321 173.867 66.7749 176.865 75.0362L173.353 77.7604" stroke="#CF0A80" stroke-width="0.918557" stroke-linecap="round"/>
<path d="M179.143 48.2273C179.34 46.2713 179.388 40.8956 178 35.0416" stroke="#CF0A80" stroke-width="0.918557" stroke-linecap="round"/>
<path d="M167.103 39.9806C174.048 36.8492 179.16 45.2124 179.53 46.9768C184.939 46.0835 185.333 50.9597 184.453 52.7519C183.859 53.9613 182.234 56.1347 178.149 58.3175C174.065 60.5003 169.453 61.8969 168.114 61.9593C166.775 62.0218 165.101 62.4571 163.38 59.7251C162.003 57.5395 163.403 55.382 164.121 54.602C162.479 50.4282 160.159 43.1119 167.103 39.9806Z" fill="url(#paint15_linear_1703_1341)"/>
<ellipse cx="1.01809" cy="1.0964" rx="1.01809" ry="1.0964" transform="matrix(-0.676828 0.736141 0.736141 0.676828 175.996 45.8789)" fill="#3B314F"/>
<ellipse cx="1.01809" cy="1.0964" rx="1.01809" ry="1.0964" transform="matrix(-0.676828 0.736141 0.736141 0.676828 168.19 49.2754)" fill="#3B314F"/>
</g>
<defs>
<linearGradient id="paint0_linear_1703_1341" x1="205.239" y1="62.4146" x2="212.83" y2="45.2123" gradientUnits="userSpaceOnUse">
<stop offset="0.0666008" stop-color="#FF7171"/>
<stop offset="1" stop-color="#EA5548"/>
</linearGradient>
<linearGradient id="paint1_linear_1703_1341" x1="227.43" y1="21" x2="227.43" y2="80.9524" gradientUnits="userSpaceOnUse">
<stop stop-color="#FF7171"/>
<stop offset="1" stop-color="#E85345"/>
</linearGradient>
<linearGradient id="paint2_linear_1703_1341" x1="250.48" y1="68.5112" x2="239.758" y2="52.1895" gradientUnits="userSpaceOnUse">
<stop stop-color="#E04D40"/>
<stop offset="1" stop-color="#F15F56"/>
</linearGradient>
<linearGradient id="paint3_linear_1703_1341" x1="89.3601" y1="49.3859" x2="90.9103" y2="69.5379" gradientUnits="userSpaceOnUse">
<stop stop-color="#1EB67C"/>
<stop offset="1" stop-color="#1FF073"/>
</linearGradient>
<linearGradient id="paint4_linear_1703_1341" x1="54.7401" y1="68.5034" x2="54.7401" y2="84.0049" gradientUnits="userSpaceOnUse">
<stop stop-color="#14B678"/>
<stop offset="0.8125" stop-color="#1FF073"/>
</linearGradient>
<linearGradient id="paint5_linear_1703_1341" x1="77.9932" y1="65.9214" x2="77.9932" y2="84.0065" gradientUnits="userSpaceOnUse">
<stop stop-color="#00AB6A"/>
<stop offset="1" stop-color="#1FF073"/>
</linearGradient>
<linearGradient id="paint6_linear_1703_1341" x1="77.9936" y1="24.0669" x2="51.1243" y2="62.3039" gradientUnits="userSpaceOnUse">
<stop offset="0.234375" stop-color="#16CF89"/>
<stop offset="1" stop-color="#14B578"/>
</linearGradient>
<linearGradient id="paint7_linear_1703_1341" x1="81.6106" y1="28.2006" x2="60.9419" y2="69.0213" gradientUnits="userSpaceOnUse">
<stop stop-color="#1FF073"/>
<stop offset="1" stop-color="#04795D"/>
</linearGradient>
<linearGradient id="paint8_linear_1703_1341" x1="48.5401" y1="50.4195" x2="37.689" y2="70.5715" gradientUnits="userSpaceOnUse">
<stop stop-color="#0FA866"/>
<stop offset="0.994297" stop-color="#1FF073"/>
<stop offset="0.994397" stop-color="#1EB57C"/>
</linearGradient>
<linearGradient id="paint9_linear_1703_1341" x1="112.586" y1="25.3046" x2="126.682" y2="41.591" gradientUnits="userSpaceOnUse">
<stop stop-color="#F783F2"/>
<stop offset="1" stop-color="#E040DA"/>
</linearGradient>
<linearGradient id="paint10_linear_1703_1341" x1="152.62" y1="17.5308" x2="147.738" y2="38.5093" gradientUnits="userSpaceOnUse">
<stop stop-color="#DE83DA"/>
<stop offset="1" stop-color="#C246BD"/>
</linearGradient>
<linearGradient id="paint11_linear_1703_1341" x1="136.763" y1="24" x2="136.763" y2="46.1479" gradientUnits="userSpaceOnUse">
<stop stop-color="#E97EE4"/>
<stop offset="1" stop-color="#D24BCD"/>
</linearGradient>
<linearGradient id="paint12_linear_1703_1341" x1="166.476" y1="20" x2="166.476" y2="42.1479" gradientUnits="userSpaceOnUse">
<stop stop-color="#CF72CB"/>
<stop offset="1" stop-color="#B13BAD"/>
</linearGradient>
<linearGradient id="paint13_linear_1703_1341" x1="128.07" y1="40.0034" x2="124.157" y2="61.5599" gradientUnits="userSpaceOnUse">
<stop stop-color="#F783F2"/>
<stop offset="1" stop-color="#E040DA"/>
</linearGradient>
<linearGradient id="paint14_linear_1703_1341" x1="158.129" y1="30.0034" x2="154.216" y2="51.5599" gradientUnits="userSpaceOnUse">
<stop stop-color="#F783F2"/>
<stop offset="1" stop-color="#E040DA"/>
</linearGradient>
<linearGradient id="paint15_linear_1703_1341" x1="171.283" y1="39.0118" x2="174.892" y2="60.8636" gradientUnits="userSpaceOnUse">
<stop stop-color="#F783F2"/>
<stop offset="1" stop-color="#E040DA"/>
</linearGradient>
</defs>
</svg>
