<svg width="286" height="103" viewBox="0 0 286 103" fill="none" xmlns="http://www.w3.org/2000/svg">
<g clip-path="url(#clip0_1642_5365)">
<rect width="285.652" height="102.768" fill="#1D1D26"/>
<g opacity="0.65">
<path d="M112.698 65.6247C112.995 65.6247 113.236 65.3887 113.236 65.0975C113.236 64.8063 112.995 64.5703 112.698 64.5703C112.401 64.5703 112.16 64.8063 112.16 65.0975C112.16 65.3887 112.401 65.6247 112.698 65.6247Z" fill="#D1FEF9"/>
<path d="M112.227 54.4704C112.785 54.4704 113.237 54.0271 113.237 53.4803C113.237 52.9335 112.785 52.4902 112.227 52.4902C111.669 52.4902 111.217 52.9335 111.217 53.4803C111.217 54.0271 111.669 54.4704 112.227 54.4704Z" fill="#D1FEF9"/>
<path d="M114.365 58.5283C114.778 58.5283 115.113 58.2002 115.113 57.7954C115.113 57.3906 114.778 57.0625 114.365 57.0625C113.952 57.0625 113.617 57.3906 113.617 57.7954C113.617 58.2002 113.952 58.5283 114.365 58.5283Z" fill="#D1FEF9"/>
<path d="M106.436 52.7635C106.65 52.7635 106.823 52.5937 106.823 52.3842C106.823 52.1747 106.65 52.0049 106.436 52.0049C106.222 52.0049 106.049 52.1747 106.049 52.3842C106.049 52.5937 106.222 52.7635 106.436 52.7635Z" fill="#D1FEF9"/>
<path d="M107.732 45.1125C107.909 45.1125 108.053 44.9714 108.053 44.7975C108.053 44.6235 107.909 44.4824 107.732 44.4824C107.554 44.4824 107.41 44.6235 107.41 44.7975C107.41 44.9714 107.554 45.1125 107.732 45.1125Z" fill="#D1FEF9"/>
<path d="M126.571 48.2914C127.181 48.2914 127.675 47.8069 127.675 47.2092C127.675 46.6115 127.181 46.127 126.571 46.127C125.961 46.127 125.467 46.6115 125.467 47.2092C125.467 47.8069 125.961 48.2914 126.571 48.2914Z" fill="#D1FEF9"/>
<path d="M124.194 51.6884C124.488 51.6884 124.727 51.4543 124.727 51.1655C124.727 50.8767 124.488 50.6426 124.194 50.6426C123.899 50.6426 123.66 50.8767 123.66 51.1655C123.66 51.4543 123.899 51.6884 124.194 51.6884Z" fill="#D1FEF9"/>
<path d="M128.041 45.1996C128.244 45.1996 128.408 45.0384 128.408 44.8395C128.408 44.6407 128.244 44.4795 128.041 44.4795C127.838 44.4795 127.674 44.6407 127.674 44.8395C127.674 45.0384 127.838 45.1996 128.041 45.1996Z" fill="#D1FEF9"/>
<path d="M124.29 64.9106C125.101 64.9106 125.759 64.2658 125.759 63.4704C125.759 62.675 125.101 62.0303 124.29 62.0303C123.478 62.0303 122.82 62.675 122.82 63.4704C122.82 64.2658 123.478 64.9106 124.29 64.9106Z" fill="#D1FEF9"/>
<path d="M162.579 101.482C162.909 101.482 163.176 101.22 163.176 100.897C163.176 100.573 162.909 100.312 162.579 100.312C162.25 100.312 161.982 100.573 161.982 100.897C161.982 101.22 162.25 101.482 162.579 101.482Z" fill="#D1FEF9"/>
<path d="M169.195 84.1565C169.556 84.1565 169.848 83.8697 169.848 83.5158C169.848 83.1619 169.556 82.875 169.195 82.875C168.834 82.875 168.541 83.1619 168.541 83.5158C168.541 83.8697 168.834 84.1565 169.195 84.1565Z" fill="#D1FEF9"/>
<path d="M167.338 80.1277C167.825 80.1277 168.219 79.741 168.219 79.264C168.219 78.7871 167.825 78.4004 167.338 78.4004C166.851 78.4004 166.457 78.7871 166.457 79.264C166.457 79.741 166.851 80.1277 167.338 80.1277Z" fill="#D1FEF9"/>
<path d="M171.937 70.8543C172.157 70.8543 172.335 70.6797 172.335 70.4642C172.335 70.2488 172.157 70.0742 171.937 70.0742C171.717 70.0742 171.539 70.2488 171.539 70.4642C171.539 70.6797 171.717 70.8543 171.937 70.8543Z" fill="#D1FEF9"/>
<path d="M179.114 61.7553C179.817 61.7553 180.387 61.1968 180.387 60.508C180.387 59.8192 179.817 59.2607 179.114 59.2607C178.412 59.2607 177.842 59.8192 177.842 60.508C177.842 61.1968 178.412 61.7553 179.114 61.7553Z" fill="#D1FEF9"/>
<path d="M177.37 57.9569C177.605 57.9569 177.796 57.7698 177.796 57.539C177.796 57.3082 177.605 57.1211 177.37 57.1211C177.134 57.1211 176.943 57.3082 176.943 57.539C176.943 57.7698 177.134 57.9569 177.37 57.9569Z" fill="#D1FEF9"/>
<path d="M162.649 71.3092C163.018 71.3092 163.316 71.0166 163.316 70.6556C163.316 70.2946 163.018 70.002 162.649 70.002C162.281 70.002 161.982 70.2946 161.982 70.6556C161.982 71.0166 162.281 71.3092 162.649 71.3092Z" fill="#D1FEF9"/>
<path d="M159.332 93.6462C159.429 93.6462 159.508 93.5691 159.508 93.474C159.508 93.3789 159.429 93.3018 159.332 93.3018C159.235 93.3018 159.156 93.3789 159.156 93.474C159.156 93.5691 159.235 93.6462 159.332 93.6462Z" fill="#D1FEF9"/>
<path d="M158.617 102.293C159.011 102.293 159.33 101.98 159.33 101.594C159.33 101.208 159.011 100.896 158.617 100.896C158.223 100.896 157.904 101.208 157.904 101.594C157.904 101.98 158.223 102.293 158.617 102.293Z" fill="#D1FEF9"/>
<path d="M164.164 93.3045C164.71 93.3045 165.152 92.8708 165.152 92.3358C165.152 91.8009 164.71 91.3672 164.164 91.3672C163.618 91.3672 163.176 91.8009 163.176 92.3358C163.176 92.8708 163.618 93.3045 164.164 93.3045Z" fill="#D1FEF9"/>
<path d="M162.879 86.5448C163.044 86.5448 163.177 86.4143 163.177 86.2534C163.177 86.0924 163.044 85.9619 162.879 85.9619C162.715 85.9619 162.582 86.0924 162.582 86.2534C162.582 86.4143 162.715 86.5448 162.879 86.5448Z" fill="#D1FEF9"/>
<path d="M128.322 95.0891C128.825 95.0891 129.234 94.689 129.234 94.1954C129.234 93.7019 128.825 93.3018 128.322 93.3018C127.818 93.3018 127.41 93.7019 127.41 94.1954C127.41 94.689 127.818 95.0891 128.322 95.0891Z" fill="#D1FEF9"/>
<path d="M131.373 87.0402C131.594 87.0402 131.773 86.8646 131.773 86.6481C131.773 86.4315 131.594 86.2559 131.373 86.2559C131.152 86.2559 130.973 86.4315 130.973 86.6481C130.973 86.8646 131.152 87.0402 131.373 87.0402Z" fill="#D1FEF9"/>
<path d="M118.573 86.1503C119.135 86.1503 119.59 85.7041 119.59 85.1538C119.59 84.6034 119.135 84.1572 118.573 84.1572C118.012 84.1572 117.557 84.6034 117.557 85.1538C117.557 85.7041 118.012 86.1503 118.573 86.1503Z" fill="#D1FEF9"/>
<path d="M124.627 102.069C125.252 102.069 125.759 101.572 125.759 100.959C125.759 100.346 125.252 99.8486 124.627 99.8486C124.001 99.8486 123.494 100.346 123.494 100.959C123.494 101.572 124.001 102.069 124.627 102.069Z" fill="#D1FEF9"/>
<path d="M116.028 82.3486C116.251 82.3486 116.432 82.1711 116.432 81.9521C116.432 81.7332 116.251 81.5557 116.028 81.5557C115.804 81.5557 115.623 81.7332 115.623 81.9521C115.623 82.1711 115.804 82.3486 116.028 82.3486Z" fill="#D1FEF9"/>
<path d="M181.117 87.1678C181.685 87.1678 182.145 86.7168 182.145 86.1605C182.145 85.6043 181.685 85.1533 181.117 85.1533C180.55 85.1533 180.09 85.6043 180.09 86.1605C180.09 86.7168 180.55 87.1678 181.117 87.1678Z" fill="#D1FEF9"/>
<path d="M157.903 9.93057C158.703 9.93057 159.352 9.29443 159.352 8.50972C159.352 7.725 158.703 7.08887 157.903 7.08887C157.102 7.08887 156.453 7.725 156.453 8.50972C156.453 9.29443 157.102 9.93057 157.903 9.93057Z" fill="#D1FEF9"/>
<path d="M180.635 75.2398C180.901 75.2398 181.116 75.0287 181.116 74.7684C181.116 74.508 180.901 74.2969 180.635 74.2969C180.37 74.2969 180.154 74.508 180.154 74.7684C180.154 75.0287 180.37 75.2398 180.635 75.2398Z" fill="#D1FEF9"/>
<path d="M178.88 88.0542C179.13 88.0542 179.333 87.8556 179.333 87.6106C179.333 87.3656 179.13 87.167 178.88 87.167C178.63 87.167 178.428 87.3656 178.428 87.6106C178.428 87.8556 178.63 88.0542 178.88 88.0542Z" fill="#D1FEF9"/>
<path d="M178.447 79.2061C178.686 79.2061 178.879 79.0161 178.879 78.7817C178.879 78.5474 178.686 78.3574 178.447 78.3574C178.207 78.3574 178.014 78.5474 178.014 78.7817C178.014 79.0161 178.207 79.2061 178.447 79.2061Z" fill="#D1FEF9"/>
<path d="M175.093 93.6455C175.462 93.6455 175.762 93.3519 175.762 92.9898C175.762 92.6276 175.462 92.334 175.093 92.334C174.723 92.334 174.424 92.6276 174.424 92.9898C174.424 93.3519 174.723 93.6455 175.093 93.6455Z" fill="#D1FEF9"/>
<path d="M179.275 36.0444C179.726 36.0444 180.092 35.6856 180.092 35.2429C180.092 34.8003 179.726 34.4414 179.275 34.4414C178.823 34.4414 178.457 34.8003 178.457 35.2429C178.457 35.6856 178.823 36.0444 179.275 36.0444Z" fill="#D1FEF9"/>
<path d="M178.85 28.3282C179.083 28.3282 179.272 28.143 179.272 27.9146C179.272 27.6862 179.083 27.501 178.85 27.501C178.617 27.501 178.428 27.6862 178.428 27.9146C178.428 28.143 178.617 28.3282 178.85 28.3282Z" fill="#D1FEF9"/>
<path d="M172.828 19.6982C173.101 19.6982 173.322 19.4813 173.322 19.2138C173.322 18.9463 173.101 18.7295 172.828 18.7295C172.555 18.7295 172.334 18.9463 172.334 19.2138C172.334 19.4813 172.555 19.6982 172.828 19.6982Z" fill="#D1FEF9"/>
<path d="M172.918 32.4895C173.241 32.4895 173.504 32.2324 173.504 31.9152C173.504 31.598 173.241 31.3408 172.918 31.3408C172.594 31.3408 172.332 31.598 172.332 31.9152C172.332 32.2324 172.594 32.4895 172.918 32.4895Z" fill="#D1FEF9"/>
<path d="M170.394 42.9354C170.695 42.9354 170.938 42.6965 170.938 42.4018C170.938 42.1071 170.695 41.8682 170.394 41.8682C170.093 41.8682 169.85 42.1071 169.85 42.4018C169.85 42.6965 170.093 42.9354 170.394 42.9354Z" fill="#D1FEF9"/>
<path d="M122.513 16.2479C122.684 16.2479 122.822 16.1126 122.822 15.9457C122.822 15.7788 122.684 15.6436 122.513 15.6436C122.343 15.6436 122.205 15.7788 122.205 15.9457C122.205 16.1126 122.343 16.2479 122.513 16.2479Z" fill="#D1FEF9"/>
<path d="M126.064 30.0769C126.557 30.0769 126.956 29.6854 126.956 29.2025C126.956 28.7196 126.557 28.3281 126.064 28.3281C125.571 28.3281 125.172 28.7196 125.172 29.2025C125.172 29.6854 125.571 30.0769 126.064 30.0769Z" fill="#D1FEF9"/>
<path d="M120.216 36.0444C120.668 36.0444 121.034 35.6856 121.034 35.2429C121.034 34.8003 120.668 34.4414 120.216 34.4414C119.765 34.4414 119.398 34.8003 119.398 35.2429C119.398 35.6856 119.765 36.0444 120.216 36.0444Z" fill="#D1FEF9"/>
<path d="M117.438 30.4584C117.613 30.4584 117.755 30.3193 117.755 30.1477C117.755 29.976 117.613 29.8369 117.438 29.8369C117.263 29.8369 117.121 29.976 117.121 30.1477C117.121 30.3193 117.263 30.4584 117.438 30.4584Z" fill="#D1FEF9"/>
<path d="M110.689 33.7418C111.042 33.7418 111.328 33.4616 111.328 33.116C111.328 32.7704 111.042 32.4902 110.689 32.4902C110.337 32.4902 110.051 32.7704 110.051 33.116C110.051 33.4616 110.337 33.7418 110.689 33.7418Z" fill="#D1FEF9"/>
<path d="M115.544 42.7204C116.194 42.7204 116.722 42.2032 116.722 41.5653C116.722 40.9273 116.194 40.4102 115.544 40.4102C114.893 40.4102 114.365 40.9273 114.365 41.5653C114.365 42.2032 114.893 42.7204 115.544 42.7204Z" fill="#D1FEF9"/>
<path d="M154.097 15.2014C154.399 15.2014 154.644 14.9615 154.644 14.6656C154.644 14.3698 154.399 14.1299 154.097 14.1299C153.796 14.1299 153.551 14.3698 153.551 14.6656C153.551 14.9615 153.796 15.2014 154.097 15.2014Z" fill="#D1FEF9"/>
<path d="M132.168 7.96299C132.661 7.96299 133.062 7.57056 133.062 7.08647C133.062 6.60239 132.661 6.20996 132.168 6.20996C131.674 6.20996 131.273 6.60239 131.273 7.08647C131.273 7.57056 131.674 7.96299 132.168 7.96299Z" fill="#D1FEF9"/>
<path d="M157.241 1.34752C157.606 1.34752 157.903 1.0568 157.903 0.698176C157.903 0.339551 157.606 0.0488281 157.241 0.0488281C156.875 0.0488281 156.578 0.339551 156.578 0.698176C156.578 1.0568 156.875 1.34752 157.241 1.34752Z" fill="#D1FEF9"/>
<path d="M142.996 18.4425C143.615 18.4425 144.116 17.9513 144.116 17.3453C144.116 16.7393 143.615 16.248 142.996 16.248C142.378 16.248 141.877 16.7393 141.877 17.3453C141.877 17.9513 142.378 18.4425 142.996 18.4425Z" fill="#D1FEF9"/>
<path d="M153.117 33.7419C153.631 33.7419 154.048 33.3331 154.048 32.8289C154.048 32.3247 153.631 31.916 153.117 31.916C152.603 31.916 152.186 32.3247 152.186 32.8289C152.186 33.3331 152.603 33.7419 153.117 33.7419Z" fill="#D1FEF9"/>
<path d="M158.243 35.11C158.432 35.11 158.584 34.9604 158.584 34.7757C158.584 34.5911 158.432 34.4414 158.243 34.4414C158.055 34.4414 157.902 34.5911 157.902 34.7757C157.902 34.9604 158.055 35.11 158.243 35.11Z" fill="#D1FEF9"/>
<path d="M138.576 34.7761C138.867 34.7761 139.103 34.5449 139.103 34.2596C139.103 33.9744 138.867 33.7432 138.576 33.7432C138.285 33.7432 138.049 33.9744 138.049 34.2596C138.049 34.5449 138.285 34.7761 138.576 34.7761Z" fill="#D1FEF9"/>
<path d="M136.38 27.3803C136.707 27.3803 136.972 27.1203 136.972 26.7995C136.972 26.4788 136.707 26.2188 136.38 26.2188C136.052 26.2188 135.787 26.4788 135.787 26.7995C135.787 27.1203 136.052 27.3803 136.38 27.3803Z" fill="#D1FEF9"/>
<path d="M155.042 19.2139C155.259 19.2139 155.435 19.0412 155.435 18.8281C155.435 18.6151 155.259 18.4424 155.042 18.4424C154.825 18.4424 154.648 18.6151 154.648 18.8281C154.648 19.0412 154.825 19.2139 155.042 19.2139Z" fill="#D1FEF9"/>
<path d="M152.094 12.1076C152.358 12.1076 152.573 11.8975 152.573 11.6383C152.573 11.3791 152.358 11.1689 152.094 11.1689C151.83 11.1689 151.615 11.3791 151.615 11.6383C151.615 11.8975 151.83 12.1076 152.094 12.1076Z" fill="#D1FEF9"/>
<path d="M102.263 61.1383C102.501 61.1383 102.693 60.9493 102.693 60.7161C102.693 60.483 102.501 60.2939 102.263 60.2939C102.025 60.2939 101.832 60.483 101.832 60.7161C101.832 60.9493 102.025 61.1383 102.263 61.1383Z" fill="#D1FEF9"/>
<path d="M132.286 16.5523C132.667 16.5523 132.975 16.25 132.975 15.8772C132.975 15.5044 132.667 15.2021 132.286 15.2021C131.906 15.2021 131.598 15.5044 131.598 15.8772C131.598 16.25 131.906 16.5523 132.286 16.5523Z" fill="#D1FEF9"/>
<path d="M104.954 62.987C105.474 62.987 105.896 62.5734 105.896 62.0633C105.896 61.5532 105.474 61.1396 104.954 61.1396C104.434 61.1396 104.012 61.5532 104.012 62.0633C104.012 62.5734 104.434 62.987 104.954 62.987Z" fill="#D1FEF9"/>
</g>
<g opacity="0.2" filter="url(#filter0_f_1642_5365)">
<path d="M172.809 99.3038L172.248 99.6498C155.684 109.881 134.83 110.149 118.007 100.349C101.797 90.9049 91.8266 73.5577 91.8265 54.7969L91.8264 49.3873C91.8263 30.4856 101.698 12.9562 117.861 3.15675L118.67 2.66631C135.106 -7.29892 155.676 -7.47948 172.285 2.19568C188.421 11.5951 198.345 28.8618 198.345 47.5354V53.517C198.345 72.1739 188.682 89.4998 172.809 99.3038Z" fill="url(#paint0_radial_1642_5365)" fill-opacity="0.8"/>
</g>
<path d="M144.512 16.0947L120.233 30.1109L144.326 44.4896L168.423 30.1109L144.512 16.0947Z" fill="#FED501"/>
<path d="M144.555 35.0469L120.276 49.0631L144.369 63.4417L168.466 49.0631L144.555 35.0469Z" fill="#FED501"/>
<path d="M144.467 9.94727L133.551 16.2489L144.383 22.7134L155.217 16.2489L144.467 9.94727Z" fill="#FED501"/>
<path d="M144.375 75.9297L130.422 83.985L144.269 92.2486L158.117 83.985L144.375 75.9297Z" fill="#F6FAFF"/>
<rect width="4.97047" height="15.0989" transform="matrix(-0.859406 0.511293 0 1 148.596 69.6279)" fill="#AE8A42"/>
<rect width="4.97047" height="15.1192" transform="matrix(0.859406 0.511293 0 1 140.053 69.6279)" fill="#CAA459"/>
<rect width="28.0342" height="13.952" transform="matrix(-0.859406 0.511293 0 1 168.418 30.1104)" fill="#DCA502"/>
<rect width="28.0342" height="13.952" transform="matrix(-0.859406 0.511293 0 1 168.461 49.0635)" fill="#DCA502"/>
<rect width="12.604" height="12.9802" transform="matrix(-0.859406 0.511293 0 1 155.215 16.249)" fill="#DCA502"/>
<rect width="16.1117" height="3.71121" transform="matrix(-0.859406 0.511293 0 1 158.113 83.9863)" fill="#B5C8E6"/>
<rect width="28.0342" height="13.9268" transform="matrix(0.859406 0.511293 0 1 120.232 30.1104)" fill="#FFEF7C"/>
<rect width="28.0342" height="13.9268" transform="matrix(0.859406 0.511293 0 1 120.277 49.0635)" fill="#FFEF7C"/>
<rect width="12.604" height="12.965" transform="matrix(0.859406 0.511293 0 1 133.553 16.249)" fill="#FFEF7C"/>
<rect width="16.1117" height="3.67721" transform="matrix(0.859406 0.511293 0 1 130.424 83.9863)" fill="#D0DCEF"/>
</g>
<defs>
<filter id="filter0_f_1642_5365" x="79.824" y="-16.9386" width="130.524" height="136.456" filterUnits="userSpaceOnUse" color-interpolation-filters="sRGB">
<feFlood flood-opacity="0" result="BackgroundImageFix"/>
<feBlend mode="normal" in="SourceGraphic" in2="BackgroundImageFix" result="shape"/>
<feGaussianBlur stdDeviation="6.00106" result="effect1_foregroundBlur_1642_5365"/>
</filter>
<radialGradient id="paint0_radial_1642_5365" cx="0" cy="0" r="1" gradientUnits="userSpaceOnUse" gradientTransform="translate(145.086 51.3845) rotate(90) scale(64.8865 53.2594)">
<stop offset="0.505208" stop-color="#FFC42C"/>
<stop offset="1" stop-color="#F2F484" stop-opacity="0"/>
</radialGradient>
<clipPath id="clip0_1642_5365">
<rect width="285.652" height="102.768" fill="white"/>
</clipPath>
</defs>
</svg>
