<?xml version="1.0" encoding="UTF-8"?>
<svg width="16" height="16" fill="none" version="1.1" viewBox="0 0 16 16" xmlns="http://www.w3.org/2000/svg">
 <g fill="currentColor">
  <path d="m8.0000235 1.833333c-3.40575 0-6.16667 2.76092-6.16667 6.16667 0 3.40576 2.76092 6.16666 6.16667 6.16666 3.4058205 0 6.1666195-2.7609 6.1666195-6.16666 0-3.40575-2.760799-6.16667-6.1666195-6.16667zm-7.166667 6.16667c0-3.95804 3.208627-7.166666 7.166667-7.166666 3.9581205 0 7.1666195 3.208636 7.1666195 7.166666 0 3.95806-3.208499 7.16666-7.1666195 7.16666-3.95804 0-7.166667-3.2086-7.166667-7.16666z" clipRule="evenodd" fillRule="evenodd"/>
  <path d="m4.59135 6.828842v-0.95892c2e-5 -0.48003 0.38916-0.8692 0.8692-0.86922h4.47579l0.00711-2.4e-4c0.01267-3.4e-4 0.02919-5.7e-4 0.04902-4.1e-4 0.03943 3.1e-4 0.09313 0.00219 0.15633 0.00814 0.1237 0.01164 0.2987 0.04016 0.4815 0.11248 0.1836 0.07267 0.3931 0.19695 0.5567 0.40961 0.1681 0.21856 0.2601 0.49501 0.2601 0.8198 0 0.32477-0.0921 0.60124-0.2603 0.81976-0.1637 0.21261-0.3733 0.3367-0.5571 0.40915-0.1828 0.0721-0.3579 0.10039-0.4816 0.11187-0.0632 0.00587-0.1168 0.00767-0.15631 0.00793-0.01982 1.4e-4 -0.03634-1.2e-4 -0.04901-4.7e-4l-0.00675-2.4e-4h-4.47544c-0.48005 0-0.86924-0.38919-0.86924-0.86924zm5.37857-0.82902c-0.00802 3.9e-4 -0.01647 5.9e-4 -0.02449 5.9e-4h-4.35437v0.69795l4.35437 1e-5c0.00825 0 0.01649 2e-4 0.02473 6.1e-4 2e-3 5e-5 0.00744 1.7e-4 0.015 1.2e-4 0.01534-1e-4 0.03994-8.4e-4 0.07064-0.00368 0.0642-0.00595 0.1396-0.01979 0.2072-0.04644 0.0667-0.0263 0.1075-0.05762 0.1316-0.089 0.0196-0.02547 0.0528-0.08158 0.0528-0.20993 0-0.12834-0.0331-0.18463-0.0529-0.21032-0.0243-0.03159-0.0653-0.06304-0.132-0.08947-0.0677-0.02678-0.1432-0.04071-0.2074-0.04675-0.0306-0.00289-0.0553-0.00366-0.07061-0.00378-0.00756-6e-5 -0.01257 4e-5 -0.01457 9e-5" clipRule="evenodd" fillRule="evenodd"/>
  <path d="m4.591 10.13079v-0.95892c2.01e-5 -0.48003 0.3891601-0.8692 0.8692001-0.86922h4.4757902l0.0071-2.4e-4c0.01267-3.4e-4 0.02919-5.7e-4 0.04902-4.1e-4 0.03943 3.1e-4 0.09313 0.00219 0.1563297 0.00814 0.1237 0.01164 0.2987 0.04016 0.4815 0.11248 0.1836 0.07267 0.3931 0.19695 0.5567 0.40961 0.1681 0.21856 0.2601 0.49501 0.2601 0.8198 0 0.32477-0.0921 0.60124-0.2603 0.81976-0.1637 0.21261-0.3733 0.3367-0.5571 0.40915-0.1828 0.0721-0.3579 0.10039-0.4816 0.11187-0.0632 0.0059-0.1168 0.0077-0.1563097 0.0079-0.01982 1.4e-4 -0.03634-1.2e-4 -0.04901-4.7e-4l-0.00674-2.4e-4h-4.4754403c-0.48005 3e-5 -0.86924-0.38916-0.86924-0.86921zm5.3785703-0.82902c-8e-3 3.9e-4 -0.01647 5.9e-4 -0.02449 5.9e-4h-4.3543703v0.69795l4.3543703 1e-5c0.0083 0 0.01649 2e-4 0.02473 6.1e-4 2e-3 5e-5 0.0074 1.7e-4 0.015 1.2e-4 0.01534-1e-4 0.03994-8.4e-4 0.07064-0.0037 0.0642-6e-3 0.1396-0.01979 0.2072-0.04644 0.0667-0.0263 0.1075-0.05762 0.1316-0.089 0.0196-0.02547 0.0528-0.08158 0.0528-0.20993 0-0.12834-0.0331-0.18463-0.0529-0.21032-0.0243-0.03159-0.0653-0.06304-0.132-0.08947-0.0677-0.02678-0.1432-0.04071-0.2074-0.04675-0.0306-0.0029-0.0553-0.00366-0.07061-0.00378-0.0076-6e-5 -0.01257 4e-5 -0.01457 9e-5" clipRule="evenodd" fillRule="evenodd"/>
 </g>
</svg>
