<?xml version="1.0" encoding="UTF-8" standalone="no"?>
<svg width="24" height="24" viewBox="-2 -2 28 28" fill="none" xmlns="http://www.w3.org/2000/svg">
	<path fill-rule="evenodd" clip-rule="evenodd" d="M19.5594 14.5532C19.9524 14.4222 20.3771 14.6346 20.5081 15.0276C20.9015 16.2079 20.8078 17.2404 20.2765 18.0006C19.7536 18.7489 18.9045 19.0898 18.0882 19.0898C17.307 19.0898 16.7067 18.8647 16.2049 18.4457C15.7532 18.0687 15.4078 17.5505 15.0843 17.0652L15.0724 17.0474C14.772 16.5968 14.5111 16.3563 14.2645 16.2193C14.0229 16.0851 13.7313 16.0147 13.3048 16.0147C12.8422 16.0147 12.0647 16.5151 12.3319 17.851C12.4131 18.2572 12.1497 18.6523 11.7435 18.7335C11.3374 18.8148 10.9423 18.5514 10.861 18.1452C10.4448 16.0644 11.7174 14.5147 13.3048 14.5147C13.9033 14.5147 14.4658 14.6152 14.993 14.9081C15.5152 15.1982 15.9376 15.641 16.3205 16.2154C16.6769 16.75 16.907 17.0779 17.1661 17.2942C17.3805 17.4732 17.6345 17.5898 18.0882 17.5898C18.5068 17.5898 18.8536 17.4181 19.047 17.1414C19.232 16.8766 19.3749 16.3716 19.0851 15.5019C18.9541 15.1089 19.1665 14.6842 19.5594 14.5532Z" fill="#000" />
	<path fill-rule="evenodd" clip-rule="evenodd" d="M8.98529 18.5C8.98529 18.0858 8.64951 17.75 8.23529 17.75H7.57353V12.4265H18.3971L18.3971 6.73532C18.3971 5.28152 17.2186 4.10297 15.7647 4.10297H5.88235C4.42854 4.10297 3.25 5.28151 3.25 6.73532V16.6177C3.25 18.0715 4.42855 19.25 5.88235 19.25H8.23529C8.64951 19.25 8.98529 18.9142 8.98529 18.5ZM5.88235 5.60297C5.25697 5.60297 4.75 6.10994 4.75 6.73532V7.86768H6.07353V5.60297H5.88235ZM4.75 16.6177C4.75 17.2431 5.25696 17.75 5.88235 17.75H6.07353V15.4853H4.75V16.6177ZM16.8971 6.73532C16.8971 6.10993 16.3901 5.60297 15.7647 5.60297H15.5735V7.86768H16.8971V6.73532ZM4.75 13.9853V12.4265H6.07353V13.9853H4.75ZM6.07353 10.9265H4.75V9.36768H6.07353V10.9265ZM16.8971 9.36768V10.9265H15.5735V9.36768H16.8971ZM7.57353 10.9265H14.0735V5.60297H7.57353V10.9265Z" fill="#000" />
</svg>
