<?xml version="1.0" encoding="UTF-8" standalone="no"?>
<!-- Created with Inkscape (http://www.inkscape.org/) -->

<svg
   xmlns:dc="http://purl.org/dc/elements/1.1/"
   xmlns:cc="http://creativecommons.org/ns#"
   xmlns:rdf="http://www.w3.org/1999/02/22-rdf-syntax-ns#"
   xmlns:svg="http://www.w3.org/2000/svg"
   xmlns="http://www.w3.org/2000/svg"
   xmlns:xlink="http://www.w3.org/1999/xlink"
   xmlns:sodipodi="http://sodipodi.sourceforge.net/DTD/sodipodi-0.dtd"
   xmlns:inkscape="http://www.inkscape.org/namespaces/inkscape"
   id="svg4486"
   height="256"
   width="256"
   version="1.0"
   inkscape:version="0.48.5 r10040"
   sodipodi:docname="applications-x-gdevelop-project.svg"
   inkscape:export-filename="/home/victor/Developpement/GD/Binaries/Packaging/linux-extra-files/usr/share/icons/hicolor/256x256/mimetypes/applications-x-gdevelop-project.png"
   inkscape:export-xdpi="90"
   inkscape:export-ydpi="90">
  <sodipodi:namedview
     pagecolor="#ffffff"
     bordercolor="#666666"
     borderopacity="1"
     objecttolerance="10"
     gridtolerance="10"
     guidetolerance="10"
     inkscape:pageopacity="0"
     inkscape:pageshadow="2"
     inkscape:window-width="1920"
     inkscape:window-height="1006"
     id="namedview44"
     showgrid="false"
     inkscape:zoom="2.4583333"
     inkscape:cx="154.18133"
     inkscape:cy="99.214708"
     inkscape:window-x="0"
     inkscape:window-y="25"
     inkscape:window-maximized="1"
     inkscape:current-layer="svg4486" />
  <metadata
     id="metadata51">
    <rdf:RDF>
      <cc:Work
         rdf:about="">
        <dc:format>image/svg+xml</dc:format>
        <dc:type
           rdf:resource="http://purl.org/dc/dcmitype/StillImage" />
        <dc:title></dc:title>
      </cc:Work>
    </rdf:RDF>
  </metadata>
  <defs
     id="defs4488">
    <linearGradient
       id="linearGradient5060">
      <stop
         id="stop5062"
         offset="0" />
      <stop
         id="stop5064"
         style="stop-opacity:0"
         offset="1" />
    </linearGradient>
    <linearGradient
       id="linearGradient3312"
       y2="5.4565001"
       gradientUnits="userSpaceOnUse"
       x2="36.358002"
       gradientTransform="matrix(5.2173457,0,0,5.4422088,3.3921377,7.6656911)"
       y1="8.059"
       x1="32.891998">
      <stop
         id="stop8591"
         style="stop-color:#fefefe"
         offset="0" />
      <stop
         id="stop8593"
         style="stop-color:#cbcbcb"
         offset="1" />
    </linearGradient>
    <linearGradient
       id="linearGradient3316"
       y2="46.016998"
       gradientUnits="userSpaceOnUse"
       x2="24"
       gradientTransform="matrix(5.2293733,0,0,5.1131766,2.5355665,8.3932773)"
       y1="2"
       x1="24">
      <stop
         id="stop3213"
         style="stop-color:#fff"
         offset="0" />
      <stop
         id="stop3215"
         style="stop-color:#fff;stop-opacity:0"
         offset="1" />
    </linearGradient>
    <radialGradient
       id="radialGradient3319"
       gradientUnits="userSpaceOnUse"
       cy="112.3"
       cx="102"
       gradientTransform="matrix(0.3617,0,0,-0.39078,0.85106,47.517)"
       r="139.56">
      <stop
         id="stop41"
         style="stop-color:#b7b8b9"
         offset="0" />
      <stop
         id="stop47"
         style="stop-color:#ececec"
         offset=".18851" />
      <stop
         id="stop49"
         style="stop-color:#fafafa;stop-opacity:0"
         offset=".25718" />
      <stop
         id="stop51"
         style="stop-color:#fff;stop-opacity:0"
         offset=".30111" />
      <stop
         id="stop53"
         style="stop-color:#fafafa;stop-opacity:0"
         offset=".53130" />
      <stop
         id="stop55"
         style="stop-color:#ebecec;stop-opacity:0"
         offset="0.85454136" />
      <stop
         id="stop57"
         style="stop-color:#e1e2e3;stop-opacity:0"
         offset="1" />
    </radialGradient>
    <linearGradient
       id="linearGradient3322"
       y2="47.013"
       gradientUnits="userSpaceOnUse"
       x2="25.132"
       gradientTransform="matrix(5.2293733,0,0,5.0001698,2.5355656,3.4346286)"
       y1="0.98521"
       x1="25.132">
      <stop
         id="stop3602"
         style="stop-color:#f4f4f4"
         offset="0" />
      <stop
         id="stop3604"
         style="stop-color:#dbdbdb"
         offset="1" />
    </linearGradient>
    <linearGradient
       id="linearGradient3324"
       y2="2.9061999"
       gradientUnits="userSpaceOnUse"
       x2="-51.785999"
       gradientTransform="matrix(4.222719,0,0,4.6794001,313.21263,-2.1383145)"
       y1="50.785999"
       x1="-51.785999">
      <stop
         id="stop3106"
         style="stop-color:#aaa"
         offset="0" />
      <stop
         id="stop3108"
         style="stop-color:#c8c8c8"
         offset="1" />
    </linearGradient>
    <radialGradient
       id="radialGradient3327"
       xlink:href="#linearGradient5060"
       gradientUnits="userSpaceOnUse"
       cy="486.64999"
       cx="605.71002"
       gradientTransform="matrix(0.12048476,0,0,0.07687178,140.38708,207.14432)"
       r="117.14" />
    <radialGradient
       id="radialGradient3330"
       xlink:href="#linearGradient5060"
       gradientUnits="userSpaceOnUse"
       cy="486.64999"
       cx="605.71002"
       gradientTransform="matrix(-0.12048476,0,0,0.07687178,115.6103,207.14432)"
       r="117.14" />
    <linearGradient
       id="linearGradient3333"
       y2="609.51001"
       gradientUnits="userSpaceOnUse"
       x2="302.85999"
       gradientTransform="matrix(0.35206756,0,0,0.07687178,0.7516188,207.14432)"
       y1="366.64999"
       x1="302.85999">
      <stop
         id="stop5050"
         style="stop-opacity:0"
         offset="0" />
      <stop
         id="stop5056"
         offset=".5" />
      <stop
         id="stop5052"
         style="stop-opacity:0"
         offset="1" />
    </linearGradient>
    <filter
       id="filter3212"
       height="1.3286999"
       width="1.2969"
       y="-0.16434"
       x="-0.14846"
       color-interpolation-filters="sRGB">
      <feGaussianBlur
         id="feGaussianBlur3214"
         stdDeviation="0.77391625" />
    </filter>
    <linearGradient
       inkscape:collect="always"
       xlink:href="#linearGradient3864"
       id="linearGradient3870"
       x1="168.82013"
       y1="223.99173"
       x2="168.82013"
       y2="268.24673"
       gradientUnits="userSpaceOnUse" />
    <linearGradient
       id="linearGradient3864">
      <stop
         style="stop-color:#67ace3;stop-opacity:1;"
         offset="0"
         id="stop3866" />
      <stop
         style="stop-color:#4c90d4;stop-opacity:1"
         offset="1"
         id="stop3868" />
    </linearGradient>
    <linearGradient
       inkscape:collect="always"
       xlink:href="#linearGradient3864"
       id="linearGradient3087"
       x1="168.82013"
       y1="223.99173"
       x2="168.82013"
       y2="268.24673"
       gradientUnits="userSpaceOnUse" />
    <linearGradient
       id="linearGradient3089">
      <stop
         style="stop-color:#67ace3;stop-opacity:1;"
         offset="0"
         id="stop3091" />
      <stop
         style="stop-color:#4c90d4;stop-opacity:1"
         offset="1"
         id="stop3093" />
    </linearGradient>
    <linearGradient
       inkscape:collect="always"
       xlink:href="#linearGradient3864"
       id="linearGradient3095"
       x1="168.82013"
       y1="223.99173"
       x2="168.82013"
       y2="268.24673"
       gradientUnits="userSpaceOnUse" />
    <linearGradient
       id="linearGradient3097">
      <stop
         style="stop-color:#67ace3;stop-opacity:1;"
         offset="0"
         id="stop3099" />
      <stop
         style="stop-color:#4c90d4;stop-opacity:1"
         offset="1"
         id="stop3101" />
    </linearGradient>
    <linearGradient
       inkscape:collect="always"
       xlink:href="#linearGradient3864"
       id="linearGradient3103"
       x1="168.82013"
       y1="223.99173"
       x2="168.82013"
       y2="268.24673"
       gradientUnits="userSpaceOnUse" />
    <linearGradient
       id="linearGradient3105">
      <stop
         style="stop-color:#67ace3;stop-opacity:1;"
         offset="0"
         id="stop3107" />
      <stop
         style="stop-color:#4c90d4;stop-opacity:1"
         offset="1"
         id="stop3109" />
    </linearGradient>
    <linearGradient
       y2="268.24673"
       x2="168.82013"
       y1="223.99173"
       x1="168.82013"
       gradientUnits="userSpaceOnUse"
       id="linearGradient3118"
       xlink:href="#linearGradient3864"
       inkscape:collect="always" />
    <linearGradient
       y2="268.24673"
       x2="168.82013"
       y1="223.99173"
       x1="168.82013"
       gradientUnits="userSpaceOnUse"
       id="linearGradient3120"
       xlink:href="#linearGradient3864"
       inkscape:collect="always" />
    <linearGradient
       y2="268.24673"
       x2="168.82013"
       y1="223.99173"
       x1="168.82013"
       gradientUnits="userSpaceOnUse"
       id="linearGradient3122"
       xlink:href="#linearGradient3864"
       inkscape:collect="always" />
    <linearGradient
       y2="268.24673"
       x2="168.82013"
       y1="223.99173"
       x1="168.82013"
       gradientUnits="userSpaceOnUse"
       id="linearGradient3124"
       xlink:href="#linearGradient3864"
       inkscape:collect="always" />
    <linearGradient
       inkscape:collect="always"
       xlink:href="#linearGradient3864"
       id="linearGradient3959"
       gradientUnits="userSpaceOnUse"
       x1="168.82013"
       y1="223.99173"
       x2="168.82013"
       y2="268.24673" />
    <linearGradient
       inkscape:collect="always"
       xlink:href="#linearGradient3864"
       id="linearGradient3961"
       gradientUnits="userSpaceOnUse"
       x1="168.82013"
       y1="223.99173"
       x2="168.82013"
       y2="268.24673" />
    <linearGradient
       inkscape:collect="always"
       xlink:href="#linearGradient3864"
       id="linearGradient3963"
       gradientUnits="userSpaceOnUse"
       x1="168.82013"
       y1="223.99173"
       x2="168.82013"
       y2="268.24673" />
    <linearGradient
       inkscape:collect="always"
       xlink:href="#linearGradient3864"
       id="linearGradient3965"
       gradientUnits="userSpaceOnUse"
       x1="168.82013"
       y1="223.99173"
       x2="168.82013"
       y2="268.24673" />
    <linearGradient
       inkscape:collect="always"
       xlink:href="#linearGradient3864"
       id="linearGradient3978"
       gradientUnits="userSpaceOnUse"
       x1="168.82013"
       y1="223.99173"
       x2="168.82013"
       y2="268.24673" />
    <linearGradient
       inkscape:collect="always"
       xlink:href="#linearGradient3864"
       id="linearGradient3980"
       gradientUnits="userSpaceOnUse"
       x1="168.82013"
       y1="223.99173"
       x2="168.82013"
       y2="268.24673" />
    <linearGradient
       inkscape:collect="always"
       xlink:href="#linearGradient3864"
       id="linearGradient3982"
       gradientUnits="userSpaceOnUse"
       x1="168.82013"
       y1="223.99173"
       x2="168.82013"
       y2="268.24673" />
    <linearGradient
       inkscape:collect="always"
       xlink:href="#linearGradient3864"
       id="linearGradient3984"
       gradientUnits="userSpaceOnUse"
       x1="168.82013"
       y1="223.99173"
       x2="168.82013"
       y2="268.24673" />
    <linearGradient
       inkscape:collect="always"
       xlink:href="#linearGradient3864"
       id="linearGradient3987"
       gradientUnits="userSpaceOnUse"
       x1="168.82013"
       y1="223.99173"
       x2="168.82013"
       y2="268.24673"
       gradientTransform="matrix(1.3351686,0,0,1.3351686,-101.71983,-230.26927)" />
    <linearGradient
       inkscape:collect="always"
       xlink:href="#linearGradient3864"
       id="linearGradient3991"
       gradientUnits="userSpaceOnUse"
       x1="168.82013"
       y1="223.99173"
       x2="168.82013"
       y2="268.24673" />
    <linearGradient
       inkscape:collect="always"
       xlink:href="#linearGradient3864"
       id="linearGradient3993"
       gradientUnits="userSpaceOnUse"
       x1="168.82013"
       y1="223.99173"
       x2="168.82013"
       y2="268.24673" />
    <linearGradient
       inkscape:collect="always"
       xlink:href="#linearGradient3864"
       id="linearGradient3996"
       gradientUnits="userSpaceOnUse"
       x1="168.82013"
       y1="223.99173"
       x2="168.82013"
       y2="268.24673"
       gradientTransform="matrix(0.25532097,0,0,0.25532097,-19.9365,-46.605512)" />
    <linearGradient
       inkscape:collect="always"
       xlink:href="#linearGradient3864"
       id="linearGradient4008"
       gradientUnits="userSpaceOnUse"
       gradientTransform="matrix(1.3351686,0,0,1.3351686,-101.71983,-230.26927)"
       x1="168.82013"
       y1="223.99173"
       x2="168.82013"
       y2="268.24673" />
  </defs>
  <rect
     id="rect2879"
     style="opacity:0.3;fill:url(#linearGradient3333)"
     height="18.669386"
     width="169.99648"
     y="235.33061"
     x="42.999413" />
  <path
     id="path2881"
     style="opacity:0.3;fill:url(#radialGradient3330)"
     d="m 42.999412,235.33064 v 18.66887 C 36.79476,254.03611 28,249.81601 28,244.66508 c 0,-5.15617 6.92369,-9.33444 14.999412,-9.33444 z"
     inkscape:connector-curvature="0" />
  <path
     id="path2883"
     style="opacity:0.3;fill:url(#radialGradient3327)"
     d="m 212.99692,235.33064 v 18.66887 c 6.20727,0.0366 15.00308,-4.1835 15.00308,-9.33443 0,-5.15617 -6.92892,-9.33444 -15.00308,-9.33444 z"
     inkscape:connector-curvature="0" />
  <path
     id="path4160"
     style="fill:url(#linearGradient3322);stroke:url(#linearGradient3324);stroke-width:5.22895479;stroke-linejoin:round"
     d="M 36.526493,16.048377 H 162.35044 c 7.35773,2.482121 46.88133,30.760218 57.20412,50.34213 V 246.17114 H 36.526493 V 16.04733 z"
     inkscape:connector-curvature="0" />
  <path
     id="path4191"
     style="fill:#614a79;fill-opacity:1"
     d="m 41.032644,243.54076 c -1.042214,0 -1.891464,-0.91514 -1.891464,-2.04469 V 20.795601 c 0,-1.12693 0.84925,-2.042592 1.891464,-2.042592 39.13297,0.564771 82.493366,-0.844963 121.577706,0.14067 l 53.77364,46.363623 0.55431,176.240338 c 0,1.12955 -0.84715,2.04469 -1.89303,2.04469 H 41.032644 z"
     inkscape:connector-curvature="0" />
  <path
     id="path2435"
     style="opacity:0.6;fill:none;stroke:url(#linearGradient3316);stroke-width:5.22895479;stroke-linejoin:round"
     d="M 214.32518,67.096473 V 241.04112 H 41.755866 V 21.177345 c 39.544521,-0.0016 80.030334,-0.0016 119.574844,-0.0016"
     inkscape:connector-curvature="0" />
  <path
     id="path12038"
     style="opacity:0.4;fill-rule:evenodd;filter:url(#filter3212)"
     d="m 28.617,208.92126 c 4.283,0 2.154,8.4831 2.154,8.4831 0,0 10.357,-1.8023 10.357,2.8186 0,-2.6095 -11.302,-10.728 -12.511,-11.302 z"
     inkscape:connector-curvature="0"
     transform="matrix(5.2293733,0,0,5.2293733,2.5355665,-1074.2613)" />
  <path
     style="fill:url(#linearGradient4008);fill-opacity:1"
     d="m 134.90408,47.27584 c -49.262388,0 -73.701481,17.540626 -73.701481,65.53059 0,25.86756 11.315485,41.12415 21.080911,47.88145 14.009927,9.69866 29.77396,14.21736 46.24727,14.21736 24.81144,0 41.01924,-4.41098 41.01789,-4.41229 l 19.77358,-59.97437 c 3.73312,-11.350257 -3.61573,-12.419768 -10.78559,-12.419768 l -48.86195,0 c -8.19394,0 -14.21737,4.458408 -14.21737,12.092928 0,7.90551 6.53378,11.27584 13.07344,11.27584 l 23.04193,0 c 3.38598,0 3.86359,0.80679 2.7781,4.24887 -0.92661,2.93739 -6.53671,21.08091 -6.53671,21.08091 -13.71352,1.32183 -36.1715,0.89171 -47.71804,-8.33432 -6.832059,-5.45815 -10.295327,-13.88576 -10.295327,-25.65661 0,-35.635674 19.452867,-38.07638 51.966897,-38.07638 l 69.77945,0 0,-16.078649 -11.31461,-11.375561 z"
     id="path23"
     inkscape:connector-curvature="0"
     sodipodi:nodetypes="sscsccssssscccsscccs" />
  <path
     style="fill:url(#linearGradient3987);fill-opacity:1"
     d="m 44.533971,144.83634 0,49.51563 c 21.107555,18.51418 51.050717,28.2713 86.938329,28.2713 42.27645,0 65.13791,-9.402 80.07478,-24.18586 l 0,-13.40027 -27.61763,0 c -9.96436,6.97625 -24.63528,10.78559 -49.67905,10.78559 -43.164664,0 -74.875044,-15.52429 -87.755414,-45.59359 -0.761213,-1.77664 -1.394238,-3.54955 -1.961015,-5.3928 z"
     id="path25"
     inkscape:connector-curvature="0" />
  <path
     style="fill:#377fc9;fill-opacity:1"
     d="m 154.12385,126.22077 c -1.27909,4.07357 -6.39145,20.51483 -6.39145,20.51483 -13.71352,1.32183 -36.15636,0.92931 -47.7029,-8.29672 -3.880008,-3.10159 -6.625116,-7.14714 -8.274047,-12.21811 H 62.289612 c 3.066886,17.87923 12.025865,28.99985 19.968786,34.4954 14.009921,9.69865 29.869052,14.15278 46.342372,14.15278 24.81143,0 40.96297,-4.35267 40.96297,-4.35267 l 14.60541,-44.29551 h -30.0453 z"
     id="path45"
     inkscape:connector-curvature="0" />
  <path
     style="fill:#377fc9;fill-opacity:1"
     d="m 44.533971,144.67292 0,49.67905 c 21.107555,18.51418 51.050717,28.2713 86.938329,28.2713 42.27645,0 65.13791,-9.402 80.07478,-24.18586 l 0,-13.40027 -27.61763,0 c -9.96436,6.97625 -24.63528,10.78559 -49.67905,10.78559 -43.164658,0 -74.875044,-15.52292 -87.755414,-45.59359 -0.786414,-1.83588 -1.382241,-3.64823 -1.961015,-5.55622 z"
     id="path47"
     inkscape:connector-curvature="0" />
  <path
     id="path4474"
     style="fill:url(#linearGradient3312);fill-rule:evenodd"
     d="m 152.18454,18.265945 c 16.66602,0 12.21582,40.066412 12.21582,40.066412 0,0 53.20887,-5.130015 53.20887,19.034396 0,-5.888275 0.44972,-10.10315 -0.70074,-11.940752 -8.25195,-13.199984 -43.90058,-42.8202 -56.7753,-46.702487 -0.9622,-0.290753 -3.10102,-0.457569 -7.94865,-0.457569 z"
     inkscape:connector-curvature="0" />
</svg>
