<?xml version="1.0" encoding="UTF-8"?>
<svg width="24" height="24" version="1.1" viewBox="0 0 24 24" xmlns="http://www.w3.org/2000/svg">
 <path d="m17.623 9.5986c0.3592 0.20615 0.4834 0.66451 0.2772 1.0238l-1.7941 2.9977c-0.7048 1.2282-2.5005 1.1544-3.1022-0.1276l-0.43373-0.9244c-0.17594-0.375-0.01457-0.8216 0.36042-0.9976 0.375-0.1759 0.82166-0.0146 0.99756 0.3604l0.4337 0.9244c-1e-4 0 0 0 0 0 0.086 0.1831 0.3424 0.1937 0.4432 0.0182v0l1.7941-2.9976c0.2061-0.35927 0.6645-0.48341 1.0238-0.27726z" clip-rule="evenodd" fill-rule="evenodd"/>
 <g fill="none" stroke="#000" stroke-linecap="round" stroke-linejoin="round" stroke-width="1.5">
  <circle cx="15.5" cy="12" r="6.25"/>
  <path d="m6.4995 16.25a4.25 4.25 0 0 1-3.6806-2.125 4.25 4.25 0 0 1 0-4.25 4.25 4.25 0 0 1 3.6806-2.125"/>
  <path d="m6.4995 7.75h3.9628"/>
  <path d="m6.4995 16.25h3.9628"/>
 </g>
</svg>
