<?xml version="1.0" encoding="UTF-8"?>
<svg width="16" height="16" fill="none" version="1.1" viewBox="0 0 16 16" xmlns="http://www.w3.org/2000/svg">
    <path
      fillRule="evenodd"
      clipRule="evenodd"
      d="M7.54743 2.00012C7.86298 1.68064 8.29227 1.5 8.74123 1.5C9.19019 1.5 9.61948 1.68064 9.93502 2.00012C10.2504 2.3194 10.4264 2.75112 10.4264 3.2V3.3H12.5338C12.7627 3.3 12.981 3.39214 13.141 3.55409C13.3007 3.71584 13.3894 3.93391 13.3894 4.16V6.3H13.482C13.9309 6.3 14.3602 6.48064 14.6758 6.80012C14.9911 7.1194 15.1672 7.55112 15.1672 8C15.1672 8.44888 14.9911 8.8806 14.6758 9.19988C14.3602 9.51936 13.9309 9.7 13.482 9.7H13.3894V11.84C13.3894 12.0661 13.3007 12.2842 13.141 12.4459C12.981 12.6079 12.7627 12.7 12.5338 12.7H10.4264V12.8C10.4264 13.2489 10.2504 13.6806 9.93502 13.9999C9.61948 14.3194 9.19019 14.5 8.74123 14.5C8.29227 14.5 7.86298 14.3194 7.54743 13.9999C7.2321 13.6806 7.05604 13.2489 7.05604 12.8V12.7H4.35604C4.12712 12.7 3.90884 12.6079 3.74889 12.4459C3.58914 12.2842 3.50049 12.0661 3.50049 11.84V9.2C3.50049 8.92386 3.72435 8.7 4.00049 8.7H4.59308C4.77278 8.7 4.9464 8.62778 5.07539 8.49718C5.20459 8.36637 5.27827 8.18764 5.27827 8C5.27827 7.81236 5.20459 7.63363 5.07539 7.50282C4.9464 7.37222 4.77278 7.3 4.59308 7.3H4.00049C3.72435 7.3 3.50049 7.07614 3.50049 6.8V4.16C3.50049 3.9339 3.58914 3.71584 3.74889 3.55409C3.90884 3.39214 4.12712 3.3 4.35604 3.3H7.05604V3.2C7.05604 2.75112 7.2321 2.3194 7.54743 2.00012ZM8.74123 2.5C8.56153 2.5 8.38791 2.57222 8.25892 2.70282C8.12972 2.83363 8.05604 3.01236 8.05604 3.2V3.8C8.05604 4.07614 7.83219 4.3 7.55604 4.3H4.50049V6.3H4.59308C5.04204 6.3 5.47133 6.48064 5.78688 6.80012C6.10221 7.1194 6.27827 7.55112 6.27827 8C6.27827 8.44888 6.10221 8.8806 5.78688 9.19988C5.47133 9.51936 5.04204 9.7 4.59308 9.7H4.50049V11.7H7.55604C7.83219 11.7 8.05604 11.9239 8.05604 12.2V12.8C8.05604 12.9876 8.12972 13.1664 8.25892 13.2972C8.38791 13.4278 8.56153 13.5 8.74123 13.5C8.92093 13.5 9.09455 13.4278 9.22354 13.2972C9.35274 13.1664 9.42641 12.9876 9.42641 12.8V12.2C9.42641 11.9239 9.65027 11.7 9.92641 11.7H12.3894V9.2C12.3894 8.92386 12.6132 8.7 12.8894 8.7H13.482C13.6617 8.7 13.8353 8.62778 13.9643 8.49718C14.0935 8.36637 14.1672 8.18764 14.1672 8C14.1672 7.81236 14.0935 7.63363 13.9643 7.50282C13.8353 7.37222 13.6617 7.3 13.482 7.3H12.8894C12.6132 7.3 12.3894 7.07614 12.3894 6.8V4.3H9.92641C9.65027 4.3 9.42641 4.07614 9.42641 3.8V3.2C9.42641 3.01236 9.35274 2.83363 9.22354 2.70282C9.09455 2.57222 8.92093 2.5 8.74123 2.5Z"
      fill="currentColor"
    />
</svg>
