<?xml version="1.0" encoding="UTF-8" standalone="no"?>
<svg
   xmlns:dc="http://purl.org/dc/elements/1.1/"
   xmlns:cc="http://creativecommons.org/ns#"
   xmlns:rdf="http://www.w3.org/1999/02/22-rdf-syntax-ns#"
   xmlns:svg="http://www.w3.org/2000/svg"
   xmlns="http://www.w3.org/2000/svg"
   xmlns:sodipodi="http://sodipodi.sourceforge.net/DTD/sodipodi-0.dtd"
   xmlns:inkscape="http://www.inkscape.org/namespaces/inkscape"
   version="1.1"
   id="svg11"
   sodipodi:docname="function.svg"
   width="24"
   height="24"
   inkscape:version="0.92.5 (2060ec1f9f, 2020-04-08)">
  <metadata
     id="metadata17">
    <rdf:RDF>
      <cc:Work
         rdf:about="">
        <dc:format>image/svg+xml</dc:format>
        <dc:type
           rdf:resource="http://purl.org/dc/dcmitype/StillImage" />
      </cc:Work>
    </rdf:RDF>
  </metadata>
  <defs
     id="defs15" />
  <sodipodi:namedview
     pagecolor="#ffffff"
     bordercolor="#666666"
     borderopacity="1"
     objecttolerance="10"
     gridtolerance="10"
     guidetolerance="10"
     inkscape:pageopacity="0"
     inkscape:pageshadow="2"
     inkscape:window-width="1920"
     inkscape:window-height="1053"
     id="namedview13"
     showgrid="false"
     inkscape:zoom="2.36"
     inkscape:cx="50"
     inkscape:cy="-26"
     inkscape:window-x="0"
     inkscape:window-y="0"
     inkscape:window-maximized="1"
     inkscape:current-layer="svg11" />
  <g
     id="Function"
     fillRule="nonzero">
    <path
       d="M 24,14.571429 V 9.4285714 H 21.948 C 21.704571,8.4874286 21.336,7.5994286 20.852571,6.7834286 l 1.450286,-1.4502857 -3.636,-3.6377143 -1.450286,1.4502857 c -0.816,-0.4817143 -1.704,-0.852 -2.645142,-1.0954286 V 0 H 9.4285714 V 2.052 C 8.4874286,2.2954286 7.5994286,2.664 6.7834286,3.1474286 l -1.4502857,-1.4502857 -3.636,3.636 1.4502857,1.4502857 c -0.4817143,0.816 -0.852,1.704 -1.0954286,2.6451428 H 0 v 5.1428576 h 2.052 c 0.2434286,0.941142 0.612,1.829142 1.0954286,2.645142 l -1.4502857,1.450286 3.636,3.637714 1.4502857,-1.450285 c 0.816,0.481714 1.704,0.852 2.6451428,1.095428 V 24 h 5.1428576 v -2.052 c 0.941142,-0.243429 1.829142,-0.612 2.645142,-1.095429 l 1.450286,1.450286 3.636,-3.637714 -1.450286,-1.450286 c 0.481715,-0.816 0.852,-1.704 1.095429,-2.645143 H 24 Z"
       id="Shape"
       inkscape:connector-curvature="0"
       style="fill:#27aae1" />
    <polygon
       id="polygon3"
       points="10.285714,12 12,12.857143 15.428571,11.142857 15.428571,13.714286 12,15.456 8.5714286,13.714286 8.5714286,10.285714 12,8.5714286 15.428571,6.8571429 12,5.1428571 5.1428571,8.5714286 5.1428571,15.428571 12,18.857143 17.571429,16.071429 18.857143,15.428571 18.857143,15 18.857143,8.5714286 17.142857,7.7142857 10.285714,11.142857 "
       style="fill:#2b3990" />
    <g
       id="Group"
       style="opacity:0.1">
      <path
         d="m 3.1457143,6.7834286 c -0.4817143,0.816 -0.852,1.704 -1.0954286,2.6451428 H 0 v 5.1428576 h 2.052 c 0.2434286,0.941142 0.612,1.829142 1.0954286,2.645142 l -1.4502857,1.450286 3.636,3.637714 1.4502857,-1.450285 c 0.816,0.481714 1.704,0.852 2.6451428,1.095428 V 24 h 5.1428576 v -2.052 c 0.941142,-0.243429 1.829142,-0.612 2.645142,-1.095429 L 18.666857,22.302857 20.485714,20.484 3.5142857,3.5142857 1.6971429,5.3331429 Z"
         id="path5"
         inkscape:connector-curvature="0"
         style="fill:#000000" />
      <path
         d="m 22.302857,18.666857 -1.450286,-1.450286 c 0.481715,-0.816 0.852,-1.704 1.095429,-2.645142 H 24 V 9.4285714 H 21.948 C 21.704571,8.4874286 21.336,7.5994286 20.852571,6.7834286 l 1.450286,-1.4502857 -3.636,-3.6377143 -1.450286,1.4502857 c -0.816,-0.4817143 -1.704,-0.852 -2.645142,-1.0954286 V 0 H 9.4285714 V 2.052 C 8.4874286,2.2954286 7.5994286,2.664 6.7834286,3.1474286 L 5.3331429,1.6971429 3.5142857,3.5142857 20.484,20.484 Z"
         id="path7"
         inkscape:connector-curvature="0"
         style="fill:#ffffff" />
    </g>
  </g>
</svg>
