<?xml version="1.0" encoding="UTF-8"?>
<svg width="24" height="24" fill="none" version="1.1" viewBox="0 0 24 24" xmlns="http://www.w3.org/2000/svg">
<path fill-rule="evenodd" clip-rule="evenodd" d="M9.69321 4.06562C9.88838 3.97813 10.1116 3.97813 10.3068 4.06562L17.4392 7.26289C17.7869 7.32813 18.05 7.63334 18.05 8V13C18.05 13.4142 17.7142 13.75 17.3 13.75C16.8858 13.75 16.55 13.4142 16.55 13V9.1357L10.75 11.7357V19C10.75 19.0426 10.7464 19.0844 10.7396 19.1251C10.7636 19.2664 10.7474 19.4162 10.6844 19.5568C10.5149 19.9348 10.0712 20.1038 9.69321 19.9344L2.45881 16.6914C2.42035 16.6752 2.38352 16.6558 2.34865 16.6337C2.16761 16.5188 2.03916 16.3284 2.00756 16.1069C2.00164 16.066 1.99907 16.0246 2 15.9829V8C2 7.81185 2.06929 7.63988 2.18373 7.50821C2.21418 7.47314 2.24797 7.44079 2.28477 7.41169C2.3375 7.36994 2.39596 7.33513 2.45879 7.30863L9.69321 4.06562ZM3.5 9.15812L9.25 11.7357V18.0919L3.5 15.5143V9.15812ZM4.58349 8L10 10.4281L15.4165 8L10 5.57191L4.58349 8Z" fill="currentColor"/>
<path fill-rule="evenodd" clip-rule="evenodd" d="M22.1323 15.5616C21.5691 15.1333 20.8153 14.9192 19.8707 14.9192H18.3747V21H20.0291C20.8857 21 21.5926 20.7712 22.1499 20.3136C22.7073 19.8501 22.9859 19.0552 22.9859 17.9288C22.9859 16.7789 22.7014 15.9899 22.1323 15.5616ZM21.3227 19.6536C21.0294 19.9704 20.6246 20.1288 20.1083 20.1288H19.5363V15.7904H20.0731C20.4134 15.7904 20.7038 15.8461 20.9443 15.9576C21.1907 16.0691 21.3873 16.2832 21.5339 16.6C21.6865 16.9109 21.7627 17.3539 21.7627 17.9288C21.7627 18.756 21.6161 19.3309 21.3227 19.6536Z" fill="currentColor"/>
<path d="M15.0416 14.972C15.4347 14.972 15.772 15.0395 16.0536 15.1744C16.3411 15.3093 16.5552 15.4912 16.696 15.72C16.8427 15.9488 16.916 16.2011 16.916 16.4768C16.916 16.8347 16.8133 17.1339 16.608 17.3744C16.4027 17.6091 16.1211 17.7733 15.7632 17.8672C16.1563 17.9024 16.4789 18.0432 16.7312 18.2896C16.9835 18.536 17.1096 18.8763 17.1096 19.3104C17.1096 19.6507 17.0216 19.9587 16.8456 20.2344C16.6755 20.5101 16.4291 20.7301 16.1064 20.8944C15.7837 21.0528 15.4024 21.132 14.9624 21.132C14.1528 21.132 13.5133 20.8475 13.044 20.2784L13.6688 19.68C13.8683 19.8795 14.0648 20.0261 14.2584 20.12C14.452 20.208 14.6661 20.252 14.9008 20.252C15.2176 20.252 15.4699 20.164 15.6576 19.988C15.8512 19.8061 15.948 19.5627 15.948 19.2576C15.948 18.9173 15.8571 18.6739 15.6752 18.5272C15.4992 18.3805 15.2352 18.3072 14.8832 18.3072H14.4168L14.5488 17.5064H14.8656C15.1531 17.5064 15.3819 17.4272 15.552 17.2688C15.728 17.1104 15.816 16.8904 15.816 16.6088C15.816 16.3683 15.7368 16.1805 15.5784 16.0456C15.42 15.9048 15.2088 15.8344 14.9448 15.8344C14.716 15.8344 14.5077 15.8784 14.32 15.9664C14.1323 16.0485 13.9445 16.1776 13.7568 16.3536L13.1848 15.7288C13.7187 15.2243 14.3376 14.972 15.0416 14.972Z" fill="currentColor"/>
</svg>
